G04*
G04 #@! TF.GenerationSoftware,Altium Limited,Altium Designer,20.0.2 (26)*
G04*
G04 Layer_Color=8388736*
%FSLAX44Y44*%
%MOMM*%
G71*
G01*
G75*
%ADD11C,0.2000*%
G36*
X816331Y751446D02*
Y751436D01*
Y751407D01*
Y751368D01*
Y751309D01*
X816321Y751241D01*
Y751163D01*
X816311Y750987D01*
X816282Y750782D01*
X816253Y750578D01*
X816204Y750373D01*
X816136Y750197D01*
X816126Y750178D01*
X816097Y750129D01*
X816048Y750051D01*
X815989Y749953D01*
X815901Y749836D01*
X815794Y749729D01*
X815658Y749622D01*
X815511Y749524D01*
X815492Y749514D01*
X815433Y749485D01*
X815346Y749456D01*
X815229Y749417D01*
X815082Y749368D01*
X814916Y749339D01*
X814721Y749310D01*
X814517Y749300D01*
X814438D01*
X814380Y749310D01*
X814312Y749319D01*
X814224Y749329D01*
X814039Y749358D01*
X813834Y749417D01*
X813619Y749505D01*
X813512Y749554D01*
X813414Y749622D01*
X813317Y749690D01*
X813229Y749778D01*
Y749788D01*
X813210Y749797D01*
X813190Y749827D01*
X813161Y749866D01*
X813122Y749924D01*
X813092Y749983D01*
X813044Y750061D01*
X813005Y750139D01*
X812966Y750236D01*
X812927Y750343D01*
X812888Y750461D01*
X812858Y750597D01*
X812829Y750734D01*
X812810Y750890D01*
X812800Y751046D01*
Y751221D01*
X813561Y751329D01*
Y751319D01*
Y751299D01*
Y751260D01*
X813570Y751212D01*
Y751153D01*
X813580Y751085D01*
X813609Y750929D01*
X813639Y750753D01*
X813688Y750587D01*
X813756Y750441D01*
X813795Y750373D01*
X813834Y750314D01*
X813844Y750304D01*
X813883Y750275D01*
X813931Y750227D01*
X814009Y750188D01*
X814107Y750139D01*
X814224Y750090D01*
X814360Y750061D01*
X814517Y750051D01*
X814575D01*
X814633Y750061D01*
X814702Y750070D01*
X814790Y750090D01*
X814887Y750109D01*
X814975Y750148D01*
X815063Y750197D01*
X815072Y750207D01*
X815102Y750227D01*
X815141Y750256D01*
X815190Y750304D01*
X815248Y750353D01*
X815297Y750422D01*
X815346Y750500D01*
X815385Y750587D01*
Y750597D01*
X815404Y750636D01*
X815414Y750695D01*
X815433Y750782D01*
X815453Y750900D01*
X815463Y751036D01*
X815482Y751202D01*
Y751397D01*
Y755815D01*
X816331D01*
Y751446D01*
D02*
G37*
G36*
X821334Y754967D02*
X818779D01*
X818428Y753240D01*
X818438Y753250D01*
X818457Y753260D01*
X818486Y753279D01*
X818525Y753309D01*
X818584Y753338D01*
X818642Y753367D01*
X818798Y753445D01*
X818974Y753523D01*
X819179Y753582D01*
X819403Y753631D01*
X819637Y753650D01*
X819715D01*
X819774Y753640D01*
X819852Y753631D01*
X819930Y753621D01*
X820027Y753601D01*
X820125Y753582D01*
X820349Y753504D01*
X820466Y753465D01*
X820583Y753406D01*
X820710Y753338D01*
X820827Y753260D01*
X820944Y753172D01*
X821051Y753065D01*
X821061Y753055D01*
X821081Y753036D01*
X821110Y753006D01*
X821139Y752958D01*
X821188Y752899D01*
X821237Y752831D01*
X821285Y752753D01*
X821344Y752665D01*
X821403Y752558D01*
X821451Y752450D01*
X821500Y752324D01*
X821549Y752197D01*
X821578Y752050D01*
X821607Y751904D01*
X821627Y751738D01*
X821637Y751572D01*
Y751563D01*
Y751533D01*
Y751485D01*
X821627Y751426D01*
X821617Y751348D01*
X821607Y751260D01*
X821598Y751163D01*
X821578Y751056D01*
X821510Y750821D01*
X821422Y750578D01*
X821364Y750441D01*
X821295Y750314D01*
X821217Y750188D01*
X821129Y750070D01*
X821120Y750061D01*
X821100Y750041D01*
X821061Y750002D01*
X821012Y749953D01*
X820954Y749895D01*
X820876Y749827D01*
X820788Y749758D01*
X820681Y749690D01*
X820574Y749612D01*
X820447Y749544D01*
X820300Y749475D01*
X820154Y749417D01*
X819988Y749368D01*
X819822Y749329D01*
X819637Y749310D01*
X819442Y749300D01*
X819354D01*
X819296Y749310D01*
X819228Y749319D01*
X819140Y749329D01*
X819042Y749339D01*
X818935Y749358D01*
X818711Y749417D01*
X818476Y749505D01*
X818359Y749563D01*
X818242Y749632D01*
X818125Y749700D01*
X818018Y749788D01*
X818008Y749797D01*
X817999Y749807D01*
X817969Y749836D01*
X817930Y749875D01*
X817891Y749924D01*
X817842Y749983D01*
X817794Y750051D01*
X817735Y750129D01*
X817628Y750314D01*
X817521Y750539D01*
X817443Y750792D01*
X817413Y750938D01*
X817394Y751085D01*
X818223Y751143D01*
Y751133D01*
Y751114D01*
X818233Y751085D01*
X818242Y751046D01*
X818272Y750938D01*
X818311Y750802D01*
X818359Y750656D01*
X818438Y750509D01*
X818525Y750363D01*
X818642Y750236D01*
X818662Y750227D01*
X818701Y750188D01*
X818769Y750148D01*
X818867Y750090D01*
X818984Y750041D01*
X819120Y749992D01*
X819276Y749953D01*
X819442Y749944D01*
X819501D01*
X819540Y749953D01*
X819647Y749963D01*
X819783Y749992D01*
X819930Y750051D01*
X820096Y750119D01*
X820252Y750227D01*
X820330Y750285D01*
X820408Y750363D01*
Y750373D01*
X820427Y750383D01*
X820466Y750441D01*
X820535Y750539D01*
X820603Y750665D01*
X820671Y750831D01*
X820739Y751026D01*
X820778Y751251D01*
X820798Y751504D01*
Y751514D01*
Y751533D01*
Y751572D01*
X820788Y751611D01*
Y751670D01*
X820778Y751738D01*
X820749Y751894D01*
X820710Y752060D01*
X820642Y752236D01*
X820544Y752411D01*
X820417Y752567D01*
X820398Y752587D01*
X820349Y752626D01*
X820271Y752694D01*
X820154Y752762D01*
X820017Y752831D01*
X819842Y752899D01*
X819647Y752938D01*
X819432Y752958D01*
X819364D01*
X819296Y752948D01*
X819198Y752938D01*
X819091Y752909D01*
X818974Y752879D01*
X818857Y752831D01*
X818740Y752772D01*
X818730Y752762D01*
X818691Y752743D01*
X818633Y752704D01*
X818564Y752655D01*
X818496Y752587D01*
X818418Y752509D01*
X818340Y752421D01*
X818272Y752324D01*
X817530Y752431D01*
X818155Y755718D01*
X821334D01*
Y754967D01*
D02*
G37*
G36*
X816331Y695566D02*
Y695556D01*
Y695527D01*
Y695488D01*
Y695429D01*
X816321Y695361D01*
Y695283D01*
X816311Y695107D01*
X816282Y694902D01*
X816253Y694698D01*
X816204Y694493D01*
X816136Y694317D01*
X816126Y694298D01*
X816097Y694249D01*
X816048Y694171D01*
X815989Y694073D01*
X815901Y693956D01*
X815794Y693849D01*
X815658Y693742D01*
X815511Y693644D01*
X815492Y693634D01*
X815433Y693605D01*
X815346Y693576D01*
X815229Y693537D01*
X815082Y693488D01*
X814916Y693459D01*
X814721Y693430D01*
X814517Y693420D01*
X814438D01*
X814380Y693430D01*
X814312Y693439D01*
X814224Y693449D01*
X814039Y693478D01*
X813834Y693537D01*
X813619Y693625D01*
X813512Y693673D01*
X813414Y693742D01*
X813317Y693810D01*
X813229Y693898D01*
Y693908D01*
X813210Y693917D01*
X813190Y693947D01*
X813161Y693986D01*
X813122Y694044D01*
X813092Y694103D01*
X813044Y694181D01*
X813005Y694259D01*
X812966Y694356D01*
X812927Y694464D01*
X812888Y694581D01*
X812858Y694717D01*
X812829Y694854D01*
X812810Y695010D01*
X812800Y695166D01*
Y695341D01*
X813561Y695449D01*
Y695439D01*
Y695419D01*
Y695380D01*
X813570Y695332D01*
Y695273D01*
X813580Y695205D01*
X813609Y695049D01*
X813639Y694873D01*
X813688Y694707D01*
X813756Y694561D01*
X813795Y694493D01*
X813834Y694434D01*
X813844Y694425D01*
X813883Y694395D01*
X813931Y694346D01*
X814009Y694307D01*
X814107Y694259D01*
X814224Y694210D01*
X814360Y694181D01*
X814517Y694171D01*
X814575D01*
X814633Y694181D01*
X814702Y694190D01*
X814790Y694210D01*
X814887Y694229D01*
X814975Y694268D01*
X815063Y694317D01*
X815072Y694327D01*
X815102Y694346D01*
X815141Y694376D01*
X815190Y694425D01*
X815248Y694473D01*
X815297Y694541D01*
X815346Y694620D01*
X815385Y694707D01*
Y694717D01*
X815404Y694756D01*
X815414Y694815D01*
X815433Y694902D01*
X815453Y695020D01*
X815463Y695156D01*
X815482Y695322D01*
Y695517D01*
Y699935D01*
X816331D01*
Y695566D01*
D02*
G37*
G36*
X820700Y695780D02*
X821568D01*
Y695059D01*
X820700D01*
Y693527D01*
X819910D01*
Y695059D01*
X817131D01*
Y695780D01*
X820057Y699926D01*
X820700D01*
Y695780D01*
D02*
G37*
G36*
X711638Y924745D02*
X711765Y924725D01*
X711911Y924696D01*
X712077Y924657D01*
X712243Y924598D01*
X712409Y924520D01*
X712419D01*
X712428Y924511D01*
X712487Y924481D01*
X712565Y924433D01*
X712663Y924364D01*
X712770Y924277D01*
X712887Y924169D01*
X712994Y924043D01*
X713092Y923906D01*
X713101Y923886D01*
X713131Y923838D01*
X713170Y923760D01*
X713209Y923662D01*
X713248Y923535D01*
X713287Y923399D01*
X713316Y923252D01*
X713326Y923087D01*
Y923067D01*
Y923018D01*
X713316Y922940D01*
X713297Y922843D01*
X713267Y922726D01*
X713228Y922599D01*
X713179Y922462D01*
X713101Y922336D01*
X713092Y922316D01*
X713062Y922277D01*
X713004Y922219D01*
X712936Y922141D01*
X712838Y922053D01*
X712731Y921965D01*
X712594Y921868D01*
X712438Y921789D01*
X712448D01*
X712467Y921780D01*
X712497D01*
X712536Y921760D01*
X712633Y921731D01*
X712760Y921672D01*
X712897Y921604D01*
X713043Y921507D01*
X713189Y921389D01*
X713316Y921243D01*
X713326Y921224D01*
X713365Y921165D01*
X713413Y921077D01*
X713482Y920960D01*
X713540Y920814D01*
X713589Y920639D01*
X713628Y920434D01*
X713638Y920209D01*
Y920200D01*
Y920170D01*
Y920131D01*
X713628Y920073D01*
X713618Y919995D01*
X713609Y919917D01*
X713589Y919819D01*
X713560Y919722D01*
X713492Y919497D01*
X713443Y919371D01*
X713374Y919253D01*
X713306Y919137D01*
X713228Y919019D01*
X713131Y918902D01*
X713023Y918785D01*
X713014Y918776D01*
X712994Y918756D01*
X712965Y918737D01*
X712916Y918698D01*
X712858Y918649D01*
X712779Y918600D01*
X712692Y918551D01*
X712604Y918503D01*
X712497Y918444D01*
X712380Y918395D01*
X712253Y918346D01*
X712116Y918298D01*
X711970Y918259D01*
X711814Y918239D01*
X711648Y918220D01*
X711482Y918210D01*
X711404D01*
X711346Y918220D01*
X711268Y918229D01*
X711190Y918239D01*
X711092Y918249D01*
X710995Y918268D01*
X710770Y918327D01*
X710536Y918425D01*
X710419Y918473D01*
X710312Y918541D01*
X710195Y918620D01*
X710088Y918707D01*
X710078Y918717D01*
X710068Y918727D01*
X710039Y918756D01*
X710000Y918795D01*
X709961Y918854D01*
X709912Y918912D01*
X709854Y918980D01*
X709805Y919058D01*
X709688Y919253D01*
X709590Y919478D01*
X709502Y919731D01*
X709473Y919868D01*
X709454Y920014D01*
X710244Y920122D01*
Y920112D01*
X710253Y920092D01*
Y920053D01*
X710273Y920014D01*
X710302Y919897D01*
X710351Y919751D01*
X710409Y919595D01*
X710488Y919429D01*
X710585Y919283D01*
X710692Y919156D01*
X710712Y919146D01*
X710751Y919107D01*
X710819Y919068D01*
X710917Y919010D01*
X711024Y918961D01*
X711161Y918912D01*
X711317Y918873D01*
X711482Y918863D01*
X711541D01*
X711580Y918873D01*
X711677Y918883D01*
X711804Y918912D01*
X711960Y918961D01*
X712116Y919019D01*
X712272Y919117D01*
X712419Y919244D01*
X712438Y919263D01*
X712477Y919312D01*
X712536Y919390D01*
X712614Y919507D01*
X712682Y919644D01*
X712740Y919809D01*
X712779Y919995D01*
X712799Y920200D01*
Y920209D01*
Y920219D01*
Y920248D01*
X712789Y920287D01*
X712779Y920385D01*
X712750Y920512D01*
X712711Y920648D01*
X712643Y920804D01*
X712555Y920951D01*
X712438Y921087D01*
X712419Y921107D01*
X712380Y921146D01*
X712302Y921195D01*
X712194Y921263D01*
X712067Y921331D01*
X711911Y921380D01*
X711746Y921419D01*
X711551Y921438D01*
X711463D01*
X711395Y921429D01*
X711317Y921419D01*
X711219Y921409D01*
X711112Y921389D01*
X710995Y921360D01*
X711082Y922053D01*
X711131D01*
X711170Y922043D01*
X711297D01*
X711385Y922053D01*
X711512Y922072D01*
X711648Y922102D01*
X711794Y922150D01*
X711951Y922209D01*
X712107Y922297D01*
X712126Y922306D01*
X712175Y922345D01*
X712233Y922414D01*
X712311Y922502D01*
X712389Y922609D01*
X712448Y922745D01*
X712497Y922911D01*
X712516Y923106D01*
Y923116D01*
Y923126D01*
Y923175D01*
X712497Y923252D01*
X712477Y923360D01*
X712448Y923467D01*
X712389Y923584D01*
X712321Y923711D01*
X712224Y923818D01*
X712214Y923828D01*
X712175Y923867D01*
X712107Y923916D01*
X712019Y923964D01*
X711911Y924023D01*
X711785Y924062D01*
X711638Y924101D01*
X711473Y924111D01*
X711395D01*
X711307Y924091D01*
X711209Y924072D01*
X711082Y924043D01*
X710956Y923984D01*
X710829Y923916D01*
X710702Y923818D01*
X710692Y923808D01*
X710653Y923769D01*
X710604Y923701D01*
X710546Y923604D01*
X710478Y923487D01*
X710419Y923340D01*
X710361Y923165D01*
X710322Y922960D01*
X709532Y923096D01*
Y923106D01*
X709541Y923135D01*
X709551Y923175D01*
X709561Y923223D01*
X709580Y923291D01*
X709600Y923370D01*
X709668Y923545D01*
X709746Y923740D01*
X709863Y923945D01*
X710000Y924140D01*
X710175Y924316D01*
X710185Y924325D01*
X710195Y924335D01*
X710224Y924355D01*
X710273Y924384D01*
X710322Y924413D01*
X710380Y924452D01*
X710527Y924540D01*
X710712Y924618D01*
X710936Y924686D01*
X711180Y924735D01*
X711317Y924754D01*
X711541D01*
X711638Y924745D01*
D02*
G37*
G36*
X708381Y920356D02*
Y920346D01*
Y920317D01*
Y920278D01*
Y920219D01*
X708371Y920151D01*
Y920073D01*
X708361Y919897D01*
X708332Y919692D01*
X708303Y919488D01*
X708254Y919283D01*
X708186Y919107D01*
X708176Y919088D01*
X708147Y919039D01*
X708098Y918961D01*
X708039Y918863D01*
X707952Y918746D01*
X707844Y918639D01*
X707708Y918532D01*
X707561Y918434D01*
X707542Y918425D01*
X707483Y918395D01*
X707396Y918366D01*
X707279Y918327D01*
X707132Y918278D01*
X706966Y918249D01*
X706771Y918220D01*
X706566Y918210D01*
X706488D01*
X706430Y918220D01*
X706362Y918229D01*
X706274Y918239D01*
X706089Y918268D01*
X705884Y918327D01*
X705669Y918415D01*
X705562Y918464D01*
X705464Y918532D01*
X705367Y918600D01*
X705279Y918688D01*
Y918698D01*
X705259Y918707D01*
X705240Y918737D01*
X705211Y918776D01*
X705172Y918834D01*
X705143Y918893D01*
X705094Y918971D01*
X705055Y919049D01*
X705016Y919146D01*
X704977Y919253D01*
X704938Y919371D01*
X704908Y919507D01*
X704879Y919644D01*
X704860Y919800D01*
X704850Y919956D01*
Y920131D01*
X705611Y920239D01*
Y920229D01*
Y920209D01*
Y920170D01*
X705620Y920122D01*
Y920063D01*
X705630Y919995D01*
X705659Y919839D01*
X705689Y919663D01*
X705738Y919497D01*
X705806Y919351D01*
X705845Y919283D01*
X705884Y919224D01*
X705893Y919214D01*
X705932Y919185D01*
X705981Y919137D01*
X706059Y919098D01*
X706157Y919049D01*
X706274Y919000D01*
X706410Y918971D01*
X706566Y918961D01*
X706625D01*
X706684Y918971D01*
X706752Y918980D01*
X706840Y919000D01*
X706937Y919019D01*
X707025Y919058D01*
X707113Y919107D01*
X707122Y919117D01*
X707152Y919137D01*
X707191Y919166D01*
X707240Y919214D01*
X707298Y919263D01*
X707347Y919332D01*
X707396Y919410D01*
X707435Y919497D01*
Y919507D01*
X707454Y919546D01*
X707464Y919605D01*
X707483Y919692D01*
X707503Y919809D01*
X707513Y919946D01*
X707532Y920112D01*
Y920307D01*
Y924725D01*
X708381D01*
Y920356D01*
D02*
G37*
G36*
X850621Y850506D02*
Y850496D01*
Y850467D01*
Y850428D01*
Y850369D01*
X850611Y850301D01*
Y850223D01*
X850601Y850047D01*
X850572Y849842D01*
X850543Y849638D01*
X850494Y849433D01*
X850426Y849257D01*
X850416Y849238D01*
X850387Y849189D01*
X850338Y849111D01*
X850279Y849013D01*
X850191Y848896D01*
X850084Y848789D01*
X849948Y848682D01*
X849801Y848584D01*
X849782Y848575D01*
X849723Y848545D01*
X849636Y848516D01*
X849519Y848477D01*
X849372Y848428D01*
X849206Y848399D01*
X849011Y848370D01*
X848807Y848360D01*
X848728D01*
X848670Y848370D01*
X848602Y848379D01*
X848514Y848389D01*
X848329Y848418D01*
X848124Y848477D01*
X847909Y848565D01*
X847802Y848614D01*
X847704Y848682D01*
X847607Y848750D01*
X847519Y848838D01*
Y848848D01*
X847499Y848857D01*
X847480Y848887D01*
X847451Y848926D01*
X847412Y848984D01*
X847383Y849043D01*
X847334Y849121D01*
X847295Y849199D01*
X847256Y849296D01*
X847217Y849404D01*
X847178Y849521D01*
X847148Y849657D01*
X847119Y849794D01*
X847100Y849950D01*
X847090Y850106D01*
Y850281D01*
X847851Y850389D01*
Y850379D01*
Y850359D01*
Y850320D01*
X847860Y850272D01*
Y850213D01*
X847870Y850145D01*
X847899Y849989D01*
X847929Y849813D01*
X847978Y849647D01*
X848046Y849501D01*
X848085Y849433D01*
X848124Y849374D01*
X848133Y849364D01*
X848173Y849335D01*
X848221Y849286D01*
X848299Y849248D01*
X848397Y849199D01*
X848514Y849150D01*
X848650Y849121D01*
X848807Y849111D01*
X848865D01*
X848923Y849121D01*
X848992Y849130D01*
X849080Y849150D01*
X849177Y849169D01*
X849265Y849208D01*
X849353Y849257D01*
X849362Y849267D01*
X849392Y849286D01*
X849431Y849316D01*
X849480Y849364D01*
X849538Y849413D01*
X849587Y849482D01*
X849636Y849560D01*
X849675Y849647D01*
Y849657D01*
X849694Y849696D01*
X849704Y849755D01*
X849723Y849842D01*
X849743Y849959D01*
X849753Y850096D01*
X849772Y850262D01*
Y850457D01*
Y854875D01*
X850621D01*
Y850506D01*
D02*
G37*
G36*
X854649Y848467D02*
X853859D01*
Y853481D01*
X853849Y853471D01*
X853810Y853432D01*
X853742Y853383D01*
X853654Y853315D01*
X853547Y853227D01*
X853420Y853139D01*
X853274Y853032D01*
X853108Y852934D01*
X853098D01*
X853088Y852925D01*
X853030Y852886D01*
X852942Y852837D01*
X852835Y852778D01*
X852708Y852710D01*
X852571Y852652D01*
X852425Y852583D01*
X852289Y852525D01*
Y853295D01*
X852298D01*
X852318Y853305D01*
X852357Y853325D01*
X852396Y853354D01*
X852454Y853383D01*
X852523Y853412D01*
X852679Y853500D01*
X852854Y853607D01*
X853049Y853734D01*
X853244Y853880D01*
X853430Y854036D01*
X853439Y854046D01*
X853449Y854056D01*
X853508Y854115D01*
X853596Y854202D01*
X853703Y854310D01*
X853820Y854446D01*
X853937Y854592D01*
X854044Y854749D01*
X854132Y854904D01*
X854649D01*
Y848467D01*
D02*
G37*
G36*
X856971Y910196D02*
Y910186D01*
Y910157D01*
Y910118D01*
Y910059D01*
X856961Y909991D01*
Y909913D01*
X856951Y909737D01*
X856922Y909532D01*
X856893Y909328D01*
X856844Y909123D01*
X856776Y908947D01*
X856766Y908928D01*
X856737Y908879D01*
X856688Y908801D01*
X856629Y908703D01*
X856542Y908586D01*
X856434Y908479D01*
X856298Y908372D01*
X856151Y908274D01*
X856132Y908264D01*
X856073Y908235D01*
X855986Y908206D01*
X855869Y908167D01*
X855722Y908118D01*
X855556Y908089D01*
X855361Y908060D01*
X855156Y908050D01*
X855079D01*
X855020Y908060D01*
X854952Y908069D01*
X854864Y908079D01*
X854679Y908108D01*
X854474Y908167D01*
X854259Y908255D01*
X854152Y908304D01*
X854054Y908372D01*
X853957Y908440D01*
X853869Y908528D01*
Y908538D01*
X853849Y908547D01*
X853830Y908577D01*
X853801Y908616D01*
X853762Y908674D01*
X853733Y908733D01*
X853684Y908811D01*
X853645Y908889D01*
X853606Y908986D01*
X853567Y909093D01*
X853528Y909211D01*
X853498Y909347D01*
X853469Y909484D01*
X853450Y909640D01*
X853440Y909796D01*
Y909971D01*
X854201Y910079D01*
Y910069D01*
Y910049D01*
Y910010D01*
X854210Y909962D01*
Y909903D01*
X854220Y909835D01*
X854249Y909679D01*
X854279Y909503D01*
X854327Y909337D01*
X854396Y909191D01*
X854435Y909123D01*
X854474Y909064D01*
X854483Y909054D01*
X854522Y909025D01*
X854571Y908977D01*
X854649Y908938D01*
X854747Y908889D01*
X854864Y908840D01*
X855000Y908811D01*
X855156Y908801D01*
X855215D01*
X855274Y908811D01*
X855342Y908820D01*
X855430Y908840D01*
X855527Y908859D01*
X855615Y908898D01*
X855703Y908947D01*
X855713Y908957D01*
X855742Y908977D01*
X855781Y909006D01*
X855829Y909054D01*
X855888Y909103D01*
X855937Y909172D01*
X855986Y909250D01*
X856025Y909337D01*
Y909347D01*
X856044Y909386D01*
X856054Y909445D01*
X856073Y909532D01*
X856093Y909650D01*
X856103Y909786D01*
X856122Y909952D01*
Y910147D01*
Y914565D01*
X856971D01*
Y910196D01*
D02*
G37*
G36*
X860306Y914585D02*
X860384Y914575D01*
X860472Y914565D01*
X860570Y914556D01*
X860677Y914526D01*
X860911Y914468D01*
X861155Y914380D01*
X861282Y914321D01*
X861399Y914253D01*
X861506Y914165D01*
X861613Y914078D01*
X861623Y914068D01*
X861633Y914058D01*
X861662Y914029D01*
X861701Y913990D01*
X861740Y913931D01*
X861789Y913873D01*
X861887Y913727D01*
X861984Y913541D01*
X862072Y913327D01*
X862140Y913083D01*
X862150Y912946D01*
X862160Y912810D01*
Y912790D01*
Y912741D01*
X862150Y912663D01*
X862140Y912566D01*
X862121Y912449D01*
X862091Y912322D01*
X862052Y912185D01*
X861994Y912049D01*
X861984Y912029D01*
X861964Y911981D01*
X861926Y911912D01*
X861867Y911815D01*
X861799Y911698D01*
X861711Y911561D01*
X861594Y911425D01*
X861467Y911269D01*
X861448Y911249D01*
X861399Y911190D01*
X861311Y911103D01*
X861253Y911044D01*
X861184Y910976D01*
X861106Y910898D01*
X861009Y910810D01*
X860911Y910722D01*
X860804Y910615D01*
X860687Y910508D01*
X860550Y910391D01*
X860414Y910274D01*
X860258Y910137D01*
X860248Y910127D01*
X860228Y910108D01*
X860189Y910079D01*
X860141Y910040D01*
X860024Y909942D01*
X859877Y909815D01*
X859731Y909679D01*
X859575Y909542D01*
X859448Y909425D01*
X859399Y909376D01*
X859351Y909328D01*
X859341Y909318D01*
X859321Y909289D01*
X859282Y909250D01*
X859233Y909191D01*
X859126Y909064D01*
X859019Y908908D01*
X862169D01*
Y908157D01*
X857926D01*
Y908167D01*
Y908206D01*
Y908264D01*
X857936Y908333D01*
X857946Y908411D01*
X857956Y908499D01*
X857985Y908596D01*
X858014Y908694D01*
Y908703D01*
X858024Y908713D01*
X858044Y908772D01*
X858083Y908850D01*
X858141Y908967D01*
X858209Y909093D01*
X858307Y909240D01*
X858404Y909386D01*
X858531Y909542D01*
Y909552D01*
X858551Y909562D01*
X858599Y909620D01*
X858678Y909708D01*
X858795Y909825D01*
X858941Y909962D01*
X859117Y910127D01*
X859331Y910313D01*
X859565Y910518D01*
X859575Y910527D01*
X859614Y910556D01*
X859663Y910596D01*
X859731Y910664D01*
X859819Y910732D01*
X859916Y910820D01*
X860131Y911005D01*
X860365Y911229D01*
X860599Y911454D01*
X860716Y911561D01*
X860814Y911668D01*
X860901Y911776D01*
X860979Y911873D01*
Y911883D01*
X860999Y911893D01*
X861018Y911922D01*
X861038Y911961D01*
X861096Y912059D01*
X861165Y912185D01*
X861233Y912332D01*
X861292Y912488D01*
X861330Y912663D01*
X861350Y912829D01*
Y912839D01*
Y912849D01*
X861340Y912907D01*
X861330Y912995D01*
X861311Y913102D01*
X861262Y913229D01*
X861204Y913356D01*
X861126Y913492D01*
X861009Y913619D01*
X860989Y913629D01*
X860950Y913668D01*
X860872Y913717D01*
X860775Y913785D01*
X860648Y913844D01*
X860501Y913892D01*
X860326Y913931D01*
X860131Y913941D01*
X860072D01*
X860033Y913931D01*
X859936Y913922D01*
X859809Y913902D01*
X859663Y913853D01*
X859507Y913795D01*
X859360Y913707D01*
X859224Y913590D01*
X859214Y913570D01*
X859175Y913531D01*
X859117Y913453D01*
X859058Y913346D01*
X858990Y913210D01*
X858941Y913054D01*
X858902Y912868D01*
X858882Y912654D01*
X858073Y912741D01*
Y912751D01*
Y912780D01*
X858083Y912829D01*
X858092Y912888D01*
X858112Y912966D01*
X858122Y913054D01*
X858180Y913249D01*
X858258Y913473D01*
X858365Y913697D01*
X858512Y913922D01*
X858590Y914019D01*
X858687Y914117D01*
X858697Y914126D01*
X858717Y914136D01*
X858746Y914165D01*
X858785Y914195D01*
X858843Y914224D01*
X858912Y914273D01*
X858990Y914312D01*
X859078Y914361D01*
X859175Y914399D01*
X859282Y914448D01*
X859409Y914487D01*
X859536Y914517D01*
X859828Y914575D01*
X859985Y914585D01*
X860150Y914594D01*
X860238D01*
X860306Y914585D01*
D02*
G37*
G36*
X388213Y1051830D02*
X383200D01*
X383209Y1051821D01*
X383248Y1051781D01*
X383297Y1051713D01*
X383365Y1051625D01*
X383453Y1051518D01*
X383541Y1051391D01*
X383648Y1051245D01*
X383746Y1051079D01*
Y1051069D01*
X383755Y1051060D01*
X383794Y1051001D01*
X383843Y1050913D01*
X383902Y1050806D01*
X383970Y1050679D01*
X384029Y1050543D01*
X384097Y1050396D01*
X384155Y1050260D01*
X383385D01*
Y1050270D01*
X383375Y1050289D01*
X383355Y1050328D01*
X383326Y1050367D01*
X383297Y1050426D01*
X383268Y1050494D01*
X383180Y1050650D01*
X383073Y1050826D01*
X382946Y1051021D01*
X382800Y1051216D01*
X382644Y1051401D01*
X382634Y1051411D01*
X382624Y1051421D01*
X382565Y1051479D01*
X382478Y1051567D01*
X382370Y1051674D01*
X382234Y1051791D01*
X382088Y1051908D01*
X381931Y1052016D01*
X381775Y1052103D01*
Y1052620D01*
X388213D01*
Y1051830D01*
D02*
G37*
G36*
X385755Y1048553D02*
X385843D01*
X385950Y1048543D01*
X386067Y1048533D01*
X386311Y1048504D01*
X386564Y1048465D01*
X386818Y1048416D01*
X387042Y1048338D01*
X387052D01*
X387072Y1048329D01*
X387101Y1048319D01*
X387140Y1048299D01*
X387238Y1048241D01*
X387374Y1048163D01*
X387520Y1048056D01*
X387676Y1047919D01*
X387823Y1047743D01*
X387969Y1047548D01*
Y1047539D01*
X387989Y1047519D01*
X387998Y1047490D01*
X388027Y1047441D01*
X388047Y1047392D01*
X388076Y1047324D01*
X388115Y1047236D01*
X388144Y1047149D01*
X388174Y1047051D01*
X388213Y1046934D01*
X388242Y1046817D01*
X388262Y1046680D01*
X388301Y1046388D01*
X388320Y1046056D01*
Y1045968D01*
X388310Y1045910D01*
Y1045832D01*
X388301Y1045744D01*
X388291Y1045646D01*
X388281Y1045539D01*
X388242Y1045305D01*
X388193Y1045061D01*
X388115Y1044808D01*
X388018Y1044583D01*
Y1044574D01*
X387998Y1044554D01*
X387989Y1044535D01*
X387959Y1044495D01*
X387891Y1044388D01*
X387784Y1044271D01*
X387657Y1044135D01*
X387511Y1044008D01*
X387325Y1043881D01*
X387120Y1043774D01*
X387111D01*
X387091Y1043764D01*
X387062Y1043754D01*
X387013Y1043735D01*
X386955Y1043715D01*
X386877Y1043696D01*
X386789Y1043676D01*
X386691Y1043657D01*
X386584Y1043627D01*
X386467Y1043608D01*
X386330Y1043588D01*
X386194Y1043569D01*
X386038Y1043549D01*
X385872Y1043540D01*
X385696Y1043530D01*
X385511D01*
X381805D01*
Y1044379D01*
X385511D01*
X385521D01*
X385550D01*
X385589D01*
X385648D01*
X385716D01*
X385794Y1044388D01*
X385979Y1044398D01*
X386174Y1044417D01*
X386379Y1044437D01*
X386574Y1044476D01*
X386662Y1044495D01*
X386740Y1044525D01*
X386759Y1044535D01*
X386808Y1044554D01*
X386877Y1044593D01*
X386964Y1044652D01*
X387062Y1044720D01*
X387169Y1044817D01*
X387267Y1044925D01*
X387355Y1045061D01*
X387364Y1045081D01*
X387384Y1045129D01*
X387423Y1045208D01*
X387452Y1045315D01*
X387491Y1045451D01*
X387530Y1045607D01*
X387550Y1045783D01*
X387559Y1045978D01*
Y1046066D01*
X387550Y1046134D01*
Y1046212D01*
X387540Y1046300D01*
X387511Y1046495D01*
X387452Y1046719D01*
X387384Y1046934D01*
X387276Y1047139D01*
X387218Y1047236D01*
X387140Y1047314D01*
X387130D01*
X387120Y1047334D01*
X387091Y1047353D01*
X387052Y1047373D01*
X387003Y1047412D01*
X386945Y1047441D01*
X386867Y1047480D01*
X386779Y1047519D01*
X386672Y1047548D01*
X386555Y1047587D01*
X386428Y1047626D01*
X386272Y1047656D01*
X386106Y1047675D01*
X385930Y1047695D01*
X385726Y1047714D01*
X385511D01*
X381805D01*
Y1048563D01*
X385511D01*
X385521D01*
X385550D01*
X385599D01*
X385667D01*
X385755Y1048553D01*
D02*
G37*
%LPC*%
G36*
X819910Y698648D02*
X817901Y695780D01*
X819910D01*
Y698648D01*
D02*
G37*
%LPD*%
D11*
X237200Y789270D02*
X539440D01*
Y1297790D01*
X237200D02*
X539440D01*
X237200Y789270D02*
Y1297790D01*
M02*
