G04*
G04 #@! TF.GenerationSoftware,Altium Limited,Altium Designer,20.0.2 (26)*
G04*
G04 Layer_Color=8421504*
%FSLAX44Y44*%
%MOMM*%
G71*
G01*
G75*
%ADD16R,0.8000X0.8000*%
%ADD17R,0.8000X0.4000*%
%ADD18R,0.4000X0.8000*%
%ADD19R,1.2000X1.2000*%
G36*
X690530Y1203020D02*
X678530D01*
Y1209020D01*
X684530Y1215020D01*
X690530D01*
Y1203020D01*
D02*
G37*
D16*
X631030Y1262520D02*
D03*
Y1122520D02*
D03*
X771030Y1262520D02*
D03*
Y1122520D02*
D03*
D17*
X631030Y1252020D02*
D03*
Y1243520D02*
D03*
Y1235020D02*
D03*
Y1226520D02*
D03*
Y1218020D02*
D03*
Y1209520D02*
D03*
Y1201020D02*
D03*
Y1192520D02*
D03*
Y1184020D02*
D03*
Y1175520D02*
D03*
Y1167020D02*
D03*
Y1158520D02*
D03*
Y1150020D02*
D03*
Y1141520D02*
D03*
Y1133020D02*
D03*
X771030D02*
D03*
Y1141520D02*
D03*
Y1150020D02*
D03*
Y1158520D02*
D03*
Y1167020D02*
D03*
Y1175520D02*
D03*
Y1184020D02*
D03*
Y1192520D02*
D03*
Y1201020D02*
D03*
Y1209520D02*
D03*
Y1218020D02*
D03*
Y1226520D02*
D03*
Y1235020D02*
D03*
Y1243520D02*
D03*
Y1252020D02*
D03*
D18*
X641530Y1122520D02*
D03*
X650030D02*
D03*
X658530D02*
D03*
X667030D02*
D03*
X675530D02*
D03*
X684030D02*
D03*
X692530D02*
D03*
X701030D02*
D03*
X709530D02*
D03*
X718030D02*
D03*
X726530D02*
D03*
X735030D02*
D03*
X743530D02*
D03*
X752030D02*
D03*
X760530D02*
D03*
Y1262520D02*
D03*
X752030D02*
D03*
X743530D02*
D03*
X735030D02*
D03*
X726530D02*
D03*
X718030D02*
D03*
X709530D02*
D03*
X701030D02*
D03*
X692530D02*
D03*
X684030D02*
D03*
X675530D02*
D03*
X667030D02*
D03*
X658530D02*
D03*
X650030D02*
D03*
X641530D02*
D03*
D19*
X701030Y1192520D02*
D03*
Y1209020D02*
D03*
X717530D02*
D03*
Y1192520D02*
D03*
Y1176020D02*
D03*
X701030D02*
D03*
X684530D02*
D03*
Y1192520D02*
D03*
M02*
