G04*
G04 #@! TF.GenerationSoftware,Altium Limited,Altium Designer,20.0.2 (26)*
G04*
G04 Layer_Color=32896*
%FSLAX44Y44*%
%MOMM*%
G71*
G01*
G75*
%ADD12C,0.1000*%
%ADD116C,0.0500*%
D12*
X370060Y721230D02*
Y800230D01*
Y721230D02*
X515060D01*
Y800230D01*
X370060D02*
X515060D01*
X245880Y724810D02*
X361180D01*
Y799960D01*
X245880D02*
X361180D01*
X245880Y724810D02*
Y799960D01*
X534130Y839850D02*
X719130D01*
X534130Y649850D02*
Y839850D01*
Y649850D02*
X719130D01*
Y839850D01*
X237680Y919860D02*
Y1030860D01*
Y919860D02*
X320430D01*
Y1030860D01*
X237680D02*
X320430D01*
X702630Y1141940D02*
X742630D01*
X702630D02*
Y1187240D01*
X742630D01*
Y1141940D02*
Y1187240D01*
D116*
X672210Y1174530D02*
X732410D01*
Y1210530D01*
X672210D02*
X732410D01*
X672210Y1174530D02*
Y1210530D01*
X648880Y881990D02*
Y936790D01*
X539680D02*
X648880D01*
X539680Y881990D02*
Y936790D01*
Y881990D02*
X648880D01*
X410190Y993800D02*
X420390D01*
Y974700D02*
Y993800D01*
X410190Y974700D02*
X420390D01*
X410190D02*
Y993800D01*
X495640Y1210090D02*
X538140D01*
Y1246090D01*
X495640D02*
X538140D01*
X495640Y1210090D02*
Y1246090D01*
X447800Y915590D02*
Y1032590D01*
Y915590D02*
X542800D01*
Y1032590D01*
X447800D02*
X542800D01*
X392820Y1044930D02*
Y1079930D01*
X430820D01*
Y1044930D02*
Y1079930D01*
X392820Y1044930D02*
X430820D01*
X373040Y1023400D02*
Y1059400D01*
X330540Y1023400D02*
X373040D01*
X330540D02*
Y1059400D01*
X373040D01*
M02*
