G04*
G04 #@! TF.GenerationSoftware,Altium Limited,Altium Designer,20.0.2 (26)*
G04*
G04 Layer_Physical_Order=3*
G04 Layer_Color=16440176*
%FSLAX44Y44*%
%MOMM*%
G71*
G01*
G75*
%ADD15C,0.2540*%
%ADD26C,1.5700*%
%ADD35C,1.4500*%
%ADD43R,1.5000X1.5000*%
%ADD44C,1.5000*%
%ADD57C,1.2700*%
G36*
X873760Y1112980D02*
X872490Y1112595D01*
X872211Y1113011D01*
X863071Y1122151D01*
X862149Y1122768D01*
X861060Y1122985D01*
X854840D01*
Y1129160D01*
X836800D01*
Y1111120D01*
X854840D01*
Y1117295D01*
X859882D01*
X867355Y1109822D01*
Y971708D01*
X862422Y966775D01*
X854840D01*
Y972950D01*
X836800D01*
Y972412D01*
X835627Y971926D01*
X835261Y972291D01*
X834339Y972908D01*
X833250Y973125D01*
X775942D01*
X775859Y974395D01*
X776569Y974488D01*
X777975Y974673D01*
X780179Y975586D01*
X782072Y977038D01*
X783524Y978931D01*
X784437Y981135D01*
X784748Y983500D01*
X784437Y985865D01*
X783524Y988069D01*
X782072Y989962D01*
X780179Y991414D01*
X777975Y992327D01*
X775610Y992638D01*
X773245Y992327D01*
X771041Y991414D01*
X769148Y989962D01*
X767696Y988069D01*
X766783Y985865D01*
X766472Y983500D01*
X766783Y981135D01*
X767696Y978931D01*
X769148Y977038D01*
X771041Y975586D01*
X773245Y974673D01*
X774651Y974488D01*
X775361Y974395D01*
X775278Y973125D01*
X730942D01*
X730859Y974395D01*
X731569Y974488D01*
X732975Y974673D01*
X735179Y975586D01*
X737072Y977038D01*
X738524Y978931D01*
X739437Y981135D01*
X739748Y983500D01*
X739437Y985865D01*
X738524Y988069D01*
X737072Y989962D01*
X735179Y991414D01*
X732975Y992327D01*
X730610Y992638D01*
X728245Y992327D01*
X726041Y991414D01*
X724148Y989962D01*
X722696Y988069D01*
X721783Y985865D01*
X721472Y983500D01*
X721783Y981135D01*
X722696Y978931D01*
X724148Y977038D01*
X726041Y975586D01*
X728245Y974673D01*
X729651Y974488D01*
X730361Y974395D01*
X730278Y973125D01*
X674205D01*
X673552Y973254D01*
X665028D01*
X664374Y973125D01*
X592810D01*
X592344Y974249D01*
X591083Y975893D01*
X589439Y977154D01*
X588315Y977620D01*
Y985520D01*
X588098Y986609D01*
X587481Y987531D01*
X568561Y1006451D01*
X567639Y1007068D01*
X567122Y1007171D01*
X566853Y1007661D01*
X566663Y1008494D01*
X566665Y1008507D01*
X567949Y1010181D01*
X568858Y1012375D01*
X569168Y1014730D01*
X568858Y1017085D01*
X567949Y1019279D01*
X566503Y1021163D01*
X564619Y1022609D01*
X562425Y1023518D01*
X560070Y1023828D01*
X557715Y1023518D01*
X555521Y1022609D01*
X553637Y1021163D01*
X552191Y1019279D01*
X551282Y1017085D01*
X550972Y1014730D01*
X551282Y1012375D01*
X552191Y1010181D01*
X553439Y1008555D01*
X553044Y1007285D01*
X412788D01*
X409792Y1010281D01*
X410257Y1011405D01*
X410528Y1013460D01*
X410257Y1015515D01*
X409464Y1017429D01*
X408203Y1019073D01*
X406559Y1020334D01*
X404645Y1021127D01*
X402590Y1021398D01*
X400536Y1021127D01*
X398621Y1020334D01*
X396977Y1019073D01*
X395716Y1017429D01*
X394923Y1015515D01*
X394652Y1013460D01*
X394923Y1011405D01*
X395716Y1009491D01*
X396977Y1007847D01*
X398621Y1006586D01*
X400536Y1005793D01*
X402590Y1005522D01*
X404645Y1005793D01*
X405769Y1006258D01*
X409599Y1002429D01*
X410521Y1001812D01*
X411610Y1001596D01*
X565372D01*
X582625Y984342D01*
Y977620D01*
X581501Y977154D01*
X579857Y975893D01*
X578596Y974249D01*
X577803Y972335D01*
X577532Y970280D01*
X577803Y968225D01*
X578596Y966311D01*
X579857Y964667D01*
X581501Y963406D01*
X583415Y962613D01*
X585470Y962342D01*
X587524Y962613D01*
X588649Y963078D01*
X619019Y932709D01*
X619941Y932092D01*
X621030Y931875D01*
X660705D01*
X661411Y930171D01*
X662857Y928287D01*
X664741Y926841D01*
X666935Y925932D01*
X669290Y925622D01*
X671645Y925932D01*
X673839Y926841D01*
X675723Y928287D01*
X677169Y930171D01*
X677875Y931875D01*
X687162D01*
X696500Y922537D01*
X695721Y920656D01*
X695399Y918210D01*
X695721Y915764D01*
X696665Y913485D01*
X698167Y911527D01*
X700125Y910025D01*
X702005Y909246D01*
Y895350D01*
X702222Y894261D01*
X702839Y893339D01*
X731058Y865119D01*
X730352Y863415D01*
X730042Y861060D01*
X730352Y858705D01*
X731261Y856511D01*
X732707Y854627D01*
X734591Y853181D01*
X736785Y852272D01*
X739140Y851962D01*
X741495Y852272D01*
X743689Y853181D01*
X745573Y854627D01*
X747019Y856511D01*
X747928Y858705D01*
X748238Y861060D01*
X747928Y863415D01*
X747019Y865609D01*
X745573Y867493D01*
X743689Y868939D01*
X741495Y869848D01*
X739140Y870158D01*
X736785Y869848D01*
X735081Y869142D01*
X707695Y896528D01*
Y909246D01*
X709575Y910025D01*
X711533Y911527D01*
X713035Y913485D01*
X713979Y915764D01*
X714301Y918210D01*
X713979Y920656D01*
X713035Y922935D01*
X711533Y924893D01*
X709575Y926395D01*
X707296Y927339D01*
X704850Y927661D01*
X702404Y927339D01*
X700523Y926560D01*
X690351Y936731D01*
X689429Y937348D01*
X688340Y937565D01*
X677875D01*
X677169Y939269D01*
X675723Y941153D01*
X673839Y942599D01*
X671645Y943508D01*
X669290Y943818D01*
X666935Y943508D01*
X664741Y942599D01*
X662857Y941153D01*
X661411Y939269D01*
X660705Y937565D01*
X622208D01*
X593607Y966165D01*
X594133Y967435D01*
X662038D01*
X662559Y966165D01*
X661411Y964669D01*
X660502Y962475D01*
X660192Y960120D01*
X660502Y957765D01*
X661411Y955571D01*
X662857Y953687D01*
X664741Y952241D01*
X666935Y951332D01*
X669290Y951022D01*
X671645Y951332D01*
X673839Y952241D01*
X675723Y953687D01*
X677169Y955571D01*
X678078Y957765D01*
X678388Y960120D01*
X678369Y960260D01*
X679207Y961215D01*
X730844D01*
X731239Y959945D01*
X729991Y958319D01*
X729082Y956125D01*
X728772Y953770D01*
X729082Y951415D01*
X729991Y949221D01*
X731437Y947337D01*
X733321Y945891D01*
X735515Y944982D01*
X737870Y944672D01*
X740225Y944982D01*
X742419Y945891D01*
X744303Y947337D01*
X745749Y949221D01*
X746658Y951415D01*
X746968Y953770D01*
X746658Y956125D01*
X745749Y958319D01*
X744501Y959945D01*
X744896Y961215D01*
X756244D01*
X756639Y959945D01*
X755391Y958319D01*
X754482Y956125D01*
X754172Y953770D01*
X754482Y951415D01*
X755391Y949221D01*
X756837Y947337D01*
X758721Y945891D01*
X760915Y944982D01*
X763270Y944672D01*
X765625Y944982D01*
X767819Y945891D01*
X769703Y947337D01*
X771149Y949221D01*
X772058Y951415D01*
X772368Y953770D01*
X772058Y956125D01*
X771149Y958319D01*
X769901Y959945D01*
X770296Y961215D01*
X777202D01*
X780588Y957829D01*
X779882Y956125D01*
X779572Y953770D01*
X779882Y951415D01*
X780791Y949221D01*
X782237Y947337D01*
X784121Y945891D01*
X786315Y944982D01*
X788670Y944672D01*
X791025Y944982D01*
X792729Y945688D01*
X804438Y933979D01*
X805361Y933362D01*
X806450Y933145D01*
X809568D01*
X809651Y931875D01*
X808941Y931782D01*
X807535Y931597D01*
X805331Y930684D01*
X803438Y929232D01*
X801986Y927339D01*
X801073Y925135D01*
X800762Y922770D01*
X801073Y920405D01*
X801986Y918201D01*
X803438Y916308D01*
X805331Y914856D01*
X807535Y913943D01*
X809900Y913632D01*
X812265Y913943D01*
X814469Y914856D01*
X816362Y916308D01*
X817814Y918201D01*
X818727Y920405D01*
X819038Y922770D01*
X818727Y925135D01*
X817814Y927339D01*
X816362Y929232D01*
X814469Y930684D01*
X812265Y931597D01*
X810859Y931782D01*
X810148Y931875D01*
X810232Y933145D01*
X824322D01*
X845090Y912377D01*
X844311Y910496D01*
X843989Y908050D01*
X844311Y905604D01*
X845255Y903325D01*
X846757Y901367D01*
X848715Y899865D01*
X850994Y898921D01*
X853440Y898599D01*
X855886Y898921D01*
X857767Y899700D01*
X862025Y895442D01*
Y712378D01*
X853357Y703710D01*
X839340D01*
Y689693D01*
X826862Y677215D01*
X797468D01*
X784990Y689693D01*
Y703710D01*
X766950D01*
Y685670D01*
X780967D01*
X794279Y672359D01*
X795201Y671742D01*
X796290Y671525D01*
X828040D01*
X829129Y671742D01*
X830051Y672359D01*
X843363Y685670D01*
X857380D01*
Y699687D01*
X866881Y709189D01*
X867498Y710111D01*
X867715Y711200D01*
Y896620D01*
X867498Y897709D01*
X866881Y898631D01*
X861790Y903723D01*
X862569Y905604D01*
X862891Y908050D01*
X862569Y910496D01*
X861625Y912775D01*
X860123Y914733D01*
X858165Y916235D01*
X855886Y917179D01*
X853440Y917501D01*
X850994Y917179D01*
X849113Y916400D01*
X827511Y938001D01*
X826589Y938618D01*
X825500Y938835D01*
X807628D01*
X796752Y949711D01*
X797458Y951415D01*
X797768Y953770D01*
X797458Y956125D01*
X796549Y958319D01*
X795103Y960203D01*
X793219Y961649D01*
X791025Y962558D01*
X788670Y962868D01*
X786315Y962558D01*
X784611Y961852D01*
X780391Y966071D01*
X780251Y966165D01*
X780636Y967435D01*
X832072D01*
X836800Y962707D01*
Y954910D01*
X854840D01*
Y961085D01*
X863600D01*
X864689Y961302D01*
X865611Y961919D01*
X872211Y968519D01*
X872490Y968935D01*
X873760Y968550D01*
Y664210D01*
X254000D01*
X254000Y1287780D01*
X622385D01*
Y1269770D01*
X622867Y1268607D01*
X624030Y1268125D01*
X778030D01*
X779193Y1268607D01*
X779675Y1269770D01*
Y1287780D01*
X873760D01*
Y1112980D01*
D02*
G37*
%LPC*%
G36*
X806580Y1280290D02*
X788540D01*
Y1262250D01*
X806580D01*
Y1280290D01*
D02*
G37*
G36*
X600840D02*
X582800D01*
Y1262250D01*
X600840D01*
Y1280290D01*
D02*
G37*
G36*
X848360Y1280368D02*
X846005Y1280058D01*
X843811Y1279149D01*
X841927Y1277703D01*
X840481Y1275819D01*
X839572Y1273625D01*
X839262Y1271270D01*
X839572Y1268915D01*
X840481Y1266721D01*
X841927Y1264837D01*
X843811Y1263391D01*
X846005Y1262482D01*
X848360Y1262172D01*
X850715Y1262482D01*
X852909Y1263391D01*
X854793Y1264837D01*
X856239Y1266721D01*
X857148Y1268915D01*
X857458Y1271270D01*
X857148Y1273625D01*
X856239Y1275819D01*
X854793Y1277703D01*
X852909Y1279149D01*
X850715Y1280058D01*
X848360Y1280368D01*
D02*
G37*
G36*
X822960D02*
X820605Y1280058D01*
X818411Y1279149D01*
X816527Y1277703D01*
X815081Y1275819D01*
X814172Y1273625D01*
X813862Y1271270D01*
X814172Y1268915D01*
X815081Y1266721D01*
X816527Y1264837D01*
X818411Y1263391D01*
X820605Y1262482D01*
X822960Y1262172D01*
X825315Y1262482D01*
X827509Y1263391D01*
X829393Y1264837D01*
X830839Y1266721D01*
X831748Y1268915D01*
X832058Y1271270D01*
X831748Y1273625D01*
X830839Y1275819D01*
X829393Y1277703D01*
X827509Y1279149D01*
X825315Y1280058D01*
X822960Y1280368D01*
D02*
G37*
G36*
X530860Y1277938D02*
X528806Y1277667D01*
X526891Y1276874D01*
X525247Y1275613D01*
X523986Y1273969D01*
X523193Y1272055D01*
X522922Y1270000D01*
X523193Y1267945D01*
X523986Y1266031D01*
X525247Y1264387D01*
X526891Y1263126D01*
X528806Y1262333D01*
X530860Y1262062D01*
X532915Y1262333D01*
X534829Y1263126D01*
X536473Y1264387D01*
X537734Y1266031D01*
X538527Y1267945D01*
X538798Y1270000D01*
X538527Y1272055D01*
X537734Y1273969D01*
X536473Y1275613D01*
X534829Y1276874D01*
X532915Y1277667D01*
X530860Y1277938D01*
D02*
G37*
G36*
X558800Y1272748D02*
X556445Y1272438D01*
X554251Y1271529D01*
X552367Y1270083D01*
X550921Y1268199D01*
X550012Y1266005D01*
X549702Y1263650D01*
X550012Y1261295D01*
X550921Y1259101D01*
X552367Y1257217D01*
X554251Y1255771D01*
X556445Y1254862D01*
X558800Y1254552D01*
X561155Y1254862D01*
X563349Y1255771D01*
X565233Y1257217D01*
X566679Y1259101D01*
X567588Y1261295D01*
X567898Y1263650D01*
X567588Y1266005D01*
X566679Y1268199D01*
X565233Y1270083D01*
X563349Y1271529D01*
X561155Y1272438D01*
X558800Y1272748D01*
D02*
G37*
G36*
X274320Y1264876D02*
X272031Y1264574D01*
X269897Y1263690D01*
X268065Y1262285D01*
X266660Y1260453D01*
X265776Y1258319D01*
X265474Y1256030D01*
X265776Y1253741D01*
X266660Y1251607D01*
X268065Y1249775D01*
X269897Y1248370D01*
X272031Y1247486D01*
X274320Y1247184D01*
X276609Y1247486D01*
X278743Y1248370D01*
X280575Y1249775D01*
X281980Y1251607D01*
X282864Y1253741D01*
X283166Y1256030D01*
X282864Y1258319D01*
X281980Y1260453D01*
X280575Y1262285D01*
X278743Y1263690D01*
X276609Y1264574D01*
X274320Y1264876D01*
D02*
G37*
G36*
X486410Y1265238D02*
X484356Y1264967D01*
X482441Y1264174D01*
X480797Y1262913D01*
X479536Y1261269D01*
X478743Y1259354D01*
X478472Y1257300D01*
X478743Y1255246D01*
X479536Y1253331D01*
X480797Y1251687D01*
X482441Y1250426D01*
X484356Y1249633D01*
X486410Y1249362D01*
X488465Y1249633D01*
X490379Y1250426D01*
X492023Y1251687D01*
X492821Y1252727D01*
X494275Y1252536D01*
X494660Y1251607D01*
X496065Y1249775D01*
X497897Y1248370D01*
X499475Y1247716D01*
Y1181678D01*
X466529Y1148732D01*
X465452Y1149451D01*
X466137Y1151105D01*
X466408Y1153160D01*
X466137Y1155214D01*
X465344Y1157129D01*
X464083Y1158773D01*
X462439Y1160034D01*
X460524Y1160827D01*
X458470Y1161098D01*
X456415Y1160827D01*
X454501Y1160034D01*
X452857Y1158773D01*
X451596Y1157129D01*
X450803Y1155214D01*
X450532Y1153160D01*
X450803Y1151105D01*
X451596Y1149191D01*
X452857Y1147547D01*
X454501Y1146286D01*
X456415Y1145493D01*
X458470Y1145222D01*
X460524Y1145493D01*
X462179Y1146178D01*
X462898Y1145101D01*
X450109Y1132311D01*
X449492Y1131389D01*
X449275Y1130300D01*
Y1039850D01*
X448151Y1039384D01*
X446507Y1038123D01*
X445246Y1036479D01*
X444453Y1034565D01*
X444182Y1032510D01*
X444453Y1030455D01*
X445246Y1028541D01*
X446507Y1026897D01*
X448151Y1025636D01*
X450065Y1024843D01*
X452120Y1024572D01*
X454174Y1024843D01*
X456089Y1025636D01*
X457733Y1026897D01*
X458994Y1028541D01*
X459787Y1030455D01*
X460058Y1032510D01*
X459787Y1034565D01*
X458994Y1036479D01*
X457733Y1038123D01*
X456089Y1039384D01*
X454965Y1039850D01*
Y1129122D01*
X473769Y1147926D01*
X474972Y1147333D01*
X474903Y1146810D01*
X475209Y1144489D01*
X476105Y1142327D01*
X477530Y1140470D01*
X479387Y1139045D01*
X481549Y1138149D01*
X482600Y1138010D01*
Y1146810D01*
X483870D01*
Y1148080D01*
X492669D01*
X492531Y1149131D01*
X491635Y1151293D01*
X490210Y1153150D01*
X489658Y1153575D01*
X489575Y1154842D01*
X548548Y1213816D01*
X549751Y1213222D01*
X549702Y1212850D01*
X550012Y1210495D01*
X550921Y1208301D01*
X552367Y1206417D01*
X554251Y1204971D01*
X556445Y1204062D01*
X558800Y1203752D01*
X561155Y1204062D01*
X563349Y1204971D01*
X565233Y1206417D01*
X566679Y1208301D01*
X567588Y1210495D01*
X567898Y1212850D01*
X567588Y1215205D01*
X566679Y1217399D01*
X565233Y1219283D01*
X563349Y1220729D01*
X561155Y1221638D01*
X558800Y1221948D01*
X558428Y1221899D01*
X557834Y1223102D01*
X560811Y1226079D01*
X561428Y1227001D01*
X561645Y1228090D01*
Y1228561D01*
X563640Y1229388D01*
X564279Y1228748D01*
X565201Y1228132D01*
X566290Y1227915D01*
X584794D01*
X585189Y1226645D01*
X583941Y1225019D01*
X583032Y1222825D01*
X582722Y1220470D01*
X583032Y1218115D01*
X583941Y1215921D01*
X585387Y1214037D01*
X587271Y1212591D01*
X589465Y1211682D01*
X591820Y1211372D01*
X594175Y1211682D01*
X596369Y1212591D01*
X598253Y1214037D01*
X599699Y1215921D01*
X600608Y1218115D01*
X600918Y1220470D01*
X600608Y1222825D01*
X599699Y1225019D01*
X598451Y1226645D01*
X598847Y1227915D01*
X628780D01*
X629869Y1228132D01*
X630791Y1228748D01*
X646530Y1244487D01*
X648198Y1244359D01*
X648980Y1243340D01*
X650837Y1241915D01*
X652999Y1241019D01*
X654050Y1240881D01*
Y1249680D01*
Y1258480D01*
X652999Y1258341D01*
X650837Y1257445D01*
X648980Y1256020D01*
X647555Y1254163D01*
X646802Y1252346D01*
X646611Y1252308D01*
X645689Y1251691D01*
X627602Y1233605D01*
X568886D01*
X568180Y1234660D01*
X568582Y1235629D01*
X568759Y1236980D01*
X558800D01*
X548841D01*
X549018Y1235629D01*
X550030Y1233187D01*
X551639Y1231089D01*
X553737Y1229480D01*
X554399Y1229206D01*
X554647Y1227960D01*
X506279Y1179592D01*
X505108Y1180217D01*
X505165Y1180500D01*
Y1247716D01*
X506743Y1248370D01*
X508575Y1249775D01*
X509981Y1251607D01*
X510864Y1253741D01*
X511166Y1256030D01*
X510864Y1258319D01*
X509981Y1260453D01*
X508575Y1262285D01*
X506743Y1263690D01*
X504609Y1264574D01*
X502320Y1264876D01*
X500031Y1264574D01*
X497897Y1263690D01*
X496065Y1262285D01*
X494879Y1260739D01*
X493869Y1260720D01*
X493454Y1260860D01*
X493284Y1261269D01*
X492023Y1262913D01*
X490379Y1264174D01*
X488465Y1264967D01*
X486410Y1265238D01*
D02*
G37*
G36*
X560070Y1248209D02*
Y1239520D01*
X568759D01*
X568582Y1240871D01*
X567570Y1243313D01*
X565961Y1245411D01*
X563863Y1247020D01*
X561421Y1248032D01*
X560070Y1248209D01*
D02*
G37*
G36*
X557530D02*
X556179Y1248032D01*
X553737Y1247020D01*
X551639Y1245411D01*
X550030Y1243313D01*
X549018Y1240871D01*
X548841Y1239520D01*
X557530D01*
Y1248209D01*
D02*
G37*
G36*
X346710Y1255078D02*
X344655Y1254807D01*
X342741Y1254014D01*
X341097Y1252753D01*
X339836Y1251109D01*
X339043Y1249194D01*
X338772Y1247140D01*
X339043Y1245086D01*
X339836Y1243171D01*
X341097Y1241527D01*
X342741Y1240266D01*
X344655Y1239473D01*
X346710Y1239202D01*
X348764Y1239473D01*
X350679Y1240266D01*
X352323Y1241527D01*
X353584Y1243171D01*
X354377Y1245086D01*
X354648Y1247140D01*
X354377Y1249194D01*
X353584Y1251109D01*
X352323Y1252753D01*
X350679Y1254014D01*
X348764Y1254807D01*
X346710Y1255078D01*
D02*
G37*
G36*
X591820Y1254968D02*
X589465Y1254658D01*
X587271Y1253749D01*
X585387Y1252303D01*
X583941Y1250419D01*
X583032Y1248225D01*
X582722Y1245870D01*
X583032Y1243515D01*
X583941Y1241321D01*
X585387Y1239437D01*
X587271Y1237991D01*
X589465Y1237082D01*
X591820Y1236772D01*
X594175Y1237082D01*
X596369Y1237991D01*
X598253Y1239437D01*
X599699Y1241321D01*
X600608Y1243515D01*
X600918Y1245870D01*
X600608Y1248225D01*
X599699Y1250419D01*
X598253Y1252303D01*
X596369Y1253749D01*
X594175Y1254658D01*
X591820Y1254968D01*
D02*
G37*
G36*
X383540Y1244918D02*
X381485Y1244647D01*
X379571Y1243854D01*
X377927Y1242593D01*
X376666Y1240949D01*
X375873Y1239035D01*
X375602Y1236980D01*
X375873Y1234926D01*
X376666Y1233011D01*
X377927Y1231367D01*
X379571Y1230106D01*
X381485Y1229313D01*
X383540Y1229042D01*
X385594Y1229313D01*
X387509Y1230106D01*
X389153Y1231367D01*
X390414Y1233011D01*
X391207Y1234926D01*
X391478Y1236980D01*
X391207Y1239035D01*
X390414Y1240949D01*
X389153Y1242593D01*
X387509Y1243854D01*
X385594Y1244647D01*
X383540Y1244918D01*
D02*
G37*
G36*
X699770Y1242378D02*
X697716Y1242107D01*
X695801Y1241314D01*
X694157Y1240053D01*
X692896Y1238409D01*
X692103Y1236495D01*
X691832Y1234440D01*
X692103Y1232385D01*
X692896Y1230471D01*
X694157Y1228827D01*
X695801Y1227566D01*
X697716Y1226773D01*
X699770Y1226502D01*
X701824Y1226773D01*
X703739Y1227566D01*
X705383Y1228827D01*
X706644Y1230471D01*
X707437Y1232385D01*
X707708Y1234440D01*
X707437Y1236495D01*
X706644Y1238409D01*
X705383Y1240053D01*
X703739Y1241314D01*
X701824Y1242107D01*
X699770Y1242378D01*
D02*
G37*
G36*
X680720Y1238568D02*
X678665Y1238297D01*
X676751Y1237504D01*
X675107Y1236243D01*
X673846Y1234599D01*
X673053Y1232684D01*
X672782Y1230630D01*
X673053Y1228576D01*
X673846Y1226661D01*
X675107Y1225017D01*
X676751Y1223756D01*
X678665Y1222963D01*
X680720Y1222692D01*
X682775Y1222963D01*
X684689Y1223756D01*
X686333Y1225017D01*
X687594Y1226661D01*
X688387Y1228576D01*
X688658Y1230630D01*
X688387Y1232684D01*
X687594Y1234599D01*
X686333Y1236243D01*
X684689Y1237504D01*
X682775Y1238297D01*
X680720Y1238568D01*
D02*
G37*
G36*
X660400Y1237298D02*
X658345Y1237027D01*
X656431Y1236234D01*
X654787Y1234973D01*
X653526Y1233329D01*
X652733Y1231414D01*
X652462Y1229360D01*
X652733Y1227306D01*
X653526Y1225391D01*
X654787Y1223747D01*
X656431Y1222486D01*
X658345Y1221693D01*
X660400Y1221422D01*
X662455Y1221693D01*
X664369Y1222486D01*
X666013Y1223747D01*
X667274Y1225391D01*
X668067Y1227306D01*
X668338Y1229360D01*
X668067Y1231414D01*
X667274Y1233329D01*
X666013Y1234973D01*
X664369Y1236234D01*
X662455Y1237027D01*
X660400Y1237298D01*
D02*
G37*
G36*
X455930D02*
X453876Y1237027D01*
X451961Y1236234D01*
X450317Y1234973D01*
X449056Y1233329D01*
X448263Y1231414D01*
X447992Y1229360D01*
X448263Y1227306D01*
X449056Y1225391D01*
X450317Y1223747D01*
X451961Y1222486D01*
X453876Y1221693D01*
X455930Y1221422D01*
X457985Y1221693D01*
X459899Y1222486D01*
X461543Y1223747D01*
X462804Y1225391D01*
X463597Y1227306D01*
X463868Y1229360D01*
X463597Y1231414D01*
X462804Y1233329D01*
X461543Y1234973D01*
X459899Y1236234D01*
X457985Y1237027D01*
X455930Y1237298D01*
D02*
G37*
G36*
X819280Y1235840D02*
X801240D01*
Y1217800D01*
X819280D01*
Y1235840D01*
D02*
G37*
G36*
X861060Y1216570D02*
Y1209040D01*
X868589D01*
X868451Y1210091D01*
X867555Y1212253D01*
X866130Y1214110D01*
X864273Y1215535D01*
X862111Y1216431D01*
X861060Y1216570D01*
D02*
G37*
G36*
X656590Y1258480D02*
Y1249680D01*
Y1240881D01*
X657641Y1241019D01*
X659803Y1241915D01*
X661660Y1243340D01*
X663085Y1245197D01*
X663501Y1246200D01*
X816067D01*
X851436Y1210832D01*
X851129Y1210091D01*
X850991Y1209040D01*
X858520D01*
Y1216570D01*
X857469Y1216431D01*
X855307Y1215535D01*
X855007Y1215306D01*
X819256Y1251056D01*
X818334Y1251673D01*
X817245Y1251890D01*
X663996D01*
X663981Y1252001D01*
X663085Y1254163D01*
X661660Y1256020D01*
X659803Y1257445D01*
X657641Y1258341D01*
X656590Y1258480D01*
D02*
G37*
G36*
X858520Y1206500D02*
X850991D01*
X851129Y1205449D01*
X851258Y1205137D01*
X850619Y1204478D01*
X850242Y1204271D01*
X848175Y1205128D01*
X845820Y1205438D01*
X843465Y1205128D01*
X841271Y1204219D01*
X839387Y1202773D01*
X837941Y1200889D01*
X837032Y1198695D01*
X836722Y1196340D01*
X837032Y1193985D01*
X837941Y1191791D01*
X839387Y1189907D01*
X841271Y1188461D01*
X843465Y1187552D01*
X845820Y1187242D01*
X848175Y1187552D01*
X850369Y1188461D01*
X852253Y1189907D01*
X853699Y1191791D01*
X854608Y1193985D01*
X854918Y1196340D01*
X854608Y1198695D01*
X854459Y1199054D01*
X855007Y1199669D01*
X855467Y1199938D01*
X857469Y1199109D01*
X858520Y1198970D01*
Y1206500D01*
D02*
G37*
G36*
X788670Y1219518D02*
X786616Y1219247D01*
X784701Y1218454D01*
X783057Y1217193D01*
X781796Y1215549D01*
X781003Y1213634D01*
X780732Y1211580D01*
X781003Y1209526D01*
X781796Y1207611D01*
X783057Y1205967D01*
X784701Y1204706D01*
X786616Y1203913D01*
X788670Y1203642D01*
X790724Y1203913D01*
X792639Y1204706D01*
X794283Y1205967D01*
X795544Y1207611D01*
X796337Y1209526D01*
X796608Y1211580D01*
X796337Y1213634D01*
X795544Y1215549D01*
X794283Y1217193D01*
X792639Y1218454D01*
X790724Y1219247D01*
X788670Y1219518D01*
D02*
G37*
G36*
X868589Y1206500D02*
X861060D01*
Y1198970D01*
X862111Y1199109D01*
X864273Y1200005D01*
X866130Y1201430D01*
X867555Y1203287D01*
X868451Y1205449D01*
X868589Y1206500D01*
D02*
G37*
G36*
X810260Y1210518D02*
X807905Y1210208D01*
X805711Y1209299D01*
X803827Y1207853D01*
X802381Y1205969D01*
X801472Y1203775D01*
X801162Y1201420D01*
X801472Y1199065D01*
X802381Y1196871D01*
X803827Y1194987D01*
X805711Y1193541D01*
X807905Y1192632D01*
X810260Y1192322D01*
X812615Y1192632D01*
X814809Y1193541D01*
X816693Y1194987D01*
X818139Y1196871D01*
X819048Y1199065D01*
X819358Y1201420D01*
X819048Y1203775D01*
X818139Y1205969D01*
X816693Y1207853D01*
X814809Y1209299D01*
X812615Y1210208D01*
X810260Y1210518D01*
D02*
G37*
G36*
X591820Y1204168D02*
X589465Y1203858D01*
X587271Y1202949D01*
X585387Y1201503D01*
X583941Y1199619D01*
X583032Y1197425D01*
X582722Y1195070D01*
X583032Y1192715D01*
X583941Y1190521D01*
X585387Y1188637D01*
X587271Y1187191D01*
X589465Y1186282D01*
X591820Y1185972D01*
X594175Y1186282D01*
X596369Y1187191D01*
X598253Y1188637D01*
X599699Y1190521D01*
X600608Y1192715D01*
X600918Y1195070D01*
X600608Y1197425D01*
X599699Y1199619D01*
X598253Y1201503D01*
X596369Y1202949D01*
X594175Y1203858D01*
X591820Y1204168D01*
D02*
G37*
G36*
X558800Y1196548D02*
X556445Y1196238D01*
X554251Y1195329D01*
X552367Y1193883D01*
X550921Y1191999D01*
X550012Y1189805D01*
X549702Y1187450D01*
X550012Y1185095D01*
X550921Y1182901D01*
X552367Y1181017D01*
X554251Y1179571D01*
X556445Y1178662D01*
X558800Y1178352D01*
X561155Y1178662D01*
X563349Y1179571D01*
X565233Y1181017D01*
X566679Y1182901D01*
X567588Y1185095D01*
X567898Y1187450D01*
X567588Y1189805D01*
X566679Y1191999D01*
X565233Y1193883D01*
X563349Y1195329D01*
X561155Y1196238D01*
X558800Y1196548D01*
D02*
G37*
G36*
X364490Y1242378D02*
X362435Y1242107D01*
X360521Y1241314D01*
X358877Y1240053D01*
X357616Y1238409D01*
X356823Y1236495D01*
X356552Y1234440D01*
X356823Y1232385D01*
X357616Y1230471D01*
X358877Y1228827D01*
X360521Y1227566D01*
X362435Y1226773D01*
X364490Y1226502D01*
X366544Y1226773D01*
X367669Y1227238D01*
X412009Y1182899D01*
X412931Y1182282D01*
X414020Y1182065D01*
X419753D01*
X420006Y1180795D01*
X418941Y1180354D01*
X417297Y1179093D01*
X416036Y1177449D01*
X415243Y1175535D01*
X414972Y1173480D01*
X415243Y1171425D01*
X416036Y1169511D01*
X417297Y1167867D01*
X418941Y1166606D01*
X420855Y1165813D01*
X422910Y1165542D01*
X424964Y1165813D01*
X426879Y1166606D01*
X428523Y1167867D01*
X429784Y1169511D01*
X430577Y1171425D01*
X430848Y1173480D01*
X430577Y1175535D01*
X429784Y1177449D01*
X428523Y1179093D01*
X426879Y1180354D01*
X425814Y1180795D01*
X426067Y1182065D01*
X479070D01*
X479536Y1180941D01*
X480797Y1179297D01*
X482441Y1178036D01*
X484356Y1177243D01*
X486410Y1176972D01*
X488465Y1177243D01*
X490379Y1178036D01*
X492023Y1179297D01*
X493284Y1180941D01*
X494077Y1182856D01*
X494348Y1184910D01*
X494077Y1186964D01*
X493284Y1188879D01*
X492023Y1190523D01*
X490379Y1191784D01*
X488465Y1192577D01*
X486410Y1192848D01*
X484356Y1192577D01*
X482441Y1191784D01*
X480797Y1190523D01*
X479536Y1188879D01*
X479070Y1187755D01*
X415198D01*
X371692Y1231261D01*
X372157Y1232385D01*
X372428Y1234440D01*
X372157Y1236495D01*
X371364Y1238409D01*
X370103Y1240053D01*
X368459Y1241314D01*
X366544Y1242107D01*
X364490Y1242378D01*
D02*
G37*
G36*
X576580Y1187768D02*
X574525Y1187497D01*
X572611Y1186704D01*
X570967Y1185443D01*
X569706Y1183799D01*
X568913Y1181885D01*
X568642Y1179830D01*
X568913Y1177775D01*
X569706Y1175861D01*
X570967Y1174217D01*
X572611Y1172956D01*
X574525Y1172163D01*
X576580Y1171892D01*
X578634Y1172163D01*
X580549Y1172956D01*
X582193Y1174217D01*
X583454Y1175861D01*
X584247Y1177775D01*
X584518Y1179830D01*
X584247Y1181885D01*
X583454Y1183799D01*
X582193Y1185443D01*
X580549Y1186704D01*
X578634Y1187497D01*
X576580Y1187768D01*
D02*
G37*
G36*
X810260Y1185118D02*
X807905Y1184808D01*
X805711Y1183899D01*
X803827Y1182453D01*
X802381Y1180569D01*
X801472Y1178375D01*
X801162Y1176020D01*
X801472Y1173665D01*
X802381Y1171471D01*
X803827Y1169587D01*
X805711Y1168141D01*
X807905Y1167232D01*
X810260Y1166922D01*
X812615Y1167232D01*
X814809Y1168141D01*
X816693Y1169587D01*
X818139Y1171471D01*
X819048Y1173665D01*
X819358Y1176020D01*
X819048Y1178375D01*
X818139Y1180569D01*
X816693Y1182453D01*
X814809Y1183899D01*
X812615Y1184808D01*
X810260Y1185118D01*
D02*
G37*
G36*
X591820Y1178768D02*
X589465Y1178458D01*
X587271Y1177549D01*
X585387Y1176103D01*
X583941Y1174219D01*
X583032Y1172025D01*
X582722Y1169670D01*
X583032Y1167315D01*
X583509Y1166165D01*
X582660Y1164895D01*
X567820D01*
Y1171070D01*
X549780D01*
Y1153030D01*
X567820D01*
Y1159205D01*
X583710D01*
X588770Y1154145D01*
X588586Y1152778D01*
X588503Y1152659D01*
X587271Y1152149D01*
X585387Y1150703D01*
X583941Y1148819D01*
X583032Y1146625D01*
X582722Y1144270D01*
X583032Y1141915D01*
X583941Y1139721D01*
X585387Y1137837D01*
X587271Y1136391D01*
X589465Y1135482D01*
X591820Y1135172D01*
X594175Y1135482D01*
X596369Y1136391D01*
X598253Y1137837D01*
X599699Y1139721D01*
X600608Y1141915D01*
X600918Y1144270D01*
X600608Y1146625D01*
X599699Y1148819D01*
X598253Y1150703D01*
X597103Y1151585D01*
X597534Y1152855D01*
X647170D01*
X647636Y1151731D01*
X648897Y1150087D01*
X650541Y1148826D01*
X652456Y1148033D01*
X654510Y1147762D01*
X656565Y1148033D01*
X658479Y1148826D01*
X660123Y1150087D01*
X661385Y1151731D01*
X662178Y1153645D01*
X662448Y1155700D01*
X662178Y1157755D01*
X661385Y1159669D01*
X660123Y1161313D01*
X658479Y1162574D01*
X656565Y1163367D01*
X654510Y1163638D01*
X652456Y1163367D01*
X650541Y1162574D01*
X648897Y1161313D01*
X647636Y1159669D01*
X647170Y1158545D01*
X592416D01*
X591524Y1159437D01*
X592142Y1160615D01*
X594175Y1160882D01*
X596369Y1161791D01*
X598253Y1163237D01*
X599699Y1165121D01*
X600608Y1167315D01*
X600918Y1169670D01*
X600608Y1172025D01*
X599699Y1174219D01*
X598253Y1176103D01*
X596369Y1177549D01*
X594175Y1178458D01*
X591820Y1178768D01*
D02*
G37*
G36*
X845820Y1180038D02*
X843465Y1179728D01*
X841271Y1178819D01*
X839387Y1177373D01*
X837941Y1175489D01*
X837032Y1173295D01*
X836722Y1170940D01*
X837032Y1168585D01*
X837941Y1166391D01*
X839387Y1164507D01*
X841271Y1163061D01*
X843465Y1162152D01*
X845820Y1161842D01*
X848175Y1162152D01*
X850369Y1163061D01*
X852253Y1164507D01*
X853699Y1166391D01*
X854608Y1168585D01*
X854918Y1170940D01*
X854608Y1173295D01*
X853699Y1175489D01*
X852253Y1177373D01*
X850369Y1178819D01*
X848175Y1179728D01*
X845820Y1180038D01*
D02*
G37*
G36*
X447040Y1173798D02*
X444986Y1173527D01*
X443071Y1172734D01*
X441427Y1171473D01*
X440166Y1169829D01*
X439373Y1167915D01*
X439102Y1165860D01*
X439373Y1163805D01*
X440166Y1161891D01*
X441427Y1160247D01*
X443071Y1158986D01*
X444986Y1158193D01*
X447040Y1157922D01*
X449095Y1158193D01*
X451009Y1158986D01*
X452653Y1160247D01*
X453914Y1161891D01*
X454707Y1163805D01*
X454978Y1165860D01*
X454707Y1167915D01*
X453914Y1169829D01*
X452653Y1171473D01*
X451009Y1172734D01*
X449095Y1173527D01*
X447040Y1173798D01*
D02*
G37*
G36*
X322580Y1172528D02*
X320526Y1172257D01*
X318611Y1171464D01*
X316967Y1170203D01*
X315706Y1168559D01*
X314913Y1166645D01*
X314642Y1164590D01*
X314913Y1162535D01*
X315706Y1160621D01*
X316967Y1158977D01*
X318611Y1157716D01*
X320526Y1156923D01*
X322580Y1156652D01*
X324635Y1156923D01*
X326549Y1157716D01*
X328193Y1158977D01*
X329454Y1160621D01*
X330247Y1162535D01*
X330518Y1164590D01*
X330247Y1166645D01*
X329454Y1168559D01*
X328193Y1170203D01*
X326549Y1171464D01*
X324635Y1172257D01*
X322580Y1172528D01*
D02*
G37*
G36*
X810260Y1159718D02*
X807905Y1159408D01*
X805711Y1158499D01*
X803827Y1157053D01*
X802381Y1155169D01*
X801472Y1152975D01*
X801162Y1150620D01*
X801472Y1148265D01*
X802381Y1146071D01*
X803827Y1144187D01*
X805711Y1142741D01*
X807905Y1141832D01*
X810260Y1141522D01*
X812615Y1141832D01*
X814809Y1142741D01*
X816693Y1144187D01*
X818139Y1146071D01*
X819048Y1148265D01*
X819358Y1150620D01*
X819048Y1152975D01*
X818139Y1155169D01*
X816693Y1157053D01*
X814809Y1158499D01*
X812615Y1159408D01*
X810260Y1159718D01*
D02*
G37*
G36*
X492669Y1145540D02*
X485140D01*
Y1138010D01*
X486191Y1138149D01*
X488353Y1139045D01*
X490210Y1140470D01*
X491635Y1142327D01*
X492531Y1144489D01*
X492669Y1145540D01*
D02*
G37*
G36*
X845820Y1154638D02*
X843465Y1154328D01*
X841271Y1153419D01*
X839387Y1151973D01*
X837941Y1150089D01*
X837032Y1147895D01*
X836722Y1145540D01*
X837032Y1143185D01*
X837941Y1140991D01*
X839387Y1139107D01*
X841271Y1137661D01*
X843465Y1136752D01*
X845820Y1136442D01*
X848175Y1136752D01*
X850369Y1137661D01*
X852253Y1139107D01*
X853699Y1140991D01*
X854608Y1143185D01*
X854918Y1145540D01*
X854608Y1147895D01*
X853699Y1150089D01*
X852253Y1151973D01*
X850369Y1153419D01*
X848175Y1154328D01*
X845820Y1154638D01*
D02*
G37*
G36*
X646430Y1148398D02*
X644376Y1148127D01*
X642461Y1147334D01*
X640817Y1146073D01*
X639556Y1144429D01*
X638763Y1142514D01*
X638492Y1140460D01*
X638763Y1138406D01*
X639556Y1136491D01*
X640817Y1134847D01*
X642461Y1133586D01*
X644376Y1132793D01*
X646430Y1132522D01*
X648484Y1132793D01*
X650399Y1133586D01*
X652043Y1134847D01*
X653304Y1136491D01*
X654097Y1138406D01*
X654368Y1140460D01*
X654097Y1142514D01*
X653304Y1144429D01*
X652043Y1146073D01*
X650399Y1147334D01*
X648484Y1148127D01*
X646430Y1148398D01*
D02*
G37*
G36*
X710991Y1146067D02*
X708937Y1145796D01*
X707022Y1145003D01*
X705378Y1143742D01*
X704117Y1142098D01*
X703324Y1140183D01*
X703053Y1138129D01*
X703324Y1136074D01*
X704117Y1134160D01*
X705378Y1132516D01*
X707022Y1131254D01*
X708937Y1130461D01*
X710991Y1130191D01*
X713046Y1130461D01*
X714960Y1131254D01*
X716604Y1132516D01*
X717866Y1134160D01*
X718659Y1136074D01*
X718929Y1138129D01*
X718659Y1140183D01*
X717866Y1142098D01*
X716604Y1143742D01*
X714960Y1145003D01*
X713046Y1145796D01*
X710991Y1146067D01*
D02*
G37*
G36*
X734060Y1145858D02*
X732005Y1145587D01*
X730091Y1144794D01*
X728447Y1143533D01*
X727186Y1141889D01*
X726393Y1139975D01*
X726122Y1137920D01*
X726393Y1135865D01*
X727186Y1133951D01*
X728447Y1132307D01*
X730091Y1131046D01*
X732005Y1130253D01*
X734060Y1129982D01*
X736115Y1130253D01*
X738029Y1131046D01*
X739673Y1132307D01*
X740934Y1133951D01*
X741727Y1135865D01*
X741998Y1137920D01*
X741727Y1139975D01*
X740934Y1141889D01*
X739673Y1143533D01*
X738029Y1144794D01*
X736115Y1145587D01*
X734060Y1145858D01*
D02*
G37*
G36*
X753110Y1144588D02*
X751056Y1144317D01*
X749141Y1143524D01*
X747497Y1142263D01*
X746236Y1140619D01*
X745443Y1138705D01*
X745172Y1136650D01*
X745443Y1134595D01*
X746236Y1132681D01*
X747497Y1131037D01*
X749141Y1129776D01*
X751056Y1128983D01*
X753110Y1128712D01*
X755164Y1128983D01*
X757079Y1129776D01*
X758723Y1131037D01*
X759984Y1132681D01*
X760777Y1134595D01*
X761048Y1136650D01*
X760777Y1138705D01*
X759984Y1140619D01*
X758723Y1142263D01*
X757079Y1143524D01*
X755164Y1144317D01*
X753110Y1144588D01*
D02*
G37*
G36*
X666750Y1143318D02*
X664696Y1143047D01*
X662781Y1142254D01*
X661137Y1140993D01*
X659876Y1139349D01*
X659083Y1137434D01*
X658812Y1135380D01*
X659083Y1133326D01*
X659876Y1131411D01*
X661137Y1129767D01*
X662781Y1128506D01*
X664696Y1127713D01*
X666750Y1127442D01*
X668804Y1127713D01*
X670719Y1128506D01*
X672363Y1129767D01*
X673624Y1131411D01*
X674417Y1133326D01*
X674688Y1135380D01*
X674417Y1137434D01*
X673624Y1139349D01*
X672363Y1140993D01*
X670719Y1142254D01*
X668804Y1143047D01*
X666750Y1143318D01*
D02*
G37*
G36*
X402590Y1135698D02*
X400536Y1135427D01*
X398621Y1134634D01*
X396977Y1133373D01*
X395716Y1131729D01*
X394923Y1129815D01*
X394652Y1127760D01*
X394923Y1125705D01*
X395716Y1123791D01*
X396977Y1122147D01*
X398621Y1120886D01*
X400536Y1120093D01*
X402590Y1119822D01*
X404645Y1120093D01*
X406559Y1120886D01*
X408203Y1122147D01*
X409464Y1123791D01*
X410257Y1125705D01*
X410528Y1127760D01*
X410257Y1129815D01*
X409464Y1131729D01*
X408203Y1133373D01*
X406559Y1134634D01*
X404645Y1135427D01*
X402590Y1135698D01*
D02*
G37*
G36*
X810260Y1134318D02*
X807905Y1134008D01*
X805711Y1133099D01*
X803827Y1131653D01*
X802381Y1129769D01*
X801472Y1127575D01*
X801162Y1125220D01*
X801472Y1122865D01*
X802381Y1120671D01*
X803827Y1118787D01*
X805711Y1117341D01*
X807905Y1116432D01*
X810260Y1116122D01*
X812615Y1116432D01*
X814809Y1117341D01*
X816693Y1118787D01*
X818139Y1120671D01*
X819048Y1122865D01*
X819358Y1125220D01*
X819048Y1127575D01*
X818139Y1129769D01*
X816693Y1131653D01*
X814809Y1133099D01*
X812615Y1134008D01*
X810260Y1134318D01*
D02*
G37*
G36*
X591820Y1127968D02*
X589465Y1127658D01*
X587271Y1126749D01*
X585387Y1125303D01*
X583941Y1123419D01*
X583032Y1121225D01*
X582722Y1118870D01*
X583032Y1116515D01*
X583941Y1114321D01*
X585387Y1112437D01*
X587271Y1110991D01*
X589465Y1110082D01*
X591820Y1109772D01*
X594175Y1110082D01*
X596369Y1110991D01*
X598253Y1112437D01*
X599699Y1114321D01*
X600608Y1116515D01*
X600918Y1118870D01*
X600608Y1121225D01*
X599699Y1123419D01*
X598253Y1125303D01*
X596369Y1126749D01*
X594175Y1127658D01*
X591820Y1127968D01*
D02*
G37*
G36*
X810260Y1108918D02*
X807905Y1108608D01*
X805711Y1107699D01*
X803827Y1106253D01*
X802381Y1104369D01*
X801472Y1102175D01*
X801162Y1099820D01*
X801472Y1097465D01*
X802381Y1095271D01*
X803827Y1093387D01*
X805711Y1091941D01*
X807905Y1091032D01*
X810260Y1090722D01*
X812615Y1091032D01*
X814809Y1091941D01*
X816693Y1093387D01*
X818139Y1095271D01*
X819048Y1097465D01*
X819358Y1099820D01*
X819048Y1102175D01*
X818139Y1104369D01*
X816693Y1106253D01*
X814809Y1107699D01*
X812615Y1108608D01*
X810260Y1108918D01*
D02*
G37*
G36*
X635130Y1103760D02*
X617090D01*
Y1085720D01*
X635130D01*
Y1103760D01*
D02*
G37*
G36*
X591820Y1102568D02*
X589465Y1102258D01*
X587271Y1101349D01*
X585387Y1099903D01*
X583941Y1098019D01*
X583032Y1095825D01*
X582722Y1093470D01*
X583032Y1091115D01*
X583941Y1088921D01*
X585387Y1087037D01*
X587271Y1085591D01*
X589465Y1084682D01*
X591820Y1084372D01*
X594175Y1084682D01*
X596369Y1085591D01*
X598253Y1087037D01*
X599699Y1088921D01*
X600608Y1091115D01*
X600918Y1093470D01*
X600608Y1095825D01*
X599699Y1098019D01*
X598253Y1099903D01*
X596369Y1101349D01*
X594175Y1102258D01*
X591820Y1102568D01*
D02*
G37*
G36*
X401320Y1100138D02*
X399266Y1099867D01*
X397351Y1099074D01*
X395707Y1097813D01*
X394446Y1096169D01*
X393653Y1094255D01*
X393382Y1092200D01*
X393653Y1090145D01*
X394446Y1088231D01*
X395707Y1086587D01*
X397351Y1085326D01*
X399266Y1084533D01*
X401320Y1084262D01*
X403374Y1084533D01*
X405289Y1085326D01*
X406933Y1086587D01*
X408194Y1088231D01*
X408987Y1090145D01*
X409258Y1092200D01*
X408987Y1094255D01*
X408194Y1096169D01*
X406933Y1097813D01*
X405289Y1099074D01*
X403374Y1099867D01*
X401320Y1100138D01*
D02*
G37*
G36*
X675770Y1099950D02*
X657730D01*
Y1081910D01*
X675770D01*
Y1099950D01*
D02*
G37*
G36*
X569090D02*
X551050D01*
Y1081910D01*
X569090D01*
Y1099950D01*
D02*
G37*
G36*
X768350Y1100028D02*
X765995Y1099718D01*
X763801Y1098809D01*
X761917Y1097363D01*
X760471Y1095479D01*
X759562Y1093285D01*
X759252Y1090930D01*
X759562Y1088575D01*
X760471Y1086381D01*
X761917Y1084497D01*
X763801Y1083051D01*
X765995Y1082142D01*
X768350Y1081832D01*
X770705Y1082142D01*
X772899Y1083051D01*
X774783Y1084497D01*
X776229Y1086381D01*
X777138Y1088575D01*
X777448Y1090930D01*
X777138Y1093285D01*
X776229Y1095479D01*
X774783Y1097363D01*
X772899Y1098809D01*
X770705Y1099718D01*
X768350Y1100028D01*
D02*
G37*
G36*
X742950D02*
X740595Y1099718D01*
X738401Y1098809D01*
X736517Y1097363D01*
X735071Y1095479D01*
X734162Y1093285D01*
X733852Y1090930D01*
X734162Y1088575D01*
X735071Y1086381D01*
X736517Y1084497D01*
X738401Y1083051D01*
X740595Y1082142D01*
X742950Y1081832D01*
X745305Y1082142D01*
X747499Y1083051D01*
X749383Y1084497D01*
X750829Y1086381D01*
X751738Y1088575D01*
X752048Y1090930D01*
X751738Y1093285D01*
X750829Y1095479D01*
X749383Y1097363D01*
X747499Y1098809D01*
X745305Y1099718D01*
X742950Y1100028D01*
D02*
G37*
G36*
X717550D02*
X715195Y1099718D01*
X713001Y1098809D01*
X711117Y1097363D01*
X709671Y1095479D01*
X708762Y1093285D01*
X708452Y1090930D01*
X708762Y1088575D01*
X709671Y1086381D01*
X711117Y1084497D01*
X713001Y1083051D01*
X715195Y1082142D01*
X717550Y1081832D01*
X719905Y1082142D01*
X722099Y1083051D01*
X723983Y1084497D01*
X725429Y1086381D01*
X726338Y1088575D01*
X726648Y1090930D01*
X726338Y1093285D01*
X725429Y1095479D01*
X723983Y1097363D01*
X722099Y1098809D01*
X719905Y1099718D01*
X717550Y1100028D01*
D02*
G37*
G36*
X692150D02*
X689795Y1099718D01*
X687601Y1098809D01*
X685717Y1097363D01*
X684271Y1095479D01*
X683362Y1093285D01*
X683052Y1090930D01*
X683362Y1088575D01*
X684271Y1086381D01*
X685717Y1084497D01*
X687601Y1083051D01*
X689795Y1082142D01*
X692150Y1081832D01*
X694505Y1082142D01*
X696699Y1083051D01*
X698583Y1084497D01*
X700029Y1086381D01*
X700938Y1088575D01*
X701248Y1090930D01*
X700938Y1093285D01*
X700029Y1095479D01*
X698583Y1097363D01*
X696699Y1098809D01*
X694505Y1099718D01*
X692150Y1100028D01*
D02*
G37*
G36*
X852170Y1089978D02*
X850116Y1089707D01*
X848201Y1088914D01*
X846557Y1087653D01*
X845296Y1086009D01*
X844503Y1084094D01*
X844232Y1082040D01*
X844503Y1079986D01*
X845296Y1078071D01*
X846557Y1076427D01*
X848201Y1075166D01*
X850116Y1074373D01*
X852170Y1074102D01*
X854224Y1074373D01*
X856139Y1075166D01*
X857783Y1076427D01*
X859044Y1078071D01*
X859837Y1079986D01*
X860108Y1082040D01*
X859837Y1084094D01*
X859044Y1086009D01*
X857783Y1087653D01*
X856139Y1088914D01*
X854224Y1089707D01*
X852170Y1089978D01*
D02*
G37*
G36*
X810260Y1083518D02*
X807905Y1083208D01*
X805711Y1082299D01*
X803827Y1080853D01*
X802381Y1078969D01*
X801472Y1076775D01*
X801162Y1074420D01*
X801472Y1072065D01*
X802381Y1069871D01*
X803827Y1067987D01*
X805711Y1066541D01*
X807905Y1065632D01*
X810260Y1065322D01*
X812615Y1065632D01*
X814809Y1066541D01*
X816693Y1067987D01*
X818139Y1069871D01*
X819048Y1072065D01*
X819358Y1074420D01*
X819048Y1076775D01*
X818139Y1078969D01*
X816693Y1080853D01*
X814809Y1082299D01*
X812615Y1083208D01*
X810260Y1083518D01*
D02*
G37*
G36*
X680720Y1081088D02*
X678665Y1080817D01*
X676751Y1080024D01*
X675107Y1078763D01*
X673846Y1077119D01*
X673053Y1075204D01*
X672782Y1073150D01*
X673053Y1071096D01*
X673846Y1069181D01*
X675107Y1067537D01*
X676751Y1066276D01*
X678665Y1065483D01*
X680720Y1065212D01*
X682775Y1065483D01*
X684689Y1066276D01*
X686333Y1067537D01*
X687594Y1069181D01*
X688387Y1071096D01*
X688658Y1073150D01*
X688387Y1075204D01*
X687594Y1077119D01*
X686333Y1078763D01*
X684689Y1080024D01*
X682775Y1080817D01*
X680720Y1081088D01*
D02*
G37*
G36*
X332740D02*
X330686Y1080817D01*
X328771Y1080024D01*
X327127Y1078763D01*
X325866Y1077119D01*
X325073Y1075204D01*
X324802Y1073150D01*
X325073Y1071096D01*
X325866Y1069181D01*
X327127Y1067537D01*
X328771Y1066276D01*
X330686Y1065483D01*
X332740Y1065212D01*
X334795Y1065483D01*
X336709Y1066276D01*
X338353Y1067537D01*
X339614Y1069181D01*
X340407Y1071096D01*
X340678Y1073150D01*
X340407Y1075204D01*
X339614Y1077119D01*
X338353Y1078763D01*
X336709Y1080024D01*
X334795Y1080817D01*
X332740Y1081088D01*
D02*
G37*
G36*
X626110Y1078438D02*
X623755Y1078128D01*
X621561Y1077219D01*
X619677Y1075773D01*
X618231Y1073889D01*
X617322Y1071695D01*
X617012Y1069340D01*
X617322Y1066985D01*
X618231Y1064791D01*
X619677Y1062907D01*
X621561Y1061461D01*
X623755Y1060552D01*
X626110Y1060242D01*
X628465Y1060552D01*
X630659Y1061461D01*
X632543Y1062907D01*
X633989Y1064791D01*
X634898Y1066985D01*
X635208Y1069340D01*
X634898Y1071695D01*
X633989Y1073889D01*
X632543Y1075773D01*
X630659Y1077219D01*
X628465Y1078128D01*
X626110Y1078438D01*
D02*
G37*
G36*
X591820Y1077168D02*
X589465Y1076858D01*
X587271Y1075949D01*
X585387Y1074503D01*
X583941Y1072619D01*
X583032Y1070425D01*
X582722Y1068070D01*
X583032Y1065715D01*
X583941Y1063521D01*
X585387Y1061637D01*
X587271Y1060191D01*
X589465Y1059282D01*
X591820Y1058972D01*
X594175Y1059282D01*
X596369Y1060191D01*
X598253Y1061637D01*
X599699Y1063521D01*
X600608Y1065715D01*
X600918Y1068070D01*
X600608Y1070425D01*
X599699Y1072619D01*
X598253Y1074503D01*
X596369Y1075949D01*
X594175Y1076858D01*
X591820Y1077168D01*
D02*
G37*
G36*
X560070Y1074628D02*
X557715Y1074318D01*
X555521Y1073409D01*
X553637Y1071963D01*
X552191Y1070079D01*
X551282Y1067885D01*
X550972Y1065530D01*
X551282Y1063175D01*
X552191Y1060981D01*
X553637Y1059097D01*
X555521Y1057651D01*
X557715Y1056742D01*
X560070Y1056432D01*
X562425Y1056742D01*
X564619Y1057651D01*
X566503Y1059097D01*
X567949Y1060981D01*
X568858Y1063175D01*
X569168Y1065530D01*
X568858Y1067885D01*
X567949Y1070079D01*
X566503Y1071963D01*
X564619Y1073409D01*
X562425Y1074318D01*
X560070Y1074628D01*
D02*
G37*
G36*
X684530Y1062038D02*
X682476Y1061767D01*
X680561Y1060974D01*
X678917Y1059713D01*
X677656Y1058069D01*
X676863Y1056154D01*
X676592Y1054100D01*
X676863Y1052046D01*
X677656Y1050131D01*
X678917Y1048487D01*
X680561Y1047226D01*
X682476Y1046433D01*
X684530Y1046162D01*
X686584Y1046433D01*
X688499Y1047226D01*
X690143Y1048487D01*
X691404Y1050131D01*
X692197Y1052046D01*
X692468Y1054100D01*
X692197Y1056154D01*
X691404Y1058069D01*
X690143Y1059713D01*
X688499Y1060974D01*
X686584Y1061767D01*
X684530Y1062038D01*
D02*
G37*
G36*
X707390Y1078548D02*
X705335Y1078277D01*
X703421Y1077484D01*
X701777Y1076223D01*
X700516Y1074579D01*
X699723Y1072664D01*
X699452Y1070610D01*
X699723Y1068556D01*
X700516Y1066641D01*
X701777Y1064997D01*
X703285Y1063840D01*
X703282Y1063313D01*
X703025Y1062525D01*
X702125Y1062407D01*
X699921Y1061494D01*
X698028Y1060042D01*
X696576Y1058149D01*
X695663Y1055945D01*
X695352Y1053580D01*
X695663Y1051215D01*
X696576Y1049011D01*
X698028Y1047118D01*
X699921Y1045666D01*
X702125Y1044753D01*
X704490Y1044442D01*
X706855Y1044753D01*
X709059Y1045666D01*
X710952Y1047118D01*
X712404Y1049011D01*
X713317Y1051215D01*
X713628Y1053580D01*
X713317Y1055945D01*
X712404Y1058149D01*
X710952Y1060042D01*
X709059Y1061494D01*
X708845Y1061583D01*
X709016Y1062886D01*
X709445Y1062943D01*
X711359Y1063736D01*
X713003Y1064997D01*
X714264Y1066641D01*
X715057Y1068556D01*
X715328Y1070610D01*
X715057Y1072664D01*
X714264Y1074579D01*
X713003Y1076223D01*
X711359Y1077484D01*
X709445Y1078277D01*
X707390Y1078548D01*
D02*
G37*
G36*
X659490Y1062718D02*
X657125Y1062407D01*
X654921Y1061494D01*
X653028Y1060042D01*
X651576Y1058149D01*
X650663Y1055945D01*
X650352Y1053580D01*
X650663Y1051215D01*
X651576Y1049011D01*
X653028Y1047118D01*
X654921Y1045666D01*
X657125Y1044753D01*
X659490Y1044442D01*
X661855Y1044753D01*
X664059Y1045666D01*
X665952Y1047118D01*
X667404Y1049011D01*
X668317Y1051215D01*
X668628Y1053580D01*
X668317Y1055945D01*
X667404Y1058149D01*
X665952Y1060042D01*
X664059Y1061494D01*
X661855Y1062407D01*
X659490Y1062718D01*
D02*
G37*
G36*
X382270Y1059498D02*
X380215Y1059227D01*
X378301Y1058434D01*
X376657Y1057173D01*
X375396Y1055529D01*
X374603Y1053615D01*
X374332Y1051560D01*
X374603Y1049505D01*
X375396Y1047591D01*
X376657Y1045947D01*
X378301Y1044686D01*
X380215Y1043893D01*
X382270Y1043622D01*
X384324Y1043893D01*
X386239Y1044686D01*
X387883Y1045947D01*
X389144Y1047591D01*
X389937Y1049505D01*
X390208Y1051560D01*
X389937Y1053615D01*
X389144Y1055529D01*
X387883Y1057173D01*
X386239Y1058434D01*
X384324Y1059227D01*
X382270Y1059498D01*
D02*
G37*
G36*
X810260Y1058118D02*
X807905Y1057808D01*
X805711Y1056899D01*
X803827Y1055453D01*
X802381Y1053569D01*
X801472Y1051375D01*
X801162Y1049020D01*
X801472Y1046665D01*
X802381Y1044471D01*
X803827Y1042587D01*
X805711Y1041141D01*
X807905Y1040232D01*
X810260Y1039922D01*
X812615Y1040232D01*
X814809Y1041141D01*
X816693Y1042587D01*
X818139Y1044471D01*
X819048Y1046665D01*
X819358Y1049020D01*
X819048Y1051375D01*
X818139Y1053569D01*
X816693Y1055453D01*
X814809Y1056899D01*
X812615Y1057808D01*
X810260Y1058118D01*
D02*
G37*
G36*
X775610Y1057638D02*
X773245Y1057327D01*
X771041Y1056414D01*
X769148Y1054962D01*
X767696Y1053069D01*
X766783Y1050865D01*
X766472Y1048500D01*
X766783Y1046135D01*
X767696Y1043931D01*
X769148Y1042038D01*
X771041Y1040586D01*
X773245Y1039673D01*
X775610Y1039362D01*
X777975Y1039673D01*
X780179Y1040586D01*
X782072Y1042038D01*
X783524Y1043931D01*
X784437Y1046135D01*
X784748Y1048500D01*
X784437Y1050865D01*
X783524Y1053069D01*
X782072Y1054962D01*
X780179Y1056414D01*
X777975Y1057327D01*
X775610Y1057638D01*
D02*
G37*
G36*
X730610D02*
X728245Y1057327D01*
X726041Y1056414D01*
X724148Y1054962D01*
X722696Y1053069D01*
X721783Y1050865D01*
X721472Y1048500D01*
X721783Y1046135D01*
X722696Y1043931D01*
X724148Y1042038D01*
X726041Y1040586D01*
X728245Y1039673D01*
X730610Y1039362D01*
X732975Y1039673D01*
X735179Y1040586D01*
X737072Y1042038D01*
X738524Y1043931D01*
X739437Y1046135D01*
X739748Y1048500D01*
X739437Y1050865D01*
X738524Y1053069D01*
X737072Y1054962D01*
X735179Y1056414D01*
X732975Y1057327D01*
X730610Y1057638D01*
D02*
G37*
G36*
X626110Y1053038D02*
X623755Y1052728D01*
X621561Y1051819D01*
X619677Y1050373D01*
X618231Y1048489D01*
X617322Y1046295D01*
X617012Y1043940D01*
X617322Y1041585D01*
X618231Y1039391D01*
X619677Y1037507D01*
X621561Y1036061D01*
X623755Y1035152D01*
X626110Y1034842D01*
X628465Y1035152D01*
X630659Y1036061D01*
X632543Y1037507D01*
X633989Y1039391D01*
X634898Y1041585D01*
X635208Y1043940D01*
X634898Y1046295D01*
X633989Y1048489D01*
X632543Y1050373D01*
X630659Y1051819D01*
X628465Y1052728D01*
X626110Y1053038D01*
D02*
G37*
G36*
X591820Y1051768D02*
X589465Y1051458D01*
X587271Y1050549D01*
X585387Y1049103D01*
X583941Y1047219D01*
X583032Y1045025D01*
X582722Y1042670D01*
X583032Y1040315D01*
X583941Y1038121D01*
X585387Y1036237D01*
X587271Y1034791D01*
X589465Y1033882D01*
X591820Y1033572D01*
X594175Y1033882D01*
X596369Y1034791D01*
X598253Y1036237D01*
X599699Y1038121D01*
X600608Y1040315D01*
X600918Y1042670D01*
X600608Y1045025D01*
X599699Y1047219D01*
X598253Y1049103D01*
X596369Y1050549D01*
X594175Y1051458D01*
X591820Y1051768D01*
D02*
G37*
G36*
X845820Y1049228D02*
X843465Y1048918D01*
X841271Y1048009D01*
X839387Y1046563D01*
X837941Y1044679D01*
X837032Y1042485D01*
X836722Y1040130D01*
X837032Y1037775D01*
X837941Y1035581D01*
X839387Y1033697D01*
X841271Y1032251D01*
X843465Y1031342D01*
X845820Y1031032D01*
X848175Y1031342D01*
X850369Y1032251D01*
X852253Y1033697D01*
X853699Y1035581D01*
X854608Y1037775D01*
X854918Y1040130D01*
X854608Y1042485D01*
X853699Y1044679D01*
X852253Y1046563D01*
X850369Y1048009D01*
X848175Y1048918D01*
X845820Y1049228D01*
D02*
G37*
G36*
X560070D02*
X557715Y1048918D01*
X555521Y1048009D01*
X553637Y1046563D01*
X552191Y1044679D01*
X551282Y1042485D01*
X550972Y1040130D01*
X551282Y1037775D01*
X552191Y1035581D01*
X553637Y1033697D01*
X555521Y1032251D01*
X557715Y1031342D01*
X560070Y1031032D01*
X562425Y1031342D01*
X564619Y1032251D01*
X566503Y1033697D01*
X567949Y1035581D01*
X568858Y1037775D01*
X569168Y1040130D01*
X568858Y1042485D01*
X567949Y1044679D01*
X566503Y1046563D01*
X564619Y1048009D01*
X562425Y1048918D01*
X560070Y1049228D01*
D02*
G37*
G36*
X810260Y1032718D02*
X807905Y1032408D01*
X805711Y1031499D01*
X803827Y1030053D01*
X802381Y1028169D01*
X801472Y1025975D01*
X801162Y1023620D01*
X801472Y1021265D01*
X802381Y1019071D01*
X803827Y1017187D01*
X805711Y1015741D01*
X807905Y1014832D01*
X810260Y1014522D01*
X812615Y1014832D01*
X814809Y1015741D01*
X816693Y1017187D01*
X818139Y1019071D01*
X819048Y1021265D01*
X819358Y1023620D01*
X819048Y1025975D01*
X818139Y1028169D01*
X816693Y1030053D01*
X814809Y1031499D01*
X812615Y1032408D01*
X810260Y1032718D01*
D02*
G37*
G36*
X626110Y1027638D02*
X623755Y1027328D01*
X621561Y1026419D01*
X619677Y1024973D01*
X618231Y1023089D01*
X617322Y1020895D01*
X617012Y1018540D01*
X617322Y1016185D01*
X618231Y1013991D01*
X619677Y1012107D01*
X621561Y1010661D01*
X623755Y1009752D01*
X626110Y1009442D01*
X628465Y1009752D01*
X630659Y1010661D01*
X632543Y1012107D01*
X633989Y1013991D01*
X634898Y1016185D01*
X635208Y1018540D01*
X634898Y1020895D01*
X633989Y1023089D01*
X632543Y1024973D01*
X630659Y1026419D01*
X628465Y1027328D01*
X626110Y1027638D01*
D02*
G37*
G36*
X845820Y1023828D02*
X843465Y1023518D01*
X841271Y1022609D01*
X839387Y1021163D01*
X837941Y1019279D01*
X837032Y1017085D01*
X836722Y1014730D01*
X837032Y1012375D01*
X837941Y1010181D01*
X839387Y1008297D01*
X841271Y1006851D01*
X843465Y1005942D01*
X845820Y1005632D01*
X848175Y1005942D01*
X850369Y1006851D01*
X852253Y1008297D01*
X853699Y1010181D01*
X854608Y1012375D01*
X854918Y1014730D01*
X854608Y1017085D01*
X853699Y1019279D01*
X852253Y1021163D01*
X850369Y1022609D01*
X848175Y1023518D01*
X845820Y1023828D01*
D02*
G37*
G36*
X810260Y1007318D02*
X807905Y1007008D01*
X805711Y1006099D01*
X803827Y1004653D01*
X802381Y1002769D01*
X801472Y1000575D01*
X801162Y998220D01*
X801472Y995865D01*
X802381Y993671D01*
X803827Y991787D01*
X805711Y990341D01*
X807905Y989432D01*
X810260Y989122D01*
X812615Y989432D01*
X814809Y990341D01*
X816693Y991787D01*
X818139Y993671D01*
X819048Y995865D01*
X819358Y998220D01*
X819048Y1000575D01*
X818139Y1002769D01*
X816693Y1004653D01*
X814809Y1006099D01*
X812615Y1007008D01*
X810260Y1007318D01*
D02*
G37*
G36*
X626110Y1002238D02*
X623755Y1001928D01*
X621561Y1001019D01*
X619677Y999573D01*
X618231Y997689D01*
X617322Y995495D01*
X617012Y993140D01*
X617322Y990785D01*
X618231Y988591D01*
X619677Y986707D01*
X621561Y985261D01*
X623755Y984352D01*
X626110Y984042D01*
X628465Y984352D01*
X630659Y985261D01*
X632543Y986707D01*
X633989Y988591D01*
X634898Y990785D01*
X635208Y993140D01*
X634898Y995495D01*
X633989Y997689D01*
X632543Y999573D01*
X630659Y1001019D01*
X628465Y1001928D01*
X626110Y1002238D01*
D02*
G37*
G36*
X845820Y998428D02*
X843465Y998118D01*
X841271Y997209D01*
X839387Y995763D01*
X837941Y993879D01*
X837032Y991685D01*
X836722Y989330D01*
X837032Y986975D01*
X837941Y984781D01*
X839387Y982897D01*
X841271Y981451D01*
X843465Y980542D01*
X845820Y980232D01*
X848175Y980542D01*
X850369Y981451D01*
X852253Y982897D01*
X853699Y984781D01*
X854608Y986975D01*
X854918Y989330D01*
X854608Y991685D01*
X853699Y993879D01*
X852253Y995763D01*
X850369Y997209D01*
X848175Y998118D01*
X845820Y998428D01*
D02*
G37*
G36*
X560070D02*
X557715Y998118D01*
X555521Y997209D01*
X553637Y995763D01*
X552191Y993879D01*
X551282Y991685D01*
X550972Y989330D01*
X551282Y986975D01*
X552191Y984781D01*
X553637Y982897D01*
X555521Y981451D01*
X557715Y980542D01*
X560070Y980232D01*
X562425Y980542D01*
X564619Y981451D01*
X566503Y982897D01*
X567949Y984781D01*
X568858Y986975D01*
X569168Y989330D01*
X568858Y991685D01*
X567949Y993879D01*
X566503Y995763D01*
X564619Y997209D01*
X562425Y998118D01*
X560070Y998428D01*
D02*
G37*
G36*
X704490Y997718D02*
X702125Y997407D01*
X699921Y996494D01*
X698028Y995042D01*
X696576Y993149D01*
X695663Y990945D01*
X695352Y988580D01*
X695663Y986215D01*
X696576Y984011D01*
X698028Y982118D01*
X699921Y980666D01*
X702125Y979753D01*
X704490Y979442D01*
X706855Y979753D01*
X709059Y980666D01*
X710952Y982118D01*
X712404Y984011D01*
X713317Y986215D01*
X713628Y988580D01*
X713317Y990945D01*
X712404Y993149D01*
X710952Y995042D01*
X709059Y996494D01*
X706855Y997407D01*
X704490Y997718D01*
D02*
G37*
G36*
X659490D02*
X657125Y997407D01*
X654921Y996494D01*
X653028Y995042D01*
X651576Y993149D01*
X650663Y990945D01*
X650352Y988580D01*
X650663Y986215D01*
X651576Y984011D01*
X653028Y982118D01*
X654921Y980666D01*
X657125Y979753D01*
X659490Y979442D01*
X661855Y979753D01*
X664059Y980666D01*
X665952Y982118D01*
X667404Y984011D01*
X668317Y986215D01*
X668628Y988580D01*
X668317Y990945D01*
X667404Y993149D01*
X665952Y995042D01*
X664059Y996494D01*
X661855Y997407D01*
X659490Y997718D01*
D02*
G37*
G36*
X462280Y992188D02*
X460225Y991917D01*
X458311Y991124D01*
X456667Y989863D01*
X455406Y988219D01*
X454613Y986304D01*
X454342Y984250D01*
X454613Y982196D01*
X455406Y980281D01*
X456667Y978637D01*
X458311Y977376D01*
X459435Y976910D01*
Y942248D01*
X429352Y912165D01*
X373288D01*
X329671Y955781D01*
X328749Y956398D01*
X327660Y956615D01*
X322300D01*
X321834Y957739D01*
X320573Y959383D01*
X318929Y960644D01*
X317015Y961437D01*
X314960Y961708D01*
X312906Y961437D01*
X310991Y960644D01*
X309347Y959383D01*
X308086Y957739D01*
X307293Y955825D01*
X307022Y953770D01*
X307293Y951715D01*
X308086Y949801D01*
X309347Y948157D01*
X310991Y946896D01*
X312906Y946103D01*
X314960Y945832D01*
X317015Y946103D01*
X318929Y946896D01*
X320573Y948157D01*
X321834Y949801D01*
X322300Y950925D01*
X326482D01*
X370099Y907309D01*
X371021Y906692D01*
X372110Y906475D01*
X430530D01*
X431619Y906692D01*
X432541Y907309D01*
X464291Y939059D01*
X464908Y939981D01*
X465125Y941070D01*
Y975586D01*
X466395Y976113D01*
X480589Y961919D01*
X481511Y961302D01*
X482600Y961085D01*
X551485D01*
X552191Y959381D01*
X553637Y957497D01*
X555521Y956051D01*
X557715Y955142D01*
X560070Y954832D01*
X562425Y955142D01*
X564619Y956051D01*
X566503Y957497D01*
X567949Y959381D01*
X568858Y961575D01*
X569168Y963930D01*
X568858Y966285D01*
X567949Y968479D01*
X566503Y970363D01*
X564619Y971809D01*
X562425Y972718D01*
X560070Y973028D01*
X557715Y972718D01*
X555521Y971809D01*
X553637Y970363D01*
X552191Y968479D01*
X551485Y966775D01*
X483778D01*
X469482Y981071D01*
X469947Y982196D01*
X470218Y984250D01*
X469947Y986304D01*
X469154Y988219D01*
X467893Y989863D01*
X466249Y991124D01*
X464334Y991917D01*
X462280Y992188D01*
D02*
G37*
G36*
X823090Y962790D02*
X805050D01*
Y944750D01*
X823090D01*
Y962790D01*
D02*
G37*
G36*
X764900Y931908D02*
X762535Y931597D01*
X760331Y930684D01*
X758438Y929232D01*
X756986Y927339D01*
X756073Y925135D01*
X755762Y922770D01*
X756073Y920405D01*
X756986Y918201D01*
X758438Y916308D01*
X760331Y914856D01*
X762535Y913943D01*
X764900Y913632D01*
X767265Y913943D01*
X769469Y914856D01*
X771362Y916308D01*
X772814Y918201D01*
X773727Y920405D01*
X774038Y922770D01*
X773727Y925135D01*
X772814Y927339D01*
X771362Y929232D01*
X769469Y930684D01*
X767265Y931597D01*
X764900Y931908D01*
D02*
G37*
G36*
X624680Y928383D02*
X621718Y927993D01*
X618959Y926850D01*
X616589Y925031D01*
X614770Y922661D01*
X613627Y919902D01*
X613237Y916940D01*
X613627Y913978D01*
X614770Y911219D01*
X616589Y908849D01*
X618959Y907030D01*
X621718Y905887D01*
X624680Y905497D01*
X627642Y905887D01*
X630401Y907030D01*
X632771Y908849D01*
X634590Y911219D01*
X635733Y913978D01*
X636123Y916940D01*
X635733Y919902D01*
X634590Y922661D01*
X632771Y925031D01*
X630401Y926850D01*
X627642Y927993D01*
X624680Y928383D01*
D02*
G37*
G36*
X594280D02*
X591318Y927993D01*
X588559Y926850D01*
X586189Y925031D01*
X584370Y922661D01*
X583227Y919902D01*
X582837Y916940D01*
X583227Y913978D01*
X584370Y911219D01*
X586189Y908849D01*
X588559Y907030D01*
X591318Y905887D01*
X594280Y905497D01*
X597242Y905887D01*
X600001Y907030D01*
X602371Y908849D01*
X604190Y911219D01*
X605333Y913978D01*
X605723Y916940D01*
X605333Y919902D01*
X604190Y922661D01*
X602371Y925031D01*
X600001Y926850D01*
X597242Y927993D01*
X594280Y928383D01*
D02*
G37*
G36*
X563880D02*
X560918Y927993D01*
X558159Y926850D01*
X555789Y925031D01*
X553970Y922661D01*
X552827Y919902D01*
X552437Y916940D01*
X552827Y913978D01*
X553970Y911219D01*
X555789Y908849D01*
X558159Y907030D01*
X560918Y905887D01*
X563880Y905497D01*
X566842Y905887D01*
X569601Y907030D01*
X571971Y908849D01*
X573790Y911219D01*
X574933Y913978D01*
X575323Y916940D01*
X574933Y919902D01*
X573790Y922661D01*
X571971Y925031D01*
X569601Y926850D01*
X566842Y927993D01*
X563880Y928383D01*
D02*
G37*
G36*
X678310Y918340D02*
X660270D01*
Y900300D01*
X678310D01*
Y918340D01*
D02*
G37*
G36*
X514940Y887910D02*
X511606Y887471D01*
X508500Y886184D01*
X505832Y884138D01*
X503786Y881470D01*
X502499Y878364D01*
X502060Y875030D01*
X502499Y871696D01*
X503786Y868590D01*
X505832Y865922D01*
X508500Y863876D01*
X511606Y862589D01*
X514940Y862150D01*
X518274Y862589D01*
X521380Y863876D01*
X524048Y865922D01*
X526095Y868590D01*
X527381Y871696D01*
X527820Y875030D01*
X527381Y878364D01*
X526095Y881470D01*
X524048Y884138D01*
X521380Y886184D01*
X518274Y887471D01*
X514940Y887910D01*
D02*
G37*
G36*
X302940D02*
X299606Y887471D01*
X296500Y886184D01*
X293832Y884138D01*
X291786Y881470D01*
X290499Y878364D01*
X290060Y875030D01*
X290499Y871696D01*
X291786Y868590D01*
X293832Y865922D01*
X296500Y863876D01*
X299606Y862589D01*
X302940Y862150D01*
X306274Y862589D01*
X309380Y863876D01*
X312048Y865922D01*
X314095Y868590D01*
X315381Y871696D01*
X315820Y875030D01*
X315381Y878364D01*
X314095Y881470D01*
X312048Y884138D01*
X309380Y886184D01*
X306274Y887471D01*
X302940Y887910D01*
D02*
G37*
G36*
X704920Y871185D02*
X702957Y870926D01*
X701128Y870169D01*
X699557Y868963D01*
X698351Y867392D01*
X697594Y865563D01*
X697335Y863600D01*
X697594Y861637D01*
X698351Y859808D01*
X699557Y858237D01*
X701128Y857031D01*
X702957Y856274D01*
X704920Y856015D01*
X706883Y856274D01*
X708712Y857031D01*
X710283Y858237D01*
X711489Y859808D01*
X712246Y861637D01*
X712505Y863600D01*
X712246Y865563D01*
X711489Y867392D01*
X710283Y868963D01*
X708712Y870169D01*
X706883Y870926D01*
X704920Y871185D01*
D02*
G37*
G36*
X554920D02*
X552957Y870926D01*
X551128Y870169D01*
X549557Y868963D01*
X548351Y867392D01*
X547594Y865563D01*
X547335Y863600D01*
X547594Y861637D01*
X548351Y859808D01*
X549557Y858237D01*
X551128Y857031D01*
X552957Y856274D01*
X554920Y856015D01*
X556883Y856274D01*
X558712Y857031D01*
X560283Y858237D01*
X561489Y859808D01*
X562246Y861637D01*
X562505Y863600D01*
X562246Y865563D01*
X561489Y867392D01*
X560283Y868963D01*
X558712Y870169D01*
X556883Y870926D01*
X554920Y871185D01*
D02*
G37*
G36*
X809900Y866908D02*
X807535Y866597D01*
X805331Y865684D01*
X803438Y864232D01*
X801986Y862339D01*
X801073Y860135D01*
X800762Y857770D01*
X801073Y855405D01*
X801986Y853201D01*
X803438Y851308D01*
X805331Y849856D01*
X807535Y848943D01*
X809900Y848632D01*
X812265Y848943D01*
X814469Y849856D01*
X816362Y851308D01*
X817814Y853201D01*
X818727Y855405D01*
X819038Y857770D01*
X818727Y860135D01*
X817814Y862339D01*
X816362Y864232D01*
X814469Y865684D01*
X812265Y866597D01*
X809900Y866908D01*
D02*
G37*
G36*
X764900D02*
X762535Y866597D01*
X760331Y865684D01*
X758438Y864232D01*
X756986Y862339D01*
X756073Y860135D01*
X755762Y857770D01*
X756073Y855405D01*
X756986Y853201D01*
X758438Y851308D01*
X760331Y849856D01*
X762535Y848943D01*
X764900Y848632D01*
X767265Y848943D01*
X769469Y849856D01*
X771362Y851308D01*
X772814Y853201D01*
X773727Y855405D01*
X774038Y857770D01*
X773727Y860135D01*
X772814Y862339D01*
X771362Y864232D01*
X769469Y865684D01*
X767265Y866597D01*
X764900Y866908D01*
D02*
G37*
G36*
X847090Y857811D02*
X844644Y857489D01*
X842365Y856545D01*
X840407Y855043D01*
X838905Y853085D01*
X837961Y850806D01*
X837639Y848360D01*
X837961Y845914D01*
X838905Y843635D01*
X840407Y841677D01*
X842365Y840175D01*
X844644Y839231D01*
X847090Y838909D01*
X849536Y839231D01*
X851815Y840175D01*
X853773Y841677D01*
X855275Y843635D01*
X856219Y845914D01*
X856541Y848360D01*
X856219Y850806D01*
X855275Y853085D01*
X853773Y855043D01*
X851815Y856545D01*
X849536Y857489D01*
X847090Y857811D01*
D02*
G37*
G36*
X739140Y844758D02*
X736785Y844448D01*
X734591Y843539D01*
X732707Y842093D01*
X731261Y840209D01*
X730352Y838015D01*
X730042Y835660D01*
X730352Y833305D01*
X731261Y831111D01*
X732707Y829227D01*
X734591Y827781D01*
X736785Y826872D01*
X739140Y826562D01*
X741495Y826872D01*
X743689Y827781D01*
X745573Y829227D01*
X747019Y831111D01*
X747928Y833305D01*
X748238Y835660D01*
X747928Y838015D01*
X747019Y840209D01*
X745573Y842093D01*
X743689Y843539D01*
X741495Y844448D01*
X739140Y844758D01*
D02*
G37*
G36*
X358090Y839800D02*
X340550D01*
Y822260D01*
X358090D01*
Y839800D01*
D02*
G37*
G36*
X427320Y839876D02*
X425031Y839574D01*
X422897Y838690D01*
X421065Y837285D01*
X419660Y835453D01*
X418776Y833319D01*
X418474Y831030D01*
X418776Y828741D01*
X419660Y826607D01*
X421065Y824775D01*
X422897Y823370D01*
X425031Y822486D01*
X427320Y822184D01*
X429609Y822486D01*
X431743Y823370D01*
X433575Y824775D01*
X434981Y826607D01*
X435864Y828741D01*
X436166Y831030D01*
X435864Y833319D01*
X434981Y835453D01*
X433575Y837285D01*
X431743Y838690D01*
X429609Y839574D01*
X427320Y839876D01*
D02*
G37*
G36*
X590550Y825818D02*
X588495Y825547D01*
X586581Y824754D01*
X584937Y823493D01*
X583676Y821849D01*
X582883Y819934D01*
X582612Y817880D01*
X582883Y815826D01*
X583676Y813911D01*
X584937Y812267D01*
X586581Y811006D01*
X588495Y810213D01*
X590550Y809942D01*
X592604Y810213D01*
X594519Y811006D01*
X596163Y812267D01*
X597424Y813911D01*
X598217Y815826D01*
X598488Y817880D01*
X598217Y819934D01*
X597424Y821849D01*
X596163Y823493D01*
X594519Y824754D01*
X592604Y825547D01*
X590550Y825818D01*
D02*
G37*
G36*
X635000Y824548D02*
X632946Y824277D01*
X631031Y823484D01*
X629387Y822223D01*
X628126Y820579D01*
X627333Y818664D01*
X627062Y816610D01*
X627333Y814556D01*
X628126Y812641D01*
X629387Y810997D01*
X631031Y809736D01*
X632946Y808943D01*
X635000Y808672D01*
X637054Y808943D01*
X638969Y809736D01*
X640613Y810997D01*
X641874Y812641D01*
X642667Y814556D01*
X642938Y816610D01*
X642667Y818664D01*
X641874Y820579D01*
X640613Y822223D01*
X638969Y823484D01*
X637054Y824277D01*
X635000Y824548D01*
D02*
G37*
G36*
X739140Y819358D02*
X736785Y819048D01*
X734591Y818139D01*
X732707Y816693D01*
X731261Y814809D01*
X730352Y812615D01*
X730042Y810260D01*
X730352Y807905D01*
X731261Y805711D01*
X732707Y803827D01*
X734591Y802381D01*
X736785Y801472D01*
X739140Y801162D01*
X741495Y801472D01*
X743689Y802381D01*
X745573Y803827D01*
X747019Y805711D01*
X747928Y807905D01*
X748238Y810260D01*
X747928Y812615D01*
X747019Y814809D01*
X745573Y816693D01*
X743689Y818139D01*
X741495Y819048D01*
X739140Y819358D01*
D02*
G37*
G36*
X659130Y793443D02*
X656906Y793151D01*
X654833Y792292D01*
X653054Y790927D01*
X651688Y789147D01*
X650829Y787074D01*
X650537Y784850D01*
X650829Y782626D01*
X651688Y780553D01*
X653054Y778773D01*
X654833Y777408D01*
X656906Y776549D01*
X659130Y776257D01*
X661354Y776549D01*
X663427Y777408D01*
X665207Y778773D01*
X666572Y780553D01*
X667431Y782626D01*
X667723Y784850D01*
X667431Y787074D01*
X666572Y789147D01*
X665207Y790927D01*
X663427Y792292D01*
X661354Y793151D01*
X659130Y793443D01*
D02*
G37*
G36*
X589130D02*
X586906Y793151D01*
X584833Y792292D01*
X583054Y790927D01*
X581688Y789147D01*
X580829Y787074D01*
X580537Y784850D01*
X580829Y782626D01*
X581688Y780553D01*
X583054Y778773D01*
X584833Y777408D01*
X586906Y776549D01*
X589130Y776257D01*
X591354Y776549D01*
X593427Y777408D01*
X595206Y778773D01*
X596572Y780553D01*
X597431Y782626D01*
X597723Y784850D01*
X597431Y787074D01*
X596572Y789147D01*
X595206Y790927D01*
X593427Y792292D01*
X591354Y793151D01*
X589130Y793443D01*
D02*
G37*
G36*
X739140Y793958D02*
X736785Y793648D01*
X734591Y792739D01*
X732707Y791293D01*
X731261Y789409D01*
X730352Y787215D01*
X730042Y784860D01*
X730352Y782505D01*
X731261Y780311D01*
X732707Y778427D01*
X734591Y776981D01*
X736785Y776072D01*
X739140Y775762D01*
X741495Y776072D01*
X743689Y776981D01*
X745573Y778427D01*
X747019Y780311D01*
X747928Y782505D01*
X748238Y784860D01*
X747928Y787215D01*
X747019Y789409D01*
X745573Y791293D01*
X743689Y792739D01*
X741495Y793648D01*
X739140Y793958D01*
D02*
G37*
G36*
X848360Y779988D02*
X846005Y779678D01*
X843811Y778769D01*
X841927Y777323D01*
X840481Y775439D01*
X839572Y773245D01*
X839262Y770890D01*
X839572Y768535D01*
X840481Y766341D01*
X841927Y764457D01*
X843811Y763011D01*
X846005Y762102D01*
X848360Y761792D01*
X850715Y762102D01*
X852909Y763011D01*
X854793Y764457D01*
X856239Y766341D01*
X857148Y768535D01*
X857458Y770890D01*
X857148Y773245D01*
X856239Y775439D01*
X854793Y777323D01*
X852909Y778769D01*
X850715Y779678D01*
X848360Y779988D01*
D02*
G37*
G36*
X775970D02*
X773615Y779678D01*
X771421Y778769D01*
X769537Y777323D01*
X768091Y775439D01*
X767182Y773245D01*
X766872Y770890D01*
X767182Y768535D01*
X768091Y766341D01*
X769537Y764457D01*
X771421Y763011D01*
X773615Y762102D01*
X775970Y761792D01*
X778325Y762102D01*
X780519Y763011D01*
X782403Y764457D01*
X783849Y766341D01*
X784758Y768535D01*
X785068Y770890D01*
X784758Y773245D01*
X783849Y775439D01*
X782403Y777323D01*
X780519Y778769D01*
X778325Y779678D01*
X775970Y779988D01*
D02*
G37*
G36*
X328930Y773743D02*
X326877Y773473D01*
X324964Y772680D01*
X323321Y771419D01*
X322060Y769776D01*
X321268Y767863D01*
X320997Y765810D01*
X321268Y763757D01*
X322060Y761844D01*
X323321Y760201D01*
X324964Y758940D01*
X326877Y758148D01*
X328930Y757877D01*
X330983Y758148D01*
X332896Y758940D01*
X334539Y760201D01*
X335800Y761844D01*
X336592Y763757D01*
X336863Y765810D01*
X336592Y767863D01*
X335800Y769776D01*
X334539Y771419D01*
X332896Y772680D01*
X330983Y773473D01*
X328930Y773743D01*
D02*
G37*
G36*
X303530D02*
X301477Y773473D01*
X299564Y772680D01*
X297921Y771419D01*
X296660Y769776D01*
X295868Y767863D01*
X295597Y765810D01*
X295868Y763757D01*
X296660Y761844D01*
X297921Y760201D01*
X299564Y758940D01*
X301477Y758148D01*
X303530Y757877D01*
X305583Y758148D01*
X307496Y758940D01*
X309139Y760201D01*
X310400Y761844D01*
X311192Y763757D01*
X311463Y765810D01*
X311192Y767863D01*
X310400Y769776D01*
X309139Y771419D01*
X307496Y772680D01*
X305583Y773473D01*
X303530Y773743D01*
D02*
G37*
G36*
X278130D02*
X276077Y773473D01*
X274164Y772680D01*
X272521Y771419D01*
X271260Y769776D01*
X270467Y767863D01*
X270197Y765810D01*
X270467Y763757D01*
X271260Y761844D01*
X272521Y760201D01*
X274164Y758940D01*
X276077Y758148D01*
X278130Y757877D01*
X280183Y758148D01*
X282096Y758940D01*
X283739Y760201D01*
X285000Y761844D01*
X285793Y763757D01*
X286063Y765810D01*
X285793Y767863D01*
X285000Y769776D01*
X283739Y771419D01*
X282096Y772680D01*
X280183Y773473D01*
X278130Y773743D01*
D02*
G37*
G36*
X414080Y769750D02*
X396040D01*
Y751710D01*
X414080D01*
Y769750D01*
D02*
G37*
G36*
X480060Y769828D02*
X477705Y769518D01*
X475511Y768609D01*
X473627Y767163D01*
X472181Y765279D01*
X471272Y763085D01*
X470962Y760730D01*
X471272Y758375D01*
X472181Y756181D01*
X473627Y754297D01*
X475511Y752851D01*
X477705Y751942D01*
X480060Y751632D01*
X482415Y751942D01*
X484609Y752851D01*
X486493Y754297D01*
X487939Y756181D01*
X488848Y758375D01*
X489158Y760730D01*
X488848Y763085D01*
X487939Y765279D01*
X486493Y767163D01*
X484609Y768609D01*
X482415Y769518D01*
X480060Y769828D01*
D02*
G37*
G36*
X739140Y768558D02*
X736785Y768248D01*
X734591Y767339D01*
X732707Y765893D01*
X731261Y764009D01*
X730352Y761815D01*
X730042Y759460D01*
X730352Y757105D01*
X731261Y754911D01*
X732707Y753027D01*
X734591Y751581D01*
X736785Y750672D01*
X739140Y750362D01*
X741495Y750672D01*
X743689Y751581D01*
X745573Y753027D01*
X747019Y754911D01*
X747928Y757105D01*
X748238Y759460D01*
X747928Y761815D01*
X747019Y764009D01*
X745573Y765893D01*
X743689Y767339D01*
X741495Y768248D01*
X739140Y768558D01*
D02*
G37*
G36*
X812800Y758751D02*
X810354Y758429D01*
X808075Y757485D01*
X806117Y755983D01*
X804615Y754025D01*
X803671Y751746D01*
X803349Y749300D01*
X803671Y746854D01*
X804615Y744575D01*
X806117Y742617D01*
X808075Y741115D01*
X810354Y740171D01*
X812800Y739849D01*
X815246Y740171D01*
X817525Y741115D01*
X819483Y742617D01*
X820985Y744575D01*
X821929Y746854D01*
X822251Y749300D01*
X821929Y751746D01*
X820985Y754025D01*
X819483Y755983D01*
X817525Y757485D01*
X815246Y758429D01*
X812800Y758751D01*
D02*
G37*
G36*
X697230Y753428D02*
X695175Y753157D01*
X693261Y752364D01*
X691617Y751103D01*
X690356Y749459D01*
X689563Y747544D01*
X689292Y745490D01*
X689563Y743436D01*
X690356Y741521D01*
X691617Y739877D01*
X693261Y738616D01*
X695175Y737823D01*
X697230Y737552D01*
X699285Y737823D01*
X701199Y738616D01*
X702843Y739877D01*
X704104Y741521D01*
X704897Y743436D01*
X705168Y745490D01*
X704897Y747544D01*
X704104Y749459D01*
X702843Y751103D01*
X701199Y752364D01*
X699285Y753157D01*
X697230Y753428D01*
D02*
G37*
G36*
X848360Y754588D02*
X846005Y754278D01*
X843811Y753369D01*
X841927Y751923D01*
X840481Y750039D01*
X839572Y747845D01*
X839262Y745490D01*
X839572Y743135D01*
X840481Y740941D01*
X841927Y739057D01*
X843811Y737611D01*
X846005Y736702D01*
X848360Y736392D01*
X850715Y736702D01*
X852909Y737611D01*
X854793Y739057D01*
X856239Y740941D01*
X857148Y743135D01*
X857458Y745490D01*
X857148Y747845D01*
X856239Y750039D01*
X854793Y751923D01*
X852909Y753369D01*
X850715Y754278D01*
X848360Y754588D01*
D02*
G37*
G36*
X775970D02*
X773615Y754278D01*
X771421Y753369D01*
X769537Y751923D01*
X768091Y750039D01*
X767182Y747845D01*
X766872Y745490D01*
X767182Y743135D01*
X768091Y740941D01*
X769537Y739057D01*
X771421Y737611D01*
X773615Y736702D01*
X775970Y736392D01*
X778325Y736702D01*
X780519Y737611D01*
X782403Y739057D01*
X783849Y740941D01*
X784758Y743135D01*
X785068Y745490D01*
X784758Y747845D01*
X783849Y750039D01*
X782403Y751923D01*
X780519Y753369D01*
X778325Y754278D01*
X775970Y754588D01*
D02*
G37*
G36*
X739140Y743158D02*
X736785Y742848D01*
X734591Y741939D01*
X732707Y740493D01*
X731261Y738609D01*
X730352Y736415D01*
X730042Y734060D01*
X730352Y731705D01*
X731261Y729511D01*
X732707Y727627D01*
X734591Y726181D01*
X736785Y725272D01*
X739140Y724962D01*
X741495Y725272D01*
X743689Y726181D01*
X745573Y727627D01*
X747019Y729511D01*
X747928Y731705D01*
X748238Y734060D01*
X747928Y736415D01*
X747019Y738609D01*
X745573Y740493D01*
X743689Y741939D01*
X741495Y742848D01*
X739140Y743158D01*
D02*
G37*
G36*
X848360Y729188D02*
X846005Y728878D01*
X843811Y727969D01*
X841927Y726523D01*
X840481Y724639D01*
X839572Y722445D01*
X839262Y720090D01*
X839572Y717735D01*
X840481Y715541D01*
X841927Y713657D01*
X843811Y712211D01*
X846005Y711302D01*
X848360Y710992D01*
X850715Y711302D01*
X852909Y712211D01*
X854793Y713657D01*
X856239Y715541D01*
X857148Y717735D01*
X857458Y720090D01*
X857148Y722445D01*
X856239Y724639D01*
X854793Y726523D01*
X852909Y727969D01*
X850715Y728878D01*
X848360Y729188D01*
D02*
G37*
G36*
X775970D02*
X773615Y728878D01*
X771421Y727969D01*
X769537Y726523D01*
X768091Y724639D01*
X767182Y722445D01*
X766872Y720090D01*
X767182Y717735D01*
X768091Y715541D01*
X769537Y713657D01*
X771421Y712211D01*
X773615Y711302D01*
X775970Y710992D01*
X778325Y711302D01*
X780519Y712211D01*
X782403Y713657D01*
X783849Y715541D01*
X784758Y717735D01*
X785068Y720090D01*
X784758Y722445D01*
X783849Y724639D01*
X782403Y726523D01*
X780519Y727969D01*
X778325Y728878D01*
X775970Y729188D01*
D02*
G37*
G36*
X739140Y717758D02*
X736785Y717448D01*
X734591Y716539D01*
X732707Y715093D01*
X731261Y713209D01*
X730352Y711015D01*
X730042Y708660D01*
X730352Y706305D01*
X731261Y704111D01*
X732707Y702227D01*
X734591Y700781D01*
X736785Y699872D01*
X739140Y699562D01*
X741495Y699872D01*
X743689Y700781D01*
X745573Y702227D01*
X747019Y704111D01*
X747928Y706305D01*
X748238Y708660D01*
X747928Y711015D01*
X747019Y713209D01*
X745573Y715093D01*
X743689Y716539D01*
X741495Y717448D01*
X739140Y717758D01*
D02*
G37*
G36*
X659130Y713443D02*
X656906Y713151D01*
X654833Y712292D01*
X653054Y710927D01*
X651688Y709147D01*
X650829Y707074D01*
X650537Y704850D01*
X650829Y702626D01*
X651688Y700553D01*
X653054Y698773D01*
X654833Y697408D01*
X656906Y696549D01*
X659130Y696257D01*
X661354Y696549D01*
X663427Y697408D01*
X665207Y698773D01*
X666572Y700553D01*
X667431Y702626D01*
X667723Y704850D01*
X667431Y707074D01*
X666572Y709147D01*
X665207Y710927D01*
X663427Y712292D01*
X661354Y713151D01*
X659130Y713443D01*
D02*
G37*
G36*
X589130D02*
X586906Y713151D01*
X584833Y712292D01*
X583054Y710927D01*
X581688Y709147D01*
X580829Y707074D01*
X580537Y704850D01*
X580829Y702626D01*
X581688Y700553D01*
X583054Y698773D01*
X584833Y697408D01*
X586906Y696549D01*
X589130Y696257D01*
X591354Y696549D01*
X593427Y697408D01*
X595206Y698773D01*
X596572Y700553D01*
X597431Y702626D01*
X597723Y704850D01*
X597431Y707074D01*
X596572Y709147D01*
X595206Y710927D01*
X593427Y712292D01*
X591354Y713151D01*
X589130Y713443D01*
D02*
G37*
G36*
X812800Y702871D02*
X810354Y702549D01*
X808075Y701605D01*
X806117Y700103D01*
X804615Y698145D01*
X803671Y695866D01*
X803349Y693420D01*
X803671Y690974D01*
X804615Y688695D01*
X806117Y686737D01*
X808075Y685235D01*
X810354Y684291D01*
X812800Y683969D01*
X815246Y684291D01*
X817525Y685235D01*
X819483Y686737D01*
X820985Y688695D01*
X821929Y690974D01*
X822251Y693420D01*
X821929Y695866D01*
X820985Y698145D01*
X819483Y700103D01*
X817525Y701605D01*
X815246Y702549D01*
X812800Y702871D01*
D02*
G37*
G36*
X748160Y692280D02*
X730120D01*
Y674240D01*
X748160D01*
Y692280D01*
D02*
G37*
G36*
X501780Y689740D02*
X483740D01*
Y671700D01*
X501780D01*
Y689740D01*
D02*
G37*
G36*
X518160Y689818D02*
X515805Y689508D01*
X513611Y688599D01*
X511727Y687153D01*
X510281Y685269D01*
X509372Y683075D01*
X509062Y680720D01*
X509372Y678365D01*
X510281Y676171D01*
X511727Y674287D01*
X513611Y672841D01*
X515805Y671932D01*
X518160Y671622D01*
X520515Y671932D01*
X522709Y672841D01*
X524593Y674287D01*
X526039Y676171D01*
X526948Y678365D01*
X527258Y680720D01*
X526948Y683075D01*
X526039Y685269D01*
X524593Y687153D01*
X522709Y688599D01*
X520515Y689508D01*
X518160Y689818D01*
D02*
G37*
G36*
X406760Y692510D02*
X385720D01*
Y671470D01*
X406760D01*
Y692510D01*
D02*
G37*
G36*
X293730D02*
X272690D01*
Y671470D01*
X293730D01*
Y692510D01*
D02*
G37*
G36*
X447040Y692601D02*
X444294Y692239D01*
X441735Y691179D01*
X439537Y689493D01*
X437851Y687295D01*
X436791Y684736D01*
X436429Y681990D01*
X436791Y679244D01*
X437851Y676685D01*
X439537Y674487D01*
X441735Y672801D01*
X444294Y671741D01*
X447040Y671379D01*
X449786Y671741D01*
X452345Y672801D01*
X454543Y674487D01*
X456229Y676685D01*
X457289Y679244D01*
X457651Y681990D01*
X457289Y684736D01*
X456229Y687295D01*
X454543Y689493D01*
X452345Y691179D01*
X449786Y692239D01*
X447040Y692601D01*
D02*
G37*
G36*
X334010D02*
X331264Y692239D01*
X328705Y691179D01*
X326507Y689493D01*
X324821Y687295D01*
X323761Y684736D01*
X323399Y681990D01*
X323761Y679244D01*
X324821Y676685D01*
X326507Y674487D01*
X328705Y672801D01*
X331264Y671741D01*
X334010Y671379D01*
X336756Y671741D01*
X339315Y672801D01*
X341513Y674487D01*
X343199Y676685D01*
X344259Y679244D01*
X344621Y681990D01*
X344259Y684736D01*
X343199Y687295D01*
X341513Y689493D01*
X339315Y691179D01*
X336756Y692239D01*
X334010Y692601D01*
D02*
G37*
%LPD*%
D15*
X414020Y1184910D02*
X486410D01*
X364490Y1234440D02*
X414020Y1184910D01*
X502320Y1180500D02*
Y1256030D01*
X452120Y1130300D02*
X502320Y1180500D01*
X452120Y1032510D02*
Y1130300D01*
X558800Y1228090D02*
Y1238250D01*
X483870Y1153160D02*
X558800Y1228090D01*
X483870Y1146810D02*
Y1153160D01*
X870200Y970530D02*
Y1111000D01*
X863600Y963930D02*
X870200Y970530D01*
X861060Y1120140D02*
X870200Y1111000D01*
X845820Y963930D02*
X863600D01*
X858520Y1207770D02*
X859790D01*
X817245Y1249045D02*
X858520Y1207770D01*
X655955Y1249045D02*
X817245D01*
X584888Y1162050D02*
X591238Y1155700D01*
X654510D01*
X558800Y1162050D02*
X584888D01*
X825500Y935990D02*
X853440Y908050D01*
X864870Y896620D01*
Y711200D02*
Y896620D01*
X848360Y694690D02*
X864870Y711200D01*
X673682Y970280D02*
X833250D01*
X673552Y970410D02*
X673682Y970280D01*
X665028Y970410D02*
X673552D01*
X664898Y970280D02*
X665028Y970410D01*
X585470Y970280D02*
X664898D01*
X833250D02*
X839600Y963930D01*
X585470Y970280D02*
Y985520D01*
X839600Y963930D02*
X845820D01*
X788670Y953770D02*
X806450Y935990D01*
X825500D01*
X655320Y1249680D02*
X655955Y1249045D01*
X647700Y1249680D02*
X655320D01*
X628780Y1230760D02*
X647700Y1249680D01*
X796290Y674370D02*
X828040D01*
X775970Y694690D02*
X796290Y674370D01*
X828040D02*
X848360Y694690D01*
X566550Y1004440D02*
X585470Y985520D01*
X411610Y1004440D02*
X566550D01*
X621030Y934720D02*
X669290D01*
X585470Y970280D02*
X621030Y934720D01*
X704850Y895350D02*
Y918210D01*
Y895350D02*
X739140Y861060D01*
X845820Y1120140D02*
X861060D01*
X327660Y953770D02*
X372110Y909320D01*
X314960Y953770D02*
X327660D01*
X372110Y909320D02*
X430530D01*
X462280Y941070D02*
Y984250D01*
X430530Y909320D02*
X462280Y941070D01*
X482600Y963930D02*
X560070D01*
X462280Y984250D02*
X482600Y963930D01*
X402590Y1013460D02*
X411610Y1004440D01*
X669290Y934720D02*
X688340D01*
X704850Y918210D01*
X673230Y964060D02*
X778380D01*
X669290Y960120D02*
X673230Y964060D01*
X778380D02*
X788670Y953770D01*
X566290Y1230760D02*
X628780D01*
X558800Y1238250D02*
X566290Y1230760D01*
D26*
X704850Y918210D02*
D03*
X853440Y908050D02*
D03*
D35*
X502320Y1256030D02*
D03*
D43*
X845820Y963930D02*
D03*
Y1120140D02*
D03*
X775970Y694690D02*
D03*
X848360D02*
D03*
X558800Y1162050D02*
D03*
D44*
X739140Y861060D02*
D03*
X788670Y953770D02*
D03*
X560070Y963930D02*
D03*
X669290Y960120D02*
D03*
Y934720D02*
D03*
X558800Y1238250D02*
D03*
D57*
X483870Y1146810D02*
D03*
X859790Y1207770D02*
D03*
X654510Y1155700D02*
D03*
X364490Y1234440D02*
D03*
X655320Y1249680D02*
D03*
X585470Y970280D02*
D03*
X452120Y1032510D02*
D03*
X314960Y953770D02*
D03*
X462280Y984250D02*
D03*
X402590Y1013460D02*
D03*
X486410Y1184910D02*
D03*
M02*
