G04*
G04 #@! TF.GenerationSoftware,Altium Limited,Altium Designer,20.0.2 (26)*
G04*
G04 Layer_Color=32896*
%FSLAX44Y44*%
%MOMM*%
G71*
G01*
G75*
%ADD11C,0.2000*%
%ADD12C,0.1000*%
%ADD13C,0.2500*%
%ADD14C,0.1270*%
%ADD15C,0.2540*%
%ADD114C,0.3000*%
%ADD115C,0.4000*%
G36*
X525622Y724787D02*
X525994Y724713D01*
X526336Y724609D01*
X526618Y724490D01*
X526841Y724356D01*
X526930Y724297D01*
X527004Y724252D01*
X527079Y724208D01*
X527123Y724178D01*
X527138Y724163D01*
X527153Y724148D01*
X527421Y723881D01*
X527629Y723584D01*
X527807Y723272D01*
X527926Y722974D01*
X528030Y722707D01*
X528059Y722588D01*
X528089Y722484D01*
X528104Y722410D01*
X528119Y722350D01*
X528134Y722306D01*
Y722291D01*
X526930Y722083D01*
X526871Y722395D01*
X526782Y722662D01*
X526692Y722885D01*
X526588Y723064D01*
X526499Y723212D01*
X526425Y723316D01*
X526366Y723376D01*
X526351Y723391D01*
X526157Y723539D01*
X525964Y723643D01*
X525771Y723732D01*
X525578Y723777D01*
X525429Y723807D01*
X525296Y723836D01*
X525177D01*
X524924Y723821D01*
X524701Y723762D01*
X524508Y723702D01*
X524345Y723613D01*
X524211Y723539D01*
X524107Y723465D01*
X524048Y723405D01*
X524033Y723391D01*
X523884Y723227D01*
X523780Y723034D01*
X523691Y722856D01*
X523646Y722692D01*
X523617Y722529D01*
X523587Y722410D01*
Y722336D01*
Y722321D01*
Y722306D01*
X523617Y722009D01*
X523691Y721756D01*
X523780Y721548D01*
X523899Y721385D01*
X524018Y721251D01*
X524107Y721147D01*
X524181Y721087D01*
X524211Y721072D01*
X524449Y720939D01*
X524686Y720850D01*
X524909Y720775D01*
X525117Y720731D01*
X525311Y720701D01*
X525444Y720686D01*
X525637D01*
X525697Y720701D01*
X525771D01*
X525905Y719646D01*
X525727Y719691D01*
X525563Y719720D01*
X525415Y719735D01*
X525296Y719750D01*
X525192Y719765D01*
X525058D01*
X524761Y719735D01*
X524508Y719676D01*
X524270Y719601D01*
X524077Y719497D01*
X523914Y719393D01*
X523795Y719319D01*
X523735Y719260D01*
X523706Y719230D01*
X523527Y719022D01*
X523394Y718799D01*
X523290Y718561D01*
X523230Y718353D01*
X523186Y718160D01*
X523171Y718011D01*
X523156Y717952D01*
Y717907D01*
Y717893D01*
Y717878D01*
X523186Y717566D01*
X523245Y717283D01*
X523334Y717031D01*
X523438Y716823D01*
X523557Y716645D01*
X523646Y716526D01*
X523706Y716451D01*
X523735Y716422D01*
X523958Y716228D01*
X524196Y716080D01*
X524434Y715991D01*
X524672Y715916D01*
X524865Y715872D01*
X525013Y715857D01*
X525073Y715842D01*
X525162D01*
X525415Y715857D01*
X525652Y715916D01*
X525860Y715991D01*
X526024Y716065D01*
X526172Y716154D01*
X526276Y716214D01*
X526336Y716273D01*
X526366Y716288D01*
X526529Y716481D01*
X526678Y716704D01*
X526796Y716956D01*
X526885Y717194D01*
X526960Y717417D01*
X527004Y717596D01*
X527034Y717655D01*
Y717714D01*
X527049Y717744D01*
Y717759D01*
X528253Y717596D01*
X528223Y717373D01*
X528178Y717165D01*
X528045Y716778D01*
X527896Y716436D01*
X527718Y716139D01*
X527643Y716020D01*
X527554Y715916D01*
X527480Y715827D01*
X527421Y715738D01*
X527361Y715679D01*
X527316Y715634D01*
X527302Y715619D01*
X527287Y715604D01*
X527123Y715471D01*
X526945Y715352D01*
X526782Y715248D01*
X526603Y715173D01*
X526247Y715025D01*
X525905Y714936D01*
X525756Y714906D01*
X525608Y714891D01*
X525489Y714876D01*
X525370Y714861D01*
X525281Y714847D01*
X525162D01*
X524909Y714861D01*
X524657Y714891D01*
X524419Y714921D01*
X524196Y714980D01*
X523988Y715055D01*
X523795Y715129D01*
X523617Y715203D01*
X523453Y715292D01*
X523319Y715367D01*
X523186Y715441D01*
X523067Y715515D01*
X522978Y715590D01*
X522903Y715649D01*
X522859Y715679D01*
X522829Y715708D01*
X522814Y715723D01*
X522651Y715901D01*
X522502Y716080D01*
X522383Y716258D01*
X522279Y716436D01*
X522175Y716615D01*
X522101Y716808D01*
X521997Y717150D01*
X521952Y717298D01*
X521923Y717447D01*
X521908Y717566D01*
X521893Y717685D01*
X521878Y717774D01*
Y717833D01*
Y717878D01*
Y717893D01*
X521893Y718234D01*
X521952Y718546D01*
X522027Y718814D01*
X522116Y719037D01*
X522220Y719215D01*
X522294Y719349D01*
X522354Y719438D01*
X522368Y719468D01*
X522562Y719691D01*
X522785Y719869D01*
X523007Y720017D01*
X523215Y720122D01*
X523409Y720211D01*
X523557Y720255D01*
X523617Y720285D01*
X523661D01*
X523691Y720300D01*
X523706D01*
X523468Y720419D01*
X523260Y720567D01*
X523097Y720701D01*
X522948Y720835D01*
X522844Y720954D01*
X522755Y721043D01*
X522710Y721102D01*
X522695Y721132D01*
X522576Y721325D01*
X522502Y721533D01*
X522443Y721726D01*
X522398Y721905D01*
X522368Y722053D01*
X522354Y722172D01*
Y722246D01*
Y722276D01*
X522368Y722529D01*
X522413Y722751D01*
X522472Y722960D01*
X522532Y723153D01*
X522591Y723301D01*
X522651Y723420D01*
X522695Y723494D01*
X522710Y723524D01*
X522859Y723732D01*
X523022Y723925D01*
X523200Y724089D01*
X523364Y724223D01*
X523512Y724327D01*
X523631Y724401D01*
X523721Y724445D01*
X523735Y724460D01*
X523750D01*
X524003Y724579D01*
X524255Y724668D01*
X524508Y724728D01*
X524731Y724772D01*
X524924Y724802D01*
X525073Y724817D01*
X525415D01*
X525622Y724787D01*
D02*
G37*
G36*
X548030Y724802D02*
X548268Y724787D01*
X548713Y724698D01*
X548907Y724653D01*
X549100Y724594D01*
X549263Y724520D01*
X549412Y724460D01*
X549546Y724386D01*
X549664Y724327D01*
X549768Y724252D01*
X549857Y724208D01*
X549917Y724163D01*
X549962Y724119D01*
X549991Y724104D01*
X550006Y724089D01*
X550155Y723940D01*
X550274Y723792D01*
X550496Y723450D01*
X550660Y723108D01*
X550779Y722766D01*
X550868Y722469D01*
X550883Y722336D01*
X550913Y722217D01*
X550927Y722128D01*
X550942Y722053D01*
Y722009D01*
Y721994D01*
X549709Y721860D01*
X549679Y722187D01*
X549620Y722469D01*
X549546Y722707D01*
X549441Y722915D01*
X549352Y723078D01*
X549263Y723197D01*
X549204Y723257D01*
X549189Y723287D01*
X548981Y723465D01*
X548758Y723598D01*
X548520Y723688D01*
X548297Y723762D01*
X548104Y723792D01*
X547956Y723807D01*
X547896Y723821D01*
X547807D01*
X547510Y723807D01*
X547242Y723747D01*
X547020Y723673D01*
X546826Y723584D01*
X546678Y723480D01*
X546559Y723405D01*
X546499Y723346D01*
X546470Y723331D01*
X546291Y723138D01*
X546172Y722930D01*
X546083Y722737D01*
X546009Y722543D01*
X545979Y722380D01*
X545965Y722246D01*
X545950Y722157D01*
Y722142D01*
Y722128D01*
X545979Y721875D01*
X546039Y721607D01*
X546128Y721370D01*
X546232Y721147D01*
X546336Y720954D01*
X546425Y720805D01*
X546455Y720746D01*
X546485Y720701D01*
X546514Y720686D01*
Y720671D01*
X546633Y720523D01*
X546767Y720359D01*
X546916Y720196D01*
X547094Y720032D01*
X547450Y719691D01*
X547807Y719349D01*
X548134Y719066D01*
X548283Y718933D01*
X548416Y718829D01*
X548520Y718725D01*
X548595Y718665D01*
X548654Y718621D01*
X548669Y718606D01*
X549025Y718294D01*
X549352Y718011D01*
X549620Y717759D01*
X549843Y717551D01*
X550021Y717373D01*
X550140Y717239D01*
X550214Y717150D01*
X550244Y717135D01*
Y717120D01*
X550437Y716882D01*
X550586Y716659D01*
X550734Y716436D01*
X550838Y716243D01*
X550927Y716065D01*
X550987Y715946D01*
X551017Y715857D01*
X551031Y715842D01*
Y715827D01*
X551076Y715679D01*
X551121Y715530D01*
X551135Y715396D01*
X551150Y715277D01*
X551165Y715173D01*
Y715084D01*
Y715025D01*
Y715010D01*
X544701D01*
Y716154D01*
X549501D01*
X549338Y716392D01*
X549174Y716585D01*
X549100Y716674D01*
X549040Y716734D01*
X549011Y716778D01*
X548996Y716793D01*
X548921Y716867D01*
X548847Y716942D01*
X548654Y717120D01*
X548416Y717328D01*
X548193Y717536D01*
X547971Y717729D01*
X547792Y717878D01*
X547718Y717937D01*
X547658Y717982D01*
X547629Y718011D01*
X547614Y718026D01*
X547376Y718234D01*
X547168Y718413D01*
X546960Y718591D01*
X546782Y718755D01*
X546618Y718918D01*
X546470Y719052D01*
X546321Y719185D01*
X546202Y719304D01*
X546098Y719408D01*
X546009Y719497D01*
X545875Y719631D01*
X545801Y719720D01*
X545771Y719750D01*
X545578Y719988D01*
X545400Y720196D01*
X545266Y720404D01*
X545162Y720582D01*
X545073Y720731D01*
X545014Y720835D01*
X544984Y720909D01*
X544969Y720939D01*
X544880Y721147D01*
X544820Y721355D01*
X544776Y721548D01*
X544746Y721726D01*
X544731Y721875D01*
X544716Y721994D01*
Y722068D01*
Y722098D01*
X544731Y722306D01*
X544746Y722514D01*
X544850Y722885D01*
X544984Y723212D01*
X545132Y723494D01*
X545281Y723717D01*
X545355Y723807D01*
X545415Y723896D01*
X545474Y723955D01*
X545519Y724000D01*
X545534Y724015D01*
X545548Y724029D01*
X545712Y724163D01*
X545875Y724297D01*
X546054Y724401D01*
X546247Y724490D01*
X546618Y724624D01*
X546975Y724713D01*
X547138Y724758D01*
X547287Y724772D01*
X547421Y724787D01*
X547539Y724802D01*
X547644Y724817D01*
X547777D01*
X548030Y724802D01*
D02*
G37*
G36*
X532874D02*
X533111Y724787D01*
X533557Y724698D01*
X533750Y724653D01*
X533944Y724594D01*
X534107Y724520D01*
X534256Y724460D01*
X534389Y724386D01*
X534508Y724327D01*
X534612Y724252D01*
X534701Y724208D01*
X534761Y724163D01*
X534805Y724119D01*
X534835Y724104D01*
X534850Y724089D01*
X534999Y723940D01*
X535117Y723792D01*
X535340Y723450D01*
X535504Y723108D01*
X535623Y722766D01*
X535712Y722469D01*
X535727Y722336D01*
X535756Y722217D01*
X535771Y722128D01*
X535786Y722053D01*
Y722009D01*
Y721994D01*
X534553Y721860D01*
X534523Y722187D01*
X534464Y722469D01*
X534389Y722707D01*
X534285Y722915D01*
X534196Y723078D01*
X534107Y723197D01*
X534048Y723257D01*
X534033Y723287D01*
X533825Y723465D01*
X533602Y723598D01*
X533364Y723688D01*
X533141Y723762D01*
X532948Y723792D01*
X532799Y723807D01*
X532740Y723821D01*
X532651D01*
X532354Y723807D01*
X532086Y723747D01*
X531863Y723673D01*
X531670Y723584D01*
X531521Y723480D01*
X531403Y723405D01*
X531343Y723346D01*
X531314Y723331D01*
X531135Y723138D01*
X531016Y722930D01*
X530927Y722737D01*
X530853Y722543D01*
X530823Y722380D01*
X530808Y722246D01*
X530793Y722157D01*
Y722142D01*
Y722128D01*
X530823Y721875D01*
X530883Y721607D01*
X530972Y721370D01*
X531076Y721147D01*
X531180Y720954D01*
X531269Y720805D01*
X531299Y720746D01*
X531328Y720701D01*
X531358Y720686D01*
Y720671D01*
X531477Y720523D01*
X531611Y720359D01*
X531759Y720196D01*
X531938Y720032D01*
X532294Y719691D01*
X532651Y719349D01*
X532978Y719066D01*
X533126Y718933D01*
X533260Y718829D01*
X533364Y718725D01*
X533438Y718665D01*
X533498Y718621D01*
X533513Y718606D01*
X533869Y718294D01*
X534196Y718011D01*
X534464Y717759D01*
X534687Y717551D01*
X534865Y717373D01*
X534984Y717239D01*
X535058Y717150D01*
X535088Y717135D01*
Y717120D01*
X535281Y716882D01*
X535429Y716659D01*
X535578Y716436D01*
X535682Y716243D01*
X535771Y716065D01*
X535831Y715946D01*
X535860Y715857D01*
X535875Y715842D01*
Y715827D01*
X535920Y715679D01*
X535964Y715530D01*
X535979Y715396D01*
X535994Y715277D01*
X536009Y715173D01*
Y715084D01*
Y715025D01*
Y715010D01*
X529545D01*
Y716154D01*
X534345D01*
X534181Y716392D01*
X534018Y716585D01*
X533944Y716674D01*
X533884Y716734D01*
X533854Y716778D01*
X533839Y716793D01*
X533765Y716867D01*
X533691Y716942D01*
X533498Y717120D01*
X533260Y717328D01*
X533037Y717536D01*
X532814Y717729D01*
X532636Y717878D01*
X532562Y717937D01*
X532502Y717982D01*
X532472Y718011D01*
X532458Y718026D01*
X532220Y718234D01*
X532012Y718413D01*
X531804Y718591D01*
X531626Y718755D01*
X531462Y718918D01*
X531314Y719052D01*
X531165Y719185D01*
X531046Y719304D01*
X530942Y719408D01*
X530853Y719497D01*
X530719Y719631D01*
X530645Y719720D01*
X530615Y719750D01*
X530422Y719988D01*
X530244Y720196D01*
X530110Y720404D01*
X530006Y720582D01*
X529917Y720731D01*
X529857Y720835D01*
X529828Y720909D01*
X529813Y720939D01*
X529724Y721147D01*
X529664Y721355D01*
X529620Y721548D01*
X529590Y721726D01*
X529575Y721875D01*
X529560Y721994D01*
Y722068D01*
Y722098D01*
X529575Y722306D01*
X529590Y722514D01*
X529694Y722885D01*
X529828Y723212D01*
X529976Y723494D01*
X530125Y723717D01*
X530199Y723807D01*
X530258Y723896D01*
X530318Y723955D01*
X530363Y724000D01*
X530377Y724015D01*
X530392Y724029D01*
X530556Y724163D01*
X530719Y724297D01*
X530897Y724401D01*
X531091Y724490D01*
X531462Y724624D01*
X531819Y724713D01*
X531982Y724758D01*
X532131Y724772D01*
X532265Y724787D01*
X532383Y724802D01*
X532487Y724817D01*
X532621D01*
X532874Y724802D01*
D02*
G37*
G36*
X513304Y724579D02*
X513468Y724342D01*
X513646Y724119D01*
X513825Y723911D01*
X513988Y723747D01*
X514122Y723613D01*
X514211Y723524D01*
X514226Y723509D01*
X514240Y723494D01*
X514523Y723257D01*
X514820Y723034D01*
X515117Y722841D01*
X515385Y722677D01*
X515622Y722543D01*
X515726Y722499D01*
X515816Y722454D01*
X515875Y722410D01*
X515934Y722380D01*
X515964Y722365D01*
X515979D01*
Y721191D01*
X515771Y721281D01*
X515548Y721385D01*
X515340Y721474D01*
X515147Y721578D01*
X514983Y721667D01*
X514850Y721741D01*
X514761Y721801D01*
X514746Y721815D01*
X514731D01*
X514478Y721964D01*
X514255Y722128D01*
X514062Y722261D01*
X513899Y722395D01*
X513765Y722499D01*
X513661Y722573D01*
X513602Y722633D01*
X513587Y722647D01*
Y715010D01*
X512383D01*
Y724817D01*
X513171D01*
X513304Y724579D01*
D02*
G37*
G36*
X505726D02*
X505890Y724342D01*
X506068Y724119D01*
X506246Y723911D01*
X506410Y723747D01*
X506544Y723613D01*
X506633Y723524D01*
X506648Y723509D01*
X506662Y723494D01*
X506945Y723257D01*
X507242Y723034D01*
X507539Y722841D01*
X507807Y722677D01*
X508044Y722543D01*
X508148Y722499D01*
X508237Y722454D01*
X508297Y722410D01*
X508356Y722380D01*
X508386Y722365D01*
X508401D01*
Y721191D01*
X508193Y721281D01*
X507970Y721385D01*
X507762Y721474D01*
X507569Y721578D01*
X507405Y721667D01*
X507272Y721741D01*
X507183Y721801D01*
X507168Y721815D01*
X507153D01*
X506900Y721964D01*
X506677Y722128D01*
X506484Y722261D01*
X506321Y722395D01*
X506187Y722499D01*
X506083Y722573D01*
X506023Y722633D01*
X506009Y722647D01*
Y715010D01*
X504805D01*
Y724817D01*
X505593D01*
X505726Y724579D01*
D02*
G37*
G36*
X494359D02*
X494523Y724342D01*
X494701Y724119D01*
X494879Y723911D01*
X495043Y723747D01*
X495176Y723613D01*
X495266Y723524D01*
X495280Y723509D01*
X495295Y723494D01*
X495578Y723257D01*
X495875Y723034D01*
X496172Y722841D01*
X496439Y722677D01*
X496677Y722543D01*
X496781Y722499D01*
X496870Y722454D01*
X496930Y722410D01*
X496989Y722380D01*
X497019Y722365D01*
X497034D01*
Y721191D01*
X496826Y721281D01*
X496603Y721385D01*
X496395Y721474D01*
X496202Y721578D01*
X496038Y721667D01*
X495905Y721741D01*
X495815Y721801D01*
X495801Y721815D01*
X495786D01*
X495533Y721964D01*
X495310Y722128D01*
X495117Y722261D01*
X494953Y722395D01*
X494820Y722499D01*
X494716Y722573D01*
X494656Y722633D01*
X494641Y722647D01*
Y715010D01*
X493438D01*
Y724817D01*
X494226D01*
X494359Y724579D01*
D02*
G37*
G36*
X487212Y724802D02*
X487480Y724772D01*
X487732Y724713D01*
X487970Y724639D01*
X488193Y724549D01*
X488386Y724460D01*
X488579Y724356D01*
X488742Y724252D01*
X488891Y724148D01*
X489025Y724044D01*
X489129Y723955D01*
X489233Y723866D01*
X489307Y723792D01*
X489352Y723732D01*
X489381Y723702D01*
X489396Y723688D01*
X489575Y723435D01*
X489738Y723138D01*
X489872Y722841D01*
X489991Y722499D01*
X490095Y722172D01*
X490184Y721830D01*
X490258Y721488D01*
X490303Y721147D01*
X490347Y720835D01*
X490377Y720537D01*
X490407Y720270D01*
X490421Y720032D01*
X490436Y719839D01*
Y719691D01*
Y719646D01*
Y719601D01*
Y719587D01*
Y719572D01*
X490421Y719111D01*
X490392Y718695D01*
X490347Y718294D01*
X490288Y717937D01*
X490214Y717610D01*
X490139Y717313D01*
X490050Y717046D01*
X489961Y716808D01*
X489887Y716600D01*
X489798Y716422D01*
X489723Y716273D01*
X489649Y716154D01*
X489589Y716065D01*
X489545Y716006D01*
X489515Y715961D01*
X489500Y715946D01*
X489322Y715753D01*
X489129Y715590D01*
X488921Y715441D01*
X488713Y715307D01*
X488505Y715203D01*
X488312Y715114D01*
X488103Y715040D01*
X487910Y714980D01*
X487732Y714936D01*
X487569Y714906D01*
X487420Y714876D01*
X487301Y714861D01*
X487197D01*
X487108Y714847D01*
X487049D01*
X486736Y714861D01*
X486439Y714906D01*
X486172Y714980D01*
X485934Y715055D01*
X485756Y715129D01*
X485607Y715203D01*
X485518Y715248D01*
X485488Y715263D01*
X485236Y715441D01*
X485028Y715634D01*
X484835Y715827D01*
X484671Y716020D01*
X484552Y716199D01*
X484463Y716332D01*
X484433Y716392D01*
X484404Y716436D01*
X484389Y716451D01*
Y716466D01*
X484255Y716763D01*
X484151Y717060D01*
X484092Y717358D01*
X484032Y717610D01*
X484002Y717848D01*
Y717937D01*
X483988Y718026D01*
Y718086D01*
Y718130D01*
Y718160D01*
Y718175D01*
X484002Y718428D01*
X484017Y718680D01*
X484062Y718903D01*
X484121Y719126D01*
X484181Y719319D01*
X484255Y719512D01*
X484329Y719676D01*
X484404Y719839D01*
X484493Y719973D01*
X484567Y720092D01*
X484641Y720196D01*
X484701Y720285D01*
X484760Y720359D01*
X484805Y720404D01*
X484820Y720434D01*
X484835Y720448D01*
X484998Y720612D01*
X485162Y720746D01*
X485340Y720864D01*
X485518Y720968D01*
X485681Y721058D01*
X485860Y721117D01*
X486172Y721236D01*
X486454Y721295D01*
X486573Y721310D01*
X486677Y721325D01*
X486766Y721340D01*
X486885D01*
X487138Y721325D01*
X487375Y721295D01*
X487598Y721236D01*
X487791Y721177D01*
X487955Y721117D01*
X488089Y721058D01*
X488163Y721028D01*
X488193Y721013D01*
X488416Y720879D01*
X488624Y720731D01*
X488802Y720567D01*
X488951Y720404D01*
X489084Y720255D01*
X489173Y720136D01*
X489233Y720062D01*
X489248Y720047D01*
Y720300D01*
X489233Y720552D01*
X489218Y720790D01*
X489203Y721013D01*
X489173Y721206D01*
X489144Y721399D01*
X489114Y721563D01*
X489084Y721711D01*
X489054Y721845D01*
X489025Y721964D01*
X488995Y722068D01*
X488965Y722142D01*
X488951Y722202D01*
X488936Y722261D01*
X488921Y722276D01*
Y722291D01*
X488787Y722573D01*
X488638Y722826D01*
X488490Y723034D01*
X488341Y723197D01*
X488222Y723331D01*
X488118Y723435D01*
X488059Y723494D01*
X488029Y723509D01*
X487851Y723613D01*
X487687Y723702D01*
X487509Y723762D01*
X487346Y723792D01*
X487212Y723821D01*
X487108Y723836D01*
X487004D01*
X486751Y723821D01*
X486514Y723762D01*
X486306Y723673D01*
X486127Y723584D01*
X485994Y723480D01*
X485890Y723405D01*
X485815Y723346D01*
X485800Y723316D01*
X485696Y723182D01*
X485607Y723034D01*
X485459Y722692D01*
X485414Y722543D01*
X485369Y722425D01*
X485340Y722336D01*
Y722321D01*
Y722306D01*
X484151Y722395D01*
X484225Y722796D01*
X484359Y723153D01*
X484493Y723450D01*
X484656Y723702D01*
X484805Y723896D01*
X484924Y724044D01*
X485013Y724133D01*
X485028Y724163D01*
X485043D01*
X485191Y724282D01*
X485340Y724386D01*
X485652Y724535D01*
X485964Y724653D01*
X486261Y724743D01*
X486529Y724787D01*
X486647Y724802D01*
X486736D01*
X486826Y724817D01*
X486930D01*
X487212Y724802D01*
D02*
G37*
G36*
X540630Y724787D02*
X540972Y724728D01*
X541284Y724639D01*
X541536Y724535D01*
X541744Y724416D01*
X541893Y724327D01*
X541953Y724297D01*
X541997Y724267D01*
X542012Y724237D01*
X542027D01*
X542280Y724000D01*
X542487Y723747D01*
X542666Y723480D01*
X542814Y723212D01*
X542933Y722974D01*
X542978Y722870D01*
X543008Y722781D01*
X543037Y722707D01*
X543067Y722647D01*
X543082Y722618D01*
Y722603D01*
X543141Y722395D01*
X543201Y722187D01*
X543275Y721726D01*
X543334Y721266D01*
X543379Y720820D01*
X543394Y720612D01*
X543409Y720419D01*
Y720255D01*
X543424Y720107D01*
Y719988D01*
Y719899D01*
Y719839D01*
Y719824D01*
X543409Y719334D01*
X543379Y718858D01*
X543334Y718442D01*
X543275Y718041D01*
X543201Y717685D01*
X543126Y717358D01*
X543037Y717060D01*
X542948Y716808D01*
X542859Y716570D01*
X542770Y716377D01*
X542696Y716214D01*
X542621Y716080D01*
X542562Y715976D01*
X542517Y715901D01*
X542487Y715857D01*
X542473Y715842D01*
X542309Y715664D01*
X542146Y715515D01*
X541967Y715381D01*
X541774Y715263D01*
X541596Y715173D01*
X541403Y715084D01*
X541046Y714965D01*
X540883Y714936D01*
X540734Y714906D01*
X540600Y714876D01*
X540481Y714861D01*
X540378Y714847D01*
X540244D01*
X539857Y714876D01*
X539516Y714936D01*
X539218Y715025D01*
X538951Y715129D01*
X538758Y715233D01*
X538594Y715322D01*
X538550Y715367D01*
X538505Y715381D01*
X538490Y715411D01*
X538476D01*
X538223Y715649D01*
X538015Y715916D01*
X537837Y716184D01*
X537688Y716451D01*
X537569Y716689D01*
X537525Y716778D01*
X537480Y716867D01*
X537450Y716942D01*
X537435Y717001D01*
X537421Y717031D01*
Y717046D01*
X537361Y717254D01*
X537302Y717462D01*
X537212Y717922D01*
X537153Y718383D01*
X537108Y718829D01*
X537094Y719037D01*
X537079Y719230D01*
Y719393D01*
X537064Y719542D01*
Y719661D01*
Y719750D01*
Y719809D01*
Y719824D01*
X537079Y720344D01*
Y720567D01*
X537094Y720790D01*
X537108Y720998D01*
X537138Y721191D01*
X537153Y721355D01*
X537168Y721518D01*
X537198Y721652D01*
X537212Y721786D01*
X537227Y721890D01*
X537257Y721964D01*
X537272Y722038D01*
Y722083D01*
X537287Y722113D01*
Y722128D01*
X537376Y722439D01*
X537480Y722722D01*
X537584Y722974D01*
X537673Y723182D01*
X537762Y723346D01*
X537837Y723480D01*
X537881Y723554D01*
X537896Y723584D01*
X538045Y723792D01*
X538208Y723970D01*
X538372Y724133D01*
X538520Y724267D01*
X538669Y724356D01*
X538773Y724431D01*
X538847Y724475D01*
X538877Y724490D01*
X539100Y724594D01*
X539337Y724683D01*
X539575Y724743D01*
X539783Y724772D01*
X539962Y724802D01*
X540110Y724817D01*
X540244D01*
X540630Y724787D01*
D02*
G37*
G36*
X521254Y714847D02*
X520303D01*
X517480Y724936D01*
X518431D01*
X521254Y714847D01*
D02*
G37*
G36*
X502309D02*
X501358D01*
X498535Y724936D01*
X499486D01*
X502309Y714847D01*
D02*
G37*
G36*
X514456Y739915D02*
X513253D01*
Y741282D01*
X514456D01*
Y739915D01*
D02*
G37*
G36*
X474322D02*
X473119D01*
Y741282D01*
X474322D01*
Y739915D01*
D02*
G37*
G36*
X430384D02*
X429181D01*
Y741282D01*
X430384D01*
Y739915D01*
D02*
G37*
G36*
X393668Y741312D02*
X393905Y741297D01*
X394351Y741208D01*
X394544Y741163D01*
X394738Y741104D01*
X394901Y741030D01*
X395050Y740970D01*
X395183Y740896D01*
X395302Y740837D01*
X395406Y740762D01*
X395495Y740718D01*
X395555Y740673D01*
X395599Y740629D01*
X395629Y740614D01*
X395644Y740599D01*
X395793Y740450D01*
X395911Y740302D01*
X396134Y739960D01*
X396298Y739618D01*
X396417Y739276D01*
X396506Y738979D01*
X396521Y738846D01*
X396550Y738727D01*
X396565Y738637D01*
X396580Y738563D01*
Y738519D01*
Y738504D01*
X395347Y738370D01*
X395317Y738697D01*
X395257Y738979D01*
X395183Y739217D01*
X395079Y739425D01*
X394990Y739588D01*
X394901Y739707D01*
X394841Y739767D01*
X394827Y739797D01*
X394619Y739975D01*
X394396Y740108D01*
X394158Y740198D01*
X393935Y740272D01*
X393742Y740302D01*
X393593Y740316D01*
X393534Y740331D01*
X393445D01*
X393148Y740316D01*
X392880Y740257D01*
X392657Y740183D01*
X392464Y740094D01*
X392315Y739990D01*
X392197Y739915D01*
X392137Y739856D01*
X392107Y739841D01*
X391929Y739648D01*
X391810Y739440D01*
X391721Y739247D01*
X391647Y739053D01*
X391617Y738890D01*
X391602Y738756D01*
X391587Y738667D01*
Y738652D01*
Y738637D01*
X391617Y738385D01*
X391676Y738117D01*
X391766Y737880D01*
X391870Y737657D01*
X391974Y737464D01*
X392063Y737315D01*
X392093Y737256D01*
X392122Y737211D01*
X392152Y737196D01*
Y737181D01*
X392271Y737033D01*
X392405Y736869D01*
X392553Y736706D01*
X392732Y736542D01*
X393088Y736201D01*
X393445Y735859D01*
X393772Y735576D01*
X393920Y735443D01*
X394054Y735339D01*
X394158Y735235D01*
X394232Y735175D01*
X394292Y735131D01*
X394307Y735116D01*
X394663Y734804D01*
X394990Y734521D01*
X395257Y734269D01*
X395480Y734061D01*
X395659Y733883D01*
X395778Y733749D01*
X395852Y733660D01*
X395882Y733645D01*
Y733630D01*
X396075Y733392D01*
X396223Y733169D01*
X396372Y732946D01*
X396476Y732753D01*
X396565Y732575D01*
X396625Y732456D01*
X396654Y732367D01*
X396669Y732352D01*
Y732337D01*
X396714Y732189D01*
X396758Y732040D01*
X396773Y731906D01*
X396788Y731787D01*
X396803Y731683D01*
Y731594D01*
Y731535D01*
Y731520D01*
X390339D01*
Y732664D01*
X395139D01*
X394975Y732902D01*
X394812Y733095D01*
X394738Y733184D01*
X394678Y733244D01*
X394648Y733288D01*
X394633Y733303D01*
X394559Y733377D01*
X394485Y733452D01*
X394292Y733630D01*
X394054Y733838D01*
X393831Y734046D01*
X393608Y734239D01*
X393430Y734388D01*
X393356Y734447D01*
X393296Y734492D01*
X393266Y734521D01*
X393252Y734536D01*
X393014Y734744D01*
X392806Y734923D01*
X392598Y735101D01*
X392420Y735265D01*
X392256Y735428D01*
X392107Y735562D01*
X391959Y735695D01*
X391840Y735814D01*
X391736Y735918D01*
X391647Y736007D01*
X391513Y736141D01*
X391439Y736230D01*
X391409Y736260D01*
X391216Y736498D01*
X391038Y736706D01*
X390904Y736914D01*
X390800Y737092D01*
X390711Y737241D01*
X390651Y737345D01*
X390621Y737419D01*
X390607Y737449D01*
X390518Y737657D01*
X390458Y737865D01*
X390414Y738058D01*
X390384Y738236D01*
X390369Y738385D01*
X390354Y738504D01*
Y738578D01*
Y738608D01*
X390369Y738816D01*
X390384Y739024D01*
X390488Y739395D01*
X390621Y739722D01*
X390770Y740005D01*
X390919Y740227D01*
X390993Y740316D01*
X391052Y740406D01*
X391112Y740465D01*
X391156Y740510D01*
X391171Y740525D01*
X391186Y740539D01*
X391350Y740673D01*
X391513Y740807D01*
X391691Y740911D01*
X391884Y741000D01*
X392256Y741134D01*
X392613Y741223D01*
X392776Y741267D01*
X392925Y741282D01*
X393058Y741297D01*
X393177Y741312D01*
X393281Y741327D01*
X393415D01*
X393668Y741312D01*
D02*
G37*
G36*
X404411Y741089D02*
X404574Y740852D01*
X404752Y740629D01*
X404931Y740421D01*
X405094Y740257D01*
X405228Y740123D01*
X405317Y740034D01*
X405332Y740019D01*
X405347Y740005D01*
X405629Y739767D01*
X405926Y739544D01*
X406223Y739351D01*
X406491Y739187D01*
X406729Y739053D01*
X406833Y739009D01*
X406922Y738964D01*
X406981Y738920D01*
X407041Y738890D01*
X407070Y738875D01*
X407085D01*
Y737701D01*
X406877Y737791D01*
X406654Y737895D01*
X406446Y737984D01*
X406253Y738088D01*
X406090Y738177D01*
X405956Y738251D01*
X405867Y738311D01*
X405852Y738325D01*
X405837D01*
X405584Y738474D01*
X405362Y738637D01*
X405168Y738771D01*
X405005Y738905D01*
X404871Y739009D01*
X404767Y739083D01*
X404708Y739143D01*
X404693Y739157D01*
Y731520D01*
X403489D01*
Y741327D01*
X404277D01*
X404411Y741089D01*
D02*
G37*
G36*
X533550Y735651D02*
Y731520D01*
X532257D01*
Y735651D01*
X528364Y741282D01*
X529865D01*
X531752Y738400D01*
X531975Y738058D01*
X532183Y737731D01*
X532376Y737434D01*
X532525Y737181D01*
X532659Y736973D01*
X532748Y736810D01*
X532778Y736750D01*
X532807Y736706D01*
X532822Y736691D01*
Y736676D01*
X533000Y736988D01*
X533179Y737285D01*
X533342Y737568D01*
X533491Y737820D01*
X533624Y738028D01*
X533728Y738192D01*
X533758Y738251D01*
X533788Y738296D01*
X533818Y738311D01*
Y738325D01*
X535749Y741282D01*
X537310D01*
X533550Y735651D01*
D02*
G37*
G36*
X482287Y738742D02*
X482599Y738712D01*
X482866Y738682D01*
X483104Y738637D01*
X483297Y738578D01*
X483446Y738548D01*
X483490Y738533D01*
X483535Y738519D01*
X483550Y738504D01*
X483565D01*
X483802Y738400D01*
X484010Y738281D01*
X484203Y738162D01*
X484352Y738058D01*
X484471Y737954D01*
X484545Y737865D01*
X484605Y737805D01*
X484620Y737791D01*
X484753Y737612D01*
X484857Y737404D01*
X484947Y737211D01*
X485021Y737018D01*
X485065Y736840D01*
X485110Y736706D01*
X485125Y736617D01*
X485140Y736602D01*
Y736587D01*
X483966Y736423D01*
X483891Y736676D01*
X483787Y736899D01*
X483698Y737077D01*
X483594Y737226D01*
X483505Y737330D01*
X483431Y737404D01*
X483386Y737449D01*
X483371Y737464D01*
X483208Y737568D01*
X483000Y737642D01*
X482807Y737686D01*
X482599Y737731D01*
X482406Y737746D01*
X482257Y737761D01*
X482123D01*
X481811Y737746D01*
X481529Y737701D01*
X481291Y737627D01*
X481098Y737553D01*
X480949Y737478D01*
X480845Y737404D01*
X480771Y737360D01*
X480756Y737345D01*
X480637Y737211D01*
X480563Y737062D01*
X480504Y736884D01*
X480459Y736721D01*
X480429Y736572D01*
X480415Y736438D01*
Y736349D01*
Y736334D01*
Y736320D01*
Y736290D01*
Y736245D01*
Y736141D01*
X480429Y736052D01*
Y736022D01*
Y736007D01*
X480563Y735963D01*
X480712Y735918D01*
X481053Y735829D01*
X481410Y735770D01*
X481752Y735710D01*
X482079Y735651D01*
X482212Y735636D01*
X482331Y735621D01*
X482435Y735606D01*
X482510D01*
X482554Y735591D01*
X482569D01*
X482822Y735562D01*
X483030Y735532D01*
X483223Y735502D01*
X483371Y735472D01*
X483490Y735443D01*
X483565Y735428D01*
X483624Y735413D01*
X483639D01*
X483817Y735354D01*
X483981Y735294D01*
X484114Y735235D01*
X484248Y735161D01*
X484352Y735101D01*
X484426Y735056D01*
X484486Y735027D01*
X484501Y735012D01*
X484634Y734908D01*
X484753Y734804D01*
X484872Y734685D01*
X484961Y734581D01*
X485036Y734477D01*
X485080Y734403D01*
X485110Y734343D01*
X485125Y734328D01*
X485199Y734165D01*
X485258Y734001D01*
X485288Y733838D01*
X485318Y733689D01*
X485333Y733570D01*
X485348Y733466D01*
Y733407D01*
Y733377D01*
X485318Y733065D01*
X485244Y732768D01*
X485154Y732530D01*
X485036Y732322D01*
X484917Y732144D01*
X484828Y732025D01*
X484753Y731951D01*
X484724Y731921D01*
X484471Y731728D01*
X484174Y731594D01*
X483891Y731490D01*
X483594Y731431D01*
X483342Y731386D01*
X483223Y731371D01*
X483134D01*
X483045Y731357D01*
X482940D01*
X482673Y731371D01*
X482435Y731401D01*
X482212Y731431D01*
X482004Y731475D01*
X481841Y731520D01*
X481722Y731565D01*
X481648Y731579D01*
X481618Y731594D01*
X481380Y731698D01*
X481157Y731817D01*
X480934Y731951D01*
X480741Y732100D01*
X480563Y732218D01*
X480444Y732322D01*
X480355Y732382D01*
X480325Y732411D01*
X480296Y732218D01*
X480266Y732055D01*
X480236Y731906D01*
X480192Y731773D01*
X480147Y731669D01*
X480117Y731579D01*
X480102Y731535D01*
X480088Y731520D01*
X478839D01*
X478973Y731817D01*
X479033Y731966D01*
X479077Y732085D01*
X479107Y732189D01*
X479122Y732278D01*
X479137Y732337D01*
Y732352D01*
X479151Y732456D01*
X479166Y732575D01*
Y732709D01*
X479181Y732872D01*
X479196Y733214D01*
Y733585D01*
X479211Y733927D01*
Y734076D01*
Y734210D01*
Y734314D01*
Y734403D01*
Y734462D01*
Y734477D01*
Y736082D01*
Y736364D01*
X479226Y736587D01*
X479241Y736780D01*
Y736929D01*
X479255Y737048D01*
X479270Y737122D01*
X479285Y737166D01*
Y737181D01*
X479330Y737360D01*
X479389Y737523D01*
X479449Y737657D01*
X479508Y737776D01*
X479567Y737880D01*
X479612Y737939D01*
X479642Y737984D01*
X479657Y737999D01*
X479776Y738117D01*
X479894Y738221D01*
X480043Y738311D01*
X480177Y738385D01*
X480296Y738444D01*
X480400Y738504D01*
X480459Y738519D01*
X480489Y738533D01*
X480712Y738608D01*
X480949Y738667D01*
X481202Y738697D01*
X481440Y738727D01*
X481648Y738742D01*
X481811Y738756D01*
X481960D01*
X482287Y738742D01*
D02*
G37*
G36*
X456789Y731520D02*
X455541D01*
Y739826D01*
X452732Y731520D01*
X451573D01*
X448720Y739693D01*
Y731520D01*
X447472D01*
Y741282D01*
X449225D01*
X451558Y734492D01*
X451677Y734120D01*
X451796Y733808D01*
X451885Y733541D01*
X451945Y733318D01*
X452004Y733155D01*
X452049Y733036D01*
X452063Y732961D01*
X452078Y732932D01*
X452138Y733125D01*
X452212Y733363D01*
X452286Y733600D01*
X452361Y733838D01*
X452435Y734046D01*
X452494Y734210D01*
X452509Y734284D01*
X452524Y734328D01*
X452539Y734358D01*
Y734373D01*
X454857Y741282D01*
X456789D01*
Y731520D01*
D02*
G37*
G36*
X465496Y731505D02*
X465541Y731371D01*
X465585Y731282D01*
X465600Y731223D01*
X465615Y731208D01*
X465704Y730970D01*
X465778Y730762D01*
X465838Y730614D01*
X465882Y730495D01*
X465927Y730406D01*
X465957Y730361D01*
X465971Y730331D01*
Y730316D01*
X466105Y730153D01*
X466239Y730034D01*
X466283Y729989D01*
X466328Y729960D01*
X466358Y729930D01*
X466373D01*
X466462Y729885D01*
X466566Y729856D01*
X466774Y729811D01*
X466878D01*
X466937Y729796D01*
X467012D01*
X467249Y729811D01*
X467457Y729856D01*
X467561Y729885D01*
X467636Y729900D01*
X467680Y729915D01*
X467695D01*
X467561Y728801D01*
X467264Y728712D01*
X467131Y728682D01*
X467012Y728667D01*
X466922D01*
X466848Y728652D01*
X466789D01*
X466581Y728667D01*
X466402Y728697D01*
X466224Y728741D01*
X466090Y728801D01*
X465971Y728845D01*
X465882Y728890D01*
X465823Y728920D01*
X465808Y728934D01*
X465659Y729053D01*
X465511Y729187D01*
X465392Y729336D01*
X465273Y729470D01*
X465184Y729603D01*
X465125Y729707D01*
X465080Y729767D01*
X465065Y729796D01*
X465020Y729885D01*
X464961Y729989D01*
X464857Y730242D01*
X464753Y730495D01*
X464634Y730762D01*
X464545Y731015D01*
X464501Y731119D01*
X464471Y731208D01*
X464441Y731297D01*
X464411Y731357D01*
X464397Y731386D01*
Y731401D01*
X461722Y738593D01*
X462911D01*
X464426Y734462D01*
X464530Y734165D01*
X464619Y733883D01*
X464709Y733615D01*
X464783Y733377D01*
X464842Y733184D01*
X464872Y733021D01*
X464902Y732961D01*
Y732917D01*
X464916Y732902D01*
Y732887D01*
X465006Y733199D01*
X465095Y733496D01*
X465184Y733779D01*
X465258Y734016D01*
X465333Y734224D01*
X465392Y734388D01*
X465407Y734447D01*
X465422Y734492D01*
X465437Y734507D01*
Y734521D01*
X466908Y738593D01*
X468186D01*
X465496Y731505D01*
D02*
G37*
G36*
X471098Y740331D02*
Y738593D01*
X471989D01*
Y737657D01*
X471098D01*
Y733585D01*
Y733392D01*
Y733214D01*
X471083Y733051D01*
Y732902D01*
X471068Y732768D01*
X471053Y732664D01*
X471024Y732471D01*
X471009Y732322D01*
X470979Y732233D01*
X470964Y732174D01*
Y732159D01*
X470905Y732040D01*
X470816Y731936D01*
X470741Y731847D01*
X470652Y731773D01*
X470578Y731713D01*
X470518Y731669D01*
X470474Y731639D01*
X470459Y731624D01*
X470310Y731565D01*
X470147Y731520D01*
X469969Y731475D01*
X469805Y731461D01*
X469656Y731446D01*
X469538Y731431D01*
X469434D01*
X469122Y731446D01*
X468973Y731461D01*
X468839Y731490D01*
X468706Y731505D01*
X468616Y731520D01*
X468557Y731535D01*
X468527D01*
X468691Y732590D01*
X468914Y732560D01*
X469003D01*
X469077Y732545D01*
X469226D01*
X469404Y732560D01*
X469538Y732590D01*
X469612Y732605D01*
X469642Y732620D01*
X469731Y732694D01*
X469790Y732768D01*
X469820Y732828D01*
X469835Y732857D01*
X469850Y732932D01*
X469865Y733021D01*
X469879Y733244D01*
X469894Y733348D01*
Y733437D01*
Y733496D01*
Y733511D01*
Y737657D01*
X468691D01*
Y738593D01*
X469894D01*
Y741059D01*
X471098Y740331D01*
D02*
G37*
G36*
X427160D02*
Y738593D01*
X428051D01*
Y737657D01*
X427160D01*
Y733585D01*
Y733392D01*
Y733214D01*
X427145Y733051D01*
Y732902D01*
X427130Y732768D01*
X427115Y732664D01*
X427085Y732471D01*
X427071Y732322D01*
X427041Y732233D01*
X427026Y732174D01*
Y732159D01*
X426967Y732040D01*
X426878Y731936D01*
X426803Y731847D01*
X426714Y731773D01*
X426640Y731713D01*
X426580Y731669D01*
X426536Y731639D01*
X426521Y731624D01*
X426372Y731565D01*
X426209Y731520D01*
X426031Y731475D01*
X425867Y731461D01*
X425718Y731446D01*
X425600Y731431D01*
X425496D01*
X425184Y731446D01*
X425035Y731461D01*
X424901Y731490D01*
X424767Y731505D01*
X424678Y731520D01*
X424619Y731535D01*
X424589D01*
X424753Y732590D01*
X424976Y732560D01*
X425065D01*
X425139Y732545D01*
X425288D01*
X425466Y732560D01*
X425600Y732590D01*
X425674Y732605D01*
X425704Y732620D01*
X425793Y732694D01*
X425852Y732768D01*
X425882Y732828D01*
X425897Y732857D01*
X425912Y732932D01*
X425927Y733021D01*
X425941Y733244D01*
X425956Y733348D01*
Y733437D01*
Y733496D01*
Y733511D01*
Y737657D01*
X424753D01*
Y738593D01*
X425956D01*
Y741059D01*
X427160Y740331D01*
D02*
G37*
G36*
X492539Y734195D02*
Y733927D01*
X492524Y733704D01*
Y733511D01*
X492510Y733348D01*
X492495Y733229D01*
Y733155D01*
X492480Y733095D01*
Y733080D01*
X492435Y732887D01*
X492376Y732724D01*
X492317Y732575D01*
X492242Y732441D01*
X492198Y732337D01*
X492153Y732248D01*
X492123Y732204D01*
X492108Y732189D01*
X491990Y732055D01*
X491871Y731951D01*
X491737Y731847D01*
X491603Y731758D01*
X491484Y731683D01*
X491395Y731639D01*
X491336Y731609D01*
X491306Y731594D01*
X491098Y731520D01*
X490890Y731461D01*
X490697Y731416D01*
X490519Y731386D01*
X490355Y731371D01*
X490236Y731357D01*
X490132D01*
X489880Y731371D01*
X489627Y731401D01*
X489404Y731461D01*
X489181Y731550D01*
X488988Y731639D01*
X488795Y731728D01*
X488632Y731847D01*
X488483Y731951D01*
X488349Y732055D01*
X488230Y732174D01*
X488126Y732263D01*
X488037Y732367D01*
X487978Y732441D01*
X487933Y732501D01*
X487903Y732530D01*
X487888Y732545D01*
Y731520D01*
X486819D01*
Y738593D01*
X488022D01*
Y734789D01*
X488037Y734477D01*
X488052Y734195D01*
X488082Y733957D01*
X488126Y733764D01*
X488171Y733600D01*
X488201Y733496D01*
X488215Y733437D01*
X488230Y733407D01*
X488319Y733244D01*
X488409Y733095D01*
X488527Y732961D01*
X488632Y732857D01*
X488736Y732768D01*
X488825Y732709D01*
X488884Y732664D01*
X488899Y732649D01*
X489077Y732560D01*
X489256Y732501D01*
X489419Y732441D01*
X489568Y732411D01*
X489701Y732397D01*
X489805Y732382D01*
X489894D01*
X490088Y732397D01*
X490266Y732426D01*
X490415Y732471D01*
X490548Y732516D01*
X490652Y732560D01*
X490727Y732605D01*
X490786Y732634D01*
X490801Y732649D01*
X490920Y732753D01*
X491024Y732872D01*
X491113Y733006D01*
X491172Y733125D01*
X491217Y733229D01*
X491247Y733318D01*
X491276Y733377D01*
Y733392D01*
X491291Y733541D01*
X491306Y733734D01*
X491321Y733942D01*
Y734150D01*
X491336Y734343D01*
Y734507D01*
Y734566D01*
Y734611D01*
Y734640D01*
Y734655D01*
Y738593D01*
X492539D01*
Y734195D01*
D02*
G37*
G36*
X549910Y731520D02*
X546403D01*
X546076Y731535D01*
X545779Y731550D01*
X545512Y731579D01*
X545289Y731609D01*
X545096Y731639D01*
X544962Y731654D01*
X544873Y731683D01*
X544843D01*
X544590Y731758D01*
X544368Y731832D01*
X544174Y731906D01*
X544011Y731981D01*
X543877Y732055D01*
X543773Y732114D01*
X543699Y732144D01*
X543684Y732159D01*
X543506Y732293D01*
X543342Y732441D01*
X543179Y732590D01*
X543060Y732724D01*
X542941Y732857D01*
X542867Y732961D01*
X542807Y733021D01*
X542793Y733051D01*
X542644Y733273D01*
X542510Y733511D01*
X542391Y733749D01*
X542302Y733972D01*
X542228Y734180D01*
X542169Y734328D01*
X542154Y734388D01*
X542139Y734432D01*
X542124Y734462D01*
Y734477D01*
X542035Y734804D01*
X541975Y735146D01*
X541916Y735487D01*
X541886Y735785D01*
X541871Y736052D01*
Y736171D01*
X541856Y736260D01*
Y736349D01*
Y736409D01*
Y736438D01*
Y736453D01*
X541871Y736929D01*
X541916Y737360D01*
X541975Y737746D01*
X542020Y737924D01*
X542050Y738088D01*
X542079Y738236D01*
X542124Y738370D01*
X542154Y738489D01*
X542183Y738578D01*
X542213Y738652D01*
X542228Y738712D01*
X542243Y738742D01*
Y738756D01*
X542406Y739128D01*
X542584Y739455D01*
X542778Y739737D01*
X542971Y739975D01*
X543134Y740168D01*
X543268Y740316D01*
X543372Y740406D01*
X543387Y740435D01*
X543402D01*
X543639Y740614D01*
X543877Y740762D01*
X544115Y740881D01*
X544338Y740970D01*
X544531Y741045D01*
X544695Y741089D01*
X544754Y741119D01*
X544784D01*
X544813Y741134D01*
X544828D01*
X545066Y741178D01*
X545348Y741223D01*
X545645Y741253D01*
X545913Y741267D01*
X546166Y741282D01*
X549910D01*
Y731520D01*
D02*
G37*
G36*
X539851D02*
X538558D01*
Y741282D01*
X539851D01*
Y731520D01*
D02*
G37*
G36*
X524471D02*
X523104D01*
X522049Y734477D01*
X517948D01*
X516819Y731520D01*
X515363D01*
X519330Y741282D01*
X520742D01*
X524471Y731520D01*
D02*
G37*
G36*
X514456D02*
X513253D01*
Y738593D01*
X514456D01*
Y731520D01*
D02*
G37*
G36*
X508988Y738742D02*
X509137Y738712D01*
X509271Y738682D01*
X509375Y738637D01*
X509479Y738578D01*
X509553Y738548D01*
X509598Y738519D01*
X509612Y738504D01*
X509746Y738400D01*
X509865Y738251D01*
X509999Y738088D01*
X510118Y737924D01*
X510207Y737776D01*
X510281Y737642D01*
X510340Y737553D01*
X510355Y737538D01*
Y738593D01*
X511440D01*
Y731520D01*
X510237D01*
Y735220D01*
X510222Y735502D01*
X510207Y735755D01*
X510177Y735993D01*
X510132Y736201D01*
X510103Y736379D01*
X510073Y736513D01*
X510058Y736587D01*
X510043Y736617D01*
X509984Y736765D01*
X509924Y736899D01*
X509850Y737018D01*
X509776Y737107D01*
X509716Y737181D01*
X509657Y737241D01*
X509627Y737270D01*
X509612Y737285D01*
X509493Y737360D01*
X509375Y737419D01*
X509256Y737464D01*
X509152Y737493D01*
X509048Y737508D01*
X508974Y737523D01*
X508914D01*
X508751Y737508D01*
X508587Y737478D01*
X508438Y737434D01*
X508305Y737389D01*
X508201Y737345D01*
X508112Y737300D01*
X508052Y737270D01*
X508037Y737256D01*
X507606Y738355D01*
X507844Y738489D01*
X508067Y738593D01*
X508275Y738652D01*
X508453Y738712D01*
X508617Y738742D01*
X508736Y738756D01*
X508840D01*
X508988Y738742D01*
D02*
G37*
G36*
X477383Y731520D02*
X476180D01*
Y741282D01*
X477383D01*
Y731520D01*
D02*
G37*
G36*
X474322D02*
X473119D01*
Y738593D01*
X474322D01*
Y731520D01*
D02*
G37*
G36*
X434916Y738742D02*
X435169Y738712D01*
X435406Y738652D01*
X435615Y738578D01*
X435823Y738489D01*
X436001Y738385D01*
X436164Y738281D01*
X436328Y738177D01*
X436461Y738058D01*
X436566Y737954D01*
X436670Y737850D01*
X436744Y737761D01*
X436818Y737686D01*
X436863Y737627D01*
X436878Y737597D01*
X436892Y737582D01*
Y738593D01*
X437977D01*
Y731520D01*
X436774D01*
Y735383D01*
Y735621D01*
X436744Y735844D01*
X436729Y736052D01*
X436684Y736245D01*
X436640Y736409D01*
X436595Y736557D01*
X436551Y736691D01*
X436491Y736810D01*
X436447Y736914D01*
X436402Y737003D01*
X436313Y737122D01*
X436254Y737196D01*
X436224Y737226D01*
X436016Y737389D01*
X435778Y737508D01*
X435570Y737597D01*
X435362Y737657D01*
X435169Y737686D01*
X435035Y737716D01*
X434901D01*
X434723Y737701D01*
X434574Y737686D01*
X434426Y737642D01*
X434307Y737612D01*
X434203Y737568D01*
X434129Y737523D01*
X434084Y737508D01*
X434069Y737493D01*
X433950Y737404D01*
X433846Y737300D01*
X433757Y737211D01*
X433683Y737107D01*
X433638Y737033D01*
X433609Y736958D01*
X433579Y736914D01*
Y736899D01*
X433534Y736750D01*
X433490Y736587D01*
X433460Y736394D01*
X433445Y736230D01*
X433430Y736067D01*
Y735933D01*
Y735844D01*
Y735829D01*
Y735814D01*
Y731520D01*
X432227D01*
Y735859D01*
Y736156D01*
X432242Y736394D01*
X432256Y736602D01*
Y736765D01*
X432271Y736884D01*
X432286Y736973D01*
X432301Y737018D01*
Y737033D01*
X432346Y737211D01*
X432405Y737389D01*
X432464Y737538D01*
X432524Y737657D01*
X432583Y737761D01*
X432628Y737850D01*
X432658Y737895D01*
X432673Y737909D01*
X432776Y738043D01*
X432910Y738162D01*
X433044Y738266D01*
X433178Y738355D01*
X433297Y738429D01*
X433386Y738474D01*
X433445Y738504D01*
X433475Y738519D01*
X433683Y738593D01*
X433876Y738652D01*
X434084Y738697D01*
X434262Y738727D01*
X434411Y738742D01*
X434545Y738756D01*
X434649D01*
X434916Y738742D01*
D02*
G37*
G36*
X430384Y731520D02*
X429181D01*
Y738593D01*
X430384D01*
Y731520D01*
D02*
G37*
G36*
X413549Y738742D02*
X413698Y738712D01*
X413831Y738682D01*
X413935Y738637D01*
X414039Y738578D01*
X414114Y738548D01*
X414158Y738519D01*
X414173Y738504D01*
X414307Y738400D01*
X414426Y738251D01*
X414559Y738088D01*
X414678Y737924D01*
X414767Y737776D01*
X414842Y737642D01*
X414901Y737553D01*
X414916Y737538D01*
Y738593D01*
X416001D01*
Y731520D01*
X414797D01*
Y735220D01*
X414782Y735502D01*
X414767Y735755D01*
X414738Y735993D01*
X414693Y736201D01*
X414663Y736379D01*
X414634Y736513D01*
X414619Y736587D01*
X414604Y736617D01*
X414544Y736765D01*
X414485Y736899D01*
X414411Y737018D01*
X414337Y737107D01*
X414277Y737181D01*
X414218Y737241D01*
X414188Y737270D01*
X414173Y737285D01*
X414054Y737360D01*
X413935Y737419D01*
X413816Y737464D01*
X413712Y737493D01*
X413608Y737508D01*
X413534Y737523D01*
X413475D01*
X413311Y737508D01*
X413148Y737478D01*
X412999Y737434D01*
X412865Y737389D01*
X412761Y737345D01*
X412672Y737300D01*
X412613Y737270D01*
X412598Y737256D01*
X412167Y738355D01*
X412405Y738489D01*
X412628Y738593D01*
X412836Y738652D01*
X413014Y738712D01*
X413177Y738742D01*
X413296Y738756D01*
X413400D01*
X413549Y738742D01*
D02*
G37*
G36*
X399760Y731520D02*
X398393D01*
Y732887D01*
X399760D01*
Y731520D01*
D02*
G37*
G36*
X499256Y741416D02*
X499716Y741342D01*
X500117Y741253D01*
X500311Y741193D01*
X500474Y741134D01*
X500638Y741074D01*
X500771Y741015D01*
X500890Y740970D01*
X500994Y740926D01*
X501083Y740881D01*
X501143Y740852D01*
X501172Y740837D01*
X501187Y740822D01*
X501574Y740569D01*
X501901Y740272D01*
X502183Y739975D01*
X502421Y739678D01*
X502614Y739425D01*
X502688Y739306D01*
X502747Y739202D01*
X502792Y739128D01*
X502822Y739068D01*
X502851Y739024D01*
Y739009D01*
X503045Y738563D01*
X503193Y738102D01*
X503283Y737672D01*
X503357Y737256D01*
X503386Y737077D01*
X503401Y736914D01*
X503416Y736765D01*
Y736631D01*
X503431Y736542D01*
Y736453D01*
Y736409D01*
Y736394D01*
X503401Y735859D01*
X503342Y735368D01*
X503253Y734923D01*
X503193Y734730D01*
X503134Y734536D01*
X503089Y734373D01*
X503030Y734224D01*
X502985Y734091D01*
X502941Y733987D01*
X502911Y733897D01*
X502881Y733838D01*
X502851Y733793D01*
Y733779D01*
X502614Y733363D01*
X502346Y733006D01*
X502079Y732694D01*
X501811Y732441D01*
X501574Y732248D01*
X501470Y732159D01*
X501381Y732100D01*
X501306Y732055D01*
X501247Y732010D01*
X501217Y731995D01*
X501202Y731981D01*
X500786Y731773D01*
X500370Y731624D01*
X499969Y731505D01*
X499597Y731431D01*
X499434Y731416D01*
X499285Y731386D01*
X499152Y731371D01*
X499033D01*
X498944Y731357D01*
X498810D01*
X498334Y731386D01*
X497889Y731446D01*
X497473Y731550D01*
X497294Y731594D01*
X497116Y731654D01*
X496967Y731713D01*
X496834Y731758D01*
X496715Y731817D01*
X496611Y731862D01*
X496522Y731891D01*
X496462Y731921D01*
X496432Y731951D01*
X496418D01*
X496031Y731669D01*
X495645Y731431D01*
X495288Y731223D01*
X494976Y731059D01*
X494828Y731000D01*
X494709Y730940D01*
X494590Y730881D01*
X494501Y730851D01*
X494426Y730822D01*
X494367Y730792D01*
X494337Y730777D01*
X494323D01*
X493921Y731654D01*
X494218Y731773D01*
X494516Y731921D01*
X494798Y732070D01*
X495051Y732218D01*
X495274Y732352D01*
X495363Y732411D01*
X495452Y732456D01*
X495511Y732501D01*
X495556Y732530D01*
X495586Y732560D01*
X495600D01*
X495333Y732842D01*
X495110Y733125D01*
X494917Y733407D01*
X494768Y733660D01*
X494649Y733883D01*
X494590Y733987D01*
X494560Y734061D01*
X494530Y734135D01*
X494501Y734180D01*
X494486Y734210D01*
Y734224D01*
X494367Y734596D01*
X494278Y734967D01*
X494204Y735339D01*
X494159Y735666D01*
X494144Y735829D01*
X494129Y735963D01*
Y736082D01*
X494114Y736186D01*
Y736275D01*
Y736334D01*
Y736379D01*
Y736394D01*
X494144Y736929D01*
X494204Y737419D01*
X494293Y737850D01*
X494352Y738058D01*
X494397Y738236D01*
X494456Y738415D01*
X494516Y738563D01*
X494560Y738682D01*
X494605Y738786D01*
X494635Y738875D01*
X494664Y738950D01*
X494694Y738979D01*
Y738994D01*
X494932Y739410D01*
X495184Y739767D01*
X495467Y740079D01*
X495734Y740331D01*
X495972Y740525D01*
X496076Y740614D01*
X496165Y740673D01*
X496239Y740733D01*
X496299Y740762D01*
X496328Y740792D01*
X496343D01*
X496551Y740911D01*
X496759Y741015D01*
X497175Y741163D01*
X497592Y741282D01*
X497963Y741372D01*
X498141Y741386D01*
X498290Y741416D01*
X498438Y741431D01*
X498557D01*
X498646Y741446D01*
X498780D01*
X499256Y741416D01*
D02*
G37*
G36*
X442925Y738742D02*
X443163Y738727D01*
X443594Y738637D01*
X443980Y738504D01*
X444144Y738429D01*
X444292Y738370D01*
X444441Y738296D01*
X444560Y738221D01*
X444664Y738147D01*
X444753Y738088D01*
X444827Y738043D01*
X444872Y737999D01*
X444901Y737984D01*
X444916Y737969D01*
X445109Y737776D01*
X445273Y737568D01*
X445421Y737345D01*
X445540Y737107D01*
X445644Y736869D01*
X445734Y736631D01*
X445808Y736394D01*
X445867Y736156D01*
X445912Y735933D01*
X445942Y735725D01*
X445971Y735547D01*
X445986Y735383D01*
Y735250D01*
X446001Y735146D01*
Y735086D01*
Y735056D01*
X445986Y734730D01*
X445956Y734417D01*
X445912Y734135D01*
X445852Y733868D01*
X445793Y733630D01*
X445719Y733392D01*
X445630Y733199D01*
X445540Y733006D01*
X445466Y732842D01*
X445377Y732709D01*
X445303Y732590D01*
X445228Y732486D01*
X445184Y732411D01*
X445139Y732352D01*
X445109Y732322D01*
X445095Y732308D01*
X444916Y732144D01*
X444723Y731995D01*
X444530Y731862D01*
X444322Y731758D01*
X444129Y731669D01*
X443921Y731594D01*
X443549Y731475D01*
X443371Y731431D01*
X443208Y731401D01*
X443059Y731386D01*
X442940Y731371D01*
X442836Y731357D01*
X442687D01*
X442346Y731371D01*
X442034Y731431D01*
X441751Y731490D01*
X441499Y731579D01*
X441291Y731654D01*
X441127Y731728D01*
X441068Y731743D01*
X441023Y731773D01*
X441008Y731787D01*
X440993D01*
X440711Y731966D01*
X440474Y732159D01*
X440265Y732352D01*
X440102Y732545D01*
X439968Y732724D01*
X439864Y732857D01*
X439805Y732961D01*
X439790Y732976D01*
Y732991D01*
X439656Y733303D01*
X439552Y733660D01*
X439478Y734016D01*
X439418Y734358D01*
X439404Y734521D01*
X439389Y734670D01*
Y734804D01*
X439374Y734923D01*
Y735012D01*
Y735086D01*
Y735131D01*
Y735146D01*
X439389Y735458D01*
X439418Y735740D01*
X439463Y736022D01*
X439523Y736275D01*
X439597Y736513D01*
X439671Y736721D01*
X439760Y736929D01*
X439835Y737107D01*
X439924Y737256D01*
X440013Y737404D01*
X440087Y737523D01*
X440161Y737612D01*
X440221Y737686D01*
X440265Y737746D01*
X440295Y737776D01*
X440310Y737791D01*
X440488Y737954D01*
X440681Y738102D01*
X440875Y738236D01*
X441068Y738355D01*
X441276Y738444D01*
X441469Y738519D01*
X441841Y738637D01*
X442019Y738682D01*
X442182Y738712D01*
X442316Y738727D01*
X442450Y738742D01*
X442554Y738756D01*
X442687D01*
X442925Y738742D01*
D02*
G37*
G36*
X420949D02*
X421186Y738727D01*
X421617Y738637D01*
X422004Y738504D01*
X422167Y738429D01*
X422316Y738370D01*
X422464Y738296D01*
X422583Y738221D01*
X422687Y738147D01*
X422776Y738088D01*
X422851Y738043D01*
X422895Y737999D01*
X422925Y737984D01*
X422940Y737969D01*
X423133Y737776D01*
X423297Y737568D01*
X423445Y737345D01*
X423564Y737107D01*
X423668Y736869D01*
X423757Y736631D01*
X423831Y736394D01*
X423891Y736156D01*
X423935Y735933D01*
X423965Y735725D01*
X423995Y735547D01*
X424010Y735383D01*
Y735250D01*
X424025Y735146D01*
Y735086D01*
Y735056D01*
X424010Y734730D01*
X423980Y734417D01*
X423935Y734135D01*
X423876Y733868D01*
X423816Y733630D01*
X423742Y733392D01*
X423653Y733199D01*
X423564Y733006D01*
X423490Y732842D01*
X423400Y732709D01*
X423326Y732590D01*
X423252Y732486D01*
X423207Y732411D01*
X423163Y732352D01*
X423133Y732322D01*
X423118Y732308D01*
X422940Y732144D01*
X422747Y731995D01*
X422553Y731862D01*
X422346Y731758D01*
X422152Y731669D01*
X421944Y731594D01*
X421573Y731475D01*
X421395Y731431D01*
X421231Y731401D01*
X421082Y731386D01*
X420964Y731371D01*
X420860Y731357D01*
X420711D01*
X420369Y731371D01*
X420057Y731431D01*
X419775Y731490D01*
X419522Y731579D01*
X419314Y731654D01*
X419151Y731728D01*
X419091Y731743D01*
X419047Y731773D01*
X419032Y731787D01*
X419017D01*
X418735Y731966D01*
X418497Y732159D01*
X418289Y732352D01*
X418125Y732545D01*
X417992Y732724D01*
X417888Y732857D01*
X417828Y732961D01*
X417813Y732976D01*
Y732991D01*
X417680Y733303D01*
X417576Y733660D01*
X417501Y734016D01*
X417442Y734358D01*
X417427Y734521D01*
X417412Y734670D01*
Y734804D01*
X417397Y734923D01*
Y735012D01*
Y735086D01*
Y735131D01*
Y735146D01*
X417412Y735458D01*
X417442Y735740D01*
X417487Y736022D01*
X417546Y736275D01*
X417620Y736513D01*
X417695Y736721D01*
X417784Y736929D01*
X417858Y737107D01*
X417947Y737256D01*
X418036Y737404D01*
X418111Y737523D01*
X418185Y737612D01*
X418244Y737686D01*
X418289Y737746D01*
X418319Y737776D01*
X418334Y737791D01*
X418512Y737954D01*
X418705Y738102D01*
X418898Y738236D01*
X419091Y738355D01*
X419299Y738444D01*
X419493Y738519D01*
X419864Y738637D01*
X420042Y738682D01*
X420206Y738712D01*
X420340Y738727D01*
X420473Y738742D01*
X420577Y738756D01*
X420711D01*
X420949Y738742D01*
D02*
G37*
%LPC*%
G36*
X487197Y720285D02*
X487123D01*
X486826Y720255D01*
X486558Y720196D01*
X486320Y720092D01*
X486127Y719988D01*
X485964Y719884D01*
X485845Y719780D01*
X485785Y719720D01*
X485756Y719691D01*
X485578Y719453D01*
X485444Y719200D01*
X485355Y718933D01*
X485280Y718680D01*
X485251Y718457D01*
X485236Y718353D01*
Y718264D01*
X485221Y718205D01*
Y718145D01*
Y718115D01*
Y718101D01*
X485251Y717729D01*
X485310Y717402D01*
X485399Y717105D01*
X485488Y716867D01*
X485592Y716689D01*
X485681Y716555D01*
X485741Y716466D01*
X485771Y716436D01*
X485979Y716228D01*
X486202Y716080D01*
X486424Y715976D01*
X486618Y715901D01*
X486811Y715857D01*
X486945Y715842D01*
X487004Y715827D01*
X487078D01*
X487271Y715842D01*
X487450Y715872D01*
X487628Y715916D01*
X487777Y715976D01*
X487896Y716020D01*
X487985Y716065D01*
X488059Y716095D01*
X488074Y716110D01*
X488237Y716228D01*
X488386Y716377D01*
X488505Y716511D01*
X488609Y716659D01*
X488698Y716778D01*
X488757Y716882D01*
X488787Y716942D01*
X488802Y716971D01*
X488891Y717194D01*
X488951Y717402D01*
X488995Y717596D01*
X489025Y717789D01*
X489040Y717937D01*
X489054Y718056D01*
Y718130D01*
Y718160D01*
X489025Y718502D01*
X488965Y718799D01*
X488876Y719066D01*
X488772Y719289D01*
X488668Y719453D01*
X488579Y719587D01*
X488520Y719661D01*
X488490Y719691D01*
X488267Y719884D01*
X488044Y720032D01*
X487806Y720136D01*
X487598Y720211D01*
X487405Y720255D01*
X487257Y720270D01*
X487197Y720285D01*
D02*
G37*
G36*
X540333Y723821D02*
X540259D01*
X540110Y723807D01*
X539962Y723792D01*
X539694Y723702D01*
X539456Y723569D01*
X539248Y723420D01*
X539085Y723272D01*
X538966Y723138D01*
X538892Y723049D01*
X538862Y723034D01*
Y723019D01*
X538758Y722856D01*
X538669Y722662D01*
X538594Y722439D01*
X538535Y722187D01*
X538431Y721667D01*
X538372Y721132D01*
X538342Y720864D01*
X538327Y720627D01*
X538312Y720404D01*
Y720211D01*
X538297Y720047D01*
Y719928D01*
Y719854D01*
Y719824D01*
Y719393D01*
X538327Y718992D01*
X538342Y718636D01*
X538386Y718309D01*
X538431Y718011D01*
X538476Y717744D01*
X538520Y717521D01*
X538580Y717313D01*
X538639Y717150D01*
X538684Y717001D01*
X538728Y716867D01*
X538773Y716778D01*
X538802Y716704D01*
X538832Y716659D01*
X538862Y716630D01*
Y716615D01*
X538966Y716481D01*
X539085Y716362D01*
X539204Y716243D01*
X539323Y716154D01*
X539545Y716020D01*
X539768Y715931D01*
X539962Y715872D01*
X540110Y715842D01*
X540169Y715827D01*
X540244D01*
X540392Y715842D01*
X540541Y715857D01*
X540808Y715946D01*
X541046Y716080D01*
X541254Y716228D01*
X541418Y716362D01*
X541536Y716496D01*
X541611Y716585D01*
X541641Y716600D01*
Y716615D01*
X541730Y716778D01*
X541819Y716986D01*
X541893Y717209D01*
X541953Y717447D01*
X542057Y717982D01*
X542116Y718517D01*
X542146Y718769D01*
X542161Y719022D01*
X542175Y719245D01*
Y719438D01*
X542190Y719601D01*
Y719720D01*
Y719795D01*
Y719824D01*
Y720255D01*
X542161Y720656D01*
X542131Y721013D01*
X542101Y721340D01*
X542042Y721652D01*
X541997Y721919D01*
X541938Y722157D01*
X541878Y722365D01*
X541834Y722543D01*
X541774Y722707D01*
X541715Y722826D01*
X541670Y722930D01*
X541641Y723004D01*
X541611Y723064D01*
X541581Y723093D01*
Y723108D01*
X541492Y723227D01*
X541388Y723346D01*
X541165Y723524D01*
X540942Y723643D01*
X540734Y723732D01*
X540541Y723792D01*
X540392Y723807D01*
X540333Y723821D01*
D02*
G37*
G36*
X480429Y735071D02*
Y734625D01*
X480444Y734343D01*
X480459Y734106D01*
X480489Y733897D01*
X480518Y733719D01*
X480563Y733585D01*
X480593Y733496D01*
X480608Y733437D01*
X480622Y733422D01*
X480727Y733229D01*
X480860Y733065D01*
X480994Y732917D01*
X481113Y732813D01*
X481232Y732709D01*
X481336Y732649D01*
X481395Y732605D01*
X481425Y732590D01*
X481633Y732486D01*
X481841Y732411D01*
X482049Y732367D01*
X482227Y732337D01*
X482406Y732308D01*
X482524Y732293D01*
X482643D01*
X482896Y732308D01*
X483104Y732337D01*
X483297Y732397D01*
X483446Y732456D01*
X483565Y732501D01*
X483639Y732560D01*
X483698Y732590D01*
X483713Y732605D01*
X483832Y732738D01*
X483921Y732872D01*
X483981Y733006D01*
X484025Y733125D01*
X484055Y733244D01*
X484070Y733333D01*
Y733392D01*
Y733407D01*
X484055Y733526D01*
X484040Y733630D01*
X483981Y733808D01*
X483951Y733883D01*
X483936Y733927D01*
X483906Y733957D01*
Y733972D01*
X483758Y734150D01*
X483609Y734269D01*
X483550Y734314D01*
X483490Y734343D01*
X483461Y734373D01*
X483446D01*
X483312Y734417D01*
X483148Y734462D01*
X482807Y734536D01*
X482643Y734566D01*
X482510Y734596D01*
X482420Y734611D01*
X482391D01*
X482153Y734655D01*
X481930Y734685D01*
X481722Y734730D01*
X481529Y734759D01*
X481351Y734804D01*
X481202Y734848D01*
X481053Y734878D01*
X480920Y734908D01*
X480801Y734952D01*
X480712Y734982D01*
X480622Y734997D01*
X480548Y735027D01*
X480504Y735042D01*
X480459Y735056D01*
X480429Y735071D01*
D02*
G37*
G36*
X548617Y740138D02*
X546582D01*
X546180Y740123D01*
X545839Y740108D01*
X545556Y740079D01*
X545319Y740034D01*
X545140Y739990D01*
X545021Y739960D01*
X544947Y739945D01*
X544917Y739930D01*
X544665Y739797D01*
X544427Y739633D01*
X544219Y739455D01*
X544041Y739261D01*
X543892Y739098D01*
X543788Y738950D01*
X543744Y738890D01*
X543729Y738846D01*
X543699Y738831D01*
Y738816D01*
X543610Y738652D01*
X543535Y738474D01*
X543402Y738102D01*
X543313Y737716D01*
X543253Y737330D01*
X543238Y737166D01*
X543223Y737003D01*
X543209Y736854D01*
X543194Y736721D01*
Y736617D01*
Y736542D01*
Y736483D01*
Y736468D01*
X543209Y736067D01*
X543238Y735710D01*
X543283Y735383D01*
X543327Y735101D01*
X543372Y734878D01*
X543402Y734789D01*
X543417Y734715D01*
X543432Y734655D01*
X543446Y734611D01*
X543461Y734596D01*
Y734581D01*
X543565Y734314D01*
X543684Y734061D01*
X543803Y733853D01*
X543907Y733675D01*
X544011Y733541D01*
X544100Y733437D01*
X544160Y733363D01*
X544174Y733348D01*
X544308Y733229D01*
X544442Y733125D01*
X544590Y733051D01*
X544739Y732976D01*
X544858Y732917D01*
X544962Y732872D01*
X545021Y732857D01*
X545051Y732842D01*
X545274Y732783D01*
X545512Y732738D01*
X545764Y732709D01*
X546002Y732694D01*
X546225Y732679D01*
X546388Y732664D01*
X548617D01*
Y740138D01*
D02*
G37*
G36*
X520073Y740272D02*
X519969Y739945D01*
X519865Y739603D01*
X519746Y739261D01*
X519627Y738935D01*
X519538Y738652D01*
X519494Y738533D01*
X519449Y738429D01*
X519419Y738340D01*
X519390Y738281D01*
X519375Y738236D01*
Y738221D01*
X518364Y735532D01*
X521678D01*
X520608Y738385D01*
X520489Y738727D01*
X520385Y739068D01*
X520296Y739380D01*
X520222Y739678D01*
X520162Y739915D01*
X520133Y740019D01*
X520103Y740108D01*
X520088Y740183D01*
Y740227D01*
X520073Y740257D01*
Y740272D01*
D02*
G37*
G36*
X498899Y740331D02*
X498765D01*
X498409Y740316D01*
X498082Y740257D01*
X497785Y740183D01*
X497532Y740094D01*
X497324Y739990D01*
X497160Y739915D01*
X497101Y739886D01*
X497057Y739856D01*
X497042Y739841D01*
X497027D01*
X496759Y739648D01*
X496522Y739425D01*
X496314Y739187D01*
X496150Y738964D01*
X496016Y738771D01*
X495927Y738608D01*
X495897Y738548D01*
X495868Y738504D01*
X495853Y738474D01*
Y738459D01*
X495719Y738117D01*
X495615Y737761D01*
X495556Y737419D01*
X495496Y737092D01*
X495467Y736810D01*
Y736691D01*
X495452Y736587D01*
Y736513D01*
Y736453D01*
Y736409D01*
Y736394D01*
X495467Y736022D01*
X495496Y735666D01*
X495556Y735339D01*
X495630Y735027D01*
X495719Y734744D01*
X495808Y734492D01*
X495912Y734254D01*
X496016Y734061D01*
X496135Y733868D01*
X496239Y733719D01*
X496328Y733585D01*
X496418Y733466D01*
X496492Y733377D01*
X496551Y733318D01*
X496581Y733288D01*
X496596Y733273D01*
X496878Y733496D01*
X497175Y733689D01*
X497487Y733838D01*
X497770Y733972D01*
X498037Y734076D01*
X498141Y734120D01*
X498230Y734150D01*
X498320Y734180D01*
X498379Y734195D01*
X498409Y734210D01*
X498424D01*
X498736Y733273D01*
X498483Y733199D01*
X498260Y733110D01*
X498037Y733021D01*
X497859Y732932D01*
X497696Y732842D01*
X497577Y732768D01*
X497502Y732724D01*
X497473Y732709D01*
X497696Y732620D01*
X497933Y732560D01*
X498156Y732516D01*
X498349Y732486D01*
X498513Y732471D01*
X498646Y732456D01*
X498765D01*
X499033Y732471D01*
X499285Y732501D01*
X499523Y732545D01*
X499746Y732620D01*
X499969Y732694D01*
X500162Y732783D01*
X500340Y732872D01*
X500504Y732961D01*
X500652Y733051D01*
X500786Y733155D01*
X500890Y733229D01*
X500994Y733303D01*
X501068Y733377D01*
X501113Y733422D01*
X501143Y733452D01*
X501158Y733466D01*
X501321Y733660D01*
X501470Y733883D01*
X501589Y734106D01*
X501693Y734358D01*
X501782Y734596D01*
X501871Y734834D01*
X501975Y735309D01*
X502019Y735532D01*
X502049Y735740D01*
X502064Y735918D01*
X502079Y736082D01*
X502094Y736215D01*
Y736305D01*
Y736379D01*
Y736394D01*
X502079Y736750D01*
X502049Y737077D01*
X502005Y737389D01*
X501945Y737686D01*
X501871Y737939D01*
X501797Y738192D01*
X501707Y738400D01*
X501618Y738608D01*
X501544Y738771D01*
X501455Y738920D01*
X501381Y739053D01*
X501306Y739157D01*
X501247Y739232D01*
X501202Y739291D01*
X501172Y739321D01*
X501158Y739336D01*
X500979Y739514D01*
X500786Y739663D01*
X500578Y739797D01*
X500385Y739915D01*
X500177Y740005D01*
X499984Y740094D01*
X499597Y740212D01*
X499434Y740242D01*
X499271Y740272D01*
X499122Y740302D01*
X499003Y740316D01*
X498899Y740331D01*
D02*
G37*
G36*
X442777Y737761D02*
X442524D01*
X442375Y737731D01*
X442093Y737657D01*
X441841Y737538D01*
X441618Y737419D01*
X441454Y737300D01*
X441320Y737181D01*
X441246Y737107D01*
X441216Y737092D01*
Y737077D01*
X441008Y736795D01*
X440860Y736483D01*
X440756Y736141D01*
X440681Y735829D01*
X440637Y735532D01*
X440622Y735413D01*
Y735309D01*
X440607Y735205D01*
Y735146D01*
Y735101D01*
Y735086D01*
Y734834D01*
X440637Y734596D01*
X440667Y734373D01*
X440696Y734180D01*
X440741Y733987D01*
X440800Y733808D01*
X440845Y733660D01*
X440904Y733526D01*
X440964Y733407D01*
X441008Y733303D01*
X441068Y733214D01*
X441112Y733140D01*
X441142Y733080D01*
X441172Y733036D01*
X441202Y733021D01*
Y733006D01*
X441320Y732887D01*
X441439Y732783D01*
X441677Y732620D01*
X441930Y732501D01*
X442167Y732426D01*
X442375Y732367D01*
X442539Y732352D01*
X442598Y732337D01*
X442687D01*
X442851Y732352D01*
X443014Y732367D01*
X443297Y732441D01*
X443564Y732545D01*
X443772Y732679D01*
X443951Y732798D01*
X444084Y732902D01*
X444159Y732976D01*
X444188Y733006D01*
X444292Y733140D01*
X444381Y733288D01*
X444530Y733615D01*
X444619Y733957D01*
X444693Y734284D01*
X444738Y734581D01*
X444753Y734715D01*
Y734819D01*
X444768Y734908D01*
Y734982D01*
Y735027D01*
Y735042D01*
Y735294D01*
X444738Y735517D01*
X444708Y735740D01*
X444679Y735933D01*
X444634Y736126D01*
X444589Y736290D01*
X444530Y736438D01*
X444470Y736572D01*
X444426Y736691D01*
X444366Y736795D01*
X444322Y736884D01*
X444277Y736958D01*
X444248Y737003D01*
X444218Y737048D01*
X444188Y737077D01*
X444069Y737196D01*
X443951Y737300D01*
X443698Y737478D01*
X443445Y737597D01*
X443208Y737672D01*
X442999Y737731D01*
X442836Y737746D01*
X442777Y737761D01*
D02*
G37*
G36*
X420800D02*
X420547D01*
X420399Y737731D01*
X420117Y737657D01*
X419864Y737538D01*
X419641Y737419D01*
X419478Y737300D01*
X419344Y737181D01*
X419270Y737107D01*
X419240Y737092D01*
Y737077D01*
X419032Y736795D01*
X418883Y736483D01*
X418779Y736141D01*
X418705Y735829D01*
X418661Y735532D01*
X418646Y735413D01*
Y735309D01*
X418631Y735205D01*
Y735146D01*
Y735101D01*
Y735086D01*
Y734834D01*
X418661Y734596D01*
X418690Y734373D01*
X418720Y734180D01*
X418764Y733987D01*
X418824Y733808D01*
X418868Y733660D01*
X418928Y733526D01*
X418987Y733407D01*
X419032Y733303D01*
X419091Y733214D01*
X419136Y733140D01*
X419166Y733080D01*
X419195Y733036D01*
X419225Y733021D01*
Y733006D01*
X419344Y732887D01*
X419463Y732783D01*
X419701Y732620D01*
X419953Y732501D01*
X420191Y732426D01*
X420399Y732367D01*
X420562Y732352D01*
X420622Y732337D01*
X420711D01*
X420874Y732352D01*
X421038Y732367D01*
X421320Y732441D01*
X421588Y732545D01*
X421796Y732679D01*
X421974Y732798D01*
X422108Y732902D01*
X422182Y732976D01*
X422212Y733006D01*
X422316Y733140D01*
X422405Y733288D01*
X422553Y733615D01*
X422643Y733957D01*
X422717Y734284D01*
X422761Y734581D01*
X422776Y734715D01*
Y734819D01*
X422791Y734908D01*
Y734982D01*
Y735027D01*
Y735042D01*
Y735294D01*
X422761Y735517D01*
X422732Y735740D01*
X422702Y735933D01*
X422658Y736126D01*
X422613Y736290D01*
X422553Y736438D01*
X422494Y736572D01*
X422449Y736691D01*
X422390Y736795D01*
X422346Y736884D01*
X422301Y736958D01*
X422271Y737003D01*
X422242Y737048D01*
X422212Y737077D01*
X422093Y737196D01*
X421974Y737300D01*
X421721Y737478D01*
X421469Y737597D01*
X421231Y737672D01*
X421023Y737731D01*
X420860Y737746D01*
X420800Y737761D01*
D02*
G37*
%LPD*%
D11*
X676210Y1192530D02*
G03*
X676210Y1192530I-500J0D01*
G01*
X675770Y1211460D02*
G03*
X675770Y1211460I-1000J0D01*
G01*
X309430Y999360D02*
G03*
X309430Y1001360I0J1000D01*
G01*
D02*
G03*
X309430Y999360I0J-1000D01*
G01*
X503019Y1174360D02*
X523141D01*
X503019Y1157360D02*
X523141D01*
X496669Y1106560D02*
X516791D01*
X496669Y1123560D02*
X516791D01*
X496669Y1081160D02*
X516791D01*
X496669Y1098160D02*
X516791D01*
X629178Y961648D02*
X645902D01*
X629178Y976372D02*
X645902D01*
X583458Y999748D02*
X600182D01*
X583458Y1014472D02*
X600182D01*
X496669Y1050680D02*
X516791D01*
X496669Y1067680D02*
X516791D01*
X327309Y971529D02*
Y1004591D01*
X350871Y971529D02*
Y1004591D01*
X425708Y975888D02*
Y992612D01*
X440432Y975888D02*
Y992612D01*
X376932Y977158D02*
Y993882D01*
X362208Y977158D02*
Y993882D01*
X414320Y927090D02*
X424320D01*
Y953090D01*
X378320Y927090D02*
X388320D01*
X378320D02*
Y953090D01*
X643440Y729910D02*
Y750910D01*
X618940Y729910D02*
Y750910D01*
X247680Y929860D02*
Y1020860D01*
Y929860D02*
X283180D01*
Y1020860D01*
X247680D02*
X283180D01*
X367129Y1124340D02*
X387251D01*
X367129Y1141340D02*
X387251D01*
X500479Y1202300D02*
X520601D01*
X500479Y1185300D02*
X520601D01*
X496669Y1130690D02*
X516791D01*
X496669Y1147690D02*
X516791D01*
X436351Y1106910D02*
Y1135910D01*
Y1106910D02*
X437409D01*
Y1135910D01*
X436351D02*
X437409D01*
X320040Y875030D02*
X360940D01*
X456940D02*
X497840D01*
X456440Y848530D02*
Y901530D01*
X361440Y848530D02*
X456440D01*
X361440D02*
Y901530D01*
X456440D01*
X466189Y1041790D02*
X486311D01*
X466189Y1058790D02*
X486311D01*
X546009Y1127589D02*
X574131D01*
X546009Y1145711D02*
X574131D01*
X514140Y1213610D02*
X519640D01*
Y1242570D01*
X514140D02*
X519640D01*
X514140Y1213610D02*
Y1242570D01*
X498140Y1212950D02*
X510640D01*
X453800Y932590D02*
Y1027590D01*
X536800Y932590D02*
Y994840D01*
X735239Y1262551D02*
X763361D01*
X735239Y1244429D02*
X763361D01*
X733969Y1199979D02*
X762091D01*
X733969Y1218101D02*
X762091D01*
X395320Y1047080D02*
X407320D01*
X410820Y1047930D02*
Y1076930D01*
X412820D01*
Y1047930D02*
Y1076930D01*
X410820Y1047930D02*
X412820D01*
X348240Y1110950D02*
Y1136950D01*
X317240Y1110950D02*
Y1136950D01*
X358040Y1056540D02*
X370540D01*
X354540Y1026920D02*
Y1055880D01*
X349040Y1026920D02*
X354540D01*
X349040D02*
Y1055880D01*
X354540D01*
X250290Y1089230D02*
Y1179230D01*
X283040Y1089230D02*
X287290D01*
X250290D02*
X252540D01*
X287290Y1163980D02*
Y1179230D01*
Y1089230D02*
Y1104480D01*
X283040Y1179230D02*
X287290D01*
X250290D02*
X252540D01*
D12*
X708630Y1178590D02*
G03*
X709630Y1178590I500J0D01*
G01*
D02*
G03*
X708630Y1178590I-500J0D01*
G01*
D13*
X379070Y959590D02*
G03*
X379070Y959590I-1250J0D01*
G01*
X460984Y1130910D02*
G03*
X460984Y1130910I-1250J0D01*
G01*
X343740Y1142450D02*
G03*
X343740Y1142450I-1250J0D01*
G01*
X314040Y1156480D02*
G03*
X314040Y1156480I-1250J0D01*
G01*
D14*
X644820Y1191910D02*
X665820D01*
X644820Y1216010D02*
X665820D01*
X353800Y1206460D02*
X374300D01*
X295300D02*
X315800D01*
X295300D02*
Y1246460D01*
X312800Y1282460D02*
X356800D01*
X374300Y1206460D02*
Y1246460D01*
X397140Y1259910D02*
Y1263410D01*
X472140Y1259910D02*
Y1263410D01*
X397140Y1286910D02*
Y1289660D01*
X472140D01*
Y1286910D02*
Y1289660D01*
X416340Y1246160D02*
X417440D01*
X451840D02*
X452940D01*
D15*
X709933Y1216656D02*
X712473Y1219195D01*
X717551D01*
X720090Y1216656D01*
Y1206499D01*
X717551Y1203960D01*
X712473D01*
X709933Y1206499D01*
X704855Y1203960D02*
X699777D01*
X702316D01*
Y1219195D01*
X704855Y1216656D01*
X682002Y1219195D02*
X687081Y1216656D01*
X692159Y1211578D01*
Y1206499D01*
X689620Y1203960D01*
X684541D01*
X682002Y1206499D01*
Y1209038D01*
X684541Y1211578D01*
X692159D01*
X463550Y1182370D02*
Y1197605D01*
X455933D01*
X453393Y1195066D01*
Y1189987D01*
X455933Y1187448D01*
X463550D01*
X458472D02*
X453393Y1182370D01*
X448315D02*
X443237D01*
X445776D01*
Y1197605D01*
X448315Y1195066D01*
X425462Y1182370D02*
X435619D01*
X425462Y1192527D01*
Y1195066D01*
X428002Y1197605D01*
X433080D01*
X435619Y1195066D01*
X326390Y854705D02*
Y839470D01*
X318773D01*
X316233Y842009D01*
Y852166D01*
X318773Y854705D01*
X326390D01*
X300998Y839470D02*
X311155D01*
X300998Y849627D01*
Y852166D01*
X303537Y854705D01*
X308616D01*
X311155Y852166D01*
X375920Y1078225D02*
Y1065529D01*
X373381Y1062990D01*
X368302D01*
X365763Y1065529D01*
Y1078225D01*
X350528D02*
X355607Y1075686D01*
X360685Y1070608D01*
Y1065529D01*
X358146Y1062990D01*
X353067D01*
X350528Y1065529D01*
Y1068068D01*
X353067Y1070608D01*
X360685D01*
X340360Y1101085D02*
Y1088389D01*
X337821Y1085850D01*
X332743D01*
X330203Y1088389D01*
Y1101085D01*
X314968D02*
X325125D01*
Y1093467D01*
X320047Y1096007D01*
X317507D01*
X314968Y1093467D01*
Y1088389D01*
X317507Y1085850D01*
X322586D01*
X325125Y1088389D01*
X449580Y1099815D02*
Y1087119D01*
X447041Y1084580D01*
X441963D01*
X439423Y1087119D01*
Y1099815D01*
X426727Y1084580D02*
Y1099815D01*
X434345Y1092197D01*
X424188D01*
X541020Y1262375D02*
Y1249679D01*
X538481Y1247140D01*
X533402D01*
X530863Y1249679D01*
Y1262375D01*
X515628Y1247140D02*
X525785D01*
X515628Y1257297D01*
Y1259836D01*
X518167Y1262375D01*
X523246D01*
X525785Y1259836D01*
X282910Y1241645D02*
Y1228949D01*
X280371Y1226410D01*
X275292D01*
X272753Y1228949D01*
Y1241645D01*
X267675Y1226410D02*
X262597D01*
X265136D01*
Y1241645D01*
X267675Y1239106D01*
X687073Y1037586D02*
X689613Y1040125D01*
X694691D01*
X697230Y1037586D01*
Y1035047D01*
X694691Y1032507D01*
X689613D01*
X687073Y1029968D01*
Y1027429D01*
X689613Y1024890D01*
X694691D01*
X697230Y1027429D01*
X674377Y1024890D02*
Y1040125D01*
X681995Y1032507D01*
X671838D01*
X758193Y1032506D02*
X760732Y1035045D01*
X765811D01*
X768350Y1032506D01*
Y1029967D01*
X765811Y1027428D01*
X760732D01*
X758193Y1024888D01*
Y1022349D01*
X760732Y1019810D01*
X765811D01*
X768350Y1022349D01*
X753115Y1032506D02*
X750576Y1035045D01*
X745497D01*
X742958Y1032506D01*
Y1029967D01*
X745497Y1027428D01*
X748037D01*
X745497D01*
X742958Y1024888D01*
Y1022349D01*
X745497Y1019810D01*
X750576D01*
X753115Y1022349D01*
X789943Y896616D02*
X792483Y899155D01*
X797561D01*
X800100Y896616D01*
Y894077D01*
X797561Y891537D01*
X792483D01*
X789943Y888998D01*
Y886459D01*
X792483Y883920D01*
X797561D01*
X800100Y886459D01*
X774708Y883920D02*
X784865D01*
X774708Y894077D01*
Y896616D01*
X777247Y899155D01*
X782326D01*
X784865Y896616D01*
X274323Y909316D02*
X276863Y911855D01*
X281941D01*
X284480Y909316D01*
Y906777D01*
X281941Y904238D01*
X276863D01*
X274323Y901698D01*
Y899159D01*
X276863Y896620D01*
X281941D01*
X284480Y899159D01*
X269245Y896620D02*
X264167D01*
X266706D01*
Y911855D01*
X269245Y909316D01*
X434340Y1023620D02*
Y1038855D01*
X426722D01*
X424183Y1036316D01*
Y1031237D01*
X426722Y1028698D01*
X434340D01*
X429262D02*
X424183Y1023620D01*
X419105D02*
X414027D01*
X416566D01*
Y1038855D01*
X419105Y1036316D01*
X406409D02*
X403870Y1038855D01*
X398792D01*
X396252Y1036316D01*
Y1033777D01*
X398792Y1031237D01*
X396252Y1028698D01*
Y1026159D01*
X398792Y1023620D01*
X403870D01*
X406409Y1026159D01*
Y1028698D01*
X403870Y1031237D01*
X406409Y1033777D01*
Y1036316D01*
X403870Y1031237D02*
X398792D01*
X295910Y1026160D02*
X311145D01*
Y1033777D01*
X308606Y1036317D01*
X303528D01*
X300988Y1033777D01*
Y1026160D01*
Y1031238D02*
X295910Y1036317D01*
Y1041395D02*
Y1046473D01*
Y1043934D01*
X311145D01*
X308606Y1041395D01*
X311145Y1054091D02*
Y1064248D01*
X308606D01*
X298449Y1054091D01*
X295910D01*
X381000Y1146810D02*
Y1162045D01*
X373382D01*
X370843Y1159506D01*
Y1154427D01*
X373382Y1151888D01*
X381000D01*
X375922D02*
X370843Y1146810D01*
X365765D02*
X360687D01*
X363226D01*
Y1162045D01*
X365765Y1159506D01*
X342912Y1162045D02*
X347991Y1159506D01*
X353069Y1154427D01*
Y1149349D01*
X350530Y1146810D01*
X345452D01*
X342912Y1149349D01*
Y1151888D01*
X345452Y1154427D01*
X353069D01*
X375920Y1172210D02*
Y1187445D01*
X368302D01*
X365763Y1184906D01*
Y1179827D01*
X368302Y1177288D01*
X375920D01*
X370842D02*
X365763Y1172210D01*
X360685D02*
X355607D01*
X358146D01*
Y1187445D01*
X360685Y1184906D01*
X337832Y1187445D02*
X347989D01*
Y1179827D01*
X342911Y1182367D01*
X340372D01*
X337832Y1179827D01*
Y1174749D01*
X340372Y1172210D01*
X345450D01*
X347989Y1174749D01*
X706120Y1111250D02*
Y1126485D01*
X698503D01*
X695963Y1123946D01*
Y1118867D01*
X698503Y1116328D01*
X706120D01*
X701042D02*
X695963Y1111250D01*
X690885D02*
X685807D01*
X688346D01*
Y1126485D01*
X690885Y1123946D01*
X670572Y1111250D02*
Y1126485D01*
X678189Y1118867D01*
X668032D01*
X424180Y1148080D02*
Y1163315D01*
X416562D01*
X414023Y1160776D01*
Y1155697D01*
X416562Y1153158D01*
X424180D01*
X419102D02*
X414023Y1148080D01*
X408945D02*
X403867D01*
X406406D01*
Y1163315D01*
X408945Y1160776D01*
X396249D02*
X393710Y1163315D01*
X388632D01*
X386092Y1160776D01*
Y1158237D01*
X388632Y1155697D01*
X391171D01*
X388632D01*
X386092Y1153158D01*
Y1150619D01*
X388632Y1148080D01*
X393710D01*
X396249Y1150619D01*
X793750Y1178560D02*
Y1193795D01*
X786133D01*
X783593Y1191256D01*
Y1186178D01*
X786133Y1183638D01*
X793750D01*
X788672D02*
X783593Y1178560D01*
X778515D02*
X773437D01*
X775976D01*
Y1193795D01*
X778515Y1191256D01*
X765819Y1178560D02*
X760741D01*
X763280D01*
Y1193795D01*
X765819Y1191256D01*
X844550Y1253490D02*
X829315D01*
Y1245872D01*
X831854Y1243333D01*
X836933D01*
X839472Y1245872D01*
Y1253490D01*
Y1248412D02*
X844550Y1243333D01*
Y1238255D02*
Y1233177D01*
Y1235716D01*
X829315D01*
X831854Y1238255D01*
Y1225559D02*
X829315Y1223020D01*
Y1217942D01*
X831854Y1215402D01*
X842011D01*
X844550Y1217942D01*
Y1223020D01*
X842011Y1225559D01*
X831854D01*
X488950Y1209040D02*
Y1224275D01*
X481333D01*
X478793Y1221736D01*
Y1216657D01*
X481333Y1214118D01*
X488950D01*
X483872D02*
X478793Y1209040D01*
X473715Y1211579D02*
X471176Y1209040D01*
X466097D01*
X463558Y1211579D01*
Y1221736D01*
X466097Y1224275D01*
X471176D01*
X473715Y1221736D01*
Y1219197D01*
X471176Y1216657D01*
X463558D01*
X433070Y1217930D02*
Y1233165D01*
X425452D01*
X422913Y1230626D01*
Y1225547D01*
X425452Y1223008D01*
X433070D01*
X427992D02*
X422913Y1217930D01*
X417835Y1230626D02*
X415296Y1233165D01*
X410217D01*
X407678Y1230626D01*
Y1228087D01*
X410217Y1225547D01*
X407678Y1223008D01*
Y1220469D01*
X410217Y1217930D01*
X415296D01*
X417835Y1220469D01*
Y1223008D01*
X415296Y1225547D01*
X417835Y1228087D01*
Y1230626D01*
X415296Y1225547D02*
X410217D01*
X749300Y885250D02*
Y900485D01*
X741683D01*
X739143Y897946D01*
Y892868D01*
X741683Y890328D01*
X749300D01*
X744222D02*
X739143Y885250D01*
X734065Y900485D02*
X723908D01*
Y897946D01*
X734065Y887789D01*
Y885250D01*
X619760Y947420D02*
Y962655D01*
X612142D01*
X609603Y960116D01*
Y955038D01*
X612142Y952498D01*
X619760D01*
X614682D02*
X609603Y947420D01*
X594368Y962655D02*
X599447Y960116D01*
X604525Y955038D01*
Y949959D01*
X601986Y947420D01*
X596907D01*
X594368Y949959D01*
Y952498D01*
X596907Y955038D01*
X604525D01*
X650240Y941070D02*
Y956305D01*
X642623D01*
X640083Y953766D01*
Y948688D01*
X642623Y946148D01*
X650240D01*
X645162D02*
X640083Y941070D01*
X624848Y956305D02*
X635005D01*
Y948688D01*
X629927Y951227D01*
X627387D01*
X624848Y948688D01*
Y943609D01*
X627387Y941070D01*
X632466D01*
X635005Y943609D01*
X604520Y980440D02*
Y995675D01*
X596903D01*
X594363Y993136D01*
Y988057D01*
X596903Y985518D01*
X604520D01*
X599442D02*
X594363Y980440D01*
X581667D02*
Y995675D01*
X589285Y988057D01*
X579128D01*
X346710Y890270D02*
Y905505D01*
X339092D01*
X336553Y902966D01*
Y897887D01*
X339092Y895348D01*
X346710D01*
X341632D02*
X336553Y890270D01*
X331475Y902966D02*
X328936Y905505D01*
X323857D01*
X321318Y902966D01*
Y900427D01*
X323857Y897887D01*
X326397D01*
X323857D01*
X321318Y895348D01*
Y892809D01*
X323857Y890270D01*
X328936D01*
X331475Y892809D01*
X382270Y1002030D02*
Y1017265D01*
X374652D01*
X372113Y1014726D01*
Y1009648D01*
X374652Y1007108D01*
X382270D01*
X377192D02*
X372113Y1002030D01*
X356878D02*
X367035D01*
X356878Y1012187D01*
Y1014726D01*
X359417Y1017265D01*
X364496D01*
X367035Y1014726D01*
X441960Y999490D02*
Y1014725D01*
X434342D01*
X431803Y1012186D01*
Y1007107D01*
X434342Y1004568D01*
X441960D01*
X436882D02*
X431803Y999490D01*
X426725D02*
X421647D01*
X424186D01*
Y1014725D01*
X426725Y1012186D01*
X438149Y1056637D02*
X448306D01*
X450845Y1054098D01*
Y1049019D01*
X448306Y1046480D01*
X438149D01*
X435610Y1049019D01*
Y1054098D01*
X440688Y1051558D02*
X435610Y1056637D01*
Y1054098D02*
X438149Y1056637D01*
X435610Y1071872D02*
Y1061715D01*
X445767Y1071872D01*
X448306D01*
X450845Y1069333D01*
Y1064254D01*
X448306Y1061715D01*
X591823Y886459D02*
Y896616D01*
X594362Y899155D01*
X599441D01*
X601980Y896616D01*
Y886459D01*
X599441Y883920D01*
X594362D01*
X596902Y888998D02*
X591823Y883920D01*
X594362D02*
X591823Y886459D01*
X586745Y883920D02*
X581667D01*
X584206D01*
Y899155D01*
X586745Y896616D01*
X436880Y698500D02*
Y713735D01*
X429263D01*
X426723Y711196D01*
Y706117D01*
X429263Y703578D01*
X436880D01*
X411488Y698500D02*
X421645D01*
X411488Y708657D01*
Y711196D01*
X414027Y713735D01*
X419106D01*
X421645Y711196D01*
X317500Y697230D02*
Y712465D01*
X309883D01*
X307343Y709926D01*
Y704847D01*
X309883Y702308D01*
X317500D01*
X302265Y697230D02*
X297187D01*
X299726D01*
Y712465D01*
X302265Y709926D01*
X276413Y1075805D02*
X281492D01*
X278953D01*
Y1063109D01*
X281492Y1060570D01*
X284031D01*
X286570Y1063109D01*
X271335Y1073266D02*
X268796Y1075805D01*
X263717D01*
X261178Y1073266D01*
Y1070727D01*
X263717Y1068187D01*
X261178Y1065648D01*
Y1063109D01*
X263717Y1060570D01*
X268796D01*
X271335Y1063109D01*
Y1065648D01*
X268796Y1068187D01*
X271335Y1070727D01*
Y1073266D01*
X268796Y1068187D02*
X263717D01*
X505463Y1282695D02*
X510542D01*
X508003D01*
Y1269999D01*
X510542Y1267460D01*
X513081D01*
X515620Y1269999D01*
X500385Y1282695D02*
X490228D01*
Y1280156D01*
X500385Y1269999D01*
Y1267460D01*
X277653Y1216305D02*
X282732D01*
X280193D01*
Y1203609D01*
X282732Y1201070D01*
X285271D01*
X287810Y1203609D01*
X262418Y1216305D02*
X267497Y1213766D01*
X272575Y1208688D01*
Y1203609D01*
X270036Y1201070D01*
X264957D01*
X262418Y1203609D01*
Y1206148D01*
X264957Y1208688D01*
X272575D01*
X634749Y801111D02*
X644906D01*
Y793493D01*
X639828D01*
X644906D01*
Y785876D01*
X629671D02*
X624593D01*
X627132D01*
Y801111D01*
X629671Y798572D01*
X704850Y1162045D02*
Y1146810D01*
X697233D01*
X694693Y1149349D01*
Y1159506D01*
X697233Y1162045D01*
X704850D01*
X679458Y1159506D02*
X681997Y1162045D01*
X687076D01*
X689615Y1159506D01*
Y1156967D01*
X687076Y1154427D01*
X681997D01*
X679458Y1151888D01*
Y1149349D01*
X681997Y1146810D01*
X687076D01*
X689615Y1149349D01*
X664223Y1146810D02*
X674380D01*
X664223Y1156967D01*
Y1159506D01*
X666762Y1162045D01*
X671841D01*
X674380Y1159506D01*
X416560Y1198875D02*
Y1183640D01*
X408942D01*
X406403Y1186179D01*
Y1196336D01*
X408942Y1198875D01*
X416560D01*
X391168Y1196336D02*
X393707Y1198875D01*
X398786D01*
X401325Y1196336D01*
Y1193797D01*
X398786Y1191257D01*
X393707D01*
X391168Y1188718D01*
Y1186179D01*
X393707Y1183640D01*
X398786D01*
X401325Y1186179D01*
X386090Y1183640D02*
X381012D01*
X383551D01*
Y1198875D01*
X386090Y1196336D01*
X388623Y1115056D02*
X391162Y1117595D01*
X396241D01*
X398780Y1115056D01*
Y1104899D01*
X396241Y1102360D01*
X391162D01*
X388623Y1104899D01*
X383545Y1102360D02*
X378467D01*
X381006D01*
Y1117595D01*
X383545Y1115056D01*
X360692Y1117595D02*
X370849D01*
Y1109977D01*
X365771Y1112517D01*
X363232D01*
X360692Y1109977D01*
Y1104899D01*
X363232Y1102360D01*
X368310D01*
X370849Y1104899D01*
X485143Y1172206D02*
X487682Y1174745D01*
X492761D01*
X495300Y1172206D01*
Y1162049D01*
X492761Y1159510D01*
X487682D01*
X485143Y1162049D01*
X480065Y1159510D02*
X474987D01*
X477526D01*
Y1174745D01*
X480065Y1172206D01*
X459752Y1159510D02*
Y1174745D01*
X467369Y1167128D01*
X457212D01*
X755653Y1235706D02*
X758193Y1238245D01*
X763271D01*
X765810Y1235706D01*
Y1225549D01*
X763271Y1223010D01*
X758193D01*
X755653Y1225549D01*
X750575Y1223010D02*
X745497D01*
X748036D01*
Y1238245D01*
X750575Y1235706D01*
X737879D02*
X735340Y1238245D01*
X730262D01*
X727722Y1235706D01*
Y1233167D01*
X730262Y1230628D01*
X732801D01*
X730262D01*
X727722Y1228088D01*
Y1225549D01*
X730262Y1223010D01*
X735340D01*
X737879Y1225549D01*
X567693Y1118866D02*
X570233Y1121405D01*
X575311D01*
X577850Y1118866D01*
Y1108709D01*
X575311Y1106170D01*
X570233D01*
X567693Y1108709D01*
X562615Y1106170D02*
X557537D01*
X560076D01*
Y1121405D01*
X562615Y1118866D01*
X539762Y1106170D02*
X549919D01*
X539762Y1116327D01*
Y1118866D01*
X542301Y1121405D01*
X547380D01*
X549919Y1118866D01*
X481333Y1076956D02*
X483872Y1079495D01*
X488951D01*
X491490Y1076956D01*
Y1066799D01*
X488951Y1064260D01*
X483872D01*
X481333Y1066799D01*
X476255Y1064260D02*
X471177D01*
X473716D01*
Y1079495D01*
X476255Y1076956D01*
X463559Y1064260D02*
X458481D01*
X461020D01*
Y1079495D01*
X463559Y1076956D01*
X535936Y1045207D02*
X538475Y1042667D01*
Y1037589D01*
X535936Y1035050D01*
X525779D01*
X523240Y1037589D01*
Y1042667D01*
X525779Y1045207D01*
X523240Y1050285D02*
Y1055363D01*
Y1052824D01*
X538475D01*
X535936Y1050285D01*
Y1062981D02*
X538475Y1065520D01*
Y1070599D01*
X535936Y1073138D01*
X525779D01*
X523240Y1070599D01*
Y1065520D01*
X525779Y1062981D01*
X535936D01*
X713743Y1258566D02*
X716283Y1261105D01*
X721361D01*
X723900Y1258566D01*
Y1248409D01*
X721361Y1245870D01*
X716283D01*
X713743Y1248409D01*
X708665D02*
X706126Y1245870D01*
X701047D01*
X698508Y1248409D01*
Y1258566D01*
X701047Y1261105D01*
X706126D01*
X708665Y1258566D01*
Y1256027D01*
X706126Y1253487D01*
X698508D01*
X533396Y1090927D02*
X535935Y1088388D01*
Y1083309D01*
X533396Y1080770D01*
X523239D01*
X520700Y1083309D01*
Y1088388D01*
X523239Y1090927D01*
X533396Y1096005D02*
X535935Y1098544D01*
Y1103623D01*
X533396Y1106162D01*
X530857D01*
X528317Y1103623D01*
X525778Y1106162D01*
X523239D01*
X520700Y1103623D01*
Y1098544D01*
X523239Y1096005D01*
X525778D01*
X528317Y1098544D01*
X530857Y1096005D01*
X533396D01*
X528317Y1098544D02*
Y1103623D01*
X487676Y1112517D02*
X490215Y1109977D01*
Y1104899D01*
X487676Y1102360D01*
X477519D01*
X474980Y1104899D01*
Y1109977D01*
X477519Y1112517D01*
X490215Y1117595D02*
Y1127752D01*
X487676D01*
X477519Y1117595D01*
X474980D01*
X535936Y1134107D02*
X538475Y1131568D01*
Y1126489D01*
X535936Y1123950D01*
X525779D01*
X523240Y1126489D01*
Y1131568D01*
X525779Y1134107D01*
X538475Y1149342D02*
X535936Y1144263D01*
X530858Y1139185D01*
X525779D01*
X523240Y1141724D01*
Y1146803D01*
X525779Y1149342D01*
X528318D01*
X530858Y1146803D01*
Y1139185D01*
X539746Y1192527D02*
X542285Y1189987D01*
Y1184909D01*
X539746Y1182370D01*
X529589D01*
X527050Y1184909D01*
Y1189987D01*
X529589Y1192527D01*
X542285Y1207762D02*
Y1197605D01*
X534668D01*
X537207Y1202683D01*
Y1205223D01*
X534668Y1207762D01*
X529589D01*
X527050Y1205223D01*
Y1200144D01*
X529589Y1197605D01*
X405126Y985517D02*
X407665Y982978D01*
Y977899D01*
X405126Y975360D01*
X394969D01*
X392430Y977899D01*
Y982978D01*
X394969Y985517D01*
X392430Y998213D02*
X407665D01*
X400047Y990595D01*
Y1000752D01*
X342896Y944877D02*
X345435Y942337D01*
Y937259D01*
X342896Y934720D01*
X332739D01*
X330200Y937259D01*
Y942337D01*
X332739Y944877D01*
X342896Y949955D02*
X345435Y952494D01*
Y957573D01*
X342896Y960112D01*
X340357D01*
X337817Y957573D01*
Y955033D01*
Y957573D01*
X335278Y960112D01*
X332739D01*
X330200Y957573D01*
Y952494D01*
X332739Y949955D01*
X494033Y906776D02*
X496572Y909315D01*
X501651D01*
X504190Y906776D01*
Y896619D01*
X501651Y894080D01*
X496572D01*
X494033Y896619D01*
X478798Y894080D02*
X488955D01*
X478798Y904237D01*
Y906776D01*
X481337Y909315D01*
X486416D01*
X488955Y906776D01*
X633733Y867406D02*
X636273Y869945D01*
X641351D01*
X643890Y867406D01*
Y857249D01*
X641351Y854710D01*
X636273D01*
X633733Y857249D01*
X628655Y854710D02*
X623577D01*
X626116D01*
Y869945D01*
X628655Y867406D01*
X666750Y1187445D02*
Y1172210D01*
X659133D01*
X656593Y1174749D01*
Y1177288D01*
X659133Y1179827D01*
X666750D01*
X659133D01*
X656593Y1182367D01*
Y1184906D01*
X659133Y1187445D01*
X666750D01*
X641358D02*
X651515D01*
Y1179827D01*
X646437Y1182367D01*
X643897D01*
X641358Y1179827D01*
Y1174749D01*
X643897Y1172210D01*
X648976D01*
X651515Y1174749D01*
X765810Y1165855D02*
Y1150620D01*
X758193D01*
X755653Y1153159D01*
Y1155698D01*
X758193Y1158238D01*
X765810D01*
X758193D01*
X755653Y1160777D01*
Y1163316D01*
X758193Y1165855D01*
X765810D01*
X742957Y1150620D02*
Y1165855D01*
X750575Y1158238D01*
X740418D01*
X284480Y795015D02*
Y779780D01*
X276863D01*
X274323Y782319D01*
Y784858D01*
X276863Y787398D01*
X284480D01*
X276863D01*
X274323Y789937D01*
Y792476D01*
X276863Y795015D01*
X284480D01*
X269245Y792476D02*
X266706Y795015D01*
X261627D01*
X259088Y792476D01*
Y789937D01*
X261627Y787398D01*
X264167D01*
X261627D01*
X259088Y784858D01*
Y782319D01*
X261627Y779780D01*
X266706D01*
X269245Y782319D01*
X636120Y687065D02*
Y671830D01*
X628503D01*
X625963Y674369D01*
Y676908D01*
X628503Y679447D01*
X636120D01*
X628503D01*
X625963Y681987D01*
Y684526D01*
X628503Y687065D01*
X636120D01*
X610728Y671830D02*
X620885D01*
X610728Y681987D01*
Y684526D01*
X613267Y687065D01*
X618346D01*
X620885Y684526D01*
X453390Y768345D02*
Y753110D01*
X445773D01*
X443233Y755649D01*
Y758188D01*
X445773Y760727D01*
X453390D01*
X445773D01*
X443233Y763267D01*
Y765806D01*
X445773Y768345D01*
X453390D01*
X438155Y753110D02*
X433077D01*
X435616D01*
Y768345D01*
X438155Y765806D01*
X370840Y920750D02*
Y930907D01*
X365762Y935985D01*
X360683Y930907D01*
Y920750D01*
Y928367D01*
X370840D01*
X355605Y920750D02*
X350527D01*
X353066D01*
Y935985D01*
X355605Y933446D01*
D114*
X314300Y1196460D02*
G03*
X314300Y1196460I-1000J0D01*
G01*
X421640Y1235410D02*
G03*
X421640Y1235410I-1000J0D01*
G01*
D115*
X412760Y1206040D02*
Y1212040D01*
X679440Y1168210D02*
Y1176210D01*
M02*
