G04*
G04 #@! TF.GenerationSoftware,Altium Limited,Altium Designer,20.0.2 (26)*
G04*
G04 Layer_Color=32768*
%FSLAX44Y44*%
%MOMM*%
G71*
G01*
G75*
%ADD11C,0.2000*%
%ADD12C,0.1000*%
%ADD116C,0.0500*%
D11*
X686310Y1184530D02*
X718310D01*
Y1200530D01*
X686310D02*
X718310D01*
X686310Y1184530D02*
Y1200530D01*
X255880Y741660D02*
X351180D01*
Y789960D01*
X255880D02*
X351180D01*
X255880Y741660D02*
Y789960D01*
X544130Y659850D02*
X704130D01*
X544130D02*
Y829850D01*
X704130D01*
Y659850D02*
Y829850D01*
X712630Y1153590D02*
X732630D01*
X712630D02*
Y1175590D01*
X732630D01*
Y1153590D02*
Y1175590D01*
D12*
X738930Y914400D02*
X744430D01*
X741680Y911650D02*
Y917150D01*
X852170Y1239310D02*
Y1244810D01*
X849420Y1242060D02*
X854920D01*
X631180Y884490D02*
X646380Y899690D01*
Y884490D02*
Y934290D01*
X542180D02*
X646380D01*
X542180Y884490D02*
Y934290D01*
Y884490D02*
X646380D01*
X608330Y966260D02*
Y971760D01*
X605580Y969010D02*
X611080D01*
X380060Y731230D02*
Y790230D01*
Y731230D02*
X505060D01*
Y790230D01*
X380060D02*
X505060D01*
X412790Y989250D02*
X417790D01*
Y979250D02*
Y989250D01*
X412790Y979250D02*
X417790D01*
X412790D02*
Y989250D01*
X631190Y735410D02*
Y745410D01*
X626190Y740410D02*
X636190D01*
X329510Y914400D02*
X338510D01*
X334010Y909900D02*
Y918900D01*
X247680Y929860D02*
Y1020860D01*
Y929860D02*
X283180D01*
Y1020860D01*
X247680D02*
X283180D01*
X436880Y1203750D02*
Y1209250D01*
X434130Y1206500D02*
X439630D01*
X394970Y1221530D02*
Y1227030D01*
X392220Y1224280D02*
X397720D01*
X382060Y1031240D02*
X387560D01*
X384810Y1028490D02*
Y1033990D01*
X401320Y1169460D02*
Y1174960D01*
X398570Y1172210D02*
X404070D01*
X395010Y1209040D02*
X400010D01*
X397510Y1206540D02*
Y1211540D01*
X694690Y1169710D02*
Y1174710D01*
X692190Y1172210D02*
X697190D01*
X683050Y1136650D02*
X688550D01*
X685800Y1133900D02*
Y1139400D01*
X508890Y1213610D02*
X524890D01*
Y1242570D01*
X508890D02*
X524890D01*
X508890Y1213610D02*
Y1242570D01*
Y1223010D02*
X518290Y1213610D01*
X477520Y1229150D02*
Y1234650D01*
X474770Y1231900D02*
X480270D01*
X325120Y1174540D02*
Y1180040D01*
X322370Y1177290D02*
X327870D01*
X453800Y932590D02*
Y994840D01*
X474550Y1015590D01*
X516050D01*
X536800Y994840D01*
Y932590D02*
Y994840D01*
X453800Y932590D02*
X536800D01*
X316020Y1046480D02*
X321520D01*
X318770Y1043730D02*
Y1049230D01*
X746760Y1183430D02*
Y1188930D01*
X744010Y1186180D02*
X749510D01*
X405320Y1057530D02*
X414920Y1047930D01*
X405320D02*
Y1076930D01*
X418320D01*
Y1047930D02*
Y1076930D01*
X405320Y1047930D02*
X418320D01*
X326390Y1147870D02*
Y1153370D01*
X323640Y1150620D02*
X329140D01*
X350390Y1055880D02*
X359790Y1046480D01*
Y1026920D02*
Y1055880D01*
X343790Y1026920D02*
X359790D01*
X343790D02*
Y1055880D01*
X359790D01*
X421640Y676990D02*
Y686990D01*
X416640Y681990D02*
X426640D01*
X308610Y676990D02*
Y686990D01*
X303610Y681990D02*
X313610D01*
D116*
X639170Y1190960D02*
Y1216960D01*
X671470Y1190960D02*
Y1216960D01*
X639170Y1190960D02*
X671470D01*
X639170Y1216960D02*
X671470D01*
X745680Y906900D02*
Y921900D01*
X737680Y906900D02*
Y921900D01*
Y906900D02*
X745680D01*
X737680Y921900D02*
X745680D01*
X847670Y1251060D02*
X856670D01*
X847670Y1233060D02*
X856670D01*
X847670D02*
Y1251060D01*
X856670Y1233060D02*
Y1251060D01*
X754860Y932810D02*
X819940D01*
X754860Y847730D02*
Y932810D01*
Y847730D02*
X819940D01*
Y932810D01*
X720570Y1058540D02*
X785650D01*
X720570Y973460D02*
Y1058540D01*
Y973460D02*
X785650D01*
Y1058540D01*
X714530Y978540D02*
Y1063620D01*
X649450Y978540D02*
X714530D01*
X649450D02*
Y1063620D01*
X714530D01*
X600830Y973010D02*
X615830D01*
X600830Y965010D02*
X615830D01*
Y973010D01*
X600830Y965010D02*
Y973010D01*
X615190Y702910D02*
X647190D01*
X615190Y777910D02*
X647190D01*
Y702910D02*
Y777910D01*
X615190Y702910D02*
Y777910D01*
X344510Y908900D02*
Y919900D01*
X323510Y908900D02*
Y919900D01*
X344510D01*
X323510Y908900D02*
X344510D01*
X539920Y891100D02*
X719920D01*
X539920Y836100D02*
Y891100D01*
X719920Y836100D02*
Y891100D01*
X539920Y836100D02*
X719920D01*
X427880Y1202000D02*
X445880D01*
X427880Y1211000D02*
X445880D01*
X427880Y1202000D02*
Y1211000D01*
X445880Y1202000D02*
Y1211000D01*
X385970Y1219780D02*
X403970D01*
X385970Y1228780D02*
X403970D01*
X385970Y1219780D02*
Y1228780D01*
X403970Y1219780D02*
Y1228780D01*
X392310Y1027240D02*
Y1035240D01*
X377310Y1027240D02*
Y1035240D01*
X392310D01*
X377310Y1027240D02*
X392310D01*
X392320Y1176710D02*
X410320D01*
X392320Y1167710D02*
X410320D01*
Y1176710D01*
X392320Y1167710D02*
Y1176710D01*
X291300Y1286960D02*
X378300D01*
X291300Y1203960D02*
Y1286960D01*
Y1203960D02*
X317300D01*
Y1189960D02*
Y1203960D01*
Y1189960D02*
X352300D01*
Y1203960D01*
X378300D01*
Y1286960D01*
X385140Y1239160D02*
X484140D01*
Y1305270D01*
X385140D02*
X484140D01*
X385140Y1239160D02*
Y1305270D01*
X386260Y1204040D02*
X408760D01*
Y1214040D01*
X386260D02*
X408760D01*
X386260Y1204040D02*
Y1214040D01*
X358940Y846030D02*
Y861530D01*
Y888530D02*
Y904030D01*
X288940Y861530D02*
X358940D01*
X288940Y888530D02*
X358940D01*
X458940Y846030D02*
Y861530D01*
X528940D01*
X458940Y888530D02*
Y904030D01*
Y888530D02*
X528940D01*
Y861530D02*
Y888530D01*
X358940Y846030D02*
X458940D01*
X288940Y861530D02*
Y888530D01*
X358940Y904030D02*
X458940D01*
X683440Y1167210D02*
Y1177210D01*
Y1167210D02*
X705940D01*
Y1177210D01*
X683440Y1177290D02*
X705940D01*
X694800Y1132150D02*
Y1141150D01*
X676800Y1132150D02*
Y1141150D01*
X694800D01*
X676800Y1132150D02*
X694800D01*
X468520Y1236400D02*
X486520D01*
X468520Y1227400D02*
X486520D01*
Y1236400D01*
X468520Y1227400D02*
Y1236400D01*
X317620Y1173290D02*
X332620D01*
X317620Y1181290D02*
X332620D01*
X317620Y1173290D02*
Y1181290D01*
X332620Y1173290D02*
Y1181290D01*
X314770Y1038980D02*
Y1053980D01*
X322770Y1038980D02*
Y1053980D01*
X314770D02*
X322770D01*
X314770Y1038980D02*
X322770D01*
X737760Y1190680D02*
X755760D01*
X737760Y1181680D02*
X755760D01*
Y1190680D01*
X737760Y1181680D02*
Y1190680D01*
X318890Y1146620D02*
X333890D01*
X318890Y1154620D02*
X333890D01*
X318890Y1146620D02*
Y1154620D01*
X333890Y1146620D02*
Y1154620D01*
X364141Y640489D02*
Y723489D01*
Y640489D02*
X473439D01*
X364141Y723489D02*
X473439D01*
Y640489D02*
Y723490D01*
X251111Y640489D02*
Y723489D01*
Y640489D02*
X360409D01*
X251111Y723489D02*
X360409D01*
Y640489D02*
Y723490D01*
X621530Y1112770D02*
Y1322770D01*
Y1112770D02*
X780530D01*
Y1322770D01*
X621530D02*
X780530D01*
M02*
