G04*
G04 #@! TF.GenerationSoftware,Altium Limited,Altium Designer,20.0.2 (26)*
G04*
G04 Layer_Physical_Order=4*
G04 Layer_Color=16711680*
%FSLAX44Y44*%
%MOMM*%
G71*
G01*
G75*
%ADD15C,0.2540*%
%ADD26C,1.5700*%
%ADD35C,1.4500*%
%ADD36R,1.4500X1.4500*%
%ADD43R,1.5000X1.5000*%
%ADD44C,1.5000*%
%ADD45R,1.5000X1.5000*%
%ADD46R,1.5080X1.5080*%
%ADD47C,1.5080*%
%ADD48C,1.9650*%
%ADD49R,1.9650X1.9650*%
%ADD50C,1.2690*%
%ADD51C,1.4000*%
%ADD52C,1.2000*%
%ADD53C,2.2500*%
%ADD54R,2.2500X2.2500*%
%ADD55R,1.8000X1.8000*%
%ADD56C,1.8000*%
%ADD57C,1.2700*%
%ADD58R,1.8000X1.2300*%
%ADD59R,0.9000X1.3000*%
G04:AMPARAMS|DCode=60|XSize=0.76mm|YSize=0.27mm|CornerRadius=0.0338mm|HoleSize=0mm|Usage=FLASHONLY|Rotation=180.000|XOffset=0mm|YOffset=0mm|HoleType=Round|Shape=RoundedRectangle|*
%AMROUNDEDRECTD60*
21,1,0.7600,0.2025,0,0,180.0*
21,1,0.6925,0.2700,0,0,180.0*
1,1,0.0675,-0.3463,0.1013*
1,1,0.0675,0.3463,0.1013*
1,1,0.0675,0.3463,-0.1013*
1,1,0.0675,-0.3463,-0.1013*
%
%ADD60ROUNDEDRECTD60*%
%ADD61R,0.4500X0.5000*%
%ADD62R,0.5500X0.6000*%
%ADD63R,0.7581X0.8121*%
%ADD64R,0.5000X0.4500*%
%ADD65R,0.7154X0.6725*%
%ADD66R,1.5562X1.4546*%
%ADD67R,0.6725X0.7154*%
%ADD68R,0.7200X0.6900*%
%ADD69R,0.6000X1.3000*%
%ADD70R,0.6000X0.8000*%
%ADD71R,2.6500X2.0500*%
%ADD72R,0.6000X0.8000*%
%ADD73R,1.2000X0.7000*%
%ADD74R,0.6000X0.5500*%
%ADD75R,1.0000X3.5000*%
%ADD76R,1.5000X3.4000*%
%ADD77R,0.4000X1.3500*%
%ADD78R,2.1000X1.6000*%
%ADD79R,1.8000X1.9000*%
%ADD80R,1.9000X1.9000*%
G04:AMPARAMS|DCode=81|XSize=1.3383mm|YSize=0.578mm|CornerRadius=0.289mm|HoleSize=0mm|Usage=FLASHONLY|Rotation=180.000|XOffset=0mm|YOffset=0mm|HoleType=Round|Shape=RoundedRectangle|*
%AMROUNDEDRECTD81*
21,1,1.3383,0.0000,0,0,180.0*
21,1,0.7603,0.5780,0,0,180.0*
1,1,0.5780,-0.3802,0.0000*
1,1,0.5780,0.3802,0.0000*
1,1,0.5780,0.3802,0.0000*
1,1,0.5780,-0.3802,0.0000*
%
%ADD81ROUNDEDRECTD81*%
%ADD82R,1.3383X0.5780*%
%ADD83R,1.1581X1.0121*%
%ADD84R,1.2500X0.6500*%
%ADD85R,2.1500X4.0000*%
%ADD86R,0.7000X0.7000*%
%ADD87R,1.2000X0.6500*%
%ADD88R,0.3500X0.5000*%
%ADD89R,2.3000X1.5000*%
%ADD90R,3.6000X0.7000*%
G36*
X873760Y664210D02*
X254000D01*
X254000Y1081190D01*
X266520D01*
Y1091230D01*
Y1101270D01*
X254000D01*
Y1167190D01*
X266520D01*
Y1177230D01*
Y1187270D01*
X254000D01*
Y1287780D01*
X290313D01*
X291260Y1287000D01*
X291260Y1286510D01*
Y1268730D01*
X301300D01*
X311340D01*
Y1286510D01*
X311340Y1287000D01*
X312287Y1287780D01*
X357313D01*
X358260Y1287000D01*
X358260Y1286510D01*
Y1268730D01*
X368300D01*
X378340D01*
Y1286510D01*
X378340Y1287000D01*
X379287Y1287780D01*
X384070D01*
X385100Y1287200D01*
Y1276430D01*
X396640D01*
Y1273890D01*
X385100D01*
Y1263120D01*
X393795D01*
Y1260200D01*
X390600D01*
Y1252505D01*
X388600D01*
X387511Y1252288D01*
X386589Y1251671D01*
X381529Y1246611D01*
X380912Y1245689D01*
X380874Y1245498D01*
X379057Y1244745D01*
X377200Y1243320D01*
X375775Y1241463D01*
X374879Y1239301D01*
X374740Y1238250D01*
X383540D01*
Y1236980D01*
X384810D01*
Y1228180D01*
X384930Y1228196D01*
X386200Y1227160D01*
Y1220010D01*
X387645D01*
Y1214560D01*
X385740D01*
Y1203520D01*
X387415D01*
Y1162950D01*
X387632Y1161861D01*
X388249Y1160939D01*
X388315Y1160872D01*
Y1153634D01*
X388532Y1152545D01*
X389149Y1151622D01*
X402917Y1137854D01*
X402288Y1136687D01*
X400269Y1136421D01*
X398107Y1135525D01*
X396970Y1134653D01*
X396772Y1134851D01*
X395849Y1135468D01*
X394761Y1135685D01*
X389791D01*
Y1139441D01*
X384730D01*
Y1132840D01*
Y1126239D01*
X389791D01*
Y1129995D01*
X392695D01*
X393554Y1129030D01*
X402590D01*
Y1127760D01*
X403860D01*
Y1118960D01*
X404911Y1119099D01*
X407073Y1119995D01*
X408930Y1121420D01*
X410355Y1123277D01*
X411251Y1125439D01*
X411517Y1127458D01*
X412684Y1128087D01*
X422873Y1117898D01*
Y1116406D01*
X421916D01*
X420196Y1116064D01*
X418737Y1115089D01*
X417762Y1113631D01*
X417420Y1111910D01*
X417762Y1110189D01*
X418737Y1108731D01*
X420196Y1107756D01*
X421916Y1107414D01*
X422605D01*
Y1099728D01*
X409469Y1086591D01*
X408852Y1085669D01*
X408635Y1084580D01*
Y1076800D01*
X404165D01*
Y1084860D01*
X405289Y1085326D01*
X406933Y1086587D01*
X408194Y1088231D01*
X408987Y1090145D01*
X409258Y1092200D01*
X408987Y1094255D01*
X408194Y1096169D01*
X406933Y1097813D01*
X405289Y1099074D01*
X403374Y1099867D01*
X401320Y1100138D01*
X399266Y1099867D01*
X397351Y1099074D01*
X395707Y1097813D01*
X394446Y1096169D01*
X393653Y1094255D01*
X393382Y1092200D01*
X393653Y1090145D01*
X394446Y1088231D01*
X395707Y1086587D01*
X397351Y1085326D01*
X398475Y1084860D01*
Y1076800D01*
X393800D01*
Y1074875D01*
X372260D01*
X371171Y1074658D01*
X370249Y1074041D01*
X362279Y1066071D01*
X361662Y1065149D01*
X361445Y1064060D01*
Y1055570D01*
X356520D01*
Y1047190D01*
X355500D01*
Y1042670D01*
X364290D01*
X373080D01*
Y1047190D01*
X372060D01*
Y1055570D01*
X367135D01*
Y1062882D01*
X373438Y1069185D01*
X393800D01*
Y1067260D01*
X408635D01*
Y1061418D01*
X404817Y1057600D01*
X393800D01*
Y1048060D01*
X398475D01*
Y1032418D01*
X394773Y1028716D01*
X393600Y1029202D01*
Y1029970D01*
X388560D01*
Y1031240D01*
X387290D01*
Y1036030D01*
X384155D01*
Y1043870D01*
X384324Y1043893D01*
X386239Y1044686D01*
X387883Y1045947D01*
X389144Y1047591D01*
X389937Y1049505D01*
X390208Y1051560D01*
X389937Y1053615D01*
X389144Y1055529D01*
X387883Y1057173D01*
X386239Y1058434D01*
X384324Y1059227D01*
X382270Y1059498D01*
X380215Y1059227D01*
X378301Y1058434D01*
X376657Y1057173D01*
X375396Y1055529D01*
X374603Y1053615D01*
X374332Y1051560D01*
X374603Y1049505D01*
X375396Y1047591D01*
X376657Y1045947D01*
X378301Y1044686D01*
X378465Y1044617D01*
Y1035010D01*
X377040D01*
Y1034465D01*
X373381D01*
X373080Y1035610D01*
X373080D01*
Y1040130D01*
X364290D01*
X355500D01*
Y1035610D01*
X356520D01*
Y1027230D01*
X372060D01*
Y1028775D01*
X377040D01*
Y1027470D01*
X382902D01*
X383386Y1026465D01*
X382877Y1025195D01*
X287020D01*
X285931Y1024978D01*
X285009Y1024361D01*
X268499Y1007851D01*
X267882Y1006929D01*
X267665Y1005840D01*
Y939800D01*
X267882Y938711D01*
X268499Y937789D01*
X300095Y906192D01*
Y887536D01*
X299606Y887471D01*
X296500Y886184D01*
X293832Y884138D01*
X291786Y881470D01*
X290499Y878364D01*
X290060Y875030D01*
X290499Y871696D01*
X291786Y868590D01*
X293832Y865922D01*
X296500Y863876D01*
X299606Y862589D01*
X302940Y862150D01*
X306274Y862589D01*
X309380Y863876D01*
X312048Y865922D01*
X314095Y868590D01*
X315381Y871696D01*
X315820Y875030D01*
X315381Y878364D01*
X314095Y881470D01*
X312048Y884138D01*
X309380Y886184D01*
X306274Y887471D01*
X305785Y887536D01*
Y907370D01*
X305568Y908459D01*
X304951Y909381D01*
X273355Y940978D01*
Y1004662D01*
X288198Y1019505D01*
X392430D01*
X393519Y1019722D01*
X394441Y1020339D01*
X403331Y1029229D01*
X403948Y1030151D01*
X404165Y1031240D01*
Y1048060D01*
X408840D01*
Y1053577D01*
X413491Y1058229D01*
X413530Y1058286D01*
X414800Y1057901D01*
Y1057660D01*
X429840D01*
Y1067200D01*
X425165D01*
Y1071382D01*
X450054Y1096271D01*
X450670Y1097194D01*
X450887Y1098282D01*
Y1107414D01*
X451844D01*
X453564Y1107756D01*
X455023Y1108731D01*
X455247Y1109065D01*
X460484D01*
X461572Y1109282D01*
X462495Y1109899D01*
X476741Y1124145D01*
X477358Y1125068D01*
X477575Y1126156D01*
Y1140120D01*
X478845Y1140746D01*
X479901Y1139936D01*
X481815Y1139143D01*
X483870Y1138872D01*
X485924Y1139143D01*
X487839Y1139936D01*
X489483Y1141197D01*
X490744Y1142841D01*
X491537Y1144755D01*
X491808Y1146810D01*
X491537Y1148865D01*
X491462Y1149045D01*
X492311Y1150315D01*
X510155D01*
Y1145669D01*
X509257Y1144771D01*
X507689Y1144771D01*
X506791Y1145667D01*
Y1145791D01*
X501730D01*
Y1139190D01*
Y1132589D01*
X506791D01*
Y1132713D01*
X507689Y1133609D01*
X508061Y1133609D01*
X510155D01*
Y1121539D01*
X509257Y1120641D01*
X507689Y1120641D01*
X506791Y1121537D01*
Y1121661D01*
X501730D01*
Y1115060D01*
X500460D01*
Y1113790D01*
X494129D01*
Y1108459D01*
X497616D01*
Y1096261D01*
X494129D01*
Y1090930D01*
X500460D01*
Y1089660D01*
X501730D01*
Y1083059D01*
X506791D01*
Y1083183D01*
X507689Y1084079D01*
X508061Y1084079D01*
X510155D01*
Y1064761D01*
X507689D01*
X506791Y1065657D01*
Y1065781D01*
X501730D01*
Y1059180D01*
X500460D01*
Y1057910D01*
X494129D01*
Y1053135D01*
X487831D01*
Y1055871D01*
X477581D01*
X477209Y1055871D01*
X476311Y1056767D01*
Y1056891D01*
X471250D01*
Y1050290D01*
Y1043689D01*
X476311D01*
Y1043813D01*
X477209Y1044709D01*
X477581Y1044709D01*
X487831D01*
Y1047445D01*
X504380D01*
X505468Y1047662D01*
X506391Y1048279D01*
X511712Y1053599D01*
X518311D01*
Y1064761D01*
X515844D01*
Y1084079D01*
X518311D01*
Y1095241D01*
X515844D01*
Y1109479D01*
X518311D01*
Y1120641D01*
X515844D01*
Y1133609D01*
X518311D01*
Y1144771D01*
X515844D01*
Y1151672D01*
X515628Y1152761D01*
X515011Y1153683D01*
X513523Y1155171D01*
X512601Y1155788D01*
X511512Y1156005D01*
X490220D01*
X489131Y1155788D01*
X488209Y1155171D01*
X487049Y1154012D01*
X485924Y1154477D01*
X483870Y1154748D01*
X481815Y1154477D01*
X479901Y1153684D01*
X478845Y1152874D01*
X477575Y1153500D01*
Y1172052D01*
X483231Y1177708D01*
X484356Y1177243D01*
X486410Y1176972D01*
X488465Y1177243D01*
X490379Y1178036D01*
X492023Y1179297D01*
X493284Y1180941D01*
X493750Y1182065D01*
X499122D01*
X507553Y1173634D01*
X507067Y1172461D01*
X500479D01*
Y1167130D01*
X506810D01*
Y1165860D01*
X508080D01*
Y1159259D01*
X513141D01*
Y1159383D01*
X514039Y1160279D01*
X524661D01*
Y1171441D01*
X517792D01*
X502311Y1186921D01*
X502270Y1186949D01*
X502655Y1188219D01*
X509209D01*
X509581Y1188219D01*
X510479Y1187323D01*
Y1187199D01*
X515540D01*
Y1193800D01*
Y1200401D01*
X510479D01*
Y1200277D01*
X509581Y1199381D01*
X509209Y1199381D01*
X498959D01*
Y1196645D01*
X493200D01*
X493150Y1196678D01*
X492062Y1196895D01*
X475230D01*
X474141Y1196678D01*
X473218Y1196061D01*
X450219Y1173062D01*
X449095Y1173527D01*
X447040Y1173798D01*
X444986Y1173527D01*
X443071Y1172734D01*
X442015Y1171924D01*
X440745Y1172550D01*
Y1180754D01*
X443142Y1183151D01*
X443758Y1184073D01*
X443975Y1185162D01*
Y1202230D01*
X445650D01*
Y1209691D01*
X446920Y1210217D01*
X451379Y1205759D01*
X452301Y1205142D01*
X453390Y1204925D01*
X521400D01*
X530305Y1196020D01*
Y1118458D01*
X530522Y1117370D01*
X531139Y1116447D01*
X545077Y1102509D01*
X546000Y1101892D01*
X547088Y1101675D01*
X585611D01*
X586042Y1100406D01*
X585387Y1099903D01*
X583941Y1098019D01*
X583032Y1095825D01*
X582722Y1093470D01*
X583032Y1091115D01*
X583941Y1088921D01*
X585387Y1087037D01*
X587271Y1085591D01*
X589465Y1084682D01*
X589193Y1083485D01*
X569090D01*
Y1099950D01*
X551050D01*
Y1085933D01*
X541549Y1076431D01*
X540932Y1075509D01*
X540715Y1074420D01*
Y956352D01*
X540932Y955263D01*
X541549Y954341D01*
X552891Y942999D01*
X553813Y942382D01*
X554902Y942165D01*
X662263D01*
X662659Y940895D01*
X661411Y939269D01*
X660502Y937075D01*
X660192Y934720D01*
X660502Y932365D01*
X661411Y930171D01*
X662857Y928287D01*
X664741Y926841D01*
X666935Y925932D01*
X669290Y925622D01*
X671645Y925932D01*
X673839Y926841D01*
X675723Y928287D01*
X677169Y930171D01*
X678078Y932365D01*
X678388Y934720D01*
X678078Y937075D01*
X677169Y939269D01*
X675921Y940895D01*
X676317Y942165D01*
X702666D01*
X703362Y941469D01*
X704285Y940852D01*
X705374Y940636D01*
X743012D01*
X755840Y927807D01*
Y917733D01*
X751602Y913495D01*
X745450D01*
Y922170D01*
X737910D01*
Y921025D01*
X713826D01*
X713035Y922935D01*
X711533Y924893D01*
X709575Y926395D01*
X707296Y927339D01*
X704850Y927661D01*
X702404Y927339D01*
X700125Y926395D01*
X698167Y924893D01*
X696665Y922935D01*
X695721Y920656D01*
X695399Y918210D01*
X695721Y915764D01*
X696665Y913485D01*
X698167Y911527D01*
X700125Y910025D01*
X702404Y909081D01*
X704850Y908759D01*
X707296Y909081D01*
X709575Y910025D01*
X711533Y911527D01*
X713035Y913485D01*
X713801Y915335D01*
X737910D01*
Y906630D01*
X745450D01*
Y907805D01*
X752780D01*
X753869Y908022D01*
X754791Y908639D01*
X759863Y913710D01*
X762055D01*
Y866398D01*
X760331Y865684D01*
X758438Y864232D01*
X756986Y862339D01*
X756073Y860135D01*
X755762Y857770D01*
X756073Y855405D01*
X756986Y853201D01*
X758438Y851308D01*
X760331Y849856D01*
X762535Y848943D01*
X764900Y848632D01*
X767265Y848943D01*
X769469Y849856D01*
X771362Y851308D01*
X772814Y853201D01*
X773727Y855405D01*
X774038Y857770D01*
X773727Y860135D01*
X772814Y862339D01*
X771362Y864232D01*
X769469Y865684D01*
X767745Y866398D01*
Y913710D01*
X773960D01*
Y931830D01*
X759863D01*
X746201Y945491D01*
X745278Y946108D01*
X744889Y946186D01*
X744631Y946692D01*
X744476Y947563D01*
X745749Y949221D01*
X746658Y951415D01*
X746968Y953770D01*
X746658Y956125D01*
X745749Y958319D01*
X745722Y958354D01*
X747501Y960133D01*
X748118Y961056D01*
X748335Y962145D01*
Y1046572D01*
X798738Y1096975D01*
X801675D01*
X802381Y1095271D01*
X803827Y1093387D01*
X805711Y1091941D01*
X807905Y1091032D01*
X810260Y1090722D01*
X812615Y1091032D01*
X814809Y1091941D01*
X816693Y1093387D01*
X818139Y1095271D01*
X819048Y1097465D01*
X819358Y1099820D01*
X819048Y1102175D01*
X818139Y1104369D01*
X816693Y1106253D01*
X814809Y1107699D01*
X812615Y1108608D01*
X810260Y1108918D01*
X807905Y1108608D01*
X805711Y1107699D01*
X803827Y1106253D01*
X802381Y1104369D01*
X801675Y1102665D01*
X797560D01*
X796471Y1102448D01*
X795549Y1101831D01*
X743479Y1049761D01*
X742862Y1048839D01*
X742645Y1047750D01*
Y963323D01*
X741395Y962073D01*
X740225Y962558D01*
X737870Y962868D01*
X735515Y962558D01*
X733321Y961649D01*
X731437Y960203D01*
X729991Y958319D01*
X729082Y956125D01*
X728772Y953770D01*
X729082Y951415D01*
X729991Y949221D01*
X731239Y947595D01*
X730844Y946325D01*
X706552D01*
X705855Y947021D01*
X704932Y947638D01*
X703844Y947855D01*
X556080D01*
X546405Y957530D01*
Y1048113D01*
X547578Y1048599D01*
X551988Y1044189D01*
X551282Y1042485D01*
X550972Y1040130D01*
X551282Y1037775D01*
X552191Y1035581D01*
X553637Y1033697D01*
X555521Y1032251D01*
X557715Y1031342D01*
X560070Y1031032D01*
X562425Y1031342D01*
X564619Y1032251D01*
X566503Y1033697D01*
X567949Y1035581D01*
X568858Y1037775D01*
X569168Y1040130D01*
X568858Y1042485D01*
X567949Y1044679D01*
X566503Y1046563D01*
X564619Y1048009D01*
X562425Y1048918D01*
X560070Y1049228D01*
X557715Y1048918D01*
X556011Y1048212D01*
X550465Y1053758D01*
Y1061831D01*
X551735Y1062083D01*
X552191Y1060981D01*
X553637Y1059097D01*
X555521Y1057651D01*
X557715Y1056742D01*
X560070Y1056432D01*
X562425Y1056742D01*
X564619Y1057651D01*
X566503Y1059097D01*
X567949Y1060981D01*
X568245Y1061696D01*
X569743Y1061994D01*
X577109Y1054629D01*
X578031Y1054012D01*
X579120Y1053795D01*
X623014D01*
X623267Y1052525D01*
X621561Y1051819D01*
X619677Y1050373D01*
X618231Y1048489D01*
X617322Y1046295D01*
X617012Y1043940D01*
X617322Y1041585D01*
X618231Y1039391D01*
X619677Y1037507D01*
X621561Y1036061D01*
X623755Y1035152D01*
X626110Y1034842D01*
X628465Y1035152D01*
X630659Y1036061D01*
X632543Y1037507D01*
X633989Y1039391D01*
X634898Y1041585D01*
X635208Y1043940D01*
X634898Y1046295D01*
X633989Y1048489D01*
X632543Y1050373D01*
X630659Y1051819D01*
X628953Y1052525D01*
X629206Y1053795D01*
X632552D01*
X646959Y1039389D01*
X647881Y1038772D01*
X648970Y1038555D01*
X684756D01*
X685844Y1038772D01*
X686767Y1039389D01*
X695589Y1048211D01*
X695770Y1048299D01*
X697167Y1048241D01*
X698028Y1047118D01*
X699921Y1045666D01*
X702125Y1044753D01*
X704490Y1044442D01*
X706855Y1044753D01*
X709059Y1045666D01*
X710952Y1047118D01*
X712404Y1049011D01*
X713317Y1051215D01*
X713628Y1053580D01*
X713317Y1055945D01*
X712928Y1056885D01*
X732262Y1076219D01*
X732878Y1077141D01*
X733095Y1078230D01*
Y1087834D01*
X734365Y1088087D01*
X735071Y1086381D01*
X736517Y1084497D01*
X738401Y1083051D01*
X740595Y1082142D01*
X742950Y1081832D01*
X745305Y1082142D01*
X747499Y1083051D01*
X749383Y1084497D01*
X750829Y1086381D01*
X751738Y1088575D01*
X752048Y1090930D01*
X751738Y1093285D01*
X750829Y1095479D01*
X749383Y1097363D01*
X747499Y1098809D01*
X745305Y1099718D01*
X742950Y1100028D01*
X740595Y1099718D01*
X738401Y1098809D01*
X736517Y1097363D01*
X735071Y1095479D01*
X734365Y1093773D01*
X733095Y1094026D01*
Y1105329D01*
X745211Y1117445D01*
X745828Y1118368D01*
X746044Y1119457D01*
Y1130844D01*
X747315Y1131275D01*
X747497Y1131037D01*
X749141Y1129776D01*
X751056Y1128983D01*
X753110Y1128712D01*
X755164Y1128983D01*
X757079Y1129776D01*
X758723Y1131037D01*
X759984Y1132681D01*
X760777Y1134595D01*
X761048Y1136650D01*
X760777Y1138705D01*
X759984Y1140619D01*
X758723Y1142263D01*
X757079Y1143524D01*
X755164Y1144317D01*
X754270Y1144435D01*
Y1181910D01*
X755530D01*
Y1186427D01*
X758311Y1189209D01*
X758928Y1190131D01*
X759145Y1191220D01*
Y1202459D01*
X763611D01*
Y1215621D01*
X748989D01*
X748091Y1216517D01*
Y1216641D01*
X741030D01*
Y1209040D01*
X738490D01*
Y1216641D01*
X731825D01*
Y1225550D01*
X731608Y1226639D01*
X730991Y1227561D01*
X724936Y1233617D01*
X725562Y1234787D01*
X726126Y1234675D01*
X776792D01*
X785825Y1225642D01*
Y1218920D01*
X784701Y1218454D01*
X783057Y1217193D01*
X781796Y1215549D01*
X781003Y1213634D01*
X780732Y1211580D01*
X781003Y1209526D01*
X781796Y1207611D01*
X783057Y1205967D01*
X784701Y1204706D01*
X786616Y1203913D01*
X788670Y1203642D01*
X790724Y1203913D01*
X792639Y1204706D01*
X794283Y1205967D01*
X795544Y1207611D01*
X796337Y1209526D01*
X796608Y1211580D01*
X796337Y1213634D01*
X795544Y1215549D01*
X794283Y1217193D01*
X792639Y1218454D01*
X791515Y1218920D01*
Y1226820D01*
X791298Y1227909D01*
X790681Y1228831D01*
X781951Y1237561D01*
X782437Y1238735D01*
X825592D01*
X830275Y1234051D01*
Y1183640D01*
X830492Y1182551D01*
X831109Y1181629D01*
X837738Y1174999D01*
X837032Y1173295D01*
X836722Y1170940D01*
X837032Y1168585D01*
X837941Y1166391D01*
X839387Y1164507D01*
X841271Y1163061D01*
X843465Y1162152D01*
X845820Y1161842D01*
X848175Y1162152D01*
X850369Y1163061D01*
X852253Y1164507D01*
X853699Y1166391D01*
X854405Y1168095D01*
X856072D01*
X866085Y1158082D01*
Y1025048D01*
X858612Y1017575D01*
X854405D01*
X853699Y1019279D01*
X852253Y1021163D01*
X850369Y1022609D01*
X848175Y1023518D01*
X845820Y1023828D01*
X843465Y1023518D01*
X841271Y1022609D01*
X839387Y1021163D01*
X837941Y1019279D01*
X837032Y1017085D01*
X836722Y1014730D01*
X837032Y1012375D01*
X837941Y1010181D01*
X839387Y1008297D01*
X841271Y1006851D01*
X843465Y1005942D01*
X845820Y1005632D01*
X848175Y1005942D01*
X850369Y1006851D01*
X852253Y1008297D01*
X853699Y1010181D01*
X854405Y1011885D01*
X859790D01*
X860879Y1012102D01*
X861801Y1012719D01*
X870941Y1021859D01*
X871558Y1022781D01*
X871775Y1023870D01*
Y1159260D01*
X871558Y1160349D01*
X870941Y1161272D01*
X859261Y1172951D01*
X858339Y1173568D01*
X857250Y1173785D01*
X854405D01*
X853699Y1175489D01*
X852253Y1177373D01*
X850369Y1178819D01*
X848175Y1179728D01*
X845820Y1180038D01*
X843465Y1179728D01*
X841761Y1179022D01*
X835965Y1184818D01*
Y1193244D01*
X837235Y1193497D01*
X837941Y1191791D01*
X839387Y1189907D01*
X841271Y1188461D01*
X843465Y1187552D01*
X845820Y1187242D01*
X848175Y1187552D01*
X850369Y1188461D01*
X852253Y1189907D01*
X853699Y1191791D01*
X854608Y1193985D01*
X854918Y1196340D01*
X854608Y1198695D01*
X853699Y1200889D01*
X853635Y1200972D01*
X854541Y1201878D01*
X855821Y1200896D01*
X857736Y1200103D01*
X859790Y1199832D01*
X861844Y1200103D01*
X863759Y1200896D01*
X865403Y1202157D01*
X866664Y1203801D01*
X867457Y1205715D01*
X867728Y1207770D01*
X867457Y1209825D01*
X866664Y1211739D01*
X865403Y1213383D01*
X863759Y1214644D01*
X862635Y1215110D01*
Y1229940D01*
X862418Y1231029D01*
X861801Y1231951D01*
X856440Y1237313D01*
Y1241790D01*
Y1250830D01*
X855015D01*
Y1250950D01*
X854798Y1252039D01*
X854181Y1252961D01*
X847581Y1259561D01*
X846659Y1260178D01*
X845570Y1260395D01*
X811823D01*
X806580Y1265638D01*
Y1280290D01*
X788540D01*
Y1266273D01*
X778602Y1256335D01*
X764881D01*
Y1260071D01*
X750259D01*
X749361Y1260967D01*
Y1261091D01*
X742300D01*
Y1253490D01*
X741030D01*
Y1252220D01*
X732699D01*
Y1248484D01*
X730668D01*
X717300Y1261851D01*
X716378Y1262468D01*
X715289Y1262685D01*
X631190D01*
X630101Y1262468D01*
X629179Y1261851D01*
X595879Y1228552D01*
X594175Y1229258D01*
X591820Y1229568D01*
X589465Y1229258D01*
X587271Y1228349D01*
X585387Y1226903D01*
X583941Y1225019D01*
X583032Y1222825D01*
X582722Y1220470D01*
X583032Y1218115D01*
X583941Y1215921D01*
X585387Y1214037D01*
X587271Y1212591D01*
X589465Y1211682D01*
X591820Y1211372D01*
X594175Y1211682D01*
X596369Y1212591D01*
X598253Y1214037D01*
X599699Y1215921D01*
X600405Y1217625D01*
X635282D01*
X640167Y1212740D01*
X640114Y1212473D01*
Y1210447D01*
X639126Y1209305D01*
X603210D01*
X602121Y1209088D01*
X601199Y1208471D01*
X595879Y1203152D01*
X594175Y1203858D01*
X591820Y1204168D01*
X589465Y1203858D01*
X587271Y1202949D01*
X585387Y1201503D01*
X583941Y1199619D01*
X583032Y1197425D01*
X582722Y1195070D01*
X583032Y1192715D01*
X583941Y1190521D01*
X585387Y1188637D01*
X587271Y1187191D01*
X589465Y1186282D01*
X591820Y1185972D01*
X594175Y1186282D01*
X596369Y1187191D01*
X598253Y1188637D01*
X599699Y1190521D01*
X600608Y1192715D01*
X600918Y1195070D01*
X600608Y1197425D01*
X599902Y1199129D01*
X604388Y1203615D01*
X638006D01*
X638833Y1202730D01*
X645470D01*
Y1200190D01*
X639125D01*
X639297Y1199325D01*
X639933Y1198373D01*
X640251Y1198161D01*
X640114Y1197473D01*
Y1195447D01*
X640258Y1194723D01*
X640668Y1194108D01*
X641283Y1193698D01*
X642008Y1193554D01*
X648932D01*
X649657Y1193698D01*
X650272Y1194108D01*
X650682Y1194723D01*
X650721Y1194920D01*
X654050D01*
Y1203960D01*
Y1213000D01*
X650721D01*
X650682Y1213197D01*
X650272Y1213812D01*
X649657Y1214222D01*
X648932Y1214366D01*
X646587D01*
X638471Y1222481D01*
X637549Y1223098D01*
X636460Y1223315D01*
X600405D01*
X599902Y1224529D01*
X632368Y1256995D01*
X649840D01*
X650271Y1255725D01*
X649707Y1255293D01*
X648446Y1253649D01*
X647653Y1251734D01*
X647382Y1249680D01*
X647653Y1247626D01*
X648446Y1245711D01*
X649707Y1244067D01*
X651351Y1242806D01*
X653266Y1242013D01*
X655320Y1241742D01*
X656480Y1241895D01*
X657555Y1240790D01*
Y1236700D01*
X656431Y1236234D01*
X654787Y1234973D01*
X653526Y1233329D01*
X652733Y1231414D01*
X652462Y1229360D01*
X652733Y1227306D01*
X653526Y1225391D01*
X654787Y1223747D01*
X656431Y1222486D01*
X658345Y1221693D01*
X660400Y1221422D01*
X662455Y1221693D01*
X664369Y1222486D01*
X666013Y1223747D01*
X667274Y1225391D01*
X668067Y1227306D01*
X668338Y1229360D01*
X668067Y1231414D01*
X667274Y1233329D01*
X666013Y1234973D01*
X664369Y1236234D01*
X663245Y1236700D01*
Y1239612D01*
X675548Y1251915D01*
X681083D01*
X681569Y1250742D01*
X678709Y1247881D01*
X678092Y1246959D01*
X677875Y1245870D01*
Y1237970D01*
X676751Y1237504D01*
X675107Y1236243D01*
X673846Y1234599D01*
X673053Y1232684D01*
X672782Y1230630D01*
X673053Y1228576D01*
X673846Y1226661D01*
X675107Y1225017D01*
X676751Y1223756D01*
X678665Y1222963D01*
X680720Y1222692D01*
X682775Y1222963D01*
X684689Y1223756D01*
X686333Y1225017D01*
X687594Y1226661D01*
X688387Y1228576D01*
X688658Y1230630D01*
X688387Y1232684D01*
X687594Y1234599D01*
X686333Y1236243D01*
X684689Y1237504D01*
X683565Y1237970D01*
Y1244692D01*
X686728Y1247856D01*
X711768D01*
X721280Y1238343D01*
X720655Y1237172D01*
X720090Y1237285D01*
X707110D01*
X706644Y1238409D01*
X705383Y1240053D01*
X703739Y1241314D01*
X701824Y1242107D01*
X699770Y1242378D01*
X697716Y1242107D01*
X695801Y1241314D01*
X694157Y1240053D01*
X692896Y1238409D01*
X692103Y1236495D01*
X691832Y1234440D01*
X692103Y1232385D01*
X692896Y1230471D01*
X694157Y1228827D01*
X695801Y1227566D01*
X697716Y1226773D01*
X699770Y1226502D01*
X701824Y1226773D01*
X703739Y1227566D01*
X705383Y1228827D01*
X706644Y1230471D01*
X707110Y1231595D01*
X718912D01*
X726135Y1224372D01*
Y1201220D01*
X716680D01*
Y1192530D01*
Y1183840D01*
X726348D01*
X726352Y1183821D01*
X726969Y1182899D01*
X728914Y1180953D01*
X728428Y1179780D01*
X722090D01*
Y1178760D01*
X712110D01*
Y1168720D01*
X722090D01*
Y1167700D01*
X726860D01*
Y1173740D01*
X729400D01*
Y1167700D01*
X734170D01*
Y1174038D01*
X735343Y1174524D01*
X740355Y1169512D01*
Y1144610D01*
X739085Y1143984D01*
X738029Y1144794D01*
X736905Y1145260D01*
Y1149510D01*
X736688Y1150599D01*
X736071Y1151521D01*
X733150Y1154443D01*
Y1160460D01*
X723420D01*
X723110Y1160460D01*
X722150D01*
X721840Y1160460D01*
X712110D01*
Y1154443D01*
X708980Y1151313D01*
X708363Y1150390D01*
X708147Y1149301D01*
Y1145469D01*
X707022Y1145003D01*
X705378Y1143742D01*
X704117Y1142098D01*
X703324Y1140183D01*
X703053Y1138129D01*
X703324Y1136074D01*
X704117Y1134160D01*
X705378Y1132516D01*
X707022Y1131254D01*
X708937Y1130461D01*
X710991Y1130191D01*
X713046Y1130461D01*
X714960Y1131254D01*
X716604Y1132516D01*
X717866Y1134160D01*
X718659Y1136074D01*
X718929Y1138129D01*
X718659Y1140183D01*
X717866Y1142098D01*
X716604Y1143742D01*
X714960Y1145003D01*
X713836Y1145469D01*
Y1148123D01*
X716133Y1150420D01*
X721840D01*
X722150Y1150420D01*
X723110D01*
X723420Y1150420D01*
X729127D01*
X731215Y1148332D01*
Y1145260D01*
X730091Y1144794D01*
X728447Y1143533D01*
X727186Y1141889D01*
X726393Y1139975D01*
X726122Y1137920D01*
X726393Y1135865D01*
X727186Y1133951D01*
X728447Y1132307D01*
X730091Y1131046D01*
X732005Y1130253D01*
X734060Y1129982D01*
X736115Y1130253D01*
X738029Y1131046D01*
X739085Y1131856D01*
X740355Y1131230D01*
Y1120635D01*
X728239Y1108518D01*
X727622Y1107595D01*
X727405Y1106507D01*
Y1094026D01*
X726135Y1093773D01*
X725429Y1095479D01*
X723983Y1097363D01*
X722099Y1098809D01*
X719905Y1099718D01*
X717550Y1100028D01*
X715195Y1099718D01*
X713001Y1098809D01*
X711117Y1097363D01*
X709783Y1095625D01*
X709230Y1095363D01*
X708413Y1095200D01*
X694291Y1109322D01*
X693369Y1109938D01*
X692280Y1110155D01*
X683960D01*
X681873Y1112241D01*
X680950Y1112858D01*
X679862Y1113074D01*
X606040D01*
X604951Y1112858D01*
X604029Y1112241D01*
X603212Y1111425D01*
X598847D01*
X598451Y1112695D01*
X599699Y1114321D01*
X600608Y1116515D01*
X600918Y1118870D01*
X600608Y1121225D01*
X599699Y1123419D01*
X598253Y1125303D01*
X596369Y1126749D01*
X594175Y1127658D01*
X591820Y1127968D01*
X589465Y1127658D01*
X587271Y1126749D01*
X585387Y1125303D01*
X583941Y1123419D01*
X583032Y1121225D01*
X582722Y1118870D01*
X583032Y1116515D01*
X583941Y1114321D01*
X585189Y1112695D01*
X584794Y1111425D01*
X549948D01*
X540055Y1121318D01*
Y1148443D01*
X541228Y1148929D01*
X541631Y1148526D01*
X542554Y1147909D01*
X543642Y1147693D01*
X561514D01*
X564707Y1144501D01*
X564180Y1143231D01*
X561401D01*
X561029Y1143231D01*
X560131Y1144127D01*
Y1144251D01*
X553070D01*
Y1136650D01*
Y1129049D01*
X560131D01*
Y1129173D01*
X561029Y1130069D01*
X561401Y1130069D01*
X575651D01*
Y1143231D01*
X571185D01*
Y1144890D01*
X570968Y1145979D01*
X570351Y1146901D01*
X565493Y1151760D01*
X566019Y1153030D01*
X567820D01*
Y1171070D01*
X549780D01*
Y1153382D01*
X544821D01*
X544114Y1154088D01*
Y1200562D01*
X543898Y1201650D01*
X543281Y1202573D01*
X533204Y1212650D01*
X533731Y1213920D01*
X537160D01*
Y1216055D01*
X539450D01*
X540539Y1216272D01*
X541461Y1216889D01*
X554741Y1230168D01*
X556445Y1229462D01*
X558800Y1229152D01*
X561155Y1229462D01*
X563349Y1230371D01*
X565233Y1231817D01*
X566679Y1233701D01*
X567588Y1235895D01*
X567898Y1238250D01*
X567588Y1240605D01*
X566679Y1242799D01*
X565233Y1244683D01*
X563349Y1246129D01*
X561155Y1247038D01*
X558800Y1247348D01*
X556445Y1247038D01*
X554251Y1246129D01*
X552367Y1244683D01*
X550921Y1242799D01*
X550012Y1240605D01*
X549702Y1238250D01*
X550012Y1235895D01*
X550718Y1234191D01*
X538430Y1221903D01*
X537160Y1222126D01*
Y1223460D01*
X521620D01*
Y1215495D01*
X512160D01*
Y1222300D01*
X513180D01*
Y1226820D01*
X504390D01*
Y1229360D01*
X513180D01*
Y1233880D01*
X514133Y1234645D01*
X516672D01*
X517761Y1234862D01*
X518684Y1235479D01*
X520350Y1237145D01*
X521620Y1236619D01*
Y1232720D01*
X537160D01*
Y1242260D01*
X522275D01*
Y1257392D01*
X527681Y1262798D01*
X528806Y1262333D01*
X530860Y1262062D01*
X532915Y1262333D01*
X534829Y1263126D01*
X536473Y1264387D01*
X537734Y1266031D01*
X538527Y1267945D01*
X538798Y1270000D01*
X538527Y1272055D01*
X537734Y1273969D01*
X536473Y1275613D01*
X534829Y1276874D01*
X532915Y1277667D01*
X531594Y1277841D01*
X531139Y1279182D01*
X534352Y1282395D01*
X550002D01*
X555955Y1276442D01*
Y1273339D01*
X553737Y1272420D01*
X551639Y1270811D01*
X550030Y1268713D01*
X549018Y1266271D01*
X548841Y1264920D01*
X558800D01*
X568759D01*
X568582Y1266271D01*
X567570Y1268713D01*
X565961Y1270811D01*
X563863Y1272420D01*
X561645Y1273339D01*
Y1277620D01*
X561428Y1278709D01*
X560811Y1279631D01*
X553933Y1286510D01*
X554459Y1287780D01*
X622385D01*
Y1269770D01*
X622867Y1268607D01*
X624030Y1268125D01*
X778030D01*
X779193Y1268607D01*
X779675Y1269770D01*
Y1287780D01*
X873760D01*
X873760Y664210D01*
D02*
G37*
G36*
X530421Y1286510D02*
X513359Y1269447D01*
X512742Y1268524D01*
X512525Y1267436D01*
Y1257186D01*
X512312Y1257049D01*
X510948Y1257685D01*
X510864Y1258319D01*
X509981Y1260453D01*
X508575Y1262285D01*
X506743Y1263690D01*
X504609Y1264574D01*
X502320Y1264876D01*
X500031Y1264574D01*
X497897Y1263690D01*
X496065Y1262285D01*
X494879Y1260739D01*
X493869Y1260720D01*
X493454Y1260860D01*
X493284Y1261269D01*
X492023Y1262913D01*
X490379Y1264174D01*
X488465Y1264967D01*
X486410Y1265238D01*
X485450Y1265111D01*
X484180Y1266221D01*
Y1273890D01*
X472640D01*
Y1276430D01*
X484180D01*
Y1287200D01*
X485210Y1287780D01*
X529895D01*
X530421Y1286510D01*
D02*
G37*
G36*
X466910Y1239120D02*
X478680D01*
Y1243146D01*
X495717D01*
X496620Y1242260D01*
Y1240335D01*
X487610D01*
X486521Y1240118D01*
X485599Y1239501D01*
X482267Y1236170D01*
X468750D01*
Y1233475D01*
X462693D01*
X461543Y1234973D01*
X459899Y1236234D01*
X457985Y1237027D01*
X455930Y1237298D01*
X453876Y1237027D01*
X451961Y1236234D01*
X450317Y1234973D01*
X449056Y1233329D01*
X448263Y1231414D01*
X447992Y1229360D01*
X448263Y1227306D01*
X449056Y1225391D01*
X450317Y1223747D01*
X451961Y1222486D01*
X453876Y1221693D01*
X455930Y1221422D01*
X457985Y1221693D01*
X459899Y1222486D01*
X461543Y1223747D01*
X462804Y1225391D01*
X463597Y1227306D01*
X463661Y1227785D01*
X468750D01*
Y1227630D01*
X472543D01*
X472989Y1226963D01*
X483187Y1216765D01*
X483152Y1216400D01*
X482759Y1215495D01*
X456038D01*
X437485Y1234048D01*
Y1240140D01*
X443100D01*
Y1239120D01*
X446370D01*
Y1248410D01*
X448910D01*
Y1239120D01*
X452180D01*
Y1239120D01*
X452600Y1239120D01*
Y1239120D01*
X464370D01*
Y1249660D01*
X466910D01*
Y1239120D01*
D02*
G37*
G36*
X808634Y1255538D02*
X809557Y1254922D01*
X810645Y1254705D01*
X844392D01*
X847274Y1251823D01*
X847900Y1250830D01*
X847900D01*
X847900Y1250830D01*
Y1241790D01*
Y1234369D01*
X846630Y1233843D01*
X832822Y1247651D01*
X831899Y1248268D01*
X830811Y1248484D01*
X764881D01*
Y1250645D01*
X779780D01*
X780869Y1250862D01*
X781791Y1251479D01*
X792563Y1262250D01*
X801922D01*
X808634Y1255538D01*
D02*
G37*
G36*
X425295Y1233020D02*
X425512Y1231931D01*
X426129Y1231009D01*
X445097Y1212040D01*
X444571Y1210770D01*
X435475D01*
Y1213290D01*
X435258Y1214379D01*
X434641Y1215301D01*
X432541Y1217401D01*
X431619Y1218018D01*
X430530Y1218235D01*
X407206D01*
X406117Y1218018D01*
X405195Y1217401D01*
X402749Y1214955D01*
X402484Y1214560D01*
X400240D01*
Y1203520D01*
X409280D01*
Y1212545D01*
X429352D01*
X429785Y1212112D01*
Y1210770D01*
X428110D01*
Y1202230D01*
X438285D01*
Y1186340D01*
X435889Y1183943D01*
X435272Y1183021D01*
X435056Y1181932D01*
Y1137251D01*
X435272Y1136162D01*
X435889Y1135239D01*
X439831Y1131297D01*
Y1126500D01*
X439969D01*
X439986Y1126446D01*
X440263Y1125230D01*
X439126Y1123529D01*
X438957Y1122680D01*
X448042D01*
X457362D01*
X460481Y1125800D01*
X461098Y1126722D01*
X461315Y1127811D01*
Y1144716D01*
X462953Y1145395D01*
X464810Y1146820D01*
X466235Y1148677D01*
X467131Y1150839D01*
X467270Y1151890D01*
X449670D01*
X449809Y1150839D01*
X450705Y1148677D01*
X452130Y1146820D01*
X453987Y1145395D01*
X455625Y1144716D01*
Y1135320D01*
X443854D01*
X440745Y1138429D01*
Y1159170D01*
X442015Y1159796D01*
X443071Y1158986D01*
X444986Y1158193D01*
X447040Y1157922D01*
X449095Y1158193D01*
X449726Y1158454D01*
X450299Y1157979D01*
X450625Y1157452D01*
X449809Y1155481D01*
X449670Y1154430D01*
X457200D01*
Y1161960D01*
X456149Y1161821D01*
X455047Y1161365D01*
X454104Y1162349D01*
X454707Y1163805D01*
X454978Y1165860D01*
X454707Y1167915D01*
X454242Y1169039D01*
X476408Y1191205D01*
X479720D01*
X480346Y1189935D01*
X479536Y1188879D01*
X478743Y1186964D01*
X478472Y1184910D01*
X478743Y1182856D01*
X479208Y1181731D01*
X472719Y1175241D01*
X472102Y1174319D01*
X471885Y1173230D01*
Y1127334D01*
X459306Y1114755D01*
X455784D01*
X454897Y1115647D01*
X454985Y1116978D01*
X455758Y1117495D01*
X456959Y1119291D01*
X457127Y1120140D01*
X448042D01*
X438957D01*
X439126Y1119291D01*
X440326Y1117495D01*
X441351Y1116810D01*
Y1115283D01*
X441061Y1115089D01*
X440087Y1113631D01*
X439744Y1111910D01*
X440087Y1110189D01*
X441061Y1108731D01*
X442520Y1107756D01*
X444240Y1107414D01*
X445197D01*
Y1099460D01*
X420309Y1074571D01*
X419692Y1073649D01*
X419475Y1072560D01*
Y1067200D01*
X414800Y1067200D01*
X414325Y1068273D01*
Y1083402D01*
X427461Y1096538D01*
X428078Y1097461D01*
X428295Y1098550D01*
Y1107414D01*
X429519D01*
X431240Y1107756D01*
X432699Y1108731D01*
X433673Y1110189D01*
X434016Y1111910D01*
X433673Y1113631D01*
X432699Y1115089D01*
X431240Y1116064D01*
X429519Y1116406D01*
X428562D01*
Y1119076D01*
X428346Y1120165D01*
X427729Y1121087D01*
X423576Y1125240D01*
X424062Y1126414D01*
X429519D01*
X431240Y1126756D01*
X432699Y1127731D01*
X433673Y1129189D01*
X434016Y1130910D01*
X433673Y1132631D01*
X432699Y1134089D01*
X431240Y1135064D01*
X429519Y1135406D01*
X428562D01*
Y1152062D01*
X428346Y1153151D01*
X427729Y1154074D01*
X410090Y1171713D01*
Y1176480D01*
X402610D01*
Y1177500D01*
X399915D01*
Y1179264D01*
X402716Y1182065D01*
X410302D01*
X414928Y1177439D01*
X414249Y1175801D01*
X414110Y1174750D01*
X421640D01*
Y1182280D01*
X420589Y1182141D01*
X418951Y1181462D01*
X413491Y1186921D01*
X412569Y1187538D01*
X411480Y1187755D01*
X401538D01*
X400449Y1187538D01*
X399526Y1186921D01*
X395059Y1182454D01*
X394442Y1181531D01*
X394375Y1181192D01*
X393105Y1181317D01*
Y1203520D01*
X394780D01*
Y1214560D01*
X393335D01*
Y1217863D01*
X393680Y1218990D01*
X397950D01*
Y1224280D01*
Y1229570D01*
X395782D01*
X395296Y1230743D01*
X397418Y1232865D01*
X413690D01*
X414779Y1233082D01*
X415701Y1233699D01*
X422143Y1240140D01*
X425295D01*
Y1233020D01*
D02*
G37*
G36*
X856945Y1228762D02*
Y1215110D01*
X855821Y1214644D01*
X854177Y1213383D01*
X852916Y1211739D01*
X852123Y1209825D01*
X851852Y1207770D01*
X852123Y1205715D01*
X852916Y1203801D01*
X851905Y1203040D01*
X850369Y1204219D01*
X848665Y1204925D01*
Y1230630D01*
X848448Y1231719D01*
X848243Y1232025D01*
X848925Y1233290D01*
X852417D01*
X856945Y1228762D01*
D02*
G37*
G36*
X842975Y1229452D02*
Y1204925D01*
X841271Y1204219D01*
X839387Y1202773D01*
X837941Y1200889D01*
X837235Y1199183D01*
X835965Y1199436D01*
Y1234667D01*
X837235Y1235192D01*
X842975Y1229452D01*
D02*
G37*
G36*
X398340Y1166920D02*
X402610D01*
Y1167940D01*
X405817D01*
X422873Y1150884D01*
Y1135406D01*
X421916D01*
X420196Y1135064D01*
X418737Y1134089D01*
X417850Y1132762D01*
X417405Y1132522D01*
X416553Y1132264D01*
X394005Y1154812D01*
Y1162050D01*
X393788Y1163139D01*
X393171Y1164061D01*
X393105Y1164128D01*
Y1166920D01*
X395800D01*
Y1172210D01*
X398340D01*
Y1166920D01*
D02*
G37*
G36*
X617090Y1085720D02*
X617090Y1085720D01*
X617090D01*
X616958Y1084505D01*
X615938Y1083485D01*
X594447D01*
X594175Y1084682D01*
X596369Y1085591D01*
X598253Y1087037D01*
X599699Y1088921D01*
X600608Y1091115D01*
X600918Y1093470D01*
X600608Y1095825D01*
X599699Y1098019D01*
X598253Y1099903D01*
X597598Y1100406D01*
X598029Y1101675D01*
X606072D01*
X607160Y1101892D01*
X608083Y1102509D01*
X608900Y1103325D01*
X617090D01*
Y1085720D01*
D02*
G37*
G36*
X727405Y1087834D02*
Y1079408D01*
X716231Y1068234D01*
X716181Y1068247D01*
X715103Y1068902D01*
X715328Y1070610D01*
X715057Y1072664D01*
X714264Y1074579D01*
X713003Y1076223D01*
X711359Y1077484D01*
X710105Y1078004D01*
Y1083904D01*
X711375Y1084299D01*
X713001Y1083051D01*
X715195Y1082142D01*
X717550Y1081832D01*
X719905Y1082142D01*
X722099Y1083051D01*
X723983Y1084497D01*
X725429Y1086381D01*
X726135Y1088087D01*
X727405Y1087834D01*
D02*
G37*
G36*
X677875Y1102452D02*
Y1080490D01*
X676751Y1080024D01*
X675107Y1078763D01*
X673846Y1077119D01*
X673053Y1075204D01*
X672782Y1073150D01*
X673007Y1071442D01*
X671929Y1070787D01*
X671879Y1070774D01*
X664061Y1078592D01*
X663139Y1079208D01*
X662050Y1079425D01*
X660927D01*
X660441Y1080598D01*
X661753Y1081910D01*
X675770D01*
Y1099950D01*
X657730D01*
Y1085933D01*
X655282Y1083485D01*
X636282D01*
X635262Y1084505D01*
X635130Y1085720D01*
X635130Y1085720D01*
X635130Y1085720D01*
Y1103325D01*
X677002D01*
X677875Y1102452D01*
D02*
G37*
G36*
X617730Y1072680D02*
X617322Y1071695D01*
X617012Y1069340D01*
X617322Y1066985D01*
X618231Y1064791D01*
X619677Y1062907D01*
X621561Y1061461D01*
X623267Y1060755D01*
X623014Y1059485D01*
X597534D01*
X597103Y1060755D01*
X598253Y1061637D01*
X599699Y1063521D01*
X600608Y1065715D01*
X600918Y1068070D01*
X600608Y1070425D01*
X599902Y1072129D01*
X601508Y1073736D01*
X617025D01*
X617730Y1072680D01*
D02*
G37*
G36*
X588663Y1076525D02*
X587271Y1075949D01*
X585387Y1074503D01*
X583941Y1072619D01*
X583032Y1070425D01*
X582722Y1068070D01*
X583032Y1065715D01*
X583941Y1063521D01*
X585387Y1061637D01*
X586537Y1060755D01*
X586106Y1059485D01*
X580298D01*
X572241Y1067541D01*
X571319Y1068158D01*
X570230Y1068375D01*
X568655D01*
X567949Y1070079D01*
X566503Y1071963D01*
X564619Y1073409D01*
X562425Y1074318D01*
X560070Y1074628D01*
X559698Y1074579D01*
X559104Y1075782D01*
X561118Y1077795D01*
X588410D01*
X588663Y1076525D01*
D02*
G37*
G36*
X669753Y1064854D02*
X669151Y1063660D01*
X660760D01*
Y1053580D01*
X659490D01*
Y1052310D01*
X649410D01*
Y1046642D01*
X648237Y1046156D01*
X635741Y1058651D01*
X634819Y1059268D01*
X633730Y1059485D01*
X629206D01*
X628953Y1060755D01*
X630659Y1061461D01*
X632543Y1062907D01*
X633989Y1064791D01*
X634898Y1066985D01*
X635208Y1069340D01*
X634898Y1071695D01*
X634490Y1072680D01*
X635195Y1073736D01*
X660872D01*
X669753Y1064854D01*
D02*
G37*
%LPC*%
G36*
X600840Y1280290D02*
X582800D01*
Y1262250D01*
X600840D01*
Y1280290D01*
D02*
G37*
G36*
X848360Y1280368D02*
X846005Y1280058D01*
X843811Y1279149D01*
X841927Y1277703D01*
X840481Y1275819D01*
X839572Y1273625D01*
X839262Y1271270D01*
X839572Y1268915D01*
X840481Y1266721D01*
X841927Y1264837D01*
X843811Y1263391D01*
X846005Y1262482D01*
X848360Y1262172D01*
X850715Y1262482D01*
X852909Y1263391D01*
X854793Y1264837D01*
X856239Y1266721D01*
X857148Y1268915D01*
X857458Y1271270D01*
X857148Y1273625D01*
X856239Y1275819D01*
X854793Y1277703D01*
X852909Y1279149D01*
X850715Y1280058D01*
X848360Y1280368D01*
D02*
G37*
G36*
X822960D02*
X820605Y1280058D01*
X818411Y1279149D01*
X816527Y1277703D01*
X815081Y1275819D01*
X814172Y1273625D01*
X813862Y1271270D01*
X814172Y1268915D01*
X815081Y1266721D01*
X816527Y1264837D01*
X818411Y1263391D01*
X820605Y1262482D01*
X822960Y1262172D01*
X825315Y1262482D01*
X827509Y1263391D01*
X829393Y1264837D01*
X830839Y1266721D01*
X831748Y1268915D01*
X832058Y1271270D01*
X831748Y1273625D01*
X830839Y1275819D01*
X829393Y1277703D01*
X827509Y1279149D01*
X825315Y1280058D01*
X822960Y1280368D01*
D02*
G37*
G36*
X275590Y1265737D02*
Y1257300D01*
X284027D01*
X283858Y1258586D01*
X282871Y1260967D01*
X281302Y1263012D01*
X279257Y1264582D01*
X276876Y1265568D01*
X275590Y1265737D01*
D02*
G37*
G36*
X273050D02*
X271764Y1265568D01*
X269383Y1264582D01*
X267338Y1263012D01*
X265769Y1260967D01*
X264782Y1258586D01*
X264613Y1257300D01*
X273050D01*
Y1265737D01*
D02*
G37*
G36*
X739760Y1261091D02*
X732699D01*
Y1254760D01*
X739760D01*
Y1261091D01*
D02*
G37*
G36*
X568759Y1262380D02*
X560070D01*
Y1253691D01*
X561421Y1253868D01*
X563863Y1254880D01*
X565961Y1256489D01*
X567570Y1258587D01*
X568582Y1261029D01*
X568759Y1262380D01*
D02*
G37*
G36*
X557530D02*
X548841D01*
X549018Y1261029D01*
X550030Y1258587D01*
X551639Y1256489D01*
X553737Y1254880D01*
X556179Y1253868D01*
X557530Y1253691D01*
Y1262380D01*
D02*
G37*
G36*
X378340Y1266190D02*
X369570D01*
Y1247920D01*
X378340D01*
Y1266190D01*
D02*
G37*
G36*
X367030D02*
X358260D01*
Y1247920D01*
X367030D01*
Y1266190D01*
D02*
G37*
G36*
X311340D02*
X302570D01*
Y1247920D01*
X311340D01*
Y1266190D01*
D02*
G37*
G36*
X300030D02*
X291260D01*
Y1247920D01*
X300030D01*
Y1266190D01*
D02*
G37*
G36*
X284027Y1254760D02*
X275590D01*
Y1246323D01*
X276876Y1246492D01*
X279257Y1247478D01*
X281302Y1249048D01*
X282871Y1251093D01*
X283858Y1253474D01*
X284027Y1254760D01*
D02*
G37*
G36*
X273050D02*
X264613D01*
X264782Y1253474D01*
X265769Y1251093D01*
X267338Y1249048D01*
X269383Y1247478D01*
X271764Y1246492D01*
X273050Y1246323D01*
Y1254760D01*
D02*
G37*
G36*
X346710Y1255078D02*
X344655Y1254807D01*
X342741Y1254014D01*
X341097Y1252753D01*
X339836Y1251109D01*
X339370Y1249985D01*
X320040D01*
X318951Y1249768D01*
X318029Y1249151D01*
X307651Y1238773D01*
X307034Y1237851D01*
X306817Y1236762D01*
Y1198652D01*
X307034Y1197564D01*
X307651Y1196641D01*
X318525Y1185766D01*
Y1181060D01*
X317350D01*
Y1180135D01*
X298450D01*
X297361Y1179918D01*
X296439Y1179301D01*
X286279Y1169141D01*
X285662Y1168219D01*
X285445Y1167130D01*
Y1161750D01*
X268770D01*
Y1151710D01*
X286794D01*
X286932Y1151019D01*
X287549Y1150097D01*
X289722Y1147923D01*
X289236Y1146750D01*
X268770D01*
Y1136710D01*
X285445D01*
Y1135598D01*
X285662Y1134509D01*
X286279Y1133587D01*
X286845Y1133020D01*
X286319Y1131750D01*
X268770D01*
Y1121710D01*
X285445D01*
Y1120358D01*
X285662Y1119269D01*
X285815Y1119040D01*
X285136Y1117770D01*
X267750D01*
Y1113000D01*
X288290D01*
X308830D01*
Y1116025D01*
X316642D01*
X319720Y1112947D01*
Y1109680D01*
X320145D01*
Y1067118D01*
X316541Y1063513D01*
X315924Y1062591D01*
X315707Y1061502D01*
Y1056758D01*
X315924Y1055669D01*
X315925Y1055667D01*
Y1054250D01*
X315000D01*
Y1046210D01*
Y1038710D01*
X322540D01*
Y1039885D01*
X331220D01*
X332309Y1040102D01*
X333231Y1040719D01*
X338543Y1046030D01*
X347060D01*
Y1055570D01*
X345335D01*
Y1109680D01*
X345760D01*
Y1110855D01*
X352050D01*
X353139Y1111072D01*
X354061Y1111689D01*
X369632Y1127259D01*
X375859D01*
X376231Y1127259D01*
X377129Y1126363D01*
Y1126239D01*
X382190D01*
Y1132840D01*
Y1139441D01*
X377129D01*
Y1139317D01*
X376231Y1138421D01*
X375859Y1138421D01*
X365609D01*
Y1131282D01*
X350872Y1116545D01*
X345760D01*
Y1117720D01*
X345335D01*
Y1120940D01*
X345118Y1122029D01*
X344501Y1122952D01*
X339563Y1127890D01*
X340089Y1129160D01*
X341220D01*
Y1134200D01*
Y1139240D01*
X338835D01*
Y1145020D01*
X338618Y1146109D01*
X338001Y1147031D01*
X334288Y1150745D01*
X346181Y1162639D01*
X346798Y1163561D01*
X347015Y1164650D01*
Y1175802D01*
X346798Y1176891D01*
X346181Y1177813D01*
X344693Y1179301D01*
X343771Y1179918D01*
X342682Y1180135D01*
X332890D01*
Y1181060D01*
X324215D01*
Y1186944D01*
X323998Y1188033D01*
X323381Y1188956D01*
X322570Y1189767D01*
X323056Y1190940D01*
X331320D01*
Y1228980D01*
X327645D01*
Y1230402D01*
X328838Y1231595D01*
X357150D01*
X357616Y1230471D01*
X358877Y1228827D01*
X360521Y1227566D01*
X362435Y1226773D01*
X364490Y1226502D01*
X366544Y1226773D01*
X368459Y1227566D01*
X370103Y1228827D01*
X371364Y1230471D01*
X372157Y1232385D01*
X372428Y1234440D01*
X372157Y1236495D01*
X371364Y1238409D01*
X370103Y1240053D01*
X368459Y1241314D01*
X366544Y1242107D01*
X364490Y1242378D01*
X362435Y1242107D01*
X360521Y1241314D01*
X358877Y1240053D01*
X357616Y1238409D01*
X357150Y1237285D01*
X327660D01*
X326571Y1237068D01*
X325649Y1236451D01*
X322789Y1233591D01*
X322172Y1232669D01*
X321955Y1231580D01*
Y1228980D01*
X318280D01*
Y1195716D01*
X317107Y1195230D01*
X312507Y1199830D01*
Y1235584D01*
X321218Y1244295D01*
X339370D01*
X339836Y1243171D01*
X341097Y1241527D01*
X342741Y1240266D01*
X344655Y1239473D01*
X346710Y1239202D01*
X348764Y1239473D01*
X350679Y1240266D01*
X352323Y1241527D01*
X353584Y1243171D01*
X354377Y1245086D01*
X354648Y1247140D01*
X354377Y1249194D01*
X353584Y1251109D01*
X352323Y1252753D01*
X350679Y1254014D01*
X348764Y1254807D01*
X346710Y1255078D01*
D02*
G37*
G36*
X591820Y1254968D02*
X589465Y1254658D01*
X587271Y1253749D01*
X585387Y1252303D01*
X583941Y1250419D01*
X583032Y1248225D01*
X582722Y1245870D01*
X583032Y1243515D01*
X583941Y1241321D01*
X585387Y1239437D01*
X587271Y1237991D01*
X589465Y1237082D01*
X591820Y1236772D01*
X594175Y1237082D01*
X596369Y1237991D01*
X598253Y1239437D01*
X599699Y1241321D01*
X600608Y1243515D01*
X600918Y1245870D01*
X600608Y1248225D01*
X599699Y1250419D01*
X598253Y1252303D01*
X596369Y1253749D01*
X594175Y1254658D01*
X591820Y1254968D01*
D02*
G37*
G36*
X382270Y1235710D02*
X374740D01*
X374879Y1234659D01*
X375775Y1232497D01*
X377200Y1230640D01*
X379057Y1229215D01*
X381219Y1228319D01*
X382270Y1228180D01*
Y1235710D01*
D02*
G37*
G36*
X819280Y1235840D02*
X801240D01*
Y1217800D01*
X819280D01*
Y1235840D01*
D02*
G37*
G36*
X668633Y1215406D02*
X666440D01*
Y1212730D01*
X671515D01*
X671343Y1213595D01*
X670707Y1214547D01*
X669755Y1215183D01*
X668633Y1215406D01*
D02*
G37*
G36*
X352340Y1230000D02*
X346070D01*
Y1211230D01*
X352340D01*
Y1230000D01*
D02*
G37*
G36*
X343530D02*
X337260D01*
Y1211230D01*
X343530D01*
Y1230000D01*
D02*
G37*
G36*
X558800Y1221948D02*
X556445Y1221638D01*
X554251Y1220729D01*
X552367Y1219283D01*
X550921Y1217399D01*
X550012Y1215205D01*
X549702Y1212850D01*
X550012Y1210495D01*
X550921Y1208301D01*
X552367Y1206417D01*
X554251Y1204971D01*
X556445Y1204062D01*
X558800Y1203752D01*
X561155Y1204062D01*
X563349Y1204971D01*
X565233Y1206417D01*
X566679Y1208301D01*
X567588Y1210495D01*
X567898Y1212850D01*
X567588Y1215205D01*
X566679Y1217399D01*
X565233Y1219283D01*
X563349Y1220729D01*
X561155Y1221638D01*
X558800Y1221948D01*
D02*
G37*
G36*
X523141Y1200401D02*
X518080D01*
Y1195070D01*
X523141D01*
Y1200401D01*
D02*
G37*
G36*
X714140Y1201220D02*
X703870D01*
Y1193800D01*
X714140D01*
Y1201220D01*
D02*
G37*
G36*
X810260Y1210518D02*
X807905Y1210208D01*
X805711Y1209299D01*
X803827Y1207853D01*
X802381Y1205969D01*
X801472Y1203775D01*
X801162Y1201420D01*
X801472Y1199065D01*
X802381Y1196871D01*
X803827Y1194987D01*
X805711Y1193541D01*
X807905Y1192632D01*
X810260Y1192322D01*
X812615Y1192632D01*
X814809Y1193541D01*
X816693Y1194987D01*
X818139Y1196871D01*
X819048Y1199065D01*
X819358Y1201420D01*
X819048Y1203775D01*
X818139Y1205969D01*
X816693Y1207853D01*
X814809Y1209299D01*
X812615Y1210208D01*
X810260Y1210518D01*
D02*
G37*
G36*
X352340Y1208690D02*
X346070D01*
Y1189920D01*
X352340D01*
Y1208690D01*
D02*
G37*
G36*
X343530D02*
X337260D01*
Y1189920D01*
X343530D01*
Y1208690D01*
D02*
G37*
G36*
X523141Y1192530D02*
X518080D01*
Y1187199D01*
X523141D01*
Y1192530D01*
D02*
G37*
G36*
X714140Y1191260D02*
X703870D01*
Y1183840D01*
X714140D01*
Y1191260D01*
D02*
G37*
G36*
X281830Y1187270D02*
X269060D01*
Y1178500D01*
X281830D01*
Y1187270D01*
D02*
G37*
G36*
X558800Y1196548D02*
X556445Y1196238D01*
X554251Y1195329D01*
X552367Y1193883D01*
X550921Y1191999D01*
X550012Y1189805D01*
X549702Y1187450D01*
X550012Y1185095D01*
X550921Y1182901D01*
X552367Y1181017D01*
X554251Y1179571D01*
X556445Y1178662D01*
X558800Y1178352D01*
X561155Y1178662D01*
X563349Y1179571D01*
X565233Y1181017D01*
X566679Y1182901D01*
X567588Y1185095D01*
X567898Y1187450D01*
X567588Y1189805D01*
X566679Y1191999D01*
X565233Y1193883D01*
X563349Y1195329D01*
X561155Y1196238D01*
X558800Y1196548D01*
D02*
G37*
G36*
X281830Y1175960D02*
X269060D01*
Y1167190D01*
X281830D01*
Y1175960D01*
D02*
G37*
G36*
X810260Y1185118D02*
X807905Y1184808D01*
X805711Y1183899D01*
X803827Y1182453D01*
X802381Y1180569D01*
X801472Y1178375D01*
X801162Y1176020D01*
X801472Y1173665D01*
X802381Y1171471D01*
X803827Y1169587D01*
X805711Y1168141D01*
X807905Y1167232D01*
X810260Y1166922D01*
X812615Y1167232D01*
X814809Y1168141D01*
X816693Y1169587D01*
X818139Y1171471D01*
X819048Y1173665D01*
X819358Y1176020D01*
X819048Y1178375D01*
X818139Y1180569D01*
X816693Y1182453D01*
X814809Y1183899D01*
X812615Y1184808D01*
X810260Y1185118D01*
D02*
G37*
G36*
X505540Y1164590D02*
X500479D01*
Y1159259D01*
X505540D01*
Y1164590D01*
D02*
G37*
G36*
X663900Y1215406D02*
X661708D01*
X660585Y1215183D01*
X659633Y1214547D01*
X658997Y1213595D01*
X658879Y1213000D01*
X656590D01*
Y1203960D01*
Y1194920D01*
X658879D01*
X658997Y1194325D01*
X659633Y1193373D01*
X660585Y1192737D01*
X661708Y1192514D01*
X662325D01*
Y1183220D01*
X662542Y1182131D01*
X663159Y1181208D01*
X675169Y1169199D01*
X676091Y1168582D01*
X677180Y1168365D01*
X681900D01*
Y1165670D01*
X686170D01*
Y1172210D01*
Y1178750D01*
X681900D01*
Y1174055D01*
X678358D01*
X668015Y1184398D01*
Y1192514D01*
X668633D01*
X669755Y1192737D01*
X670707Y1193373D01*
X671343Y1194325D01*
X671515Y1195190D01*
X665170D01*
Y1197730D01*
X671515D01*
X671343Y1198595D01*
X670707Y1199547D01*
X670389Y1199759D01*
X670526Y1200447D01*
Y1202473D01*
X671514Y1203615D01*
X682122D01*
X684364Y1201373D01*
X683878Y1200200D01*
X678690D01*
Y1184860D01*
X686455D01*
X686582Y1184221D01*
X687199Y1183299D01*
X690385Y1180112D01*
Y1178750D01*
X688710D01*
Y1172210D01*
Y1165670D01*
X690385D01*
Y1164308D01*
X684622Y1158545D01*
X661850D01*
X661385Y1159669D01*
X660123Y1161313D01*
X658479Y1162574D01*
X656565Y1163367D01*
X654510Y1163638D01*
X652456Y1163367D01*
X650541Y1162574D01*
X648897Y1161313D01*
X647636Y1159669D01*
X646843Y1157755D01*
X646572Y1155700D01*
X646843Y1153645D01*
X647636Y1151731D01*
X648897Y1150087D01*
X650541Y1148826D01*
X652456Y1148033D01*
X654510Y1147762D01*
X656565Y1148033D01*
X658479Y1148826D01*
X660123Y1150087D01*
X661385Y1151731D01*
X661850Y1152855D01*
X685800D01*
X686889Y1153072D01*
X687811Y1153689D01*
X695241Y1161118D01*
X695858Y1162041D01*
X696075Y1163130D01*
Y1181290D01*
X695858Y1182379D01*
X695241Y1183301D01*
X694856Y1183687D01*
X695342Y1184860D01*
X699730D01*
Y1200200D01*
X692055D01*
Y1200550D01*
X691838Y1201639D01*
X691221Y1202561D01*
X685311Y1208471D01*
X684389Y1209088D01*
X683300Y1209305D01*
X672634D01*
X671807Y1210190D01*
X665170D01*
Y1211460D01*
X663900D01*
Y1215406D01*
D02*
G37*
G36*
X847090Y1155499D02*
Y1146810D01*
X855779D01*
X855602Y1148161D01*
X854590Y1150603D01*
X852981Y1152701D01*
X850883Y1154310D01*
X848441Y1155322D01*
X847090Y1155499D01*
D02*
G37*
G36*
X844550D02*
X843199Y1155322D01*
X840757Y1154310D01*
X838659Y1152701D01*
X837050Y1150603D01*
X836038Y1148161D01*
X835861Y1146810D01*
X844550D01*
Y1155499D01*
D02*
G37*
G36*
X810260Y1159718D02*
X807905Y1159408D01*
X805711Y1158499D01*
X803827Y1157053D01*
X802381Y1155169D01*
X801472Y1152975D01*
X801162Y1150620D01*
X801472Y1148265D01*
X802381Y1146071D01*
X803827Y1144187D01*
X805711Y1142741D01*
X807905Y1141832D01*
X810260Y1141522D01*
X812615Y1141832D01*
X814809Y1142741D01*
X816693Y1144187D01*
X818139Y1146071D01*
X819048Y1148265D01*
X819358Y1150620D01*
X819048Y1152975D01*
X818139Y1155169D01*
X816693Y1157053D01*
X814809Y1158499D01*
X812615Y1159408D01*
X810260Y1159718D01*
D02*
G37*
G36*
X499190Y1145791D02*
X494129D01*
Y1140460D01*
X499190D01*
Y1145791D01*
D02*
G37*
G36*
X706460Y1177730D02*
X697420D01*
Y1166690D01*
X699095D01*
Y1149468D01*
X690547Y1140920D01*
X677030D01*
Y1138225D01*
X674090D01*
X673624Y1139349D01*
X672363Y1140993D01*
X670719Y1142254D01*
X668804Y1143047D01*
X666750Y1143318D01*
X664696Y1143047D01*
X662781Y1142254D01*
X661137Y1140993D01*
X659876Y1139349D01*
X659083Y1137434D01*
X658812Y1135380D01*
X659083Y1133326D01*
X659876Y1131411D01*
X661137Y1129767D01*
X662781Y1128506D01*
X664696Y1127713D01*
X666750Y1127442D01*
X668804Y1127713D01*
X670719Y1128506D01*
X672363Y1129767D01*
X673624Y1131411D01*
X674090Y1132535D01*
X677030D01*
Y1132380D01*
X694570D01*
Y1136897D01*
X703951Y1146279D01*
X704568Y1147201D01*
X704785Y1148290D01*
Y1166690D01*
X706460D01*
Y1177730D01*
D02*
G37*
G36*
X550530Y1144251D02*
X543469D01*
Y1137920D01*
X550530D01*
Y1144251D01*
D02*
G37*
G36*
X855779Y1144270D02*
X847090D01*
Y1135581D01*
X848441Y1135758D01*
X850883Y1136770D01*
X852981Y1138379D01*
X854590Y1140477D01*
X855602Y1142919D01*
X855779Y1144270D01*
D02*
G37*
G36*
X844550D02*
X835861D01*
X836038Y1142919D01*
X837050Y1140477D01*
X838659Y1138379D01*
X840757Y1136770D01*
X843199Y1135758D01*
X844550Y1135581D01*
Y1144270D01*
D02*
G37*
G36*
X346780Y1139240D02*
X343760D01*
Y1135470D01*
X346780D01*
Y1139240D01*
D02*
G37*
G36*
X591820Y1153368D02*
X589465Y1153058D01*
X587271Y1152149D01*
X585387Y1150703D01*
X583941Y1148819D01*
X583032Y1146625D01*
X582722Y1144270D01*
X583032Y1141915D01*
X583941Y1139721D01*
X585387Y1137837D01*
X587271Y1136391D01*
X589465Y1135482D01*
X591820Y1135172D01*
X594175Y1135482D01*
X596369Y1136391D01*
X598253Y1137837D01*
X599699Y1139721D01*
X600608Y1141915D01*
X600918Y1144270D01*
X600608Y1146625D01*
X599699Y1148819D01*
X598253Y1150703D01*
X596369Y1152149D01*
X594175Y1153058D01*
X591820Y1153368D01*
D02*
G37*
G36*
X499190Y1137920D02*
X494129D01*
Y1132589D01*
X499190D01*
Y1137920D01*
D02*
G37*
G36*
X576580Y1187768D02*
X574525Y1187497D01*
X572611Y1186704D01*
X570967Y1185443D01*
X569706Y1183799D01*
X568913Y1181885D01*
X568642Y1179830D01*
X568913Y1177775D01*
X569706Y1175861D01*
X570967Y1174217D01*
X572611Y1172956D01*
X574525Y1172163D01*
X576580Y1171892D01*
X578634Y1172163D01*
X580549Y1172956D01*
X582193Y1174217D01*
X583454Y1175861D01*
X583683Y1176412D01*
X584011Y1176397D01*
X584616Y1175098D01*
X583941Y1174219D01*
X583032Y1172025D01*
X582722Y1169670D01*
X583032Y1167315D01*
X583941Y1165121D01*
X585387Y1163237D01*
X587271Y1161791D01*
X589465Y1160882D01*
X591820Y1160572D01*
X594175Y1160882D01*
X596369Y1161791D01*
X598253Y1163237D01*
X599699Y1165121D01*
X600608Y1167315D01*
X600918Y1169670D01*
X600608Y1172025D01*
X599699Y1174219D01*
X598451Y1175845D01*
X598847Y1177115D01*
X605752D01*
X639228Y1143639D01*
X638763Y1142514D01*
X638492Y1140460D01*
X638763Y1138406D01*
X639556Y1136491D01*
X640817Y1134847D01*
X642461Y1133586D01*
X644376Y1132793D01*
X646430Y1132522D01*
X648484Y1132793D01*
X650399Y1133586D01*
X652043Y1134847D01*
X653304Y1136491D01*
X654097Y1138406D01*
X654368Y1140460D01*
X654097Y1142514D01*
X653304Y1144429D01*
X652043Y1146073D01*
X650399Y1147334D01*
X648484Y1148127D01*
X646430Y1148398D01*
X644376Y1148127D01*
X643251Y1147662D01*
X608941Y1181971D01*
X608019Y1182588D01*
X606930Y1182804D01*
X583866D01*
X583454Y1183799D01*
X582193Y1185443D01*
X580549Y1186704D01*
X578634Y1187497D01*
X576580Y1187768D01*
D02*
G37*
G36*
X346780Y1132930D02*
X343760D01*
Y1129160D01*
X346780D01*
Y1132930D01*
D02*
G37*
G36*
X550530Y1135380D02*
X543469D01*
Y1129049D01*
X550530D01*
Y1135380D01*
D02*
G37*
G36*
X401320Y1126490D02*
X393791D01*
X393929Y1125439D01*
X394825Y1123277D01*
X396250Y1121420D01*
X398107Y1119995D01*
X400269Y1119099D01*
X401320Y1118960D01*
Y1126490D01*
D02*
G37*
G36*
X499190Y1121661D02*
X494129D01*
Y1116330D01*
X499190D01*
Y1121661D01*
D02*
G37*
G36*
X810260Y1134318D02*
X807905Y1134008D01*
X805711Y1133099D01*
X803827Y1131653D01*
X802381Y1129769D01*
X801472Y1127575D01*
X801162Y1125220D01*
X801472Y1122865D01*
X802381Y1120671D01*
X803827Y1118787D01*
X805711Y1117341D01*
X807905Y1116432D01*
X810260Y1116122D01*
X812615Y1116432D01*
X814809Y1117341D01*
X816693Y1118787D01*
X818139Y1120671D01*
X819048Y1122865D01*
X819358Y1125220D01*
X819048Y1127575D01*
X818139Y1129769D01*
X816693Y1131653D01*
X814809Y1133099D01*
X812615Y1134008D01*
X810260Y1134318D01*
D02*
G37*
G36*
X854840Y1129160D02*
X836800D01*
Y1111120D01*
X854840D01*
Y1129160D01*
D02*
G37*
G36*
X308830Y1110460D02*
X289560D01*
Y1105690D01*
X308830D01*
Y1110460D01*
D02*
G37*
G36*
X287020D02*
X267750D01*
Y1105690D01*
X287020D01*
Y1110460D01*
D02*
G37*
G36*
X281830Y1101270D02*
X269060D01*
Y1092500D01*
X281830D01*
Y1101270D01*
D02*
G37*
G36*
X499190Y1088390D02*
X494129D01*
Y1083059D01*
X499190D01*
Y1088390D01*
D02*
G37*
G36*
X768350Y1100028D02*
X765995Y1099718D01*
X763801Y1098809D01*
X761917Y1097363D01*
X760471Y1095479D01*
X759562Y1093285D01*
X759252Y1090930D01*
X759562Y1088575D01*
X760471Y1086381D01*
X761917Y1084497D01*
X763801Y1083051D01*
X765995Y1082142D01*
X768350Y1081832D01*
X770705Y1082142D01*
X772899Y1083051D01*
X774783Y1084497D01*
X776229Y1086381D01*
X777138Y1088575D01*
X777448Y1090930D01*
X777138Y1093285D01*
X776229Y1095479D01*
X774783Y1097363D01*
X772899Y1098809D01*
X770705Y1099718D01*
X768350Y1100028D01*
D02*
G37*
G36*
X281830Y1089960D02*
X269060D01*
Y1081190D01*
X281830D01*
Y1089960D01*
D02*
G37*
G36*
X852170Y1089978D02*
X850116Y1089707D01*
X848201Y1088914D01*
X846557Y1087653D01*
X845296Y1086009D01*
X844830Y1084885D01*
X837460D01*
X836372Y1084668D01*
X835449Y1084051D01*
X815962Y1064565D01*
X813356D01*
X813103Y1065835D01*
X814809Y1066541D01*
X816693Y1067987D01*
X818139Y1069871D01*
X819048Y1072065D01*
X819358Y1074420D01*
X819048Y1076775D01*
X818139Y1078969D01*
X816693Y1080853D01*
X814809Y1082299D01*
X812615Y1083208D01*
X810260Y1083518D01*
X807905Y1083208D01*
X805711Y1082299D01*
X803827Y1080853D01*
X802381Y1078969D01*
X801675Y1077265D01*
X786921D01*
X785833Y1077048D01*
X784910Y1076431D01*
X761259Y1052780D01*
X760642Y1051857D01*
X760425Y1050769D01*
Y962355D01*
X758721Y961649D01*
X756837Y960203D01*
X755391Y958319D01*
X754482Y956125D01*
X754172Y953770D01*
X754482Y951415D01*
X755391Y949221D01*
X756837Y947337D01*
X758721Y945891D01*
X760915Y944982D01*
X763270Y944672D01*
X765625Y944982D01*
X767819Y945891D01*
X769703Y947337D01*
X771149Y949221D01*
X772058Y951415D01*
X772368Y953770D01*
X772058Y956125D01*
X771149Y958319D01*
X769703Y960203D01*
X767819Y961649D01*
X766115Y962355D01*
Y979430D01*
X767385Y979683D01*
X767696Y978931D01*
X769148Y977038D01*
X771041Y975586D01*
X773245Y974673D01*
X775610Y974362D01*
X777975Y974673D01*
X780179Y975586D01*
X782072Y977038D01*
X783524Y978931D01*
X784437Y981135D01*
X784748Y983500D01*
X784437Y985865D01*
X783524Y988069D01*
X782072Y989962D01*
X780179Y991414D01*
X778455Y992128D01*
Y1039872D01*
X780179Y1040586D01*
X782072Y1042038D01*
X783524Y1043931D01*
X784437Y1046135D01*
X784748Y1048500D01*
X784437Y1050865D01*
X783722Y1052590D01*
X790008Y1058875D01*
X807164D01*
X807417Y1057605D01*
X805711Y1056899D01*
X803827Y1055453D01*
X802381Y1053569D01*
X801472Y1051375D01*
X801162Y1049020D01*
X801472Y1046665D01*
X802381Y1044471D01*
X803827Y1042587D01*
X805711Y1041141D01*
X807905Y1040232D01*
X810260Y1039922D01*
X812615Y1040232D01*
X814809Y1041141D01*
X816693Y1042587D01*
X818139Y1044471D01*
X819048Y1046665D01*
X819358Y1049020D01*
X819048Y1051375D01*
X818139Y1053569D01*
X816693Y1055453D01*
X814809Y1056899D01*
X813103Y1057605D01*
X813356Y1058875D01*
X817140D01*
X818229Y1059092D01*
X819152Y1059709D01*
X838639Y1079195D01*
X844830D01*
X845296Y1078071D01*
X846557Y1076427D01*
X848201Y1075166D01*
X850116Y1074373D01*
X852170Y1074102D01*
X854224Y1074373D01*
X856139Y1075166D01*
X857783Y1076427D01*
X859044Y1078071D01*
X859837Y1079986D01*
X860108Y1082040D01*
X859837Y1084094D01*
X859044Y1086009D01*
X857783Y1087653D01*
X856139Y1088914D01*
X854224Y1089707D01*
X852170Y1089978D01*
D02*
G37*
G36*
X499190Y1065781D02*
X494129D01*
Y1060450D01*
X499190D01*
Y1065781D01*
D02*
G37*
G36*
X468710Y1056891D02*
X463649D01*
Y1051560D01*
X468710D01*
Y1056891D01*
D02*
G37*
G36*
X740690Y1058580D02*
X731880D01*
Y1049770D01*
X740690D01*
Y1058580D01*
D02*
G37*
G36*
X729340D02*
X720530D01*
Y1049770D01*
X729340D01*
Y1058580D01*
D02*
G37*
G36*
X468710Y1049020D02*
X463649D01*
Y1043689D01*
X468710D01*
Y1049020D01*
D02*
G37*
G36*
X740690Y1047230D02*
X731880D01*
Y1038420D01*
X740690D01*
Y1047230D01*
D02*
G37*
G36*
X729340D02*
X720530D01*
Y1038420D01*
X729340D01*
Y1047230D01*
D02*
G37*
G36*
X393600Y1036030D02*
X389830D01*
Y1032510D01*
X393600D01*
Y1036030D01*
D02*
G37*
G36*
X845820Y1049228D02*
X843465Y1048918D01*
X841271Y1048009D01*
X839387Y1046563D01*
X837941Y1044679D01*
X837032Y1042485D01*
X836722Y1040130D01*
X837032Y1037775D01*
X837941Y1035581D01*
X839387Y1033697D01*
X841271Y1032251D01*
X843465Y1031342D01*
X845820Y1031032D01*
X848175Y1031342D01*
X850369Y1032251D01*
X852253Y1033697D01*
X853699Y1035581D01*
X854608Y1037775D01*
X854918Y1040130D01*
X854608Y1042485D01*
X853699Y1044679D01*
X852253Y1046563D01*
X850369Y1048009D01*
X848175Y1048918D01*
X845820Y1049228D01*
D02*
G37*
G36*
X347060Y1036770D02*
X331520D01*
Y1027230D01*
X347060D01*
Y1036770D01*
D02*
G37*
G36*
X452120Y1040448D02*
X450065Y1040177D01*
X448151Y1039384D01*
X446507Y1038123D01*
X445246Y1036479D01*
X444453Y1034565D01*
X444182Y1032510D01*
X444453Y1030455D01*
X445246Y1028541D01*
X446507Y1026897D01*
X448151Y1025636D01*
X450065Y1024843D01*
X452120Y1024572D01*
X454174Y1024843D01*
X456089Y1025636D01*
X457733Y1026897D01*
X458994Y1028541D01*
X459787Y1030455D01*
X460058Y1032510D01*
X459787Y1034565D01*
X458994Y1036479D01*
X457733Y1038123D01*
X456089Y1039384D01*
X454174Y1040177D01*
X452120Y1040448D01*
D02*
G37*
G36*
X591820Y1051768D02*
X589465Y1051458D01*
X587271Y1050549D01*
X585387Y1049103D01*
X583941Y1047219D01*
X583032Y1045025D01*
X582722Y1042670D01*
X583032Y1040315D01*
X583941Y1038121D01*
X585387Y1036237D01*
X587271Y1034791D01*
X588975Y1034085D01*
Y1026643D01*
X589192Y1025555D01*
X589809Y1024632D01*
X593761Y1020679D01*
Y1011992D01*
X585961D01*
X581211Y1016741D01*
X580289Y1017358D01*
X579200Y1017575D01*
X568655D01*
X567949Y1019279D01*
X566503Y1021163D01*
X564619Y1022609D01*
X562425Y1023518D01*
X560070Y1023828D01*
X557715Y1023518D01*
X555521Y1022609D01*
X553637Y1021163D01*
X552191Y1019279D01*
X551282Y1017085D01*
X550972Y1014730D01*
X551282Y1012375D01*
X552191Y1010181D01*
X553637Y1008297D01*
X555521Y1006851D01*
X557715Y1005942D01*
X560070Y1005632D01*
X562425Y1005942D01*
X564619Y1006851D01*
X566503Y1008297D01*
X567949Y1010181D01*
X568655Y1011885D01*
X578022D01*
X581938Y1007969D01*
Y1002228D01*
X584404D01*
Y996441D01*
X584621Y995353D01*
X585237Y994430D01*
X602509Y977159D01*
X603431Y976542D01*
X604520Y976325D01*
X632301D01*
X633561Y975066D01*
X633074Y973892D01*
X627658D01*
Y971855D01*
X616100D01*
Y972780D01*
X600560D01*
Y971855D01*
X593200D01*
X593137Y972335D01*
X592344Y974249D01*
X591083Y975893D01*
X589439Y977154D01*
X587524Y977947D01*
X585470Y978218D01*
X583415Y977947D01*
X581501Y977154D01*
X579857Y975893D01*
X578596Y974249D01*
X577803Y972335D01*
X577532Y970280D01*
X577803Y968225D01*
X578596Y966311D01*
X579857Y964667D01*
X581501Y963406D01*
X583415Y962613D01*
X585470Y962342D01*
X587524Y962613D01*
X589439Y963406D01*
X591083Y964667D01*
X592233Y966165D01*
X600560D01*
Y965240D01*
X616100D01*
Y966165D01*
X627658D01*
Y964128D01*
X647422D01*
Y973892D01*
X642531D01*
X642030Y974642D01*
X635490Y981181D01*
X634568Y981798D01*
X633479Y982015D01*
X605698D01*
X590093Y997619D01*
Y1002228D01*
X601702D01*
Y1011992D01*
X599450D01*
Y1021858D01*
X599234Y1022946D01*
X598617Y1023869D01*
X594665Y1027821D01*
Y1034085D01*
X596369Y1034791D01*
X598253Y1036237D01*
X599699Y1038121D01*
X600608Y1040315D01*
X600918Y1042670D01*
X600608Y1045025D01*
X599699Y1047219D01*
X598253Y1049103D01*
X596369Y1050549D01*
X594175Y1051458D01*
X591820Y1051768D01*
D02*
G37*
G36*
X626110Y1027638D02*
X623755Y1027328D01*
X621561Y1026419D01*
X619677Y1024973D01*
X618231Y1023089D01*
X617322Y1020895D01*
X617012Y1018540D01*
X617322Y1016185D01*
X618231Y1013991D01*
X619677Y1012107D01*
X621561Y1010661D01*
X623755Y1009752D01*
X626110Y1009442D01*
X628465Y1009752D01*
X630659Y1010661D01*
X632543Y1012107D01*
X633989Y1013991D01*
X634898Y1016185D01*
X635208Y1018540D01*
X634898Y1020895D01*
X633989Y1023089D01*
X632543Y1024973D01*
X630659Y1026419D01*
X628465Y1027328D01*
X626110Y1027638D01*
D02*
G37*
G36*
X507570Y1029110D02*
X483030D01*
Y1010435D01*
X474190D01*
X473101Y1010218D01*
X472179Y1009601D01*
X460269Y997691D01*
X459652Y996769D01*
X459435Y995680D01*
Y991590D01*
X458311Y991124D01*
X457388Y990416D01*
X456757Y991047D01*
X455834Y991664D01*
X454745Y991880D01*
X437952D01*
Y994132D01*
X428188D01*
Y982402D01*
X422510D01*
X421430Y982860D01*
Y987580D01*
X415290D01*
X409150D01*
Y982860D01*
X410170D01*
Y974680D01*
X412960D01*
Y965860D01*
X411800D01*
Y952983D01*
X410530Y952457D01*
X405840Y957147D01*
Y965860D01*
X400823D01*
X383937Y982746D01*
X383014Y983362D01*
X381926Y983579D01*
X374452D01*
Y987461D01*
X379436D01*
X380524Y987678D01*
X381447Y988294D01*
X399411Y1006258D01*
X400536Y1005793D01*
X402590Y1005522D01*
X404645Y1005793D01*
X406559Y1006586D01*
X408203Y1007847D01*
X409464Y1009491D01*
X410257Y1011405D01*
X410528Y1013460D01*
X410257Y1015515D01*
X409464Y1017429D01*
X408203Y1019073D01*
X406559Y1020334D01*
X404645Y1021127D01*
X402590Y1021398D01*
X400536Y1021127D01*
X398621Y1020334D01*
X396977Y1019073D01*
X395716Y1017429D01*
X394923Y1015515D01*
X394652Y1013460D01*
X394923Y1011405D01*
X395388Y1010281D01*
X378257Y993150D01*
X374452D01*
Y995402D01*
X364688D01*
Y983579D01*
X348391D01*
Y987505D01*
X349411D01*
Y996048D01*
X339090D01*
X328769D01*
Y987505D01*
X329789D01*
Y970009D01*
X348391D01*
Y977890D01*
X364688D01*
Y975638D01*
X374452D01*
Y977890D01*
X380747D01*
X390584Y968053D01*
X390098Y966880D01*
X387590D01*
Y957840D01*
Y948800D01*
X390675D01*
Y926340D01*
X391157Y925177D01*
X397157Y919177D01*
X398320Y918695D01*
X404320D01*
X405483Y919177D01*
X411483Y925177D01*
X411965Y926340D01*
Y949537D01*
X411965Y949820D01*
X412541Y949820D01*
X420840D01*
Y965860D01*
X418650D01*
Y974680D01*
X420410D01*
Y976713D01*
X428188D01*
Y974368D01*
X437952D01*
Y986191D01*
X453567D01*
X454478Y985280D01*
X454342Y984250D01*
X454613Y982196D01*
X455406Y980281D01*
X456667Y978637D01*
X458311Y977376D01*
X460225Y976583D01*
X462280Y976312D01*
X464334Y976583D01*
X466249Y977376D01*
X467893Y978637D01*
X469154Y980281D01*
X469947Y982196D01*
X470218Y984250D01*
X469947Y986304D01*
X469154Y988219D01*
X467893Y989863D01*
X466249Y991124D01*
X465125Y991590D01*
Y994502D01*
X475368Y1004745D01*
X483030D01*
Y986070D01*
X507570D01*
Y1029110D01*
D02*
G37*
G36*
X349411Y1007131D02*
X340360D01*
Y998588D01*
X349411D01*
Y1007131D01*
D02*
G37*
G36*
X337820D02*
X328769D01*
Y998588D01*
X337820D01*
Y1007131D01*
D02*
G37*
G36*
X305450Y1005380D02*
X290410D01*
Y995340D01*
X305450D01*
Y1005380D01*
D02*
G37*
G36*
X847090Y999289D02*
Y990600D01*
X855779D01*
X855602Y991951D01*
X854590Y994393D01*
X852981Y996491D01*
X850883Y998100D01*
X848441Y999112D01*
X847090Y999289D01*
D02*
G37*
G36*
X561340D02*
Y990600D01*
X570029D01*
X569852Y991951D01*
X568840Y994393D01*
X567231Y996491D01*
X565133Y998100D01*
X562691Y999112D01*
X561340Y999289D01*
D02*
G37*
G36*
X558800D02*
X557449Y999112D01*
X555007Y998100D01*
X552909Y996491D01*
X551300Y994393D01*
X550288Y991951D01*
X550111Y990600D01*
X558800D01*
Y999289D01*
D02*
G37*
G36*
X844550D02*
X843199Y999112D01*
X840757Y998100D01*
X838659Y996491D01*
X837050Y994393D01*
X836038Y991951D01*
X835861Y990600D01*
X844550D01*
Y999289D01*
D02*
G37*
G36*
X421430Y994840D02*
X416560D01*
Y990120D01*
X421430D01*
Y994840D01*
D02*
G37*
G36*
X414020D02*
X409150D01*
Y990120D01*
X414020D01*
Y994840D01*
D02*
G37*
G36*
X660760Y998580D02*
Y989850D01*
X669490D01*
X669311Y991211D01*
X668295Y993663D01*
X666679Y995769D01*
X664574Y997385D01*
X662121Y998400D01*
X660760Y998580D01*
D02*
G37*
G36*
X658220Y998580D02*
X656859Y998400D01*
X654407Y997385D01*
X652301Y995769D01*
X650685Y993663D01*
X649669Y991211D01*
X649490Y989850D01*
X658220D01*
Y998580D01*
D02*
G37*
G36*
X810260Y1032718D02*
X807905Y1032408D01*
X805711Y1031499D01*
X803827Y1030053D01*
X802381Y1028169D01*
X801472Y1025975D01*
X801162Y1023620D01*
X801472Y1021265D01*
X802381Y1019071D01*
X803827Y1017187D01*
X805711Y1015741D01*
X807905Y1014832D01*
X810260Y1014522D01*
X812615Y1014832D01*
X814319Y1015538D01*
X825575Y1004282D01*
Y988587D01*
X824402Y988101D01*
X818342Y994161D01*
X819048Y995865D01*
X819358Y998220D01*
X819048Y1000575D01*
X818139Y1002769D01*
X816693Y1004653D01*
X814809Y1006099D01*
X812615Y1007008D01*
X810260Y1007318D01*
X807905Y1007008D01*
X805711Y1006099D01*
X803827Y1004653D01*
X802381Y1002769D01*
X801472Y1000575D01*
X801162Y998220D01*
X801472Y995865D01*
X802381Y993671D01*
X803827Y991787D01*
X805711Y990341D01*
X807905Y989432D01*
X810260Y989122D01*
X812615Y989432D01*
X814319Y990138D01*
X821515Y982942D01*
Y963810D01*
X815340D01*
Y953770D01*
Y943730D01*
X821515D01*
Y850938D01*
X783682Y813105D01*
X747725D01*
X747019Y814809D01*
X745573Y816693D01*
X743689Y818139D01*
X741495Y819048D01*
X739140Y819358D01*
X736785Y819048D01*
X734591Y818139D01*
X732707Y816693D01*
X731261Y814809D01*
X730352Y812615D01*
X730042Y810260D01*
X730352Y807905D01*
X731261Y805711D01*
X732707Y803827D01*
X734591Y802381D01*
X736785Y801472D01*
X739140Y801162D01*
X741495Y801472D01*
X743689Y802381D01*
X745573Y803827D01*
X747019Y805711D01*
X747725Y807415D01*
X782683D01*
X783169Y806242D01*
X764632Y787705D01*
X747725D01*
X747019Y789409D01*
X745573Y791293D01*
X743689Y792739D01*
X741495Y793648D01*
X739140Y793958D01*
X736785Y793648D01*
X734591Y792739D01*
X732707Y791293D01*
X731261Y789409D01*
X730352Y787215D01*
X730042Y784860D01*
X730352Y782505D01*
X731261Y780311D01*
X732707Y778427D01*
X734591Y776981D01*
X736785Y776072D01*
X739140Y775762D01*
X741495Y776072D01*
X743689Y776981D01*
X745573Y778427D01*
X747019Y780311D01*
X747725Y782015D01*
X765810D01*
X766899Y782232D01*
X767821Y782849D01*
X830431Y845459D01*
X831048Y846381D01*
X831264Y847470D01*
Y1005460D01*
X831048Y1006549D01*
X830431Y1007472D01*
X818342Y1019561D01*
X819048Y1021265D01*
X819358Y1023620D01*
X819048Y1025975D01*
X818139Y1028169D01*
X816693Y1030053D01*
X814809Y1031499D01*
X812615Y1032408D01*
X810260Y1032718D01*
D02*
G37*
G36*
X731880Y993500D02*
Y984770D01*
X740610D01*
X740431Y986131D01*
X739415Y988584D01*
X737799Y990689D01*
X735694Y992305D01*
X733241Y993320D01*
X731880Y993500D01*
D02*
G37*
G36*
X729340Y993500D02*
X727979Y993320D01*
X725527Y992305D01*
X723421Y990689D01*
X721805Y988584D01*
X720789Y986131D01*
X720610Y984770D01*
X729340D01*
Y993500D01*
D02*
G37*
G36*
X626110Y1002238D02*
X623755Y1001928D01*
X621561Y1001019D01*
X619677Y999573D01*
X618231Y997689D01*
X617322Y995495D01*
X617012Y993140D01*
X617322Y990785D01*
X618231Y988591D01*
X619677Y986707D01*
X621561Y985261D01*
X623755Y984352D01*
X626110Y984042D01*
X628465Y984352D01*
X630659Y985261D01*
X632543Y986707D01*
X633989Y988591D01*
X634898Y990785D01*
X635208Y993140D01*
X634898Y995495D01*
X633989Y997689D01*
X632543Y999573D01*
X630659Y1001019D01*
X628465Y1001928D01*
X626110Y1002238D01*
D02*
G37*
G36*
X704490Y997718D02*
X702125Y997407D01*
X699921Y996494D01*
X698028Y995042D01*
X696576Y993149D01*
X695663Y990945D01*
X695352Y988580D01*
X695663Y986215D01*
X696576Y984011D01*
X698028Y982118D01*
X699921Y980666D01*
X702125Y979753D01*
X704490Y979442D01*
X706855Y979753D01*
X709059Y980666D01*
X710952Y982118D01*
X712404Y984011D01*
X713317Y986215D01*
X713628Y988580D01*
X713317Y990945D01*
X712404Y993149D01*
X710952Y995042D01*
X709059Y996494D01*
X706855Y997407D01*
X704490Y997718D01*
D02*
G37*
G36*
X855779Y988060D02*
X847090D01*
Y979371D01*
X848441Y979548D01*
X850883Y980560D01*
X852981Y982169D01*
X854590Y984267D01*
X855602Y986709D01*
X855779Y988060D01*
D02*
G37*
G36*
X570029D02*
X561340D01*
Y979371D01*
X562691Y979548D01*
X565133Y980560D01*
X567231Y982169D01*
X568840Y984267D01*
X569852Y986709D01*
X570029Y988060D01*
D02*
G37*
G36*
X558800D02*
X550111D01*
X550288Y986709D01*
X551300Y984267D01*
X552909Y982169D01*
X555007Y980560D01*
X557449Y979548D01*
X558800Y979371D01*
Y988060D01*
D02*
G37*
G36*
X844550D02*
X835861D01*
X836038Y986709D01*
X837050Y984267D01*
X838659Y982169D01*
X840757Y980560D01*
X843199Y979548D01*
X844550Y979371D01*
Y988060D01*
D02*
G37*
G36*
X658220Y987310D02*
X649490D01*
X649669Y985949D01*
X650685Y983496D01*
X652301Y981391D01*
X654407Y979775D01*
X656859Y978760D01*
X658220Y978580D01*
Y987310D01*
D02*
G37*
G36*
X669490D02*
X660760D01*
Y978580D01*
X662121Y978760D01*
X664574Y979775D01*
X666679Y981391D01*
X668295Y983496D01*
X669311Y985949D01*
X669490Y987310D01*
D02*
G37*
G36*
X729340Y982230D02*
X720610D01*
X720789Y980869D01*
X721805Y978417D01*
X723421Y976311D01*
X725527Y974695D01*
X727979Y973680D01*
X729340Y973500D01*
Y982230D01*
D02*
G37*
G36*
X740610D02*
X731880D01*
Y973500D01*
X733241Y973680D01*
X735694Y974695D01*
X737799Y976311D01*
X739415Y978417D01*
X740431Y980869D01*
X740610Y982230D01*
D02*
G37*
G36*
X385050Y966880D02*
X380780D01*
Y959110D01*
X385050D01*
Y966880D01*
D02*
G37*
G36*
X812800Y963810D02*
X804030D01*
Y955040D01*
X812800D01*
Y963810D01*
D02*
G37*
G36*
X854840Y972950D02*
X836800D01*
Y954910D01*
X854840D01*
Y972950D01*
D02*
G37*
G36*
X560070Y973028D02*
X557715Y972718D01*
X555521Y971809D01*
X553637Y970363D01*
X552191Y968479D01*
X551282Y966285D01*
X550972Y963930D01*
X551282Y961575D01*
X552191Y959381D01*
X553637Y957497D01*
X555521Y956051D01*
X557715Y955142D01*
X560070Y954832D01*
X562425Y955142D01*
X564619Y956051D01*
X566135Y957214D01*
X572860Y950489D01*
X573783Y949872D01*
X574872Y949655D01*
X661670D01*
X662759Y949872D01*
X663681Y950489D01*
X665231Y952038D01*
X666935Y951332D01*
X669290Y951022D01*
X671645Y951332D01*
X673839Y952241D01*
X675723Y953687D01*
X677169Y955571D01*
X678078Y957765D01*
X678388Y960120D01*
X678078Y962475D01*
X677169Y964669D01*
X675723Y966553D01*
X673839Y967999D01*
X671645Y968908D01*
X669290Y969218D01*
X666935Y968908D01*
X664741Y967999D01*
X662857Y966553D01*
X661411Y964669D01*
X660502Y962475D01*
X660192Y960120D01*
X660502Y957765D01*
X661080Y956371D01*
X660265Y955345D01*
X576050D01*
X568970Y962425D01*
X569168Y963930D01*
X568858Y966285D01*
X567949Y968479D01*
X566503Y970363D01*
X564619Y971809D01*
X562425Y972718D01*
X560070Y973028D01*
D02*
G37*
G36*
X385050Y956570D02*
X380780D01*
Y948800D01*
X385050D01*
Y956570D01*
D02*
G37*
G36*
X305450Y980380D02*
X290410D01*
Y970340D01*
X305450D01*
Y972515D01*
X307432D01*
X312115Y967832D01*
Y961110D01*
X310991Y960644D01*
X309347Y959383D01*
X308086Y957739D01*
X307293Y955825D01*
X307022Y953770D01*
X307293Y951715D01*
X308086Y949801D01*
X309347Y948157D01*
X310991Y946896D01*
X312906Y946103D01*
X314960Y945832D01*
X317015Y946103D01*
X318929Y946896D01*
X320573Y948157D01*
X321834Y949801D01*
X322627Y951715D01*
X322898Y953770D01*
X322627Y955825D01*
X321834Y957739D01*
X320573Y959383D01*
X318929Y960644D01*
X317805Y961110D01*
Y969010D01*
X317588Y970099D01*
X316971Y971021D01*
X310621Y977371D01*
X309699Y977988D01*
X308610Y978205D01*
X305450D01*
Y980380D01*
D02*
G37*
G36*
X788670Y962868D02*
X786315Y962558D01*
X784121Y961649D01*
X782237Y960203D01*
X780791Y958319D01*
X779882Y956125D01*
X779572Y953770D01*
X779882Y951415D01*
X780791Y949221D01*
X782237Y947337D01*
X784121Y945891D01*
X786315Y944982D01*
X788670Y944672D01*
X791025Y944982D01*
X793219Y945891D01*
X795103Y947337D01*
X796549Y949221D01*
X797458Y951415D01*
X797768Y953770D01*
X797458Y956125D01*
X796549Y958319D01*
X795103Y960203D01*
X793219Y961649D01*
X791025Y962558D01*
X788670Y962868D01*
D02*
G37*
G36*
X812800Y952500D02*
X804030D01*
Y943730D01*
X812800D01*
Y952500D01*
D02*
G37*
G36*
X508590Y963130D02*
X496570D01*
Y941860D01*
X508590D01*
Y963130D01*
D02*
G37*
G36*
X494030D02*
X482010D01*
Y941860D01*
X494030D01*
Y963130D01*
D02*
G37*
G36*
X811170Y932770D02*
Y924040D01*
X819900D01*
X819721Y925401D01*
X818705Y927853D01*
X817089Y929959D01*
X814984Y931575D01*
X812531Y932590D01*
X811170Y932770D01*
D02*
G37*
G36*
X808630Y932770D02*
X807269Y932590D01*
X804817Y931575D01*
X802711Y929959D01*
X801095Y927853D01*
X800079Y925401D01*
X799900Y924040D01*
X808630D01*
Y932770D01*
D02*
G37*
G36*
X508590Y939320D02*
X496570D01*
Y918050D01*
X508590D01*
Y939320D01*
D02*
G37*
G36*
X494030D02*
X482010D01*
Y918050D01*
X494030D01*
Y939320D01*
D02*
G37*
G36*
X819900Y921500D02*
X811170D01*
Y912770D01*
X812531Y912950D01*
X814984Y913965D01*
X817089Y915581D01*
X818705Y917686D01*
X819721Y920139D01*
X819900Y921500D01*
D02*
G37*
G36*
X808630D02*
X799900D01*
X800079Y920139D01*
X801095Y917686D01*
X802711Y915581D01*
X804817Y913965D01*
X807269Y912950D01*
X808630Y912770D01*
Y921500D01*
D02*
G37*
G36*
X679330Y919360D02*
X670560D01*
Y910590D01*
X679330D01*
Y919360D01*
D02*
G37*
G36*
X668020D02*
X659250D01*
Y910590D01*
X668020D01*
Y919360D01*
D02*
G37*
G36*
X305450Y955380D02*
X290410D01*
Y945340D01*
X295085D01*
Y936510D01*
X295302Y935421D01*
X295919Y934499D01*
X317029Y913389D01*
X317951Y912772D01*
X319040Y912555D01*
X322990D01*
Y908880D01*
X332030D01*
Y915897D01*
X334817Y918684D01*
X335990Y918198D01*
Y908880D01*
X337665D01*
Y872482D01*
X276119Y810935D01*
X275502Y810012D01*
X275285Y808923D01*
Y773145D01*
X274164Y772680D01*
X272521Y771419D01*
X271260Y769776D01*
X270467Y767863D01*
X270197Y765810D01*
X270467Y763757D01*
X271260Y761844D01*
X272521Y760201D01*
X274164Y758940D01*
X276077Y758148D01*
X278130Y757877D01*
X280183Y758148D01*
X282096Y758940D01*
X283739Y760201D01*
X285000Y761844D01*
X285793Y763757D01*
X286063Y765810D01*
X285793Y767863D01*
X285000Y769776D01*
X283739Y771419D01*
X282096Y772680D01*
X280975Y773145D01*
Y807745D01*
X342522Y869292D01*
X343138Y870215D01*
X343355Y871303D01*
Y908880D01*
X345030D01*
Y919920D01*
X346082Y920445D01*
X350612D01*
X378989Y892068D01*
X379911Y891452D01*
X381000Y891235D01*
X385151D01*
X385677Y889965D01*
X301519Y805807D01*
X300902Y804884D01*
X300685Y803795D01*
Y773145D01*
X299564Y772680D01*
X297921Y771419D01*
X296660Y769776D01*
X295868Y767863D01*
X295597Y765810D01*
X295868Y763757D01*
X296660Y761844D01*
X297921Y760201D01*
X299564Y758940D01*
X301477Y758148D01*
X303530Y757877D01*
X305583Y758148D01*
X307496Y758940D01*
X309139Y760201D01*
X310400Y761844D01*
X311192Y763757D01*
X311463Y765810D01*
X311192Y767863D01*
X310400Y769776D01*
X309139Y771419D01*
X307496Y772680D01*
X306375Y773145D01*
Y802617D01*
X339377Y835619D01*
X340550Y835133D01*
Y822260D01*
X346775D01*
Y774330D01*
X346992Y773241D01*
X347609Y772319D01*
X417089Y702839D01*
X418011Y702222D01*
X419100Y702005D01*
X581086D01*
X581688Y700553D01*
X583054Y698773D01*
X584833Y697408D01*
X586906Y696549D01*
X589130Y696257D01*
X591354Y696549D01*
X593427Y697408D01*
X595206Y698773D01*
X596572Y700553D01*
X597431Y702626D01*
X597723Y704850D01*
X597431Y707074D01*
X596572Y709147D01*
X595206Y710927D01*
X593427Y712292D01*
X591354Y713151D01*
X589130Y713443D01*
X586906Y713151D01*
X584833Y712292D01*
X583054Y710927D01*
X581688Y709147D01*
X581086Y707695D01*
X420278D01*
X352465Y775508D01*
Y822260D01*
X358090D01*
Y839800D01*
X345217D01*
X344731Y840973D01*
X389983Y886225D01*
X502170D01*
Y862260D01*
X527710D01*
Y886225D01*
X584250D01*
X585339Y886442D01*
X586262Y887058D01*
X612065Y912862D01*
X613335Y912336D01*
Y905595D01*
X636025D01*
Y928285D01*
X613335D01*
Y919785D01*
X612120D01*
X611032Y919568D01*
X610109Y918951D01*
X606760Y915602D01*
X605621Y916164D01*
X605723Y916940D01*
X605333Y919902D01*
X604190Y922661D01*
X602371Y925031D01*
X600001Y926850D01*
X597242Y927993D01*
X594280Y928383D01*
X591318Y927993D01*
X588559Y926850D01*
X586189Y925031D01*
X584370Y922661D01*
X583227Y919902D01*
X582837Y916940D01*
X583227Y913978D01*
X584370Y911219D01*
X584442Y911125D01*
X570242Y896925D01*
X382178D01*
X353801Y925301D01*
X352879Y925918D01*
X351790Y926135D01*
X335400D01*
X334311Y925918D01*
X333389Y925301D01*
X328007Y919920D01*
X322990D01*
Y918245D01*
X320218D01*
X300775Y937688D01*
Y945340D01*
X305450D01*
Y955380D01*
D02*
G37*
G36*
X563880Y928383D02*
X560918Y927993D01*
X558159Y926850D01*
X555789Y925031D01*
X553970Y922661D01*
X552827Y919902D01*
X552437Y916940D01*
X552827Y913978D01*
X553970Y911219D01*
X555789Y908849D01*
X558159Y907030D01*
X560918Y905887D01*
X563880Y905497D01*
X566842Y905887D01*
X569601Y907030D01*
X571971Y908849D01*
X573790Y911219D01*
X574933Y913978D01*
X575323Y916940D01*
X574933Y919902D01*
X573790Y922661D01*
X571971Y925031D01*
X569601Y926850D01*
X566842Y927993D01*
X563880Y928383D01*
D02*
G37*
G36*
X679330Y908050D02*
X670560D01*
Y899280D01*
X679330D01*
Y908050D01*
D02*
G37*
G36*
X668020D02*
X659250D01*
Y899280D01*
X668020D01*
Y908050D01*
D02*
G37*
G36*
X853440Y917501D02*
X850994Y917179D01*
X848715Y916235D01*
X846757Y914733D01*
X845255Y912775D01*
X844311Y910496D01*
X843989Y908050D01*
X844311Y905604D01*
X845255Y903325D01*
X846757Y901367D01*
X848715Y899865D01*
X850994Y898921D01*
X853440Y898599D01*
X855886Y898921D01*
X858165Y899865D01*
X860123Y901367D01*
X861625Y903325D01*
X862569Y905604D01*
X862891Y908050D01*
X862569Y910496D01*
X861625Y912775D01*
X860123Y914733D01*
X858165Y916235D01*
X855886Y917179D01*
X853440Y917501D01*
D02*
G37*
G36*
X811170Y867770D02*
Y859040D01*
X819900D01*
X819721Y860401D01*
X818705Y862853D01*
X817089Y864959D01*
X814984Y866575D01*
X812531Y867590D01*
X811170Y867770D01*
D02*
G37*
G36*
X808630Y867770D02*
X807269Y867590D01*
X804817Y866575D01*
X802711Y864959D01*
X801095Y862853D01*
X800079Y860401D01*
X799900Y859040D01*
X808630D01*
Y867770D01*
D02*
G37*
G36*
X739140Y870158D02*
X736785Y869848D01*
X734591Y868939D01*
X732707Y867493D01*
X731261Y865609D01*
X730352Y863415D01*
X730042Y861060D01*
X730352Y858705D01*
X731261Y856511D01*
X732707Y854627D01*
X734591Y853181D01*
X736785Y852272D01*
X739140Y851962D01*
X741495Y852272D01*
X743689Y853181D01*
X745573Y854627D01*
X747019Y856511D01*
X747928Y858705D01*
X748238Y861060D01*
X747928Y863415D01*
X747019Y865609D01*
X745573Y867493D01*
X743689Y868939D01*
X741495Y869848D01*
X739140Y870158D01*
D02*
G37*
G36*
X848360Y858672D02*
Y849630D01*
X857402D01*
X857213Y851072D01*
X856166Y853600D01*
X854500Y855770D01*
X852330Y857436D01*
X849802Y858483D01*
X848360Y858672D01*
D02*
G37*
G36*
X845820D02*
X844378Y858483D01*
X841850Y857436D01*
X839680Y855770D01*
X838014Y853600D01*
X836967Y851072D01*
X836777Y849630D01*
X845820D01*
Y858672D01*
D02*
G37*
G36*
X819900Y856500D02*
X811170D01*
Y847770D01*
X812531Y847950D01*
X814984Y848965D01*
X817089Y850581D01*
X818705Y852686D01*
X819721Y855139D01*
X819900Y856500D01*
D02*
G37*
G36*
X808630D02*
X799900D01*
X800079Y855139D01*
X801095Y852686D01*
X802711Y850581D01*
X804817Y848965D01*
X807269Y847950D01*
X808630Y847770D01*
Y856500D01*
D02*
G37*
G36*
X857402Y847090D02*
X848360D01*
Y838047D01*
X849802Y838237D01*
X852330Y839284D01*
X854500Y840950D01*
X856166Y843120D01*
X857213Y845648D01*
X857402Y847090D01*
D02*
G37*
G36*
X845820D02*
X836777D01*
X836967Y845648D01*
X838014Y843120D01*
X839680Y840950D01*
X841850Y839284D01*
X844378Y838237D01*
X845820Y838047D01*
Y847090D01*
D02*
G37*
G36*
X740410Y845619D02*
Y836930D01*
X749099D01*
X748922Y838281D01*
X747910Y840723D01*
X746301Y842821D01*
X744203Y844430D01*
X741761Y845442D01*
X740410Y845619D01*
D02*
G37*
G36*
X737870D02*
X736519Y845442D01*
X734077Y844430D01*
X731979Y842821D01*
X730370Y840723D01*
X729358Y838281D01*
X729181Y836930D01*
X737870D01*
Y845619D01*
D02*
G37*
G36*
X749099Y834390D02*
X740410D01*
Y825701D01*
X741761Y825878D01*
X744203Y826890D01*
X746301Y828499D01*
X747910Y830597D01*
X748922Y833039D01*
X749099Y834390D01*
D02*
G37*
G36*
X737870D02*
X729181D01*
X729358Y833039D01*
X730370Y830597D01*
X731979Y828499D01*
X734077Y826890D01*
X736519Y825878D01*
X737870Y825701D01*
Y834390D01*
D02*
G37*
G36*
X590550Y825818D02*
X588495Y825547D01*
X586581Y824754D01*
X584937Y823493D01*
X583676Y821849D01*
X582883Y819934D01*
X582612Y817880D01*
X582883Y815826D01*
X583676Y813911D01*
X584937Y812267D01*
X586581Y811006D01*
X588495Y810213D01*
X590550Y809942D01*
X592604Y810213D01*
X594519Y811006D01*
X596163Y812267D01*
X597424Y813911D01*
X597890Y815035D01*
X627270D01*
X627333Y814556D01*
X628126Y812641D01*
X629387Y810997D01*
X631031Y809736D01*
X632946Y808943D01*
X635000Y808672D01*
X637054Y808943D01*
X638969Y809736D01*
X640613Y810997D01*
X641874Y812641D01*
X642667Y814556D01*
X642938Y816610D01*
X642667Y818664D01*
X641874Y820579D01*
X640613Y822223D01*
X638969Y823484D01*
X637054Y824277D01*
X635000Y824548D01*
X632946Y824277D01*
X631031Y823484D01*
X629387Y822223D01*
X628237Y820725D01*
X597890D01*
X597424Y821849D01*
X596163Y823493D01*
X594519Y824754D01*
X592604Y825547D01*
X590550Y825818D01*
D02*
G37*
G36*
X554920Y871185D02*
X552957Y870926D01*
X551128Y870169D01*
X549557Y868963D01*
X548351Y867392D01*
X547594Y865563D01*
X547335Y863600D01*
X547594Y861637D01*
X548351Y859808D01*
X549557Y858237D01*
X551128Y857031D01*
X552957Y856274D01*
X554920Y856015D01*
X556883Y856274D01*
X558712Y857031D01*
X560283Y858237D01*
X561489Y859808D01*
X561881Y860755D01*
X609692D01*
X656285Y814162D01*
Y792894D01*
X654833Y792292D01*
X653054Y790927D01*
X651688Y789147D01*
X650829Y787074D01*
X650537Y784850D01*
X650829Y782626D01*
X651688Y780553D01*
X653054Y778773D01*
X654833Y777408D01*
X656906Y776549D01*
X659130Y776257D01*
X661354Y776549D01*
X663427Y777408D01*
X665207Y778773D01*
X666572Y780553D01*
X667431Y782626D01*
X667723Y784850D01*
X667431Y787074D01*
X666572Y789147D01*
X665207Y790927D01*
X663427Y792292D01*
X661975Y792894D01*
Y815340D01*
X661758Y816429D01*
X661141Y817351D01*
X612881Y865611D01*
X611959Y866228D01*
X610870Y866445D01*
X561881D01*
X561489Y867392D01*
X560283Y868963D01*
X558712Y870169D01*
X556883Y870926D01*
X554920Y871185D01*
D02*
G37*
G36*
X427320Y839876D02*
X425031Y839574D01*
X422897Y838690D01*
X421065Y837285D01*
X419660Y835453D01*
X418776Y833319D01*
X418474Y831030D01*
X418776Y828741D01*
X419660Y826607D01*
X421065Y824775D01*
X422897Y823370D01*
X425031Y822486D01*
X427320Y822184D01*
X429609Y822486D01*
X431743Y823370D01*
X433575Y824775D01*
X434981Y826607D01*
X435804Y828595D01*
X541362D01*
X581431Y788526D01*
X580829Y787074D01*
X580537Y784850D01*
X580829Y782626D01*
X581688Y780553D01*
X583054Y778773D01*
X584833Y777408D01*
X586906Y776549D01*
X589130Y776257D01*
X591354Y776549D01*
X593427Y777408D01*
X595206Y778773D01*
X596572Y780553D01*
X597431Y782626D01*
X597723Y784850D01*
X597431Y787074D01*
X596572Y789147D01*
X595206Y790927D01*
X593427Y792292D01*
X591354Y793151D01*
X589130Y793443D01*
X586906Y793151D01*
X585454Y792549D01*
X544551Y833451D01*
X543629Y834068D01*
X542540Y834285D01*
X435464D01*
X434981Y835453D01*
X433575Y837285D01*
X431743Y838690D01*
X429609Y839574D01*
X427320Y839876D01*
D02*
G37*
G36*
X777240Y780849D02*
Y772160D01*
X785929D01*
X785752Y773511D01*
X784740Y775953D01*
X783131Y778051D01*
X781033Y779660D01*
X778591Y780672D01*
X777240Y780849D01*
D02*
G37*
G36*
X774700D02*
X773349Y780672D01*
X770907Y779660D01*
X768809Y778051D01*
X767200Y775953D01*
X766188Y773511D01*
X766011Y772160D01*
X774700D01*
Y780849D01*
D02*
G37*
G36*
X704920Y871185D02*
X702957Y870926D01*
X701128Y870169D01*
X699557Y868963D01*
X698351Y867392D01*
X697594Y865563D01*
X697335Y863600D01*
X697594Y861637D01*
X698351Y859808D01*
X699557Y858237D01*
X701128Y857031D01*
X702075Y856639D01*
Y810238D01*
X659842Y768005D01*
X645960D01*
Y776930D01*
X616420D01*
Y768005D01*
X530148D01*
X520171Y777981D01*
X519249Y778598D01*
X518160Y778815D01*
X420300D01*
X419211Y778598D01*
X418289Y777981D01*
X410057Y769750D01*
X396040D01*
Y751710D01*
X414080D01*
Y765727D01*
X421478Y773125D01*
X516982D01*
X526959Y763149D01*
X527881Y762532D01*
X528970Y762315D01*
X616420D01*
Y753390D01*
X628345D01*
Y746036D01*
X628562Y744947D01*
X629179Y744024D01*
X644599Y728603D01*
X644113Y727430D01*
X616420D01*
Y707913D01*
X587751Y679244D01*
X587269Y678922D01*
X581622Y673275D01*
X526703D01*
X526077Y674545D01*
X526930Y675657D01*
X527942Y678099D01*
X528119Y679450D01*
X508201D01*
X508378Y678099D01*
X509390Y675657D01*
X510243Y674545D01*
X509617Y673275D01*
X501780D01*
Y689740D01*
X483740D01*
Y673275D01*
X459778D01*
X456270Y676783D01*
X457289Y679244D01*
X457651Y681990D01*
X457289Y684736D01*
X456229Y687295D01*
X454543Y689493D01*
X452345Y691179D01*
X449786Y692239D01*
X447040Y692601D01*
X444294Y692239D01*
X441735Y691179D01*
X439537Y689493D01*
X437851Y687295D01*
X436791Y684736D01*
X436429Y681990D01*
X436791Y679244D01*
X437810Y676783D01*
X434072Y673045D01*
X406760D01*
Y692510D01*
X389743D01*
X377931Y704321D01*
X377009Y704938D01*
X375920Y705155D01*
X303530D01*
X302441Y704938D01*
X301519Y704321D01*
X289707Y692510D01*
X272690D01*
Y671470D01*
X293730D01*
Y688487D01*
X304708Y699465D01*
X374742D01*
X385720Y688487D01*
Y673045D01*
X346978D01*
X343240Y676783D01*
X344259Y679244D01*
X344621Y681990D01*
X344259Y684736D01*
X343199Y687295D01*
X341513Y689493D01*
X339315Y691179D01*
X336756Y692239D01*
X334010Y692601D01*
X331264Y692239D01*
X328705Y691179D01*
X326507Y689493D01*
X324821Y687295D01*
X323761Y684736D01*
X323399Y681990D01*
X323761Y679244D01*
X324821Y676685D01*
X326507Y674487D01*
X328705Y672801D01*
X331264Y671741D01*
X334010Y671379D01*
X336756Y671741D01*
X339217Y672760D01*
X343788Y668189D01*
X344711Y667572D01*
X345800Y667355D01*
X435250D01*
X436339Y667572D01*
X437262Y668189D01*
X441833Y672760D01*
X444294Y671741D01*
X447040Y671379D01*
X449786Y671741D01*
X452247Y672760D01*
X456589Y668419D01*
X457511Y667802D01*
X458600Y667586D01*
X582800D01*
X583889Y667802D01*
X584812Y668419D01*
X590969Y674576D01*
X591451Y674899D01*
X620443Y703890D01*
X645960D01*
Y725583D01*
X647133Y726069D01*
X656285Y716917D01*
Y712894D01*
X654833Y712292D01*
X653054Y710927D01*
X651688Y709147D01*
X650829Y707074D01*
X650537Y704850D01*
X650829Y702626D01*
X651688Y700553D01*
X653054Y698773D01*
X654833Y697408D01*
X656906Y696549D01*
X659130Y696257D01*
X661354Y696549D01*
X663427Y697408D01*
X665207Y698773D01*
X666572Y700553D01*
X667431Y702626D01*
X667723Y704850D01*
X667431Y707074D01*
X666572Y709147D01*
X665207Y710927D01*
X663427Y712292D01*
X661975Y712894D01*
Y718095D01*
X661758Y719184D01*
X661141Y720107D01*
X634035Y747214D01*
Y753390D01*
X645960D01*
Y762315D01*
X661020D01*
X662109Y762532D01*
X663031Y763149D01*
X706931Y807049D01*
X707548Y807971D01*
X707765Y809060D01*
Y856639D01*
X708712Y857031D01*
X710283Y858237D01*
X711489Y859808D01*
X712246Y861637D01*
X712505Y863600D01*
X712246Y865563D01*
X711489Y867392D01*
X710283Y868963D01*
X708712Y870169D01*
X706883Y870926D01*
X704920Y871185D01*
D02*
G37*
G36*
X330200Y774604D02*
Y767080D01*
X337724D01*
X337586Y768130D01*
X336691Y770291D01*
X335267Y772147D01*
X333411Y773571D01*
X331250Y774466D01*
X330200Y774604D01*
D02*
G37*
G36*
X327660D02*
X326610Y774466D01*
X324449Y773571D01*
X322593Y772147D01*
X321169Y770291D01*
X320274Y768130D01*
X320136Y767080D01*
X327660D01*
Y774604D01*
D02*
G37*
G36*
X848360Y779988D02*
X846005Y779678D01*
X843811Y778769D01*
X841927Y777323D01*
X840481Y775439D01*
X839572Y773245D01*
X839262Y770890D01*
X839572Y768535D01*
X840481Y766341D01*
X841927Y764457D01*
X843811Y763011D01*
X846005Y762102D01*
X848360Y761792D01*
X850715Y762102D01*
X852909Y763011D01*
X854793Y764457D01*
X856239Y766341D01*
X857148Y768535D01*
X857458Y770890D01*
X857148Y773245D01*
X856239Y775439D01*
X854793Y777323D01*
X852909Y778769D01*
X850715Y779678D01*
X848360Y779988D01*
D02*
G37*
G36*
X785929Y769620D02*
X777240D01*
Y760931D01*
X778591Y761108D01*
X781033Y762120D01*
X783131Y763729D01*
X784740Y765827D01*
X785752Y768269D01*
X785929Y769620D01*
D02*
G37*
G36*
X774700D02*
X766011D01*
X766188Y768269D01*
X767200Y765827D01*
X768809Y763729D01*
X770907Y762120D01*
X773349Y761108D01*
X774700Y760931D01*
Y769620D01*
D02*
G37*
G36*
X337724Y764540D02*
X330200D01*
Y757016D01*
X331250Y757154D01*
X333411Y758049D01*
X335267Y759473D01*
X336691Y761329D01*
X337586Y763491D01*
X337724Y764540D01*
D02*
G37*
G36*
X327660D02*
X320136D01*
X320274Y763491D01*
X321169Y761329D01*
X322593Y759473D01*
X324449Y758049D01*
X326610Y757154D01*
X327660Y757016D01*
Y764540D01*
D02*
G37*
G36*
X480060Y769828D02*
X477705Y769518D01*
X475511Y768609D01*
X473627Y767163D01*
X472181Y765279D01*
X471272Y763085D01*
X470962Y760730D01*
X471272Y758375D01*
X472181Y756181D01*
X473627Y754297D01*
X475511Y752851D01*
X477705Y751942D01*
X480060Y751632D01*
X482415Y751942D01*
X484609Y752851D01*
X486493Y754297D01*
X487939Y756181D01*
X488848Y758375D01*
X489158Y760730D01*
X488848Y763085D01*
X487939Y765279D01*
X486493Y767163D01*
X484609Y768609D01*
X482415Y769518D01*
X480060Y769828D01*
D02*
G37*
G36*
X739140Y768558D02*
X736785Y768248D01*
X734591Y767339D01*
X732707Y765893D01*
X731261Y764009D01*
X730352Y761815D01*
X730042Y759460D01*
X730352Y757105D01*
X731261Y754911D01*
X732707Y753027D01*
X734591Y751581D01*
X736785Y750672D01*
X739140Y750362D01*
X741495Y750672D01*
X743689Y751581D01*
X745573Y753027D01*
X747019Y754911D01*
X747928Y757105D01*
X748238Y759460D01*
X747928Y761815D01*
X747019Y764009D01*
X745573Y765893D01*
X743689Y767339D01*
X741495Y768248D01*
X739140Y768558D01*
D02*
G37*
G36*
X775970Y754588D02*
X773615Y754278D01*
X771421Y753369D01*
X769537Y751923D01*
X768091Y750039D01*
X767385Y748335D01*
X704570D01*
X704104Y749459D01*
X702843Y751103D01*
X701199Y752364D01*
X699285Y753157D01*
X697230Y753428D01*
X695175Y753157D01*
X693261Y752364D01*
X691617Y751103D01*
X690356Y749459D01*
X689563Y747544D01*
X689292Y745490D01*
X689563Y743436D01*
X690356Y741521D01*
X691617Y739877D01*
X693261Y738616D01*
X695175Y737823D01*
X697230Y737552D01*
X699285Y737823D01*
X701199Y738616D01*
X702843Y739877D01*
X704104Y741521D01*
X704570Y742645D01*
X733426D01*
X733857Y741375D01*
X732707Y740493D01*
X731261Y738609D01*
X730352Y736415D01*
X730042Y734060D01*
X730352Y731705D01*
X731261Y729511D01*
X732707Y727627D01*
X734591Y726181D01*
X736785Y725272D01*
X739140Y724962D01*
X741495Y725272D01*
X743689Y726181D01*
X745573Y727627D01*
X747019Y729511D01*
X747928Y731705D01*
X748238Y734060D01*
X747928Y736415D01*
X747019Y738609D01*
X745573Y740493D01*
X744423Y741375D01*
X744854Y742645D01*
X767385D01*
X768091Y740941D01*
X769537Y739057D01*
X771421Y737611D01*
X773615Y736702D01*
X775970Y736392D01*
X778325Y736702D01*
X780519Y737611D01*
X782403Y739057D01*
X783849Y740941D01*
X784758Y743135D01*
X785068Y745490D01*
X784758Y747845D01*
X783849Y750039D01*
X782403Y751923D01*
X780519Y753369D01*
X778325Y754278D01*
X775970Y754588D01*
D02*
G37*
G36*
X848360D02*
X846005Y754278D01*
X843811Y753369D01*
X841927Y751923D01*
X840481Y750039D01*
X839572Y747845D01*
X839485Y747185D01*
X837050D01*
X835961Y746968D01*
X835039Y746351D01*
X810789Y722101D01*
X810172Y721179D01*
X809955Y720090D01*
Y702384D01*
X808075Y701605D01*
X806117Y700103D01*
X804615Y698145D01*
X803671Y695866D01*
X803349Y693420D01*
X803671Y690974D01*
X804615Y688695D01*
X806117Y686737D01*
X808075Y685235D01*
X810354Y684291D01*
X812800Y683969D01*
X815246Y684291D01*
X817525Y685235D01*
X819483Y686737D01*
X820985Y688695D01*
X821929Y690974D01*
X822251Y693420D01*
X821929Y695866D01*
X820985Y698145D01*
X819483Y700103D01*
X817525Y701605D01*
X815645Y702384D01*
Y718912D01*
X838228Y741495D01*
X840251D01*
X840481Y740941D01*
X841927Y739057D01*
X843811Y737611D01*
X846005Y736702D01*
X848360Y736392D01*
X850715Y736702D01*
X852909Y737611D01*
X854793Y739057D01*
X856239Y740941D01*
X857148Y743135D01*
X857458Y745490D01*
X857148Y747845D01*
X856239Y750039D01*
X854793Y751923D01*
X852909Y753369D01*
X850715Y754278D01*
X848360Y754588D01*
D02*
G37*
G36*
X812800Y758751D02*
X810354Y758429D01*
X808075Y757485D01*
X806117Y755983D01*
X804615Y754025D01*
X803671Y751746D01*
X803349Y749300D01*
X803671Y746854D01*
X804615Y744575D01*
X806117Y742617D01*
X808075Y741115D01*
X809955Y740336D01*
Y731428D01*
X801462Y722935D01*
X784555D01*
X783849Y724639D01*
X782403Y726523D01*
X780519Y727969D01*
X778325Y728878D01*
X775970Y729188D01*
X773615Y728878D01*
X771421Y727969D01*
X769537Y726523D01*
X768091Y724639D01*
X767182Y722445D01*
X766872Y720090D01*
X767182Y717735D01*
X768091Y715541D01*
X769537Y713657D01*
X771421Y712211D01*
X773615Y711302D01*
X775970Y710992D01*
X778325Y711302D01*
X780519Y712211D01*
X782403Y713657D01*
X783849Y715541D01*
X784555Y717245D01*
X802640D01*
X803729Y717462D01*
X804651Y718079D01*
X814811Y728239D01*
X815428Y729161D01*
X815645Y730250D01*
Y740336D01*
X817525Y741115D01*
X819483Y742617D01*
X820985Y744575D01*
X821929Y746854D01*
X822251Y749300D01*
X821929Y751746D01*
X820985Y754025D01*
X819483Y755983D01*
X817525Y757485D01*
X815246Y758429D01*
X812800Y758751D01*
D02*
G37*
G36*
X849630Y730049D02*
Y721360D01*
X858319D01*
X858142Y722711D01*
X857130Y725153D01*
X855521Y727251D01*
X853423Y728860D01*
X850981Y729872D01*
X849630Y730049D01*
D02*
G37*
G36*
X847090D02*
X845739Y729872D01*
X843297Y728860D01*
X841199Y727251D01*
X839590Y725153D01*
X838578Y722711D01*
X838401Y721360D01*
X847090D01*
Y730049D01*
D02*
G37*
G36*
X858319Y718820D02*
X849630D01*
Y710131D01*
X850981Y710308D01*
X853423Y711320D01*
X855521Y712929D01*
X857130Y715027D01*
X858142Y717469D01*
X858319Y718820D01*
D02*
G37*
G36*
X847090D02*
X838401D01*
X838578Y717469D01*
X839590Y715027D01*
X841199Y712929D01*
X843297Y711320D01*
X845739Y710308D01*
X847090Y710131D01*
Y718820D01*
D02*
G37*
G36*
X739140Y717758D02*
X736785Y717448D01*
X734591Y716539D01*
X732707Y715093D01*
X731261Y713209D01*
X730352Y711015D01*
X730042Y708660D01*
X730352Y706305D01*
X731261Y704111D01*
X732707Y702227D01*
X734591Y700781D01*
X736785Y699872D01*
X739140Y699562D01*
X741495Y699872D01*
X743689Y700781D01*
X745573Y702227D01*
X747019Y704111D01*
X747928Y706305D01*
X748238Y708660D01*
X747928Y711015D01*
X747019Y713209D01*
X745573Y715093D01*
X743689Y716539D01*
X741495Y717448D01*
X739140Y717758D01*
D02*
G37*
G36*
X857380Y703710D02*
X839340D01*
Y685670D01*
X857380D01*
Y703710D01*
D02*
G37*
G36*
X784990D02*
X766950D01*
Y685670D01*
X784990D01*
Y703710D01*
D02*
G37*
G36*
X519430Y690679D02*
Y681990D01*
X528119D01*
X527942Y683341D01*
X526930Y685783D01*
X525321Y687881D01*
X523223Y689490D01*
X520781Y690502D01*
X519430Y690679D01*
D02*
G37*
G36*
X516890D02*
X515539Y690502D01*
X513097Y689490D01*
X510999Y687881D01*
X509390Y685783D01*
X508378Y683341D01*
X508201Y681990D01*
X516890D01*
Y690679D01*
D02*
G37*
G36*
X748160Y692280D02*
X730120D01*
Y674240D01*
X748160D01*
Y692280D01*
D02*
G37*
%LPD*%
G36*
X341325Y1165828D02*
X329887Y1154390D01*
X325455D01*
Y1157262D01*
X326549Y1157716D01*
X328193Y1158977D01*
X329454Y1160621D01*
X330247Y1162535D01*
X330518Y1164590D01*
X330247Y1166645D01*
X329454Y1168559D01*
X328193Y1170203D01*
X326549Y1171464D01*
X324635Y1172257D01*
X324773Y1173520D01*
X332890D01*
Y1174445D01*
X341325D01*
Y1165828D01*
D02*
G37*
G36*
X317350Y1173520D02*
X320387D01*
X320526Y1172257D01*
X318611Y1171464D01*
X316967Y1170203D01*
X315706Y1168559D01*
X314913Y1166645D01*
X314642Y1164590D01*
X314913Y1162535D01*
X315706Y1160621D01*
X316967Y1158977D01*
X318611Y1157716D01*
X319765Y1157237D01*
Y1154390D01*
X318620D01*
Y1146850D01*
X319795D01*
Y1144560D01*
X319944Y1143815D01*
X318821Y1143142D01*
X311931Y1150031D01*
X311009Y1150648D01*
X309920Y1150865D01*
X308730D01*
X307810Y1151710D01*
Y1161750D01*
X291135D01*
Y1165952D01*
X299628Y1174445D01*
X317350D01*
Y1173520D01*
D02*
G37*
G36*
X331700Y1108660D02*
X333145D01*
Y1082472D01*
X332740Y1082117D01*
X330419Y1081811D01*
X328257Y1080915D01*
X327105Y1080031D01*
X325835Y1080658D01*
Y1109680D01*
X331700D01*
Y1108660D01*
D02*
G37*
G36*
X334010Y1064351D02*
X335061Y1064489D01*
X337223Y1065385D01*
X338375Y1066269D01*
X339645Y1065642D01*
Y1055570D01*
X331520D01*
Y1047053D01*
X330042Y1045575D01*
X322540D01*
Y1054250D01*
X321615D01*
Y1056540D01*
X321398Y1057629D01*
X321397Y1057631D01*
Y1060324D01*
X325226Y1064154D01*
X325843Y1065076D01*
X325940Y1065562D01*
X327259Y1066150D01*
X328257Y1065385D01*
X330419Y1064489D01*
X331470Y1064351D01*
Y1073150D01*
X334010D01*
Y1064351D01*
D02*
G37*
G36*
X802381Y1069871D02*
X803827Y1067987D01*
X805711Y1066541D01*
X807417Y1065835D01*
X807164Y1064565D01*
X788830D01*
X787741Y1064348D01*
X786819Y1063732D01*
X779700Y1056612D01*
X777975Y1057327D01*
X775918Y1057598D01*
X775292Y1058768D01*
X788100Y1071575D01*
X801675D01*
X802381Y1069871D01*
D02*
G37*
G36*
X767696Y1043931D02*
X769148Y1042038D01*
X771041Y1040586D01*
X772765Y1039872D01*
Y992128D01*
X771041Y991414D01*
X769148Y989962D01*
X767696Y988069D01*
X767385Y987317D01*
X766115Y987569D01*
Y1044431D01*
X767385Y1044683D01*
X767696Y1043931D01*
D02*
G37*
G36*
X410320Y950340D02*
Y926340D01*
X404320Y920340D01*
X398320D01*
X392320Y926340D01*
Y950340D01*
X398320Y956340D01*
X404320D01*
X410320Y950340D01*
D02*
G37*
%LPC*%
G36*
X404760Y1229570D02*
X400490D01*
Y1225550D01*
X404760D01*
Y1229570D01*
D02*
G37*
G36*
Y1223010D02*
X400490D01*
Y1218990D01*
X404760D01*
Y1223010D01*
D02*
G37*
G36*
X424180Y1182280D02*
Y1174750D01*
X431710D01*
X431571Y1175801D01*
X430675Y1177963D01*
X429250Y1179820D01*
X427393Y1181245D01*
X425231Y1182141D01*
X424180Y1182280D01*
D02*
G37*
G36*
X431710Y1172210D02*
X424180D01*
Y1164680D01*
X425231Y1164819D01*
X427393Y1165715D01*
X429250Y1167140D01*
X430675Y1168997D01*
X431571Y1171159D01*
X431710Y1172210D01*
D02*
G37*
G36*
X421640D02*
X414110D01*
X414249Y1171159D01*
X415145Y1168997D01*
X416570Y1167140D01*
X418427Y1165715D01*
X420589Y1164819D01*
X421640Y1164680D01*
Y1172210D01*
D02*
G37*
G36*
X459740Y1161960D02*
Y1154430D01*
X467270D01*
X467131Y1155481D01*
X466235Y1157643D01*
X464810Y1159500D01*
X462953Y1160925D01*
X460791Y1161821D01*
X459740Y1161960D01*
D02*
G37*
G36*
X658220Y1063660D02*
X649410D01*
Y1054850D01*
X658220D01*
Y1063660D01*
D02*
G37*
%LPD*%
D15*
X683300Y1206460D02*
X689210Y1200550D01*
Y1192530D02*
Y1200550D01*
Y1185310D02*
Y1192530D01*
X665170Y1206460D02*
X683300D01*
X665170Y1183220D02*
Y1196460D01*
Y1183220D02*
X677180Y1171210D01*
X665170Y1201460D02*
Y1206460D01*
X728980Y1184910D02*
Y1225550D01*
X720090Y1234440D02*
X728980Y1225550D01*
X699770Y1234440D02*
X720090D01*
X685550Y1250700D02*
X712946D01*
X680720Y1245870D02*
X685550Y1250700D01*
X680720Y1230630D02*
Y1245870D01*
X712946Y1250700D02*
X726126Y1237520D01*
X674370Y1254760D02*
X714627D01*
X660400Y1240790D02*
X674370Y1254760D01*
X660400Y1229360D02*
Y1240790D01*
X591820Y1195070D02*
X603210Y1206460D01*
X645470D01*
X636460Y1220470D02*
X645470Y1211460D01*
X591820Y1220470D02*
X636460D01*
X726126Y1237520D02*
X777971D01*
X714627Y1254760D02*
X727808Y1241580D01*
X826770D01*
X715289Y1259840D02*
X729490Y1245639D01*
X631190Y1259840D02*
X715289D01*
X729490Y1245639D02*
X830811D01*
X591820Y1220470D02*
X631190Y1259840D01*
X777971Y1237520D02*
X788670Y1226820D01*
X826770Y1241580D02*
X833120Y1235229D01*
X693230Y1163130D02*
Y1181290D01*
X689210Y1185310D02*
X693230Y1181290D01*
X654510Y1155700D02*
X685800D01*
X693230Y1163130D01*
X728980Y1184910D02*
X743200Y1170690D01*
Y1119457D02*
Y1170690D01*
X739760Y1188680D02*
Y1209040D01*
Y1188680D02*
X742260Y1186180D01*
X742510D01*
X677180Y1171210D02*
X687440D01*
X423134Y1260450D02*
X483260D01*
X421640Y1258956D02*
X423134Y1260450D01*
X421640Y1248410D02*
Y1258956D01*
X483260Y1260450D02*
X486410Y1257300D01*
X469310Y1245990D02*
X506479D01*
X465640Y1249660D02*
X469310Y1245990D01*
X506479D02*
X515370Y1254882D01*
X447640Y1248410D02*
X464390D01*
X465640Y1249660D01*
X515370Y1267436D02*
X533174Y1285240D01*
X515370Y1254882D02*
Y1267436D01*
X519430Y1258570D02*
X530860Y1270000D01*
X519430Y1240248D02*
Y1258570D01*
X516672Y1237490D02*
X519430Y1240248D01*
X504390Y1237490D02*
X516672D01*
X551180Y1285240D02*
X558800Y1277620D01*
Y1263650D02*
Y1277620D01*
X533174Y1285240D02*
X551180D01*
X383540Y1244600D02*
X388600Y1249660D01*
X383540Y1236980D02*
Y1244600D01*
X403370Y1249660D02*
X403640D01*
X388600D02*
X403370D01*
X397070Y1172210D02*
Y1180442D01*
X401538Y1184910D01*
X411480D01*
X422910Y1173480D01*
X383460Y1132840D02*
X394761D01*
X399841Y1127760D01*
X402590D01*
X396640Y1275160D02*
X422640D01*
X446640D01*
X448042Y1121410D02*
X452069D01*
X458470Y1127811D01*
Y1153160D01*
X474730Y1173230D02*
X486410Y1184910D01*
X474730Y1126156D02*
Y1173230D01*
X460484Y1111910D02*
X474730Y1126156D01*
X500460Y1089660D02*
Y1115060D01*
X446640Y1275160D02*
X472640D01*
X335990Y1079149D02*
Y1113700D01*
X332740Y1075899D02*
X335990Y1079149D01*
X332740Y1073150D02*
Y1075899D01*
X318552Y1061502D02*
X323215Y1066165D01*
X322990Y1066390D02*
Y1113700D01*
Y1066390D02*
X323215Y1066165D01*
X383460Y1132840D02*
Y1133110D01*
X342490Y1134200D02*
Y1134950D01*
X396640Y1256390D02*
Y1275160D01*
Y1256390D02*
X403370Y1249660D01*
X707260Y1075132D02*
X711782Y1070610D01*
X707260Y1075132D02*
Y1092330D01*
X692280Y1107310D02*
X707260Y1092330D01*
X682782Y1107310D02*
X692280D01*
X679862Y1110230D02*
X682782Y1107310D01*
X678180Y1106170D02*
X680720Y1103630D01*
X607722Y1106170D02*
X678180D01*
X606072Y1104520D02*
X607722Y1106170D01*
X606040Y1110230D02*
X679862D01*
X604390Y1108580D02*
X606040Y1110230D01*
X666750Y1135380D02*
X680280D01*
X681550Y1136650D01*
X788830Y1061720D02*
X817140D01*
X775610Y1048500D02*
X788830Y1061720D01*
X837460Y1082040D02*
X852170D01*
X817140Y1061720D02*
X837460Y1082040D01*
X868930Y1023870D02*
Y1159260D01*
X859790Y1014730D02*
X868930Y1023870D01*
X857250Y1170940D02*
X868930Y1159260D01*
X845820Y1014730D02*
X859790D01*
X788670Y1211580D02*
Y1226820D01*
X859790Y1207770D02*
Y1229940D01*
X852170Y1237560D02*
X859790Y1229940D01*
X845820Y1170940D02*
X857250D01*
X852170Y1237560D02*
Y1237810D01*
X687440Y1171210D02*
Y1172210D01*
X425450Y1111642D02*
X425718Y1111910D01*
X425450Y1098550D02*
Y1111642D01*
X404070Y1052830D02*
X411480Y1060240D01*
Y1084580D01*
X425450Y1098550D01*
X401320Y1052830D02*
X404070D01*
X576580Y1179830D02*
X576710Y1179960D01*
X606930D01*
X646430Y1140460D01*
X654510Y1155700D02*
X654560Y1155750D01*
X701940Y1148290D02*
Y1172210D01*
X690300Y1136650D02*
X701940Y1148290D01*
X690050Y1136650D02*
X690300D01*
X710991Y1149301D02*
X717130Y1155440D01*
X710991Y1138129D02*
Y1149301D01*
X728130Y1155440D02*
X734060Y1149510D01*
Y1137920D02*
Y1149510D01*
X562692Y1150538D02*
X568340Y1144890D01*
Y1136650D02*
Y1144890D01*
X381310Y1031240D02*
Y1050600D01*
X401320Y1074780D02*
X404070Y1072030D01*
X381310Y1050600D02*
X382270Y1051560D01*
X381060Y1031240D02*
X381310D01*
X372260Y1072030D02*
X401320D01*
X364290Y1064060D02*
X372260Y1072030D01*
X364290Y1050800D02*
Y1064060D01*
X413690Y1235710D02*
X421640Y1243660D01*
X396240Y1235710D02*
X413690D01*
X390720Y1230190D02*
X396240Y1235710D01*
X318770Y1042730D02*
Y1050230D01*
Y1056540D01*
X318552Y1056758D02*
X318770Y1056540D01*
X318552Y1056758D02*
Y1061502D01*
X327660Y1234440D02*
X364490D01*
X324800Y1209960D02*
Y1231580D01*
X327660Y1234440D01*
X590550Y817880D02*
X633730D01*
X635000Y816610D01*
X659130Y784850D02*
Y815340D01*
X610870Y863600D02*
X659130Y815340D01*
X554920Y863600D02*
X610870D01*
X697230Y745490D02*
X775970D01*
X812800Y693420D02*
Y720090D01*
X847210Y744340D02*
X848360Y745490D01*
X837050Y744340D02*
X847210D01*
X812800Y720090D02*
X837050Y744340D01*
X802640Y720090D02*
X812800Y730250D01*
X775970Y720090D02*
X802640D01*
X812800Y730250D02*
Y749300D01*
X810260Y998220D02*
X824360Y984120D01*
Y849760D02*
Y984120D01*
X784860Y810260D02*
X824360Y849760D01*
X775610Y983500D02*
Y1048500D01*
X833120Y1183640D02*
Y1235229D01*
Y1183640D02*
X845820Y1170940D01*
Y1196340D02*
Y1230630D01*
X830811Y1245639D02*
X845820Y1230630D01*
X852170Y1246310D02*
Y1250950D01*
X845570Y1257550D02*
X852170Y1250950D01*
X810645Y1257550D02*
X845570D01*
X797560Y1270635D02*
X810645Y1257550D01*
X705600Y1053580D02*
X730250Y1078230D01*
Y1106507D02*
X743200Y1119457D01*
X730250Y1078230D02*
Y1106507D01*
X751840Y1136650D02*
X753110D01*
X751425Y1137065D02*
X751840Y1136650D01*
X704490Y1053580D02*
X705600D01*
X633730Y1056640D02*
X648970Y1041400D01*
X579120Y1056640D02*
X633730D01*
X570230Y1065530D02*
X579120Y1056640D01*
X560070Y1065530D02*
X570230D01*
X648970Y1041400D02*
X684756D01*
X693670Y1050314D01*
X692150Y1090930D02*
X693670Y1089410D01*
Y1050314D02*
Y1089410D01*
X559940Y1080640D02*
X617116D01*
X547620Y1068320D02*
X559940Y1080640D01*
X547620Y1052580D02*
Y1068320D01*
X617116Y1080640D02*
X620166Y1083690D01*
X662050Y1076580D02*
X684530Y1054100D01*
X630372Y1079630D02*
X633422Y1076580D01*
X662050D01*
X600330D02*
X618798D01*
X591820Y1068070D02*
X600330Y1076580D01*
X635104Y1080640D02*
X656460D01*
X632054Y1083690D02*
X635104Y1080640D01*
X620166Y1083690D02*
X632054D01*
X621848Y1079630D02*
X630372D01*
X618798Y1076580D02*
X621848Y1079630D01*
X656460Y1080640D02*
X666750Y1090930D01*
X680720Y1073150D02*
Y1103630D01*
X547620Y1052580D02*
X560070Y1040130D01*
X543560Y1074420D02*
X560070Y1090930D01*
X543560Y956352D02*
Y1074420D01*
Y956352D02*
X554902Y945010D01*
X661670Y952500D02*
X669290Y960120D01*
X574872Y952500D02*
X661670D01*
X563442Y963930D02*
X574872Y952500D01*
X560070Y963930D02*
X563442D01*
X591820Y1026643D02*
Y1042670D01*
Y1026643D02*
X596606Y1021858D01*
Y1007110D02*
Y1021858D01*
X554902Y945010D02*
X703844D01*
X744190Y943480D02*
X764900Y922770D01*
X705374Y943480D02*
X744190D01*
X703844Y945010D02*
X705374Y943480D01*
X586740Y969010D02*
X604580D01*
X585470Y970280D02*
X586740Y969010D01*
X779780Y1253490D02*
X797560Y1271270D01*
X757570Y1253490D02*
X779780D01*
X797560Y1270635D02*
Y1271270D01*
X314960Y953770D02*
Y969010D01*
X308610Y975360D02*
X314960Y969010D01*
X297930Y975360D02*
X308610D01*
X433070Y989036D02*
X454745D01*
X459531Y984250D01*
X462280D01*
Y995680D01*
X474190Y1007590D01*
X495300D01*
X369570Y990306D02*
X379436D01*
X402590Y1013460D01*
X642111Y969010D02*
X642326D01*
X640019Y971102D02*
X642111Y969010D01*
X640019Y971102D02*
Y972630D01*
X633479Y979170D02*
X640019Y972630D01*
X612080Y969010D02*
X632754D01*
X604520Y979170D02*
X633479D01*
X704880Y918180D02*
X741650D01*
X764900Y857770D02*
Y922770D01*
X741680Y910650D02*
X752780D01*
X764900Y922770D01*
X739140Y810260D02*
X784860D01*
X810260Y1023620D02*
X828420Y1005460D01*
Y847470D02*
Y1005460D01*
X765810Y784860D02*
X828420Y847470D01*
X739140Y784860D02*
X765810D01*
X763270Y953770D02*
Y1050769D01*
X786921Y1074420D01*
X810260D01*
X737870Y953770D02*
Y954525D01*
X745490Y962145D01*
Y1047750D01*
X797560Y1099820D01*
X810260D01*
X322610Y1150650D02*
X322640Y1150620D01*
X322610Y1150650D02*
Y1164560D01*
X322580Y1164590D02*
X322610Y1164560D01*
X309662Y1236762D02*
X320040Y1247140D01*
X321370Y1177290D02*
Y1186944D01*
X309662Y1198652D02*
X321370Y1186944D01*
X309662Y1198652D02*
Y1236762D01*
X320040Y1247140D02*
X346710D01*
X298450Y1177290D02*
X321370D01*
X328870D02*
X342682D01*
X330390Y1150620D02*
X331370Y1151600D01*
Y1151850D01*
X344170Y1164650D01*
Y1175802D01*
X342682Y1177290D02*
X344170Y1175802D01*
X330140Y1150620D02*
X330390D01*
X335990Y1145020D01*
Y1134200D02*
Y1145020D01*
X322640Y1144560D02*
Y1150620D01*
Y1144560D02*
X329010Y1138190D01*
Y1134680D02*
Y1138190D01*
Y1134680D02*
X329490Y1134200D01*
X288290Y1167130D02*
X298450Y1177290D01*
X335990Y1127440D02*
Y1134200D01*
X434640Y1232870D02*
X454860Y1212650D01*
X428140Y1233020D02*
X453390Y1207770D01*
X485284Y1218690D02*
X504390D01*
X475000Y1228975D02*
X485284Y1218690D01*
X475000Y1228975D02*
Y1230420D01*
X473520Y1231900D02*
X475000Y1230420D01*
X454860Y1212650D02*
X523440D01*
X434640Y1232870D02*
Y1248410D01*
X453390Y1207770D02*
X522578D01*
X428140Y1233020D02*
Y1248410D01*
X455930Y1229360D02*
X457200Y1230630D01*
X543642Y1150538D02*
X562692D01*
X541270Y1152910D02*
X543642Y1150538D01*
X541270Y1152910D02*
Y1200562D01*
X529390Y1212442D02*
Y1218690D01*
Y1212442D02*
X541270Y1200562D01*
X539450Y1218900D02*
X558800Y1238250D01*
X741650Y918180D02*
X741680Y918150D01*
X704850Y918210D02*
X704880Y918180D01*
X587249Y996441D02*
Y1007110D01*
Y996441D02*
X604520Y979170D01*
X587034Y1007110D02*
X587249D01*
X586820D02*
X587034D01*
X560070Y1014730D02*
X579200D01*
X586820Y1007110D01*
X560070Y963930D02*
Y965200D01*
X513000Y1115060D02*
Y1139190D01*
Y1089660D02*
Y1115060D01*
Y1059180D02*
Y1089660D01*
Y1058910D02*
Y1059180D01*
X482520Y1050290D02*
X504380D01*
X513000Y1058910D01*
X704920Y809060D02*
Y863600D01*
X661020Y765160D02*
X704920Y809060D01*
X631190Y765160D02*
X661020D01*
X427620Y831440D02*
X542540D01*
X589130Y784850D01*
X319040Y915400D02*
X327510D01*
X351790Y923290D02*
X381000Y894080D01*
X335400Y923290D02*
X351790D01*
X327510Y915400D02*
X335400Y923290D01*
X381000Y894080D02*
X571420D01*
X415383Y979557D02*
X415805Y979135D01*
X415290Y979650D02*
X415383Y979557D01*
X415805Y958355D02*
Y979135D01*
Y958355D02*
X416320Y957840D01*
X432977Y979557D02*
X433070Y979464D01*
X415383Y979557D02*
X432977D01*
X392430Y1022350D02*
X401320Y1031240D01*
X287020Y1022350D02*
X392430D01*
X270510Y1005840D02*
X287020Y1022350D01*
X401320Y1031240D02*
Y1052830D01*
X339090Y978802D02*
X341022Y980734D01*
X369570D01*
X327510Y914400D02*
Y915400D01*
X571420Y894080D02*
X594280Y916940D01*
X297930Y936510D02*
X319040Y915400D01*
X297930Y936510D02*
Y950360D01*
X270510Y939800D02*
Y1005840D01*
Y939800D02*
X302940Y907370D01*
Y875030D02*
Y907370D01*
X340510Y871303D02*
Y914400D01*
X278130Y808923D02*
X340510Y871303D01*
X278130Y765810D02*
Y808923D01*
X419100Y704850D02*
X589130D01*
X349620Y774330D02*
X419100Y704850D01*
X349620Y774330D02*
Y831440D01*
X388804Y889070D02*
X584250D01*
X303530Y803795D02*
X388804Y889070D01*
X303530Y765810D02*
Y803795D01*
X375920Y702310D02*
X396240Y681990D01*
X283210D02*
X303530Y702310D01*
X375920D01*
X334010Y681990D02*
X345800Y670200D01*
X435250D01*
X447040Y681990D01*
X458600Y670430D01*
X582800D01*
X589280Y676910D01*
X628190Y715660D02*
X631190D01*
X589440Y676910D02*
X628190Y715660D01*
X589280Y676910D02*
X589440D01*
X420300Y775970D02*
X518160D01*
X405060Y760730D02*
X420300Y775970D01*
X528970Y765160D02*
X631190D01*
X518160Y775970D02*
X528970Y765160D01*
X631190Y746036D02*
Y765160D01*
Y746036D02*
X659130Y718095D01*
Y704850D02*
Y718095D01*
X612120Y916940D02*
X624680D01*
X584250Y889070D02*
X612120Y916940D01*
X401320Y960340D02*
Y961340D01*
X381926Y980734D02*
X401320Y961340D01*
X369570Y980734D02*
X381926D01*
X448042Y1111910D02*
X460484D01*
X448042Y1098282D02*
Y1111910D01*
X422320Y1072560D02*
X448042Y1098282D01*
X422320Y1062430D02*
Y1072560D01*
X401320Y1074780D02*
Y1092200D01*
Y1072030D02*
X404070D01*
X364290Y1032000D02*
X364670Y1031620D01*
X380680D01*
X381060Y1031240D01*
X331220Y1042730D02*
X339290Y1050800D01*
X342490Y1052780D02*
Y1113700D01*
X340510Y1050800D02*
X342490Y1052780D01*
X339290Y1050800D02*
X340510D01*
X318770Y1042730D02*
X331220D01*
X370920Y1132570D02*
Y1132840D01*
X352050Y1113700D02*
X370920Y1132570D01*
X342490Y1113700D02*
X352050D01*
X288290Y1120358D02*
Y1126730D01*
X317820Y1118870D02*
X321760Y1114930D01*
X289778Y1118870D02*
X317820D01*
X288290Y1120358D02*
X289778Y1118870D01*
X322990Y1113700D02*
X329490D01*
X342490D02*
Y1120940D01*
X335990Y1127440D02*
X342490Y1120940D01*
X289560Y1152108D02*
Y1155460D01*
X322990Y1134200D02*
Y1134950D01*
X309920Y1148020D02*
X322990Y1134950D01*
X293648Y1148020D02*
X309920D01*
X289560Y1152108D02*
X293648Y1148020D01*
X288290Y1156730D02*
X289560Y1155460D01*
X306356Y1134110D02*
X315246Y1125220D01*
X289778Y1134110D02*
X306356D01*
X315246Y1125220D02*
X327660D01*
X329490Y1127050D01*
Y1134200D01*
X288290Y1135598D02*
Y1141730D01*
Y1135598D02*
X289778Y1134110D01*
X288290Y1156730D02*
Y1167130D01*
X425718Y1111910D02*
Y1119076D01*
X391160Y1153634D02*
X425718Y1119076D01*
X391160Y1153634D02*
Y1162050D01*
X390260Y1162950D02*
X391160Y1162050D01*
X390260Y1162950D02*
Y1209040D01*
X405570Y1172210D02*
X405820D01*
X407300Y1170730D01*
Y1170480D02*
Y1170730D01*
Y1170480D02*
X425718Y1152062D01*
Y1130910D02*
Y1152062D01*
X404760Y1212944D02*
X407206Y1215390D01*
X430530D01*
X404760Y1209040D02*
Y1212944D01*
X432630Y1206500D02*
Y1213290D01*
X430530Y1215390D02*
X432630Y1213290D01*
X390490Y1224050D02*
X390720Y1224280D01*
X390490Y1209270D02*
Y1224050D01*
X390260Y1209040D02*
X390490Y1209270D01*
X390720Y1224280D02*
Y1230190D01*
X421640Y1243660D02*
Y1248410D01*
X441130Y1185162D02*
Y1206500D01*
X437900Y1181932D02*
X441130Y1185162D01*
X437900Y1137251D02*
Y1181932D01*
Y1137251D02*
X444240Y1130910D01*
X448042D01*
X492312Y1193800D02*
X504270D01*
X492062Y1194050D02*
X492312Y1193800D01*
X475230Y1194050D02*
X492062D01*
X447040Y1165860D02*
X475230Y1194050D01*
X486410Y1184910D02*
X500300D01*
X519350Y1165860D01*
X472000Y1230630D02*
X473270Y1231900D01*
X457200Y1230630D02*
X472000D01*
X504390Y1216830D02*
Y1218690D01*
X504270Y1216710D02*
X504390Y1216830D01*
X473270Y1231900D02*
X473520D01*
X487610Y1237490D02*
X504390D01*
X482020Y1231900D02*
X487610Y1237490D01*
X481770Y1231900D02*
X482020D01*
X483870Y1146810D02*
X490220Y1153160D01*
X511512D02*
X513000Y1151672D01*
X490220Y1153160D02*
X511512D01*
X513000Y1139190D02*
Y1151672D01*
X529600Y1218900D02*
X539450D01*
X529390Y1218690D02*
X529600Y1218900D01*
X522578Y1207770D02*
X533150Y1197198D01*
Y1118458D02*
Y1197198D01*
Y1118458D02*
X547088Y1104520D01*
X523440Y1212650D02*
X537210Y1198880D01*
Y1120140D02*
Y1198880D01*
Y1120140D02*
X548770Y1108580D01*
X707390Y1070610D02*
X711782D01*
X547088Y1104520D02*
X606072D01*
X548770Y1108580D02*
X604390D01*
X751010Y1186180D02*
X751425Y1185765D01*
Y1137065D02*
Y1185765D01*
X710780Y1138340D02*
X710991Y1138129D01*
X756300Y1191220D02*
Y1209040D01*
X751260Y1186180D02*
X756300Y1191220D01*
X751010Y1186180D02*
X751260D01*
D26*
X812800Y749300D02*
D03*
Y693420D02*
D03*
X704850Y918210D02*
D03*
X847090Y848360D02*
D03*
X853440Y908050D02*
D03*
D35*
X502320Y1256030D02*
D03*
X274320D02*
D03*
X427320Y831030D02*
D03*
D36*
X349320D02*
D03*
D43*
X845820Y963930D02*
D03*
Y1120140D02*
D03*
X739140Y683260D02*
D03*
X775970Y694690D02*
D03*
X848360D02*
D03*
X560070Y1090930D02*
D03*
X669290Y909320D02*
D03*
X558800Y1162050D02*
D03*
X591820Y1271270D02*
D03*
X810260Y1226820D02*
D03*
X626110Y1094740D02*
D03*
D44*
X845820Y989330D02*
D03*
Y1014730D02*
D03*
Y1040130D02*
D03*
Y1145540D02*
D03*
Y1170940D02*
D03*
Y1196340D02*
D03*
X739140Y861060D02*
D03*
Y835660D02*
D03*
Y810260D02*
D03*
Y784860D02*
D03*
Y759460D02*
D03*
Y734060D02*
D03*
Y708660D02*
D03*
X775970Y720090D02*
D03*
Y745490D02*
D03*
Y770890D02*
D03*
X848360Y720090D02*
D03*
Y745490D02*
D03*
Y770890D02*
D03*
X788670Y953770D02*
D03*
X763270D02*
D03*
X737870D02*
D03*
X560070Y963930D02*
D03*
Y989330D02*
D03*
Y1014730D02*
D03*
Y1040130D02*
D03*
Y1065530D02*
D03*
X669290Y960120D02*
D03*
Y934720D02*
D03*
X558800Y1187450D02*
D03*
Y1212850D02*
D03*
Y1238250D02*
D03*
Y1263650D02*
D03*
X591820Y1245870D02*
D03*
Y1195070D02*
D03*
Y1169670D02*
D03*
Y1144270D02*
D03*
Y1118870D02*
D03*
Y1093470D02*
D03*
Y1068070D02*
D03*
Y1042670D02*
D03*
Y1220470D02*
D03*
X480060Y760730D02*
D03*
X822960Y1271270D02*
D03*
X848360D02*
D03*
X810260Y1176020D02*
D03*
Y998220D02*
D03*
Y1023620D02*
D03*
Y1049020D02*
D03*
Y1074420D02*
D03*
Y1099820D02*
D03*
Y1125220D02*
D03*
Y1150620D02*
D03*
Y1201420D02*
D03*
X768350Y1090930D02*
D03*
X742950D02*
D03*
X717550D02*
D03*
X692150D02*
D03*
X626110Y993140D02*
D03*
Y1018540D02*
D03*
Y1043940D02*
D03*
Y1069340D02*
D03*
X518160Y680720D02*
D03*
D45*
X814070Y953770D02*
D03*
X405060Y760730D02*
D03*
X797560Y1271270D02*
D03*
X666750Y1090930D02*
D03*
X492760Y680720D02*
D03*
D46*
X764900Y922770D02*
D03*
X730610Y1048500D02*
D03*
X659490Y1053580D02*
D03*
D47*
X764900Y857770D02*
D03*
X809900Y922770D02*
D03*
Y857770D02*
D03*
X730610Y983500D02*
D03*
X775610Y1048500D02*
D03*
Y983500D02*
D03*
X704490Y988580D02*
D03*
Y1053580D02*
D03*
X659490Y988580D02*
D03*
D48*
X563880Y916940D02*
D03*
X594280D02*
D03*
D49*
X624680D02*
D03*
D50*
X278130Y765810D02*
D03*
X303530D02*
D03*
X328930D02*
D03*
D51*
X659130Y704850D02*
D03*
X589130D02*
D03*
Y784850D02*
D03*
X659130D02*
D03*
D52*
X554920Y863600D02*
D03*
X704920D02*
D03*
D53*
X302940Y875030D02*
D03*
D54*
X514940D02*
D03*
D55*
X396240Y681990D02*
D03*
X283210D02*
D03*
D56*
X447040D02*
D03*
X334010D02*
D03*
D57*
X699770Y1234440D02*
D03*
X680720Y1230630D02*
D03*
X660400Y1229360D02*
D03*
X486410Y1257300D02*
D03*
X383540Y1236980D02*
D03*
X422910Y1173480D02*
D03*
X402590Y1127760D02*
D03*
X458470Y1153160D02*
D03*
X483870Y1146810D02*
D03*
X332740Y1073150D02*
D03*
X666750Y1135380D02*
D03*
X852170Y1082040D02*
D03*
X788670Y1211580D02*
D03*
X859790Y1207770D02*
D03*
X654510Y1155700D02*
D03*
X646430Y1140460D02*
D03*
X576580Y1179830D02*
D03*
X382270Y1051560D02*
D03*
X364490Y1234440D02*
D03*
X590550Y817880D02*
D03*
X635000Y816610D02*
D03*
X697230Y745490D02*
D03*
X655320Y1249680D02*
D03*
X753110Y1136650D02*
D03*
X684530Y1054100D02*
D03*
X680720Y1073150D02*
D03*
X585470Y970280D02*
D03*
X452120Y1032510D02*
D03*
X314960Y953770D02*
D03*
X462280Y984250D02*
D03*
X402590Y1013460D02*
D03*
X530860Y1270000D02*
D03*
X322580Y1164590D02*
D03*
X346710Y1247140D02*
D03*
X455930Y1229360D02*
D03*
X401320Y1092200D02*
D03*
X486410Y1184910D02*
D03*
X447040Y1165860D02*
D03*
X707390Y1070610D02*
D03*
X710991Y1138129D02*
D03*
X734060Y1137920D02*
D03*
D58*
X689210Y1192530D02*
D03*
X715410D02*
D03*
D59*
X655320Y1203960D02*
D03*
D60*
X645470Y1211460D02*
D03*
Y1206460D02*
D03*
Y1201460D02*
D03*
Y1196460D02*
D03*
X665170D02*
D03*
Y1201460D02*
D03*
Y1206460D02*
D03*
Y1211460D02*
D03*
D61*
X741680Y910650D02*
D03*
Y918150D02*
D03*
X318770Y1050230D02*
D03*
Y1042730D02*
D03*
D62*
X852170Y1246310D02*
D03*
Y1237810D02*
D03*
D63*
X506810Y1165860D02*
D03*
X519350D02*
D03*
X513000Y1115060D02*
D03*
X500460D02*
D03*
X513000Y1089660D02*
D03*
X500460D02*
D03*
X513000Y1059180D02*
D03*
X500460D02*
D03*
X383460Y1132840D02*
D03*
X370920D02*
D03*
X504270Y1193800D02*
D03*
X516810D02*
D03*
X513000Y1139190D02*
D03*
X500460D02*
D03*
X482520Y1050290D02*
D03*
X469980D02*
D03*
D64*
X612080Y969010D02*
D03*
X604580D02*
D03*
X388560Y1031240D02*
D03*
X381060D02*
D03*
X321370Y1177290D02*
D03*
X328870D02*
D03*
X322640Y1150620D02*
D03*
X330140D02*
D03*
D65*
X642326Y969010D02*
D03*
X632754D02*
D03*
X596606Y1007110D02*
D03*
X587034D02*
D03*
D66*
X339090Y978802D02*
D03*
Y997318D02*
D03*
D67*
X433070Y979464D02*
D03*
Y989036D02*
D03*
X369570Y990306D02*
D03*
Y980734D02*
D03*
D68*
X415290Y979650D02*
D03*
Y988850D02*
D03*
D69*
X416320Y957840D02*
D03*
X386320D02*
D03*
D70*
X401320Y960340D02*
D03*
X687440Y1172210D02*
D03*
X701940D02*
D03*
D71*
X631190Y715660D02*
D03*
Y765160D02*
D03*
D72*
X340510Y914400D02*
D03*
X327510D02*
D03*
X390260Y1209040D02*
D03*
X404760D02*
D03*
D73*
X297930Y1000360D02*
D03*
Y975360D02*
D03*
Y950360D02*
D03*
D74*
X432630Y1206500D02*
D03*
X441130D02*
D03*
X390720Y1224280D02*
D03*
X399220D02*
D03*
X405570Y1172210D02*
D03*
X397070D02*
D03*
X690050Y1136650D02*
D03*
X681550D02*
D03*
X481770Y1231900D02*
D03*
X473270D02*
D03*
X751010Y1186180D02*
D03*
X742510D02*
D03*
D75*
X344800Y1209960D02*
D03*
X324800D02*
D03*
D76*
X368300Y1267460D02*
D03*
X301300D02*
D03*
D77*
X434640Y1248410D02*
D03*
X428140D02*
D03*
X441140D02*
D03*
X421640D02*
D03*
X447640D02*
D03*
D78*
X403640Y1249660D02*
D03*
X465640D02*
D03*
D79*
X396640Y1275160D02*
D03*
X472640D02*
D03*
D80*
X422640D02*
D03*
X446640D02*
D03*
D81*
X425718Y1130910D02*
D03*
Y1111910D02*
D03*
X448042D02*
D03*
Y1121410D02*
D03*
D82*
Y1130910D02*
D03*
D83*
X568340Y1136650D02*
D03*
X551800D02*
D03*
X741030Y1253490D02*
D03*
X757570D02*
D03*
X756300Y1209040D02*
D03*
X739760D02*
D03*
D84*
X504390Y1218690D02*
D03*
Y1228090D02*
D03*
Y1237490D02*
D03*
X529390D02*
D03*
Y1218690D02*
D03*
X339290Y1050800D02*
D03*
Y1032000D02*
D03*
X364290D02*
D03*
Y1041400D02*
D03*
Y1050800D02*
D03*
D85*
X495300Y1007590D02*
D03*
Y940590D02*
D03*
D86*
X717130Y1155440D02*
D03*
X728130D02*
D03*
Y1173740D02*
D03*
X717130D02*
D03*
D87*
X422320Y1062430D02*
D03*
X401320Y1072030D02*
D03*
Y1052830D02*
D03*
D88*
X329490Y1134200D02*
D03*
X322990D02*
D03*
Y1113700D02*
D03*
X329490D02*
D03*
X335990D02*
D03*
X342490D02*
D03*
Y1134200D02*
D03*
X335990D02*
D03*
D89*
X267790Y1177230D02*
D03*
Y1091230D02*
D03*
D90*
X288290Y1156730D02*
D03*
Y1141730D02*
D03*
Y1126730D02*
D03*
Y1111730D02*
D03*
M02*
