G04*
G04 #@! TF.GenerationSoftware,Altium Limited,Altium Designer,20.0.2 (26)*
G04*
G04 Layer_Color=32768*
%FSLAX44Y44*%
%MOMM*%
G71*
G01*
G75*
%ADD11C,0.2000*%
G36*
X504341Y1172249D02*
X504448Y1172092D01*
X504565Y1171946D01*
X504682Y1171810D01*
X504790Y1171702D01*
X504877Y1171615D01*
X504936Y1171556D01*
X504946Y1171546D01*
X504955Y1171536D01*
X505141Y1171380D01*
X505336Y1171234D01*
X505531Y1171107D01*
X505706Y1171000D01*
X505863Y1170912D01*
X505931Y1170883D01*
X505989Y1170854D01*
X506028Y1170825D01*
X506067Y1170805D01*
X506087Y1170795D01*
X506096D01*
Y1170025D01*
X505960Y1170083D01*
X505814Y1170152D01*
X505677Y1170210D01*
X505550Y1170278D01*
X505443Y1170337D01*
X505355Y1170386D01*
X505297Y1170425D01*
X505287Y1170434D01*
X505277D01*
X505111Y1170532D01*
X504965Y1170639D01*
X504838Y1170727D01*
X504731Y1170815D01*
X504643Y1170883D01*
X504575Y1170932D01*
X504536Y1170971D01*
X504526Y1170981D01*
Y1165967D01*
X503736D01*
Y1172404D01*
X504253D01*
X504341Y1172249D01*
D02*
G37*
G36*
X510378Y1172463D02*
X510671Y1172424D01*
X510934Y1172356D01*
X511051Y1172327D01*
X511159Y1172288D01*
X511256Y1172249D01*
X511354Y1172219D01*
X511432Y1172180D01*
X511490Y1172151D01*
X511549Y1172131D01*
X511588Y1172112D01*
X511607Y1172092D01*
X511617D01*
X511861Y1171936D01*
X512085Y1171751D01*
X512271Y1171566D01*
X512417Y1171380D01*
X512544Y1171215D01*
X512592Y1171146D01*
X512631Y1171088D01*
X512661Y1171029D01*
X512680Y1170990D01*
X512700Y1170971D01*
Y1170961D01*
X512826Y1170678D01*
X512924Y1170376D01*
X512983Y1170083D01*
X513031Y1169810D01*
X513051Y1169683D01*
X513061Y1169576D01*
X513070Y1169469D01*
Y1169381D01*
X513080Y1169313D01*
Y1169264D01*
Y1169225D01*
Y1169215D01*
X513070Y1168874D01*
X513031Y1168562D01*
X512973Y1168269D01*
X512944Y1168132D01*
X512914Y1168015D01*
X512885Y1167898D01*
X512856Y1167801D01*
X512826Y1167713D01*
X512797Y1167635D01*
X512778Y1167577D01*
X512758Y1167538D01*
X512748Y1167508D01*
Y1167498D01*
X512612Y1167216D01*
X512446Y1166972D01*
X512290Y1166757D01*
X512124Y1166591D01*
X511988Y1166455D01*
X511871Y1166357D01*
X511822Y1166328D01*
X511793Y1166299D01*
X511773Y1166289D01*
X511763Y1166279D01*
X511637Y1166201D01*
X511500Y1166143D01*
X511227Y1166035D01*
X510944Y1165967D01*
X510671Y1165909D01*
X510554Y1165899D01*
X510437Y1165879D01*
X510339Y1165870D01*
X510252D01*
X510174Y1165860D01*
X510076D01*
X509891Y1165870D01*
X509715Y1165879D01*
X509393Y1165948D01*
X509247Y1165987D01*
X509101Y1166035D01*
X508974Y1166084D01*
X508857Y1166133D01*
X508750Y1166182D01*
X508662Y1166230D01*
X508584Y1166279D01*
X508515Y1166318D01*
X508457Y1166357D01*
X508418Y1166387D01*
X508398Y1166396D01*
X508389Y1166406D01*
X508262Y1166513D01*
X508145Y1166630D01*
X507950Y1166884D01*
X507774Y1167147D01*
X507647Y1167411D01*
X507589Y1167528D01*
X507550Y1167635D01*
X507511Y1167742D01*
X507472Y1167820D01*
X507452Y1167898D01*
X507433Y1167947D01*
X507423Y1167986D01*
Y1167996D01*
X508272Y1168211D01*
X508350Y1167928D01*
X508447Y1167674D01*
X508564Y1167469D01*
X508671Y1167294D01*
X508779Y1167167D01*
X508867Y1167069D01*
X508925Y1167011D01*
X508935Y1167001D01*
X508945Y1166991D01*
X509140Y1166855D01*
X509335Y1166757D01*
X509540Y1166679D01*
X509725Y1166630D01*
X509891Y1166601D01*
X509969Y1166591D01*
X510027D01*
X510076Y1166582D01*
X510144D01*
X510359Y1166591D01*
X510564Y1166630D01*
X510749Y1166679D01*
X510905Y1166728D01*
X511042Y1166786D01*
X511149Y1166825D01*
X511188Y1166845D01*
X511217Y1166864D01*
X511227Y1166874D01*
X511237D01*
X511412Y1167001D01*
X511559Y1167147D01*
X511685Y1167294D01*
X511793Y1167450D01*
X511871Y1167577D01*
X511919Y1167693D01*
X511939Y1167733D01*
X511959Y1167762D01*
X511968Y1167781D01*
Y1167791D01*
X512046Y1168025D01*
X512105Y1168269D01*
X512144Y1168513D01*
X512173Y1168737D01*
X512183Y1168835D01*
X512192Y1168923D01*
Y1169010D01*
X512202Y1169079D01*
Y1169137D01*
Y1169176D01*
Y1169205D01*
Y1169215D01*
X512192Y1169449D01*
X512173Y1169673D01*
X512144Y1169878D01*
X512105Y1170064D01*
X512066Y1170220D01*
X512056Y1170288D01*
X512037Y1170337D01*
X512027Y1170386D01*
X512017Y1170415D01*
X512007Y1170434D01*
Y1170444D01*
X511919Y1170659D01*
X511812Y1170854D01*
X511695Y1171010D01*
X511588Y1171146D01*
X511480Y1171254D01*
X511393Y1171332D01*
X511334Y1171380D01*
X511325Y1171400D01*
X511315D01*
X511120Y1171517D01*
X510915Y1171605D01*
X510710Y1171673D01*
X510515Y1171712D01*
X510339Y1171741D01*
X510271Y1171751D01*
X510203D01*
X510154Y1171761D01*
X510086D01*
X509852Y1171751D01*
X509647Y1171712D01*
X509462Y1171663D01*
X509315Y1171605D01*
X509188Y1171536D01*
X509101Y1171488D01*
X509042Y1171449D01*
X509023Y1171439D01*
X508867Y1171302D01*
X508740Y1171146D01*
X508623Y1170971D01*
X508535Y1170805D01*
X508467Y1170659D01*
X508437Y1170590D01*
X508408Y1170532D01*
X508389Y1170483D01*
X508379Y1170444D01*
X508369Y1170425D01*
Y1170415D01*
X507530Y1170610D01*
X507647Y1170922D01*
X507716Y1171068D01*
X507784Y1171195D01*
X507862Y1171322D01*
X507940Y1171439D01*
X508008Y1171536D01*
X508086Y1171634D01*
X508155Y1171712D01*
X508223Y1171780D01*
X508291Y1171849D01*
X508340Y1171897D01*
X508389Y1171936D01*
X508418Y1171966D01*
X508437Y1171975D01*
X508447Y1171985D01*
X508574Y1172073D01*
X508701Y1172151D01*
X508837Y1172219D01*
X508974Y1172278D01*
X509247Y1172365D01*
X509501Y1172424D01*
X509618Y1172444D01*
X509725Y1172453D01*
X509822Y1172463D01*
X509901Y1172473D01*
X509969Y1172483D01*
X510066D01*
X510378Y1172463D01*
D02*
G37*
G36*
X501990Y1168220D02*
Y1167498D01*
X499211D01*
Y1165967D01*
X498420D01*
Y1167498D01*
X497552D01*
Y1168220D01*
X498420D01*
Y1172365D01*
X499064D01*
X501990Y1168220D01*
D02*
G37*
G36*
X504028Y1121663D02*
X504321Y1121624D01*
X504584Y1121556D01*
X504701Y1121526D01*
X504809Y1121488D01*
X504906Y1121449D01*
X505004Y1121419D01*
X505082Y1121380D01*
X505140Y1121351D01*
X505199Y1121331D01*
X505238Y1121312D01*
X505257Y1121292D01*
X505267D01*
X505511Y1121136D01*
X505735Y1120951D01*
X505921Y1120766D01*
X506067Y1120580D01*
X506194Y1120415D01*
X506242Y1120346D01*
X506282Y1120288D01*
X506311Y1120229D01*
X506330Y1120190D01*
X506350Y1120171D01*
Y1120161D01*
X506477Y1119878D01*
X506574Y1119576D01*
X506633Y1119283D01*
X506681Y1119010D01*
X506701Y1118883D01*
X506711Y1118776D01*
X506720Y1118669D01*
Y1118581D01*
X506730Y1118513D01*
Y1118464D01*
Y1118425D01*
Y1118415D01*
X506720Y1118074D01*
X506681Y1117762D01*
X506623Y1117469D01*
X506594Y1117333D01*
X506564Y1117215D01*
X506535Y1117098D01*
X506506Y1117001D01*
X506477Y1116913D01*
X506447Y1116835D01*
X506428Y1116777D01*
X506408Y1116738D01*
X506399Y1116708D01*
Y1116699D01*
X506262Y1116416D01*
X506096Y1116172D01*
X505940Y1115957D01*
X505774Y1115791D01*
X505638Y1115655D01*
X505521Y1115557D01*
X505472Y1115528D01*
X505443Y1115499D01*
X505423Y1115489D01*
X505413Y1115479D01*
X505287Y1115401D01*
X505150Y1115343D01*
X504877Y1115235D01*
X504594Y1115167D01*
X504321Y1115109D01*
X504204Y1115099D01*
X504087Y1115079D01*
X503989Y1115070D01*
X503902D01*
X503824Y1115060D01*
X503726D01*
X503541Y1115070D01*
X503365Y1115079D01*
X503043Y1115148D01*
X502897Y1115187D01*
X502751Y1115235D01*
X502624Y1115284D01*
X502507Y1115333D01*
X502399Y1115382D01*
X502312Y1115431D01*
X502234Y1115479D01*
X502165Y1115518D01*
X502107Y1115557D01*
X502068Y1115587D01*
X502048Y1115596D01*
X502039Y1115606D01*
X501912Y1115713D01*
X501795Y1115830D01*
X501600Y1116084D01*
X501424Y1116347D01*
X501297Y1116611D01*
X501239Y1116728D01*
X501200Y1116835D01*
X501161Y1116942D01*
X501122Y1117020D01*
X501102Y1117098D01*
X501083Y1117147D01*
X501073Y1117186D01*
Y1117196D01*
X501922Y1117411D01*
X502000Y1117128D01*
X502097Y1116874D01*
X502214Y1116669D01*
X502322Y1116494D01*
X502429Y1116367D01*
X502517Y1116269D01*
X502575Y1116211D01*
X502585Y1116201D01*
X502595Y1116191D01*
X502790Y1116055D01*
X502985Y1115957D01*
X503190Y1115879D01*
X503375Y1115830D01*
X503541Y1115801D01*
X503619Y1115791D01*
X503677D01*
X503726Y1115782D01*
X503794D01*
X504009Y1115791D01*
X504214Y1115830D01*
X504399Y1115879D01*
X504555Y1115928D01*
X504692Y1115986D01*
X504799Y1116025D01*
X504838Y1116045D01*
X504867Y1116065D01*
X504877Y1116074D01*
X504887D01*
X505062Y1116201D01*
X505209Y1116347D01*
X505335Y1116494D01*
X505443Y1116650D01*
X505521Y1116777D01*
X505569Y1116893D01*
X505589Y1116933D01*
X505608Y1116962D01*
X505618Y1116981D01*
Y1116991D01*
X505696Y1117225D01*
X505755Y1117469D01*
X505794Y1117713D01*
X505823Y1117937D01*
X505833Y1118035D01*
X505843Y1118122D01*
Y1118210D01*
X505852Y1118279D01*
Y1118337D01*
Y1118376D01*
Y1118405D01*
Y1118415D01*
X505843Y1118649D01*
X505823Y1118874D01*
X505794Y1119078D01*
X505755Y1119264D01*
X505716Y1119420D01*
X505706Y1119488D01*
X505686Y1119537D01*
X505677Y1119585D01*
X505667Y1119615D01*
X505657Y1119634D01*
Y1119644D01*
X505569Y1119859D01*
X505462Y1120054D01*
X505345Y1120210D01*
X505238Y1120346D01*
X505131Y1120454D01*
X505043Y1120532D01*
X504984Y1120580D01*
X504975Y1120600D01*
X504965D01*
X504770Y1120717D01*
X504565Y1120805D01*
X504360Y1120873D01*
X504165Y1120912D01*
X503989Y1120941D01*
X503921Y1120951D01*
X503853D01*
X503804Y1120961D01*
X503736D01*
X503502Y1120951D01*
X503297Y1120912D01*
X503111Y1120863D01*
X502965Y1120805D01*
X502838Y1120736D01*
X502751Y1120688D01*
X502692Y1120649D01*
X502673Y1120639D01*
X502517Y1120502D01*
X502390Y1120346D01*
X502273Y1120171D01*
X502185Y1120005D01*
X502117Y1119859D01*
X502087Y1119790D01*
X502058Y1119732D01*
X502039Y1119683D01*
X502029Y1119644D01*
X502019Y1119625D01*
Y1119615D01*
X501180Y1119810D01*
X501297Y1120122D01*
X501366Y1120268D01*
X501434Y1120395D01*
X501512Y1120522D01*
X501590Y1120639D01*
X501658Y1120736D01*
X501736Y1120834D01*
X501805Y1120912D01*
X501873Y1120980D01*
X501941Y1121049D01*
X501990Y1121097D01*
X502039Y1121136D01*
X502068Y1121166D01*
X502087Y1121175D01*
X502097Y1121185D01*
X502224Y1121273D01*
X502351Y1121351D01*
X502487Y1121419D01*
X502624Y1121478D01*
X502897Y1121565D01*
X503151Y1121624D01*
X503268Y1121644D01*
X503375Y1121653D01*
X503472Y1121663D01*
X503550Y1121673D01*
X503619Y1121683D01*
X503716D01*
X504028Y1121663D01*
D02*
G37*
G36*
X500303Y1120746D02*
X497162D01*
X497386Y1120473D01*
X497591Y1120190D01*
X497786Y1119907D01*
X497962Y1119644D01*
X498030Y1119517D01*
X498098Y1119410D01*
X498157Y1119312D01*
X498205Y1119225D01*
X498245Y1119156D01*
X498274Y1119108D01*
X498293Y1119069D01*
X498303Y1119059D01*
X498488Y1118688D01*
X498654Y1118318D01*
X498791Y1117966D01*
X498849Y1117801D01*
X498908Y1117654D01*
X498956Y1117508D01*
X498996Y1117381D01*
X499035Y1117274D01*
X499064Y1117176D01*
X499083Y1117098D01*
X499103Y1117040D01*
X499113Y1117001D01*
Y1116991D01*
X499210Y1116601D01*
X499249Y1116425D01*
X499278Y1116250D01*
X499308Y1116094D01*
X499327Y1115947D01*
X499347Y1115801D01*
X499366Y1115674D01*
X499376Y1115567D01*
X499386Y1115460D01*
X499395Y1115372D01*
Y1115304D01*
X499405Y1115245D01*
Y1115206D01*
Y1115177D01*
Y1115167D01*
X498596D01*
X498566Y1115518D01*
X498527Y1115850D01*
X498479Y1116143D01*
X498449Y1116279D01*
X498430Y1116406D01*
X498401Y1116513D01*
X498381Y1116620D01*
X498362Y1116708D01*
X498342Y1116786D01*
X498322Y1116845D01*
X498313Y1116884D01*
X498303Y1116913D01*
Y1116923D01*
X498167Y1117352D01*
X498020Y1117752D01*
X497942Y1117947D01*
X497864Y1118132D01*
X497786Y1118308D01*
X497718Y1118464D01*
X497649Y1118610D01*
X497581Y1118747D01*
X497523Y1118864D01*
X497474Y1118961D01*
X497435Y1119039D01*
X497406Y1119098D01*
X497386Y1119137D01*
X497376Y1119147D01*
X497259Y1119342D01*
X497152Y1119537D01*
X497035Y1119712D01*
X496928Y1119878D01*
X496830Y1120034D01*
X496723Y1120171D01*
X496625Y1120307D01*
X496538Y1120424D01*
X496460Y1120522D01*
X496382Y1120619D01*
X496313Y1120697D01*
X496264Y1120766D01*
X496216Y1120815D01*
X496186Y1120854D01*
X496167Y1120873D01*
X496157Y1120883D01*
Y1121497D01*
X500303D01*
Y1120746D01*
D02*
G37*
G36*
X504028Y1096263D02*
X504321Y1096224D01*
X504584Y1096156D01*
X504701Y1096126D01*
X504809Y1096087D01*
X504906Y1096049D01*
X505004Y1096019D01*
X505082Y1095980D01*
X505140Y1095951D01*
X505199Y1095931D01*
X505238Y1095912D01*
X505257Y1095892D01*
X505267D01*
X505511Y1095736D01*
X505735Y1095551D01*
X505921Y1095366D01*
X506067Y1095180D01*
X506194Y1095015D01*
X506242Y1094946D01*
X506282Y1094888D01*
X506311Y1094829D01*
X506330Y1094790D01*
X506350Y1094771D01*
Y1094761D01*
X506477Y1094478D01*
X506574Y1094176D01*
X506633Y1093883D01*
X506681Y1093610D01*
X506701Y1093483D01*
X506711Y1093376D01*
X506720Y1093269D01*
Y1093181D01*
X506730Y1093113D01*
Y1093064D01*
Y1093025D01*
Y1093015D01*
X506720Y1092674D01*
X506681Y1092362D01*
X506623Y1092069D01*
X506594Y1091933D01*
X506564Y1091815D01*
X506535Y1091698D01*
X506506Y1091601D01*
X506477Y1091513D01*
X506447Y1091435D01*
X506428Y1091376D01*
X506408Y1091338D01*
X506399Y1091308D01*
Y1091299D01*
X506262Y1091016D01*
X506096Y1090772D01*
X505940Y1090557D01*
X505774Y1090391D01*
X505638Y1090255D01*
X505521Y1090157D01*
X505472Y1090128D01*
X505443Y1090099D01*
X505423Y1090089D01*
X505413Y1090079D01*
X505287Y1090001D01*
X505150Y1089943D01*
X504877Y1089835D01*
X504594Y1089767D01*
X504321Y1089709D01*
X504204Y1089699D01*
X504087Y1089679D01*
X503989Y1089670D01*
X503902D01*
X503824Y1089660D01*
X503726D01*
X503541Y1089670D01*
X503365Y1089679D01*
X503043Y1089748D01*
X502897Y1089787D01*
X502751Y1089835D01*
X502624Y1089884D01*
X502507Y1089933D01*
X502399Y1089982D01*
X502312Y1090031D01*
X502234Y1090079D01*
X502165Y1090118D01*
X502107Y1090157D01*
X502068Y1090187D01*
X502048Y1090196D01*
X502039Y1090206D01*
X501912Y1090313D01*
X501795Y1090430D01*
X501600Y1090684D01*
X501424Y1090947D01*
X501297Y1091211D01*
X501239Y1091328D01*
X501200Y1091435D01*
X501161Y1091542D01*
X501122Y1091620D01*
X501102Y1091698D01*
X501083Y1091747D01*
X501073Y1091786D01*
Y1091796D01*
X501922Y1092010D01*
X502000Y1091728D01*
X502097Y1091474D01*
X502214Y1091269D01*
X502322Y1091094D01*
X502429Y1090967D01*
X502517Y1090869D01*
X502575Y1090811D01*
X502585Y1090801D01*
X502595Y1090791D01*
X502790Y1090655D01*
X502985Y1090557D01*
X503190Y1090479D01*
X503375Y1090430D01*
X503541Y1090401D01*
X503619Y1090391D01*
X503677D01*
X503726Y1090382D01*
X503794D01*
X504009Y1090391D01*
X504214Y1090430D01*
X504399Y1090479D01*
X504555Y1090528D01*
X504692Y1090586D01*
X504799Y1090626D01*
X504838Y1090645D01*
X504867Y1090665D01*
X504877Y1090674D01*
X504887D01*
X505062Y1090801D01*
X505209Y1090947D01*
X505335Y1091094D01*
X505443Y1091250D01*
X505521Y1091376D01*
X505569Y1091494D01*
X505589Y1091533D01*
X505608Y1091562D01*
X505618Y1091581D01*
Y1091591D01*
X505696Y1091825D01*
X505755Y1092069D01*
X505794Y1092313D01*
X505823Y1092537D01*
X505833Y1092635D01*
X505843Y1092722D01*
Y1092810D01*
X505852Y1092879D01*
Y1092937D01*
Y1092976D01*
Y1093005D01*
Y1093015D01*
X505843Y1093249D01*
X505823Y1093474D01*
X505794Y1093678D01*
X505755Y1093864D01*
X505716Y1094020D01*
X505706Y1094088D01*
X505686Y1094137D01*
X505677Y1094185D01*
X505667Y1094215D01*
X505657Y1094234D01*
Y1094244D01*
X505569Y1094459D01*
X505462Y1094654D01*
X505345Y1094810D01*
X505238Y1094946D01*
X505131Y1095054D01*
X505043Y1095132D01*
X504984Y1095180D01*
X504975Y1095200D01*
X504965D01*
X504770Y1095317D01*
X504565Y1095405D01*
X504360Y1095473D01*
X504165Y1095512D01*
X503989Y1095541D01*
X503921Y1095551D01*
X503853D01*
X503804Y1095561D01*
X503736D01*
X503502Y1095551D01*
X503297Y1095512D01*
X503111Y1095463D01*
X502965Y1095405D01*
X502838Y1095337D01*
X502751Y1095288D01*
X502692Y1095249D01*
X502673Y1095239D01*
X502517Y1095102D01*
X502390Y1094946D01*
X502273Y1094771D01*
X502185Y1094605D01*
X502117Y1094459D01*
X502087Y1094390D01*
X502058Y1094332D01*
X502039Y1094283D01*
X502029Y1094244D01*
X502019Y1094225D01*
Y1094215D01*
X501180Y1094410D01*
X501297Y1094722D01*
X501366Y1094868D01*
X501434Y1094995D01*
X501512Y1095122D01*
X501590Y1095239D01*
X501658Y1095337D01*
X501736Y1095434D01*
X501805Y1095512D01*
X501873Y1095580D01*
X501941Y1095649D01*
X501990Y1095697D01*
X502039Y1095736D01*
X502068Y1095766D01*
X502087Y1095775D01*
X502097Y1095785D01*
X502224Y1095873D01*
X502351Y1095951D01*
X502487Y1096019D01*
X502624Y1096078D01*
X502897Y1096165D01*
X503151Y1096224D01*
X503268Y1096244D01*
X503375Y1096253D01*
X503472Y1096263D01*
X503550Y1096273D01*
X503619Y1096283D01*
X503716D01*
X504028Y1096263D01*
D02*
G37*
G36*
X498430Y1096195D02*
X498566Y1096185D01*
X498830Y1096126D01*
X499064Y1096058D01*
X499249Y1095971D01*
X499337Y1095922D01*
X499405Y1095883D01*
X499464Y1095834D01*
X499522Y1095805D01*
X499561Y1095775D01*
X499590Y1095746D01*
X499600Y1095736D01*
X499610Y1095727D01*
X499698Y1095639D01*
X499776Y1095541D01*
X499844Y1095444D01*
X499893Y1095337D01*
X499990Y1095141D01*
X500049Y1094956D01*
X500078Y1094790D01*
X500088Y1094722D01*
X500098Y1094663D01*
X500107Y1094615D01*
Y1094576D01*
Y1094556D01*
Y1094546D01*
X500098Y1094381D01*
X500068Y1094234D01*
X500029Y1094098D01*
X499990Y1093981D01*
X499951Y1093883D01*
X499912Y1093815D01*
X499883Y1093776D01*
X499873Y1093756D01*
X499776Y1093639D01*
X499659Y1093542D01*
X499542Y1093454D01*
X499415Y1093376D01*
X499308Y1093327D01*
X499220Y1093279D01*
X499161Y1093259D01*
X499152Y1093249D01*
X499142D01*
X499347Y1093181D01*
X499532Y1093093D01*
X499688Y1092996D01*
X499815Y1092898D01*
X499912Y1092810D01*
X499990Y1092732D01*
X500029Y1092683D01*
X500049Y1092674D01*
Y1092664D01*
X500156Y1092498D01*
X500224Y1092323D01*
X500283Y1092147D01*
X500322Y1091981D01*
X500341Y1091845D01*
X500351Y1091776D01*
Y1091728D01*
X500361Y1091679D01*
Y1091650D01*
Y1091630D01*
Y1091620D01*
X500351Y1091464D01*
X500332Y1091318D01*
X500312Y1091181D01*
X500273Y1091045D01*
X500176Y1090811D01*
X500127Y1090704D01*
X500068Y1090606D01*
X500020Y1090518D01*
X499971Y1090440D01*
X499922Y1090372D01*
X499873Y1090313D01*
X499834Y1090274D01*
X499815Y1090245D01*
X499795Y1090226D01*
X499786Y1090216D01*
X499669Y1090118D01*
X499552Y1090031D01*
X499425Y1089962D01*
X499298Y1089894D01*
X499171Y1089845D01*
X499044Y1089796D01*
X498801Y1089728D01*
X498683Y1089709D01*
X498586Y1089689D01*
X498488Y1089679D01*
X498410Y1089670D01*
X498342Y1089660D01*
X498254D01*
X498079Y1089670D01*
X497913Y1089679D01*
X497757Y1089709D01*
X497620Y1089748D01*
X497484Y1089787D01*
X497357Y1089835D01*
X497240Y1089884D01*
X497133Y1089943D01*
X497035Y1089992D01*
X496957Y1090040D01*
X496889Y1090089D01*
X496830Y1090128D01*
X496782Y1090167D01*
X496752Y1090196D01*
X496733Y1090206D01*
X496723Y1090216D01*
X496616Y1090323D01*
X496528Y1090430D01*
X496450Y1090547D01*
X496382Y1090665D01*
X496323Y1090781D01*
X496284Y1090899D01*
X496206Y1091113D01*
X496167Y1091308D01*
X496157Y1091396D01*
X496147Y1091464D01*
X496138Y1091523D01*
Y1091562D01*
Y1091591D01*
Y1091601D01*
X496147Y1091815D01*
X496186Y1092010D01*
X496235Y1092186D01*
X496294Y1092332D01*
X496352Y1092459D01*
X496401Y1092547D01*
X496440Y1092606D01*
X496450Y1092625D01*
X496577Y1092771D01*
X496723Y1092908D01*
X496869Y1093015D01*
X497015Y1093103D01*
X497142Y1093161D01*
X497250Y1093210D01*
X497289Y1093230D01*
X497318Y1093239D01*
X497337Y1093249D01*
X497347D01*
X497181Y1093317D01*
X497035Y1093405D01*
X496908Y1093483D01*
X496811Y1093561D01*
X496733Y1093639D01*
X496674Y1093698D01*
X496645Y1093737D01*
X496635Y1093747D01*
X496557Y1093873D01*
X496499Y1094010D01*
X496460Y1094137D01*
X496430Y1094264D01*
X496411Y1094371D01*
X496401Y1094449D01*
Y1094507D01*
Y1094527D01*
X496411Y1094654D01*
X496421Y1094781D01*
X496479Y1095005D01*
X496567Y1095210D01*
X496655Y1095385D01*
X496752Y1095522D01*
X496801Y1095580D01*
X496840Y1095629D01*
X496869Y1095668D01*
X496898Y1095697D01*
X496908Y1095707D01*
X496918Y1095717D01*
X497015Y1095805D01*
X497123Y1095883D01*
X497230Y1095941D01*
X497347Y1096000D01*
X497571Y1096087D01*
X497786Y1096146D01*
X497981Y1096175D01*
X498059Y1096195D01*
X498137D01*
X498196Y1096205D01*
X498274D01*
X498430Y1096195D01*
D02*
G37*
G36*
X631278Y972141D02*
X630537Y972033D01*
X630469Y972131D01*
X630391Y972219D01*
X630313Y972297D01*
X630244Y972365D01*
X630176Y972414D01*
X630118Y972453D01*
X630079Y972472D01*
X630069Y972482D01*
X629952Y972541D01*
X629835Y972589D01*
X629718Y972619D01*
X629610Y972648D01*
X629513Y972658D01*
X629445Y972667D01*
X629376D01*
X629162Y972648D01*
X628967Y972609D01*
X628791Y972541D01*
X628655Y972472D01*
X628538Y972404D01*
X628460Y972336D01*
X628411Y972297D01*
X628391Y972277D01*
X628265Y972121D01*
X628167Y971946D01*
X628099Y971770D01*
X628060Y971604D01*
X628030Y971448D01*
X628021Y971380D01*
Y971321D01*
X628011Y971283D01*
Y971243D01*
Y971224D01*
Y971214D01*
X628030Y970961D01*
X628069Y970736D01*
X628138Y970541D01*
X628206Y970375D01*
X628274Y970249D01*
X628343Y970151D01*
X628382Y970092D01*
X628401Y970083D01*
Y970073D01*
X628479Y969995D01*
X628557Y969937D01*
X628713Y969829D01*
X628879Y969761D01*
X629025Y969702D01*
X629162Y969673D01*
X629269Y969663D01*
X629308Y969654D01*
X629367D01*
X629532Y969663D01*
X629688Y969702D01*
X629825Y969751D01*
X629942Y969800D01*
X630040Y969858D01*
X630108Y969898D01*
X630147Y969937D01*
X630166Y969946D01*
X630283Y970073D01*
X630371Y970219D01*
X630449Y970366D01*
X630498Y970512D01*
X630537Y970648D01*
X630566Y970756D01*
X630576Y970795D01*
X630586Y970824D01*
Y970844D01*
Y970853D01*
X631415Y970795D01*
X631395Y970648D01*
X631366Y970502D01*
X631288Y970249D01*
X631181Y970024D01*
X631073Y969839D01*
X631015Y969761D01*
X630966Y969693D01*
X630917Y969634D01*
X630878Y969585D01*
X630839Y969546D01*
X630810Y969517D01*
X630800Y969507D01*
X630791Y969498D01*
X630683Y969410D01*
X630566Y969342D01*
X630449Y969273D01*
X630332Y969215D01*
X630098Y969127D01*
X629874Y969068D01*
X629767Y969049D01*
X629669Y969039D01*
X629581Y969029D01*
X629513Y969020D01*
X629454Y969010D01*
X629367D01*
X629171Y969020D01*
X628986Y969039D01*
X628820Y969078D01*
X628655Y969127D01*
X628508Y969185D01*
X628362Y969254D01*
X628235Y969322D01*
X628128Y969400D01*
X628021Y969468D01*
X627933Y969537D01*
X627855Y969605D01*
X627796Y969663D01*
X627747Y969712D01*
X627709Y969751D01*
X627689Y969771D01*
X627679Y969780D01*
X627592Y969898D01*
X627513Y970024D01*
X627445Y970151D01*
X627387Y970288D01*
X627299Y970531D01*
X627231Y970766D01*
X627211Y970873D01*
X627201Y970970D01*
X627192Y971058D01*
X627182Y971136D01*
X627172Y971195D01*
Y971243D01*
Y971273D01*
Y971283D01*
X627182Y971448D01*
X627201Y971614D01*
X627231Y971760D01*
X627260Y971907D01*
X627309Y972033D01*
X627357Y972160D01*
X627406Y972268D01*
X627465Y972375D01*
X627523Y972463D01*
X627572Y972541D01*
X627621Y972609D01*
X627669Y972667D01*
X627699Y972716D01*
X627728Y972746D01*
X627747Y972765D01*
X627757Y972775D01*
X627865Y972882D01*
X627982Y972970D01*
X628099Y973048D01*
X628225Y973116D01*
X628343Y973175D01*
X628460Y973214D01*
X628684Y973292D01*
X628781Y973311D01*
X628879Y973331D01*
X628957Y973341D01*
X629035Y973350D01*
X629094Y973360D01*
X629171D01*
X629406Y973341D01*
X629630Y973292D01*
X629835Y973233D01*
X630010Y973155D01*
X630166Y973077D01*
X630225Y973048D01*
X630283Y973019D01*
X630322Y972989D01*
X630352Y972970D01*
X630371Y972960D01*
X630381Y972950D01*
X630030Y974677D01*
X627474D01*
Y975428D01*
X630654D01*
X631278Y972141D01*
D02*
G37*
G36*
X637540Y969117D02*
X636692D01*
Y971965D01*
X635599D01*
X635502Y971955D01*
X635424D01*
X635355Y971946D01*
X635307Y971936D01*
X635267D01*
X635248Y971926D01*
X635238D01*
X635092Y971877D01*
X634975Y971819D01*
X634926Y971790D01*
X634887Y971770D01*
X634868Y971760D01*
X634858Y971751D01*
X634780Y971702D01*
X634712Y971634D01*
X634565Y971497D01*
X634516Y971429D01*
X634468Y971370D01*
X634439Y971331D01*
X634429Y971321D01*
X634331Y971195D01*
X634234Y971058D01*
X634126Y970912D01*
X634029Y970766D01*
X633941Y970639D01*
X633873Y970541D01*
X633853Y970502D01*
X633834Y970473D01*
X633814Y970453D01*
Y970444D01*
X632966Y969117D01*
X631903D01*
X633014Y970853D01*
X633141Y971039D01*
X633268Y971204D01*
X633385Y971351D01*
X633492Y971478D01*
X633580Y971575D01*
X633648Y971653D01*
X633697Y971692D01*
X633717Y971712D01*
X633785Y971770D01*
X633873Y971829D01*
X634039Y971936D01*
X634107Y971975D01*
X634165Y972004D01*
X634204Y972024D01*
X634224Y972033D01*
X634058Y972063D01*
X633902Y972092D01*
X633756Y972131D01*
X633629Y972180D01*
X633502Y972229D01*
X633395Y972277D01*
X633288Y972326D01*
X633200Y972375D01*
X633122Y972424D01*
X633054Y972463D01*
X632995Y972511D01*
X632946Y972541D01*
X632917Y972580D01*
X632888Y972599D01*
X632868Y972619D01*
X632790Y972707D01*
X632722Y972804D01*
X632605Y972999D01*
X632527Y973184D01*
X632478Y973370D01*
X632439Y973526D01*
X632429Y973594D01*
Y973653D01*
X632420Y973701D01*
Y973740D01*
Y973760D01*
Y973770D01*
X632429Y973965D01*
X632458Y974140D01*
X632507Y974306D01*
X632556Y974452D01*
X632605Y974569D01*
X632654Y974657D01*
X632683Y974716D01*
X632693Y974735D01*
X632800Y974891D01*
X632917Y975018D01*
X633034Y975125D01*
X633151Y975203D01*
X633248Y975272D01*
X633327Y975321D01*
X633385Y975340D01*
X633395Y975350D01*
X633405D01*
X633492Y975379D01*
X633590Y975408D01*
X633795Y975447D01*
X634009Y975486D01*
X634214Y975506D01*
X634409Y975516D01*
X634487D01*
X634565Y975525D01*
X637540D01*
Y969117D01*
D02*
G37*
G36*
X591820Y1007110D02*
X590972D01*
Y1009958D01*
X589879D01*
X589782Y1009948D01*
X589704D01*
X589635Y1009938D01*
X589587Y1009929D01*
X589548D01*
X589528Y1009919D01*
X589518D01*
X589372Y1009870D01*
X589255Y1009812D01*
X589206Y1009782D01*
X589167Y1009763D01*
X589148Y1009753D01*
X589138Y1009743D01*
X589060Y1009695D01*
X588992Y1009626D01*
X588845Y1009490D01*
X588797Y1009421D01*
X588748Y1009363D01*
X588718Y1009324D01*
X588709Y1009314D01*
X588611Y1009187D01*
X588514Y1009051D01*
X588406Y1008904D01*
X588309Y1008758D01*
X588221Y1008631D01*
X588153Y1008534D01*
X588133Y1008495D01*
X588114Y1008466D01*
X588094Y1008446D01*
Y1008436D01*
X587246Y1007110D01*
X586183D01*
X587295Y1008846D01*
X587421Y1009031D01*
X587548Y1009197D01*
X587665Y1009343D01*
X587772Y1009470D01*
X587860Y1009568D01*
X587928Y1009646D01*
X587977Y1009685D01*
X587997Y1009704D01*
X588065Y1009763D01*
X588153Y1009821D01*
X588319Y1009929D01*
X588387Y1009968D01*
X588445Y1009997D01*
X588484Y1010016D01*
X588504Y1010026D01*
X588338Y1010055D01*
X588182Y1010085D01*
X588036Y1010124D01*
X587909Y1010173D01*
X587782Y1010221D01*
X587675Y1010270D01*
X587568Y1010319D01*
X587480Y1010368D01*
X587402Y1010416D01*
X587333Y1010455D01*
X587275Y1010504D01*
X587226Y1010533D01*
X587197Y1010572D01*
X587168Y1010592D01*
X587148Y1010611D01*
X587070Y1010699D01*
X587002Y1010797D01*
X586885Y1010992D01*
X586807Y1011177D01*
X586758Y1011362D01*
X586719Y1011518D01*
X586709Y1011587D01*
Y1011645D01*
X586699Y1011694D01*
Y1011733D01*
Y1011753D01*
Y1011762D01*
X586709Y1011957D01*
X586739Y1012133D01*
X586787Y1012299D01*
X586836Y1012445D01*
X586885Y1012562D01*
X586934Y1012650D01*
X586963Y1012708D01*
X586973Y1012728D01*
X587080Y1012884D01*
X587197Y1013011D01*
X587314Y1013118D01*
X587431Y1013196D01*
X587528Y1013264D01*
X587607Y1013313D01*
X587665Y1013333D01*
X587675Y1013342D01*
X587685D01*
X587772Y1013372D01*
X587870Y1013401D01*
X588075Y1013440D01*
X588289Y1013479D01*
X588494Y1013499D01*
X588689Y1013508D01*
X588767D01*
X588845Y1013518D01*
X591820D01*
Y1007110D01*
D02*
G37*
G36*
X585958Y1009363D02*
Y1008641D01*
X583178D01*
Y1007110D01*
X582388D01*
Y1008641D01*
X581520D01*
Y1009363D01*
X582388D01*
Y1013508D01*
X583032D01*
X585958Y1009363D01*
D02*
G37*
G36*
X497991Y1065568D02*
X498098Y1065412D01*
X498215Y1065266D01*
X498332Y1065130D01*
X498440Y1065022D01*
X498527Y1064934D01*
X498586Y1064876D01*
X498596Y1064866D01*
X498605Y1064856D01*
X498791Y1064700D01*
X498986Y1064554D01*
X499181Y1064427D01*
X499356Y1064320D01*
X499512Y1064232D01*
X499581Y1064203D01*
X499639Y1064174D01*
X499678Y1064145D01*
X499717Y1064125D01*
X499737Y1064115D01*
X499747D01*
Y1063345D01*
X499610Y1063403D01*
X499464Y1063472D01*
X499327Y1063530D01*
X499200Y1063598D01*
X499093Y1063657D01*
X499005Y1063706D01*
X498947Y1063745D01*
X498937Y1063754D01*
X498927D01*
X498761Y1063852D01*
X498615Y1063959D01*
X498488Y1064047D01*
X498381Y1064135D01*
X498293Y1064203D01*
X498225Y1064252D01*
X498186Y1064291D01*
X498176Y1064301D01*
Y1059287D01*
X497386D01*
Y1065724D01*
X497903D01*
X497991Y1065568D01*
D02*
G37*
G36*
X504028Y1065783D02*
X504321Y1065744D01*
X504584Y1065676D01*
X504701Y1065647D01*
X504809Y1065608D01*
X504906Y1065568D01*
X505004Y1065539D01*
X505082Y1065500D01*
X505140Y1065471D01*
X505199Y1065451D01*
X505238Y1065432D01*
X505257Y1065412D01*
X505267D01*
X505511Y1065256D01*
X505735Y1065071D01*
X505921Y1064886D01*
X506067Y1064700D01*
X506194Y1064535D01*
X506242Y1064466D01*
X506282Y1064408D01*
X506311Y1064349D01*
X506330Y1064310D01*
X506350Y1064291D01*
Y1064281D01*
X506477Y1063998D01*
X506574Y1063696D01*
X506633Y1063403D01*
X506681Y1063130D01*
X506701Y1063003D01*
X506711Y1062896D01*
X506720Y1062789D01*
Y1062701D01*
X506730Y1062633D01*
Y1062584D01*
Y1062545D01*
Y1062535D01*
X506720Y1062194D01*
X506681Y1061882D01*
X506623Y1061589D01*
X506594Y1061452D01*
X506564Y1061335D01*
X506535Y1061218D01*
X506506Y1061121D01*
X506477Y1061033D01*
X506447Y1060955D01*
X506428Y1060897D01*
X506408Y1060857D01*
X506399Y1060828D01*
Y1060818D01*
X506262Y1060536D01*
X506096Y1060292D01*
X505940Y1060077D01*
X505774Y1059911D01*
X505638Y1059775D01*
X505521Y1059677D01*
X505472Y1059648D01*
X505443Y1059619D01*
X505423Y1059609D01*
X505413Y1059599D01*
X505287Y1059521D01*
X505150Y1059463D01*
X504877Y1059355D01*
X504594Y1059287D01*
X504321Y1059229D01*
X504204Y1059219D01*
X504087Y1059199D01*
X503989Y1059190D01*
X503902D01*
X503824Y1059180D01*
X503726D01*
X503541Y1059190D01*
X503365Y1059199D01*
X503043Y1059268D01*
X502897Y1059307D01*
X502751Y1059355D01*
X502624Y1059404D01*
X502507Y1059453D01*
X502399Y1059502D01*
X502312Y1059550D01*
X502234Y1059599D01*
X502165Y1059638D01*
X502107Y1059677D01*
X502068Y1059707D01*
X502048Y1059716D01*
X502039Y1059726D01*
X501912Y1059833D01*
X501795Y1059950D01*
X501600Y1060204D01*
X501424Y1060467D01*
X501297Y1060731D01*
X501239Y1060848D01*
X501200Y1060955D01*
X501161Y1061062D01*
X501122Y1061140D01*
X501102Y1061218D01*
X501083Y1061267D01*
X501073Y1061306D01*
Y1061316D01*
X501922Y1061531D01*
X502000Y1061248D01*
X502097Y1060994D01*
X502214Y1060789D01*
X502322Y1060614D01*
X502429Y1060487D01*
X502517Y1060389D01*
X502575Y1060331D01*
X502585Y1060321D01*
X502595Y1060311D01*
X502790Y1060175D01*
X502985Y1060077D01*
X503190Y1059999D01*
X503375Y1059950D01*
X503541Y1059921D01*
X503619Y1059911D01*
X503677D01*
X503726Y1059902D01*
X503794D01*
X504009Y1059911D01*
X504214Y1059950D01*
X504399Y1059999D01*
X504555Y1060048D01*
X504692Y1060107D01*
X504799Y1060145D01*
X504838Y1060165D01*
X504867Y1060184D01*
X504877Y1060194D01*
X504887D01*
X505062Y1060321D01*
X505209Y1060467D01*
X505335Y1060614D01*
X505443Y1060770D01*
X505521Y1060897D01*
X505569Y1061013D01*
X505589Y1061053D01*
X505608Y1061082D01*
X505618Y1061101D01*
Y1061111D01*
X505696Y1061345D01*
X505755Y1061589D01*
X505794Y1061833D01*
X505823Y1062057D01*
X505833Y1062155D01*
X505843Y1062243D01*
Y1062330D01*
X505852Y1062399D01*
Y1062457D01*
Y1062496D01*
Y1062525D01*
Y1062535D01*
X505843Y1062769D01*
X505823Y1062993D01*
X505794Y1063198D01*
X505755Y1063384D01*
X505716Y1063540D01*
X505706Y1063608D01*
X505686Y1063657D01*
X505677Y1063706D01*
X505667Y1063735D01*
X505657Y1063754D01*
Y1063764D01*
X505569Y1063979D01*
X505462Y1064174D01*
X505345Y1064330D01*
X505238Y1064466D01*
X505131Y1064574D01*
X505043Y1064652D01*
X504984Y1064700D01*
X504975Y1064720D01*
X504965D01*
X504770Y1064837D01*
X504565Y1064925D01*
X504360Y1064993D01*
X504165Y1065032D01*
X503989Y1065061D01*
X503921Y1065071D01*
X503853D01*
X503804Y1065081D01*
X503736D01*
X503502Y1065071D01*
X503297Y1065032D01*
X503111Y1064983D01*
X502965Y1064925D01*
X502838Y1064856D01*
X502751Y1064808D01*
X502692Y1064769D01*
X502673Y1064759D01*
X502517Y1064622D01*
X502390Y1064466D01*
X502273Y1064291D01*
X502185Y1064125D01*
X502117Y1063979D01*
X502087Y1063910D01*
X502058Y1063852D01*
X502039Y1063803D01*
X502029Y1063764D01*
X502019Y1063745D01*
Y1063735D01*
X501180Y1063930D01*
X501297Y1064242D01*
X501366Y1064388D01*
X501434Y1064515D01*
X501512Y1064642D01*
X501590Y1064759D01*
X501658Y1064856D01*
X501736Y1064954D01*
X501805Y1065032D01*
X501873Y1065100D01*
X501941Y1065169D01*
X501990Y1065217D01*
X502039Y1065256D01*
X502068Y1065286D01*
X502087Y1065295D01*
X502097Y1065305D01*
X502224Y1065393D01*
X502351Y1065471D01*
X502487Y1065539D01*
X502624Y1065598D01*
X502897Y1065686D01*
X503151Y1065744D01*
X503268Y1065764D01*
X503375Y1065773D01*
X503472Y1065783D01*
X503550Y1065793D01*
X503619Y1065803D01*
X503716D01*
X504028Y1065783D01*
D02*
G37*
G36*
X493543Y1065705D02*
X493768Y1065666D01*
X493972Y1065608D01*
X494138Y1065539D01*
X494275Y1065461D01*
X494372Y1065403D01*
X494411Y1065383D01*
X494441Y1065364D01*
X494450Y1065344D01*
X494460D01*
X494626Y1065188D01*
X494762Y1065022D01*
X494879Y1064847D01*
X494977Y1064671D01*
X495055Y1064515D01*
X495084Y1064447D01*
X495104Y1064388D01*
X495123Y1064340D01*
X495143Y1064301D01*
X495153Y1064281D01*
Y1064271D01*
X495192Y1064135D01*
X495231Y1063998D01*
X495279Y1063696D01*
X495318Y1063393D01*
X495348Y1063101D01*
X495357Y1062964D01*
X495367Y1062838D01*
Y1062730D01*
X495377Y1062633D01*
Y1062555D01*
Y1062496D01*
Y1062457D01*
Y1062447D01*
X495367Y1062125D01*
X495348Y1061813D01*
X495318Y1061540D01*
X495279Y1061277D01*
X495231Y1061043D01*
X495182Y1060828D01*
X495123Y1060633D01*
X495065Y1060467D01*
X495006Y1060311D01*
X494948Y1060184D01*
X494899Y1060077D01*
X494850Y1059989D01*
X494811Y1059921D01*
X494782Y1059872D01*
X494762Y1059843D01*
X494753Y1059833D01*
X494645Y1059716D01*
X494538Y1059619D01*
X494421Y1059531D01*
X494294Y1059453D01*
X494177Y1059395D01*
X494050Y1059336D01*
X493816Y1059258D01*
X493709Y1059238D01*
X493611Y1059219D01*
X493524Y1059199D01*
X493446Y1059190D01*
X493377Y1059180D01*
X493290D01*
X493036Y1059199D01*
X492812Y1059238D01*
X492617Y1059297D01*
X492441Y1059365D01*
X492314Y1059434D01*
X492207Y1059492D01*
X492178Y1059521D01*
X492149Y1059531D01*
X492139Y1059550D01*
X492129D01*
X491963Y1059707D01*
X491827Y1059882D01*
X491710Y1060058D01*
X491612Y1060233D01*
X491534Y1060389D01*
X491505Y1060448D01*
X491475Y1060506D01*
X491456Y1060555D01*
X491446Y1060594D01*
X491437Y1060614D01*
Y1060623D01*
X491398Y1060760D01*
X491358Y1060897D01*
X491300Y1061199D01*
X491261Y1061501D01*
X491232Y1061794D01*
X491222Y1061930D01*
X491212Y1062057D01*
Y1062165D01*
X491202Y1062262D01*
Y1062340D01*
Y1062399D01*
Y1062438D01*
Y1062447D01*
X491212Y1062789D01*
Y1062935D01*
X491222Y1063081D01*
X491232Y1063218D01*
X491251Y1063345D01*
X491261Y1063452D01*
X491271Y1063559D01*
X491290Y1063647D01*
X491300Y1063735D01*
X491310Y1063803D01*
X491329Y1063852D01*
X491339Y1063901D01*
Y1063930D01*
X491349Y1063949D01*
Y1063959D01*
X491407Y1064164D01*
X491475Y1064349D01*
X491544Y1064515D01*
X491602Y1064652D01*
X491661Y1064759D01*
X491710Y1064847D01*
X491739Y1064895D01*
X491749Y1064915D01*
X491846Y1065051D01*
X491953Y1065169D01*
X492061Y1065276D01*
X492158Y1065364D01*
X492256Y1065422D01*
X492324Y1065471D01*
X492373Y1065500D01*
X492392Y1065510D01*
X492539Y1065578D01*
X492695Y1065637D01*
X492851Y1065676D01*
X492987Y1065695D01*
X493104Y1065715D01*
X493202Y1065724D01*
X493290D01*
X493543Y1065705D01*
D02*
G37*
G36*
X341314Y998623D02*
X341519Y998584D01*
X341694Y998535D01*
X341840Y998477D01*
X341957Y998408D01*
X342045Y998360D01*
X342104Y998321D01*
X342123Y998311D01*
X342270Y998184D01*
X342387Y998038D01*
X342484Y997891D01*
X342552Y997755D01*
X342611Y997628D01*
X342640Y997531D01*
X342660Y997492D01*
Y997462D01*
X342669Y997443D01*
Y997433D01*
X342747Y997589D01*
X342845Y997726D01*
X342933Y997833D01*
X343021Y997931D01*
X343099Y997999D01*
X343157Y998057D01*
X343196Y998086D01*
X343216Y998096D01*
X343342Y998174D01*
X343479Y998223D01*
X343606Y998262D01*
X343723Y998291D01*
X343820Y998311D01*
X343898Y998321D01*
X343947D01*
X343967D01*
X344132Y998311D01*
X344279Y998282D01*
X344415Y998243D01*
X344542Y998204D01*
X344640Y998165D01*
X344718Y998126D01*
X344767Y998096D01*
X344786Y998086D01*
X344922Y997989D01*
X345049Y997882D01*
X345157Y997765D01*
X345244Y997657D01*
X345313Y997560D01*
X345361Y997482D01*
X345391Y997423D01*
X345401Y997413D01*
Y997404D01*
X345479Y997238D01*
X345537Y997072D01*
X345576Y996906D01*
X345605Y996760D01*
X345625Y996633D01*
X345634Y996536D01*
Y996311D01*
X345615Y996175D01*
X345566Y995931D01*
X345498Y995707D01*
X345420Y995521D01*
X345332Y995375D01*
X345293Y995316D01*
X345264Y995268D01*
X345235Y995219D01*
X345215Y995190D01*
X345205Y995180D01*
X345196Y995170D01*
X345020Y994995D01*
X344825Y994858D01*
X344620Y994741D01*
X344425Y994663D01*
X344249Y994595D01*
X344171Y994575D01*
X344103Y994556D01*
X344054Y994546D01*
X344015Y994536D01*
X343986Y994527D01*
X343976D01*
X343840Y995316D01*
X344045Y995356D01*
X344220Y995414D01*
X344367Y995473D01*
X344484Y995541D01*
X344581Y995599D01*
X344649Y995648D01*
X344688Y995687D01*
X344698Y995697D01*
X344796Y995824D01*
X344864Y995950D01*
X344922Y996077D01*
X344952Y996204D01*
X344971Y996302D01*
X344991Y996389D01*
Y996467D01*
X344981Y996633D01*
X344942Y996779D01*
X344903Y996906D01*
X344845Y997014D01*
X344796Y997101D01*
X344747Y997170D01*
X344708Y997209D01*
X344698Y997218D01*
X344591Y997316D01*
X344464Y997384D01*
X344347Y997443D01*
X344240Y997472D01*
X344132Y997492D01*
X344054Y997511D01*
X344006D01*
X343996D01*
X343986D01*
X343791Y997492D01*
X343625Y997443D01*
X343489Y997384D01*
X343382Y997306D01*
X343294Y997228D01*
X343225Y997170D01*
X343186Y997121D01*
X343177Y997101D01*
X343089Y996945D01*
X343030Y996789D01*
X342982Y996643D01*
X342952Y996506D01*
X342933Y996380D01*
X342923Y996292D01*
Y996165D01*
X342933Y996126D01*
Y996077D01*
X342240Y995990D01*
X342270Y996106D01*
X342289Y996214D01*
X342299Y996311D01*
X342309Y996389D01*
X342318Y996458D01*
Y996545D01*
X342299Y996740D01*
X342260Y996906D01*
X342211Y997062D01*
X342143Y997189D01*
X342075Y997297D01*
X342026Y997374D01*
X341987Y997413D01*
X341967Y997433D01*
X341831Y997550D01*
X341684Y997638D01*
X341528Y997706D01*
X341392Y997745D01*
X341265Y997774D01*
X341167Y997784D01*
X341128Y997794D01*
X341099D01*
X341089D01*
X341080D01*
X340875Y997774D01*
X340690Y997735D01*
X340524Y997677D01*
X340387Y997609D01*
X340270Y997531D01*
X340192Y997472D01*
X340143Y997433D01*
X340124Y997413D01*
X339997Y997267D01*
X339899Y997111D01*
X339841Y996955D01*
X339792Y996799D01*
X339763Y996672D01*
X339753Y996575D01*
X339743Y996536D01*
Y996477D01*
X339753Y996311D01*
X339792Y996155D01*
X339841Y996019D01*
X339890Y995911D01*
X339948Y995814D01*
X339987Y995746D01*
X340026Y995707D01*
X340036Y995687D01*
X340163Y995580D01*
X340309Y995482D01*
X340475Y995404D01*
X340631Y995346D01*
X340777Y995297D01*
X340894Y995268D01*
X340933Y995248D01*
X340972D01*
X340992Y995238D01*
X341002D01*
X340894Y994448D01*
X340748Y994468D01*
X340611Y994497D01*
X340358Y994585D01*
X340134Y994682D01*
X339938Y994800D01*
X339860Y994848D01*
X339792Y994907D01*
X339734Y994956D01*
X339675Y994995D01*
X339636Y995034D01*
X339607Y995063D01*
X339597Y995073D01*
X339587Y995082D01*
X339500Y995190D01*
X339422Y995307D01*
X339353Y995414D01*
X339305Y995531D01*
X339207Y995765D01*
X339148Y995990D01*
X339129Y996087D01*
X339119Y996185D01*
X339109Y996263D01*
X339100Y996341D01*
X339090Y996399D01*
Y996477D01*
X339100Y996643D01*
X339119Y996809D01*
X339139Y996965D01*
X339178Y997111D01*
X339226Y997248D01*
X339275Y997374D01*
X339324Y997492D01*
X339383Y997599D01*
X339431Y997687D01*
X339480Y997774D01*
X339529Y997852D01*
X339578Y997911D01*
X339617Y997960D01*
X339636Y997989D01*
X339656Y998008D01*
X339665Y998018D01*
X339782Y998126D01*
X339899Y998223D01*
X340017Y998301D01*
X340134Y998369D01*
X340251Y998438D01*
X340377Y998486D01*
X340602Y998555D01*
X340699Y998584D01*
X340797Y998604D01*
X340875Y998613D01*
X340953Y998623D01*
X341011Y998633D01*
X341050D01*
X341080D01*
X341089D01*
X341314Y998623D01*
D02*
G37*
G36*
X341441Y992868D02*
X341158Y992790D01*
X340904Y992693D01*
X340699Y992576D01*
X340524Y992468D01*
X340397Y992361D01*
X340299Y992273D01*
X340241Y992215D01*
X340231Y992205D01*
X340221Y992195D01*
X340085Y992000D01*
X339987Y991805D01*
X339909Y991600D01*
X339860Y991415D01*
X339831Y991249D01*
X339821Y991171D01*
Y991113D01*
X339812Y991064D01*
Y990996D01*
X339821Y990781D01*
X339860Y990576D01*
X339909Y990391D01*
X339958Y990235D01*
X340017Y990098D01*
X340056Y989991D01*
X340075Y989952D01*
X340094Y989923D01*
X340104Y989913D01*
Y989903D01*
X340231Y989728D01*
X340377Y989581D01*
X340524Y989455D01*
X340680Y989347D01*
X340807Y989269D01*
X340924Y989221D01*
X340963Y989201D01*
X340992Y989182D01*
X341011Y989172D01*
X341021D01*
X341255Y989094D01*
X341499Y989035D01*
X341743Y988996D01*
X341967Y988967D01*
X342065Y988957D01*
X342152Y988947D01*
X342240D01*
X342309Y988938D01*
X342367D01*
X342406D01*
X342435D01*
X342445D01*
X342679Y988947D01*
X342904Y988967D01*
X343108Y988996D01*
X343294Y989035D01*
X343450Y989074D01*
X343518Y989084D01*
X343567Y989103D01*
X343615Y989113D01*
X343645Y989123D01*
X343664Y989133D01*
X343674D01*
X343889Y989221D01*
X344084Y989328D01*
X344240Y989445D01*
X344376Y989552D01*
X344484Y989659D01*
X344562Y989747D01*
X344610Y989806D01*
X344630Y989816D01*
Y989825D01*
X344747Y990020D01*
X344835Y990225D01*
X344903Y990430D01*
X344942Y990625D01*
X344971Y990801D01*
X344981Y990869D01*
Y990937D01*
X344991Y990986D01*
Y991054D01*
X344981Y991288D01*
X344942Y991493D01*
X344893Y991678D01*
X344835Y991825D01*
X344767Y991952D01*
X344718Y992039D01*
X344679Y992098D01*
X344669Y992117D01*
X344532Y992273D01*
X344376Y992400D01*
X344201Y992517D01*
X344035Y992605D01*
X343889Y992673D01*
X343820Y992702D01*
X343762Y992732D01*
X343713Y992751D01*
X343674Y992761D01*
X343655Y992771D01*
X343645D01*
X343840Y993610D01*
X344152Y993493D01*
X344298Y993424D01*
X344425Y993356D01*
X344552Y993278D01*
X344669Y993200D01*
X344767Y993132D01*
X344864Y993054D01*
X344942Y992985D01*
X345010Y992917D01*
X345079Y992849D01*
X345127Y992800D01*
X345166Y992751D01*
X345196Y992722D01*
X345205Y992702D01*
X345215Y992693D01*
X345303Y992566D01*
X345381Y992439D01*
X345449Y992303D01*
X345508Y992166D01*
X345596Y991893D01*
X345654Y991639D01*
X345674Y991522D01*
X345683Y991415D01*
X345693Y991318D01*
X345703Y991239D01*
X345713Y991171D01*
Y991074D01*
X345693Y990762D01*
X345654Y990469D01*
X345586Y990206D01*
X345556Y990089D01*
X345518Y989981D01*
X345479Y989884D01*
X345449Y989786D01*
X345410Y989708D01*
X345381Y989650D01*
X345361Y989591D01*
X345342Y989552D01*
X345322Y989533D01*
Y989523D01*
X345166Y989279D01*
X344981Y989055D01*
X344796Y988869D01*
X344610Y988723D01*
X344445Y988596D01*
X344376Y988548D01*
X344318Y988509D01*
X344259Y988479D01*
X344220Y988460D01*
X344201Y988440D01*
X344191D01*
X343908Y988313D01*
X343606Y988216D01*
X343313Y988157D01*
X343040Y988109D01*
X342913Y988089D01*
X342806Y988079D01*
X342699Y988070D01*
X342611D01*
X342543Y988060D01*
X342494D01*
X342455D01*
X342445D01*
X342104Y988070D01*
X341792Y988109D01*
X341499Y988167D01*
X341362Y988196D01*
X341245Y988226D01*
X341128Y988255D01*
X341031Y988284D01*
X340943Y988313D01*
X340865Y988343D01*
X340807Y988362D01*
X340768Y988382D01*
X340738Y988391D01*
X340728D01*
X340446Y988528D01*
X340202Y988694D01*
X339987Y988850D01*
X339821Y989016D01*
X339685Y989152D01*
X339587Y989269D01*
X339558Y989318D01*
X339529Y989347D01*
X339519Y989367D01*
X339509Y989377D01*
X339431Y989503D01*
X339373Y989640D01*
X339265Y989913D01*
X339197Y990196D01*
X339139Y990469D01*
X339129Y990586D01*
X339109Y990703D01*
X339100Y990801D01*
Y990888D01*
X339090Y990966D01*
Y991064D01*
X339100Y991249D01*
X339109Y991425D01*
X339178Y991747D01*
X339217Y991893D01*
X339265Y992039D01*
X339314Y992166D01*
X339363Y992283D01*
X339412Y992390D01*
X339460Y992478D01*
X339509Y992556D01*
X339548Y992625D01*
X339587Y992683D01*
X339617Y992722D01*
X339626Y992742D01*
X339636Y992751D01*
X339743Y992878D01*
X339860Y992995D01*
X340114Y993190D01*
X340377Y993366D01*
X340641Y993493D01*
X340758Y993551D01*
X340865Y993590D01*
X340972Y993629D01*
X341050Y993668D01*
X341128Y993688D01*
X341177Y993707D01*
X341216Y993717D01*
X341226D01*
X341441Y992868D01*
D02*
G37*
G36*
X439507Y992823D02*
X439351Y992736D01*
X439195Y992628D01*
X439049Y992511D01*
X438912Y992394D01*
X438805Y992287D01*
X438717Y992199D01*
X438659Y992141D01*
X438649Y992131D01*
X438639Y992121D01*
X438483Y991936D01*
X438337Y991741D01*
X438210Y991545D01*
X438103Y991370D01*
X438015Y991214D01*
X437986Y991146D01*
X437956Y991087D01*
X437927Y991048D01*
X437908Y991009D01*
X437898Y990990D01*
Y990980D01*
X437127D01*
X437186Y991116D01*
X437254Y991263D01*
X437313Y991399D01*
X437381Y991526D01*
X437439Y991633D01*
X437488Y991721D01*
X437527Y991780D01*
X437537Y991789D01*
Y991799D01*
X437635Y991965D01*
X437742Y992111D01*
X437830Y992238D01*
X437917Y992345D01*
X437986Y992433D01*
X438035Y992501D01*
X438074Y992540D01*
X438083Y992550D01*
X433070D01*
Y993340D01*
X439507D01*
Y992823D01*
D02*
G37*
G36*
X434806Y988775D02*
X434991Y988649D01*
X435157Y988522D01*
X435303Y988405D01*
X435430Y988298D01*
X435528Y988210D01*
X435606Y988141D01*
X435645Y988093D01*
X435664Y988073D01*
X435723Y988005D01*
X435781Y987917D01*
X435889Y987751D01*
X435928Y987683D01*
X435957Y987625D01*
X435976Y987586D01*
X435986Y987566D01*
X436016Y987732D01*
X436045Y987888D01*
X436084Y988034D01*
X436133Y988161D01*
X436181Y988288D01*
X436230Y988395D01*
X436279Y988502D01*
X436328Y988590D01*
X436376Y988668D01*
X436415Y988736D01*
X436464Y988795D01*
X436493Y988844D01*
X436532Y988873D01*
X436552Y988902D01*
X436571Y988922D01*
X436659Y989000D01*
X436757Y989068D01*
X436952Y989185D01*
X437137Y989263D01*
X437322Y989312D01*
X437478Y989351D01*
X437547Y989361D01*
X437605D01*
X437654Y989370D01*
X437693D01*
X437713D01*
X437722D01*
X437917Y989361D01*
X438093Y989331D01*
X438259Y989283D01*
X438405Y989234D01*
X438522Y989185D01*
X438610Y989136D01*
X438668Y989107D01*
X438688Y989097D01*
X438844Y988990D01*
X438971Y988873D01*
X439078Y988756D01*
X439156Y988639D01*
X439224Y988541D01*
X439273Y988463D01*
X439293Y988405D01*
X439302Y988395D01*
Y988385D01*
X439332Y988298D01*
X439361Y988200D01*
X439400Y987995D01*
X439439Y987781D01*
X439459Y987576D01*
X439468Y987381D01*
Y987303D01*
X439478Y987225D01*
Y984250D01*
X433070D01*
Y985098D01*
X435918D01*
Y986191D01*
X435908Y986288D01*
Y986366D01*
X435898Y986435D01*
X435889Y986483D01*
Y986522D01*
X435879Y986542D01*
Y986552D01*
X435830Y986698D01*
X435772Y986815D01*
X435742Y986864D01*
X435723Y986903D01*
X435713Y986922D01*
X435703Y986932D01*
X435655Y987010D01*
X435586Y987078D01*
X435450Y987225D01*
X435382Y987273D01*
X435323Y987322D01*
X435284Y987352D01*
X435274Y987361D01*
X435147Y987459D01*
X435011Y987556D01*
X434865Y987664D01*
X434718Y987761D01*
X434591Y987849D01*
X434494Y987917D01*
X434455Y987937D01*
X434426Y987956D01*
X434406Y987976D01*
X434396D01*
X433070Y988824D01*
Y989887D01*
X434806Y988775D01*
D02*
G37*
G36*
X369570Y984672D02*
X366722D01*
Y983579D01*
X366732Y983482D01*
Y983404D01*
X366741Y983335D01*
X366751Y983287D01*
Y983248D01*
X366761Y983228D01*
Y983218D01*
X366810Y983072D01*
X366868Y982955D01*
X366898Y982906D01*
X366917Y982867D01*
X366927Y982848D01*
X366937Y982838D01*
X366985Y982760D01*
X367054Y982692D01*
X367190Y982545D01*
X367258Y982496D01*
X367317Y982448D01*
X367356Y982419D01*
X367366Y982409D01*
X367493Y982311D01*
X367629Y982214D01*
X367775Y982106D01*
X367922Y982009D01*
X368049Y981921D01*
X368146Y981853D01*
X368185Y981833D01*
X368214Y981814D01*
X368234Y981794D01*
X368244D01*
X369570Y980946D01*
Y979883D01*
X367834Y980994D01*
X367649Y981121D01*
X367483Y981248D01*
X367337Y981365D01*
X367210Y981472D01*
X367112Y981560D01*
X367034Y981628D01*
X366995Y981677D01*
X366976Y981697D01*
X366917Y981765D01*
X366859Y981853D01*
X366751Y982019D01*
X366712Y982087D01*
X366683Y982145D01*
X366664Y982184D01*
X366654Y982204D01*
X366624Y982038D01*
X366595Y981882D01*
X366556Y981736D01*
X366507Y981609D01*
X366459Y981482D01*
X366410Y981375D01*
X366361Y981268D01*
X366312Y981180D01*
X366264Y981102D01*
X366225Y981033D01*
X366176Y980975D01*
X366147Y980926D01*
X366107Y980897D01*
X366088Y980868D01*
X366068Y980848D01*
X365981Y980770D01*
X365883Y980702D01*
X365688Y980585D01*
X365503Y980507D01*
X365317Y980458D01*
X365161Y980419D01*
X365093Y980409D01*
X365035D01*
X364986Y980399D01*
X364947D01*
X364927D01*
X364918D01*
X364723Y980409D01*
X364547Y980439D01*
X364381Y980487D01*
X364235Y980536D01*
X364118Y980585D01*
X364030Y980634D01*
X363971Y980663D01*
X363952Y980673D01*
X363796Y980780D01*
X363669Y980897D01*
X363562Y981014D01*
X363484Y981131D01*
X363416Y981228D01*
X363367Y981307D01*
X363347Y981365D01*
X363338Y981375D01*
Y981385D01*
X363308Y981472D01*
X363279Y981570D01*
X363240Y981775D01*
X363201Y981989D01*
X363181Y982194D01*
X363172Y982389D01*
Y982467D01*
X363162Y982545D01*
Y985520D01*
X369570D01*
Y984672D01*
D02*
G37*
G36*
Y975259D02*
X368819D01*
Y978410D01*
X368663Y978303D01*
X368536Y978195D01*
X368478Y978146D01*
X368439Y978107D01*
X368409Y978088D01*
X368400Y978078D01*
X368351Y978029D01*
X368302Y977981D01*
X368185Y977854D01*
X368049Y977698D01*
X367912Y977551D01*
X367785Y977405D01*
X367688Y977288D01*
X367649Y977239D01*
X367619Y977200D01*
X367600Y977181D01*
X367590Y977171D01*
X367453Y977015D01*
X367337Y976878D01*
X367220Y976742D01*
X367112Y976625D01*
X367005Y976518D01*
X366917Y976420D01*
X366829Y976322D01*
X366751Y976245D01*
X366683Y976176D01*
X366624Y976118D01*
X366537Y976030D01*
X366478Y975981D01*
X366459Y975962D01*
X366303Y975835D01*
X366166Y975718D01*
X366030Y975630D01*
X365913Y975562D01*
X365815Y975503D01*
X365747Y975464D01*
X365698Y975445D01*
X365678Y975435D01*
X365542Y975376D01*
X365405Y975337D01*
X365279Y975308D01*
X365161Y975289D01*
X365064Y975279D01*
X364986Y975269D01*
X364937D01*
X364918D01*
X364781Y975279D01*
X364645Y975289D01*
X364401Y975357D01*
X364186Y975445D01*
X364001Y975542D01*
X363854Y975640D01*
X363796Y975688D01*
X363737Y975727D01*
X363698Y975767D01*
X363669Y975796D01*
X363659Y975806D01*
X363650Y975815D01*
X363562Y975923D01*
X363474Y976030D01*
X363406Y976147D01*
X363347Y976274D01*
X363260Y976518D01*
X363201Y976752D01*
X363172Y976859D01*
X363162Y976956D01*
X363152Y977044D01*
X363143Y977122D01*
X363133Y977191D01*
Y977278D01*
X363143Y977444D01*
X363152Y977600D01*
X363211Y977893D01*
X363240Y978020D01*
X363279Y978146D01*
X363328Y978254D01*
X363367Y978351D01*
X363416Y978439D01*
X363455Y978517D01*
X363503Y978585D01*
X363533Y978644D01*
X363562Y978683D01*
X363591Y978712D01*
X363601Y978732D01*
X363611Y978741D01*
X363708Y978839D01*
X363806Y978917D01*
X364030Y979063D01*
X364254Y979171D01*
X364479Y979249D01*
X364674Y979307D01*
X364762Y979317D01*
X364840Y979336D01*
X364898Y979346D01*
X364947Y979356D01*
X364976D01*
X364986D01*
X365074Y978546D01*
X364859Y978527D01*
X364674Y978488D01*
X364518Y978439D01*
X364381Y978371D01*
X364274Y978312D01*
X364196Y978254D01*
X364157Y978215D01*
X364137Y978205D01*
X364020Y978068D01*
X363932Y977922D01*
X363874Y977766D01*
X363825Y977620D01*
X363806Y977493D01*
X363796Y977395D01*
X363786Y977356D01*
Y977298D01*
X363796Y977103D01*
X363835Y976927D01*
X363884Y976781D01*
X363942Y976654D01*
X364011Y976557D01*
X364059Y976479D01*
X364098Y976440D01*
X364108Y976420D01*
X364235Y976303D01*
X364371Y976225D01*
X364498Y976166D01*
X364625Y976118D01*
X364732Y976098D01*
X364820Y976088D01*
X364879Y976079D01*
X364888D01*
X364898D01*
X365064Y976098D01*
X365239Y976137D01*
X365396Y976196D01*
X365542Y976264D01*
X365669Y976332D01*
X365766Y976391D01*
X365805Y976410D01*
X365834Y976430D01*
X365844Y976449D01*
X365854D01*
X365951Y976527D01*
X366059Y976615D01*
X366166Y976713D01*
X366273Y976830D01*
X366498Y977064D01*
X366722Y977298D01*
X366907Y977512D01*
X366995Y977610D01*
X367063Y977698D01*
X367132Y977766D01*
X367171Y977815D01*
X367200Y977854D01*
X367210Y977864D01*
X367415Y978098D01*
X367600Y978312D01*
X367766Y978488D01*
X367902Y978634D01*
X368019Y978751D01*
X368107Y978829D01*
X368166Y978878D01*
X368175Y978897D01*
X368185D01*
X368341Y979024D01*
X368487Y979122D01*
X368634Y979219D01*
X368760Y979288D01*
X368878Y979346D01*
X368956Y979385D01*
X369014Y979405D01*
X369024Y979414D01*
X369034D01*
X369131Y979444D01*
X369229Y979473D01*
X369316Y979483D01*
X369394Y979492D01*
X369463Y979502D01*
X369521D01*
X369560D01*
X369570D01*
Y975259D01*
D02*
G37*
G36*
X380379Y1132830D02*
X380555Y1132821D01*
X380877Y1132752D01*
X381023Y1132713D01*
X381169Y1132664D01*
X381296Y1132616D01*
X381413Y1132567D01*
X381520Y1132518D01*
X381608Y1132469D01*
X381686Y1132421D01*
X381754Y1132382D01*
X381813Y1132343D01*
X381852Y1132313D01*
X381872Y1132304D01*
X381881Y1132294D01*
X382008Y1132187D01*
X382125Y1132069D01*
X382320Y1131816D01*
X382496Y1131553D01*
X382623Y1131289D01*
X382681Y1131172D01*
X382720Y1131065D01*
X382759Y1130958D01*
X382798Y1130880D01*
X382818Y1130802D01*
X382837Y1130753D01*
X382847Y1130714D01*
Y1130704D01*
X381998Y1130490D01*
X381920Y1130772D01*
X381823Y1131026D01*
X381706Y1131231D01*
X381598Y1131406D01*
X381491Y1131533D01*
X381403Y1131631D01*
X381345Y1131689D01*
X381335Y1131699D01*
X381325Y1131709D01*
X381130Y1131845D01*
X380935Y1131943D01*
X380730Y1132021D01*
X380545Y1132069D01*
X380379Y1132099D01*
X380301Y1132109D01*
X380243D01*
X380194Y1132118D01*
X380126D01*
X379911Y1132109D01*
X379706Y1132069D01*
X379521Y1132021D01*
X379365Y1131972D01*
X379228Y1131914D01*
X379121Y1131874D01*
X379082Y1131855D01*
X379053Y1131835D01*
X379043Y1131826D01*
X379033D01*
X378858Y1131699D01*
X378711Y1131553D01*
X378585Y1131406D01*
X378477Y1131250D01*
X378399Y1131123D01*
X378350Y1131006D01*
X378331Y1130967D01*
X378312Y1130938D01*
X378302Y1130919D01*
Y1130909D01*
X378224Y1130675D01*
X378165Y1130431D01*
X378126Y1130187D01*
X378097Y1129963D01*
X378087Y1129865D01*
X378077Y1129777D01*
Y1129690D01*
X378068Y1129621D01*
Y1129563D01*
Y1129524D01*
Y1129495D01*
Y1129485D01*
X378077Y1129251D01*
X378097Y1129026D01*
X378126Y1128822D01*
X378165Y1128636D01*
X378204Y1128480D01*
X378214Y1128412D01*
X378233Y1128363D01*
X378243Y1128314D01*
X378253Y1128285D01*
X378263Y1128266D01*
Y1128256D01*
X378350Y1128041D01*
X378458Y1127846D01*
X378575Y1127690D01*
X378682Y1127554D01*
X378789Y1127446D01*
X378877Y1127368D01*
X378936Y1127319D01*
X378946Y1127300D01*
X378955D01*
X379150Y1127183D01*
X379355Y1127095D01*
X379560Y1127027D01*
X379755Y1126988D01*
X379931Y1126959D01*
X379999Y1126949D01*
X380067D01*
X380116Y1126939D01*
X380184D01*
X380418Y1126949D01*
X380623Y1126988D01*
X380808Y1127037D01*
X380955Y1127095D01*
X381082Y1127163D01*
X381169Y1127212D01*
X381228Y1127251D01*
X381247Y1127261D01*
X381403Y1127398D01*
X381530Y1127554D01*
X381647Y1127729D01*
X381735Y1127895D01*
X381803Y1128041D01*
X381833Y1128110D01*
X381862Y1128168D01*
X381881Y1128217D01*
X381891Y1128256D01*
X381901Y1128275D01*
Y1128285D01*
X382740Y1128090D01*
X382623Y1127778D01*
X382554Y1127632D01*
X382486Y1127505D01*
X382408Y1127378D01*
X382330Y1127261D01*
X382262Y1127163D01*
X382184Y1127066D01*
X382115Y1126988D01*
X382047Y1126920D01*
X381979Y1126851D01*
X381930Y1126803D01*
X381881Y1126764D01*
X381852Y1126734D01*
X381833Y1126725D01*
X381823Y1126715D01*
X381696Y1126627D01*
X381569Y1126549D01*
X381433Y1126481D01*
X381296Y1126422D01*
X381023Y1126334D01*
X380769Y1126276D01*
X380652Y1126256D01*
X380545Y1126247D01*
X380448Y1126237D01*
X380369Y1126227D01*
X380301Y1126217D01*
X380204D01*
X379892Y1126237D01*
X379599Y1126276D01*
X379336Y1126344D01*
X379219Y1126373D01*
X379111Y1126413D01*
X379014Y1126451D01*
X378916Y1126481D01*
X378838Y1126520D01*
X378780Y1126549D01*
X378721Y1126569D01*
X378682Y1126588D01*
X378663Y1126608D01*
X378653D01*
X378409Y1126764D01*
X378185Y1126949D01*
X377999Y1127134D01*
X377853Y1127319D01*
X377726Y1127485D01*
X377677Y1127554D01*
X377639Y1127612D01*
X377609Y1127671D01*
X377590Y1127710D01*
X377570Y1127729D01*
Y1127739D01*
X377443Y1128022D01*
X377346Y1128324D01*
X377287Y1128617D01*
X377239Y1128890D01*
X377219Y1129017D01*
X377209Y1129124D01*
X377200Y1129231D01*
Y1129319D01*
X377190Y1129387D01*
Y1129436D01*
Y1129475D01*
Y1129485D01*
X377200Y1129826D01*
X377239Y1130138D01*
X377297Y1130431D01*
X377326Y1130567D01*
X377356Y1130685D01*
X377385Y1130802D01*
X377414Y1130899D01*
X377443Y1130987D01*
X377473Y1131065D01*
X377492Y1131123D01*
X377512Y1131162D01*
X377521Y1131192D01*
Y1131201D01*
X377658Y1131484D01*
X377824Y1131728D01*
X377980Y1131943D01*
X378146Y1132109D01*
X378282Y1132245D01*
X378399Y1132343D01*
X378448Y1132372D01*
X378477Y1132401D01*
X378497Y1132411D01*
X378507Y1132421D01*
X378633Y1132499D01*
X378770Y1132557D01*
X379043Y1132664D01*
X379326Y1132733D01*
X379599Y1132791D01*
X379716Y1132801D01*
X379833Y1132821D01*
X379931Y1132830D01*
X380018D01*
X380096Y1132840D01*
X380194D01*
X380379Y1132830D01*
D02*
G37*
G36*
X390786D02*
X390972Y1132811D01*
X391138Y1132772D01*
X391303Y1132723D01*
X391450Y1132664D01*
X391596Y1132596D01*
X391723Y1132528D01*
X391830Y1132450D01*
X391937Y1132382D01*
X392025Y1132313D01*
X392103Y1132245D01*
X392162Y1132187D01*
X392210Y1132138D01*
X392249Y1132099D01*
X392269Y1132079D01*
X392279Y1132069D01*
X392366Y1131953D01*
X392444Y1131826D01*
X392513Y1131699D01*
X392571Y1131562D01*
X392659Y1131319D01*
X392727Y1131084D01*
X392747Y1130977D01*
X392757Y1130880D01*
X392766Y1130792D01*
X392776Y1130714D01*
X392786Y1130655D01*
Y1130607D01*
Y1130577D01*
Y1130567D01*
X392776Y1130402D01*
X392757Y1130236D01*
X392727Y1130090D01*
X392698Y1129943D01*
X392649Y1129817D01*
X392601Y1129690D01*
X392552Y1129582D01*
X392493Y1129475D01*
X392435Y1129387D01*
X392386Y1129309D01*
X392337Y1129241D01*
X392288Y1129183D01*
X392259Y1129134D01*
X392230Y1129104D01*
X392210Y1129085D01*
X392201Y1129075D01*
X392093Y1128968D01*
X391976Y1128880D01*
X391859Y1128802D01*
X391732Y1128734D01*
X391615Y1128675D01*
X391498Y1128636D01*
X391274Y1128558D01*
X391176Y1128539D01*
X391079Y1128519D01*
X391001Y1128510D01*
X390923Y1128500D01*
X390864Y1128490D01*
X390786D01*
X390552Y1128510D01*
X390328Y1128558D01*
X390123Y1128617D01*
X389948Y1128695D01*
X389791Y1128773D01*
X389733Y1128802D01*
X389674Y1128831D01*
X389635Y1128861D01*
X389606Y1128880D01*
X389587Y1128890D01*
X389577Y1128900D01*
X389928Y1127173D01*
X392483D01*
Y1126422D01*
X389304D01*
X388680Y1129709D01*
X389421Y1129817D01*
X389489Y1129719D01*
X389567Y1129631D01*
X389645Y1129553D01*
X389713Y1129485D01*
X389782Y1129436D01*
X389840Y1129397D01*
X389879Y1129378D01*
X389889Y1129368D01*
X390006Y1129309D01*
X390123Y1129260D01*
X390240Y1129231D01*
X390347Y1129202D01*
X390445Y1129192D01*
X390513Y1129183D01*
X390582D01*
X390796Y1129202D01*
X390991Y1129241D01*
X391167Y1129309D01*
X391303Y1129378D01*
X391420Y1129446D01*
X391498Y1129514D01*
X391547Y1129553D01*
X391567Y1129573D01*
X391693Y1129729D01*
X391791Y1129904D01*
X391859Y1130080D01*
X391898Y1130246D01*
X391927Y1130402D01*
X391937Y1130470D01*
Y1130528D01*
X391947Y1130567D01*
Y1130607D01*
Y1130626D01*
Y1130636D01*
X391927Y1130889D01*
X391889Y1131114D01*
X391820Y1131309D01*
X391752Y1131475D01*
X391684Y1131601D01*
X391615Y1131699D01*
X391576Y1131757D01*
X391557Y1131767D01*
Y1131777D01*
X391479Y1131855D01*
X391401Y1131914D01*
X391245Y1132021D01*
X391079Y1132089D01*
X390933Y1132148D01*
X390796Y1132177D01*
X390689Y1132187D01*
X390650Y1132196D01*
X390591D01*
X390425Y1132187D01*
X390269Y1132148D01*
X390133Y1132099D01*
X390016Y1132050D01*
X389918Y1131992D01*
X389850Y1131953D01*
X389811Y1131914D01*
X389791Y1131904D01*
X389674Y1131777D01*
X389587Y1131631D01*
X389509Y1131484D01*
X389460Y1131338D01*
X389421Y1131201D01*
X389392Y1131094D01*
X389382Y1131055D01*
X389372Y1131026D01*
Y1131006D01*
Y1130997D01*
X388543Y1131055D01*
X388563Y1131201D01*
X388592Y1131348D01*
X388670Y1131601D01*
X388777Y1131826D01*
X388884Y1132011D01*
X388943Y1132089D01*
X388992Y1132157D01*
X389040Y1132216D01*
X389080Y1132265D01*
X389118Y1132304D01*
X389148Y1132333D01*
X389157Y1132343D01*
X389167Y1132352D01*
X389274Y1132440D01*
X389392Y1132508D01*
X389509Y1132577D01*
X389626Y1132635D01*
X389860Y1132723D01*
X390084Y1132782D01*
X390191Y1132801D01*
X390289Y1132811D01*
X390377Y1132821D01*
X390445Y1132830D01*
X390504Y1132840D01*
X390591D01*
X390786Y1132830D01*
D02*
G37*
G36*
X386534Y1126295D02*
X386017D01*
X385929Y1126451D01*
X385822Y1126608D01*
X385705Y1126754D01*
X385588Y1126890D01*
X385480Y1126998D01*
X385393Y1127085D01*
X385334Y1127144D01*
X385324Y1127154D01*
X385315Y1127163D01*
X385129Y1127319D01*
X384934Y1127466D01*
X384739Y1127593D01*
X384563Y1127700D01*
X384408Y1127788D01*
X384339Y1127817D01*
X384281Y1127846D01*
X384242Y1127876D01*
X384203Y1127895D01*
X384183Y1127905D01*
X384173D01*
Y1128675D01*
X384310Y1128617D01*
X384456Y1128549D01*
X384593Y1128490D01*
X384720Y1128422D01*
X384827Y1128363D01*
X384915Y1128314D01*
X384973Y1128275D01*
X384983Y1128266D01*
X384993D01*
X385159Y1128168D01*
X385305Y1128061D01*
X385432Y1127973D01*
X385539Y1127885D01*
X385627Y1127817D01*
X385695Y1127768D01*
X385734Y1127729D01*
X385744Y1127719D01*
Y1132733D01*
X386534D01*
Y1126295D01*
D02*
G37*
G36*
X513729Y1193790D02*
X513905Y1193781D01*
X514227Y1193712D01*
X514373Y1193673D01*
X514519Y1193624D01*
X514646Y1193576D01*
X514763Y1193527D01*
X514870Y1193478D01*
X514958Y1193429D01*
X515036Y1193381D01*
X515104Y1193342D01*
X515163Y1193303D01*
X515202Y1193273D01*
X515222Y1193264D01*
X515231Y1193254D01*
X515358Y1193147D01*
X515475Y1193029D01*
X515670Y1192776D01*
X515846Y1192513D01*
X515973Y1192249D01*
X516031Y1192132D01*
X516070Y1192025D01*
X516109Y1191918D01*
X516148Y1191840D01*
X516168Y1191762D01*
X516187Y1191713D01*
X516197Y1191674D01*
Y1191664D01*
X515348Y1191450D01*
X515270Y1191732D01*
X515173Y1191986D01*
X515056Y1192191D01*
X514948Y1192366D01*
X514841Y1192493D01*
X514753Y1192591D01*
X514695Y1192649D01*
X514685Y1192659D01*
X514675Y1192669D01*
X514480Y1192805D01*
X514285Y1192903D01*
X514080Y1192981D01*
X513895Y1193029D01*
X513729Y1193059D01*
X513651Y1193069D01*
X513593D01*
X513544Y1193078D01*
X513476D01*
X513261Y1193069D01*
X513056Y1193029D01*
X512871Y1192981D01*
X512715Y1192932D01*
X512578Y1192874D01*
X512471Y1192834D01*
X512432Y1192815D01*
X512403Y1192795D01*
X512393Y1192786D01*
X512383D01*
X512208Y1192659D01*
X512061Y1192513D01*
X511935Y1192366D01*
X511827Y1192210D01*
X511749Y1192083D01*
X511701Y1191966D01*
X511681Y1191927D01*
X511661Y1191898D01*
X511652Y1191879D01*
Y1191869D01*
X511574Y1191635D01*
X511515Y1191391D01*
X511476Y1191147D01*
X511447Y1190923D01*
X511437Y1190825D01*
X511427Y1190737D01*
Y1190650D01*
X511418Y1190581D01*
Y1190523D01*
Y1190484D01*
Y1190455D01*
Y1190445D01*
X511427Y1190211D01*
X511447Y1189986D01*
X511476Y1189782D01*
X511515Y1189596D01*
X511554Y1189440D01*
X511564Y1189372D01*
X511584Y1189323D01*
X511593Y1189274D01*
X511603Y1189245D01*
X511613Y1189226D01*
Y1189216D01*
X511701Y1189001D01*
X511808Y1188806D01*
X511925Y1188650D01*
X512032Y1188514D01*
X512139Y1188406D01*
X512227Y1188328D01*
X512286Y1188279D01*
X512295Y1188260D01*
X512305D01*
X512500Y1188143D01*
X512705Y1188055D01*
X512910Y1187987D01*
X513105Y1187948D01*
X513281Y1187919D01*
X513349Y1187909D01*
X513417D01*
X513466Y1187899D01*
X513534D01*
X513768Y1187909D01*
X513973Y1187948D01*
X514158Y1187997D01*
X514305Y1188055D01*
X514431Y1188123D01*
X514519Y1188172D01*
X514578Y1188211D01*
X514597Y1188221D01*
X514753Y1188358D01*
X514880Y1188514D01*
X514997Y1188689D01*
X515085Y1188855D01*
X515153Y1189001D01*
X515182Y1189070D01*
X515212Y1189128D01*
X515231Y1189177D01*
X515241Y1189216D01*
X515251Y1189235D01*
Y1189245D01*
X516090Y1189050D01*
X515973Y1188738D01*
X515904Y1188592D01*
X515836Y1188465D01*
X515758Y1188338D01*
X515680Y1188221D01*
X515612Y1188123D01*
X515534Y1188026D01*
X515465Y1187948D01*
X515397Y1187880D01*
X515329Y1187811D01*
X515280Y1187763D01*
X515231Y1187724D01*
X515202Y1187694D01*
X515182Y1187685D01*
X515173Y1187675D01*
X515046Y1187587D01*
X514919Y1187509D01*
X514783Y1187441D01*
X514646Y1187382D01*
X514373Y1187294D01*
X514119Y1187236D01*
X514002Y1187216D01*
X513895Y1187207D01*
X513797Y1187197D01*
X513719Y1187187D01*
X513651Y1187177D01*
X513554D01*
X513242Y1187197D01*
X512949Y1187236D01*
X512686Y1187304D01*
X512569Y1187333D01*
X512461Y1187373D01*
X512364Y1187411D01*
X512266Y1187441D01*
X512188Y1187480D01*
X512130Y1187509D01*
X512071Y1187529D01*
X512032Y1187548D01*
X512013Y1187568D01*
X512003D01*
X511759Y1187724D01*
X511535Y1187909D01*
X511349Y1188094D01*
X511203Y1188279D01*
X511076Y1188445D01*
X511027Y1188514D01*
X510989Y1188572D01*
X510959Y1188631D01*
X510940Y1188670D01*
X510920Y1188689D01*
Y1188699D01*
X510793Y1188982D01*
X510696Y1189284D01*
X510637Y1189577D01*
X510589Y1189850D01*
X510569Y1189977D01*
X510559Y1190084D01*
X510550Y1190191D01*
Y1190279D01*
X510540Y1190347D01*
Y1190396D01*
Y1190435D01*
Y1190445D01*
X510550Y1190786D01*
X510589Y1191098D01*
X510647Y1191391D01*
X510676Y1191527D01*
X510706Y1191645D01*
X510735Y1191762D01*
X510764Y1191859D01*
X510793Y1191947D01*
X510823Y1192025D01*
X510842Y1192083D01*
X510862Y1192122D01*
X510871Y1192152D01*
Y1192161D01*
X511008Y1192444D01*
X511174Y1192688D01*
X511330Y1192903D01*
X511496Y1193069D01*
X511632Y1193205D01*
X511749Y1193303D01*
X511798Y1193332D01*
X511827Y1193361D01*
X511847Y1193371D01*
X511857Y1193381D01*
X511983Y1193459D01*
X512120Y1193517D01*
X512393Y1193624D01*
X512676Y1193693D01*
X512949Y1193751D01*
X513066Y1193761D01*
X513183Y1193781D01*
X513281Y1193790D01*
X513368D01*
X513446Y1193800D01*
X513544D01*
X513729Y1193790D01*
D02*
G37*
G36*
X519162D02*
X519347Y1193771D01*
X519513Y1193732D01*
X519679Y1193683D01*
X519825Y1193624D01*
X519972Y1193556D01*
X520098Y1193488D01*
X520206Y1193410D01*
X520313Y1193342D01*
X520401Y1193273D01*
X520479Y1193205D01*
X520537Y1193147D01*
X520586Y1193098D01*
X520625Y1193059D01*
X520645Y1193039D01*
X520654Y1193029D01*
X520742Y1192913D01*
X520820Y1192786D01*
X520888Y1192659D01*
X520947Y1192522D01*
X521035Y1192279D01*
X521103Y1192044D01*
X521123Y1191937D01*
X521132Y1191840D01*
X521142Y1191752D01*
X521152Y1191674D01*
X521161Y1191615D01*
Y1191566D01*
Y1191537D01*
Y1191527D01*
X521152Y1191362D01*
X521132Y1191196D01*
X521103Y1191050D01*
X521074Y1190903D01*
X521025Y1190777D01*
X520976Y1190650D01*
X520927Y1190542D01*
X520869Y1190435D01*
X520810Y1190347D01*
X520762Y1190269D01*
X520713Y1190201D01*
X520664Y1190143D01*
X520635Y1190094D01*
X520606Y1190064D01*
X520586Y1190045D01*
X520576Y1190035D01*
X520469Y1189928D01*
X520352Y1189840D01*
X520235Y1189762D01*
X520108Y1189694D01*
X519991Y1189635D01*
X519874Y1189596D01*
X519650Y1189518D01*
X519552Y1189499D01*
X519455Y1189479D01*
X519377Y1189470D01*
X519299Y1189460D01*
X519240Y1189450D01*
X519162D01*
X518928Y1189470D01*
X518704Y1189518D01*
X518499Y1189577D01*
X518323Y1189655D01*
X518167Y1189733D01*
X518109Y1189762D01*
X518050Y1189791D01*
X518011Y1189821D01*
X517982Y1189840D01*
X517962Y1189850D01*
X517953Y1189860D01*
X518304Y1188133D01*
X520859D01*
Y1187382D01*
X517679D01*
X517055Y1190669D01*
X517797Y1190777D01*
X517865Y1190679D01*
X517943Y1190591D01*
X518021Y1190513D01*
X518089Y1190445D01*
X518157Y1190396D01*
X518216Y1190357D01*
X518255Y1190338D01*
X518265Y1190328D01*
X518382Y1190269D01*
X518499Y1190220D01*
X518616Y1190191D01*
X518723Y1190162D01*
X518821Y1190152D01*
X518889Y1190143D01*
X518957D01*
X519172Y1190162D01*
X519367Y1190201D01*
X519542Y1190269D01*
X519679Y1190338D01*
X519796Y1190406D01*
X519874Y1190474D01*
X519923Y1190513D01*
X519942Y1190533D01*
X520069Y1190689D01*
X520167Y1190864D01*
X520235Y1191040D01*
X520274Y1191206D01*
X520303Y1191362D01*
X520313Y1191430D01*
Y1191488D01*
X520323Y1191527D01*
Y1191566D01*
Y1191586D01*
Y1191596D01*
X520303Y1191849D01*
X520264Y1192074D01*
X520196Y1192269D01*
X520128Y1192435D01*
X520059Y1192561D01*
X519991Y1192659D01*
X519952Y1192717D01*
X519933Y1192727D01*
Y1192737D01*
X519855Y1192815D01*
X519776Y1192874D01*
X519620Y1192981D01*
X519455Y1193049D01*
X519308Y1193108D01*
X519172Y1193137D01*
X519064Y1193147D01*
X519025Y1193156D01*
X518967D01*
X518801Y1193147D01*
X518645Y1193108D01*
X518508Y1193059D01*
X518391Y1193010D01*
X518294Y1192952D01*
X518226Y1192913D01*
X518187Y1192874D01*
X518167Y1192864D01*
X518050Y1192737D01*
X517962Y1192591D01*
X517884Y1192444D01*
X517836Y1192298D01*
X517797Y1192161D01*
X517767Y1192054D01*
X517757Y1192015D01*
X517748Y1191986D01*
Y1191966D01*
Y1191957D01*
X516919Y1192015D01*
X516938Y1192161D01*
X516967Y1192308D01*
X517046Y1192561D01*
X517153Y1192786D01*
X517260Y1192971D01*
X517319Y1193049D01*
X517367Y1193117D01*
X517416Y1193176D01*
X517455Y1193225D01*
X517494Y1193264D01*
X517523Y1193293D01*
X517533Y1193303D01*
X517543Y1193312D01*
X517650Y1193400D01*
X517767Y1193468D01*
X517884Y1193537D01*
X518001Y1193595D01*
X518235Y1193683D01*
X518460Y1193742D01*
X518567Y1193761D01*
X518665Y1193771D01*
X518752Y1193781D01*
X518821Y1193790D01*
X518879Y1193800D01*
X518967D01*
X519162Y1193790D01*
D02*
G37*
G36*
X498274Y1145725D02*
X498449Y1145705D01*
X498615Y1145666D01*
X498771Y1145618D01*
X498918Y1145559D01*
X499044Y1145500D01*
X499171Y1145432D01*
X499278Y1145364D01*
X499376Y1145296D01*
X499464Y1145227D01*
X499532Y1145169D01*
X499600Y1145110D01*
X499649Y1145061D01*
X499678Y1145023D01*
X499698Y1145003D01*
X499707Y1144993D01*
X499825Y1144827D01*
X499932Y1144632D01*
X500020Y1144437D01*
X500098Y1144213D01*
X500166Y1143998D01*
X500224Y1143774D01*
X500273Y1143550D01*
X500303Y1143325D01*
X500332Y1143121D01*
X500351Y1142925D01*
X500371Y1142750D01*
X500381Y1142594D01*
X500390Y1142467D01*
Y1142370D01*
Y1142340D01*
Y1142311D01*
Y1142301D01*
Y1142291D01*
X500381Y1141989D01*
X500361Y1141716D01*
X500332Y1141453D01*
X500293Y1141219D01*
X500244Y1141004D01*
X500195Y1140809D01*
X500137Y1140633D01*
X500078Y1140477D01*
X500029Y1140341D01*
X499971Y1140224D01*
X499922Y1140126D01*
X499873Y1140048D01*
X499834Y1139990D01*
X499805Y1139951D01*
X499786Y1139921D01*
X499776Y1139912D01*
X499659Y1139785D01*
X499532Y1139678D01*
X499395Y1139580D01*
X499259Y1139492D01*
X499122Y1139424D01*
X498996Y1139365D01*
X498859Y1139317D01*
X498732Y1139278D01*
X498615Y1139248D01*
X498508Y1139229D01*
X498410Y1139209D01*
X498332Y1139200D01*
X498264D01*
X498205Y1139190D01*
X498167D01*
X497962Y1139200D01*
X497767Y1139229D01*
X497591Y1139278D01*
X497435Y1139326D01*
X497318Y1139375D01*
X497220Y1139424D01*
X497162Y1139453D01*
X497142Y1139463D01*
X496977Y1139580D01*
X496840Y1139707D01*
X496713Y1139834D01*
X496606Y1139960D01*
X496528Y1140078D01*
X496469Y1140165D01*
X496450Y1140204D01*
X496430Y1140234D01*
X496421Y1140243D01*
Y1140253D01*
X496333Y1140448D01*
X496264Y1140643D01*
X496226Y1140838D01*
X496186Y1141004D01*
X496167Y1141160D01*
Y1141219D01*
X496157Y1141277D01*
Y1141316D01*
Y1141345D01*
Y1141365D01*
Y1141375D01*
X496167Y1141541D01*
X496177Y1141706D01*
X496206Y1141853D01*
X496245Y1141999D01*
X496284Y1142126D01*
X496333Y1142253D01*
X496382Y1142360D01*
X496430Y1142467D01*
X496489Y1142555D01*
X496538Y1142633D01*
X496586Y1142701D01*
X496625Y1142760D01*
X496664Y1142809D01*
X496694Y1142838D01*
X496703Y1142857D01*
X496713Y1142867D01*
X496820Y1142974D01*
X496928Y1143062D01*
X497045Y1143140D01*
X497162Y1143208D01*
X497269Y1143267D01*
X497386Y1143306D01*
X497591Y1143384D01*
X497776Y1143423D01*
X497854Y1143433D01*
X497923Y1143442D01*
X497981Y1143452D01*
X498059D01*
X498225Y1143442D01*
X498381Y1143423D01*
X498527Y1143384D01*
X498654Y1143345D01*
X498761Y1143306D01*
X498849Y1143267D01*
X498898Y1143247D01*
X498918Y1143238D01*
X499064Y1143150D01*
X499200Y1143052D01*
X499317Y1142945D01*
X499415Y1142838D01*
X499503Y1142740D01*
X499561Y1142662D01*
X499600Y1142613D01*
X499610Y1142604D01*
Y1142769D01*
X499600Y1142935D01*
X499590Y1143091D01*
X499581Y1143238D01*
X499561Y1143364D01*
X499542Y1143491D01*
X499522Y1143598D01*
X499503Y1143696D01*
X499483Y1143784D01*
X499464Y1143862D01*
X499444Y1143930D01*
X499425Y1143979D01*
X499415Y1144018D01*
X499405Y1144057D01*
X499395Y1144067D01*
Y1144076D01*
X499308Y1144262D01*
X499210Y1144428D01*
X499113Y1144564D01*
X499015Y1144671D01*
X498937Y1144759D01*
X498869Y1144827D01*
X498830Y1144866D01*
X498810Y1144876D01*
X498693Y1144945D01*
X498586Y1145003D01*
X498469Y1145042D01*
X498362Y1145061D01*
X498274Y1145081D01*
X498205Y1145091D01*
X498137D01*
X497971Y1145081D01*
X497815Y1145042D01*
X497679Y1144984D01*
X497562Y1144925D01*
X497474Y1144857D01*
X497406Y1144808D01*
X497357Y1144769D01*
X497347Y1144749D01*
X497279Y1144662D01*
X497220Y1144564D01*
X497123Y1144340D01*
X497094Y1144242D01*
X497064Y1144164D01*
X497045Y1144106D01*
Y1144096D01*
Y1144086D01*
X496264Y1144145D01*
X496313Y1144408D01*
X496401Y1144642D01*
X496489Y1144837D01*
X496596Y1145003D01*
X496694Y1145130D01*
X496772Y1145227D01*
X496830Y1145286D01*
X496840Y1145305D01*
X496850D01*
X496947Y1145383D01*
X497045Y1145452D01*
X497250Y1145549D01*
X497454Y1145627D01*
X497649Y1145686D01*
X497825Y1145715D01*
X497903Y1145725D01*
X497962D01*
X498020Y1145734D01*
X498088D01*
X498274Y1145725D01*
D02*
G37*
G36*
X504028Y1145793D02*
X504321Y1145754D01*
X504584Y1145686D01*
X504701Y1145657D01*
X504809Y1145618D01*
X504906Y1145579D01*
X505004Y1145549D01*
X505082Y1145510D01*
X505140Y1145481D01*
X505199Y1145461D01*
X505238Y1145442D01*
X505257Y1145422D01*
X505267D01*
X505511Y1145266D01*
X505735Y1145081D01*
X505921Y1144896D01*
X506067Y1144710D01*
X506194Y1144545D01*
X506242Y1144476D01*
X506282Y1144418D01*
X506311Y1144359D01*
X506330Y1144320D01*
X506350Y1144301D01*
Y1144291D01*
X506477Y1144008D01*
X506574Y1143706D01*
X506633Y1143413D01*
X506681Y1143140D01*
X506701Y1143013D01*
X506711Y1142906D01*
X506720Y1142799D01*
Y1142711D01*
X506730Y1142643D01*
Y1142594D01*
Y1142555D01*
Y1142545D01*
X506720Y1142204D01*
X506681Y1141892D01*
X506623Y1141599D01*
X506594Y1141462D01*
X506564Y1141345D01*
X506535Y1141228D01*
X506506Y1141131D01*
X506477Y1141043D01*
X506447Y1140965D01*
X506428Y1140907D01*
X506408Y1140867D01*
X506399Y1140838D01*
Y1140828D01*
X506262Y1140546D01*
X506096Y1140302D01*
X505940Y1140087D01*
X505774Y1139921D01*
X505638Y1139785D01*
X505521Y1139687D01*
X505472Y1139658D01*
X505443Y1139629D01*
X505423Y1139619D01*
X505413Y1139609D01*
X505287Y1139531D01*
X505150Y1139473D01*
X504877Y1139365D01*
X504594Y1139297D01*
X504321Y1139239D01*
X504204Y1139229D01*
X504087Y1139209D01*
X503989Y1139200D01*
X503902D01*
X503824Y1139190D01*
X503726D01*
X503541Y1139200D01*
X503365Y1139209D01*
X503043Y1139278D01*
X502897Y1139317D01*
X502751Y1139365D01*
X502624Y1139414D01*
X502507Y1139463D01*
X502399Y1139512D01*
X502312Y1139560D01*
X502234Y1139609D01*
X502165Y1139648D01*
X502107Y1139687D01*
X502068Y1139717D01*
X502048Y1139726D01*
X502039Y1139736D01*
X501912Y1139843D01*
X501795Y1139960D01*
X501600Y1140214D01*
X501424Y1140477D01*
X501297Y1140741D01*
X501239Y1140858D01*
X501200Y1140965D01*
X501161Y1141072D01*
X501122Y1141150D01*
X501102Y1141228D01*
X501083Y1141277D01*
X501073Y1141316D01*
Y1141326D01*
X501922Y1141541D01*
X502000Y1141258D01*
X502097Y1141004D01*
X502214Y1140799D01*
X502322Y1140624D01*
X502429Y1140497D01*
X502517Y1140399D01*
X502575Y1140341D01*
X502585Y1140331D01*
X502595Y1140321D01*
X502790Y1140185D01*
X502985Y1140087D01*
X503190Y1140009D01*
X503375Y1139960D01*
X503541Y1139931D01*
X503619Y1139921D01*
X503677D01*
X503726Y1139912D01*
X503794D01*
X504009Y1139921D01*
X504214Y1139960D01*
X504399Y1140009D01*
X504555Y1140058D01*
X504692Y1140117D01*
X504799Y1140155D01*
X504838Y1140175D01*
X504867Y1140194D01*
X504877Y1140204D01*
X504887D01*
X505062Y1140331D01*
X505209Y1140477D01*
X505335Y1140624D01*
X505443Y1140780D01*
X505521Y1140907D01*
X505569Y1141023D01*
X505589Y1141063D01*
X505608Y1141092D01*
X505618Y1141111D01*
Y1141121D01*
X505696Y1141355D01*
X505755Y1141599D01*
X505794Y1141843D01*
X505823Y1142067D01*
X505833Y1142165D01*
X505843Y1142253D01*
Y1142340D01*
X505852Y1142409D01*
Y1142467D01*
Y1142506D01*
Y1142535D01*
Y1142545D01*
X505843Y1142779D01*
X505823Y1143003D01*
X505794Y1143208D01*
X505755Y1143394D01*
X505716Y1143550D01*
X505706Y1143618D01*
X505686Y1143667D01*
X505677Y1143716D01*
X505667Y1143745D01*
X505657Y1143764D01*
Y1143774D01*
X505569Y1143989D01*
X505462Y1144184D01*
X505345Y1144340D01*
X505238Y1144476D01*
X505131Y1144584D01*
X505043Y1144662D01*
X504984Y1144710D01*
X504975Y1144730D01*
X504965D01*
X504770Y1144847D01*
X504565Y1144935D01*
X504360Y1145003D01*
X504165Y1145042D01*
X503989Y1145071D01*
X503921Y1145081D01*
X503853D01*
X503804Y1145091D01*
X503736D01*
X503502Y1145081D01*
X503297Y1145042D01*
X503111Y1144993D01*
X502965Y1144935D01*
X502838Y1144866D01*
X502751Y1144818D01*
X502692Y1144779D01*
X502673Y1144769D01*
X502517Y1144632D01*
X502390Y1144476D01*
X502273Y1144301D01*
X502185Y1144135D01*
X502117Y1143989D01*
X502087Y1143920D01*
X502058Y1143862D01*
X502039Y1143813D01*
X502029Y1143774D01*
X502019Y1143755D01*
Y1143745D01*
X501180Y1143940D01*
X501297Y1144252D01*
X501366Y1144398D01*
X501434Y1144525D01*
X501512Y1144652D01*
X501590Y1144769D01*
X501658Y1144866D01*
X501736Y1144964D01*
X501805Y1145042D01*
X501873Y1145110D01*
X501941Y1145179D01*
X501990Y1145227D01*
X502039Y1145266D01*
X502068Y1145296D01*
X502087Y1145305D01*
X502097Y1145315D01*
X502224Y1145403D01*
X502351Y1145481D01*
X502487Y1145549D01*
X502624Y1145608D01*
X502897Y1145695D01*
X503151Y1145754D01*
X503268Y1145774D01*
X503375Y1145783D01*
X503472Y1145793D01*
X503550Y1145803D01*
X503619Y1145813D01*
X503716D01*
X504028Y1145793D01*
D02*
G37*
G36*
X436880Y1124219D02*
Y1124034D01*
X436870Y1123858D01*
X436861Y1123692D01*
X436841Y1123536D01*
X436822Y1123400D01*
X436802Y1123263D01*
X436783Y1123146D01*
X436753Y1123039D01*
X436734Y1122941D01*
X436714Y1122853D01*
X436695Y1122775D01*
X436675Y1122717D01*
X436656Y1122668D01*
X436646Y1122639D01*
X436636Y1122619D01*
Y1122610D01*
X436529Y1122405D01*
X436402Y1122219D01*
X436275Y1122073D01*
X436139Y1121946D01*
X436022Y1121839D01*
X435914Y1121771D01*
X435876Y1121741D01*
X435856Y1121732D01*
X435836Y1121712D01*
X435827D01*
X435602Y1121615D01*
X435349Y1121537D01*
X435105Y1121488D01*
X434871Y1121449D01*
X434764Y1121439D01*
X434666Y1121429D01*
X434578Y1121420D01*
X434500D01*
X434442Y1121410D01*
X434354D01*
X434022Y1121429D01*
X433730Y1121468D01*
X433593Y1121488D01*
X433476Y1121517D01*
X433359Y1121556D01*
X433261Y1121585D01*
X433174Y1121615D01*
X433086Y1121654D01*
X433018Y1121683D01*
X432969Y1121702D01*
X432920Y1121732D01*
X432891Y1121741D01*
X432871Y1121761D01*
X432862D01*
X432667Y1121907D01*
X432491Y1122054D01*
X432355Y1122210D01*
X432247Y1122356D01*
X432169Y1122493D01*
X432111Y1122590D01*
X432091Y1122629D01*
X432081Y1122658D01*
X432072Y1122678D01*
Y1122688D01*
X431994Y1122912D01*
X431945Y1123166D01*
X431906Y1123419D01*
X431876Y1123663D01*
X431867Y1123780D01*
X431857Y1123887D01*
Y1123975D01*
X431847Y1124063D01*
Y1124131D01*
Y1124180D01*
Y1124209D01*
Y1124219D01*
Y1127925D01*
X432696D01*
Y1124219D01*
Y1124004D01*
X432715Y1123800D01*
X432735Y1123624D01*
X432754Y1123458D01*
X432784Y1123302D01*
X432823Y1123175D01*
X432862Y1123058D01*
X432891Y1122951D01*
X432930Y1122863D01*
X432969Y1122785D01*
X432998Y1122727D01*
X433037Y1122678D01*
X433057Y1122639D01*
X433076Y1122610D01*
X433096Y1122600D01*
Y1122590D01*
X433174Y1122512D01*
X433271Y1122454D01*
X433476Y1122346D01*
X433691Y1122278D01*
X433915Y1122219D01*
X434110Y1122190D01*
X434198Y1122180D01*
X434276D01*
X434344Y1122171D01*
X434432D01*
X434627Y1122180D01*
X434803Y1122200D01*
X434959Y1122239D01*
X435095Y1122278D01*
X435202Y1122307D01*
X435280Y1122346D01*
X435329Y1122366D01*
X435349Y1122375D01*
X435485Y1122463D01*
X435593Y1122561D01*
X435690Y1122668D01*
X435759Y1122766D01*
X435817Y1122853D01*
X435856Y1122922D01*
X435876Y1122970D01*
X435885Y1122990D01*
X435914Y1123068D01*
X435934Y1123156D01*
X435973Y1123351D01*
X435993Y1123556D01*
X436012Y1123751D01*
X436022Y1123936D01*
X436032Y1124014D01*
Y1124082D01*
Y1124141D01*
Y1124180D01*
Y1124209D01*
Y1124219D01*
Y1127925D01*
X436880D01*
Y1124219D01*
D02*
G37*
G36*
X431018Y1123770D02*
Y1123048D01*
X428238D01*
Y1121517D01*
X427448D01*
Y1123048D01*
X426580D01*
Y1123770D01*
X427448D01*
Y1127915D01*
X428092D01*
X431018Y1123770D01*
D02*
G37*
G36*
X467511Y1056678D02*
X467618Y1056522D01*
X467735Y1056376D01*
X467852Y1056240D01*
X467960Y1056132D01*
X468047Y1056044D01*
X468106Y1055986D01*
X468116Y1055976D01*
X468125Y1055966D01*
X468311Y1055810D01*
X468506Y1055664D01*
X468701Y1055537D01*
X468876Y1055430D01*
X469033Y1055342D01*
X469101Y1055313D01*
X469159Y1055284D01*
X469198Y1055255D01*
X469237Y1055235D01*
X469257Y1055225D01*
X469267D01*
Y1054455D01*
X469130Y1054513D01*
X468984Y1054582D01*
X468847Y1054640D01*
X468720Y1054708D01*
X468613Y1054767D01*
X468525Y1054816D01*
X468467Y1054855D01*
X468457Y1054864D01*
X468447D01*
X468281Y1054962D01*
X468135Y1055069D01*
X468008Y1055157D01*
X467901Y1055245D01*
X467813Y1055313D01*
X467745Y1055362D01*
X467706Y1055401D01*
X467696Y1055411D01*
Y1050397D01*
X466906D01*
Y1056834D01*
X467423D01*
X467511Y1056678D01*
D02*
G37*
G36*
X462537D02*
X462644Y1056522D01*
X462761Y1056376D01*
X462878Y1056240D01*
X462985Y1056132D01*
X463073Y1056044D01*
X463131Y1055986D01*
X463141Y1055976D01*
X463151Y1055966D01*
X463336Y1055810D01*
X463531Y1055664D01*
X463727Y1055537D01*
X463902Y1055430D01*
X464058Y1055342D01*
X464126Y1055313D01*
X464185Y1055284D01*
X464224Y1055255D01*
X464263Y1055235D01*
X464282Y1055225D01*
X464292D01*
Y1054455D01*
X464156Y1054513D01*
X464009Y1054582D01*
X463873Y1054640D01*
X463746Y1054708D01*
X463639Y1054767D01*
X463551Y1054816D01*
X463492Y1054855D01*
X463483Y1054864D01*
X463473D01*
X463307Y1054962D01*
X463161Y1055069D01*
X463034Y1055157D01*
X462927Y1055245D01*
X462839Y1055313D01*
X462771Y1055362D01*
X462732Y1055401D01*
X462722Y1055411D01*
Y1050397D01*
X461932D01*
Y1056834D01*
X462449D01*
X462537Y1056678D01*
D02*
G37*
G36*
X473548Y1056893D02*
X473841Y1056854D01*
X474104Y1056786D01*
X474221Y1056757D01*
X474329Y1056718D01*
X474426Y1056678D01*
X474524Y1056649D01*
X474602Y1056610D01*
X474660Y1056581D01*
X474719Y1056561D01*
X474758Y1056542D01*
X474777Y1056522D01*
X474787D01*
X475031Y1056366D01*
X475255Y1056181D01*
X475441Y1055996D01*
X475587Y1055810D01*
X475714Y1055645D01*
X475762Y1055576D01*
X475802Y1055518D01*
X475831Y1055459D01*
X475850Y1055420D01*
X475870Y1055401D01*
Y1055391D01*
X475997Y1055108D01*
X476094Y1054806D01*
X476153Y1054513D01*
X476201Y1054240D01*
X476221Y1054113D01*
X476231Y1054006D01*
X476240Y1053899D01*
Y1053811D01*
X476250Y1053743D01*
Y1053694D01*
Y1053655D01*
Y1053645D01*
X476240Y1053304D01*
X476201Y1052992D01*
X476143Y1052699D01*
X476114Y1052562D01*
X476084Y1052445D01*
X476055Y1052328D01*
X476026Y1052231D01*
X475997Y1052143D01*
X475967Y1052065D01*
X475948Y1052007D01*
X475928Y1051967D01*
X475919Y1051938D01*
Y1051928D01*
X475782Y1051646D01*
X475616Y1051402D01*
X475460Y1051187D01*
X475294Y1051021D01*
X475158Y1050885D01*
X475041Y1050787D01*
X474992Y1050758D01*
X474963Y1050729D01*
X474943Y1050719D01*
X474933Y1050709D01*
X474807Y1050631D01*
X474670Y1050573D01*
X474397Y1050465D01*
X474114Y1050397D01*
X473841Y1050339D01*
X473724Y1050329D01*
X473607Y1050309D01*
X473509Y1050300D01*
X473422D01*
X473344Y1050290D01*
X473246D01*
X473061Y1050300D01*
X472885Y1050309D01*
X472563Y1050378D01*
X472417Y1050417D01*
X472271Y1050465D01*
X472144Y1050514D01*
X472027Y1050563D01*
X471920Y1050612D01*
X471832Y1050660D01*
X471754Y1050709D01*
X471685Y1050748D01*
X471627Y1050787D01*
X471588Y1050817D01*
X471568Y1050826D01*
X471559Y1050836D01*
X471432Y1050943D01*
X471315Y1051060D01*
X471120Y1051314D01*
X470944Y1051577D01*
X470817Y1051841D01*
X470759Y1051958D01*
X470720Y1052065D01*
X470681Y1052172D01*
X470642Y1052250D01*
X470622Y1052328D01*
X470603Y1052377D01*
X470593Y1052416D01*
Y1052426D01*
X471442Y1052641D01*
X471520Y1052358D01*
X471617Y1052104D01*
X471734Y1051899D01*
X471842Y1051724D01*
X471949Y1051597D01*
X472037Y1051499D01*
X472095Y1051441D01*
X472105Y1051431D01*
X472115Y1051421D01*
X472310Y1051285D01*
X472505Y1051187D01*
X472710Y1051109D01*
X472895Y1051060D01*
X473061Y1051031D01*
X473139Y1051021D01*
X473197D01*
X473246Y1051012D01*
X473314D01*
X473529Y1051021D01*
X473734Y1051060D01*
X473919Y1051109D01*
X474075Y1051158D01*
X474212Y1051217D01*
X474319Y1051255D01*
X474358Y1051275D01*
X474387Y1051294D01*
X474397Y1051304D01*
X474407D01*
X474582Y1051431D01*
X474729Y1051577D01*
X474855Y1051724D01*
X474963Y1051880D01*
X475041Y1052007D01*
X475089Y1052123D01*
X475109Y1052163D01*
X475129Y1052192D01*
X475138Y1052211D01*
Y1052221D01*
X475216Y1052455D01*
X475275Y1052699D01*
X475314Y1052943D01*
X475343Y1053167D01*
X475353Y1053265D01*
X475363Y1053353D01*
Y1053440D01*
X475372Y1053509D01*
Y1053567D01*
Y1053606D01*
Y1053635D01*
Y1053645D01*
X475363Y1053879D01*
X475343Y1054103D01*
X475314Y1054308D01*
X475275Y1054494D01*
X475236Y1054650D01*
X475226Y1054718D01*
X475206Y1054767D01*
X475197Y1054816D01*
X475187Y1054845D01*
X475177Y1054864D01*
Y1054874D01*
X475089Y1055089D01*
X474982Y1055284D01*
X474865Y1055440D01*
X474758Y1055576D01*
X474650Y1055684D01*
X474563Y1055762D01*
X474504Y1055810D01*
X474495Y1055830D01*
X474485D01*
X474290Y1055947D01*
X474085Y1056035D01*
X473880Y1056103D01*
X473685Y1056142D01*
X473509Y1056171D01*
X473441Y1056181D01*
X473373D01*
X473324Y1056191D01*
X473256D01*
X473022Y1056181D01*
X472817Y1056142D01*
X472631Y1056093D01*
X472485Y1056035D01*
X472358Y1055966D01*
X472271Y1055918D01*
X472212Y1055879D01*
X472193Y1055869D01*
X472037Y1055732D01*
X471910Y1055576D01*
X471793Y1055401D01*
X471705Y1055235D01*
X471637Y1055089D01*
X471607Y1055020D01*
X471578Y1054962D01*
X471559Y1054913D01*
X471549Y1054874D01*
X471539Y1054855D01*
Y1054845D01*
X470700Y1055040D01*
X470817Y1055352D01*
X470886Y1055498D01*
X470954Y1055625D01*
X471032Y1055752D01*
X471110Y1055869D01*
X471178Y1055966D01*
X471256Y1056064D01*
X471325Y1056142D01*
X471393Y1056210D01*
X471461Y1056279D01*
X471510Y1056327D01*
X471559Y1056366D01*
X471588Y1056396D01*
X471607Y1056405D01*
X471617Y1056415D01*
X471744Y1056503D01*
X471871Y1056581D01*
X472007Y1056649D01*
X472144Y1056708D01*
X472417Y1056796D01*
X472671Y1056854D01*
X472788Y1056874D01*
X472895Y1056883D01*
X472992Y1056893D01*
X473070Y1056903D01*
X473139Y1056913D01*
X473236D01*
X473548Y1056893D01*
D02*
G37*
G36*
X546766Y1143185D02*
X546922Y1143175D01*
X547215Y1143117D01*
X547342Y1143087D01*
X547468Y1143048D01*
X547576Y1142999D01*
X547673Y1142961D01*
X547761Y1142912D01*
X547839Y1142873D01*
X547907Y1142824D01*
X547966Y1142795D01*
X548005Y1142765D01*
X548034Y1142736D01*
X548054Y1142726D01*
X548063Y1142717D01*
X548161Y1142619D01*
X548239Y1142522D01*
X548385Y1142297D01*
X548493Y1142073D01*
X548571Y1141849D01*
X548629Y1141654D01*
X548639Y1141566D01*
X548658Y1141488D01*
X548668Y1141429D01*
X548678Y1141380D01*
Y1141351D01*
Y1141341D01*
X547868Y1141254D01*
X547849Y1141468D01*
X547810Y1141654D01*
X547761Y1141809D01*
X547693Y1141946D01*
X547634Y1142053D01*
X547576Y1142131D01*
X547537Y1142170D01*
X547527Y1142190D01*
X547390Y1142307D01*
X547244Y1142395D01*
X547088Y1142453D01*
X546942Y1142502D01*
X546815Y1142522D01*
X546717Y1142531D01*
X546678Y1142541D01*
X546620D01*
X546425Y1142531D01*
X546249Y1142492D01*
X546103Y1142443D01*
X545976Y1142385D01*
X545879Y1142317D01*
X545801Y1142268D01*
X545762Y1142229D01*
X545742Y1142219D01*
X545625Y1142092D01*
X545547Y1141956D01*
X545489Y1141829D01*
X545440Y1141702D01*
X545420Y1141595D01*
X545410Y1141507D01*
X545401Y1141449D01*
Y1141439D01*
Y1141429D01*
X545420Y1141263D01*
X545459Y1141088D01*
X545518Y1140932D01*
X545586Y1140785D01*
X545654Y1140659D01*
X545713Y1140561D01*
X545732Y1140522D01*
X545752Y1140493D01*
X545771Y1140483D01*
Y1140473D01*
X545849Y1140376D01*
X545937Y1140268D01*
X546035Y1140161D01*
X546152Y1140054D01*
X546386Y1139829D01*
X546620Y1139605D01*
X546834Y1139420D01*
X546932Y1139332D01*
X547020Y1139264D01*
X547088Y1139196D01*
X547137Y1139156D01*
X547176Y1139127D01*
X547186Y1139118D01*
X547420Y1138913D01*
X547634Y1138727D01*
X547810Y1138562D01*
X547956Y1138425D01*
X548073Y1138308D01*
X548151Y1138220D01*
X548200Y1138162D01*
X548219Y1138152D01*
Y1138142D01*
X548346Y1137986D01*
X548444Y1137840D01*
X548541Y1137693D01*
X548610Y1137567D01*
X548668Y1137450D01*
X548707Y1137372D01*
X548727Y1137313D01*
X548736Y1137303D01*
Y1137294D01*
X548766Y1137196D01*
X548795Y1137098D01*
X548805Y1137011D01*
X548815Y1136933D01*
X548824Y1136864D01*
Y1136806D01*
Y1136767D01*
Y1136757D01*
X544581D01*
Y1137508D01*
X547732D01*
X547625Y1137664D01*
X547517Y1137791D01*
X547468Y1137850D01*
X547430Y1137889D01*
X547410Y1137918D01*
X547400Y1137928D01*
X547351Y1137976D01*
X547303Y1138025D01*
X547176Y1138142D01*
X547020Y1138279D01*
X546874Y1138415D01*
X546727Y1138542D01*
X546610Y1138640D01*
X546561Y1138679D01*
X546522Y1138708D01*
X546503Y1138727D01*
X546493Y1138737D01*
X546337Y1138874D01*
X546200Y1138991D01*
X546064Y1139108D01*
X545947Y1139215D01*
X545840Y1139322D01*
X545742Y1139410D01*
X545645Y1139498D01*
X545566Y1139576D01*
X545498Y1139644D01*
X545440Y1139703D01*
X545352Y1139790D01*
X545303Y1139849D01*
X545284Y1139869D01*
X545157Y1140025D01*
X545040Y1140161D01*
X544952Y1140298D01*
X544884Y1140415D01*
X544825Y1140512D01*
X544786Y1140581D01*
X544767Y1140629D01*
X544757Y1140649D01*
X544698Y1140785D01*
X544659Y1140922D01*
X544630Y1141049D01*
X544611Y1141166D01*
X544601Y1141263D01*
X544591Y1141341D01*
Y1141390D01*
Y1141410D01*
X544601Y1141546D01*
X544611Y1141683D01*
X544679Y1141927D01*
X544767Y1142141D01*
X544864Y1142327D01*
X544962Y1142473D01*
X545011Y1142531D01*
X545050Y1142590D01*
X545089Y1142629D01*
X545118Y1142658D01*
X545128Y1142668D01*
X545137Y1142678D01*
X545245Y1142765D01*
X545352Y1142853D01*
X545469Y1142921D01*
X545596Y1142980D01*
X545840Y1143068D01*
X546074Y1143126D01*
X546181Y1143156D01*
X546278Y1143165D01*
X546366Y1143175D01*
X546444Y1143185D01*
X546513Y1143195D01*
X546600D01*
X546766Y1143185D01*
D02*
G37*
G36*
X551331Y1143038D02*
X551438Y1142882D01*
X551555Y1142736D01*
X551672Y1142600D01*
X551780Y1142492D01*
X551867Y1142404D01*
X551926Y1142346D01*
X551936Y1142336D01*
X551945Y1142327D01*
X552131Y1142170D01*
X552326Y1142024D01*
X552521Y1141897D01*
X552696Y1141790D01*
X552853Y1141702D01*
X552921Y1141673D01*
X552979Y1141644D01*
X553018Y1141615D01*
X553057Y1141595D01*
X553077Y1141585D01*
X553087D01*
Y1140815D01*
X552950Y1140873D01*
X552804Y1140941D01*
X552667Y1141000D01*
X552540Y1141068D01*
X552433Y1141127D01*
X552345Y1141176D01*
X552287Y1141215D01*
X552277Y1141224D01*
X552267D01*
X552101Y1141322D01*
X551955Y1141429D01*
X551828Y1141517D01*
X551721Y1141605D01*
X551633Y1141673D01*
X551565Y1141722D01*
X551526Y1141761D01*
X551516Y1141770D01*
Y1136757D01*
X550726D01*
Y1143195D01*
X551243D01*
X551331Y1143038D01*
D02*
G37*
G36*
X557368Y1143253D02*
X557661Y1143214D01*
X557924Y1143146D01*
X558041Y1143117D01*
X558149Y1143077D01*
X558246Y1143038D01*
X558344Y1143009D01*
X558422Y1142970D01*
X558480Y1142941D01*
X558539Y1142921D01*
X558578Y1142902D01*
X558597Y1142882D01*
X558607D01*
X558851Y1142726D01*
X559075Y1142541D01*
X559261Y1142356D01*
X559407Y1142170D01*
X559534Y1142005D01*
X559582Y1141936D01*
X559622Y1141878D01*
X559651Y1141819D01*
X559670Y1141780D01*
X559690Y1141761D01*
Y1141751D01*
X559817Y1141468D01*
X559914Y1141166D01*
X559973Y1140873D01*
X560021Y1140600D01*
X560041Y1140473D01*
X560051Y1140366D01*
X560060Y1140259D01*
Y1140171D01*
X560070Y1140103D01*
Y1140054D01*
Y1140015D01*
Y1140005D01*
X560060Y1139664D01*
X560021Y1139352D01*
X559963Y1139059D01*
X559934Y1138923D01*
X559904Y1138805D01*
X559875Y1138688D01*
X559846Y1138591D01*
X559817Y1138503D01*
X559787Y1138425D01*
X559768Y1138366D01*
X559748Y1138327D01*
X559739Y1138298D01*
Y1138288D01*
X559602Y1138006D01*
X559436Y1137762D01*
X559280Y1137547D01*
X559114Y1137381D01*
X558978Y1137245D01*
X558861Y1137147D01*
X558812Y1137118D01*
X558783Y1137089D01*
X558763Y1137079D01*
X558753Y1137069D01*
X558627Y1136991D01*
X558490Y1136933D01*
X558217Y1136825D01*
X557934Y1136757D01*
X557661Y1136699D01*
X557544Y1136689D01*
X557427Y1136669D01*
X557329Y1136660D01*
X557242D01*
X557164Y1136650D01*
X557066D01*
X556881Y1136660D01*
X556705Y1136669D01*
X556383Y1136738D01*
X556237Y1136777D01*
X556091Y1136825D01*
X555964Y1136874D01*
X555847Y1136923D01*
X555740Y1136972D01*
X555652Y1137020D01*
X555574Y1137069D01*
X555505Y1137108D01*
X555447Y1137147D01*
X555408Y1137177D01*
X555388Y1137186D01*
X555379Y1137196D01*
X555252Y1137303D01*
X555135Y1137420D01*
X554940Y1137674D01*
X554764Y1137937D01*
X554637Y1138201D01*
X554579Y1138318D01*
X554540Y1138425D01*
X554501Y1138532D01*
X554462Y1138610D01*
X554442Y1138688D01*
X554423Y1138737D01*
X554413Y1138776D01*
Y1138786D01*
X555262Y1139000D01*
X555340Y1138718D01*
X555437Y1138464D01*
X555554Y1138259D01*
X555662Y1138084D01*
X555769Y1137957D01*
X555857Y1137859D01*
X555915Y1137801D01*
X555925Y1137791D01*
X555935Y1137781D01*
X556130Y1137645D01*
X556325Y1137547D01*
X556530Y1137469D01*
X556715Y1137420D01*
X556881Y1137391D01*
X556959Y1137381D01*
X557017D01*
X557066Y1137372D01*
X557134D01*
X557349Y1137381D01*
X557554Y1137420D01*
X557739Y1137469D01*
X557895Y1137518D01*
X558032Y1137577D01*
X558139Y1137616D01*
X558178Y1137635D01*
X558207Y1137654D01*
X558217Y1137664D01*
X558227D01*
X558402Y1137791D01*
X558549Y1137937D01*
X558675Y1138084D01*
X558783Y1138240D01*
X558861Y1138366D01*
X558909Y1138484D01*
X558929Y1138523D01*
X558949Y1138552D01*
X558958Y1138571D01*
Y1138581D01*
X559036Y1138815D01*
X559095Y1139059D01*
X559134Y1139303D01*
X559163Y1139527D01*
X559173Y1139625D01*
X559183Y1139713D01*
Y1139800D01*
X559192Y1139869D01*
Y1139927D01*
Y1139966D01*
Y1139995D01*
Y1140005D01*
X559183Y1140239D01*
X559163Y1140463D01*
X559134Y1140668D01*
X559095Y1140854D01*
X559056Y1141010D01*
X559046Y1141078D01*
X559026Y1141127D01*
X559017Y1141176D01*
X559007Y1141205D01*
X558997Y1141224D01*
Y1141234D01*
X558909Y1141449D01*
X558802Y1141644D01*
X558685Y1141800D01*
X558578Y1141936D01*
X558470Y1142044D01*
X558383Y1142122D01*
X558324Y1142170D01*
X558315Y1142190D01*
X558305D01*
X558110Y1142307D01*
X557905Y1142395D01*
X557700Y1142463D01*
X557505Y1142502D01*
X557329Y1142531D01*
X557261Y1142541D01*
X557193D01*
X557144Y1142551D01*
X557076D01*
X556842Y1142541D01*
X556637Y1142502D01*
X556451Y1142453D01*
X556305Y1142395D01*
X556178Y1142327D01*
X556091Y1142278D01*
X556032Y1142239D01*
X556013Y1142229D01*
X555857Y1142092D01*
X555730Y1141936D01*
X555613Y1141761D01*
X555525Y1141595D01*
X555457Y1141449D01*
X555427Y1141380D01*
X555398Y1141322D01*
X555379Y1141273D01*
X555369Y1141234D01*
X555359Y1141215D01*
Y1141205D01*
X554520Y1141400D01*
X554637Y1141712D01*
X554706Y1141858D01*
X554774Y1141985D01*
X554852Y1142112D01*
X554930Y1142229D01*
X554998Y1142327D01*
X555076Y1142424D01*
X555145Y1142502D01*
X555213Y1142570D01*
X555281Y1142639D01*
X555330Y1142687D01*
X555379Y1142726D01*
X555408Y1142756D01*
X555427Y1142765D01*
X555437Y1142775D01*
X555564Y1142863D01*
X555691Y1142941D01*
X555827Y1143009D01*
X555964Y1143068D01*
X556237Y1143156D01*
X556491Y1143214D01*
X556608Y1143234D01*
X556715Y1143243D01*
X556812Y1143253D01*
X556890Y1143263D01*
X556959Y1143273D01*
X557056D01*
X557368Y1143253D01*
D02*
G37*
G36*
X752489Y1253480D02*
X752665Y1253471D01*
X752987Y1253402D01*
X753133Y1253363D01*
X753279Y1253315D01*
X753406Y1253266D01*
X753523Y1253217D01*
X753630Y1253168D01*
X753718Y1253119D01*
X753796Y1253071D01*
X753865Y1253032D01*
X753923Y1252993D01*
X753962Y1252963D01*
X753982Y1252954D01*
X753991Y1252944D01*
X754118Y1252837D01*
X754235Y1252719D01*
X754430Y1252466D01*
X754606Y1252203D01*
X754733Y1251939D01*
X754791Y1251822D01*
X754830Y1251715D01*
X754869Y1251608D01*
X754908Y1251530D01*
X754928Y1251452D01*
X754947Y1251403D01*
X754957Y1251364D01*
Y1251354D01*
X754108Y1251140D01*
X754030Y1251422D01*
X753933Y1251676D01*
X753816Y1251881D01*
X753708Y1252056D01*
X753601Y1252183D01*
X753513Y1252281D01*
X753455Y1252339D01*
X753445Y1252349D01*
X753435Y1252359D01*
X753240Y1252495D01*
X753045Y1252593D01*
X752840Y1252671D01*
X752655Y1252719D01*
X752489Y1252749D01*
X752411Y1252759D01*
X752353D01*
X752304Y1252768D01*
X752236D01*
X752021Y1252759D01*
X751816Y1252719D01*
X751631Y1252671D01*
X751475Y1252622D01*
X751338Y1252563D01*
X751231Y1252524D01*
X751192Y1252505D01*
X751163Y1252486D01*
X751153Y1252476D01*
X751143D01*
X750968Y1252349D01*
X750821Y1252203D01*
X750695Y1252056D01*
X750587Y1251900D01*
X750509Y1251773D01*
X750461Y1251656D01*
X750441Y1251617D01*
X750422Y1251588D01*
X750412Y1251569D01*
Y1251559D01*
X750334Y1251325D01*
X750275Y1251081D01*
X750236Y1250837D01*
X750207Y1250613D01*
X750197Y1250515D01*
X750187Y1250427D01*
Y1250340D01*
X750178Y1250271D01*
Y1250213D01*
Y1250174D01*
Y1250145D01*
Y1250135D01*
X750187Y1249901D01*
X750207Y1249676D01*
X750236Y1249472D01*
X750275Y1249286D01*
X750314Y1249130D01*
X750324Y1249062D01*
X750343Y1249013D01*
X750353Y1248964D01*
X750363Y1248935D01*
X750373Y1248916D01*
Y1248906D01*
X750461Y1248691D01*
X750568Y1248496D01*
X750685Y1248340D01*
X750792Y1248204D01*
X750899Y1248096D01*
X750987Y1248018D01*
X751046Y1247970D01*
X751056Y1247950D01*
X751065D01*
X751260Y1247833D01*
X751465Y1247745D01*
X751670Y1247677D01*
X751865Y1247638D01*
X752041Y1247609D01*
X752109Y1247599D01*
X752177D01*
X752226Y1247589D01*
X752294D01*
X752528Y1247599D01*
X752733Y1247638D01*
X752918Y1247687D01*
X753065Y1247745D01*
X753192Y1247813D01*
X753279Y1247862D01*
X753338Y1247901D01*
X753357Y1247911D01*
X753513Y1248048D01*
X753640Y1248204D01*
X753757Y1248379D01*
X753845Y1248545D01*
X753913Y1248691D01*
X753942Y1248760D01*
X753972Y1248818D01*
X753991Y1248867D01*
X754001Y1248906D01*
X754011Y1248925D01*
Y1248935D01*
X754850Y1248740D01*
X754733Y1248428D01*
X754664Y1248282D01*
X754596Y1248155D01*
X754518Y1248028D01*
X754440Y1247911D01*
X754372Y1247813D01*
X754294Y1247716D01*
X754225Y1247638D01*
X754157Y1247570D01*
X754089Y1247501D01*
X754040Y1247453D01*
X753991Y1247414D01*
X753962Y1247384D01*
X753942Y1247375D01*
X753933Y1247365D01*
X753806Y1247277D01*
X753679Y1247199D01*
X753543Y1247131D01*
X753406Y1247072D01*
X753133Y1246984D01*
X752879Y1246926D01*
X752762Y1246906D01*
X752655Y1246897D01*
X752558Y1246887D01*
X752479Y1246877D01*
X752411Y1246867D01*
X752314D01*
X752002Y1246887D01*
X751709Y1246926D01*
X751446Y1246994D01*
X751329Y1247023D01*
X751221Y1247063D01*
X751124Y1247102D01*
X751026Y1247131D01*
X750948Y1247170D01*
X750890Y1247199D01*
X750831Y1247218D01*
X750792Y1247238D01*
X750773Y1247258D01*
X750763D01*
X750519Y1247414D01*
X750295Y1247599D01*
X750109Y1247784D01*
X749963Y1247970D01*
X749836Y1248135D01*
X749788Y1248204D01*
X749749Y1248262D01*
X749719Y1248321D01*
X749700Y1248360D01*
X749680Y1248379D01*
Y1248389D01*
X749553Y1248672D01*
X749456Y1248974D01*
X749397Y1249267D01*
X749349Y1249540D01*
X749329Y1249667D01*
X749319Y1249774D01*
X749310Y1249881D01*
Y1249969D01*
X749300Y1250037D01*
Y1250086D01*
Y1250125D01*
Y1250135D01*
X749310Y1250476D01*
X749349Y1250788D01*
X749407Y1251081D01*
X749436Y1251217D01*
X749466Y1251335D01*
X749495Y1251452D01*
X749524Y1251549D01*
X749553Y1251637D01*
X749583Y1251715D01*
X749602Y1251773D01*
X749622Y1251813D01*
X749631Y1251842D01*
Y1251852D01*
X749768Y1252134D01*
X749934Y1252378D01*
X750090Y1252593D01*
X750256Y1252759D01*
X750392Y1252895D01*
X750509Y1252993D01*
X750558Y1253022D01*
X750587Y1253051D01*
X750607Y1253061D01*
X750617Y1253071D01*
X750743Y1253149D01*
X750880Y1253207D01*
X751153Y1253315D01*
X751436Y1253383D01*
X751709Y1253441D01*
X751826Y1253451D01*
X751943Y1253471D01*
X752041Y1253480D01*
X752128D01*
X752206Y1253490D01*
X752304D01*
X752489Y1253480D01*
D02*
G37*
G36*
X757844Y1253471D02*
X758088Y1253432D01*
X758293Y1253373D01*
X758478Y1253305D01*
X758624Y1253236D01*
X758683Y1253207D01*
X758732Y1253178D01*
X758780Y1253149D01*
X758810Y1253139D01*
X758819Y1253119D01*
X758829D01*
X759014Y1252963D01*
X759171Y1252788D01*
X759307Y1252602D01*
X759424Y1252417D01*
X759512Y1252261D01*
X759541Y1252193D01*
X759570Y1252125D01*
X759590Y1252076D01*
X759609Y1252037D01*
X759619Y1252017D01*
Y1252008D01*
X759668Y1251861D01*
X759707Y1251715D01*
X759775Y1251393D01*
X759824Y1251061D01*
X759863Y1250749D01*
X759873Y1250603D01*
X759883Y1250476D01*
Y1250349D01*
X759892Y1250252D01*
Y1250164D01*
Y1250106D01*
Y1250057D01*
Y1250047D01*
Y1249833D01*
X759883Y1249628D01*
X759863Y1249442D01*
X759853Y1249267D01*
X759834Y1249111D01*
X759804Y1248964D01*
X759785Y1248828D01*
X759756Y1248711D01*
X759726Y1248604D01*
X759707Y1248506D01*
X759687Y1248428D01*
X759658Y1248369D01*
X759648Y1248321D01*
X759629Y1248282D01*
X759619Y1248262D01*
Y1248252D01*
X759512Y1248028D01*
X759385Y1247833D01*
X759249Y1247677D01*
X759122Y1247531D01*
X759005Y1247423D01*
X758917Y1247345D01*
X758878Y1247326D01*
X758849Y1247306D01*
X758839Y1247287D01*
X758829D01*
X758634Y1247170D01*
X758429Y1247092D01*
X758244Y1247033D01*
X758068Y1246984D01*
X757912Y1246965D01*
X757844Y1246955D01*
X757795D01*
X757746Y1246945D01*
X757688D01*
X757532Y1246955D01*
X757376Y1246975D01*
X757230Y1247004D01*
X757093Y1247033D01*
X756849Y1247131D01*
X756742Y1247189D01*
X756644Y1247238D01*
X756547Y1247297D01*
X756469Y1247355D01*
X756400Y1247404D01*
X756352Y1247443D01*
X756303Y1247482D01*
X756274Y1247511D01*
X756254Y1247531D01*
X756244Y1247540D01*
X756147Y1247657D01*
X756059Y1247775D01*
X755981Y1247901D01*
X755922Y1248038D01*
X755864Y1248165D01*
X755815Y1248301D01*
X755747Y1248545D01*
X755727Y1248662D01*
X755708Y1248769D01*
X755698Y1248867D01*
X755688Y1248945D01*
X755679Y1249013D01*
Y1249072D01*
Y1249101D01*
Y1249111D01*
X755688Y1249286D01*
X755698Y1249452D01*
X755727Y1249598D01*
X755767Y1249745D01*
X755806Y1249881D01*
X755854Y1250008D01*
X755903Y1250125D01*
X755952Y1250223D01*
X756001Y1250320D01*
X756049Y1250398D01*
X756098Y1250467D01*
X756137Y1250525D01*
X756176Y1250574D01*
X756205Y1250603D01*
X756215Y1250622D01*
X756225Y1250632D01*
X756332Y1250730D01*
X756440Y1250818D01*
X756556Y1250896D01*
X756664Y1250964D01*
X756781Y1251022D01*
X756888Y1251071D01*
X757103Y1251140D01*
X757288Y1251179D01*
X757366Y1251188D01*
X757434Y1251198D01*
X757493Y1251208D01*
X757571D01*
X757746Y1251198D01*
X757912Y1251169D01*
X758059Y1251140D01*
X758185Y1251091D01*
X758293Y1251052D01*
X758380Y1251022D01*
X758429Y1250993D01*
X758449Y1250983D01*
X758595Y1250886D01*
X758722Y1250788D01*
X758839Y1250681D01*
X758927Y1250583D01*
X759005Y1250506D01*
X759053Y1250427D01*
X759092Y1250388D01*
X759102Y1250369D01*
Y1250437D01*
Y1250486D01*
Y1250515D01*
Y1250525D01*
Y1250710D01*
X759083Y1250886D01*
X759063Y1251042D01*
X759044Y1251188D01*
X759024Y1251315D01*
X759005Y1251413D01*
X758995Y1251442D01*
Y1251471D01*
X758985Y1251481D01*
Y1251491D01*
X758936Y1251656D01*
X758888Y1251803D01*
X758839Y1251929D01*
X758800Y1252037D01*
X758751Y1252125D01*
X758722Y1252193D01*
X758702Y1252232D01*
X758692Y1252242D01*
X758624Y1252339D01*
X758546Y1252427D01*
X758478Y1252505D01*
X758400Y1252563D01*
X758341Y1252612D01*
X758293Y1252651D01*
X758254Y1252671D01*
X758244Y1252681D01*
X758137Y1252739D01*
X758029Y1252778D01*
X757922Y1252807D01*
X757824Y1252827D01*
X757737Y1252837D01*
X757668Y1252846D01*
X757610D01*
X757454Y1252837D01*
X757317Y1252807D01*
X757200Y1252768D01*
X757103Y1252729D01*
X757015Y1252690D01*
X756956Y1252651D01*
X756917Y1252622D01*
X756908Y1252612D01*
X756810Y1252515D01*
X756732Y1252388D01*
X756674Y1252261D01*
X756625Y1252134D01*
X756586Y1252027D01*
X756566Y1251929D01*
X756556Y1251890D01*
X756547Y1251861D01*
Y1251852D01*
Y1251842D01*
X755796Y1251900D01*
X755844Y1252173D01*
X755922Y1252407D01*
X756010Y1252612D01*
X756108Y1252778D01*
X756205Y1252905D01*
X756283Y1253002D01*
X756342Y1253061D01*
X756352Y1253071D01*
X756361Y1253080D01*
X756556Y1253217D01*
X756752Y1253315D01*
X756956Y1253392D01*
X757151Y1253441D01*
X757327Y1253471D01*
X757405Y1253480D01*
X757464D01*
X757522Y1253490D01*
X757590D01*
X757844Y1253471D01*
D02*
G37*
G36*
X734941Y1215565D02*
X735185Y1215516D01*
X735409Y1215448D01*
X735594Y1215370D01*
X735741Y1215282D01*
X735799Y1215243D01*
X735848Y1215214D01*
X735897Y1215185D01*
X735926Y1215165D01*
X735936Y1215155D01*
X735945Y1215146D01*
X736121Y1214970D01*
X736257Y1214775D01*
X736375Y1214570D01*
X736453Y1214375D01*
X736521Y1214200D01*
X736540Y1214121D01*
X736560Y1214053D01*
X736570Y1214005D01*
X736579Y1213965D01*
X736589Y1213936D01*
Y1213926D01*
X735799Y1213790D01*
X735760Y1213995D01*
X735702Y1214170D01*
X735643Y1214317D01*
X735575Y1214434D01*
X735516Y1214531D01*
X735468Y1214599D01*
X735428Y1214638D01*
X735419Y1214648D01*
X735292Y1214746D01*
X735165Y1214814D01*
X735038Y1214873D01*
X734911Y1214902D01*
X734814Y1214921D01*
X734726Y1214941D01*
X734648D01*
X734482Y1214931D01*
X734336Y1214892D01*
X734209Y1214853D01*
X734102Y1214794D01*
X734014Y1214746D01*
X733946Y1214697D01*
X733907Y1214658D01*
X733897Y1214648D01*
X733800Y1214541D01*
X733731Y1214414D01*
X733673Y1214297D01*
X733644Y1214190D01*
X733624Y1214082D01*
X733605Y1214005D01*
Y1213956D01*
Y1213946D01*
Y1213936D01*
X733624Y1213741D01*
X733673Y1213575D01*
X733731Y1213439D01*
X733809Y1213332D01*
X733887Y1213244D01*
X733946Y1213175D01*
X733995Y1213136D01*
X734014Y1213127D01*
X734170Y1213039D01*
X734326Y1212980D01*
X734473Y1212932D01*
X734609Y1212902D01*
X734736Y1212883D01*
X734824Y1212873D01*
X734950D01*
X734990Y1212883D01*
X735038D01*
X735126Y1212190D01*
X735009Y1212219D01*
X734902Y1212239D01*
X734804Y1212249D01*
X734726Y1212259D01*
X734658Y1212268D01*
X734570D01*
X734375Y1212249D01*
X734209Y1212210D01*
X734053Y1212161D01*
X733926Y1212093D01*
X733819Y1212025D01*
X733741Y1211976D01*
X733702Y1211937D01*
X733683Y1211917D01*
X733566Y1211781D01*
X733478Y1211634D01*
X733410Y1211478D01*
X733371Y1211342D01*
X733341Y1211215D01*
X733332Y1211117D01*
X733322Y1211078D01*
Y1211049D01*
Y1211039D01*
Y1211030D01*
X733341Y1210825D01*
X733380Y1210639D01*
X733439Y1210474D01*
X733507Y1210337D01*
X733585Y1210220D01*
X733644Y1210142D01*
X733683Y1210093D01*
X733702Y1210074D01*
X733848Y1209947D01*
X734005Y1209849D01*
X734161Y1209791D01*
X734317Y1209742D01*
X734443Y1209713D01*
X734541Y1209703D01*
X734580Y1209693D01*
X734638D01*
X734804Y1209703D01*
X734960Y1209742D01*
X735097Y1209791D01*
X735204Y1209840D01*
X735302Y1209898D01*
X735370Y1209937D01*
X735409Y1209976D01*
X735428Y1209986D01*
X735536Y1210113D01*
X735633Y1210259D01*
X735711Y1210425D01*
X735770Y1210581D01*
X735819Y1210727D01*
X735848Y1210844D01*
X735867Y1210883D01*
Y1210922D01*
X735877Y1210942D01*
Y1210952D01*
X736667Y1210844D01*
X736648Y1210698D01*
X736618Y1210561D01*
X736531Y1210308D01*
X736433Y1210083D01*
X736316Y1209888D01*
X736267Y1209810D01*
X736209Y1209742D01*
X736160Y1209684D01*
X736121Y1209625D01*
X736082Y1209586D01*
X736053Y1209557D01*
X736043Y1209547D01*
X736033Y1209537D01*
X735926Y1209449D01*
X735809Y1209371D01*
X735702Y1209303D01*
X735584Y1209255D01*
X735350Y1209157D01*
X735126Y1209098D01*
X735029Y1209079D01*
X734931Y1209069D01*
X734853Y1209059D01*
X734775Y1209050D01*
X734716Y1209040D01*
X734638D01*
X734473Y1209050D01*
X734307Y1209069D01*
X734151Y1209089D01*
X734005Y1209128D01*
X733868Y1209176D01*
X733741Y1209225D01*
X733624Y1209274D01*
X733517Y1209333D01*
X733429Y1209381D01*
X733341Y1209430D01*
X733263Y1209479D01*
X733205Y1209528D01*
X733156Y1209567D01*
X733127Y1209586D01*
X733107Y1209606D01*
X733097Y1209615D01*
X732990Y1209732D01*
X732893Y1209849D01*
X732814Y1209967D01*
X732746Y1210083D01*
X732678Y1210201D01*
X732629Y1210327D01*
X732561Y1210552D01*
X732532Y1210649D01*
X732512Y1210747D01*
X732502Y1210825D01*
X732493Y1210903D01*
X732483Y1210961D01*
Y1211000D01*
Y1211030D01*
Y1211039D01*
X732493Y1211264D01*
X732532Y1211469D01*
X732580Y1211644D01*
X732639Y1211790D01*
X732707Y1211907D01*
X732756Y1211995D01*
X732795Y1212054D01*
X732805Y1212073D01*
X732932Y1212219D01*
X733078Y1212337D01*
X733224Y1212434D01*
X733361Y1212502D01*
X733487Y1212561D01*
X733585Y1212590D01*
X733624Y1212610D01*
X733653D01*
X733673Y1212619D01*
X733683D01*
X733527Y1212698D01*
X733390Y1212795D01*
X733283Y1212883D01*
X733185Y1212971D01*
X733117Y1213049D01*
X733058Y1213107D01*
X733029Y1213146D01*
X733019Y1213166D01*
X732941Y1213292D01*
X732893Y1213429D01*
X732853Y1213556D01*
X732824Y1213673D01*
X732805Y1213770D01*
X732795Y1213848D01*
Y1213897D01*
Y1213917D01*
X732805Y1214082D01*
X732834Y1214229D01*
X732873Y1214365D01*
X732912Y1214492D01*
X732951Y1214590D01*
X732990Y1214668D01*
X733019Y1214716D01*
X733029Y1214736D01*
X733127Y1214873D01*
X733234Y1214999D01*
X733351Y1215107D01*
X733458Y1215194D01*
X733556Y1215263D01*
X733634Y1215311D01*
X733692Y1215341D01*
X733702Y1215350D01*
X733712D01*
X733878Y1215428D01*
X734044Y1215487D01*
X734209Y1215526D01*
X734356Y1215555D01*
X734482Y1215575D01*
X734580Y1215584D01*
X734804D01*
X734941Y1215565D01*
D02*
G37*
G36*
X739291Y1215428D02*
X739398Y1215272D01*
X739515Y1215126D01*
X739632Y1214990D01*
X739740Y1214882D01*
X739827Y1214794D01*
X739886Y1214736D01*
X739896Y1214726D01*
X739905Y1214716D01*
X740091Y1214560D01*
X740286Y1214414D01*
X740481Y1214287D01*
X740656Y1214180D01*
X740813Y1214092D01*
X740881Y1214063D01*
X740939Y1214034D01*
X740978Y1214005D01*
X741017Y1213985D01*
X741037Y1213975D01*
X741047D01*
Y1213205D01*
X740910Y1213263D01*
X740764Y1213332D01*
X740627Y1213390D01*
X740500Y1213458D01*
X740393Y1213517D01*
X740305Y1213566D01*
X740247Y1213605D01*
X740237Y1213614D01*
X740227D01*
X740061Y1213712D01*
X739915Y1213819D01*
X739788Y1213907D01*
X739681Y1213995D01*
X739593Y1214063D01*
X739525Y1214112D01*
X739486Y1214151D01*
X739476Y1214161D01*
Y1209147D01*
X738686D01*
Y1215584D01*
X739203D01*
X739291Y1215428D01*
D02*
G37*
G36*
X745328Y1215643D02*
X745621Y1215604D01*
X745884Y1215536D01*
X746001Y1215507D01*
X746109Y1215468D01*
X746206Y1215428D01*
X746304Y1215399D01*
X746382Y1215360D01*
X746440Y1215331D01*
X746499Y1215311D01*
X746538Y1215292D01*
X746557Y1215272D01*
X746567D01*
X746811Y1215116D01*
X747035Y1214931D01*
X747221Y1214746D01*
X747367Y1214560D01*
X747494Y1214395D01*
X747542Y1214326D01*
X747581Y1214268D01*
X747611Y1214209D01*
X747630Y1214170D01*
X747650Y1214151D01*
Y1214141D01*
X747776Y1213858D01*
X747874Y1213556D01*
X747933Y1213263D01*
X747981Y1212990D01*
X748001Y1212863D01*
X748011Y1212756D01*
X748020Y1212649D01*
Y1212561D01*
X748030Y1212493D01*
Y1212444D01*
Y1212405D01*
Y1212395D01*
X748020Y1212054D01*
X747981Y1211742D01*
X747923Y1211449D01*
X747894Y1211312D01*
X747864Y1211195D01*
X747835Y1211078D01*
X747806Y1210981D01*
X747776Y1210893D01*
X747747Y1210815D01*
X747728Y1210757D01*
X747708Y1210717D01*
X747699Y1210688D01*
Y1210678D01*
X747562Y1210396D01*
X747396Y1210152D01*
X747240Y1209937D01*
X747074Y1209771D01*
X746938Y1209635D01*
X746821Y1209537D01*
X746772Y1209508D01*
X746743Y1209479D01*
X746723Y1209469D01*
X746713Y1209459D01*
X746587Y1209381D01*
X746450Y1209323D01*
X746177Y1209215D01*
X745894Y1209147D01*
X745621Y1209089D01*
X745504Y1209079D01*
X745387Y1209059D01*
X745289Y1209050D01*
X745202D01*
X745124Y1209040D01*
X745026D01*
X744841Y1209050D01*
X744665Y1209059D01*
X744343Y1209128D01*
X744197Y1209167D01*
X744051Y1209215D01*
X743924Y1209264D01*
X743807Y1209313D01*
X743699Y1209362D01*
X743612Y1209410D01*
X743534Y1209459D01*
X743465Y1209498D01*
X743407Y1209537D01*
X743368Y1209567D01*
X743348Y1209576D01*
X743339Y1209586D01*
X743212Y1209693D01*
X743095Y1209810D01*
X742900Y1210064D01*
X742724Y1210327D01*
X742597Y1210591D01*
X742539Y1210708D01*
X742500Y1210815D01*
X742461Y1210922D01*
X742422Y1211000D01*
X742402Y1211078D01*
X742383Y1211127D01*
X742373Y1211166D01*
Y1211176D01*
X743222Y1211391D01*
X743300Y1211108D01*
X743397Y1210854D01*
X743514Y1210649D01*
X743622Y1210474D01*
X743729Y1210347D01*
X743817Y1210249D01*
X743875Y1210191D01*
X743885Y1210181D01*
X743895Y1210171D01*
X744090Y1210035D01*
X744285Y1209937D01*
X744490Y1209859D01*
X744675Y1209810D01*
X744841Y1209781D01*
X744919Y1209771D01*
X744977D01*
X745026Y1209762D01*
X745094D01*
X745309Y1209771D01*
X745514Y1209810D01*
X745699Y1209859D01*
X745855Y1209908D01*
X745992Y1209967D01*
X746099Y1210005D01*
X746138Y1210025D01*
X746167Y1210044D01*
X746177Y1210054D01*
X746187D01*
X746362Y1210181D01*
X746509Y1210327D01*
X746635Y1210474D01*
X746743Y1210630D01*
X746821Y1210757D01*
X746869Y1210873D01*
X746889Y1210913D01*
X746908Y1210942D01*
X746918Y1210961D01*
Y1210971D01*
X746996Y1211205D01*
X747055Y1211449D01*
X747094Y1211693D01*
X747123Y1211917D01*
X747133Y1212015D01*
X747142Y1212103D01*
Y1212190D01*
X747152Y1212259D01*
Y1212317D01*
Y1212356D01*
Y1212385D01*
Y1212395D01*
X747142Y1212629D01*
X747123Y1212853D01*
X747094Y1213058D01*
X747055Y1213244D01*
X747016Y1213400D01*
X747006Y1213468D01*
X746986Y1213517D01*
X746977Y1213566D01*
X746967Y1213595D01*
X746957Y1213614D01*
Y1213624D01*
X746869Y1213839D01*
X746762Y1214034D01*
X746645Y1214190D01*
X746538Y1214326D01*
X746431Y1214434D01*
X746343Y1214512D01*
X746284Y1214560D01*
X746274Y1214580D01*
X746265D01*
X746070Y1214697D01*
X745865Y1214785D01*
X745660Y1214853D01*
X745465Y1214892D01*
X745289Y1214921D01*
X745221Y1214931D01*
X745153D01*
X745104Y1214941D01*
X745036D01*
X744802Y1214931D01*
X744597Y1214892D01*
X744411Y1214843D01*
X744265Y1214785D01*
X744138Y1214716D01*
X744051Y1214668D01*
X743992Y1214629D01*
X743973Y1214619D01*
X743817Y1214482D01*
X743690Y1214326D01*
X743573Y1214151D01*
X743485Y1213985D01*
X743417Y1213839D01*
X743387Y1213770D01*
X743358Y1213712D01*
X743339Y1213663D01*
X743329Y1213624D01*
X743319Y1213605D01*
Y1213595D01*
X742480Y1213790D01*
X742597Y1214102D01*
X742666Y1214248D01*
X742734Y1214375D01*
X742812Y1214502D01*
X742890Y1214619D01*
X742958Y1214716D01*
X743036Y1214814D01*
X743105Y1214892D01*
X743173Y1214960D01*
X743241Y1215029D01*
X743290Y1215077D01*
X743339Y1215116D01*
X743368Y1215146D01*
X743387Y1215155D01*
X743397Y1215165D01*
X743524Y1215253D01*
X743651Y1215331D01*
X743787Y1215399D01*
X743924Y1215458D01*
X744197Y1215546D01*
X744451Y1215604D01*
X744568Y1215624D01*
X744675Y1215633D01*
X744772Y1215643D01*
X744850Y1215653D01*
X744919Y1215663D01*
X745016D01*
X745328Y1215643D01*
D02*
G37*
G36*
X333296Y1134308D02*
X333462Y1134289D01*
X333608Y1134260D01*
X333754Y1134230D01*
X333881Y1134182D01*
X334008Y1134133D01*
X334115Y1134084D01*
X334222Y1134025D01*
X334310Y1133967D01*
X334388Y1133918D01*
X334457Y1133869D01*
X334515Y1133821D01*
X334564Y1133791D01*
X334593Y1133762D01*
X334613Y1133743D01*
X334622Y1133733D01*
X334730Y1133626D01*
X334818Y1133509D01*
X334896Y1133391D01*
X334964Y1133265D01*
X335022Y1133148D01*
X335061Y1133031D01*
X335139Y1132806D01*
X335159Y1132709D01*
X335178Y1132611D01*
X335188Y1132533D01*
X335198Y1132455D01*
X335208Y1132397D01*
Y1132319D01*
X335188Y1132085D01*
X335139Y1131860D01*
X335081Y1131655D01*
X335003Y1131480D01*
X334925Y1131324D01*
X334896Y1131265D01*
X334866Y1131207D01*
X334837Y1131168D01*
X334818Y1131138D01*
X334808Y1131119D01*
X334798Y1131109D01*
X336524Y1131460D01*
Y1134016D01*
X337275D01*
Y1130836D01*
X333988Y1130212D01*
X333881Y1130953D01*
X333979Y1131021D01*
X334067Y1131099D01*
X334145Y1131177D01*
X334213Y1131246D01*
X334262Y1131314D01*
X334301Y1131373D01*
X334320Y1131412D01*
X334330Y1131421D01*
X334388Y1131538D01*
X334437Y1131655D01*
X334466Y1131772D01*
X334496Y1131880D01*
X334505Y1131977D01*
X334515Y1132046D01*
Y1132114D01*
X334496Y1132328D01*
X334457Y1132523D01*
X334388Y1132699D01*
X334320Y1132835D01*
X334252Y1132953D01*
X334184Y1133031D01*
X334145Y1133079D01*
X334125Y1133099D01*
X333969Y1133226D01*
X333793Y1133323D01*
X333618Y1133391D01*
X333452Y1133430D01*
X333296Y1133460D01*
X333228Y1133469D01*
X333169D01*
X333130Y1133479D01*
X333091D01*
X333072D01*
X333062D01*
X332808Y1133460D01*
X332584Y1133421D01*
X332389Y1133353D01*
X332223Y1133284D01*
X332096Y1133216D01*
X331999Y1133148D01*
X331940Y1133109D01*
X331931Y1133089D01*
X331921D01*
X331843Y1133011D01*
X331784Y1132933D01*
X331677Y1132777D01*
X331609Y1132611D01*
X331550Y1132465D01*
X331521Y1132328D01*
X331511Y1132221D01*
X331501Y1132182D01*
Y1132123D01*
X331511Y1131958D01*
X331550Y1131802D01*
X331599Y1131665D01*
X331648Y1131548D01*
X331706Y1131451D01*
X331745Y1131382D01*
X331784Y1131343D01*
X331794Y1131324D01*
X331921Y1131207D01*
X332067Y1131119D01*
X332213Y1131041D01*
X332360Y1130992D01*
X332496Y1130953D01*
X332603Y1130924D01*
X332643Y1130914D01*
X332672Y1130904D01*
X332691D01*
X332701D01*
X332643Y1130075D01*
X332496Y1130095D01*
X332350Y1130124D01*
X332096Y1130202D01*
X331872Y1130309D01*
X331687Y1130417D01*
X331609Y1130475D01*
X331540Y1130524D01*
X331482Y1130573D01*
X331433Y1130612D01*
X331394Y1130651D01*
X331365Y1130680D01*
X331355Y1130690D01*
X331345Y1130699D01*
X331258Y1130807D01*
X331189Y1130924D01*
X331121Y1131041D01*
X331062Y1131158D01*
X330975Y1131392D01*
X330916Y1131616D01*
X330897Y1131724D01*
X330887Y1131821D01*
X330877Y1131909D01*
X330867Y1131977D01*
X330858Y1132036D01*
Y1132123D01*
X330867Y1132319D01*
X330887Y1132504D01*
X330926Y1132670D01*
X330975Y1132835D01*
X331033Y1132982D01*
X331101Y1133128D01*
X331170Y1133255D01*
X331248Y1133362D01*
X331316Y1133469D01*
X331384Y1133557D01*
X331452Y1133635D01*
X331511Y1133694D01*
X331560Y1133743D01*
X331599Y1133782D01*
X331618Y1133801D01*
X331628Y1133811D01*
X331745Y1133899D01*
X331872Y1133977D01*
X331999Y1134045D01*
X332135Y1134103D01*
X332379Y1134191D01*
X332613Y1134260D01*
X332720Y1134279D01*
X332818Y1134289D01*
X332906Y1134299D01*
X332984Y1134308D01*
X333042Y1134318D01*
X333091D01*
X333120D01*
X333130D01*
X333296Y1134308D01*
D02*
G37*
G36*
X337373Y1128134D02*
X333667D01*
X333452D01*
X333247Y1128115D01*
X333072Y1128095D01*
X332906Y1128076D01*
X332750Y1128046D01*
X332623Y1128008D01*
X332506Y1127969D01*
X332399Y1127939D01*
X332311Y1127900D01*
X332233Y1127861D01*
X332174Y1127832D01*
X332126Y1127793D01*
X332086Y1127773D01*
X332057Y1127754D01*
X332048Y1127734D01*
X332038D01*
X331960Y1127656D01*
X331901Y1127559D01*
X331794Y1127354D01*
X331726Y1127139D01*
X331667Y1126915D01*
X331638Y1126720D01*
X331628Y1126632D01*
Y1126554D01*
X331618Y1126486D01*
Y1126398D01*
X331628Y1126203D01*
X331648Y1126028D01*
X331687Y1125872D01*
X331726Y1125735D01*
X331755Y1125628D01*
X331794Y1125550D01*
X331813Y1125501D01*
X331823Y1125481D01*
X331911Y1125345D01*
X332009Y1125238D01*
X332116Y1125140D01*
X332213Y1125072D01*
X332301Y1125013D01*
X332369Y1124974D01*
X332418Y1124955D01*
X332438Y1124945D01*
X332516Y1124916D01*
X332603Y1124896D01*
X332799Y1124857D01*
X333003Y1124838D01*
X333198Y1124818D01*
X333384Y1124808D01*
X333462Y1124799D01*
X333530D01*
X333589D01*
X333628D01*
X333657D01*
X333667D01*
X337373D01*
Y1123950D01*
X333667D01*
X333481D01*
X333306Y1123960D01*
X333140Y1123969D01*
X332984Y1123989D01*
X332847Y1124008D01*
X332711Y1124028D01*
X332594Y1124047D01*
X332486Y1124077D01*
X332389Y1124096D01*
X332301Y1124116D01*
X332223Y1124135D01*
X332164Y1124155D01*
X332116Y1124174D01*
X332086Y1124184D01*
X332067Y1124194D01*
X332057D01*
X331852Y1124301D01*
X331667Y1124428D01*
X331521Y1124555D01*
X331394Y1124691D01*
X331287Y1124808D01*
X331218Y1124916D01*
X331189Y1124955D01*
X331179Y1124974D01*
X331160Y1124994D01*
Y1125003D01*
X331062Y1125228D01*
X330984Y1125481D01*
X330936Y1125725D01*
X330897Y1125959D01*
X330887Y1126067D01*
X330877Y1126164D01*
X330867Y1126252D01*
Y1126330D01*
X330858Y1126388D01*
Y1126476D01*
X330877Y1126808D01*
X330916Y1127100D01*
X330936Y1127237D01*
X330965Y1127354D01*
X331004Y1127471D01*
X331033Y1127569D01*
X331062Y1127656D01*
X331101Y1127744D01*
X331131Y1127812D01*
X331150Y1127861D01*
X331179Y1127910D01*
X331189Y1127939D01*
X331209Y1127959D01*
Y1127969D01*
X331355Y1128164D01*
X331501Y1128339D01*
X331657Y1128476D01*
X331804Y1128583D01*
X331940Y1128661D01*
X332038Y1128719D01*
X332077Y1128739D01*
X332106Y1128749D01*
X332126Y1128758D01*
X332135D01*
X332360Y1128837D01*
X332613Y1128885D01*
X332867Y1128924D01*
X333111Y1128954D01*
X333228Y1128963D01*
X333335Y1128973D01*
X333423D01*
X333511Y1128983D01*
X333579D01*
X333628D01*
X333657D01*
X333667D01*
X337373D01*
Y1128134D01*
D02*
G37*
G36*
X278583Y1134220D02*
X278739Y1134201D01*
X278875Y1134171D01*
X279012Y1134142D01*
X279129Y1134103D01*
X279236Y1134064D01*
X279334Y1134025D01*
X279412Y1133986D01*
X279490Y1133937D01*
X279548Y1133908D01*
X279607Y1133869D01*
X279646Y1133840D01*
X279675Y1133820D01*
X279685Y1133801D01*
X279694D01*
X279782Y1133713D01*
X279851Y1133615D01*
X279919Y1133518D01*
X279968Y1133411D01*
X280055Y1133196D01*
X280114Y1132991D01*
X280143Y1132806D01*
X280153Y1132718D01*
X280163Y1132650D01*
X280172Y1132591D01*
Y1132513D01*
X280163Y1132309D01*
X280133Y1132113D01*
X280104Y1131948D01*
X280055Y1131801D01*
X280016Y1131684D01*
X279987Y1131597D01*
X279958Y1131538D01*
X279948Y1131518D01*
X279851Y1131372D01*
X279743Y1131236D01*
X279636Y1131128D01*
X279519Y1131040D01*
X279421Y1130982D01*
X279343Y1130933D01*
X279295Y1130904D01*
X279275Y1130894D01*
X279100Y1130826D01*
X278895Y1130777D01*
X278690Y1130748D01*
X278485Y1130719D01*
X278309Y1130709D01*
X278231D01*
X278163Y1130699D01*
X278105D01*
X278066D01*
X278036D01*
X278027D01*
X273657D01*
Y1131548D01*
X278075D01*
X278270D01*
X278436Y1131567D01*
X278573Y1131577D01*
X278690Y1131597D01*
X278778Y1131616D01*
X278836Y1131626D01*
X278875Y1131645D01*
X278885D01*
X278973Y1131684D01*
X279051Y1131733D01*
X279119Y1131782D01*
X279168Y1131840D01*
X279217Y1131889D01*
X279246Y1131928D01*
X279265Y1131957D01*
X279275Y1131967D01*
X279324Y1132055D01*
X279363Y1132143D01*
X279382Y1132240D01*
X279402Y1132328D01*
X279412Y1132396D01*
X279421Y1132455D01*
Y1132513D01*
X279412Y1132669D01*
X279382Y1132806D01*
X279334Y1132923D01*
X279285Y1133020D01*
X279246Y1133099D01*
X279197Y1133147D01*
X279168Y1133186D01*
X279158Y1133196D01*
X279100Y1133235D01*
X279031Y1133274D01*
X278885Y1133342D01*
X278719Y1133391D01*
X278544Y1133420D01*
X278388Y1133450D01*
X278319Y1133459D01*
X278261D01*
X278212Y1133469D01*
X278173D01*
X278153D01*
X278144D01*
X278251Y1134230D01*
X278426D01*
X278583Y1134220D01*
D02*
G37*
G36*
X278368Y1129636D02*
X278514Y1129616D01*
X278651Y1129597D01*
X278787Y1129558D01*
X279021Y1129461D01*
X279129Y1129412D01*
X279226Y1129353D01*
X279314Y1129304D01*
X279392Y1129256D01*
X279460Y1129207D01*
X279519Y1129158D01*
X279558Y1129119D01*
X279587Y1129100D01*
X279607Y1129080D01*
X279617Y1129070D01*
X279714Y1128953D01*
X279802Y1128836D01*
X279870Y1128709D01*
X279938Y1128583D01*
X279987Y1128456D01*
X280036Y1128329D01*
X280104Y1128085D01*
X280124Y1127968D01*
X280143Y1127871D01*
X280153Y1127773D01*
X280163Y1127695D01*
X280172Y1127627D01*
Y1127539D01*
X280163Y1127363D01*
X280153Y1127198D01*
X280124Y1127042D01*
X280085Y1126905D01*
X280046Y1126768D01*
X279997Y1126642D01*
X279948Y1126525D01*
X279890Y1126417D01*
X279841Y1126320D01*
X279792Y1126242D01*
X279743Y1126173D01*
X279704Y1126115D01*
X279665Y1126066D01*
X279636Y1126037D01*
X279626Y1126017D01*
X279617Y1126008D01*
X279509Y1125900D01*
X279402Y1125813D01*
X279285Y1125735D01*
X279168Y1125666D01*
X279051Y1125608D01*
X278934Y1125569D01*
X278719Y1125491D01*
X278524Y1125452D01*
X278436Y1125442D01*
X278368Y1125432D01*
X278309Y1125423D01*
X278270D01*
X278241D01*
X278231D01*
X278017Y1125432D01*
X277822Y1125471D01*
X277646Y1125520D01*
X277500Y1125579D01*
X277373Y1125637D01*
X277285Y1125686D01*
X277227Y1125725D01*
X277207Y1125735D01*
X277061Y1125861D01*
X276924Y1126008D01*
X276817Y1126154D01*
X276729Y1126300D01*
X276671Y1126427D01*
X276622Y1126534D01*
X276603Y1126573D01*
X276593Y1126603D01*
X276583Y1126622D01*
Y1126632D01*
X276515Y1126466D01*
X276427Y1126320D01*
X276349Y1126193D01*
X276271Y1126096D01*
X276193Y1126017D01*
X276134Y1125959D01*
X276095Y1125930D01*
X276086Y1125920D01*
X275959Y1125842D01*
X275822Y1125783D01*
X275695Y1125744D01*
X275569Y1125715D01*
X275461Y1125696D01*
X275383Y1125686D01*
X275325D01*
X275305D01*
X275179Y1125696D01*
X275052Y1125705D01*
X274827Y1125764D01*
X274623Y1125852D01*
X274447Y1125939D01*
X274310Y1126037D01*
X274252Y1126086D01*
X274203Y1126125D01*
X274164Y1126154D01*
X274135Y1126183D01*
X274125Y1126193D01*
X274115Y1126203D01*
X274028Y1126300D01*
X273950Y1126408D01*
X273891Y1126515D01*
X273833Y1126632D01*
X273745Y1126856D01*
X273686Y1127071D01*
X273657Y1127266D01*
X273638Y1127344D01*
Y1127422D01*
X273628Y1127480D01*
Y1127559D01*
X273638Y1127715D01*
X273647Y1127851D01*
X273706Y1128114D01*
X273774Y1128348D01*
X273862Y1128534D01*
X273911Y1128622D01*
X273950Y1128690D01*
X273998Y1128748D01*
X274028Y1128807D01*
X274057Y1128846D01*
X274086Y1128875D01*
X274096Y1128885D01*
X274106Y1128895D01*
X274193Y1128982D01*
X274291Y1129061D01*
X274389Y1129129D01*
X274496Y1129178D01*
X274691Y1129275D01*
X274876Y1129334D01*
X275042Y1129363D01*
X275110Y1129373D01*
X275169Y1129382D01*
X275218Y1129392D01*
X275257D01*
X275276D01*
X275286D01*
X275452Y1129382D01*
X275598Y1129353D01*
X275735Y1129314D01*
X275852Y1129275D01*
X275949Y1129236D01*
X276017Y1129197D01*
X276056Y1129168D01*
X276076Y1129158D01*
X276193Y1129061D01*
X276290Y1128943D01*
X276378Y1128827D01*
X276456Y1128700D01*
X276505Y1128592D01*
X276554Y1128505D01*
X276573Y1128446D01*
X276583Y1128436D01*
Y1128427D01*
X276651Y1128631D01*
X276739Y1128817D01*
X276837Y1128973D01*
X276934Y1129100D01*
X277022Y1129197D01*
X277100Y1129275D01*
X277149Y1129314D01*
X277159Y1129334D01*
X277168D01*
X277334Y1129441D01*
X277510Y1129509D01*
X277685Y1129568D01*
X277851Y1129607D01*
X277988Y1129626D01*
X278056Y1129636D01*
X278105D01*
X278153Y1129646D01*
X278183D01*
X278202D01*
X278212D01*
X278368Y1129636D01*
D02*
G37*
%LPC*%
G36*
X499211Y1171088D02*
Y1168220D01*
X501220D01*
X499211Y1171088D01*
D02*
G37*
G36*
X498332Y1095561D02*
X498254D01*
X498088Y1095551D01*
X497952Y1095512D01*
X497825Y1095463D01*
X497718Y1095415D01*
X497630Y1095356D01*
X497562Y1095307D01*
X497523Y1095268D01*
X497513Y1095258D01*
X497415Y1095141D01*
X497337Y1095024D01*
X497289Y1094898D01*
X497250Y1094790D01*
X497230Y1094693D01*
X497211Y1094605D01*
Y1094556D01*
Y1094546D01*
Y1094537D01*
X497220Y1094390D01*
X497259Y1094254D01*
X497298Y1094127D01*
X497357Y1094029D01*
X497406Y1093942D01*
X497454Y1093883D01*
X497494Y1093844D01*
X497503Y1093834D01*
X497620Y1093737D01*
X497747Y1093669D01*
X497874Y1093620D01*
X497991Y1093591D01*
X498098Y1093571D01*
X498176Y1093552D01*
X498254D01*
X498420Y1093561D01*
X498566Y1093600D01*
X498703Y1093639D01*
X498810Y1093698D01*
X498898Y1093747D01*
X498966Y1093795D01*
X499005Y1093825D01*
X499015Y1093834D01*
X499113Y1093951D01*
X499181Y1094078D01*
X499230Y1094195D01*
X499259Y1094312D01*
X499278Y1094420D01*
X499298Y1094498D01*
Y1094556D01*
Y1094576D01*
X499288Y1094722D01*
X499249Y1094849D01*
X499200Y1094976D01*
X499152Y1095073D01*
X499093Y1095151D01*
X499054Y1095219D01*
X499015Y1095258D01*
X499005Y1095268D01*
X498888Y1095366D01*
X498761Y1095434D01*
X498635Y1095492D01*
X498518Y1095522D01*
X498410Y1095541D01*
X498332Y1095561D01*
D02*
G37*
G36*
X498322Y1092908D02*
X498274D01*
X498069Y1092888D01*
X497884Y1092849D01*
X497718Y1092791D01*
X497581Y1092722D01*
X497474Y1092645D01*
X497396Y1092586D01*
X497347Y1092547D01*
X497328Y1092527D01*
X497201Y1092381D01*
X497103Y1092225D01*
X497035Y1092069D01*
X496996Y1091923D01*
X496967Y1091786D01*
X496957Y1091689D01*
X496947Y1091650D01*
Y1091620D01*
Y1091601D01*
Y1091591D01*
X496967Y1091386D01*
X497006Y1091211D01*
X497064Y1091045D01*
X497133Y1090918D01*
X497201Y1090811D01*
X497259Y1090733D01*
X497298Y1090684D01*
X497318Y1090665D01*
X497464Y1090547D01*
X497611Y1090460D01*
X497767Y1090391D01*
X497913Y1090352D01*
X498049Y1090323D01*
X498147Y1090313D01*
X498186Y1090304D01*
X498245D01*
X498381Y1090313D01*
X498508Y1090333D01*
X498615Y1090352D01*
X498722Y1090391D01*
X498810Y1090421D01*
X498869Y1090440D01*
X498908Y1090460D01*
X498927Y1090469D01*
X499035Y1090538D01*
X499132Y1090616D01*
X499210Y1090704D01*
X499278Y1090781D01*
X499327Y1090850D01*
X499366Y1090908D01*
X499386Y1090947D01*
X499395Y1090957D01*
X499444Y1091074D01*
X499483Y1091191D01*
X499512Y1091308D01*
X499532Y1091406D01*
X499542Y1091494D01*
X499552Y1091552D01*
Y1091601D01*
Y1091611D01*
X499532Y1091806D01*
X499493Y1091991D01*
X499434Y1092147D01*
X499366Y1092284D01*
X499308Y1092391D01*
X499249Y1092469D01*
X499210Y1092518D01*
X499191Y1092537D01*
X499044Y1092664D01*
X498898Y1092752D01*
X498742Y1092820D01*
X498596Y1092859D01*
X498469Y1092888D01*
X498362Y1092898D01*
X498322Y1092908D01*
D02*
G37*
G36*
X636692Y974813D02*
X634673D01*
X634419Y974803D01*
X634204Y974764D01*
X634029Y974725D01*
X633882Y974667D01*
X633775Y974618D01*
X633688Y974569D01*
X633648Y974530D01*
X633629Y974521D01*
X633522Y974404D01*
X633434Y974277D01*
X633375Y974150D01*
X633336Y974033D01*
X633317Y973926D01*
X633297Y973848D01*
Y973789D01*
Y973779D01*
Y973770D01*
X633307Y973653D01*
X633327Y973545D01*
X633356Y973448D01*
X633385Y973370D01*
X633414Y973292D01*
X633444Y973243D01*
X633463Y973204D01*
X633473Y973194D01*
X633541Y973106D01*
X633619Y973028D01*
X633707Y972960D01*
X633785Y972902D01*
X633853Y972862D01*
X633912Y972833D01*
X633951Y972823D01*
X633970Y972814D01*
X634097Y972775D01*
X634243Y972746D01*
X634399Y972726D01*
X634546Y972716D01*
X634673Y972707D01*
X634780Y972697D01*
X636692D01*
Y974813D01*
D02*
G37*
G36*
X590972Y1012806D02*
X588953D01*
X588699Y1012796D01*
X588484Y1012757D01*
X588309Y1012718D01*
X588162Y1012660D01*
X588055Y1012611D01*
X587967Y1012562D01*
X587928Y1012523D01*
X587909Y1012513D01*
X587802Y1012396D01*
X587714Y1012270D01*
X587655Y1012143D01*
X587616Y1012026D01*
X587597Y1011918D01*
X587577Y1011840D01*
Y1011782D01*
Y1011772D01*
Y1011762D01*
X587587Y1011645D01*
X587607Y1011538D01*
X587636Y1011441D01*
X587665Y1011362D01*
X587694Y1011284D01*
X587724Y1011236D01*
X587743Y1011197D01*
X587753Y1011187D01*
X587821Y1011099D01*
X587899Y1011021D01*
X587987Y1010953D01*
X588065Y1010894D01*
X588133Y1010855D01*
X588192Y1010826D01*
X588231Y1010816D01*
X588250Y1010807D01*
X588377Y1010768D01*
X588523Y1010738D01*
X588680Y1010719D01*
X588826Y1010709D01*
X588953Y1010699D01*
X589060Y1010689D01*
X590972D01*
Y1012806D01*
D02*
G37*
G36*
X583178Y1012231D02*
Y1009363D01*
X585188D01*
X583178Y1012231D01*
D02*
G37*
G36*
X493348Y1065071D02*
X493299D01*
X493202Y1065061D01*
X493104Y1065051D01*
X492929Y1064993D01*
X492773Y1064905D01*
X492636Y1064808D01*
X492529Y1064710D01*
X492451Y1064622D01*
X492402Y1064564D01*
X492383Y1064554D01*
Y1064544D01*
X492314Y1064437D01*
X492256Y1064310D01*
X492207Y1064164D01*
X492168Y1063998D01*
X492100Y1063657D01*
X492061Y1063306D01*
X492041Y1063130D01*
X492032Y1062974D01*
X492022Y1062828D01*
Y1062701D01*
X492012Y1062594D01*
Y1062516D01*
Y1062467D01*
Y1062447D01*
Y1062165D01*
X492032Y1061901D01*
X492041Y1061667D01*
X492071Y1061452D01*
X492100Y1061257D01*
X492129Y1061082D01*
X492158Y1060936D01*
X492197Y1060799D01*
X492236Y1060692D01*
X492266Y1060594D01*
X492295Y1060506D01*
X492324Y1060448D01*
X492344Y1060399D01*
X492363Y1060370D01*
X492383Y1060350D01*
Y1060341D01*
X492451Y1060253D01*
X492529Y1060175D01*
X492607Y1060097D01*
X492685Y1060038D01*
X492831Y1059950D01*
X492978Y1059892D01*
X493104Y1059853D01*
X493202Y1059833D01*
X493241Y1059824D01*
X493290D01*
X493387Y1059833D01*
X493485Y1059843D01*
X493660Y1059902D01*
X493816Y1059989D01*
X493953Y1060087D01*
X494060Y1060175D01*
X494138Y1060263D01*
X494187Y1060321D01*
X494207Y1060331D01*
Y1060341D01*
X494265Y1060448D01*
X494324Y1060584D01*
X494372Y1060731D01*
X494411Y1060887D01*
X494480Y1061238D01*
X494519Y1061589D01*
X494538Y1061755D01*
X494548Y1061921D01*
X494558Y1062067D01*
Y1062194D01*
X494567Y1062301D01*
Y1062379D01*
Y1062428D01*
Y1062447D01*
Y1062730D01*
X494548Y1062993D01*
X494528Y1063228D01*
X494509Y1063442D01*
X494470Y1063647D01*
X494441Y1063823D01*
X494402Y1063979D01*
X494363Y1064115D01*
X494333Y1064232D01*
X494294Y1064340D01*
X494255Y1064418D01*
X494226Y1064486D01*
X494207Y1064535D01*
X494187Y1064574D01*
X494168Y1064593D01*
Y1064603D01*
X494109Y1064681D01*
X494041Y1064759D01*
X493894Y1064876D01*
X493748Y1064954D01*
X493611Y1065013D01*
X493485Y1065051D01*
X493387Y1065061D01*
X493348Y1065071D01*
D02*
G37*
G36*
X437800Y988493D02*
X437742D01*
X437732D01*
X437722D01*
X437605Y988483D01*
X437498Y988463D01*
X437401Y988434D01*
X437322Y988405D01*
X437244Y988376D01*
X437196Y988346D01*
X437157Y988327D01*
X437147Y988317D01*
X437059Y988249D01*
X436981Y988171D01*
X436913Y988083D01*
X436854Y988005D01*
X436815Y987937D01*
X436786Y987878D01*
X436776Y987839D01*
X436767Y987820D01*
X436727Y987693D01*
X436698Y987546D01*
X436679Y987391D01*
X436669Y987244D01*
X436659Y987117D01*
X436649Y987010D01*
Y985098D01*
X438766D01*
Y987117D01*
X438756Y987371D01*
X438717Y987586D01*
X438678Y987761D01*
X438620Y987907D01*
X438571Y988015D01*
X438522Y988102D01*
X438483Y988141D01*
X438473Y988161D01*
X438356Y988268D01*
X438229Y988356D01*
X438103Y988415D01*
X437986Y988454D01*
X437878Y988473D01*
X437800Y988493D01*
D02*
G37*
G36*
X365990Y984672D02*
X363874D01*
Y982653D01*
X363884Y982399D01*
X363923Y982184D01*
X363962Y982009D01*
X364020Y981862D01*
X364069Y981755D01*
X364118Y981667D01*
X364157Y981628D01*
X364167Y981609D01*
X364284Y981502D01*
X364410Y981414D01*
X364537Y981355D01*
X364654Y981316D01*
X364762Y981297D01*
X364840Y981277D01*
X364898D01*
X364908D01*
X364918D01*
X365035Y981287D01*
X365142Y981307D01*
X365239Y981336D01*
X365317Y981365D01*
X365396Y981394D01*
X365444Y981424D01*
X365483Y981443D01*
X365493Y981453D01*
X365581Y981521D01*
X365659Y981599D01*
X365727Y981687D01*
X365786Y981765D01*
X365825Y981833D01*
X365854Y981892D01*
X365864Y981931D01*
X365873Y981950D01*
X365913Y982077D01*
X365942Y982223D01*
X365961Y982380D01*
X365971Y982526D01*
X365981Y982653D01*
X365990Y982760D01*
Y984672D01*
D02*
G37*
G36*
X498264Y1142760D02*
X498215D01*
X498020Y1142740D01*
X497845Y1142701D01*
X497688Y1142633D01*
X497562Y1142565D01*
X497454Y1142496D01*
X497376Y1142428D01*
X497337Y1142389D01*
X497318Y1142370D01*
X497201Y1142214D01*
X497113Y1142048D01*
X497055Y1141872D01*
X497006Y1141706D01*
X496986Y1141560D01*
X496977Y1141492D01*
Y1141433D01*
X496967Y1141394D01*
Y1141355D01*
Y1141336D01*
Y1141326D01*
X496986Y1141082D01*
X497025Y1140867D01*
X497084Y1140672D01*
X497142Y1140516D01*
X497211Y1140399D01*
X497269Y1140312D01*
X497308Y1140253D01*
X497328Y1140234D01*
X497464Y1140097D01*
X497611Y1139999D01*
X497757Y1139931D01*
X497884Y1139882D01*
X498010Y1139853D01*
X498098Y1139843D01*
X498137Y1139834D01*
X498186D01*
X498313Y1139843D01*
X498430Y1139863D01*
X498547Y1139892D01*
X498644Y1139931D01*
X498722Y1139960D01*
X498781Y1139990D01*
X498830Y1140009D01*
X498839Y1140019D01*
X498947Y1140097D01*
X499044Y1140194D01*
X499122Y1140282D01*
X499191Y1140380D01*
X499249Y1140458D01*
X499288Y1140526D01*
X499308Y1140565D01*
X499317Y1140585D01*
X499376Y1140731D01*
X499415Y1140867D01*
X499444Y1140994D01*
X499464Y1141121D01*
X499473Y1141219D01*
X499483Y1141297D01*
Y1141345D01*
Y1141365D01*
X499464Y1141589D01*
X499425Y1141784D01*
X499366Y1141960D01*
X499298Y1142106D01*
X499230Y1142214D01*
X499171Y1142301D01*
X499132Y1142350D01*
X499113Y1142370D01*
X498966Y1142496D01*
X498820Y1142594D01*
X498664Y1142662D01*
X498527Y1142711D01*
X498401Y1142740D01*
X498303Y1142750D01*
X498264Y1142760D01*
D02*
G37*
G36*
X428238Y1126638D02*
Y1123770D01*
X430248D01*
X428238Y1126638D01*
D02*
G37*
G36*
X757815Y1250515D02*
X757766D01*
X757571Y1250496D01*
X757395Y1250457D01*
X757239Y1250398D01*
X757103Y1250320D01*
X756995Y1250252D01*
X756917Y1250193D01*
X756869Y1250154D01*
X756849Y1250135D01*
X756732Y1249979D01*
X756644Y1249823D01*
X756576Y1249657D01*
X756537Y1249491D01*
X756508Y1249354D01*
X756498Y1249238D01*
X756488Y1249199D01*
Y1249169D01*
Y1249150D01*
Y1249140D01*
X756508Y1248896D01*
X756547Y1248682D01*
X756605Y1248486D01*
X756683Y1248330D01*
X756752Y1248204D01*
X756810Y1248106D01*
X756849Y1248048D01*
X756869Y1248028D01*
X756947Y1247950D01*
X757025Y1247882D01*
X757181Y1247784D01*
X757327Y1247706D01*
X757473Y1247648D01*
X757600Y1247618D01*
X757698Y1247609D01*
X757737Y1247599D01*
X757785D01*
X757971Y1247618D01*
X758137Y1247657D01*
X758283Y1247726D01*
X758410Y1247794D01*
X758517Y1247872D01*
X758585Y1247940D01*
X758634Y1247979D01*
X758653Y1247999D01*
X758771Y1248165D01*
X758858Y1248340D01*
X758927Y1248516D01*
X758966Y1248691D01*
X758995Y1248847D01*
X759005Y1248906D01*
Y1248964D01*
X759014Y1249013D01*
Y1249052D01*
Y1249072D01*
Y1249081D01*
X758995Y1249315D01*
X758956Y1249530D01*
X758897Y1249706D01*
X758839Y1249862D01*
X758771Y1249979D01*
X758712Y1250067D01*
X758673Y1250115D01*
X758653Y1250135D01*
X758517Y1250262D01*
X758371Y1250359D01*
X758215Y1250418D01*
X758078Y1250467D01*
X757951Y1250496D01*
X757854Y1250506D01*
X757815Y1250515D01*
D02*
G37*
G36*
X275335Y1128583D02*
X275276D01*
X275257D01*
X275110Y1128573D01*
X274984Y1128534D01*
X274857Y1128485D01*
X274759Y1128436D01*
X274681Y1128378D01*
X274613Y1128339D01*
X274574Y1128300D01*
X274564Y1128290D01*
X274467Y1128173D01*
X274398Y1128046D01*
X274340Y1127919D01*
X274310Y1127802D01*
X274291Y1127695D01*
X274272Y1127617D01*
Y1127539D01*
X274281Y1127373D01*
X274320Y1127237D01*
X274369Y1127110D01*
X274418Y1127002D01*
X274476Y1126915D01*
X274525Y1126846D01*
X274564Y1126807D01*
X274574Y1126798D01*
X274691Y1126700D01*
X274808Y1126622D01*
X274935Y1126573D01*
X275042Y1126534D01*
X275140Y1126515D01*
X275227Y1126495D01*
X275276D01*
X275286D01*
X275296D01*
X275442Y1126505D01*
X275578Y1126544D01*
X275705Y1126583D01*
X275803Y1126642D01*
X275891Y1126690D01*
X275949Y1126739D01*
X275988Y1126778D01*
X275998Y1126788D01*
X276095Y1126905D01*
X276164Y1127032D01*
X276213Y1127159D01*
X276242Y1127276D01*
X276261Y1127383D01*
X276281Y1127461D01*
Y1127539D01*
X276271Y1127705D01*
X276232Y1127851D01*
X276193Y1127988D01*
X276134Y1128095D01*
X276086Y1128183D01*
X276037Y1128251D01*
X276008Y1128290D01*
X275998Y1128300D01*
X275881Y1128397D01*
X275754Y1128466D01*
X275637Y1128514D01*
X275520Y1128544D01*
X275413Y1128563D01*
X275335Y1128583D01*
D02*
G37*
G36*
X278280Y1128836D02*
X278231D01*
X278222D01*
X278027Y1128817D01*
X277841Y1128778D01*
X277685Y1128719D01*
X277549Y1128651D01*
X277441Y1128592D01*
X277363Y1128534D01*
X277315Y1128495D01*
X277295Y1128475D01*
X277168Y1128329D01*
X277080Y1128183D01*
X277012Y1128027D01*
X276973Y1127880D01*
X276944Y1127754D01*
X276934Y1127646D01*
X276924Y1127607D01*
Y1127559D01*
X276944Y1127354D01*
X276983Y1127168D01*
X277041Y1127002D01*
X277110Y1126866D01*
X277188Y1126759D01*
X277246Y1126681D01*
X277285Y1126632D01*
X277305Y1126612D01*
X277451Y1126486D01*
X277607Y1126388D01*
X277763Y1126320D01*
X277910Y1126281D01*
X278046Y1126252D01*
X278144Y1126242D01*
X278183Y1126232D01*
X278212D01*
X278231D01*
X278241D01*
X278446Y1126252D01*
X278622Y1126291D01*
X278787Y1126349D01*
X278914Y1126417D01*
X279021Y1126486D01*
X279100Y1126544D01*
X279148Y1126583D01*
X279168Y1126603D01*
X279285Y1126749D01*
X279373Y1126895D01*
X279441Y1127051D01*
X279480Y1127198D01*
X279509Y1127334D01*
X279519Y1127432D01*
X279529Y1127471D01*
Y1127529D01*
X279519Y1127666D01*
X279499Y1127793D01*
X279480Y1127900D01*
X279441Y1128007D01*
X279412Y1128095D01*
X279392Y1128154D01*
X279373Y1128193D01*
X279363Y1128212D01*
X279295Y1128319D01*
X279217Y1128417D01*
X279129Y1128495D01*
X279051Y1128563D01*
X278983Y1128612D01*
X278924Y1128651D01*
X278885Y1128670D01*
X278875Y1128680D01*
X278758Y1128729D01*
X278641Y1128768D01*
X278524Y1128797D01*
X278426Y1128817D01*
X278339Y1128827D01*
X278280Y1128836D01*
D02*
G37*
%LPD*%
D11*
X524141Y1160360D02*
Y1171360D01*
X502019Y1160360D02*
X524141D01*
X502019D02*
Y1171360D01*
X524141D01*
X495669Y1120560D02*
X517791D01*
X495669Y1109560D02*
Y1120560D01*
Y1109560D02*
X517791D01*
Y1120560D01*
X495669Y1095160D02*
X517791D01*
X495669Y1084160D02*
Y1095160D01*
Y1084160D02*
X517791D01*
Y1095160D01*
X627178Y974372D02*
X647902D01*
X627178Y963648D02*
Y974372D01*
Y963648D02*
X647902D01*
Y974372D01*
X581458Y1012472D02*
X602182D01*
X581458Y1001748D02*
Y1012472D01*
Y1001748D02*
X602182D01*
Y1012472D01*
X495669Y1064680D02*
X517791D01*
X495669Y1053680D02*
Y1064680D01*
Y1053680D02*
X517791D01*
Y1064680D01*
X351871Y966529D02*
Y1009591D01*
X326309D02*
X351871D01*
X326309Y966529D02*
Y1009591D01*
Y966529D02*
X351871D01*
X438432Y973888D02*
Y994612D01*
X427708D02*
X438432D01*
X427708Y973888D02*
Y994612D01*
Y973888D02*
X438432D01*
X364208Y975158D02*
Y995882D01*
Y975158D02*
X374932D01*
Y995882D01*
X364208D02*
X374932D01*
X366129Y1127340D02*
Y1138340D01*
X388251D01*
Y1127340D02*
Y1138340D01*
X366129Y1127340D02*
X388251D01*
X499479Y1188300D02*
X521601D01*
Y1199300D01*
X499479D02*
X521601D01*
X499479Y1188300D02*
Y1199300D01*
X495669Y1144690D02*
X517791D01*
X495669Y1133690D02*
Y1144690D01*
Y1133690D02*
X517791D01*
Y1144690D01*
X457234Y1104410D02*
Y1138410D01*
X416526Y1104410D02*
X457234D01*
X416526D02*
Y1138410D01*
X457234D01*
X465189Y1055790D02*
X487311D01*
X465189Y1044790D02*
Y1055790D01*
Y1044790D02*
X487311D01*
Y1055790D01*
X541009Y1146711D02*
X579131D01*
X541009Y1126589D02*
Y1146711D01*
Y1126589D02*
X579131D01*
Y1146711D01*
X730239Y1243429D02*
X768361D01*
Y1263551D01*
X730239D02*
X768361D01*
X730239Y1243429D02*
Y1263551D01*
X728969Y1219101D02*
X767091D01*
X728969Y1198979D02*
Y1219101D01*
Y1198979D02*
X767091D01*
Y1219101D01*
X350740Y1105950D02*
Y1141950D01*
X314740D02*
X350740D01*
X314740Y1105950D02*
Y1141950D01*
Y1105950D02*
X350740D01*
X249290Y1082730D02*
Y1185730D01*
Y1082730D02*
X307290D01*
Y1185730D01*
X249290D02*
X307290D01*
M02*
