G04*
G04 #@! TF.GenerationSoftware,Altium Limited,Altium Designer,20.0.2 (26)*
G04*
G04 Layer_Physical_Order=2*
G04 Layer_Color=36540*
%FSLAX44Y44*%
%MOMM*%
G71*
G01*
G75*
%ADD15C,0.2540*%
%ADD26C,1.5700*%
%ADD35C,1.4500*%
%ADD43R,1.5000X1.5000*%
%ADD44C,1.5000*%
%ADD45R,1.5000X1.5000*%
%ADD47C,1.5080*%
%ADD50C,1.2690*%
%ADD57C,1.2700*%
G36*
X873760Y664210D02*
X254000D01*
X254000Y1287780D01*
X622385D01*
Y1269770D01*
X622867Y1268607D01*
X624030Y1268125D01*
X778030D01*
X779193Y1268607D01*
X779675Y1269770D01*
Y1287780D01*
X873760D01*
X873760Y664210D01*
D02*
G37*
%LPC*%
G36*
X560070Y1273609D02*
Y1264920D01*
X568759D01*
X568582Y1266271D01*
X567570Y1268713D01*
X565961Y1270811D01*
X563863Y1272420D01*
X561421Y1273432D01*
X560070Y1273609D01*
D02*
G37*
G36*
X557530D02*
X556179Y1273432D01*
X553737Y1272420D01*
X551639Y1270811D01*
X550030Y1268713D01*
X549018Y1266271D01*
X548841Y1264920D01*
X557530D01*
Y1273609D01*
D02*
G37*
G36*
X806580Y1280290D02*
X788540D01*
Y1262250D01*
X806580D01*
Y1280290D01*
D02*
G37*
G36*
X600840D02*
X582800D01*
Y1262250D01*
X600840D01*
Y1280290D01*
D02*
G37*
G36*
X848360Y1280368D02*
X846005Y1280058D01*
X843811Y1279149D01*
X841927Y1277703D01*
X840481Y1275819D01*
X839572Y1273625D01*
X839262Y1271270D01*
X839572Y1268915D01*
X840481Y1266721D01*
X841927Y1264837D01*
X843811Y1263391D01*
X846005Y1262482D01*
X848360Y1262172D01*
X850715Y1262482D01*
X852909Y1263391D01*
X854793Y1264837D01*
X856239Y1266721D01*
X857148Y1268915D01*
X857458Y1271270D01*
X857148Y1273625D01*
X856239Y1275819D01*
X854793Y1277703D01*
X852909Y1279149D01*
X850715Y1280058D01*
X848360Y1280368D01*
D02*
G37*
G36*
X822960D02*
X820605Y1280058D01*
X818411Y1279149D01*
X816527Y1277703D01*
X815081Y1275819D01*
X814172Y1273625D01*
X813862Y1271270D01*
X814172Y1268915D01*
X815081Y1266721D01*
X816527Y1264837D01*
X818411Y1263391D01*
X820605Y1262482D01*
X822960Y1262172D01*
X825315Y1262482D01*
X827509Y1263391D01*
X829393Y1264837D01*
X830839Y1266721D01*
X831748Y1268915D01*
X832058Y1271270D01*
X831748Y1273625D01*
X830839Y1275819D01*
X829393Y1277703D01*
X827509Y1279149D01*
X825315Y1280058D01*
X822960Y1280368D01*
D02*
G37*
G36*
X530860Y1277938D02*
X528806Y1277667D01*
X526891Y1276874D01*
X525247Y1275613D01*
X523986Y1273969D01*
X523193Y1272055D01*
X522922Y1270000D01*
X523193Y1267945D01*
X523986Y1266031D01*
X525247Y1264387D01*
X526891Y1263126D01*
X528806Y1262333D01*
X530860Y1262062D01*
X532915Y1262333D01*
X534829Y1263126D01*
X536473Y1264387D01*
X537734Y1266031D01*
X538527Y1267945D01*
X538798Y1270000D01*
X538527Y1272055D01*
X537734Y1273969D01*
X536473Y1275613D01*
X534829Y1276874D01*
X532915Y1277667D01*
X530860Y1277938D01*
D02*
G37*
G36*
X275590Y1265737D02*
Y1257300D01*
X284027D01*
X283858Y1258586D01*
X282871Y1260967D01*
X281302Y1263012D01*
X279257Y1264582D01*
X276876Y1265568D01*
X275590Y1265737D01*
D02*
G37*
G36*
X273050D02*
X271764Y1265568D01*
X269383Y1264582D01*
X267338Y1263012D01*
X265769Y1260967D01*
X264782Y1258586D01*
X264613Y1257300D01*
X273050D01*
Y1265737D01*
D02*
G37*
G36*
X568759Y1262380D02*
X560070D01*
Y1253691D01*
X561421Y1253868D01*
X563863Y1254880D01*
X565961Y1256489D01*
X567570Y1258587D01*
X568582Y1261029D01*
X568759Y1262380D01*
D02*
G37*
G36*
X557530D02*
X548841D01*
X549018Y1261029D01*
X550030Y1258587D01*
X551639Y1256489D01*
X553737Y1254880D01*
X556179Y1253868D01*
X557530Y1253691D01*
Y1262380D01*
D02*
G37*
G36*
X486410Y1265238D02*
X484356Y1264967D01*
X482441Y1264174D01*
X480797Y1262913D01*
X479536Y1261269D01*
X478743Y1259354D01*
X478472Y1257300D01*
X478743Y1255246D01*
X479536Y1253331D01*
X480797Y1251687D01*
X482441Y1250426D01*
X484356Y1249633D01*
X486410Y1249362D01*
X488465Y1249633D01*
X490379Y1250426D01*
X492023Y1251687D01*
X492821Y1252727D01*
X494275Y1252536D01*
X494660Y1251607D01*
X496065Y1249775D01*
X497897Y1248370D01*
X500031Y1247486D01*
X502320Y1247184D01*
X504609Y1247486D01*
X506743Y1248370D01*
X508575Y1249775D01*
X509981Y1251607D01*
X510864Y1253741D01*
X511166Y1256030D01*
X510864Y1258319D01*
X509981Y1260453D01*
X508575Y1262285D01*
X506743Y1263690D01*
X504609Y1264574D01*
X502320Y1264876D01*
X500031Y1264574D01*
X497897Y1263690D01*
X496065Y1262285D01*
X494879Y1260739D01*
X493869Y1260720D01*
X493454Y1260860D01*
X493284Y1261269D01*
X492023Y1262913D01*
X490379Y1264174D01*
X488465Y1264967D01*
X486410Y1265238D01*
D02*
G37*
G36*
X284027Y1254760D02*
X275590D01*
Y1246323D01*
X276876Y1246492D01*
X279257Y1247478D01*
X281302Y1249048D01*
X282871Y1251093D01*
X283858Y1253474D01*
X284027Y1254760D01*
D02*
G37*
G36*
X273050D02*
X264613D01*
X264782Y1253474D01*
X265769Y1251093D01*
X267338Y1249048D01*
X269383Y1247478D01*
X271764Y1246492D01*
X273050Y1246323D01*
Y1254760D01*
D02*
G37*
G36*
X655320Y1257618D02*
X653266Y1257347D01*
X651351Y1256554D01*
X649707Y1255293D01*
X648446Y1253649D01*
X647653Y1251734D01*
X647382Y1249680D01*
X647653Y1247626D01*
X648446Y1245711D01*
X649707Y1244067D01*
X651351Y1242806D01*
X653266Y1242013D01*
X655320Y1241742D01*
X657374Y1242013D01*
X659289Y1242806D01*
X660933Y1244067D01*
X662194Y1245711D01*
X662987Y1247626D01*
X663258Y1249680D01*
X662987Y1251734D01*
X662194Y1253649D01*
X660933Y1255293D01*
X659289Y1256554D01*
X657374Y1257347D01*
X655320Y1257618D01*
D02*
G37*
G36*
X346710Y1255078D02*
X344655Y1254807D01*
X342741Y1254014D01*
X341097Y1252753D01*
X339836Y1251109D01*
X339043Y1249194D01*
X338772Y1247140D01*
X339043Y1245086D01*
X339836Y1243171D01*
X341097Y1241527D01*
X342741Y1240266D01*
X344655Y1239473D01*
X346710Y1239202D01*
X348764Y1239473D01*
X350679Y1240266D01*
X352323Y1241527D01*
X353584Y1243171D01*
X354377Y1245086D01*
X354648Y1247140D01*
X354377Y1249194D01*
X353584Y1251109D01*
X352323Y1252753D01*
X350679Y1254014D01*
X348764Y1254807D01*
X346710Y1255078D01*
D02*
G37*
G36*
X384810Y1245779D02*
Y1238250D01*
X392340D01*
X392201Y1239301D01*
X391305Y1241463D01*
X389880Y1243320D01*
X388023Y1244745D01*
X385861Y1245641D01*
X384810Y1245779D01*
D02*
G37*
G36*
X382270D02*
X381219Y1245641D01*
X379057Y1244745D01*
X377200Y1243320D01*
X375775Y1241463D01*
X374879Y1239301D01*
X374740Y1238250D01*
X382270D01*
Y1245779D01*
D02*
G37*
G36*
X591820Y1254968D02*
X589465Y1254658D01*
X587271Y1253749D01*
X585387Y1252303D01*
X583941Y1250419D01*
X583032Y1248225D01*
X582722Y1245870D01*
X583032Y1243515D01*
X583941Y1241321D01*
X585387Y1239437D01*
X587271Y1237991D01*
X589465Y1237082D01*
X591820Y1236772D01*
X594175Y1237082D01*
X596369Y1237991D01*
X598253Y1239437D01*
X599699Y1241321D01*
X600608Y1243515D01*
X600918Y1245870D01*
X600608Y1248225D01*
X599699Y1250419D01*
X598253Y1252303D01*
X596369Y1253749D01*
X594175Y1254658D01*
X591820Y1254968D01*
D02*
G37*
G36*
X558800Y1247348D02*
X556445Y1247038D01*
X554251Y1246129D01*
X552367Y1244683D01*
X550921Y1242799D01*
X550012Y1240605D01*
X549702Y1238250D01*
X550012Y1235895D01*
X550921Y1233701D01*
X552367Y1231817D01*
X554251Y1230371D01*
X556445Y1229462D01*
X558800Y1229152D01*
X561155Y1229462D01*
X563349Y1230371D01*
X565233Y1231817D01*
X566679Y1233701D01*
X567588Y1235895D01*
X567898Y1238250D01*
X567588Y1240605D01*
X566679Y1242799D01*
X565233Y1244683D01*
X563349Y1246129D01*
X561155Y1247038D01*
X558800Y1247348D01*
D02*
G37*
G36*
X392340Y1235710D02*
X384810D01*
Y1228180D01*
X385861Y1228319D01*
X388023Y1229215D01*
X389880Y1230640D01*
X391305Y1232497D01*
X392201Y1234659D01*
X392340Y1235710D01*
D02*
G37*
G36*
X382270D02*
X374740D01*
X374879Y1234659D01*
X375775Y1232497D01*
X377200Y1230640D01*
X379057Y1229215D01*
X381219Y1228319D01*
X382270Y1228180D01*
Y1235710D01*
D02*
G37*
G36*
X699770Y1242378D02*
X697716Y1242107D01*
X695801Y1241314D01*
X694157Y1240053D01*
X692896Y1238409D01*
X692103Y1236495D01*
X691832Y1234440D01*
X692103Y1232385D01*
X692896Y1230471D01*
X694157Y1228827D01*
X695801Y1227566D01*
X697716Y1226773D01*
X699770Y1226502D01*
X701824Y1226773D01*
X703739Y1227566D01*
X705383Y1228827D01*
X706644Y1230471D01*
X707437Y1232385D01*
X707708Y1234440D01*
X707437Y1236495D01*
X706644Y1238409D01*
X705383Y1240053D01*
X703739Y1241314D01*
X701824Y1242107D01*
X699770Y1242378D01*
D02*
G37*
G36*
X364490D02*
X362435Y1242107D01*
X360521Y1241314D01*
X358877Y1240053D01*
X357616Y1238409D01*
X356823Y1236495D01*
X356552Y1234440D01*
X356823Y1232385D01*
X357616Y1230471D01*
X358877Y1228827D01*
X360521Y1227566D01*
X362435Y1226773D01*
X364490Y1226502D01*
X366544Y1226773D01*
X368459Y1227566D01*
X370103Y1228827D01*
X371364Y1230471D01*
X372157Y1232385D01*
X372428Y1234440D01*
X372157Y1236495D01*
X371364Y1238409D01*
X370103Y1240053D01*
X368459Y1241314D01*
X366544Y1242107D01*
X364490Y1242378D01*
D02*
G37*
G36*
X680720Y1238568D02*
X678665Y1238297D01*
X676751Y1237504D01*
X675107Y1236243D01*
X673846Y1234599D01*
X673053Y1232684D01*
X672782Y1230630D01*
X673053Y1228576D01*
X673846Y1226661D01*
X675107Y1225017D01*
X676751Y1223756D01*
X678665Y1222963D01*
X680720Y1222692D01*
X682775Y1222963D01*
X684689Y1223756D01*
X686333Y1225017D01*
X687594Y1226661D01*
X688387Y1228576D01*
X688658Y1230630D01*
X688387Y1232684D01*
X687594Y1234599D01*
X686333Y1236243D01*
X684689Y1237504D01*
X682775Y1238297D01*
X680720Y1238568D01*
D02*
G37*
G36*
X660400Y1237298D02*
X658345Y1237027D01*
X656431Y1236234D01*
X654787Y1234973D01*
X653526Y1233329D01*
X652733Y1231414D01*
X652462Y1229360D01*
X652733Y1227306D01*
X653526Y1225391D01*
X654787Y1223747D01*
X656431Y1222486D01*
X658345Y1221693D01*
X660400Y1221422D01*
X662455Y1221693D01*
X664369Y1222486D01*
X666013Y1223747D01*
X667274Y1225391D01*
X668067Y1227306D01*
X668338Y1229360D01*
X668067Y1231414D01*
X667274Y1233329D01*
X666013Y1234973D01*
X664369Y1236234D01*
X662455Y1237027D01*
X660400Y1237298D01*
D02*
G37*
G36*
X455930D02*
X453876Y1237027D01*
X451961Y1236234D01*
X450317Y1234973D01*
X449056Y1233329D01*
X448263Y1231414D01*
X447992Y1229360D01*
X448263Y1227306D01*
X449056Y1225391D01*
X450317Y1223747D01*
X451961Y1222486D01*
X453876Y1221693D01*
X455930Y1221422D01*
X457985Y1221693D01*
X459899Y1222486D01*
X461543Y1223747D01*
X462804Y1225391D01*
X463597Y1227306D01*
X463868Y1229360D01*
X463597Y1231414D01*
X462804Y1233329D01*
X461543Y1234973D01*
X459899Y1236234D01*
X457985Y1237027D01*
X455930Y1237298D01*
D02*
G37*
G36*
X819280Y1235840D02*
X801240D01*
Y1217800D01*
X819280D01*
Y1235840D01*
D02*
G37*
G36*
X591820Y1229568D02*
X589465Y1229258D01*
X587271Y1228349D01*
X585387Y1226903D01*
X583941Y1225019D01*
X583032Y1222825D01*
X582722Y1220470D01*
X583032Y1218115D01*
X583941Y1215921D01*
X585387Y1214037D01*
X587271Y1212591D01*
X589465Y1211682D01*
X591820Y1211372D01*
X594175Y1211682D01*
X596369Y1212591D01*
X598253Y1214037D01*
X599699Y1215921D01*
X600608Y1218115D01*
X600918Y1220470D01*
X600608Y1222825D01*
X599699Y1225019D01*
X598253Y1226903D01*
X596369Y1228349D01*
X594175Y1229258D01*
X591820Y1229568D01*
D02*
G37*
G36*
X558800Y1221948D02*
X556445Y1221638D01*
X554251Y1220729D01*
X552367Y1219283D01*
X550921Y1217399D01*
X550012Y1215205D01*
X549702Y1212850D01*
X550012Y1210495D01*
X550921Y1208301D01*
X552367Y1206417D01*
X554251Y1204971D01*
X556445Y1204062D01*
X558800Y1203752D01*
X561155Y1204062D01*
X563349Y1204971D01*
X565233Y1206417D01*
X566679Y1208301D01*
X567588Y1210495D01*
X567898Y1212850D01*
X567588Y1215205D01*
X566679Y1217399D01*
X565233Y1219283D01*
X563349Y1220729D01*
X561155Y1221638D01*
X558800Y1221948D01*
D02*
G37*
G36*
X788670Y1219518D02*
X786616Y1219247D01*
X784701Y1218454D01*
X783057Y1217193D01*
X781796Y1215549D01*
X781003Y1213634D01*
X780732Y1211580D01*
X781003Y1209526D01*
X781796Y1207611D01*
X783057Y1205967D01*
X784701Y1204706D01*
X786616Y1203913D01*
X788670Y1203642D01*
X790724Y1203913D01*
X792639Y1204706D01*
X794283Y1205967D01*
X795544Y1207611D01*
X796337Y1209526D01*
X796608Y1211580D01*
X796337Y1213634D01*
X795544Y1215549D01*
X794283Y1217193D01*
X792639Y1218454D01*
X790724Y1219247D01*
X788670Y1219518D01*
D02*
G37*
G36*
X859790Y1215708D02*
X857736Y1215437D01*
X855821Y1214644D01*
X854177Y1213383D01*
X852916Y1211739D01*
X852123Y1209825D01*
X851852Y1207770D01*
X852123Y1205715D01*
X852916Y1203801D01*
X851905Y1203040D01*
X850369Y1204219D01*
X848175Y1205128D01*
X845820Y1205438D01*
X843465Y1205128D01*
X841271Y1204219D01*
X839387Y1202773D01*
X837941Y1200889D01*
X837032Y1198695D01*
X836722Y1196340D01*
X837032Y1193985D01*
X837941Y1191791D01*
X839387Y1189907D01*
X841271Y1188461D01*
X843465Y1187552D01*
X845820Y1187242D01*
X848175Y1187552D01*
X850369Y1188461D01*
X852253Y1189907D01*
X853699Y1191791D01*
X854608Y1193985D01*
X854918Y1196340D01*
X854608Y1198695D01*
X853699Y1200889D01*
X853635Y1200972D01*
X854541Y1201878D01*
X855821Y1200896D01*
X857736Y1200103D01*
X859790Y1199832D01*
X861844Y1200103D01*
X863759Y1200896D01*
X865403Y1202157D01*
X866664Y1203801D01*
X867457Y1205715D01*
X867728Y1207770D01*
X867457Y1209825D01*
X866664Y1211739D01*
X865403Y1213383D01*
X863759Y1214644D01*
X861844Y1215437D01*
X859790Y1215708D01*
D02*
G37*
G36*
X810260Y1210518D02*
X807905Y1210208D01*
X805711Y1209299D01*
X803827Y1207853D01*
X802381Y1205969D01*
X801472Y1203775D01*
X801162Y1201420D01*
X801472Y1199065D01*
X802381Y1196871D01*
X803827Y1194987D01*
X805711Y1193541D01*
X807905Y1192632D01*
X810260Y1192322D01*
X812615Y1192632D01*
X814809Y1193541D01*
X816693Y1194987D01*
X818139Y1196871D01*
X819048Y1199065D01*
X819358Y1201420D01*
X819048Y1203775D01*
X818139Y1205969D01*
X816693Y1207853D01*
X814809Y1209299D01*
X812615Y1210208D01*
X810260Y1210518D01*
D02*
G37*
G36*
X591820Y1204168D02*
X589465Y1203858D01*
X587271Y1202949D01*
X585387Y1201503D01*
X583941Y1199619D01*
X583032Y1197425D01*
X582722Y1195070D01*
X583032Y1192715D01*
X583941Y1190521D01*
X585387Y1188637D01*
X587271Y1187191D01*
X589465Y1186282D01*
X591820Y1185972D01*
X594175Y1186282D01*
X596369Y1187191D01*
X598253Y1188637D01*
X599699Y1190521D01*
X600608Y1192715D01*
X600918Y1195070D01*
X600608Y1197425D01*
X599699Y1199619D01*
X598253Y1201503D01*
X596369Y1202949D01*
X594175Y1203858D01*
X591820Y1204168D01*
D02*
G37*
G36*
X558800Y1196548D02*
X556445Y1196238D01*
X554251Y1195329D01*
X552367Y1193883D01*
X550921Y1191999D01*
X550012Y1189805D01*
X549702Y1187450D01*
X550012Y1185095D01*
X550921Y1182901D01*
X552367Y1181017D01*
X554251Y1179571D01*
X556445Y1178662D01*
X558800Y1178352D01*
X561155Y1178662D01*
X563349Y1179571D01*
X565233Y1181017D01*
X566679Y1182901D01*
X567588Y1185095D01*
X567898Y1187450D01*
X567588Y1189805D01*
X566679Y1191999D01*
X565233Y1193883D01*
X563349Y1195329D01*
X561155Y1196238D01*
X558800Y1196548D01*
D02*
G37*
G36*
X486410Y1192848D02*
X484356Y1192577D01*
X482441Y1191784D01*
X480797Y1190523D01*
X479536Y1188879D01*
X478743Y1186964D01*
X478472Y1184910D01*
X478743Y1182856D01*
X479536Y1180941D01*
X480797Y1179297D01*
X482441Y1178036D01*
X484356Y1177243D01*
X486410Y1176972D01*
X488465Y1177243D01*
X490379Y1178036D01*
X492023Y1179297D01*
X493284Y1180941D01*
X494077Y1182856D01*
X494348Y1184910D01*
X494077Y1186964D01*
X493284Y1188879D01*
X492023Y1190523D01*
X490379Y1191784D01*
X488465Y1192577D01*
X486410Y1192848D01*
D02*
G37*
G36*
X424180Y1182280D02*
Y1174750D01*
X431710D01*
X431571Y1175801D01*
X430675Y1177963D01*
X429250Y1179820D01*
X427393Y1181245D01*
X425231Y1182141D01*
X424180Y1182280D01*
D02*
G37*
G36*
X421640D02*
X420589Y1182141D01*
X418427Y1181245D01*
X416570Y1179820D01*
X415145Y1177963D01*
X414249Y1175801D01*
X414110Y1174750D01*
X421640D01*
Y1182280D01*
D02*
G37*
G36*
X576580Y1187768D02*
X574525Y1187497D01*
X572611Y1186704D01*
X570967Y1185443D01*
X569706Y1183799D01*
X568913Y1181885D01*
X568642Y1179830D01*
X568913Y1177775D01*
X569706Y1175861D01*
X570967Y1174217D01*
X572611Y1172956D01*
X574525Y1172163D01*
X576580Y1171892D01*
X578634Y1172163D01*
X580549Y1172956D01*
X582193Y1174217D01*
X583454Y1175861D01*
X584247Y1177775D01*
X584518Y1179830D01*
X584247Y1181885D01*
X583454Y1183799D01*
X582193Y1185443D01*
X580549Y1186704D01*
X578634Y1187497D01*
X576580Y1187768D01*
D02*
G37*
G36*
X810260Y1185118D02*
X807905Y1184808D01*
X805711Y1183899D01*
X803827Y1182453D01*
X802381Y1180569D01*
X801472Y1178375D01*
X801162Y1176020D01*
X801472Y1173665D01*
X802381Y1171471D01*
X803827Y1169587D01*
X805711Y1168141D01*
X807905Y1167232D01*
X810260Y1166922D01*
X812615Y1167232D01*
X814809Y1168141D01*
X816693Y1169587D01*
X818139Y1171471D01*
X819048Y1173665D01*
X819358Y1176020D01*
X819048Y1178375D01*
X818139Y1180569D01*
X816693Y1182453D01*
X814809Y1183899D01*
X812615Y1184808D01*
X810260Y1185118D01*
D02*
G37*
G36*
X431710Y1172210D02*
X424180D01*
Y1164680D01*
X425231Y1164819D01*
X427393Y1165715D01*
X429250Y1167140D01*
X430675Y1168997D01*
X431571Y1171159D01*
X431710Y1172210D01*
D02*
G37*
G36*
X421640D02*
X414110D01*
X414249Y1171159D01*
X415145Y1168997D01*
X416570Y1167140D01*
X418427Y1165715D01*
X420589Y1164819D01*
X421640Y1164680D01*
Y1172210D01*
D02*
G37*
G36*
X845820Y1180038D02*
X843465Y1179728D01*
X841271Y1178819D01*
X839387Y1177373D01*
X837941Y1175489D01*
X837032Y1173295D01*
X836722Y1170940D01*
X837032Y1168585D01*
X837941Y1166391D01*
X839387Y1164507D01*
X841271Y1163061D01*
X843465Y1162152D01*
X845820Y1161842D01*
X848175Y1162152D01*
X850369Y1163061D01*
X852253Y1164507D01*
X853699Y1166391D01*
X854608Y1168585D01*
X854918Y1170940D01*
X854608Y1173295D01*
X853699Y1175489D01*
X852253Y1177373D01*
X850369Y1178819D01*
X848175Y1179728D01*
X845820Y1180038D01*
D02*
G37*
G36*
X591820Y1178768D02*
X589465Y1178458D01*
X587271Y1177549D01*
X585387Y1176103D01*
X583941Y1174219D01*
X583032Y1172025D01*
X582722Y1169670D01*
X583032Y1167315D01*
X583941Y1165121D01*
X585387Y1163237D01*
X587271Y1161791D01*
X589465Y1160882D01*
X591820Y1160572D01*
X594175Y1160882D01*
X596369Y1161791D01*
X598253Y1163237D01*
X599699Y1165121D01*
X600608Y1167315D01*
X600918Y1169670D01*
X600608Y1172025D01*
X599699Y1174219D01*
X598253Y1176103D01*
X596369Y1177549D01*
X594175Y1178458D01*
X591820Y1178768D01*
D02*
G37*
G36*
X322580Y1172528D02*
X320526Y1172257D01*
X318611Y1171464D01*
X316967Y1170203D01*
X315706Y1168559D01*
X314913Y1166645D01*
X314642Y1164590D01*
X314913Y1162535D01*
X315706Y1160621D01*
X316967Y1158977D01*
X318611Y1157716D01*
X320526Y1156923D01*
X322580Y1156652D01*
X324635Y1156923D01*
X326549Y1157716D01*
X328193Y1158977D01*
X329454Y1160621D01*
X330247Y1162535D01*
X330518Y1164590D01*
X330247Y1166645D01*
X329454Y1168559D01*
X328193Y1170203D01*
X326549Y1171464D01*
X324635Y1172257D01*
X322580Y1172528D01*
D02*
G37*
G36*
X459740Y1161960D02*
Y1154430D01*
X467270D01*
X467131Y1155481D01*
X466235Y1157643D01*
X464810Y1159500D01*
X462953Y1160925D01*
X460791Y1161821D01*
X459740Y1161960D01*
D02*
G37*
G36*
X447040Y1173798D02*
X444986Y1173527D01*
X443071Y1172734D01*
X441427Y1171473D01*
X440166Y1169829D01*
X439373Y1167915D01*
X439102Y1165860D01*
X439373Y1163805D01*
X440166Y1161891D01*
X441427Y1160247D01*
X443071Y1158986D01*
X444986Y1158193D01*
X447040Y1157922D01*
X449095Y1158193D01*
X449726Y1158454D01*
X450299Y1157979D01*
X450625Y1157452D01*
X449809Y1155481D01*
X449670Y1154430D01*
X457200D01*
Y1161960D01*
X456149Y1161821D01*
X455047Y1161365D01*
X454104Y1162349D01*
X454707Y1163805D01*
X454978Y1165860D01*
X454707Y1167915D01*
X453914Y1169829D01*
X452653Y1171473D01*
X451009Y1172734D01*
X449095Y1173527D01*
X447040Y1173798D01*
D02*
G37*
G36*
X567820Y1171070D02*
X549780D01*
Y1153030D01*
X567820D01*
Y1171070D01*
D02*
G37*
G36*
X654510Y1163638D02*
X652456Y1163367D01*
X650541Y1162574D01*
X648897Y1161313D01*
X647636Y1159669D01*
X646843Y1157755D01*
X646572Y1155700D01*
X646843Y1153645D01*
X647636Y1151731D01*
X648897Y1150087D01*
X650541Y1148826D01*
X652456Y1148033D01*
X654510Y1147762D01*
X656565Y1148033D01*
X658479Y1148826D01*
X660123Y1150087D01*
X661385Y1151731D01*
X662178Y1153645D01*
X662448Y1155700D01*
X662178Y1157755D01*
X661385Y1159669D01*
X660123Y1161313D01*
X658479Y1162574D01*
X656565Y1163367D01*
X654510Y1163638D01*
D02*
G37*
G36*
X847090Y1155499D02*
Y1146810D01*
X855779D01*
X855602Y1148161D01*
X854590Y1150603D01*
X852981Y1152701D01*
X850883Y1154310D01*
X848441Y1155322D01*
X847090Y1155499D01*
D02*
G37*
G36*
X844550D02*
X843199Y1155322D01*
X840757Y1154310D01*
X838659Y1152701D01*
X837050Y1150603D01*
X836038Y1148161D01*
X835861Y1146810D01*
X844550D01*
Y1155499D01*
D02*
G37*
G36*
X467270Y1151890D02*
X459740D01*
Y1144361D01*
X460791Y1144499D01*
X462953Y1145395D01*
X464810Y1146820D01*
X466235Y1148677D01*
X467131Y1150839D01*
X467270Y1151890D01*
D02*
G37*
G36*
X457200D02*
X449670D01*
X449809Y1150839D01*
X450705Y1148677D01*
X452130Y1146820D01*
X453987Y1145395D01*
X456149Y1144499D01*
X457200Y1144361D01*
Y1151890D01*
D02*
G37*
G36*
X810260Y1159718D02*
X807905Y1159408D01*
X805711Y1158499D01*
X803827Y1157053D01*
X802381Y1155169D01*
X801472Y1152975D01*
X801162Y1150620D01*
X801472Y1148265D01*
X802381Y1146071D01*
X803827Y1144187D01*
X805711Y1142741D01*
X807905Y1141832D01*
X810260Y1141522D01*
X812615Y1141832D01*
X814809Y1142741D01*
X816693Y1144187D01*
X818139Y1146071D01*
X819048Y1148265D01*
X819358Y1150620D01*
X819048Y1152975D01*
X818139Y1155169D01*
X816693Y1157053D01*
X814809Y1158499D01*
X812615Y1159408D01*
X810260Y1159718D01*
D02*
G37*
G36*
X483870Y1154748D02*
X481815Y1154477D01*
X479901Y1153684D01*
X478257Y1152423D01*
X476996Y1150779D01*
X476203Y1148865D01*
X475932Y1146810D01*
X476203Y1144755D01*
X476996Y1142841D01*
X478257Y1141197D01*
X479901Y1139936D01*
X481815Y1139143D01*
X483870Y1138872D01*
X485924Y1139143D01*
X487839Y1139936D01*
X489483Y1141197D01*
X490744Y1142841D01*
X491537Y1144755D01*
X491808Y1146810D01*
X491537Y1148865D01*
X490744Y1150779D01*
X489483Y1152423D01*
X487839Y1153684D01*
X485924Y1154477D01*
X483870Y1154748D01*
D02*
G37*
G36*
X855779Y1144270D02*
X847090D01*
Y1135581D01*
X848441Y1135758D01*
X850883Y1136770D01*
X852981Y1138379D01*
X854590Y1140477D01*
X855602Y1142919D01*
X855779Y1144270D01*
D02*
G37*
G36*
X844550D02*
X835861D01*
X836038Y1142919D01*
X836957Y1140700D01*
X829839Y1133581D01*
X829222Y1132659D01*
X829005Y1131570D01*
Y1003300D01*
X829222Y1002211D01*
X829839Y1001289D01*
X836957Y994170D01*
X836038Y991951D01*
X835861Y990600D01*
X844550D01*
Y999289D01*
X843199Y999112D01*
X840980Y998193D01*
X834695Y1004478D01*
Y1130392D01*
X840980Y1136677D01*
X843199Y1135758D01*
X844550Y1135581D01*
Y1144270D01*
D02*
G37*
G36*
X591820Y1153368D02*
X589465Y1153058D01*
X587271Y1152149D01*
X585387Y1150703D01*
X583941Y1148819D01*
X583032Y1146625D01*
X582722Y1144270D01*
X583032Y1141915D01*
X583941Y1139721D01*
X585387Y1137837D01*
X587271Y1136391D01*
X589465Y1135482D01*
X591820Y1135172D01*
X594175Y1135482D01*
X596369Y1136391D01*
X598253Y1137837D01*
X599699Y1139721D01*
X600608Y1141915D01*
X600918Y1144270D01*
X600608Y1146625D01*
X599699Y1148819D01*
X598253Y1150703D01*
X596369Y1152149D01*
X594175Y1153058D01*
X591820Y1153368D01*
D02*
G37*
G36*
X646430Y1148398D02*
X644376Y1148127D01*
X642461Y1147334D01*
X640817Y1146073D01*
X639556Y1144429D01*
X638763Y1142514D01*
X638492Y1140460D01*
X638763Y1138406D01*
X639556Y1136491D01*
X640817Y1134847D01*
X642461Y1133586D01*
X644376Y1132793D01*
X646430Y1132522D01*
X648484Y1132793D01*
X650399Y1133586D01*
X652043Y1134847D01*
X653304Y1136491D01*
X654097Y1138406D01*
X654368Y1140460D01*
X654097Y1142514D01*
X653304Y1144429D01*
X652043Y1146073D01*
X650399Y1147334D01*
X648484Y1148127D01*
X646430Y1148398D01*
D02*
G37*
G36*
X710991Y1146067D02*
X708937Y1145796D01*
X707022Y1145003D01*
X705378Y1143742D01*
X704117Y1142098D01*
X703324Y1140183D01*
X703053Y1138129D01*
X703324Y1136074D01*
X704117Y1134160D01*
X705378Y1132516D01*
X707022Y1131254D01*
X708937Y1130461D01*
X710991Y1130191D01*
X713046Y1130461D01*
X714960Y1131254D01*
X716604Y1132516D01*
X717866Y1134160D01*
X718659Y1136074D01*
X718929Y1138129D01*
X718659Y1140183D01*
X717866Y1142098D01*
X716604Y1143742D01*
X714960Y1145003D01*
X713046Y1145796D01*
X710991Y1146067D01*
D02*
G37*
G36*
X734060Y1145858D02*
X732005Y1145587D01*
X730091Y1144794D01*
X728447Y1143533D01*
X727186Y1141889D01*
X726393Y1139975D01*
X726122Y1137920D01*
X726393Y1135865D01*
X727186Y1133951D01*
X728447Y1132307D01*
X730091Y1131046D01*
X732005Y1130253D01*
X734060Y1129982D01*
X736115Y1130253D01*
X738029Y1131046D01*
X739673Y1132307D01*
X740934Y1133951D01*
X741727Y1135865D01*
X741998Y1137920D01*
X741727Y1139975D01*
X740934Y1141889D01*
X739673Y1143533D01*
X738029Y1144794D01*
X736115Y1145587D01*
X734060Y1145858D01*
D02*
G37*
G36*
X403860Y1136560D02*
Y1129030D01*
X411390D01*
X411251Y1130081D01*
X410355Y1132243D01*
X408930Y1134100D01*
X407073Y1135525D01*
X404911Y1136421D01*
X403860Y1136560D01*
D02*
G37*
G36*
X401320D02*
X400269Y1136421D01*
X398107Y1135525D01*
X396250Y1134100D01*
X394825Y1132243D01*
X393929Y1130081D01*
X393791Y1129030D01*
X401320D01*
Y1136560D01*
D02*
G37*
G36*
X753110Y1144588D02*
X751056Y1144317D01*
X749141Y1143524D01*
X747497Y1142263D01*
X746236Y1140619D01*
X745443Y1138705D01*
X745172Y1136650D01*
X745443Y1134595D01*
X746236Y1132681D01*
X747497Y1131037D01*
X749141Y1129776D01*
X751056Y1128983D01*
X753110Y1128712D01*
X755164Y1128983D01*
X757079Y1129776D01*
X758723Y1131037D01*
X759984Y1132681D01*
X760777Y1134595D01*
X761048Y1136650D01*
X760777Y1138705D01*
X759984Y1140619D01*
X758723Y1142263D01*
X757079Y1143524D01*
X755164Y1144317D01*
X753110Y1144588D01*
D02*
G37*
G36*
X666750Y1143318D02*
X664696Y1143047D01*
X662781Y1142254D01*
X661137Y1140993D01*
X659876Y1139349D01*
X659083Y1137434D01*
X658812Y1135380D01*
X659083Y1133326D01*
X659876Y1131411D01*
X661137Y1129767D01*
X662781Y1128506D01*
X664696Y1127713D01*
X666750Y1127442D01*
X668804Y1127713D01*
X670719Y1128506D01*
X672363Y1129767D01*
X673624Y1131411D01*
X674417Y1133326D01*
X674688Y1135380D01*
X674417Y1137434D01*
X673624Y1139349D01*
X672363Y1140993D01*
X670719Y1142254D01*
X668804Y1143047D01*
X666750Y1143318D01*
D02*
G37*
G36*
X411390Y1126490D02*
X403860D01*
Y1118960D01*
X404911Y1119099D01*
X407073Y1119995D01*
X408930Y1121420D01*
X410355Y1123277D01*
X411251Y1125439D01*
X411390Y1126490D01*
D02*
G37*
G36*
X401320D02*
X393791D01*
X393929Y1125439D01*
X394825Y1123277D01*
X396250Y1121420D01*
X398107Y1119995D01*
X400269Y1119099D01*
X401320Y1118960D01*
Y1126490D01*
D02*
G37*
G36*
X810260Y1134318D02*
X807905Y1134008D01*
X805711Y1133099D01*
X803827Y1131653D01*
X802381Y1129769D01*
X801472Y1127575D01*
X801162Y1125220D01*
X801472Y1122865D01*
X802381Y1120671D01*
X803827Y1118787D01*
X805711Y1117341D01*
X807905Y1116432D01*
X810260Y1116122D01*
X812615Y1116432D01*
X814809Y1117341D01*
X816693Y1118787D01*
X818139Y1120671D01*
X819048Y1122865D01*
X819358Y1125220D01*
X819048Y1127575D01*
X818139Y1129769D01*
X816693Y1131653D01*
X814809Y1133099D01*
X812615Y1134008D01*
X810260Y1134318D01*
D02*
G37*
G36*
X854840Y1129160D02*
X836800D01*
Y1111120D01*
X854840D01*
Y1129160D01*
D02*
G37*
G36*
X591820Y1127968D02*
X589465Y1127658D01*
X587271Y1126749D01*
X585387Y1125303D01*
X583941Y1123419D01*
X583032Y1121225D01*
X582722Y1118870D01*
X583032Y1116515D01*
X583941Y1114321D01*
X585387Y1112437D01*
X587271Y1110991D01*
X589465Y1110082D01*
X591820Y1109772D01*
X594175Y1110082D01*
X596369Y1110991D01*
X598253Y1112437D01*
X599699Y1114321D01*
X600608Y1116515D01*
X600918Y1118870D01*
X600608Y1121225D01*
X599699Y1123419D01*
X598253Y1125303D01*
X596369Y1126749D01*
X594175Y1127658D01*
X591820Y1127968D01*
D02*
G37*
G36*
X810260Y1108918D02*
X807905Y1108608D01*
X805711Y1107699D01*
X803827Y1106253D01*
X802381Y1104369D01*
X801472Y1102175D01*
X801162Y1099820D01*
X801472Y1097465D01*
X802381Y1095271D01*
X803827Y1093387D01*
X805711Y1091941D01*
X807905Y1091032D01*
X810260Y1090722D01*
X812615Y1091032D01*
X814809Y1091941D01*
X816693Y1093387D01*
X818139Y1095271D01*
X819048Y1097465D01*
X819358Y1099820D01*
X819048Y1102175D01*
X818139Y1104369D01*
X816693Y1106253D01*
X814809Y1107699D01*
X812615Y1108608D01*
X810260Y1108918D01*
D02*
G37*
G36*
X635130Y1103760D02*
X617090D01*
Y1085720D01*
X635130D01*
Y1103760D01*
D02*
G37*
G36*
X591820Y1102568D02*
X589465Y1102258D01*
X587271Y1101349D01*
X585387Y1099903D01*
X583941Y1098019D01*
X583032Y1095825D01*
X582722Y1093470D01*
X583032Y1091115D01*
X583941Y1088921D01*
X585387Y1087037D01*
X587271Y1085591D01*
X589465Y1084682D01*
X591820Y1084372D01*
X594175Y1084682D01*
X596369Y1085591D01*
X598253Y1087037D01*
X599699Y1088921D01*
X600608Y1091115D01*
X600918Y1093470D01*
X600608Y1095825D01*
X599699Y1098019D01*
X598253Y1099903D01*
X596369Y1101349D01*
X594175Y1102258D01*
X591820Y1102568D01*
D02*
G37*
G36*
X401320Y1100138D02*
X399266Y1099867D01*
X397351Y1099074D01*
X395707Y1097813D01*
X394446Y1096169D01*
X393653Y1094255D01*
X393382Y1092200D01*
X393653Y1090145D01*
X394446Y1088231D01*
X395707Y1086587D01*
X397351Y1085326D01*
X399266Y1084533D01*
X401320Y1084262D01*
X403374Y1084533D01*
X405289Y1085326D01*
X406933Y1086587D01*
X408194Y1088231D01*
X408987Y1090145D01*
X409258Y1092200D01*
X408987Y1094255D01*
X408194Y1096169D01*
X406933Y1097813D01*
X405289Y1099074D01*
X403374Y1099867D01*
X401320Y1100138D01*
D02*
G37*
G36*
X675770Y1099950D02*
X657730D01*
Y1081910D01*
X675770D01*
Y1099950D01*
D02*
G37*
G36*
X569090D02*
X551050D01*
Y1081910D01*
X569090D01*
Y1099950D01*
D02*
G37*
G36*
X768350Y1100028D02*
X765995Y1099718D01*
X763801Y1098809D01*
X761917Y1097363D01*
X760471Y1095479D01*
X759562Y1093285D01*
X759252Y1090930D01*
X759562Y1088575D01*
X760471Y1086381D01*
X761917Y1084497D01*
X763801Y1083051D01*
X765995Y1082142D01*
X768350Y1081832D01*
X770705Y1082142D01*
X772899Y1083051D01*
X774783Y1084497D01*
X776229Y1086381D01*
X777138Y1088575D01*
X777448Y1090930D01*
X777138Y1093285D01*
X776229Y1095479D01*
X774783Y1097363D01*
X772899Y1098809D01*
X770705Y1099718D01*
X768350Y1100028D01*
D02*
G37*
G36*
X742950D02*
X740595Y1099718D01*
X738401Y1098809D01*
X736517Y1097363D01*
X735071Y1095479D01*
X734162Y1093285D01*
X733852Y1090930D01*
X734162Y1088575D01*
X735071Y1086381D01*
X736517Y1084497D01*
X738401Y1083051D01*
X740595Y1082142D01*
X742950Y1081832D01*
X745305Y1082142D01*
X747499Y1083051D01*
X749383Y1084497D01*
X750829Y1086381D01*
X751738Y1088575D01*
X752048Y1090930D01*
X751738Y1093285D01*
X750829Y1095479D01*
X749383Y1097363D01*
X747499Y1098809D01*
X745305Y1099718D01*
X742950Y1100028D01*
D02*
G37*
G36*
X717550D02*
X715195Y1099718D01*
X713001Y1098809D01*
X711117Y1097363D01*
X709671Y1095479D01*
X708762Y1093285D01*
X708452Y1090930D01*
X708762Y1088575D01*
X709671Y1086381D01*
X711117Y1084497D01*
X713001Y1083051D01*
X715195Y1082142D01*
X717550Y1081832D01*
X719905Y1082142D01*
X722099Y1083051D01*
X723983Y1084497D01*
X725429Y1086381D01*
X726338Y1088575D01*
X726648Y1090930D01*
X726338Y1093285D01*
X725429Y1095479D01*
X723983Y1097363D01*
X722099Y1098809D01*
X719905Y1099718D01*
X717550Y1100028D01*
D02*
G37*
G36*
X692150D02*
X689795Y1099718D01*
X687601Y1098809D01*
X685717Y1097363D01*
X684271Y1095479D01*
X683362Y1093285D01*
X683052Y1090930D01*
X683362Y1088575D01*
X684271Y1086381D01*
X685717Y1084497D01*
X687601Y1083051D01*
X689795Y1082142D01*
X692150Y1081832D01*
X694505Y1082142D01*
X696699Y1083051D01*
X698583Y1084497D01*
X700029Y1086381D01*
X700938Y1088575D01*
X701248Y1090930D01*
X700938Y1093285D01*
X700029Y1095479D01*
X698583Y1097363D01*
X696699Y1098809D01*
X694505Y1099718D01*
X692150Y1100028D01*
D02*
G37*
G36*
X334010Y1081949D02*
Y1074420D01*
X341539D01*
X341401Y1075471D01*
X340505Y1077633D01*
X339080Y1079490D01*
X337223Y1080915D01*
X335061Y1081811D01*
X334010Y1081949D01*
D02*
G37*
G36*
X331470D02*
X330419Y1081811D01*
X328257Y1080915D01*
X326400Y1079490D01*
X324975Y1077633D01*
X324079Y1075471D01*
X323941Y1074420D01*
X331470D01*
Y1081949D01*
D02*
G37*
G36*
X852170Y1089978D02*
X850116Y1089707D01*
X848201Y1088914D01*
X846557Y1087653D01*
X845296Y1086009D01*
X844503Y1084094D01*
X844232Y1082040D01*
X844503Y1079986D01*
X845296Y1078071D01*
X846557Y1076427D01*
X848201Y1075166D01*
X850116Y1074373D01*
X852170Y1074102D01*
X854224Y1074373D01*
X856139Y1075166D01*
X857783Y1076427D01*
X859044Y1078071D01*
X859837Y1079986D01*
X860108Y1082040D01*
X859837Y1084094D01*
X859044Y1086009D01*
X857783Y1087653D01*
X856139Y1088914D01*
X854224Y1089707D01*
X852170Y1089978D01*
D02*
G37*
G36*
X810260Y1083518D02*
X807905Y1083208D01*
X805711Y1082299D01*
X803827Y1080853D01*
X802381Y1078969D01*
X801472Y1076775D01*
X801162Y1074420D01*
X801472Y1072065D01*
X802381Y1069871D01*
X803827Y1067987D01*
X805711Y1066541D01*
X807905Y1065632D01*
X810260Y1065322D01*
X812615Y1065632D01*
X814809Y1066541D01*
X816693Y1067987D01*
X818139Y1069871D01*
X819048Y1072065D01*
X819358Y1074420D01*
X819048Y1076775D01*
X818139Y1078969D01*
X816693Y1080853D01*
X814809Y1082299D01*
X812615Y1083208D01*
X810260Y1083518D01*
D02*
G37*
G36*
X680720Y1081088D02*
X678665Y1080817D01*
X676751Y1080024D01*
X675107Y1078763D01*
X673846Y1077119D01*
X673053Y1075204D01*
X672782Y1073150D01*
X673053Y1071096D01*
X673846Y1069181D01*
X675107Y1067537D01*
X676751Y1066276D01*
X678665Y1065483D01*
X680720Y1065212D01*
X682775Y1065483D01*
X684689Y1066276D01*
X686333Y1067537D01*
X687594Y1069181D01*
X688387Y1071096D01*
X688658Y1073150D01*
X688387Y1075204D01*
X687594Y1077119D01*
X686333Y1078763D01*
X684689Y1080024D01*
X682775Y1080817D01*
X680720Y1081088D01*
D02*
G37*
G36*
X341539Y1071880D02*
X334010D01*
Y1064351D01*
X335061Y1064489D01*
X337223Y1065385D01*
X339080Y1066810D01*
X340505Y1068667D01*
X341401Y1070829D01*
X341539Y1071880D01*
D02*
G37*
G36*
X331470D02*
X323941D01*
X324079Y1070829D01*
X324975Y1068667D01*
X326400Y1066810D01*
X328257Y1065385D01*
X330419Y1064489D01*
X331470Y1064351D01*
Y1071880D01*
D02*
G37*
G36*
X626110Y1078438D02*
X623755Y1078128D01*
X621561Y1077219D01*
X619677Y1075773D01*
X618231Y1073889D01*
X617322Y1071695D01*
X617012Y1069340D01*
X617322Y1066985D01*
X618231Y1064791D01*
X619677Y1062907D01*
X621561Y1061461D01*
X623755Y1060552D01*
X626110Y1060242D01*
X628465Y1060552D01*
X630659Y1061461D01*
X632543Y1062907D01*
X633989Y1064791D01*
X634898Y1066985D01*
X635208Y1069340D01*
X634898Y1071695D01*
X633989Y1073889D01*
X632543Y1075773D01*
X630659Y1077219D01*
X628465Y1078128D01*
X626110Y1078438D01*
D02*
G37*
G36*
X591820Y1077168D02*
X589465Y1076858D01*
X587271Y1075949D01*
X585387Y1074503D01*
X583941Y1072619D01*
X583032Y1070425D01*
X582722Y1068070D01*
X583032Y1065715D01*
X583941Y1063521D01*
X585387Y1061637D01*
X587271Y1060191D01*
X589465Y1059282D01*
X591820Y1058972D01*
X594175Y1059282D01*
X596369Y1060191D01*
X598253Y1061637D01*
X599699Y1063521D01*
X600608Y1065715D01*
X600918Y1068070D01*
X600608Y1070425D01*
X599699Y1072619D01*
X598253Y1074503D01*
X596369Y1075949D01*
X594175Y1076858D01*
X591820Y1077168D01*
D02*
G37*
G36*
X560070Y1074628D02*
X557715Y1074318D01*
X555521Y1073409D01*
X553637Y1071963D01*
X552191Y1070079D01*
X551282Y1067885D01*
X550972Y1065530D01*
X551282Y1063175D01*
X552191Y1060981D01*
X553637Y1059097D01*
X555521Y1057651D01*
X557715Y1056742D01*
X560070Y1056432D01*
X562425Y1056742D01*
X564619Y1057651D01*
X566503Y1059097D01*
X567949Y1060981D01*
X568858Y1063175D01*
X569168Y1065530D01*
X568858Y1067885D01*
X567949Y1070079D01*
X566503Y1071963D01*
X564619Y1073409D01*
X562425Y1074318D01*
X560070Y1074628D01*
D02*
G37*
G36*
X660760Y1063580D02*
Y1054850D01*
X669490D01*
X669311Y1056211D01*
X668295Y1058663D01*
X666679Y1060769D01*
X664574Y1062385D01*
X662121Y1063400D01*
X660760Y1063580D01*
D02*
G37*
G36*
X658220Y1063580D02*
X656859Y1063400D01*
X654407Y1062385D01*
X652301Y1060769D01*
X650685Y1058663D01*
X649669Y1056211D01*
X649490Y1054850D01*
X658220D01*
Y1063580D01*
D02*
G37*
G36*
X731880Y1058500D02*
Y1049770D01*
X740610D01*
X740431Y1051131D01*
X739415Y1053584D01*
X737799Y1055689D01*
X735694Y1057305D01*
X733241Y1058320D01*
X731880Y1058500D01*
D02*
G37*
G36*
X729340Y1058500D02*
X727979Y1058320D01*
X725527Y1057305D01*
X723421Y1055689D01*
X721805Y1053584D01*
X720789Y1051131D01*
X720610Y1049770D01*
X729340D01*
Y1058500D01*
D02*
G37*
G36*
X684530Y1062038D02*
X682476Y1061767D01*
X680561Y1060974D01*
X678917Y1059713D01*
X677656Y1058069D01*
X676863Y1056154D01*
X676592Y1054100D01*
X676863Y1052046D01*
X677656Y1050131D01*
X678917Y1048487D01*
X680561Y1047226D01*
X682476Y1046433D01*
X684530Y1046162D01*
X686584Y1046433D01*
X688499Y1047226D01*
X690143Y1048487D01*
X691404Y1050131D01*
X692197Y1052046D01*
X692468Y1054100D01*
X692197Y1056154D01*
X691404Y1058069D01*
X690143Y1059713D01*
X688499Y1060974D01*
X686584Y1061767D01*
X684530Y1062038D01*
D02*
G37*
G36*
X707390Y1078548D02*
X705335Y1078277D01*
X703421Y1077484D01*
X701777Y1076223D01*
X700516Y1074579D01*
X699723Y1072664D01*
X699452Y1070610D01*
X699723Y1068556D01*
X700516Y1066641D01*
X701777Y1064997D01*
X703285Y1063840D01*
X703282Y1063313D01*
X703025Y1062525D01*
X702125Y1062407D01*
X699921Y1061494D01*
X698028Y1060042D01*
X696576Y1058149D01*
X695663Y1055945D01*
X695352Y1053580D01*
X695663Y1051215D01*
X696576Y1049011D01*
X698028Y1047118D01*
X699921Y1045666D01*
X702125Y1044753D01*
X704490Y1044442D01*
X706855Y1044753D01*
X709059Y1045666D01*
X710952Y1047118D01*
X712404Y1049011D01*
X713317Y1051215D01*
X713628Y1053580D01*
X713317Y1055945D01*
X712404Y1058149D01*
X710952Y1060042D01*
X709059Y1061494D01*
X708845Y1061583D01*
X709016Y1062886D01*
X709445Y1062943D01*
X711359Y1063736D01*
X713003Y1064997D01*
X714264Y1066641D01*
X715057Y1068556D01*
X715328Y1070610D01*
X715057Y1072664D01*
X714264Y1074579D01*
X713003Y1076223D01*
X711359Y1077484D01*
X709445Y1078277D01*
X707390Y1078548D01*
D02*
G37*
G36*
X382270Y1059498D02*
X380215Y1059227D01*
X378301Y1058434D01*
X376657Y1057173D01*
X375396Y1055529D01*
X374603Y1053615D01*
X374332Y1051560D01*
X374603Y1049505D01*
X375396Y1047591D01*
X376657Y1045947D01*
X378301Y1044686D01*
X380215Y1043893D01*
X382270Y1043622D01*
X384324Y1043893D01*
X386239Y1044686D01*
X387883Y1045947D01*
X389144Y1047591D01*
X389937Y1049505D01*
X390208Y1051560D01*
X389937Y1053615D01*
X389144Y1055529D01*
X387883Y1057173D01*
X386239Y1058434D01*
X384324Y1059227D01*
X382270Y1059498D01*
D02*
G37*
G36*
X658220Y1052310D02*
X649490D01*
X649669Y1050949D01*
X650685Y1048496D01*
X652301Y1046391D01*
X654407Y1044775D01*
X656859Y1043760D01*
X658220Y1043580D01*
Y1052310D01*
D02*
G37*
G36*
X669490D02*
X660760D01*
Y1043580D01*
X662121Y1043760D01*
X664574Y1044775D01*
X666679Y1046391D01*
X668295Y1048496D01*
X669311Y1050949D01*
X669490Y1052310D01*
D02*
G37*
G36*
X810260Y1058118D02*
X807905Y1057808D01*
X805711Y1056899D01*
X803827Y1055453D01*
X802381Y1053569D01*
X801472Y1051375D01*
X801162Y1049020D01*
X801472Y1046665D01*
X802381Y1044471D01*
X803827Y1042587D01*
X805711Y1041141D01*
X807905Y1040232D01*
X810260Y1039922D01*
X812615Y1040232D01*
X814809Y1041141D01*
X816693Y1042587D01*
X818139Y1044471D01*
X819048Y1046665D01*
X819358Y1049020D01*
X819048Y1051375D01*
X818139Y1053569D01*
X816693Y1055453D01*
X814809Y1056899D01*
X812615Y1057808D01*
X810260Y1058118D01*
D02*
G37*
G36*
X775610Y1057638D02*
X773245Y1057327D01*
X771041Y1056414D01*
X769148Y1054962D01*
X767696Y1053069D01*
X766783Y1050865D01*
X766472Y1048500D01*
X766783Y1046135D01*
X767696Y1043931D01*
X769148Y1042038D01*
X771041Y1040586D01*
X773245Y1039673D01*
X775610Y1039362D01*
X777975Y1039673D01*
X780179Y1040586D01*
X782072Y1042038D01*
X783524Y1043931D01*
X784437Y1046135D01*
X784748Y1048500D01*
X784437Y1050865D01*
X783524Y1053069D01*
X782072Y1054962D01*
X780179Y1056414D01*
X777975Y1057327D01*
X775610Y1057638D01*
D02*
G37*
G36*
X729340Y1047230D02*
X720610D01*
X720789Y1045869D01*
X721805Y1043417D01*
X723421Y1041311D01*
X725527Y1039695D01*
X727979Y1038680D01*
X729340Y1038500D01*
Y1047230D01*
D02*
G37*
G36*
X740610D02*
X731880D01*
Y1038500D01*
X733241Y1038680D01*
X735694Y1039695D01*
X737799Y1041311D01*
X739415Y1043417D01*
X740431Y1045869D01*
X740610Y1047230D01*
D02*
G37*
G36*
X626110Y1053038D02*
X623755Y1052728D01*
X621561Y1051819D01*
X619677Y1050373D01*
X618231Y1048489D01*
X617322Y1046295D01*
X617012Y1043940D01*
X617322Y1041585D01*
X618231Y1039391D01*
X619677Y1037507D01*
X621561Y1036061D01*
X623755Y1035152D01*
X626110Y1034842D01*
X628465Y1035152D01*
X630659Y1036061D01*
X632543Y1037507D01*
X633989Y1039391D01*
X634898Y1041585D01*
X635208Y1043940D01*
X634898Y1046295D01*
X633989Y1048489D01*
X632543Y1050373D01*
X630659Y1051819D01*
X628465Y1052728D01*
X626110Y1053038D01*
D02*
G37*
G36*
X591820Y1051768D02*
X589465Y1051458D01*
X587271Y1050549D01*
X585387Y1049103D01*
X583941Y1047219D01*
X583032Y1045025D01*
X582722Y1042670D01*
X583032Y1040315D01*
X583941Y1038121D01*
X585387Y1036237D01*
X587271Y1034791D01*
X589465Y1033882D01*
X591820Y1033572D01*
X594175Y1033882D01*
X596369Y1034791D01*
X598253Y1036237D01*
X599699Y1038121D01*
X600608Y1040315D01*
X600918Y1042670D01*
X600608Y1045025D01*
X599699Y1047219D01*
X598253Y1049103D01*
X596369Y1050549D01*
X594175Y1051458D01*
X591820Y1051768D01*
D02*
G37*
G36*
X845820Y1049228D02*
X843465Y1048918D01*
X841271Y1048009D01*
X839387Y1046563D01*
X837941Y1044679D01*
X837032Y1042485D01*
X836722Y1040130D01*
X837032Y1037775D01*
X837941Y1035581D01*
X839387Y1033697D01*
X841271Y1032251D01*
X843465Y1031342D01*
X845820Y1031032D01*
X848175Y1031342D01*
X850369Y1032251D01*
X852253Y1033697D01*
X853699Y1035581D01*
X854608Y1037775D01*
X854918Y1040130D01*
X854608Y1042485D01*
X853699Y1044679D01*
X852253Y1046563D01*
X850369Y1048009D01*
X848175Y1048918D01*
X845820Y1049228D01*
D02*
G37*
G36*
X560070D02*
X557715Y1048918D01*
X555521Y1048009D01*
X553637Y1046563D01*
X552191Y1044679D01*
X551282Y1042485D01*
X550972Y1040130D01*
X551282Y1037775D01*
X552191Y1035581D01*
X553637Y1033697D01*
X555521Y1032251D01*
X557715Y1031342D01*
X560070Y1031032D01*
X562425Y1031342D01*
X564619Y1032251D01*
X566503Y1033697D01*
X567949Y1035581D01*
X568858Y1037775D01*
X569168Y1040130D01*
X568858Y1042485D01*
X567949Y1044679D01*
X566503Y1046563D01*
X564619Y1048009D01*
X562425Y1048918D01*
X560070Y1049228D01*
D02*
G37*
G36*
X452120Y1040448D02*
X450065Y1040177D01*
X448151Y1039384D01*
X446507Y1038123D01*
X445246Y1036479D01*
X444453Y1034565D01*
X444182Y1032510D01*
X444453Y1030455D01*
X445246Y1028541D01*
X446507Y1026897D01*
X448151Y1025636D01*
X450065Y1024843D01*
X452120Y1024572D01*
X454174Y1024843D01*
X456089Y1025636D01*
X457733Y1026897D01*
X458994Y1028541D01*
X459787Y1030455D01*
X460058Y1032510D01*
X459787Y1034565D01*
X458994Y1036479D01*
X457733Y1038123D01*
X456089Y1039384D01*
X454174Y1040177D01*
X452120Y1040448D01*
D02*
G37*
G36*
X810260Y1032718D02*
X807905Y1032408D01*
X805711Y1031499D01*
X803827Y1030053D01*
X802381Y1028169D01*
X801472Y1025975D01*
X801162Y1023620D01*
X801472Y1021265D01*
X802381Y1019071D01*
X803827Y1017187D01*
X805711Y1015741D01*
X807905Y1014832D01*
X810260Y1014522D01*
X812615Y1014832D01*
X814809Y1015741D01*
X816693Y1017187D01*
X818139Y1019071D01*
X819048Y1021265D01*
X819358Y1023620D01*
X819048Y1025975D01*
X818139Y1028169D01*
X816693Y1030053D01*
X814809Y1031499D01*
X812615Y1032408D01*
X810260Y1032718D01*
D02*
G37*
G36*
X626110Y1027638D02*
X623755Y1027328D01*
X621561Y1026419D01*
X619677Y1024973D01*
X618231Y1023089D01*
X617322Y1020895D01*
X617012Y1018540D01*
X617322Y1016185D01*
X618231Y1013991D01*
X619677Y1012107D01*
X621561Y1010661D01*
X623755Y1009752D01*
X626110Y1009442D01*
X628465Y1009752D01*
X630659Y1010661D01*
X632543Y1012107D01*
X633989Y1013991D01*
X634898Y1016185D01*
X635208Y1018540D01*
X634898Y1020895D01*
X633989Y1023089D01*
X632543Y1024973D01*
X630659Y1026419D01*
X628465Y1027328D01*
X626110Y1027638D01*
D02*
G37*
G36*
X845820Y1023828D02*
X843465Y1023518D01*
X841271Y1022609D01*
X839387Y1021163D01*
X837941Y1019279D01*
X837032Y1017085D01*
X836722Y1014730D01*
X837032Y1012375D01*
X837941Y1010181D01*
X839387Y1008297D01*
X841271Y1006851D01*
X843465Y1005942D01*
X845820Y1005632D01*
X848175Y1005942D01*
X850369Y1006851D01*
X852253Y1008297D01*
X853699Y1010181D01*
X854608Y1012375D01*
X854918Y1014730D01*
X854608Y1017085D01*
X853699Y1019279D01*
X852253Y1021163D01*
X850369Y1022609D01*
X848175Y1023518D01*
X845820Y1023828D01*
D02*
G37*
G36*
X560070D02*
X557715Y1023518D01*
X555521Y1022609D01*
X553637Y1021163D01*
X552191Y1019279D01*
X551282Y1017085D01*
X550972Y1014730D01*
X551282Y1012375D01*
X552191Y1010181D01*
X553637Y1008297D01*
X555521Y1006851D01*
X557715Y1005942D01*
X560070Y1005632D01*
X562425Y1005942D01*
X564619Y1006851D01*
X566503Y1008297D01*
X567949Y1010181D01*
X568858Y1012375D01*
X569168Y1014730D01*
X568858Y1017085D01*
X567949Y1019279D01*
X566503Y1021163D01*
X564619Y1022609D01*
X562425Y1023518D01*
X560070Y1023828D01*
D02*
G37*
G36*
X402590Y1021398D02*
X400536Y1021127D01*
X398621Y1020334D01*
X396977Y1019073D01*
X395716Y1017429D01*
X394923Y1015515D01*
X394652Y1013460D01*
X394923Y1011405D01*
X395716Y1009491D01*
X396977Y1007847D01*
X398621Y1006586D01*
X400536Y1005793D01*
X402590Y1005522D01*
X404645Y1005793D01*
X406559Y1006586D01*
X408203Y1007847D01*
X409464Y1009491D01*
X410257Y1011405D01*
X410528Y1013460D01*
X410257Y1015515D01*
X409464Y1017429D01*
X408203Y1019073D01*
X406559Y1020334D01*
X404645Y1021127D01*
X402590Y1021398D01*
D02*
G37*
G36*
X847090Y999289D02*
Y990600D01*
X855779D01*
X855602Y991951D01*
X854590Y994393D01*
X852981Y996491D01*
X850883Y998100D01*
X848441Y999112D01*
X847090Y999289D01*
D02*
G37*
G36*
X561340D02*
Y990600D01*
X570029D01*
X569852Y991951D01*
X568840Y994393D01*
X567231Y996491D01*
X565133Y998100D01*
X562691Y999112D01*
X561340Y999289D01*
D02*
G37*
G36*
X558800D02*
X557449Y999112D01*
X555007Y998100D01*
X552909Y996491D01*
X551300Y994393D01*
X550288Y991951D01*
X550111Y990600D01*
X558800D01*
Y999289D01*
D02*
G37*
G36*
X660760Y998580D02*
Y989850D01*
X669490D01*
X669311Y991211D01*
X668295Y993663D01*
X666679Y995769D01*
X664574Y997385D01*
X662121Y998400D01*
X660760Y998580D01*
D02*
G37*
G36*
X658220Y998580D02*
X656859Y998400D01*
X654407Y997385D01*
X652301Y995769D01*
X650685Y993663D01*
X649669Y991211D01*
X649490Y989850D01*
X658220D01*
Y998580D01*
D02*
G37*
G36*
X810260Y1007318D02*
X807905Y1007008D01*
X805711Y1006099D01*
X803827Y1004653D01*
X802381Y1002769D01*
X801472Y1000575D01*
X801162Y998220D01*
X801472Y995865D01*
X802381Y993671D01*
X803827Y991787D01*
X805711Y990341D01*
X807905Y989432D01*
X810260Y989122D01*
X812615Y989432D01*
X814809Y990341D01*
X816693Y991787D01*
X818139Y993671D01*
X819048Y995865D01*
X819358Y998220D01*
X819048Y1000575D01*
X818139Y1002769D01*
X816693Y1004653D01*
X814809Y1006099D01*
X812615Y1007008D01*
X810260Y1007318D01*
D02*
G37*
G36*
X731880Y993500D02*
Y984770D01*
X740610D01*
X740431Y986131D01*
X739415Y988584D01*
X737799Y990689D01*
X735694Y992305D01*
X733241Y993320D01*
X731880Y993500D01*
D02*
G37*
G36*
X729340Y993500D02*
X727979Y993320D01*
X725527Y992305D01*
X723421Y990689D01*
X721805Y988584D01*
X720789Y986131D01*
X720610Y984770D01*
X729340D01*
Y993500D01*
D02*
G37*
G36*
X626110Y1002238D02*
X623755Y1001928D01*
X621561Y1001019D01*
X619677Y999573D01*
X618231Y997689D01*
X617322Y995495D01*
X617012Y993140D01*
X617322Y990785D01*
X618231Y988591D01*
X619677Y986707D01*
X621561Y985261D01*
X623755Y984352D01*
X626110Y984042D01*
X628465Y984352D01*
X630659Y985261D01*
X632543Y986707D01*
X633989Y988591D01*
X634898Y990785D01*
X635208Y993140D01*
X634898Y995495D01*
X633989Y997689D01*
X632543Y999573D01*
X630659Y1001019D01*
X628465Y1001928D01*
X626110Y1002238D01*
D02*
G37*
G36*
X704490Y997718D02*
X702125Y997407D01*
X699921Y996494D01*
X698028Y995042D01*
X696576Y993149D01*
X695663Y990945D01*
X695352Y988580D01*
X695663Y986215D01*
X696576Y984011D01*
X698028Y982118D01*
X699921Y980666D01*
X702125Y979753D01*
X704490Y979442D01*
X706855Y979753D01*
X709059Y980666D01*
X710952Y982118D01*
X712404Y984011D01*
X713317Y986215D01*
X713628Y988580D01*
X713317Y990945D01*
X712404Y993149D01*
X710952Y995042D01*
X709059Y996494D01*
X706855Y997407D01*
X704490Y997718D01*
D02*
G37*
G36*
X855779Y988060D02*
X847090D01*
Y979371D01*
X848441Y979548D01*
X850883Y980560D01*
X852981Y982169D01*
X854590Y984267D01*
X855602Y986709D01*
X855779Y988060D01*
D02*
G37*
G36*
X570029D02*
X561340D01*
Y979371D01*
X562691Y979548D01*
X565133Y980560D01*
X567231Y982169D01*
X568840Y984267D01*
X569852Y986709D01*
X570029Y988060D01*
D02*
G37*
G36*
X558800D02*
X550111D01*
X550288Y986709D01*
X551300Y984267D01*
X552909Y982169D01*
X555007Y980560D01*
X557449Y979548D01*
X558800Y979371D01*
Y988060D01*
D02*
G37*
G36*
X844550D02*
X835861D01*
X836038Y986709D01*
X837050Y984267D01*
X838659Y982169D01*
X840757Y980560D01*
X843199Y979548D01*
X844550Y979371D01*
Y988060D01*
D02*
G37*
G36*
X658220Y987310D02*
X649490D01*
X649669Y985949D01*
X650685Y983496D01*
X652301Y981391D01*
X654407Y979775D01*
X656859Y978760D01*
X658220Y978580D01*
Y987310D01*
D02*
G37*
G36*
X669490D02*
X660760D01*
Y978580D01*
X662121Y978760D01*
X664574Y979775D01*
X666679Y981391D01*
X668295Y983496D01*
X669311Y985949D01*
X669490Y987310D01*
D02*
G37*
G36*
X462280Y992188D02*
X460225Y991917D01*
X458311Y991124D01*
X456667Y989863D01*
X455406Y988219D01*
X454613Y986304D01*
X454342Y984250D01*
X454613Y982196D01*
X455406Y980281D01*
X456667Y978637D01*
X458311Y977376D01*
X460225Y976583D01*
X462280Y976312D01*
X464334Y976583D01*
X466249Y977376D01*
X467893Y978637D01*
X469154Y980281D01*
X469947Y982196D01*
X470218Y984250D01*
X469947Y986304D01*
X469154Y988219D01*
X467893Y989863D01*
X466249Y991124D01*
X464334Y991917D01*
X462280Y992188D01*
D02*
G37*
G36*
X775610Y992638D02*
X773245Y992327D01*
X771041Y991414D01*
X769148Y989962D01*
X767696Y988069D01*
X766783Y985865D01*
X766472Y983500D01*
X766783Y981135D01*
X767696Y978931D01*
X769148Y977038D01*
X771041Y975586D01*
X773245Y974673D01*
X775610Y974362D01*
X777975Y974673D01*
X780179Y975586D01*
X782072Y977038D01*
X783524Y978931D01*
X784437Y981135D01*
X784748Y983500D01*
X784437Y985865D01*
X783524Y988069D01*
X782072Y989962D01*
X780179Y991414D01*
X777975Y992327D01*
X775610Y992638D01*
D02*
G37*
G36*
X729340Y982230D02*
X720610D01*
X720789Y980869D01*
X721805Y978417D01*
X723421Y976311D01*
X725527Y974695D01*
X727979Y973680D01*
X729340Y973500D01*
Y982230D01*
D02*
G37*
G36*
X740610D02*
X731880D01*
Y973500D01*
X733241Y973680D01*
X735694Y974695D01*
X737799Y976311D01*
X739415Y978417D01*
X740431Y980869D01*
X740610Y982230D01*
D02*
G37*
G36*
X585470Y978218D02*
X583415Y977947D01*
X581501Y977154D01*
X579857Y975893D01*
X578596Y974249D01*
X577803Y972335D01*
X577532Y970280D01*
X577803Y968225D01*
X578596Y966311D01*
X579857Y964667D01*
X581501Y963406D01*
X583415Y962613D01*
X585470Y962342D01*
X587524Y962613D01*
X589439Y963406D01*
X591083Y964667D01*
X592344Y966311D01*
X593137Y968225D01*
X593408Y970280D01*
X593137Y972335D01*
X592344Y974249D01*
X591083Y975893D01*
X589439Y977154D01*
X587524Y977947D01*
X585470Y978218D01*
D02*
G37*
G36*
X824110Y963810D02*
X815340D01*
Y955040D01*
X824110D01*
Y963810D01*
D02*
G37*
G36*
X812800D02*
X804030D01*
Y955040D01*
X812800D01*
Y963810D01*
D02*
G37*
G36*
X854840Y972950D02*
X836800D01*
Y954910D01*
X854840D01*
Y972950D01*
D02*
G37*
G36*
X560070Y973028D02*
X557715Y972718D01*
X555521Y971809D01*
X553637Y970363D01*
X552191Y968479D01*
X551282Y966285D01*
X550972Y963930D01*
X551282Y961575D01*
X552191Y959381D01*
X553637Y957497D01*
X555521Y956051D01*
X557715Y955142D01*
X560070Y954832D01*
X562425Y955142D01*
X564619Y956051D01*
X566503Y957497D01*
X567949Y959381D01*
X568858Y961575D01*
X569168Y963930D01*
X568858Y966285D01*
X567949Y968479D01*
X566503Y970363D01*
X564619Y971809D01*
X562425Y972718D01*
X560070Y973028D01*
D02*
G37*
G36*
X669290Y969218D02*
X666935Y968908D01*
X664741Y967999D01*
X662857Y966553D01*
X661411Y964669D01*
X660502Y962475D01*
X660192Y960120D01*
X660502Y957765D01*
X661411Y955571D01*
X662857Y953687D01*
X664741Y952241D01*
X666935Y951332D01*
X669290Y951022D01*
X671645Y951332D01*
X673839Y952241D01*
X675723Y953687D01*
X677169Y955571D01*
X678078Y957765D01*
X678388Y960120D01*
X678078Y962475D01*
X677169Y964669D01*
X675723Y966553D01*
X673839Y967999D01*
X671645Y968908D01*
X669290Y969218D01*
D02*
G37*
G36*
X314960Y961708D02*
X312906Y961437D01*
X310991Y960644D01*
X309347Y959383D01*
X308086Y957739D01*
X307293Y955825D01*
X307022Y953770D01*
X307293Y951715D01*
X308086Y949801D01*
X309347Y948157D01*
X310991Y946896D01*
X312906Y946103D01*
X314960Y945832D01*
X317015Y946103D01*
X318929Y946896D01*
X320573Y948157D01*
X321834Y949801D01*
X322627Y951715D01*
X322898Y953770D01*
X322627Y955825D01*
X321834Y957739D01*
X320573Y959383D01*
X318929Y960644D01*
X317015Y961437D01*
X314960Y961708D01*
D02*
G37*
G36*
X788670Y962868D02*
X786315Y962558D01*
X784121Y961649D01*
X782237Y960203D01*
X780791Y958319D01*
X779882Y956125D01*
X779572Y953770D01*
X779882Y951415D01*
X780791Y949221D01*
X782237Y947337D01*
X784121Y945891D01*
X786315Y944982D01*
X788670Y944672D01*
X791025Y944982D01*
X793219Y945891D01*
X795103Y947337D01*
X796549Y949221D01*
X797458Y951415D01*
X797768Y953770D01*
X797458Y956125D01*
X796549Y958319D01*
X795103Y960203D01*
X793219Y961649D01*
X791025Y962558D01*
X788670Y962868D01*
D02*
G37*
G36*
X763270D02*
X760915Y962558D01*
X758721Y961649D01*
X756837Y960203D01*
X755391Y958319D01*
X754482Y956125D01*
X754172Y953770D01*
X754482Y951415D01*
X755391Y949221D01*
X756837Y947337D01*
X758721Y945891D01*
X760915Y944982D01*
X763270Y944672D01*
X765625Y944982D01*
X767819Y945891D01*
X769703Y947337D01*
X771149Y949221D01*
X772058Y951415D01*
X772368Y953770D01*
X772058Y956125D01*
X771149Y958319D01*
X769703Y960203D01*
X767819Y961649D01*
X765625Y962558D01*
X763270Y962868D01*
D02*
G37*
G36*
X737870D02*
X735515Y962558D01*
X733321Y961649D01*
X731437Y960203D01*
X729991Y958319D01*
X729082Y956125D01*
X728772Y953770D01*
X729082Y951415D01*
X729991Y949221D01*
X731437Y947337D01*
X733321Y945891D01*
X735515Y944982D01*
X737870Y944672D01*
X740225Y944982D01*
X742419Y945891D01*
X744303Y947337D01*
X745749Y949221D01*
X746658Y951415D01*
X746968Y953770D01*
X746658Y956125D01*
X745749Y958319D01*
X744303Y960203D01*
X742419Y961649D01*
X740225Y962558D01*
X737870Y962868D01*
D02*
G37*
G36*
X824110Y952500D02*
X815340D01*
Y943730D01*
X824110D01*
Y952500D01*
D02*
G37*
G36*
X812800D02*
X804030D01*
Y943730D01*
X812800D01*
Y952500D01*
D02*
G37*
G36*
X669290Y943818D02*
X666935Y943508D01*
X664741Y942599D01*
X662857Y941153D01*
X661411Y939269D01*
X660502Y937075D01*
X660192Y934720D01*
X660502Y932365D01*
X661411Y930171D01*
X662857Y928287D01*
X664741Y926841D01*
X666935Y925932D01*
X669290Y925622D01*
X671645Y925932D01*
X673839Y926841D01*
X675723Y928287D01*
X677169Y930171D01*
X678078Y932365D01*
X678388Y934720D01*
X678078Y937075D01*
X677169Y939269D01*
X675723Y941153D01*
X673839Y942599D01*
X671645Y943508D01*
X669290Y943818D01*
D02*
G37*
G36*
X811170Y932770D02*
Y924040D01*
X819900D01*
X819721Y925401D01*
X818705Y927853D01*
X817089Y929959D01*
X814984Y931575D01*
X812531Y932590D01*
X811170Y932770D01*
D02*
G37*
G36*
X808630Y932770D02*
X807269Y932590D01*
X804817Y931575D01*
X802711Y929959D01*
X801095Y927853D01*
X800079Y925401D01*
X799900Y924040D01*
X808630D01*
Y932770D01*
D02*
G37*
G36*
X764900Y931908D02*
X762535Y931597D01*
X760331Y930684D01*
X758438Y929232D01*
X756986Y927339D01*
X756073Y925135D01*
X755762Y922770D01*
X756073Y920405D01*
X756986Y918201D01*
X758438Y916308D01*
X760331Y914856D01*
X762535Y913943D01*
X764900Y913632D01*
X767265Y913943D01*
X769469Y914856D01*
X771362Y916308D01*
X772814Y918201D01*
X773727Y920405D01*
X774038Y922770D01*
X773727Y925135D01*
X772814Y927339D01*
X771362Y929232D01*
X769469Y930684D01*
X767265Y931597D01*
X764900Y931908D01*
D02*
G37*
G36*
X819900Y921500D02*
X811170D01*
Y912770D01*
X812531Y912950D01*
X814984Y913965D01*
X817089Y915581D01*
X818705Y917686D01*
X819721Y920139D01*
X819900Y921500D01*
D02*
G37*
G36*
X808630D02*
X799900D01*
X800079Y920139D01*
X801095Y917686D01*
X802711Y915581D01*
X804817Y913965D01*
X807269Y912950D01*
X808630Y912770D01*
Y921500D01*
D02*
G37*
G36*
X679330Y919360D02*
X670560D01*
Y910590D01*
X679330D01*
Y919360D01*
D02*
G37*
G36*
X668020D02*
X659250D01*
Y910590D01*
X668020D01*
Y919360D01*
D02*
G37*
G36*
X704850Y927661D02*
X702404Y927339D01*
X700125Y926395D01*
X698167Y924893D01*
X696665Y922935D01*
X695721Y920656D01*
X695399Y918210D01*
X695721Y915764D01*
X696665Y913485D01*
X698167Y911527D01*
X700125Y910025D01*
X702404Y909081D01*
X704850Y908759D01*
X707296Y909081D01*
X709575Y910025D01*
X711533Y911527D01*
X713035Y913485D01*
X713979Y915764D01*
X714301Y918210D01*
X713979Y920656D01*
X713035Y922935D01*
X711533Y924893D01*
X709575Y926395D01*
X707296Y927339D01*
X704850Y927661D01*
D02*
G37*
G36*
X624680Y928383D02*
X621718Y927993D01*
X618959Y926850D01*
X616589Y925031D01*
X614770Y922661D01*
X613627Y919902D01*
X613237Y916940D01*
X613627Y913978D01*
X614770Y911219D01*
X616589Y908849D01*
X618959Y907030D01*
X621718Y905887D01*
X624680Y905497D01*
X627642Y905887D01*
X630401Y907030D01*
X632771Y908849D01*
X634590Y911219D01*
X635733Y913978D01*
X636123Y916940D01*
X635733Y919902D01*
X634590Y922661D01*
X632771Y925031D01*
X630401Y926850D01*
X627642Y927993D01*
X624680Y928383D01*
D02*
G37*
G36*
X594280D02*
X591318Y927993D01*
X588559Y926850D01*
X586189Y925031D01*
X584370Y922661D01*
X583227Y919902D01*
X582837Y916940D01*
X583227Y913978D01*
X584370Y911219D01*
X586189Y908849D01*
X588559Y907030D01*
X591318Y905887D01*
X594280Y905497D01*
X597242Y905887D01*
X600001Y907030D01*
X602371Y908849D01*
X604190Y911219D01*
X605333Y913978D01*
X605723Y916940D01*
X605333Y919902D01*
X604190Y922661D01*
X602371Y925031D01*
X600001Y926850D01*
X597242Y927993D01*
X594280Y928383D01*
D02*
G37*
G36*
X563880D02*
X560918Y927993D01*
X558159Y926850D01*
X555789Y925031D01*
X553970Y922661D01*
X552827Y919902D01*
X552437Y916940D01*
X552827Y913978D01*
X553970Y911219D01*
X555789Y908849D01*
X558159Y907030D01*
X560918Y905887D01*
X563880Y905497D01*
X566842Y905887D01*
X569601Y907030D01*
X571971Y908849D01*
X573790Y911219D01*
X574933Y913978D01*
X575323Y916940D01*
X574933Y919902D01*
X573790Y922661D01*
X571971Y925031D01*
X569601Y926850D01*
X566842Y927993D01*
X563880Y928383D01*
D02*
G37*
G36*
X679330Y908050D02*
X670560D01*
Y899280D01*
X679330D01*
Y908050D01*
D02*
G37*
G36*
X668020D02*
X659250D01*
Y899280D01*
X668020D01*
Y908050D01*
D02*
G37*
G36*
X853440Y917501D02*
X850994Y917179D01*
X848715Y916235D01*
X846757Y914733D01*
X845255Y912775D01*
X844311Y910496D01*
X843989Y908050D01*
X844311Y905604D01*
X845255Y903325D01*
X846757Y901367D01*
X848715Y899865D01*
X850994Y898921D01*
X853440Y898599D01*
X855886Y898921D01*
X858165Y899865D01*
X860123Y901367D01*
X861625Y903325D01*
X862569Y905604D01*
X862891Y908050D01*
X862569Y910496D01*
X861625Y912775D01*
X860123Y914733D01*
X858165Y916235D01*
X855886Y917179D01*
X853440Y917501D01*
D02*
G37*
G36*
X514940Y887910D02*
X511606Y887471D01*
X508500Y886184D01*
X505832Y884138D01*
X503786Y881470D01*
X502499Y878364D01*
X502060Y875030D01*
X502499Y871696D01*
X503786Y868590D01*
X505832Y865922D01*
X508500Y863876D01*
X511606Y862589D01*
X514940Y862150D01*
X518274Y862589D01*
X521380Y863876D01*
X524048Y865922D01*
X526095Y868590D01*
X527381Y871696D01*
X527820Y875030D01*
X527381Y878364D01*
X526095Y881470D01*
X524048Y884138D01*
X521380Y886184D01*
X518274Y887471D01*
X514940Y887910D01*
D02*
G37*
G36*
X302940D02*
X299606Y887471D01*
X296500Y886184D01*
X293832Y884138D01*
X291786Y881470D01*
X290499Y878364D01*
X290060Y875030D01*
X290499Y871696D01*
X291786Y868590D01*
X293832Y865922D01*
X296500Y863876D01*
X299606Y862589D01*
X302940Y862150D01*
X306274Y862589D01*
X309380Y863876D01*
X312048Y865922D01*
X314095Y868590D01*
X315381Y871696D01*
X315820Y875030D01*
X315381Y878364D01*
X314095Y881470D01*
X312048Y884138D01*
X309380Y886184D01*
X306274Y887471D01*
X302940Y887910D01*
D02*
G37*
G36*
X811170Y867770D02*
Y859040D01*
X819900D01*
X819721Y860401D01*
X818705Y862853D01*
X817089Y864959D01*
X814984Y866575D01*
X812531Y867590D01*
X811170Y867770D01*
D02*
G37*
G36*
X808630Y867770D02*
X807269Y867590D01*
X804817Y866575D01*
X802711Y864959D01*
X801095Y862853D01*
X800079Y860401D01*
X799900Y859040D01*
X808630D01*
Y867770D01*
D02*
G37*
G36*
X704920Y871185D02*
X702957Y870926D01*
X701128Y870169D01*
X699557Y868963D01*
X698351Y867392D01*
X697594Y865563D01*
X697335Y863600D01*
X697594Y861637D01*
X698351Y859808D01*
X699557Y858237D01*
X701128Y857031D01*
X702957Y856274D01*
X704920Y856015D01*
X706883Y856274D01*
X708712Y857031D01*
X710283Y858237D01*
X711489Y859808D01*
X712246Y861637D01*
X712505Y863600D01*
X712246Y865563D01*
X711489Y867392D01*
X710283Y868963D01*
X708712Y870169D01*
X706883Y870926D01*
X704920Y871185D01*
D02*
G37*
G36*
X554920D02*
X552957Y870926D01*
X551128Y870169D01*
X549557Y868963D01*
X548351Y867392D01*
X547594Y865563D01*
X547335Y863600D01*
X547594Y861637D01*
X548351Y859808D01*
X549557Y858237D01*
X551128Y857031D01*
X552957Y856274D01*
X554920Y856015D01*
X556883Y856274D01*
X558712Y857031D01*
X560283Y858237D01*
X561489Y859808D01*
X562246Y861637D01*
X562505Y863600D01*
X562246Y865563D01*
X561489Y867392D01*
X560283Y868963D01*
X558712Y870169D01*
X556883Y870926D01*
X554920Y871185D01*
D02*
G37*
G36*
X739140Y870158D02*
X736785Y869848D01*
X734591Y868939D01*
X732707Y867493D01*
X731261Y865609D01*
X730352Y863415D01*
X730042Y861060D01*
X730352Y858705D01*
X731261Y856511D01*
X732707Y854627D01*
X734591Y853181D01*
X736785Y852272D01*
X739140Y851962D01*
X741495Y852272D01*
X743689Y853181D01*
X745573Y854627D01*
X747019Y856511D01*
X747928Y858705D01*
X748238Y861060D01*
X747928Y863415D01*
X747019Y865609D01*
X745573Y867493D01*
X743689Y868939D01*
X741495Y869848D01*
X739140Y870158D01*
D02*
G37*
G36*
X848360Y858672D02*
Y849630D01*
X857402D01*
X857213Y851072D01*
X856166Y853600D01*
X854500Y855770D01*
X852330Y857436D01*
X849802Y858483D01*
X848360Y858672D01*
D02*
G37*
G36*
X845820D02*
X844378Y858483D01*
X841850Y857436D01*
X839680Y855770D01*
X838014Y853600D01*
X836967Y851072D01*
X836777Y849630D01*
X845820D01*
Y858672D01*
D02*
G37*
G36*
X764900Y866908D02*
X762535Y866597D01*
X760331Y865684D01*
X758438Y864232D01*
X756986Y862339D01*
X756073Y860135D01*
X755762Y857770D01*
X756073Y855405D01*
X756986Y853201D01*
X758438Y851308D01*
X760331Y849856D01*
X762535Y848943D01*
X764900Y848632D01*
X767265Y848943D01*
X769469Y849856D01*
X771362Y851308D01*
X772814Y853201D01*
X773727Y855405D01*
X774038Y857770D01*
X773727Y860135D01*
X772814Y862339D01*
X771362Y864232D01*
X769469Y865684D01*
X767265Y866597D01*
X764900Y866908D01*
D02*
G37*
G36*
X819900Y856500D02*
X811170D01*
Y847770D01*
X812531Y847950D01*
X814984Y848965D01*
X817089Y850581D01*
X818705Y852686D01*
X819721Y855139D01*
X819900Y856500D01*
D02*
G37*
G36*
X808630D02*
X799900D01*
X800079Y855139D01*
X801095Y852686D01*
X802711Y850581D01*
X804817Y848965D01*
X807269Y847950D01*
X808630Y847770D01*
Y856500D01*
D02*
G37*
G36*
X857402Y847090D02*
X848360D01*
Y838047D01*
X849802Y838237D01*
X852330Y839284D01*
X854500Y840950D01*
X856166Y843120D01*
X857213Y845648D01*
X857402Y847090D01*
D02*
G37*
G36*
X845820D02*
X836777D01*
X836967Y845648D01*
X838014Y843120D01*
X839680Y840950D01*
X841850Y839284D01*
X844378Y838237D01*
X845820Y838047D01*
Y847090D01*
D02*
G37*
G36*
X740410Y845619D02*
Y836930D01*
X749099D01*
X748922Y838281D01*
X747910Y840723D01*
X746301Y842821D01*
X744203Y844430D01*
X741761Y845442D01*
X740410Y845619D01*
D02*
G37*
G36*
X737870D02*
X736519Y845442D01*
X734077Y844430D01*
X731979Y842821D01*
X730370Y840723D01*
X729358Y838281D01*
X729181Y836930D01*
X737870D01*
Y845619D01*
D02*
G37*
G36*
X749099Y834390D02*
X740410D01*
Y825701D01*
X741761Y825878D01*
X744203Y826890D01*
X746301Y828499D01*
X747910Y830597D01*
X748922Y833039D01*
X749099Y834390D01*
D02*
G37*
G36*
X737870D02*
X729181D01*
X729358Y833039D01*
X730370Y830597D01*
X731979Y828499D01*
X734077Y826890D01*
X736519Y825878D01*
X737870Y825701D01*
Y834390D01*
D02*
G37*
G36*
X358090Y839800D02*
X340550D01*
Y822260D01*
X358090D01*
Y839800D01*
D02*
G37*
G36*
X427320Y839876D02*
X425031Y839574D01*
X422897Y838690D01*
X421065Y837285D01*
X419660Y835453D01*
X418776Y833319D01*
X418474Y831030D01*
X418776Y828741D01*
X419660Y826607D01*
X421065Y824775D01*
X422897Y823370D01*
X425031Y822486D01*
X427320Y822184D01*
X429609Y822486D01*
X431743Y823370D01*
X433575Y824775D01*
X434981Y826607D01*
X435864Y828741D01*
X436166Y831030D01*
X435864Y833319D01*
X434981Y835453D01*
X433575Y837285D01*
X431743Y838690D01*
X429609Y839574D01*
X427320Y839876D01*
D02*
G37*
G36*
X590550Y825818D02*
X588495Y825547D01*
X586581Y824754D01*
X584937Y823493D01*
X583676Y821849D01*
X582883Y819934D01*
X582612Y817880D01*
X582883Y815826D01*
X583676Y813911D01*
X584937Y812267D01*
X586581Y811006D01*
X588495Y810213D01*
X590550Y809942D01*
X592604Y810213D01*
X594519Y811006D01*
X596163Y812267D01*
X597424Y813911D01*
X598217Y815826D01*
X598488Y817880D01*
X598217Y819934D01*
X597424Y821849D01*
X596163Y823493D01*
X594519Y824754D01*
X592604Y825547D01*
X590550Y825818D01*
D02*
G37*
G36*
X635000Y824548D02*
X632946Y824277D01*
X631031Y823484D01*
X629387Y822223D01*
X628126Y820579D01*
X627333Y818664D01*
X627062Y816610D01*
X627333Y814556D01*
X628126Y812641D01*
X629387Y810997D01*
X631031Y809736D01*
X632946Y808943D01*
X635000Y808672D01*
X637054Y808943D01*
X638969Y809736D01*
X640613Y810997D01*
X641874Y812641D01*
X642667Y814556D01*
X642938Y816610D01*
X642667Y818664D01*
X641874Y820579D01*
X640613Y822223D01*
X638969Y823484D01*
X637054Y824277D01*
X635000Y824548D01*
D02*
G37*
G36*
X739140Y819358D02*
X736785Y819048D01*
X734591Y818139D01*
X732707Y816693D01*
X731261Y814809D01*
X730352Y812615D01*
X730042Y810260D01*
X730352Y807905D01*
X731261Y805711D01*
X732707Y803827D01*
X734591Y802381D01*
X736785Y801472D01*
X739140Y801162D01*
X741495Y801472D01*
X743689Y802381D01*
X745573Y803827D01*
X747019Y805711D01*
X747928Y807905D01*
X748238Y810260D01*
X747928Y812615D01*
X747019Y814809D01*
X745573Y816693D01*
X743689Y818139D01*
X741495Y819048D01*
X739140Y819358D01*
D02*
G37*
G36*
X659130Y793443D02*
X656906Y793151D01*
X654833Y792292D01*
X653054Y790927D01*
X651688Y789147D01*
X650829Y787074D01*
X650537Y784850D01*
X650829Y782626D01*
X651688Y780553D01*
X653054Y778773D01*
X654833Y777408D01*
X656906Y776549D01*
X659130Y776257D01*
X661354Y776549D01*
X663427Y777408D01*
X665207Y778773D01*
X666572Y780553D01*
X667431Y782626D01*
X667723Y784850D01*
X667431Y787074D01*
X666572Y789147D01*
X665207Y790927D01*
X663427Y792292D01*
X661354Y793151D01*
X659130Y793443D01*
D02*
G37*
G36*
X589130D02*
X586906Y793151D01*
X584833Y792292D01*
X583054Y790927D01*
X581688Y789147D01*
X580829Y787074D01*
X580537Y784850D01*
X580829Y782626D01*
X581688Y780553D01*
X583054Y778773D01*
X584833Y777408D01*
X586906Y776549D01*
X589130Y776257D01*
X591354Y776549D01*
X593427Y777408D01*
X595206Y778773D01*
X596572Y780553D01*
X597431Y782626D01*
X597723Y784850D01*
X597431Y787074D01*
X596572Y789147D01*
X595206Y790927D01*
X593427Y792292D01*
X591354Y793151D01*
X589130Y793443D01*
D02*
G37*
G36*
X739140Y793958D02*
X736785Y793648D01*
X734591Y792739D01*
X732707Y791293D01*
X731261Y789409D01*
X730352Y787215D01*
X730042Y784860D01*
X730352Y782505D01*
X731261Y780311D01*
X732707Y778427D01*
X734591Y776981D01*
X736785Y776072D01*
X739140Y775762D01*
X741495Y776072D01*
X743689Y776981D01*
X745573Y778427D01*
X747019Y780311D01*
X747928Y782505D01*
X748238Y784860D01*
X747928Y787215D01*
X747019Y789409D01*
X745573Y791293D01*
X743689Y792739D01*
X741495Y793648D01*
X739140Y793958D01*
D02*
G37*
G36*
X777240Y780849D02*
Y772160D01*
X785929D01*
X785752Y773511D01*
X784740Y775953D01*
X783131Y778051D01*
X781033Y779660D01*
X778591Y780672D01*
X777240Y780849D01*
D02*
G37*
G36*
X774700D02*
X773349Y780672D01*
X770907Y779660D01*
X768809Y778051D01*
X767200Y775953D01*
X766188Y773511D01*
X766011Y772160D01*
X774700D01*
Y780849D01*
D02*
G37*
G36*
X330200Y774604D02*
Y767080D01*
X337724D01*
X337586Y768130D01*
X336691Y770291D01*
X335267Y772147D01*
X333411Y773571D01*
X331250Y774466D01*
X330200Y774604D01*
D02*
G37*
G36*
X327660D02*
X326610Y774466D01*
X324449Y773571D01*
X322593Y772147D01*
X321169Y770291D01*
X320274Y768130D01*
X320136Y767080D01*
X327660D01*
Y774604D01*
D02*
G37*
G36*
X848360Y779988D02*
X846005Y779678D01*
X843811Y778769D01*
X841927Y777323D01*
X840481Y775439D01*
X839572Y773245D01*
X839262Y770890D01*
X839572Y768535D01*
X840481Y766341D01*
X841927Y764457D01*
X843811Y763011D01*
X846005Y762102D01*
X848360Y761792D01*
X850715Y762102D01*
X852909Y763011D01*
X854793Y764457D01*
X856239Y766341D01*
X857148Y768535D01*
X857458Y770890D01*
X857148Y773245D01*
X856239Y775439D01*
X854793Y777323D01*
X852909Y778769D01*
X850715Y779678D01*
X848360Y779988D01*
D02*
G37*
G36*
X785929Y769620D02*
X777240D01*
Y760931D01*
X778591Y761108D01*
X781033Y762120D01*
X783131Y763729D01*
X784740Y765827D01*
X785752Y768269D01*
X785929Y769620D01*
D02*
G37*
G36*
X774700D02*
X766011D01*
X766188Y768269D01*
X767200Y765827D01*
X768809Y763729D01*
X770907Y762120D01*
X773349Y761108D01*
X774700Y760931D01*
Y769620D01*
D02*
G37*
G36*
X303530Y773743D02*
X301477Y773473D01*
X299564Y772680D01*
X297921Y771419D01*
X296660Y769776D01*
X295868Y767863D01*
X295597Y765810D01*
X295868Y763757D01*
X296660Y761844D01*
X297921Y760201D01*
X299564Y758940D01*
X301477Y758148D01*
X303530Y757877D01*
X305583Y758148D01*
X307496Y758940D01*
X309139Y760201D01*
X310400Y761844D01*
X311192Y763757D01*
X311463Y765810D01*
X311192Y767863D01*
X310400Y769776D01*
X309139Y771419D01*
X307496Y772680D01*
X305583Y773473D01*
X303530Y773743D01*
D02*
G37*
G36*
X278130D02*
X276077Y773473D01*
X274164Y772680D01*
X272521Y771419D01*
X271260Y769776D01*
X270467Y767863D01*
X270197Y765810D01*
X270467Y763757D01*
X271260Y761844D01*
X272521Y760201D01*
X274164Y758940D01*
X276077Y758148D01*
X278130Y757877D01*
X280183Y758148D01*
X282096Y758940D01*
X283739Y760201D01*
X285000Y761844D01*
X285793Y763757D01*
X286063Y765810D01*
X285793Y767863D01*
X285000Y769776D01*
X283739Y771419D01*
X282096Y772680D01*
X280183Y773473D01*
X278130Y773743D01*
D02*
G37*
G36*
X337724Y764540D02*
X330200D01*
Y757016D01*
X331250Y757154D01*
X333411Y758049D01*
X335267Y759473D01*
X336691Y761329D01*
X337586Y763491D01*
X337724Y764540D01*
D02*
G37*
G36*
X327660D02*
X320136D01*
X320274Y763491D01*
X321169Y761329D01*
X322593Y759473D01*
X324449Y758049D01*
X326610Y757154D01*
X327660Y757016D01*
Y764540D01*
D02*
G37*
G36*
X414080Y769750D02*
X396040D01*
Y751710D01*
X414080D01*
Y769750D01*
D02*
G37*
G36*
X480060Y769828D02*
X477705Y769518D01*
X475511Y768609D01*
X473627Y767163D01*
X472181Y765279D01*
X471272Y763085D01*
X470962Y760730D01*
X471272Y758375D01*
X472181Y756181D01*
X473627Y754297D01*
X475511Y752851D01*
X477705Y751942D01*
X480060Y751632D01*
X482415Y751942D01*
X484609Y752851D01*
X486493Y754297D01*
X487939Y756181D01*
X488848Y758375D01*
X489158Y760730D01*
X488848Y763085D01*
X487939Y765279D01*
X486493Y767163D01*
X484609Y768609D01*
X482415Y769518D01*
X480060Y769828D01*
D02*
G37*
G36*
X739140Y768558D02*
X736785Y768248D01*
X734591Y767339D01*
X732707Y765893D01*
X731261Y764009D01*
X730352Y761815D01*
X730042Y759460D01*
X730352Y757105D01*
X731261Y754911D01*
X732707Y753027D01*
X734591Y751581D01*
X736785Y750672D01*
X739140Y750362D01*
X741495Y750672D01*
X743689Y751581D01*
X745573Y753027D01*
X747019Y754911D01*
X747928Y757105D01*
X748238Y759460D01*
X747928Y761815D01*
X747019Y764009D01*
X745573Y765893D01*
X743689Y767339D01*
X741495Y768248D01*
X739140Y768558D01*
D02*
G37*
G36*
X812800Y758751D02*
X810354Y758429D01*
X808075Y757485D01*
X806117Y755983D01*
X804615Y754025D01*
X803671Y751746D01*
X803349Y749300D01*
X803671Y746854D01*
X804615Y744575D01*
X806117Y742617D01*
X808075Y741115D01*
X810354Y740171D01*
X812800Y739849D01*
X815246Y740171D01*
X817525Y741115D01*
X819483Y742617D01*
X820985Y744575D01*
X821929Y746854D01*
X822251Y749300D01*
X821929Y751746D01*
X820985Y754025D01*
X819483Y755983D01*
X817525Y757485D01*
X815246Y758429D01*
X812800Y758751D01*
D02*
G37*
G36*
X697230Y753428D02*
X695175Y753157D01*
X693261Y752364D01*
X691617Y751103D01*
X690356Y749459D01*
X689563Y747544D01*
X689292Y745490D01*
X689563Y743436D01*
X690356Y741521D01*
X691617Y739877D01*
X693261Y738616D01*
X695175Y737823D01*
X697230Y737552D01*
X699285Y737823D01*
X701199Y738616D01*
X702843Y739877D01*
X704104Y741521D01*
X704897Y743436D01*
X705168Y745490D01*
X704897Y747544D01*
X704104Y749459D01*
X702843Y751103D01*
X701199Y752364D01*
X699285Y753157D01*
X697230Y753428D01*
D02*
G37*
G36*
X848360Y754588D02*
X846005Y754278D01*
X843811Y753369D01*
X841927Y751923D01*
X840481Y750039D01*
X839572Y747845D01*
X839262Y745490D01*
X839572Y743135D01*
X840481Y740941D01*
X841927Y739057D01*
X843811Y737611D01*
X846005Y736702D01*
X848360Y736392D01*
X850715Y736702D01*
X852909Y737611D01*
X854793Y739057D01*
X856239Y740941D01*
X857148Y743135D01*
X857458Y745490D01*
X857148Y747845D01*
X856239Y750039D01*
X854793Y751923D01*
X852909Y753369D01*
X850715Y754278D01*
X848360Y754588D01*
D02*
G37*
G36*
X775970D02*
X773615Y754278D01*
X771421Y753369D01*
X769537Y751923D01*
X768091Y750039D01*
X767182Y747845D01*
X766872Y745490D01*
X767182Y743135D01*
X768091Y740941D01*
X769537Y739057D01*
X771421Y737611D01*
X773615Y736702D01*
X775970Y736392D01*
X778325Y736702D01*
X780519Y737611D01*
X782403Y739057D01*
X783849Y740941D01*
X784758Y743135D01*
X785068Y745490D01*
X784758Y747845D01*
X783849Y750039D01*
X782403Y751923D01*
X780519Y753369D01*
X778325Y754278D01*
X775970Y754588D01*
D02*
G37*
G36*
X739140Y743158D02*
X736785Y742848D01*
X734591Y741939D01*
X732707Y740493D01*
X731261Y738609D01*
X730352Y736415D01*
X730042Y734060D01*
X730352Y731705D01*
X731261Y729511D01*
X732707Y727627D01*
X734591Y726181D01*
X736785Y725272D01*
X739140Y724962D01*
X741495Y725272D01*
X743689Y726181D01*
X745573Y727627D01*
X747019Y729511D01*
X747928Y731705D01*
X748238Y734060D01*
X747928Y736415D01*
X747019Y738609D01*
X745573Y740493D01*
X743689Y741939D01*
X741495Y742848D01*
X739140Y743158D01*
D02*
G37*
G36*
X849630Y730049D02*
Y721360D01*
X858319D01*
X858142Y722711D01*
X857130Y725153D01*
X855521Y727251D01*
X853423Y728860D01*
X850981Y729872D01*
X849630Y730049D01*
D02*
G37*
G36*
X847090D02*
X845739Y729872D01*
X843297Y728860D01*
X841199Y727251D01*
X839590Y725153D01*
X838578Y722711D01*
X838401Y721360D01*
X847090D01*
Y730049D01*
D02*
G37*
G36*
X775970Y729188D02*
X773615Y728878D01*
X771421Y727969D01*
X769537Y726523D01*
X768091Y724639D01*
X767182Y722445D01*
X766872Y720090D01*
X767182Y717735D01*
X768091Y715541D01*
X769537Y713657D01*
X771421Y712211D01*
X773615Y711302D01*
X775970Y710992D01*
X778325Y711302D01*
X780519Y712211D01*
X782403Y713657D01*
X783849Y715541D01*
X784758Y717735D01*
X785068Y720090D01*
X784758Y722445D01*
X783849Y724639D01*
X782403Y726523D01*
X780519Y727969D01*
X778325Y728878D01*
X775970Y729188D01*
D02*
G37*
G36*
X858319Y718820D02*
X849630D01*
Y710131D01*
X850981Y710308D01*
X853423Y711320D01*
X855521Y712929D01*
X857130Y715027D01*
X858142Y717469D01*
X858319Y718820D01*
D02*
G37*
G36*
X847090D02*
X838401D01*
X838578Y717469D01*
X839590Y715027D01*
X841199Y712929D01*
X843297Y711320D01*
X845739Y710308D01*
X847090Y710131D01*
Y718820D01*
D02*
G37*
G36*
X739140Y717758D02*
X736785Y717448D01*
X734591Y716539D01*
X732707Y715093D01*
X731261Y713209D01*
X730352Y711015D01*
X730042Y708660D01*
X730352Y706305D01*
X731261Y704111D01*
X732707Y702227D01*
X734591Y700781D01*
X736785Y699872D01*
X739140Y699562D01*
X741495Y699872D01*
X743689Y700781D01*
X745573Y702227D01*
X747019Y704111D01*
X747928Y706305D01*
X748238Y708660D01*
X747928Y711015D01*
X747019Y713209D01*
X745573Y715093D01*
X743689Y716539D01*
X741495Y717448D01*
X739140Y717758D01*
D02*
G37*
G36*
X659130Y713443D02*
X656906Y713151D01*
X654833Y712292D01*
X653054Y710927D01*
X651688Y709147D01*
X650829Y707074D01*
X650537Y704850D01*
X650829Y702626D01*
X651688Y700553D01*
X653054Y698773D01*
X654833Y697408D01*
X656906Y696549D01*
X659130Y696257D01*
X661354Y696549D01*
X663427Y697408D01*
X665207Y698773D01*
X666572Y700553D01*
X667431Y702626D01*
X667723Y704850D01*
X667431Y707074D01*
X666572Y709147D01*
X665207Y710927D01*
X663427Y712292D01*
X661354Y713151D01*
X659130Y713443D01*
D02*
G37*
G36*
X589130D02*
X586906Y713151D01*
X584833Y712292D01*
X583054Y710927D01*
X581688Y709147D01*
X580829Y707074D01*
X580537Y704850D01*
X580829Y702626D01*
X581688Y700553D01*
X583054Y698773D01*
X584833Y697408D01*
X586906Y696549D01*
X589130Y696257D01*
X591354Y696549D01*
X593427Y697408D01*
X595206Y698773D01*
X596572Y700553D01*
X597431Y702626D01*
X597723Y704850D01*
X597431Y707074D01*
X596572Y709147D01*
X595206Y710927D01*
X593427Y712292D01*
X591354Y713151D01*
X589130Y713443D01*
D02*
G37*
G36*
X857380Y703710D02*
X839340D01*
Y685670D01*
X857380D01*
Y703710D01*
D02*
G37*
G36*
X784990D02*
X766950D01*
Y685670D01*
X784990D01*
Y703710D01*
D02*
G37*
G36*
X812800Y702871D02*
X810354Y702549D01*
X808075Y701605D01*
X806117Y700103D01*
X804615Y698145D01*
X803671Y695866D01*
X803349Y693420D01*
X803671Y690974D01*
X804615Y688695D01*
X806117Y686737D01*
X808075Y685235D01*
X810354Y684291D01*
X812800Y683969D01*
X815246Y684291D01*
X817525Y685235D01*
X819483Y686737D01*
X820985Y688695D01*
X821929Y690974D01*
X822251Y693420D01*
X821929Y695866D01*
X820985Y698145D01*
X819483Y700103D01*
X817525Y701605D01*
X815246Y702549D01*
X812800Y702871D01*
D02*
G37*
G36*
X519430Y690679D02*
Y681990D01*
X528119D01*
X527942Y683341D01*
X526930Y685783D01*
X525321Y687881D01*
X523223Y689490D01*
X520781Y690502D01*
X519430Y690679D01*
D02*
G37*
G36*
X516890D02*
X515539Y690502D01*
X513097Y689490D01*
X510999Y687881D01*
X509390Y685783D01*
X508378Y683341D01*
X508201Y681990D01*
X516890D01*
Y690679D01*
D02*
G37*
G36*
X748160Y692280D02*
X730120D01*
Y674240D01*
X748160D01*
Y692280D01*
D02*
G37*
G36*
X501780Y689740D02*
X483740D01*
Y671700D01*
X501780D01*
Y689740D01*
D02*
G37*
G36*
X406760Y692510D02*
X385720D01*
Y671470D01*
X406760D01*
Y692510D01*
D02*
G37*
G36*
X293730D02*
X272690D01*
Y671470D01*
X293730D01*
Y692510D01*
D02*
G37*
G36*
X447040Y692601D02*
X444294Y692239D01*
X441735Y691179D01*
X439537Y689493D01*
X437851Y687295D01*
X436791Y684736D01*
X436429Y681990D01*
X436791Y679244D01*
X437851Y676685D01*
X439537Y674487D01*
X441735Y672801D01*
X444294Y671741D01*
X447040Y671379D01*
X449786Y671741D01*
X452345Y672801D01*
X454543Y674487D01*
X456229Y676685D01*
X457289Y679244D01*
X457651Y681990D01*
X457289Y684736D01*
X456229Y687295D01*
X454543Y689493D01*
X452345Y691179D01*
X449786Y692239D01*
X447040Y692601D01*
D02*
G37*
G36*
X334010D02*
X331264Y692239D01*
X328705Y691179D01*
X326507Y689493D01*
X324821Y687295D01*
X323761Y684736D01*
X323399Y681990D01*
X323761Y679244D01*
X324821Y676685D01*
X326507Y674487D01*
X328705Y672801D01*
X331264Y671741D01*
X334010Y671379D01*
X336756Y671741D01*
X339315Y672801D01*
X341513Y674487D01*
X343199Y676685D01*
X344259Y679244D01*
X344621Y681990D01*
X344259Y684736D01*
X343199Y687295D01*
X341513Y689493D01*
X339315Y691179D01*
X336756Y692239D01*
X334010Y692601D01*
D02*
G37*
G36*
X528119Y679450D02*
X519430D01*
Y670761D01*
X520781Y670938D01*
X523223Y671950D01*
X525321Y673559D01*
X526930Y675657D01*
X527942Y678099D01*
X528119Y679450D01*
D02*
G37*
G36*
X516890D02*
X508201D01*
X508378Y678099D01*
X509390Y675657D01*
X510999Y673559D01*
X513097Y671950D01*
X515539Y670938D01*
X516890Y670761D01*
Y679450D01*
D02*
G37*
%LPD*%
D15*
X831850Y1131570D02*
X845820Y1145540D01*
X831850Y1003300D02*
Y1131570D01*
Y1003300D02*
X845820Y989330D01*
X775610Y983500D02*
X777400Y981710D01*
D26*
X847090Y848360D02*
D03*
D35*
X274320Y1256030D02*
D03*
D43*
X669290Y909320D02*
D03*
D44*
X845820Y989330D02*
D03*
Y1145540D02*
D03*
X739140Y835660D02*
D03*
X775970Y770890D02*
D03*
X848360Y720090D02*
D03*
X560070Y989330D02*
D03*
X558800Y1263650D02*
D03*
X518160Y680720D02*
D03*
D45*
X814070Y953770D02*
D03*
D47*
X809900Y922770D02*
D03*
Y857770D02*
D03*
X730610Y1048500D02*
D03*
Y983500D02*
D03*
X775610D02*
D03*
X659490Y988580D02*
D03*
Y1053580D02*
D03*
D50*
X328930Y765810D02*
D03*
D57*
X383540Y1236980D02*
D03*
X422910Y1173480D02*
D03*
X402590Y1127760D02*
D03*
X458470Y1153160D02*
D03*
X332740Y1073150D02*
D03*
M02*
