G04*
G04 #@! TF.GenerationSoftware,Altium Limited,Altium Designer,20.0.2 (26)*
G04*
G04 Layer_Color=32896*
%FSLAX44Y44*%
%MOMM*%
G71*
G01*
G75*
%ADD12C,0.1000*%
D12*
X513080Y1160860D02*
Y1170860D01*
X508080Y1165860D02*
X518080D01*
X501730Y1115060D02*
X511730D01*
X506730Y1110060D02*
Y1120060D01*
X501730Y1089660D02*
X511730D01*
X506730Y1084660D02*
Y1094660D01*
X632540Y969010D02*
X642540D01*
X637540Y964010D02*
Y974010D01*
X586820Y1007110D02*
X596820D01*
X591820Y1002110D02*
Y1012110D01*
X501730Y1059180D02*
X511730D01*
X506730Y1054180D02*
Y1064180D01*
X339090Y983060D02*
Y993060D01*
X334090Y988060D02*
X344090D01*
X433070Y979250D02*
Y989250D01*
X428070Y984250D02*
X438070D01*
X369570Y980520D02*
Y990520D01*
X364570Y985520D02*
X374570D01*
X377190Y1127840D02*
Y1137840D01*
X372190Y1132840D02*
X382190D01*
X505540Y1193800D02*
X515540D01*
X510540Y1188800D02*
Y1198800D01*
X501730Y1139190D02*
X511730D01*
X506730Y1134190D02*
Y1144190D01*
X436880Y1116410D02*
Y1126410D01*
X431880Y1121410D02*
X441880D01*
X471250Y1050290D02*
X481250D01*
X476250Y1045290D02*
Y1055290D01*
X555070Y1136650D02*
X565070D01*
X560070Y1131650D02*
Y1141650D01*
X744300Y1253490D02*
X754300D01*
X749300Y1248490D02*
Y1258490D01*
X743030Y1209040D02*
X753030D01*
X748030Y1204040D02*
Y1214040D01*
X332740Y1118950D02*
Y1128950D01*
X327740Y1123950D02*
X337740D01*
X268790Y1129230D02*
Y1139230D01*
X263790Y1134230D02*
X273790D01*
M02*
