G04*
G04 #@! TF.GenerationSoftware,Altium Limited,Altium Designer,20.0.2 (26)*
G04*
G04 Layer_Color=255*
%FSLAX44Y44*%
%MOMM*%
G71*
G01*
G75*
%ADD16R,0.8000X0.8000*%
%ADD17R,0.8000X0.4000*%
%ADD18R,0.4000X0.8000*%
%ADD19R,1.2000X1.2000*%
%ADD26C,1.5700*%
%ADD35C,1.4500*%
%ADD36R,1.4500X1.4500*%
%ADD42R,0.4000X0.4000*%
%ADD43R,1.5000X1.5000*%
%ADD44C,1.5000*%
%ADD45R,1.5000X1.5000*%
%ADD46R,1.5080X1.5080*%
%ADD47C,1.5080*%
%ADD48C,1.9650*%
%ADD49R,1.9650X1.9650*%
%ADD50C,1.2690*%
%ADD51C,1.4000*%
%ADD52C,1.2000*%
%ADD53C,2.2500*%
%ADD54R,2.2500X2.2500*%
%ADD55R,1.8000X1.8000*%
%ADD56C,1.8000*%
D16*
X631030Y1262520D02*
D03*
Y1122520D02*
D03*
X771030Y1262520D02*
D03*
Y1122520D02*
D03*
D17*
X631030Y1252020D02*
D03*
Y1243520D02*
D03*
Y1235020D02*
D03*
Y1226520D02*
D03*
Y1218020D02*
D03*
Y1209520D02*
D03*
Y1201020D02*
D03*
Y1192520D02*
D03*
Y1184020D02*
D03*
Y1175520D02*
D03*
Y1167020D02*
D03*
Y1158520D02*
D03*
Y1150020D02*
D03*
Y1141520D02*
D03*
Y1133020D02*
D03*
X771030D02*
D03*
Y1141520D02*
D03*
Y1150020D02*
D03*
Y1158520D02*
D03*
Y1167020D02*
D03*
Y1175520D02*
D03*
Y1184020D02*
D03*
Y1192520D02*
D03*
Y1201020D02*
D03*
Y1209520D02*
D03*
Y1218020D02*
D03*
Y1226520D02*
D03*
Y1235020D02*
D03*
Y1243520D02*
D03*
Y1252020D02*
D03*
D18*
X641530Y1122520D02*
D03*
X650030D02*
D03*
X658530D02*
D03*
X667030D02*
D03*
X675530D02*
D03*
X684030D02*
D03*
X692530D02*
D03*
X701030D02*
D03*
X709530D02*
D03*
X718030D02*
D03*
X726530D02*
D03*
X735030D02*
D03*
X743530D02*
D03*
X752030D02*
D03*
X760530D02*
D03*
Y1262520D02*
D03*
X752030D02*
D03*
X743530D02*
D03*
X735030D02*
D03*
X726530D02*
D03*
X718030D02*
D03*
X709530D02*
D03*
X701030D02*
D03*
X692530D02*
D03*
X684030D02*
D03*
X675530D02*
D03*
X667030D02*
D03*
X658530D02*
D03*
X650030D02*
D03*
X641530D02*
D03*
D19*
X701030Y1192520D02*
D03*
Y1209020D02*
D03*
X717530D02*
D03*
Y1192520D02*
D03*
Y1176020D02*
D03*
X701030D02*
D03*
X684530D02*
D03*
Y1192520D02*
D03*
D26*
X812800Y749300D02*
D03*
Y693420D02*
D03*
X704850Y918210D02*
D03*
X847090Y848360D02*
D03*
X853440Y908050D02*
D03*
D35*
X502320Y1256030D02*
D03*
X274320D02*
D03*
X427320Y831030D02*
D03*
D36*
X349320D02*
D03*
D42*
X684530Y1209020D02*
D03*
D43*
X845820Y963930D02*
D03*
Y1120140D02*
D03*
X739140Y683260D02*
D03*
X775970Y694690D02*
D03*
X848360D02*
D03*
X560070Y1090930D02*
D03*
X669290Y909320D02*
D03*
X558800Y1162050D02*
D03*
X591820Y1271270D02*
D03*
X810260Y1226820D02*
D03*
X626110Y1094740D02*
D03*
D44*
X845820Y989330D02*
D03*
Y1014730D02*
D03*
Y1040130D02*
D03*
Y1145540D02*
D03*
Y1170940D02*
D03*
Y1196340D02*
D03*
X739140Y861060D02*
D03*
Y835660D02*
D03*
Y810260D02*
D03*
Y784860D02*
D03*
Y759460D02*
D03*
Y734060D02*
D03*
Y708660D02*
D03*
X775970Y720090D02*
D03*
Y745490D02*
D03*
Y770890D02*
D03*
X848360Y720090D02*
D03*
Y745490D02*
D03*
Y770890D02*
D03*
X788670Y953770D02*
D03*
X763270D02*
D03*
X737870D02*
D03*
X560070Y963930D02*
D03*
Y989330D02*
D03*
Y1014730D02*
D03*
Y1040130D02*
D03*
Y1065530D02*
D03*
X669290Y960120D02*
D03*
Y934720D02*
D03*
X558800Y1187450D02*
D03*
Y1212850D02*
D03*
Y1238250D02*
D03*
Y1263650D02*
D03*
X591820Y1245870D02*
D03*
Y1195070D02*
D03*
Y1169670D02*
D03*
Y1144270D02*
D03*
Y1118870D02*
D03*
Y1093470D02*
D03*
Y1068070D02*
D03*
Y1042670D02*
D03*
Y1220470D02*
D03*
X480060Y760730D02*
D03*
X822960Y1271270D02*
D03*
X848360D02*
D03*
X810260Y1176020D02*
D03*
Y998220D02*
D03*
Y1023620D02*
D03*
Y1049020D02*
D03*
Y1074420D02*
D03*
Y1099820D02*
D03*
Y1125220D02*
D03*
Y1150620D02*
D03*
Y1201420D02*
D03*
X768350Y1090930D02*
D03*
X742950D02*
D03*
X717550D02*
D03*
X692150D02*
D03*
X626110Y993140D02*
D03*
Y1018540D02*
D03*
Y1043940D02*
D03*
Y1069340D02*
D03*
X518160Y680720D02*
D03*
D45*
X814070Y953770D02*
D03*
X405060Y760730D02*
D03*
X797560Y1271270D02*
D03*
X666750Y1090930D02*
D03*
X492760Y680720D02*
D03*
D46*
X764900Y922770D02*
D03*
X730610Y1048500D02*
D03*
X659490Y1053580D02*
D03*
D47*
X764900Y857770D02*
D03*
X809900Y922770D02*
D03*
Y857770D02*
D03*
X730610Y983500D02*
D03*
X775610Y1048500D02*
D03*
Y983500D02*
D03*
X704490Y988580D02*
D03*
Y1053580D02*
D03*
X659490Y988580D02*
D03*
D48*
X563880Y916940D02*
D03*
X594280D02*
D03*
D49*
X624680D02*
D03*
D50*
X278130Y765810D02*
D03*
X303530D02*
D03*
X328930D02*
D03*
D51*
X659130Y704850D02*
D03*
X589130D02*
D03*
Y784850D02*
D03*
X659130D02*
D03*
D52*
X554920Y863600D02*
D03*
X704920D02*
D03*
D53*
X302940Y875030D02*
D03*
D54*
X514940D02*
D03*
D55*
X396240Y681990D02*
D03*
X283210D02*
D03*
D56*
X447040D02*
D03*
X334010D02*
D03*
M02*
