G04*
G04 #@! TF.GenerationSoftware,Altium Limited,Altium Designer,20.0.2 (26)*
G04*
G04 Layer_Color=8388736*
%FSLAX44Y44*%
%MOMM*%
G71*
G01*
G75*
%ADD20R,1.0032X1.0032*%
%ADD21R,1.0032X0.6032*%
%ADD22R,0.6032X1.0032*%
%ADD23R,1.4032X1.4032*%
%ADD24R,1.7032X1.7032*%
%ADD25C,1.7032*%
%ADD26C,1.5700*%
%ADD27R,1.7032X1.7032*%
%ADD28R,1.7112X1.7112*%
%ADD29C,1.7112*%
%ADD30C,2.1682*%
%ADD31R,2.1682X2.1682*%
%ADD32C,1.4722*%
%ADD33C,1.6032*%
%ADD34C,1.4032*%
%ADD35C,1.4500*%
%ADD36R,1.4500X1.4500*%
%ADD37C,2.4532*%
%ADD38R,2.4532X2.4532*%
%ADD39R,2.0032X2.0032*%
%ADD40C,2.0032*%
%ADD41C,1.4732*%
G36*
X691530Y1202020D02*
X677530D01*
Y1209520D01*
X684030Y1216020D01*
X691530D01*
Y1202020D01*
D02*
G37*
D20*
X631030Y1262520D02*
D03*
Y1122520D02*
D03*
X771030Y1262520D02*
D03*
Y1122520D02*
D03*
D21*
X631030Y1252020D02*
D03*
Y1243520D02*
D03*
Y1235020D02*
D03*
Y1226520D02*
D03*
Y1218020D02*
D03*
Y1209520D02*
D03*
Y1201020D02*
D03*
Y1192520D02*
D03*
Y1184020D02*
D03*
Y1175520D02*
D03*
Y1167020D02*
D03*
Y1158520D02*
D03*
Y1150020D02*
D03*
Y1141520D02*
D03*
Y1133020D02*
D03*
X771030D02*
D03*
Y1141520D02*
D03*
Y1150020D02*
D03*
Y1158520D02*
D03*
Y1167020D02*
D03*
Y1175520D02*
D03*
Y1184020D02*
D03*
Y1192520D02*
D03*
Y1201020D02*
D03*
Y1209520D02*
D03*
Y1218020D02*
D03*
Y1226520D02*
D03*
Y1235020D02*
D03*
Y1243520D02*
D03*
Y1252020D02*
D03*
D22*
X641530Y1122520D02*
D03*
X650030D02*
D03*
X658530D02*
D03*
X667030D02*
D03*
X675530D02*
D03*
X684030D02*
D03*
X692530D02*
D03*
X701030D02*
D03*
X709530D02*
D03*
X718030D02*
D03*
X726530D02*
D03*
X735030D02*
D03*
X743530D02*
D03*
X752030D02*
D03*
X760530D02*
D03*
Y1262520D02*
D03*
X752030D02*
D03*
X743530D02*
D03*
X735030D02*
D03*
X726530D02*
D03*
X718030D02*
D03*
X709530D02*
D03*
X701030D02*
D03*
X692530D02*
D03*
X684030D02*
D03*
X675530D02*
D03*
X667030D02*
D03*
X658530D02*
D03*
X650030D02*
D03*
X641530D02*
D03*
D23*
X701030Y1192520D02*
D03*
Y1209020D02*
D03*
X717530D02*
D03*
Y1192520D02*
D03*
Y1176020D02*
D03*
X701030D02*
D03*
X684530D02*
D03*
Y1192520D02*
D03*
D24*
X845820Y963930D02*
D03*
Y1120140D02*
D03*
X739140Y683260D02*
D03*
X775970Y694690D02*
D03*
X848360D02*
D03*
X560070Y1090930D02*
D03*
X669290Y909320D02*
D03*
X558800Y1162050D02*
D03*
X591820Y1271270D02*
D03*
X810260Y1226820D02*
D03*
X626110Y1094740D02*
D03*
D25*
X845820Y989330D02*
D03*
Y1014730D02*
D03*
Y1040130D02*
D03*
Y1145540D02*
D03*
Y1170940D02*
D03*
Y1196340D02*
D03*
X739140Y861060D02*
D03*
Y835660D02*
D03*
Y810260D02*
D03*
Y784860D02*
D03*
Y759460D02*
D03*
Y734060D02*
D03*
Y708660D02*
D03*
X775970Y720090D02*
D03*
Y745490D02*
D03*
Y770890D02*
D03*
X848360Y720090D02*
D03*
Y745490D02*
D03*
Y770890D02*
D03*
X788670Y953770D02*
D03*
X763270D02*
D03*
X737870D02*
D03*
X560070Y963930D02*
D03*
Y989330D02*
D03*
Y1014730D02*
D03*
Y1040130D02*
D03*
Y1065530D02*
D03*
X669290Y960120D02*
D03*
Y934720D02*
D03*
X558800Y1187450D02*
D03*
Y1212850D02*
D03*
Y1238250D02*
D03*
Y1263650D02*
D03*
X591820Y1245870D02*
D03*
Y1195070D02*
D03*
Y1169670D02*
D03*
Y1144270D02*
D03*
Y1118870D02*
D03*
Y1093470D02*
D03*
Y1068070D02*
D03*
Y1042670D02*
D03*
Y1220470D02*
D03*
X480060Y760730D02*
D03*
X822960Y1271270D02*
D03*
X848360D02*
D03*
X810260Y1176020D02*
D03*
Y998220D02*
D03*
Y1023620D02*
D03*
Y1049020D02*
D03*
Y1074420D02*
D03*
Y1099820D02*
D03*
Y1125220D02*
D03*
Y1150620D02*
D03*
Y1201420D02*
D03*
X768350Y1090930D02*
D03*
X742950D02*
D03*
X717550D02*
D03*
X692150D02*
D03*
X626110Y993140D02*
D03*
Y1018540D02*
D03*
Y1043940D02*
D03*
Y1069340D02*
D03*
X518160Y680720D02*
D03*
D26*
X812800Y749300D02*
D03*
Y693420D02*
D03*
X704850Y918210D02*
D03*
X847090Y848360D02*
D03*
X853440Y908050D02*
D03*
D27*
X814070Y953770D02*
D03*
X405060Y760730D02*
D03*
X797560Y1271270D02*
D03*
X666750Y1090930D02*
D03*
X492760Y680720D02*
D03*
D28*
X764900Y922770D02*
D03*
X730610Y1048500D02*
D03*
X659490Y1053580D02*
D03*
D29*
X764900Y857770D02*
D03*
X809900Y922770D02*
D03*
Y857770D02*
D03*
X730610Y983500D02*
D03*
X775610Y1048500D02*
D03*
Y983500D02*
D03*
X704490Y988580D02*
D03*
Y1053580D02*
D03*
X659490Y988580D02*
D03*
D30*
X563880Y916940D02*
D03*
X594280D02*
D03*
D31*
X624680D02*
D03*
D32*
X278130Y765810D02*
D03*
X303530D02*
D03*
X328930D02*
D03*
D33*
X659130Y704850D02*
D03*
X589130D02*
D03*
Y784850D02*
D03*
X659130D02*
D03*
D34*
X554920Y863600D02*
D03*
X704920D02*
D03*
D35*
X502320Y1256030D02*
D03*
X274320D02*
D03*
X427320Y831030D02*
D03*
D36*
X349320D02*
D03*
D37*
X302940Y875030D02*
D03*
D38*
X514940D02*
D03*
D39*
X396240Y681990D02*
D03*
X283210D02*
D03*
D40*
X447040D02*
D03*
X334010D02*
D03*
D41*
X699770Y1234440D02*
D03*
X680720Y1230630D02*
D03*
X660400Y1229360D02*
D03*
X486410Y1257300D02*
D03*
X383540Y1236980D02*
D03*
X422910Y1173480D02*
D03*
X402590Y1127760D02*
D03*
X458470Y1153160D02*
D03*
X483870Y1146810D02*
D03*
X332740Y1073150D02*
D03*
X666750Y1135380D02*
D03*
X852170Y1082040D02*
D03*
X788670Y1211580D02*
D03*
X859790Y1207770D02*
D03*
X654510Y1155700D02*
D03*
X646430Y1140460D02*
D03*
X576580Y1179830D02*
D03*
X382270Y1051560D02*
D03*
X364490Y1234440D02*
D03*
X590550Y817880D02*
D03*
X635000Y816610D02*
D03*
X697230Y745490D02*
D03*
X655320Y1249680D02*
D03*
X753110Y1136650D02*
D03*
X684530Y1054100D02*
D03*
X680720Y1073150D02*
D03*
X585470Y970280D02*
D03*
X452120Y1032510D02*
D03*
X314960Y953770D02*
D03*
X462280Y984250D02*
D03*
X402590Y1013460D02*
D03*
X530860Y1270000D02*
D03*
X322580Y1164590D02*
D03*
X346710Y1247140D02*
D03*
X455930Y1229360D02*
D03*
X401320Y1092200D02*
D03*
X486410Y1184910D02*
D03*
X447040Y1165860D02*
D03*
X707390Y1070610D02*
D03*
X710991Y1138129D02*
D03*
X734060Y1137920D02*
D03*
M02*
