G04*
G04 #@! TF.GenerationSoftware,Altium Limited,Altium Designer,20.0.2 (26)*
G04*
G04 Layer_Physical_Order=1*
G04 Layer_Color=255*
%FSLAX44Y44*%
%MOMM*%
G71*
G01*
G75*
%ADD15C,0.2540*%
%ADD16R,0.8000X0.8000*%
%ADD17R,0.8000X0.4000*%
%ADD18R,0.4000X0.8000*%
%ADD19R,1.2000X1.2000*%
%ADD26C,1.5700*%
%ADD35C,1.4500*%
%ADD36R,1.4500X1.4500*%
%ADD42R,0.4000X0.4000*%
%ADD43R,1.5000X1.5000*%
%ADD44C,1.5000*%
%ADD45R,1.5000X1.5000*%
%ADD46R,1.5080X1.5080*%
%ADD47C,1.5080*%
%ADD48C,1.9650*%
%ADD49R,1.9650X1.9650*%
%ADD50C,1.2690*%
%ADD51C,1.4000*%
%ADD52C,1.2000*%
%ADD53C,2.2500*%
%ADD54R,2.2500X2.2500*%
%ADD55R,1.8000X1.8000*%
%ADD56C,1.8000*%
%ADD57C,1.2700*%
G36*
X845517Y1279855D02*
X843811Y1279149D01*
X841927Y1277703D01*
X840481Y1275819D01*
X839572Y1273625D01*
X839262Y1271270D01*
X839572Y1268915D01*
X840481Y1266721D01*
X841927Y1264837D01*
X843811Y1263391D01*
X845515Y1262685D01*
Y1258478D01*
X826992Y1239955D01*
X795882D01*
X795497Y1241225D01*
X796011Y1241569D01*
X818085Y1263642D01*
X818411Y1263391D01*
X820605Y1262482D01*
X822960Y1262172D01*
X825315Y1262482D01*
X827509Y1263391D01*
X829393Y1264837D01*
X830839Y1266721D01*
X831748Y1268915D01*
X832058Y1271270D01*
X831748Y1273625D01*
X830839Y1275819D01*
X829393Y1277703D01*
X827509Y1279149D01*
X825803Y1279855D01*
X826056Y1281125D01*
X845264D01*
X845517Y1279855D01*
D02*
G37*
G36*
X808315Y1287554D02*
X808249Y1285981D01*
X802557Y1280290D01*
X788540D01*
Y1266273D01*
X778840Y1256573D01*
X777570Y1257099D01*
Y1261250D01*
X771030D01*
Y1263790D01*
X777570D01*
Y1268125D01*
X778030D01*
X779193Y1268607D01*
X779675Y1269770D01*
Y1287780D01*
X808143D01*
X808315Y1287554D01*
D02*
G37*
G36*
X873760Y664210D02*
X254000D01*
X254000Y1287780D01*
X357293D01*
X357465Y1287554D01*
X357399Y1285981D01*
X320569Y1249151D01*
X319952Y1248229D01*
X319735Y1247140D01*
Y1171930D01*
X318611Y1171464D01*
X316967Y1170203D01*
X315706Y1168559D01*
X314913Y1166645D01*
X314642Y1164590D01*
X314913Y1162535D01*
X315706Y1160621D01*
X316967Y1158977D01*
X318611Y1157716D01*
X320526Y1156923D01*
X322580Y1156652D01*
X324635Y1156923D01*
X326549Y1157716D01*
X328193Y1158977D01*
X329454Y1160621D01*
X330247Y1162535D01*
X330518Y1164590D01*
X330247Y1166645D01*
X329454Y1168559D01*
X328193Y1170203D01*
X326549Y1171464D01*
X325425Y1171930D01*
Y1245962D01*
X360588Y1281125D01*
X375013D01*
X375499Y1279952D01*
X349889Y1254342D01*
X348764Y1254807D01*
X346710Y1255078D01*
X344655Y1254807D01*
X342741Y1254014D01*
X341097Y1252753D01*
X339836Y1251109D01*
X339043Y1249194D01*
X338772Y1247140D01*
X339043Y1245086D01*
X339836Y1243171D01*
X341097Y1241527D01*
X342741Y1240266D01*
X344655Y1239473D01*
X346710Y1239202D01*
X348764Y1239473D01*
X350679Y1240266D01*
X352323Y1241527D01*
X353584Y1243171D01*
X354377Y1245086D01*
X354648Y1247140D01*
X354377Y1249194D01*
X353912Y1250319D01*
X379888Y1276295D01*
X524170D01*
X524796Y1275025D01*
X523986Y1273969D01*
X523193Y1272055D01*
X522922Y1270000D01*
X523193Y1267945D01*
X523986Y1266031D01*
X525247Y1264387D01*
X526891Y1263126D01*
X528806Y1262333D01*
X530860Y1262062D01*
X532915Y1262333D01*
X534829Y1263126D01*
X536473Y1264387D01*
X537734Y1266031D01*
X538527Y1267945D01*
X538798Y1270000D01*
X538779Y1270141D01*
X539617Y1271095D01*
X550257D01*
X550883Y1269825D01*
X550030Y1268713D01*
X549018Y1266271D01*
X548841Y1264920D01*
X558800D01*
Y1263650D01*
X560070D01*
Y1253691D01*
X561421Y1253868D01*
X563863Y1254880D01*
X564975Y1255733D01*
X566245Y1255107D01*
Y1245276D01*
X564975Y1244881D01*
X563349Y1246129D01*
X561155Y1247038D01*
X558800Y1247348D01*
X556445Y1247038D01*
X554251Y1246129D01*
X552367Y1244683D01*
X550921Y1242799D01*
X550012Y1240605D01*
X549702Y1238250D01*
X550012Y1235895D01*
X550921Y1233701D01*
X552367Y1231817D01*
X554251Y1230371D01*
X556445Y1229462D01*
X558800Y1229152D01*
X561155Y1229462D01*
X563349Y1230371D01*
X564975Y1231619D01*
X566245Y1231224D01*
Y1219876D01*
X564975Y1219481D01*
X563349Y1220729D01*
X561155Y1221638D01*
X558800Y1221948D01*
X556445Y1221638D01*
X554741Y1220932D01*
X540906Y1234766D01*
X539984Y1235383D01*
X538895Y1235600D01*
X512133D01*
X501677Y1246056D01*
X502045Y1246803D01*
X502342Y1247187D01*
X504609Y1247486D01*
X506743Y1248370D01*
X508575Y1249775D01*
X509981Y1251607D01*
X510864Y1253741D01*
X511166Y1256030D01*
X510864Y1258319D01*
X509981Y1260453D01*
X508575Y1262285D01*
X506743Y1263690D01*
X504609Y1264574D01*
X502320Y1264876D01*
X500031Y1264574D01*
X497897Y1263690D01*
X496065Y1262285D01*
X494879Y1260739D01*
X493869Y1260720D01*
X493454Y1260860D01*
X493284Y1261269D01*
X492023Y1262913D01*
X490379Y1264174D01*
X488465Y1264967D01*
X486410Y1265238D01*
X484356Y1264967D01*
X482441Y1264174D01*
X480797Y1262913D01*
X479536Y1261269D01*
X478743Y1259354D01*
X478472Y1257300D01*
X478743Y1255246D01*
X479536Y1253331D01*
X480797Y1251687D01*
X482441Y1250426D01*
X484356Y1249633D01*
X486410Y1249362D01*
X488465Y1249633D01*
X489589Y1250098D01*
X508943Y1230744D01*
X509866Y1230127D01*
X510955Y1229910D01*
X537717D01*
X550718Y1216909D01*
X550012Y1215205D01*
X549702Y1212850D01*
X550012Y1210495D01*
X550921Y1208301D01*
X552367Y1206417D01*
X554251Y1204971D01*
X556445Y1204062D01*
X558800Y1203752D01*
X561155Y1204062D01*
X563349Y1204971D01*
X564975Y1206219D01*
X566245Y1205824D01*
Y1198918D01*
X562859Y1195532D01*
X561155Y1196238D01*
X558800Y1196548D01*
X556445Y1196238D01*
X554251Y1195329D01*
X552367Y1193883D01*
X550921Y1191999D01*
X550012Y1189805D01*
X549702Y1187450D01*
X550012Y1185095D01*
X550921Y1182901D01*
X552367Y1181017D01*
X554251Y1179571D01*
X556445Y1178662D01*
X558800Y1178352D01*
X561155Y1178662D01*
X563349Y1179571D01*
X565233Y1181017D01*
X566679Y1182901D01*
X567588Y1185095D01*
X567898Y1187450D01*
X567588Y1189805D01*
X566882Y1191509D01*
X571101Y1195729D01*
X571718Y1196651D01*
X571935Y1197740D01*
Y1209200D01*
X572569Y1209552D01*
X573204Y1209663D01*
X583738Y1199129D01*
X583032Y1197425D01*
X582722Y1195070D01*
X583032Y1192715D01*
X583941Y1190521D01*
X585387Y1188637D01*
X587271Y1187191D01*
X589465Y1186282D01*
X591820Y1185972D01*
X594175Y1186282D01*
X596369Y1187191D01*
X598253Y1188637D01*
X599050Y1189675D01*
X625510D01*
Y1189000D01*
X634490D01*
X635168Y1187730D01*
X635041Y1187540D01*
X625510D01*
Y1186865D01*
X606170D01*
X605081Y1186648D01*
X604159Y1186031D01*
X595879Y1177752D01*
X594175Y1178458D01*
X591820Y1178768D01*
X589465Y1178458D01*
X587271Y1177549D01*
X585387Y1176103D01*
X583941Y1174219D01*
X583032Y1172025D01*
X582722Y1169670D01*
X583032Y1167315D01*
X583941Y1165121D01*
X585387Y1163237D01*
X587271Y1161791D01*
X589465Y1160882D01*
X591820Y1160572D01*
X594175Y1160882D01*
X596369Y1161791D01*
X598253Y1163237D01*
X599699Y1165121D01*
X600608Y1167315D01*
X600918Y1169670D01*
X600608Y1172025D01*
X599902Y1173729D01*
X607348Y1181175D01*
X625510D01*
Y1180500D01*
X636550D01*
Y1181175D01*
X636650D01*
X637739Y1181392D01*
X638661Y1182009D01*
X679505Y1222852D01*
X680720Y1222692D01*
X682775Y1222963D01*
X684689Y1223756D01*
X686333Y1225017D01*
X687594Y1226661D01*
X688387Y1228576D01*
X688658Y1230630D01*
X688387Y1232684D01*
X687594Y1234599D01*
X686784Y1235655D01*
X687410Y1236925D01*
X690996D01*
X691992Y1235655D01*
X691832Y1234440D01*
X692103Y1232385D01*
X692896Y1230471D01*
X694157Y1228827D01*
X695801Y1227566D01*
X697716Y1226773D01*
X699770Y1226502D01*
X701824Y1226773D01*
X703739Y1227566D01*
X705383Y1228827D01*
X706644Y1230471D01*
X707437Y1232385D01*
X707708Y1234440D01*
X707437Y1236495D01*
X706644Y1238409D01*
X705383Y1240053D01*
X703739Y1241314D01*
X701824Y1242107D01*
X699770Y1242378D01*
X697716Y1242107D01*
X696591Y1241642D01*
X696451Y1241781D01*
X695529Y1242398D01*
X694440Y1242615D01*
X661126D01*
X660695Y1243885D01*
X660933Y1244067D01*
X662194Y1245711D01*
X662987Y1247626D01*
X663258Y1249680D01*
X662987Y1251734D01*
X662194Y1253649D01*
X661380Y1254710D01*
X662007Y1255980D01*
X665760D01*
Y1262520D01*
X668300D01*
Y1255980D01*
X674260D01*
Y1262520D01*
X676800D01*
Y1255980D01*
X682760D01*
Y1262520D01*
X685300D01*
Y1255980D01*
X691260D01*
Y1262520D01*
X693800D01*
Y1255980D01*
X699760D01*
Y1262520D01*
X702300D01*
Y1255980D01*
X708260D01*
Y1262520D01*
X710800D01*
Y1255980D01*
X716760D01*
Y1262520D01*
X719300D01*
Y1255980D01*
X725260D01*
Y1262520D01*
X727800D01*
Y1255980D01*
X733760D01*
Y1262520D01*
X736300D01*
Y1255980D01*
X742260D01*
Y1262520D01*
X744800D01*
Y1255980D01*
X750760D01*
Y1262520D01*
X753300D01*
Y1255980D01*
X759260D01*
Y1262520D01*
X761800D01*
Y1255980D01*
X764422D01*
X765510Y1255540D01*
X765510Y1254710D01*
Y1248500D01*
X776550D01*
Y1249175D01*
X778310D01*
X779399Y1249392D01*
X780321Y1250009D01*
X792563Y1262250D01*
X806580D01*
Y1276267D01*
X811438Y1281125D01*
X819864D01*
X820117Y1279855D01*
X818411Y1279149D01*
X816527Y1277703D01*
X815081Y1275819D01*
X814172Y1273625D01*
X813862Y1271270D01*
X814172Y1268915D01*
X814506Y1268109D01*
X792822Y1246424D01*
X784129D01*
X783828Y1246365D01*
X776550D01*
Y1247040D01*
X765510D01*
X765510Y1240163D01*
X764490Y1239560D01*
X764490Y1239397D01*
X764490Y1239397D01*
Y1236290D01*
X771030D01*
Y1233750D01*
X764490D01*
Y1230480D01*
Y1227790D01*
X771030D01*
Y1225250D01*
X764490D01*
Y1221980D01*
X765510Y1221540D01*
Y1214500D01*
X771006D01*
X771685Y1213230D01*
X771558Y1213040D01*
X765510D01*
Y1206000D01*
X776550D01*
Y1209017D01*
X779648Y1212115D01*
X779833Y1212023D01*
X780753Y1211424D01*
X781003Y1209526D01*
X781796Y1207611D01*
X783057Y1205967D01*
X783881Y1205335D01*
X783450Y1204065D01*
X776550D01*
Y1204540D01*
X765510D01*
Y1197500D01*
X776550D01*
Y1198375D01*
X801758D01*
X802381Y1196871D01*
X803827Y1194987D01*
X805711Y1193541D01*
X807905Y1192632D01*
X810260Y1192322D01*
X812615Y1192632D01*
X814809Y1193541D01*
X816693Y1194987D01*
X818139Y1196871D01*
X819048Y1199065D01*
X819315Y1201098D01*
X820493Y1201716D01*
X828625Y1193584D01*
Y1137937D01*
X827452Y1137451D01*
X818342Y1146561D01*
X819048Y1148265D01*
X819358Y1150620D01*
X819048Y1152975D01*
X818139Y1155169D01*
X816693Y1157053D01*
X814809Y1158499D01*
X813105Y1159205D01*
Y1160780D01*
X812888Y1161869D01*
X812271Y1162791D01*
X809294Y1165768D01*
X809888Y1166971D01*
X810260Y1166922D01*
X812615Y1167232D01*
X814809Y1168141D01*
X816693Y1169587D01*
X818139Y1171471D01*
X819048Y1173665D01*
X819358Y1176020D01*
X819048Y1178375D01*
X818139Y1180569D01*
X816693Y1182453D01*
X814809Y1183899D01*
X812615Y1184808D01*
X810260Y1185118D01*
X807905Y1184808D01*
X806201Y1184102D01*
X795771Y1194531D01*
X794849Y1195148D01*
X793760Y1195365D01*
X776550D01*
Y1196040D01*
X765510D01*
Y1189000D01*
X776550D01*
Y1189675D01*
X792582D01*
X802178Y1180079D01*
X801472Y1178375D01*
X801162Y1176020D01*
X801211Y1175648D01*
X800008Y1175054D01*
X789031Y1186031D01*
X788109Y1186648D01*
X787020Y1186865D01*
X776550D01*
Y1187540D01*
X765510D01*
Y1180500D01*
X776550D01*
Y1181175D01*
X785842D01*
X787383Y1179635D01*
X786857Y1178365D01*
X776550D01*
Y1179040D01*
X765510D01*
Y1172000D01*
X776550D01*
Y1172675D01*
X786722D01*
X788359Y1171038D01*
X787873Y1169865D01*
X776550D01*
Y1170540D01*
X765510D01*
Y1163500D01*
X776550D01*
Y1164175D01*
X788872D01*
X793065Y1159982D01*
Y1156987D01*
X791892Y1156501D01*
X787861Y1160531D01*
X786939Y1161148D01*
X785850Y1161365D01*
X776550D01*
Y1162040D01*
X765510D01*
Y1155000D01*
X776550D01*
Y1155675D01*
X784672D01*
X789006Y1151341D01*
Y1149617D01*
X787832Y1149131D01*
X784931Y1152031D01*
X784009Y1152648D01*
X782920Y1152865D01*
X776550D01*
Y1153540D01*
X765510D01*
Y1150259D01*
X764332Y1149865D01*
X764240Y1149863D01*
X757661Y1156441D01*
X756739Y1157058D01*
X755650Y1157275D01*
X740298D01*
X726070Y1171503D01*
Y1174750D01*
X718800D01*
Y1167480D01*
X722047D01*
X737109Y1152419D01*
X738031Y1151802D01*
X739120Y1151585D01*
X754472D01*
X759405Y1146652D01*
Y1143340D01*
X758135Y1142714D01*
X757079Y1143524D01*
X755164Y1144317D01*
X753110Y1144588D01*
X751056Y1144317D01*
X749141Y1143524D01*
X747497Y1142263D01*
X746236Y1140619D01*
X745443Y1138705D01*
X745172Y1136650D01*
X745443Y1134595D01*
X746236Y1132681D01*
X747497Y1131037D01*
X749090Y1129815D01*
Y1128040D01*
X748510D01*
Y1117000D01*
X755550D01*
Y1128040D01*
X755550Y1128040D01*
X755752Y1129226D01*
X757079Y1129776D01*
X758237Y1130664D01*
X759581Y1130249D01*
X759622Y1130211D01*
X760238Y1129289D01*
X760314Y1129213D01*
X759828Y1128040D01*
X757010D01*
Y1117000D01*
X757685D01*
Y1099105D01*
X757902Y1098016D01*
X758519Y1097093D01*
X760372Y1095240D01*
X759562Y1093285D01*
X759252Y1090930D01*
X759562Y1088575D01*
X760471Y1086381D01*
X761917Y1084497D01*
X763801Y1083051D01*
X765995Y1082142D01*
X768350Y1081832D01*
X770705Y1082142D01*
X772899Y1083051D01*
X774783Y1084497D01*
X775556Y1085504D01*
X776826Y1085073D01*
Y1059048D01*
X776885Y1058751D01*
X775869Y1057604D01*
X775610Y1057638D01*
X773245Y1057327D01*
X771041Y1056414D01*
X769148Y1054962D01*
X767696Y1053069D01*
X766783Y1050865D01*
X766472Y1048500D01*
X766783Y1046135D01*
X767696Y1043931D01*
X769148Y1042038D01*
X771041Y1040586D01*
X773245Y1039673D01*
X775610Y1039362D01*
X777975Y1039673D01*
X780179Y1040586D01*
X782072Y1042038D01*
X783524Y1043931D01*
X784437Y1046135D01*
X784708Y1048192D01*
X785878Y1048818D01*
X788365Y1046330D01*
Y1017270D01*
X788582Y1016181D01*
X789199Y1015259D01*
X802178Y1002279D01*
X801472Y1000575D01*
X801162Y998220D01*
X801472Y995865D01*
X802381Y993671D01*
X803827Y991787D01*
X805711Y990341D01*
X807905Y989432D01*
X810260Y989122D01*
X812615Y989432D01*
X814809Y990341D01*
X816693Y991787D01*
X818139Y993671D01*
X819048Y995865D01*
X819236Y997293D01*
X820506Y997209D01*
Y967480D01*
X820722Y966391D01*
X821339Y965468D01*
X821515Y965292D01*
Y963810D01*
X815340D01*
Y953770D01*
Y943730D01*
X821515D01*
Y849668D01*
X754909Y783061D01*
X754292Y782139D01*
X754075Y781050D01*
Y753018D01*
X743199Y742142D01*
X741495Y742848D01*
X739140Y743158D01*
X736785Y742848D01*
X734591Y741939D01*
X732707Y740493D01*
X731261Y738609D01*
X730352Y736415D01*
X730042Y734060D01*
X730352Y731705D01*
X731261Y729511D01*
X732707Y727627D01*
X734591Y726181D01*
X736785Y725272D01*
X739140Y724962D01*
X741495Y725272D01*
X743689Y726181D01*
X745573Y727627D01*
X747019Y729511D01*
X747928Y731705D01*
X748238Y734060D01*
X747928Y736415D01*
X747222Y738119D01*
X756962Y747859D01*
X758135Y747373D01*
Y731678D01*
X743199Y716742D01*
X741495Y717448D01*
X739140Y717758D01*
X736785Y717448D01*
X734591Y716539D01*
X732707Y715093D01*
X731261Y713209D01*
X730352Y711015D01*
X730042Y708660D01*
X730352Y706305D01*
X731261Y704111D01*
X732707Y702227D01*
X734591Y700781D01*
X736785Y699872D01*
X739140Y699562D01*
X741495Y699872D01*
X743689Y700781D01*
X745573Y702227D01*
X747019Y704111D01*
X747928Y706305D01*
X748238Y708660D01*
X747928Y711015D01*
X747222Y712719D01*
X762991Y728488D01*
X763608Y729411D01*
X763824Y730500D01*
Y776920D01*
X827511Y840607D01*
X827735Y840942D01*
X829005Y840557D01*
Y787400D01*
X829222Y786311D01*
X829839Y785388D01*
X840278Y774949D01*
X839572Y773245D01*
X839262Y770890D01*
X839572Y768535D01*
X840481Y766341D01*
X841927Y764457D01*
X843811Y763011D01*
X846005Y762102D01*
X848360Y761792D01*
X850715Y762102D01*
X852909Y763011D01*
X854793Y764457D01*
X856239Y766341D01*
X857148Y768535D01*
X857458Y770890D01*
X857148Y773245D01*
X856239Y775439D01*
X854793Y777323D01*
X852909Y778769D01*
X850715Y779678D01*
X848360Y779988D01*
X846005Y779678D01*
X844301Y778972D01*
X834695Y788578D01*
Y843227D01*
X834695Y843227D01*
Y843319D01*
X836012Y844636D01*
X837277Y844504D01*
X837495Y844375D01*
X838014Y843120D01*
X839680Y840950D01*
X841850Y839284D01*
X844378Y838237D01*
X845820Y838047D01*
Y848360D01*
Y858672D01*
X844378Y858483D01*
X841850Y857436D01*
X839680Y855770D01*
X838505Y854239D01*
X837235Y854670D01*
Y954910D01*
X854840D01*
Y972950D01*
X836800D01*
Y972419D01*
X835530Y971893D01*
X834315Y973108D01*
Y1045953D01*
X835488Y1046439D01*
X837738Y1044189D01*
X837032Y1042485D01*
X836722Y1040130D01*
X837032Y1037775D01*
X837941Y1035581D01*
X839387Y1033697D01*
X841271Y1032251D01*
X843465Y1031342D01*
X845820Y1031032D01*
X848175Y1031342D01*
X850369Y1032251D01*
X852253Y1033697D01*
X853699Y1035581D01*
X854608Y1037775D01*
X854918Y1040130D01*
X854608Y1042485D01*
X853699Y1044679D01*
X852253Y1046563D01*
X850369Y1048009D01*
X848175Y1048918D01*
X845820Y1049228D01*
X843465Y1048918D01*
X841761Y1048212D01*
X838375Y1051598D01*
Y1111120D01*
X854840D01*
Y1129160D01*
X838375D01*
Y1136997D01*
X839645Y1137623D01*
X840757Y1136770D01*
X843199Y1135758D01*
X844550Y1135581D01*
Y1145540D01*
Y1155499D01*
X843199Y1155322D01*
X840757Y1154310D01*
X839645Y1153457D01*
X838375Y1154083D01*
Y1163913D01*
X839645Y1164309D01*
X841271Y1163061D01*
X843465Y1162152D01*
X845820Y1161842D01*
X848175Y1162152D01*
X850369Y1163061D01*
X852253Y1164507D01*
X853699Y1166391D01*
X854608Y1168585D01*
X854918Y1170940D01*
X854608Y1173295D01*
X853699Y1175489D01*
X852253Y1177373D01*
X850369Y1178819D01*
X848175Y1179728D01*
X845820Y1180038D01*
X843465Y1179728D01*
X841271Y1178819D01*
X839645Y1177571D01*
X838375Y1177967D01*
Y1184872D01*
X841761Y1188258D01*
X843465Y1187552D01*
X845820Y1187242D01*
X848175Y1187552D01*
X850369Y1188461D01*
X852253Y1189907D01*
X853699Y1191791D01*
X854608Y1193985D01*
X854918Y1196340D01*
X854608Y1198695D01*
X853699Y1200889D01*
X853635Y1200972D01*
X854541Y1201878D01*
X855821Y1200896D01*
X857736Y1200103D01*
X859790Y1199832D01*
X861844Y1200103D01*
X863759Y1200896D01*
X864815Y1201706D01*
X866085Y1201080D01*
Y1091088D01*
X860591Y1085594D01*
X859093Y1085892D01*
X859044Y1086009D01*
X857783Y1087653D01*
X856139Y1088914D01*
X854224Y1089707D01*
X852170Y1089978D01*
X850116Y1089707D01*
X848201Y1088914D01*
X846557Y1087653D01*
X845296Y1086009D01*
X844503Y1084094D01*
X844232Y1082040D01*
X844503Y1079986D01*
X845296Y1078071D01*
X846557Y1076427D01*
X848201Y1075166D01*
X850116Y1074373D01*
X852170Y1074102D01*
X854224Y1074373D01*
X856139Y1075166D01*
X857783Y1076427D01*
X859044Y1078071D01*
X859510Y1079195D01*
X861060D01*
X862149Y1079412D01*
X863071Y1080029D01*
X870941Y1087898D01*
X871558Y1088821D01*
X871775Y1089910D01*
Y1274830D01*
X871558Y1275919D01*
X870941Y1276842D01*
X861801Y1285981D01*
X861735Y1287554D01*
X861907Y1287780D01*
X873760D01*
X873760Y664210D01*
D02*
G37*
G36*
X866085Y1273652D02*
Y1214460D01*
X864815Y1213834D01*
X863759Y1214644D01*
X861844Y1215437D01*
X859790Y1215708D01*
X857736Y1215437D01*
X855821Y1214644D01*
X854177Y1213383D01*
X852916Y1211739D01*
X852123Y1209825D01*
X851852Y1207770D01*
X852123Y1205715D01*
X852916Y1203801D01*
X851905Y1203040D01*
X850369Y1204219D01*
X848175Y1205128D01*
X845820Y1205438D01*
X843465Y1205128D01*
X841271Y1204219D01*
X839387Y1202773D01*
X837941Y1200889D01*
X837032Y1198695D01*
X836722Y1196340D01*
X837032Y1193985D01*
X837738Y1192281D01*
X835488Y1190031D01*
X834315Y1190517D01*
Y1194762D01*
X834098Y1195851D01*
X833482Y1196774D01*
X816534Y1213721D01*
X815611Y1214338D01*
X814522Y1214555D01*
X795956D01*
X795544Y1215549D01*
X794283Y1217193D01*
X792639Y1218454D01*
X790724Y1219247D01*
X788826Y1219497D01*
X788226Y1220417D01*
X788135Y1220602D01*
X791508Y1223975D01*
X801240D01*
Y1217800D01*
X819280D01*
Y1234265D01*
X828170D01*
X829258Y1234482D01*
X830181Y1235098D01*
X850371Y1255289D01*
X850988Y1256211D01*
X851205Y1257300D01*
Y1262685D01*
X852909Y1263391D01*
X854793Y1264837D01*
X856239Y1266721D01*
X857148Y1268915D01*
X857458Y1271270D01*
X857148Y1273625D01*
X856239Y1275819D01*
X854793Y1277703D01*
X852909Y1279149D01*
X851203Y1279855D01*
X851456Y1281125D01*
X858612D01*
X866085Y1273652D01*
D02*
G37*
G36*
X622385Y1269770D02*
X622867Y1268607D01*
X624030Y1268125D01*
X624490D01*
Y1263790D01*
X631030D01*
Y1261250D01*
X624490D01*
Y1255980D01*
Y1253290D01*
X631030D01*
Y1250750D01*
X624490D01*
Y1247480D01*
Y1244790D01*
X631030D01*
Y1242250D01*
X624490D01*
Y1238980D01*
X625510Y1238540D01*
Y1231500D01*
X635233D01*
X636029Y1230230D01*
X635936Y1230040D01*
X625510D01*
Y1223000D01*
X636550D01*
Y1223825D01*
X637390D01*
X638479Y1224042D01*
X639401Y1224659D01*
X651668Y1236925D01*
X655245D01*
X655676Y1235655D01*
X654787Y1234973D01*
X653526Y1233329D01*
X652733Y1231414D01*
X652462Y1229360D01*
X652733Y1227306D01*
X653526Y1225391D01*
X654787Y1223747D01*
X656431Y1222486D01*
X657555Y1222020D01*
Y1219108D01*
X637723Y1199276D01*
X636550Y1199762D01*
Y1204540D01*
X625510D01*
Y1203865D01*
X603558D01*
X596090Y1211333D01*
X596253Y1212150D01*
X596515Y1212703D01*
X598253Y1214037D01*
X599699Y1215921D01*
X600608Y1218115D01*
X600875Y1220148D01*
X602053Y1220766D01*
X615311Y1207509D01*
X616234Y1206892D01*
X617322Y1206675D01*
X625510D01*
Y1206000D01*
X636550D01*
Y1213040D01*
X625510D01*
Y1212365D01*
X618500D01*
X594753Y1236112D01*
X594888Y1237378D01*
X596369Y1237991D01*
X598253Y1239437D01*
X599699Y1241321D01*
X600405Y1243027D01*
X601675Y1242774D01*
Y1236980D01*
X601892Y1235891D01*
X602509Y1234969D01*
X621469Y1216009D01*
X622391Y1215392D01*
X623480Y1215175D01*
X625510D01*
Y1214500D01*
X636550D01*
Y1221540D01*
X625510D01*
Y1221540D01*
X624240Y1221283D01*
X607365Y1238158D01*
Y1247722D01*
X607148Y1248811D01*
X606531Y1249734D01*
X595285Y1260980D01*
X595811Y1262250D01*
X600840D01*
Y1280290D01*
X582800D01*
Y1279420D01*
X581543Y1279015D01*
X581131Y1279632D01*
X574781Y1285981D01*
X574715Y1287554D01*
X574887Y1287780D01*
X622385D01*
Y1269770D01*
D02*
G37*
G36*
X674656Y1235655D02*
X673846Y1234599D01*
X673053Y1232684D01*
X672782Y1230630D01*
X673053Y1228576D01*
X673846Y1226661D01*
X674463Y1225856D01*
X638617Y1190010D01*
X638614Y1190009D01*
X637314Y1190503D01*
X637297Y1190804D01*
X662411Y1215919D01*
X663028Y1216841D01*
X663245Y1217930D01*
Y1222020D01*
X664369Y1222486D01*
X666013Y1223747D01*
X667274Y1225391D01*
X668067Y1227306D01*
X668338Y1229360D01*
X668067Y1231414D01*
X667274Y1233329D01*
X666013Y1234973D01*
X665124Y1235655D01*
X665555Y1236925D01*
X674030D01*
X674656Y1235655D01*
D02*
G37*
G36*
X805711Y1142741D02*
X807905Y1141832D01*
X810260Y1141522D01*
X812615Y1141832D01*
X814319Y1142538D01*
X824566Y1132291D01*
Y1116597D01*
X823392Y1116111D01*
X818342Y1121161D01*
X819048Y1122865D01*
X819358Y1125220D01*
X819048Y1127575D01*
X818139Y1129769D01*
X816693Y1131653D01*
X814809Y1133099D01*
X812615Y1134008D01*
X810260Y1134318D01*
X807905Y1134008D01*
X806201Y1133302D01*
X802815Y1136688D01*
Y1143594D01*
X804085Y1143989D01*
X805711Y1142741D01*
D02*
G37*
G36*
X802178Y1129279D02*
X801472Y1127575D01*
X801162Y1125220D01*
X801472Y1122865D01*
X802381Y1120671D01*
X803827Y1118787D01*
X805711Y1117341D01*
X807905Y1116432D01*
X810260Y1116122D01*
X812615Y1116432D01*
X814319Y1117138D01*
X820506Y1110952D01*
Y1100831D01*
X819236Y1100747D01*
X819048Y1102175D01*
X818139Y1104369D01*
X816693Y1106253D01*
X814809Y1107699D01*
X812615Y1108608D01*
X810260Y1108918D01*
X807905Y1108608D01*
X806201Y1107902D01*
X798755Y1115348D01*
Y1131043D01*
X799928Y1131529D01*
X802178Y1129279D01*
D02*
G37*
G36*
X772300Y1115980D02*
X776826D01*
Y1096787D01*
X775556Y1096356D01*
X774783Y1097363D01*
X772899Y1098809D01*
X770705Y1099718D01*
X768350Y1100028D01*
X765995Y1099718D01*
X764542Y1099116D01*
X763375Y1100283D01*
Y1115607D01*
X764490Y1115980D01*
X764490Y1115980D01*
X769760D01*
Y1122520D01*
X772300D01*
Y1115980D01*
D02*
G37*
G36*
X802178Y1103879D02*
X801472Y1102175D01*
X801162Y1099820D01*
X801472Y1097465D01*
X802381Y1095271D01*
X803827Y1093387D01*
X805711Y1091941D01*
X807905Y1091032D01*
X810260Y1090722D01*
X812615Y1091032D01*
X814809Y1091941D01*
X816693Y1093387D01*
X818139Y1095271D01*
X819048Y1097465D01*
X819236Y1098893D01*
X820506Y1098809D01*
Y1075431D01*
X819236Y1075347D01*
X819048Y1076775D01*
X818139Y1078969D01*
X816693Y1080853D01*
X814809Y1082299D01*
X812615Y1083208D01*
X810260Y1083518D01*
X807905Y1083208D01*
X806201Y1082502D01*
X794695Y1094008D01*
Y1109703D01*
X795868Y1110189D01*
X802178Y1103879D01*
D02*
G37*
G36*
Y1078479D02*
X801472Y1076775D01*
X801162Y1074420D01*
X801472Y1072065D01*
X802381Y1069871D01*
X803827Y1067987D01*
X805711Y1066541D01*
X807905Y1065632D01*
X810260Y1065322D01*
X812615Y1065632D01*
X814809Y1066541D01*
X816693Y1067987D01*
X818139Y1069871D01*
X819048Y1072065D01*
X819236Y1073493D01*
X820506Y1073409D01*
Y1050031D01*
X819236Y1049947D01*
X819048Y1051375D01*
X818139Y1053569D01*
X816693Y1055453D01*
X814809Y1056899D01*
X812615Y1057808D01*
X810260Y1058118D01*
X807905Y1057808D01*
X806201Y1057102D01*
X790635Y1072668D01*
Y1088363D01*
X791808Y1088849D01*
X802178Y1078479D01*
D02*
G37*
G36*
X820506Y1048009D02*
Y1024631D01*
X819236Y1024547D01*
X819048Y1025975D01*
X818139Y1028169D01*
X816693Y1030053D01*
X814809Y1031499D01*
X812615Y1032408D01*
X810260Y1032718D01*
X807905Y1032408D01*
X806201Y1031702D01*
X800405Y1037498D01*
Y1045924D01*
X801675Y1046177D01*
X802381Y1044471D01*
X803827Y1042587D01*
X805711Y1041141D01*
X807905Y1040232D01*
X810260Y1039922D01*
X812615Y1040232D01*
X814809Y1041141D01*
X816693Y1042587D01*
X818139Y1044471D01*
X819048Y1046665D01*
X819236Y1048093D01*
X820506Y1048009D01*
D02*
G37*
G36*
X795549Y1034309D02*
X802178Y1027679D01*
X801472Y1025975D01*
X801162Y1023620D01*
X801472Y1021265D01*
X802381Y1019071D01*
X803827Y1017187D01*
X805711Y1015741D01*
X807905Y1014832D01*
X810260Y1014522D01*
X812615Y1014832D01*
X814809Y1015741D01*
X816693Y1017187D01*
X818139Y1019071D01*
X819048Y1021265D01*
X819236Y1022693D01*
X820506Y1022609D01*
Y999231D01*
X819236Y999147D01*
X819048Y1000575D01*
X818139Y1002769D01*
X816693Y1004653D01*
X814809Y1006099D01*
X812615Y1007008D01*
X810260Y1007318D01*
X807905Y1007008D01*
X806201Y1006302D01*
X794055Y1018448D01*
Y1034258D01*
X795325Y1034644D01*
X795549Y1034309D01*
D02*
G37*
%LPC*%
G36*
X275590Y1265737D02*
Y1257300D01*
X284027D01*
X283858Y1258586D01*
X282871Y1260967D01*
X281302Y1263012D01*
X279257Y1264582D01*
X276876Y1265568D01*
X275590Y1265737D01*
D02*
G37*
G36*
X273050D02*
X271764Y1265568D01*
X269383Y1264582D01*
X267338Y1263012D01*
X265769Y1260967D01*
X264782Y1258586D01*
X264613Y1257300D01*
X273050D01*
Y1265737D01*
D02*
G37*
G36*
X557530Y1262380D02*
X548841D01*
X549018Y1261029D01*
X550030Y1258587D01*
X551639Y1256489D01*
X553737Y1254880D01*
X556179Y1253868D01*
X557530Y1253691D01*
Y1262380D01*
D02*
G37*
G36*
X284027Y1254760D02*
X275590D01*
Y1246323D01*
X276876Y1246492D01*
X279257Y1247478D01*
X281302Y1249048D01*
X282871Y1251093D01*
X283858Y1253474D01*
X284027Y1254760D01*
D02*
G37*
G36*
X273050D02*
X264613D01*
X264782Y1253474D01*
X265769Y1251093D01*
X267338Y1249048D01*
X269383Y1247478D01*
X271764Y1246492D01*
X273050Y1246323D01*
Y1254760D01*
D02*
G37*
G36*
X384810Y1245779D02*
Y1238250D01*
X392340D01*
X392201Y1239301D01*
X391305Y1241463D01*
X389880Y1243320D01*
X388023Y1244745D01*
X385861Y1245641D01*
X384810Y1245779D01*
D02*
G37*
G36*
X382270D02*
X381219Y1245641D01*
X379057Y1244745D01*
X377200Y1243320D01*
X375775Y1241463D01*
X374879Y1239301D01*
X374740Y1238250D01*
X382270D01*
Y1245779D01*
D02*
G37*
G36*
X392340Y1235710D02*
X384810D01*
Y1228180D01*
X385861Y1228319D01*
X388023Y1229215D01*
X389880Y1230640D01*
X391305Y1232497D01*
X392201Y1234659D01*
X392340Y1235710D01*
D02*
G37*
G36*
X382270D02*
X374740D01*
X374879Y1234659D01*
X375775Y1232497D01*
X377200Y1230640D01*
X379057Y1229215D01*
X381219Y1228319D01*
X382270Y1228180D01*
Y1235710D01*
D02*
G37*
G36*
X364490Y1242378D02*
X362435Y1242107D01*
X360521Y1241314D01*
X358877Y1240053D01*
X357616Y1238409D01*
X356823Y1236495D01*
X356552Y1234440D01*
X356823Y1232385D01*
X357616Y1230471D01*
X358877Y1228827D01*
X360521Y1227566D01*
X362435Y1226773D01*
X364490Y1226502D01*
X366544Y1226773D01*
X368459Y1227566D01*
X370103Y1228827D01*
X371364Y1230471D01*
X372157Y1232385D01*
X372428Y1234440D01*
X372157Y1236495D01*
X371364Y1238409D01*
X370103Y1240053D01*
X368459Y1241314D01*
X366544Y1242107D01*
X364490Y1242378D01*
D02*
G37*
G36*
X455930Y1237298D02*
X453876Y1237027D01*
X451961Y1236234D01*
X450317Y1234973D01*
X449056Y1233329D01*
X448263Y1231414D01*
X447992Y1229360D01*
X448263Y1227306D01*
X448728Y1226181D01*
X445029Y1222481D01*
X444412Y1221559D01*
X444195Y1220470D01*
Y1173200D01*
X443071Y1172734D01*
X441427Y1171473D01*
X440166Y1169829D01*
X439373Y1167915D01*
X439102Y1165860D01*
X439373Y1163805D01*
X440166Y1161891D01*
X441427Y1160247D01*
X443071Y1158986D01*
X444195Y1158520D01*
Y1139098D01*
X404499Y1099402D01*
X403374Y1099867D01*
X401320Y1100138D01*
X399266Y1099867D01*
X397351Y1099074D01*
X395707Y1097813D01*
X394446Y1096169D01*
X393653Y1094255D01*
X393382Y1092200D01*
X393653Y1090145D01*
X394118Y1089021D01*
X371119Y1066021D01*
X370502Y1065099D01*
X370285Y1064010D01*
Y901950D01*
X370502Y900861D01*
X371119Y899939D01*
X398039Y873019D01*
X398961Y872402D01*
X400050Y872185D01*
X502170D01*
Y862260D01*
X527710D01*
Y887800D01*
X502170D01*
Y877875D01*
X401228D01*
X375975Y903128D01*
Y1044870D01*
X377245Y1045496D01*
X378301Y1044686D01*
X380215Y1043893D01*
X382270Y1043622D01*
X384324Y1043893D01*
X386239Y1044686D01*
X387883Y1045947D01*
X389144Y1047591D01*
X389610Y1048715D01*
X476250D01*
X477339Y1048932D01*
X478261Y1049549D01*
X578591Y1149879D01*
X579208Y1150801D01*
X579425Y1151890D01*
Y1172490D01*
X580549Y1172956D01*
X582193Y1174217D01*
X583454Y1175861D01*
X584247Y1177775D01*
X584518Y1179830D01*
X584247Y1181885D01*
X583454Y1183799D01*
X582193Y1185443D01*
X580549Y1186704D01*
X578634Y1187497D01*
X576580Y1187768D01*
X574525Y1187497D01*
X572611Y1186704D01*
X570967Y1185443D01*
X569706Y1183799D01*
X568913Y1181885D01*
X568642Y1179830D01*
X568913Y1177775D01*
X569706Y1175861D01*
X570967Y1174217D01*
X572611Y1172956D01*
X573735Y1172490D01*
Y1153068D01*
X475072Y1054405D01*
X389610D01*
X389144Y1055529D01*
X387883Y1057173D01*
X386239Y1058434D01*
X384324Y1059227D01*
X382270Y1059498D01*
X380215Y1059227D01*
X378301Y1058434D01*
X377245Y1057624D01*
X375975Y1058250D01*
Y1062832D01*
X398141Y1084998D01*
X399266Y1084533D01*
X401320Y1084262D01*
X403374Y1084533D01*
X405289Y1085326D01*
X406933Y1086587D01*
X408194Y1088231D01*
X408987Y1090145D01*
X409258Y1092200D01*
X408987Y1094255D01*
X408522Y1095379D01*
X449051Y1135909D01*
X449668Y1136831D01*
X449885Y1137920D01*
Y1147659D01*
X451155Y1148090D01*
X452130Y1146820D01*
X453987Y1145395D01*
X456149Y1144499D01*
X457200Y1144361D01*
Y1153160D01*
Y1161960D01*
X456149Y1161821D01*
X455047Y1161365D01*
X454104Y1162349D01*
X454707Y1163805D01*
X454978Y1165860D01*
X454707Y1167915D01*
X453914Y1169829D01*
X452653Y1171473D01*
X451009Y1172734D01*
X449885Y1173200D01*
Y1219292D01*
X452751Y1222158D01*
X453876Y1221693D01*
X455930Y1221422D01*
X457985Y1221693D01*
X459899Y1222486D01*
X461543Y1223747D01*
X462804Y1225391D01*
X463597Y1227306D01*
X463868Y1229360D01*
X463597Y1231414D01*
X462804Y1233329D01*
X461543Y1234973D01*
X459899Y1236234D01*
X457985Y1237027D01*
X455930Y1237298D01*
D02*
G37*
G36*
X726070Y1217560D02*
X718800D01*
Y1210290D01*
X726070D01*
Y1217560D01*
D02*
G37*
G36*
X716260D02*
X702300D01*
Y1209020D01*
X699760D01*
Y1217560D01*
X692490D01*
Y1217046D01*
X691220Y1216379D01*
X690530Y1216665D01*
X684530D01*
X683367Y1216183D01*
X680743Y1213560D01*
X679990D01*
Y1212807D01*
X677367Y1210183D01*
X676885Y1209020D01*
Y1203020D01*
X677171Y1202330D01*
X676504Y1201060D01*
X675990D01*
Y1193790D01*
X684530D01*
Y1191250D01*
X675990D01*
Y1183980D01*
Y1177290D01*
X684530D01*
Y1176020D01*
X685800D01*
Y1167480D01*
X699760D01*
Y1176020D01*
X702300D01*
Y1167480D01*
X716260D01*
Y1176020D01*
X717530D01*
Y1177290D01*
X726070D01*
Y1183980D01*
Y1191250D01*
X717530D01*
Y1193790D01*
X726070D01*
Y1200480D01*
Y1207750D01*
X717530D01*
Y1209020D01*
X716260D01*
Y1217560D01*
D02*
G37*
G36*
X424180Y1182280D02*
Y1174750D01*
X431710D01*
X431571Y1175801D01*
X430675Y1177963D01*
X429250Y1179820D01*
X427393Y1181245D01*
X425231Y1182141D01*
X424180Y1182280D01*
D02*
G37*
G36*
X421640D02*
X420589Y1182141D01*
X418427Y1181245D01*
X416570Y1179820D01*
X415145Y1177963D01*
X414249Y1175801D01*
X414110Y1174750D01*
X421640D01*
Y1182280D01*
D02*
G37*
G36*
X636550Y1179040D02*
X625510D01*
Y1178365D01*
X623070D01*
X621981Y1178148D01*
X621059Y1177531D01*
X595879Y1152352D01*
X594175Y1153058D01*
X591820Y1153368D01*
X589465Y1153058D01*
X587271Y1152149D01*
X585387Y1150703D01*
X583941Y1148819D01*
X583032Y1146625D01*
X582722Y1144270D01*
X583032Y1141915D01*
X583738Y1140211D01*
X569489Y1125961D01*
X568872Y1125039D01*
X568655Y1123950D01*
Y1099950D01*
X551050D01*
Y1081910D01*
X568655D01*
Y1071244D01*
X567385Y1070813D01*
X566503Y1071963D01*
X564619Y1073409D01*
X562425Y1074318D01*
X560070Y1074628D01*
X557715Y1074318D01*
X555521Y1073409D01*
X553637Y1071963D01*
X552191Y1070079D01*
X551282Y1067885D01*
X550972Y1065530D01*
X551282Y1063175D01*
X552191Y1060981D01*
X553637Y1059097D01*
X555521Y1057651D01*
X557715Y1056742D01*
X560070Y1056432D01*
X562425Y1056742D01*
X564619Y1057651D01*
X566503Y1059097D01*
X567385Y1060247D01*
X568655Y1059816D01*
Y1045844D01*
X567385Y1045413D01*
X566503Y1046563D01*
X564619Y1048009D01*
X562425Y1048918D01*
X560070Y1049228D01*
X557715Y1048918D01*
X555521Y1048009D01*
X553637Y1046563D01*
X552191Y1044679D01*
X551282Y1042485D01*
X550972Y1040130D01*
X551282Y1037775D01*
X552191Y1035581D01*
X553637Y1033697D01*
X555521Y1032251D01*
X557715Y1031342D01*
X560070Y1031032D01*
X562425Y1031342D01*
X564619Y1032251D01*
X566503Y1033697D01*
X567385Y1034847D01*
X568655Y1034416D01*
Y1020444D01*
X567385Y1020013D01*
X566503Y1021163D01*
X564619Y1022609D01*
X562425Y1023518D01*
X560070Y1023828D01*
X557715Y1023518D01*
X555521Y1022609D01*
X553637Y1021163D01*
X552191Y1019279D01*
X551282Y1017085D01*
X550972Y1014730D01*
X551282Y1012375D01*
X552191Y1010181D01*
X553637Y1008297D01*
X555521Y1006851D01*
X557715Y1005942D01*
X560070Y1005632D01*
X562425Y1005942D01*
X564619Y1006851D01*
X566503Y1008297D01*
X567385Y1009447D01*
X568655Y1009016D01*
Y996609D01*
X567453Y996201D01*
X567231Y996491D01*
X565133Y998100D01*
X562691Y999112D01*
X561340Y999289D01*
Y989330D01*
Y979371D01*
X562691Y979548D01*
X565133Y980560D01*
X567231Y982169D01*
X567453Y982459D01*
X568655Y982051D01*
Y969644D01*
X567385Y969213D01*
X566503Y970363D01*
X564619Y971809D01*
X562425Y972718D01*
X560070Y973028D01*
X557715Y972718D01*
X555521Y971809D01*
X553637Y970363D01*
X552191Y968479D01*
X551282Y966285D01*
X550972Y963930D01*
X551282Y961575D01*
X552191Y959381D01*
X553637Y957497D01*
X555521Y956051D01*
X557715Y955142D01*
X560070Y954832D01*
X562425Y955142D01*
X564619Y956051D01*
X566503Y957497D01*
X567385Y958647D01*
X568655Y958216D01*
Y942340D01*
X568872Y941251D01*
X569489Y940329D01*
X576910Y932907D01*
Y831215D01*
X577127Y830126D01*
X577744Y829204D01*
X584293Y822654D01*
X583676Y821849D01*
X582883Y819934D01*
X582612Y817880D01*
X582883Y815826D01*
X583676Y813911D01*
X584937Y812267D01*
X586581Y811006D01*
X588495Y810213D01*
X590550Y809942D01*
X592604Y810213D01*
X594519Y811006D01*
X596163Y812267D01*
X597424Y813911D01*
X598217Y815826D01*
X598488Y817880D01*
X598217Y819934D01*
X597424Y821849D01*
X596163Y823493D01*
X594519Y824754D01*
X592604Y825547D01*
X590550Y825818D01*
X589335Y825658D01*
X582600Y832393D01*
Y912175D01*
X583870Y912427D01*
X584370Y911219D01*
X586189Y908849D01*
X588559Y907030D01*
X591318Y905887D01*
X594280Y905497D01*
X597242Y905887D01*
X600001Y907030D01*
X602371Y908849D01*
X604190Y911219D01*
X605333Y913978D01*
X605485Y915136D01*
X606755Y915053D01*
Y787400D01*
X606972Y786311D01*
X607589Y785389D01*
X711729Y681248D01*
X712651Y680632D01*
X713740Y680415D01*
X730120D01*
Y674240D01*
X748160D01*
Y692280D01*
X730120D01*
Y686105D01*
X714918D01*
X612445Y788578D01*
Y904694D01*
X613335Y905595D01*
X613715Y905595D01*
X636025D01*
Y928285D01*
X613715D01*
X613335Y928285D01*
X612445Y929186D01*
Y932180D01*
X612228Y933269D01*
X611611Y934192D01*
X584631Y961172D01*
X585224Y962374D01*
X585470Y962342D01*
X587524Y962613D01*
X589439Y963406D01*
X591083Y964667D01*
X592344Y966311D01*
X593137Y968225D01*
X593408Y970280D01*
X593137Y972335D01*
X592344Y974249D01*
X591083Y975893D01*
X589439Y977154D01*
X587524Y977947D01*
X585470Y978218D01*
X583415Y977947D01*
X581501Y977154D01*
X580445Y976344D01*
X579175Y976970D01*
Y1076802D01*
X587761Y1085388D01*
X589465Y1084682D01*
X591498Y1084415D01*
X592116Y1083237D01*
X589809Y1080929D01*
X589192Y1080006D01*
X588975Y1078918D01*
Y1076655D01*
X587271Y1075949D01*
X585387Y1074503D01*
X583941Y1072619D01*
X583032Y1070425D01*
X582722Y1068070D01*
X583032Y1065715D01*
X583941Y1063521D01*
X585387Y1061637D01*
X587271Y1060191D01*
X589465Y1059282D01*
X591498Y1059015D01*
X592116Y1057837D01*
X589809Y1055529D01*
X589192Y1054606D01*
X588975Y1053518D01*
Y1051255D01*
X587271Y1050549D01*
X585387Y1049103D01*
X583941Y1047219D01*
X583032Y1045025D01*
X582722Y1042670D01*
X583032Y1040315D01*
X583941Y1038121D01*
X585387Y1036237D01*
X587271Y1034791D01*
X589465Y1033882D01*
X591820Y1033572D01*
X594175Y1033882D01*
X596369Y1034791D01*
X598253Y1036237D01*
X599699Y1038121D01*
X600608Y1040315D01*
X600918Y1042670D01*
X600608Y1045025D01*
X599699Y1047219D01*
X598253Y1049103D01*
X596369Y1050549D01*
X594888Y1051162D01*
X594753Y1052428D01*
X611706Y1069380D01*
X612976Y1068854D01*
Y962790D01*
X613192Y961701D01*
X613809Y960779D01*
X659250Y915337D01*
Y910590D01*
X668020D01*
Y919360D01*
X663273D01*
X618665Y963968D01*
Y986114D01*
X619935Y986509D01*
X621561Y985261D01*
X623755Y984352D01*
X626110Y984042D01*
X628465Y984352D01*
X630659Y985261D01*
X632543Y986707D01*
X633989Y988591D01*
X634898Y990785D01*
X635208Y993140D01*
X634898Y995495D01*
X634192Y997199D01*
X651171Y1014179D01*
X651788Y1015101D01*
X652005Y1016190D01*
Y1043500D01*
X658220D01*
Y1053580D01*
Y1063660D01*
X652005D01*
Y1092972D01*
X656557Y1097524D01*
X657730Y1097038D01*
Y1081910D01*
X675770D01*
Y1095927D01*
X686041Y1106199D01*
X686658Y1107121D01*
X686875Y1108210D01*
Y1117000D01*
X687550D01*
Y1128040D01*
X680510D01*
Y1117000D01*
X681185D01*
Y1109388D01*
X671747Y1099950D01*
X660642D01*
X660156Y1101123D01*
X676033Y1117000D01*
X679050D01*
Y1128040D01*
X673249D01*
X673079Y1128040D01*
X672031Y1129240D01*
X672061Y1129535D01*
X672363Y1129767D01*
X673624Y1131411D01*
X674417Y1133326D01*
X674688Y1135380D01*
X674417Y1137434D01*
X673624Y1139349D01*
X672363Y1140993D01*
X670719Y1142254D01*
X668804Y1143047D01*
X666750Y1143318D01*
X664696Y1143047D01*
X662781Y1142254D01*
X661137Y1140993D01*
X659876Y1139349D01*
X659410Y1138225D01*
X659130D01*
X658041Y1138008D01*
X657119Y1137391D01*
X648019Y1128291D01*
X647850Y1128040D01*
X646510D01*
Y1121992D01*
X646320Y1121865D01*
X645050Y1122544D01*
Y1128040D01*
X638173D01*
X637570Y1129060D01*
X637570Y1129060D01*
X637570D01*
X636550Y1129663D01*
Y1136540D01*
X625510D01*
Y1135865D01*
X620847D01*
X620361Y1137038D01*
X621998Y1138675D01*
X625510D01*
Y1138000D01*
X636550D01*
Y1145040D01*
X625510D01*
Y1144365D01*
X621864D01*
X621337Y1145635D01*
X622878Y1147175D01*
X625510D01*
Y1146500D01*
X636550D01*
Y1153540D01*
X625510D01*
Y1152865D01*
X622743D01*
X622217Y1154135D01*
X623758Y1155675D01*
X625510D01*
Y1155000D01*
X636550D01*
Y1157818D01*
X637723Y1158304D01*
X642526Y1153502D01*
Y1147361D01*
X642461Y1147334D01*
X640817Y1146073D01*
X639556Y1144429D01*
X638763Y1142514D01*
X638492Y1140460D01*
X638763Y1138406D01*
X639556Y1136491D01*
X640817Y1134847D01*
X642461Y1133586D01*
X644376Y1132793D01*
X646430Y1132522D01*
X648484Y1132793D01*
X650399Y1133586D01*
X652043Y1134847D01*
X653304Y1136491D01*
X654097Y1138406D01*
X654368Y1140460D01*
X654097Y1142514D01*
X653304Y1144429D01*
X652043Y1146073D01*
X650399Y1147334D01*
X648926Y1147944D01*
X648876Y1148503D01*
X650091Y1149171D01*
X650541Y1148826D01*
X652456Y1148033D01*
X654510Y1147762D01*
X656565Y1148033D01*
X658479Y1148826D01*
X660123Y1150087D01*
X661385Y1151731D01*
X662178Y1153645D01*
X662448Y1155700D01*
X662178Y1157755D01*
X661385Y1159669D01*
X660123Y1161313D01*
X658479Y1162574D01*
X656565Y1163367D01*
X654510Y1163638D01*
X652456Y1163367D01*
X650541Y1162574D01*
X648897Y1161313D01*
X647636Y1159669D01*
X647215Y1158654D01*
X645717Y1158356D01*
X636550Y1167523D01*
Y1170540D01*
X625510D01*
Y1163500D01*
X631558D01*
X631685Y1163310D01*
X631006Y1162040D01*
X625510D01*
Y1161365D01*
X622580D01*
X621491Y1161148D01*
X620569Y1160531D01*
X601879Y1141842D01*
X600676Y1142435D01*
X600918Y1144270D01*
X600608Y1146625D01*
X599902Y1148329D01*
X624240Y1172667D01*
X625510Y1172656D01*
Y1172000D01*
X636550D01*
Y1179040D01*
D02*
G37*
G36*
X683260Y1174750D02*
X675990D01*
Y1167480D01*
X683260D01*
Y1174750D01*
D02*
G37*
G36*
X431710Y1172210D02*
X424180D01*
Y1164680D01*
X425231Y1164819D01*
X427393Y1165715D01*
X429250Y1167140D01*
X430675Y1168997D01*
X431571Y1171159D01*
X431710Y1172210D01*
D02*
G37*
G36*
X421640D02*
X414110D01*
X414249Y1171159D01*
X415145Y1168997D01*
X416570Y1167140D01*
X418427Y1165715D01*
X420589Y1164819D01*
X421640Y1164680D01*
Y1172210D01*
D02*
G37*
G36*
X459740Y1161960D02*
Y1154430D01*
X467270D01*
X467131Y1155481D01*
X466235Y1157643D01*
X464810Y1159500D01*
X462953Y1160925D01*
X460791Y1161821D01*
X459740Y1161960D01*
D02*
G37*
G36*
X486410Y1192848D02*
X484356Y1192577D01*
X482441Y1191784D01*
X480797Y1190523D01*
X479536Y1188879D01*
X478743Y1186964D01*
X478472Y1184910D01*
X478743Y1182856D01*
X479536Y1180941D01*
X480797Y1179297D01*
X482441Y1178036D01*
X484356Y1177243D01*
X486410Y1176972D01*
X488465Y1177243D01*
X490379Y1178036D01*
X492023Y1179297D01*
X493284Y1180941D01*
X493750Y1182065D01*
X534762D01*
X549780Y1167047D01*
Y1153030D01*
X567820D01*
Y1171070D01*
X553803D01*
X537951Y1186921D01*
X537029Y1187538D01*
X535940Y1187755D01*
X493750D01*
X493284Y1188879D01*
X492023Y1190523D01*
X490379Y1191784D01*
X488465Y1192577D01*
X486410Y1192848D01*
D02*
G37*
G36*
X847090Y1155499D02*
Y1146810D01*
X855779D01*
X855602Y1148161D01*
X854590Y1150603D01*
X852981Y1152701D01*
X850883Y1154310D01*
X848441Y1155322D01*
X847090Y1155499D01*
D02*
G37*
G36*
X467270Y1151890D02*
X459740D01*
Y1144361D01*
X460791Y1144499D01*
X462953Y1145395D01*
X464810Y1146820D01*
X466235Y1148677D01*
X467131Y1150839D01*
X467270Y1151890D01*
D02*
G37*
G36*
X483870Y1154748D02*
X481815Y1154477D01*
X479901Y1153684D01*
X478257Y1152423D01*
X476996Y1150779D01*
X476203Y1148865D01*
X475932Y1146810D01*
X476203Y1144755D01*
X476996Y1142841D01*
X478257Y1141197D01*
X479901Y1139936D01*
X481815Y1139143D01*
X483870Y1138872D01*
X485924Y1139143D01*
X487839Y1139936D01*
X489483Y1141197D01*
X490744Y1142841D01*
X491537Y1144755D01*
X491808Y1146810D01*
X491537Y1148865D01*
X490744Y1150779D01*
X489483Y1152423D01*
X487839Y1153684D01*
X485924Y1154477D01*
X483870Y1154748D01*
D02*
G37*
G36*
X855779Y1144270D02*
X847090D01*
Y1135581D01*
X848441Y1135758D01*
X850883Y1136770D01*
X852981Y1138379D01*
X854590Y1140477D01*
X855602Y1142919D01*
X855779Y1144270D01*
D02*
G37*
G36*
X403860Y1136560D02*
Y1129030D01*
X411390D01*
X411251Y1130081D01*
X410355Y1132243D01*
X408930Y1134100D01*
X407073Y1135525D01*
X404911Y1136421D01*
X403860Y1136560D01*
D02*
G37*
G36*
X401320D02*
X400269Y1136421D01*
X398107Y1135525D01*
X396250Y1134100D01*
X394825Y1132243D01*
X393929Y1130081D01*
X393791Y1129030D01*
X401320D01*
Y1136560D01*
D02*
G37*
G36*
X411390Y1126490D02*
X403860D01*
Y1118960D01*
X404911Y1119099D01*
X407073Y1119995D01*
X408930Y1121420D01*
X410355Y1123277D01*
X411251Y1125439D01*
X411390Y1126490D01*
D02*
G37*
G36*
X401320D02*
X393791D01*
X393929Y1125439D01*
X394825Y1123277D01*
X396250Y1121420D01*
X398107Y1119995D01*
X400269Y1119099D01*
X401320Y1118960D01*
Y1126490D01*
D02*
G37*
G36*
X734060Y1145858D02*
X732005Y1145587D01*
X730091Y1144794D01*
X728447Y1143533D01*
X727186Y1141889D01*
X726393Y1139975D01*
X726122Y1137920D01*
X726393Y1135865D01*
X727186Y1133951D01*
X728447Y1132307D01*
X730091Y1131046D01*
X732005Y1130253D01*
X734060Y1129982D01*
X736115Y1130253D01*
X737239Y1130718D01*
X738716Y1129241D01*
X738121Y1128040D01*
X737458Y1128040D01*
X731510D01*
Y1117000D01*
X732185D01*
Y1099005D01*
X732402Y1097916D01*
X733019Y1096993D01*
X734913Y1095098D01*
X734162Y1093285D01*
X733852Y1090930D01*
X734162Y1088575D01*
X735071Y1086381D01*
X736517Y1084497D01*
X738401Y1083051D01*
X740595Y1082142D01*
X742950Y1081832D01*
X745305Y1082142D01*
X747499Y1083051D01*
X749383Y1084497D01*
X750829Y1086381D01*
X751738Y1088575D01*
X752048Y1090930D01*
X751738Y1093285D01*
X750829Y1095479D01*
X749383Y1097363D01*
X747499Y1098809D01*
X745305Y1099718D01*
X742950Y1100028D01*
X740595Y1099718D01*
X739000Y1099057D01*
X737875Y1100183D01*
Y1117000D01*
X738550D01*
Y1126329D01*
X739573Y1127000D01*
X739820Y1127035D01*
X740010Y1126917D01*
Y1117000D01*
X747050D01*
Y1128040D01*
X746375D01*
Y1128450D01*
X746158Y1129539D01*
X745541Y1130461D01*
X741262Y1134741D01*
X741727Y1135865D01*
X741998Y1137920D01*
X741727Y1139975D01*
X740934Y1141889D01*
X739673Y1143533D01*
X738029Y1144794D01*
X736115Y1145587D01*
X734060Y1145858D01*
D02*
G37*
G36*
X710991Y1146067D02*
X708937Y1145796D01*
X707022Y1145003D01*
X705378Y1143742D01*
X704117Y1142098D01*
X703324Y1140183D01*
X703053Y1138129D01*
X703324Y1136074D01*
X704117Y1134160D01*
X705378Y1132516D01*
X707022Y1131254D01*
X708937Y1130461D01*
X710991Y1130191D01*
X713046Y1130461D01*
X713964Y1130842D01*
X715185Y1129621D01*
Y1128040D01*
X714510D01*
Y1117000D01*
X721550D01*
Y1128040D01*
X720875D01*
Y1130799D01*
X720658Y1131888D01*
X720041Y1132811D01*
X718108Y1134744D01*
X718659Y1136074D01*
X718929Y1138129D01*
X718659Y1140183D01*
X717866Y1142098D01*
X716604Y1143742D01*
X714960Y1145003D01*
X713046Y1145796D01*
X710991Y1146067D01*
D02*
G37*
G36*
X730050Y1128040D02*
X723010D01*
Y1117000D01*
X723685D01*
Y1101088D01*
X721609Y1099012D01*
X719905Y1099718D01*
X717550Y1100028D01*
X715195Y1099718D01*
X713001Y1098809D01*
X711375Y1097561D01*
X710105Y1097956D01*
Y1117000D01*
X713050D01*
Y1128040D01*
X706010D01*
Y1124362D01*
X705321Y1124029D01*
X704550Y1124560D01*
Y1128040D01*
X697510D01*
Y1117000D01*
X699595D01*
Y1097956D01*
X698325Y1097561D01*
X696699Y1098809D01*
X695185Y1099436D01*
Y1117000D01*
X696050D01*
Y1128040D01*
X689010D01*
Y1117000D01*
X689495D01*
Y1099594D01*
X687601Y1098809D01*
X685717Y1097363D01*
X684271Y1095479D01*
X683362Y1093285D01*
X683052Y1090930D01*
X683362Y1088575D01*
X684271Y1086381D01*
X685717Y1084497D01*
X687601Y1083051D01*
X689795Y1082142D01*
X691828Y1081875D01*
X692446Y1080697D01*
X688822Y1077072D01*
X687368Y1077414D01*
X686333Y1078763D01*
X684689Y1080024D01*
X682775Y1080817D01*
X680720Y1081088D01*
X678665Y1080817D01*
X676751Y1080024D01*
X675107Y1078763D01*
X673846Y1077119D01*
X673053Y1075204D01*
X672782Y1073150D01*
X673053Y1071096D01*
X673846Y1069181D01*
X675107Y1067537D01*
X676751Y1066276D01*
X678665Y1065483D01*
X680720Y1065212D01*
X682775Y1065483D01*
X684689Y1066276D01*
X686333Y1067537D01*
X687594Y1069181D01*
X688060Y1070305D01*
X688922D01*
X690011Y1070522D01*
X690934Y1071139D01*
X703242Y1083447D01*
X704416Y1082961D01*
Y1077896D01*
X703421Y1077484D01*
X701777Y1076223D01*
X700516Y1074579D01*
X699723Y1072664D01*
X699452Y1070610D01*
X699723Y1068556D01*
X700516Y1066641D01*
X701777Y1064997D01*
X703285Y1063840D01*
X703282Y1063313D01*
X703025Y1062525D01*
X702125Y1062407D01*
X699921Y1061494D01*
X698028Y1060042D01*
X696576Y1058149D01*
X695663Y1055945D01*
X695352Y1053580D01*
X695663Y1051215D01*
X696576Y1049011D01*
X698028Y1047118D01*
X699921Y1045666D01*
X701645Y1044952D01*
Y997208D01*
X699921Y996494D01*
X698028Y995042D01*
X696576Y993149D01*
X695663Y990945D01*
X695352Y988580D01*
X695663Y986215D01*
X696576Y984011D01*
X698028Y982118D01*
X699921Y980666D01*
X702125Y979753D01*
X704490Y979442D01*
X706855Y979753D01*
X709059Y980666D01*
X710952Y982118D01*
X712404Y984011D01*
X713317Y986215D01*
X713628Y988580D01*
X713317Y990945D01*
X712404Y993149D01*
X710952Y995042D01*
X709059Y996494D01*
X707335Y997208D01*
Y1044952D01*
X709059Y1045666D01*
X710952Y1047118D01*
X712404Y1049011D01*
X713317Y1051215D01*
X713628Y1053580D01*
X713317Y1055945D01*
X712404Y1058149D01*
X710952Y1060042D01*
X709059Y1061494D01*
X708845Y1061583D01*
X709016Y1062886D01*
X709445Y1062943D01*
X711359Y1063736D01*
X713003Y1064997D01*
X714264Y1066641D01*
X715057Y1068556D01*
X715328Y1070610D01*
X715057Y1072664D01*
X714264Y1074579D01*
X713003Y1076223D01*
X711359Y1077484D01*
X710105Y1078004D01*
Y1083904D01*
X711375Y1084299D01*
X713001Y1083051D01*
X715195Y1082142D01*
X717550Y1081832D01*
X719905Y1082142D01*
X722099Y1083051D01*
X723983Y1084497D01*
X725429Y1086381D01*
X726338Y1088575D01*
X726648Y1090930D01*
X726338Y1093285D01*
X725632Y1094989D01*
X728541Y1097898D01*
X729158Y1098821D01*
X729375Y1099910D01*
Y1117000D01*
X730050D01*
Y1128040D01*
D02*
G37*
G36*
X334010Y1081949D02*
Y1074420D01*
X341539D01*
X341401Y1075471D01*
X340505Y1077633D01*
X339080Y1079490D01*
X337223Y1080915D01*
X335061Y1081811D01*
X334010Y1081949D01*
D02*
G37*
G36*
X331470D02*
X330419Y1081811D01*
X328257Y1080915D01*
X326400Y1079490D01*
X324975Y1077633D01*
X324079Y1075471D01*
X323941Y1074420D01*
X331470D01*
Y1081949D01*
D02*
G37*
G36*
X341539Y1071880D02*
X334010D01*
Y1064351D01*
X335061Y1064489D01*
X337223Y1065385D01*
X339080Y1066810D01*
X340505Y1068667D01*
X341401Y1070829D01*
X341539Y1071880D01*
D02*
G37*
G36*
X331470D02*
X323941D01*
X324079Y1070829D01*
X324975Y1068667D01*
X326400Y1066810D01*
X328257Y1065385D01*
X330419Y1064489D01*
X331470Y1064351D01*
Y1071880D01*
D02*
G37*
G36*
X669570Y1063660D02*
X660760D01*
Y1054850D01*
X669570D01*
Y1063660D01*
D02*
G37*
G36*
X740690Y1058580D02*
X731880D01*
Y1049770D01*
X740690D01*
Y1058580D01*
D02*
G37*
G36*
X729340D02*
X720530D01*
Y1049770D01*
X729340D01*
Y1058580D01*
D02*
G37*
G36*
X669570Y1052310D02*
X660760D01*
Y1043500D01*
X669570D01*
Y1052310D01*
D02*
G37*
G36*
X740690Y1047230D02*
X731880D01*
Y1038420D01*
X740690D01*
Y1047230D01*
D02*
G37*
G36*
X729340D02*
X720530D01*
Y1038420D01*
X729340D01*
Y1047230D01*
D02*
G37*
G36*
X845820Y1023828D02*
X843465Y1023518D01*
X841271Y1022609D01*
X839387Y1021163D01*
X837941Y1019279D01*
X837032Y1017085D01*
X836722Y1014730D01*
X837032Y1012375D01*
X837941Y1010181D01*
X839387Y1008297D01*
X841271Y1006851D01*
X843465Y1005942D01*
X845820Y1005632D01*
X848175Y1005942D01*
X850369Y1006851D01*
X852253Y1008297D01*
X853699Y1010181D01*
X854608Y1012375D01*
X854918Y1014730D01*
X854608Y1017085D01*
X853699Y1019279D01*
X852253Y1021163D01*
X850369Y1022609D01*
X848175Y1023518D01*
X845820Y1023828D01*
D02*
G37*
G36*
X402590Y1021398D02*
X400536Y1021127D01*
X398621Y1020334D01*
X396977Y1019073D01*
X395716Y1017429D01*
X394923Y1015515D01*
X394652Y1013460D01*
X394923Y1011405D01*
X395716Y1009491D01*
X396977Y1007847D01*
X398621Y1006586D01*
X400536Y1005793D01*
X402590Y1005522D01*
X404645Y1005793D01*
X406559Y1006586D01*
X408203Y1007847D01*
X409464Y1009491D01*
X410257Y1011405D01*
X410528Y1013460D01*
X410257Y1015515D01*
X409464Y1017429D01*
X408203Y1019073D01*
X406559Y1020334D01*
X404645Y1021127D01*
X402590Y1021398D01*
D02*
G37*
G36*
X847090Y999289D02*
Y990600D01*
X855779D01*
X855602Y991951D01*
X854590Y994393D01*
X852981Y996491D01*
X850883Y998100D01*
X848441Y999112D01*
X847090Y999289D01*
D02*
G37*
G36*
X558800D02*
X557449Y999112D01*
X555007Y998100D01*
X552909Y996491D01*
X551300Y994393D01*
X550288Y991951D01*
X550111Y990600D01*
X558800D01*
Y999289D01*
D02*
G37*
G36*
X844550D02*
X843199Y999112D01*
X840757Y998100D01*
X838659Y996491D01*
X837050Y994393D01*
X836038Y991951D01*
X835861Y990600D01*
X844550D01*
Y999289D01*
D02*
G37*
G36*
X660760Y998580D02*
Y989850D01*
X669490D01*
X669311Y991211D01*
X668295Y993663D01*
X666679Y995769D01*
X664574Y997385D01*
X662121Y998400D01*
X660760Y998580D01*
D02*
G37*
G36*
X658220Y998580D02*
X656859Y998400D01*
X654407Y997385D01*
X652301Y995769D01*
X650685Y993663D01*
X649669Y991211D01*
X649490Y989850D01*
X658220D01*
Y998580D01*
D02*
G37*
G36*
X731880Y993500D02*
Y984770D01*
X740610D01*
X740431Y986131D01*
X739415Y988584D01*
X737799Y990689D01*
X735694Y992305D01*
X733241Y993320D01*
X731880Y993500D01*
D02*
G37*
G36*
X729340Y993500D02*
X727979Y993320D01*
X725527Y992305D01*
X723421Y990689D01*
X721805Y988584D01*
X720789Y986131D01*
X720610Y984770D01*
X729340D01*
Y993500D01*
D02*
G37*
G36*
X855779Y988060D02*
X847090D01*
Y979371D01*
X848441Y979548D01*
X850883Y980560D01*
X852981Y982169D01*
X854590Y984267D01*
X855602Y986709D01*
X855779Y988060D01*
D02*
G37*
G36*
X558800D02*
X550111D01*
X550288Y986709D01*
X551300Y984267D01*
X552909Y982169D01*
X555007Y980560D01*
X557449Y979548D01*
X558800Y979371D01*
Y988060D01*
D02*
G37*
G36*
X844550D02*
X835861D01*
X836038Y986709D01*
X837050Y984267D01*
X838659Y982169D01*
X840757Y980560D01*
X843199Y979548D01*
X844550Y979371D01*
Y988060D01*
D02*
G37*
G36*
X658220Y987310D02*
X649490D01*
X649669Y985949D01*
X650685Y983496D01*
X652301Y981391D01*
X654407Y979775D01*
X656859Y978760D01*
X658220Y978580D01*
Y987310D01*
D02*
G37*
G36*
X669490D02*
X660760D01*
Y978580D01*
X662121Y978760D01*
X664574Y979775D01*
X666679Y981391D01*
X668295Y983496D01*
X669311Y985949D01*
X669490Y987310D01*
D02*
G37*
G36*
X452120Y1040448D02*
X450065Y1040177D01*
X448151Y1039384D01*
X446507Y1038123D01*
X445246Y1036479D01*
X444453Y1034565D01*
X444182Y1032510D01*
X444453Y1030455D01*
X445246Y1028541D01*
X446507Y1026897D01*
X448151Y1025636D01*
X449275Y1025170D01*
Y994410D01*
X449492Y993321D01*
X450109Y992399D01*
X455078Y987429D01*
X454613Y986304D01*
X454342Y984250D01*
X454613Y982196D01*
X455406Y980281D01*
X456667Y978637D01*
X458311Y977376D01*
X460225Y976583D01*
X462280Y976312D01*
X464334Y976583D01*
X466249Y977376D01*
X467893Y978637D01*
X469154Y980281D01*
X469947Y982196D01*
X470218Y984250D01*
X469947Y986304D01*
X469154Y988219D01*
X467893Y989863D01*
X466249Y991124D01*
X464334Y991917D01*
X462280Y992188D01*
X460225Y991917D01*
X459101Y991452D01*
X454965Y995588D01*
Y1025170D01*
X456089Y1025636D01*
X457733Y1026897D01*
X458994Y1028541D01*
X459787Y1030455D01*
X460058Y1032510D01*
X459787Y1034565D01*
X458994Y1036479D01*
X457733Y1038123D01*
X456089Y1039384D01*
X454174Y1040177D01*
X452120Y1040448D01*
D02*
G37*
G36*
X775610Y992638D02*
X773245Y992327D01*
X771041Y991414D01*
X769148Y989962D01*
X767696Y988069D01*
X766783Y985865D01*
X766472Y983500D01*
X766783Y981135D01*
X767696Y978931D01*
X769148Y977038D01*
X771041Y975586D01*
X773245Y974673D01*
X775610Y974362D01*
X777975Y974673D01*
X780179Y975586D01*
X782072Y977038D01*
X783524Y978931D01*
X784437Y981135D01*
X784748Y983500D01*
X784437Y985865D01*
X783524Y988069D01*
X782072Y989962D01*
X780179Y991414D01*
X777975Y992327D01*
X775610Y992638D01*
D02*
G37*
G36*
X729340Y982230D02*
X720610D01*
X720789Y980869D01*
X721805Y978417D01*
X723421Y976311D01*
X725527Y974695D01*
X727979Y973680D01*
X729340Y973500D01*
Y982230D01*
D02*
G37*
G36*
X740610D02*
X731880D01*
Y973500D01*
X733241Y973680D01*
X735694Y974695D01*
X737799Y976311D01*
X739415Y978417D01*
X740431Y980869D01*
X740610Y982230D01*
D02*
G37*
G36*
X812800Y963810D02*
X804030D01*
Y955040D01*
X812800D01*
Y963810D01*
D02*
G37*
G36*
X669290Y969218D02*
X666935Y968908D01*
X664741Y967999D01*
X662857Y966553D01*
X661411Y964669D01*
X660502Y962475D01*
X660192Y960120D01*
X660502Y957765D01*
X661411Y955571D01*
X662857Y953687D01*
X664741Y952241D01*
X666935Y951332D01*
X669290Y951022D01*
X671645Y951332D01*
X673839Y952241D01*
X675723Y953687D01*
X677169Y955571D01*
X678078Y957765D01*
X678388Y960120D01*
X678078Y962475D01*
X677169Y964669D01*
X675723Y966553D01*
X673839Y967999D01*
X671645Y968908D01*
X669290Y969218D01*
D02*
G37*
G36*
X314960Y961708D02*
X312906Y961437D01*
X310991Y960644D01*
X309347Y959383D01*
X308086Y957739D01*
X307293Y955825D01*
X307022Y953770D01*
X307293Y951715D01*
X308086Y949801D01*
X309347Y948157D01*
X310991Y946896D01*
X312906Y946103D01*
X314960Y945832D01*
X317015Y946103D01*
X318929Y946896D01*
X320573Y948157D01*
X321834Y949801D01*
X322627Y951715D01*
X322898Y953770D01*
X322627Y955825D01*
X321834Y957739D01*
X320573Y959383D01*
X318929Y960644D01*
X317015Y961437D01*
X314960Y961708D01*
D02*
G37*
G36*
X788670Y962868D02*
X786315Y962558D01*
X784121Y961649D01*
X782237Y960203D01*
X780791Y958319D01*
X779882Y956125D01*
X779572Y953770D01*
X779882Y951415D01*
X780791Y949221D01*
X782237Y947337D01*
X784121Y945891D01*
X786315Y944982D01*
X788670Y944672D01*
X791025Y944982D01*
X793219Y945891D01*
X795103Y947337D01*
X796549Y949221D01*
X797458Y951415D01*
X797768Y953770D01*
X797458Y956125D01*
X796549Y958319D01*
X795103Y960203D01*
X793219Y961649D01*
X791025Y962558D01*
X788670Y962868D01*
D02*
G37*
G36*
X763270D02*
X760915Y962558D01*
X758721Y961649D01*
X756837Y960203D01*
X755391Y958319D01*
X754482Y956125D01*
X754172Y953770D01*
X754482Y951415D01*
X755391Y949221D01*
X756837Y947337D01*
X758721Y945891D01*
X760915Y944982D01*
X763270Y944672D01*
X765625Y944982D01*
X767819Y945891D01*
X769703Y947337D01*
X771149Y949221D01*
X772058Y951415D01*
X772368Y953770D01*
X772058Y956125D01*
X771149Y958319D01*
X769703Y960203D01*
X767819Y961649D01*
X765625Y962558D01*
X763270Y962868D01*
D02*
G37*
G36*
X737870D02*
X735515Y962558D01*
X733321Y961649D01*
X731437Y960203D01*
X729991Y958319D01*
X729082Y956125D01*
X728772Y953770D01*
X729082Y951415D01*
X729991Y949221D01*
X731437Y947337D01*
X733321Y945891D01*
X735515Y944982D01*
X737870Y944672D01*
X740225Y944982D01*
X742419Y945891D01*
X744303Y947337D01*
X745749Y949221D01*
X746658Y951415D01*
X746968Y953770D01*
X746658Y956125D01*
X745749Y958319D01*
X744303Y960203D01*
X742419Y961649D01*
X740225Y962558D01*
X737870Y962868D01*
D02*
G37*
G36*
X812800Y952500D02*
X804030D01*
Y943730D01*
X812800D01*
Y952500D01*
D02*
G37*
G36*
X669290Y943818D02*
X666935Y943508D01*
X664741Y942599D01*
X662857Y941153D01*
X661411Y939269D01*
X660502Y937075D01*
X660192Y934720D01*
X660502Y932365D01*
X661411Y930171D01*
X662857Y928287D01*
X664741Y926841D01*
X666935Y925932D01*
X669290Y925622D01*
X671645Y925932D01*
X673839Y926841D01*
X675723Y928287D01*
X677169Y930171D01*
X678078Y932365D01*
X678388Y934720D01*
X678078Y937075D01*
X677169Y939269D01*
X675723Y941153D01*
X673839Y942599D01*
X671645Y943508D01*
X669290Y943818D01*
D02*
G37*
G36*
X811170Y932770D02*
Y924040D01*
X819900D01*
X819721Y925401D01*
X818705Y927853D01*
X817089Y929959D01*
X814984Y931575D01*
X812531Y932590D01*
X811170Y932770D01*
D02*
G37*
G36*
X808630Y932770D02*
X807269Y932590D01*
X804817Y931575D01*
X802711Y929959D01*
X801095Y927853D01*
X800079Y925401D01*
X799900Y924040D01*
X808630D01*
Y932770D01*
D02*
G37*
G36*
X773960Y931830D02*
X755840D01*
Y913710D01*
X773960D01*
Y931830D01*
D02*
G37*
G36*
X819900Y921500D02*
X811170D01*
Y912770D01*
X812531Y912950D01*
X814984Y913965D01*
X817089Y915581D01*
X818705Y917686D01*
X819721Y920139D01*
X819900Y921500D01*
D02*
G37*
G36*
X808630D02*
X799900D01*
X800079Y920139D01*
X801095Y917686D01*
X802711Y915581D01*
X804817Y913965D01*
X807269Y912950D01*
X808630Y912770D01*
Y921500D01*
D02*
G37*
G36*
X679330Y919360D02*
X670560D01*
Y910590D01*
X679330D01*
Y919360D01*
D02*
G37*
G36*
X704850Y927661D02*
X702404Y927339D01*
X700125Y926395D01*
X698167Y924893D01*
X696665Y922935D01*
X695721Y920656D01*
X695399Y918210D01*
X695721Y915764D01*
X696665Y913485D01*
X698167Y911527D01*
X700125Y910025D01*
X702404Y909081D01*
X704850Y908759D01*
X707296Y909081D01*
X709575Y910025D01*
X711533Y911527D01*
X713035Y913485D01*
X713979Y915764D01*
X714301Y918210D01*
X713979Y920656D01*
X713035Y922935D01*
X711533Y924893D01*
X709575Y926395D01*
X707296Y927339D01*
X704850Y927661D01*
D02*
G37*
G36*
X679330Y908050D02*
X670560D01*
Y899280D01*
X679330D01*
Y908050D01*
D02*
G37*
G36*
X668020D02*
X659250D01*
Y899280D01*
X668020D01*
Y908050D01*
D02*
G37*
G36*
X853440Y917501D02*
X850994Y917179D01*
X848715Y916235D01*
X846757Y914733D01*
X845255Y912775D01*
X844311Y910496D01*
X843989Y908050D01*
X844311Y905604D01*
X845255Y903325D01*
X846757Y901367D01*
X848715Y899865D01*
X850994Y898921D01*
X853440Y898599D01*
X855886Y898921D01*
X858165Y899865D01*
X860123Y901367D01*
X861625Y903325D01*
X862569Y905604D01*
X862891Y908050D01*
X862569Y910496D01*
X861625Y912775D01*
X860123Y914733D01*
X858165Y916235D01*
X855886Y917179D01*
X853440Y917501D01*
D02*
G37*
G36*
X563880Y928383D02*
X560918Y927993D01*
X558159Y926850D01*
X555789Y925031D01*
X553970Y922661D01*
X552827Y919902D01*
X552437Y916940D01*
X552827Y913978D01*
X553970Y911219D01*
X555789Y908849D01*
X558159Y907030D01*
X560918Y905887D01*
X561035Y905872D01*
Y869987D01*
X559765Y869361D01*
X558712Y870169D01*
X556883Y870926D01*
X554920Y871185D01*
X552957Y870926D01*
X551128Y870169D01*
X549557Y868963D01*
X548351Y867392D01*
X547594Y865563D01*
X547335Y863600D01*
X547594Y861637D01*
X548351Y859808D01*
X549557Y858237D01*
X551128Y857031D01*
X552075Y856639D01*
Y836768D01*
X484119Y768812D01*
X482415Y769518D01*
X480060Y769828D01*
X477705Y769518D01*
X475511Y768609D01*
X473627Y767163D01*
X472181Y765279D01*
X471272Y763085D01*
X470962Y760730D01*
X471272Y758375D01*
X472181Y756181D01*
X473627Y754297D01*
X475511Y752851D01*
X477215Y752145D01*
Y744128D01*
X417922Y684835D01*
X406760D01*
Y692510D01*
X385720D01*
Y671470D01*
X406760D01*
Y679145D01*
X419100D01*
X420189Y679362D01*
X421111Y679979D01*
X482071Y740939D01*
X482688Y741861D01*
X482905Y742950D01*
Y752145D01*
X484609Y752851D01*
X486493Y754297D01*
X487939Y756181D01*
X488848Y758375D01*
X489158Y760730D01*
X488848Y763085D01*
X488142Y764789D01*
X556931Y833578D01*
X557548Y834501D01*
X557765Y835590D01*
Y856639D01*
X558712Y857031D01*
X559765Y857839D01*
X561035Y857213D01*
Y746668D01*
X502953Y688586D01*
X501780Y689072D01*
Y689740D01*
X483740D01*
Y671700D01*
X501780D01*
Y679367D01*
X507888Y685475D01*
X508964Y684755D01*
X508378Y683341D01*
X508201Y681990D01*
X516890D01*
Y690679D01*
X515539Y690502D01*
X514125Y689916D01*
X513405Y690992D01*
X565891Y743479D01*
X566508Y744401D01*
X566725Y745490D01*
Y905872D01*
X566842Y905887D01*
X569601Y907030D01*
X571971Y908849D01*
X573790Y911219D01*
X574933Y913978D01*
X575323Y916940D01*
X574933Y919902D01*
X573790Y922661D01*
X571971Y925031D01*
X569601Y926850D01*
X566842Y927993D01*
X563880Y928383D01*
D02*
G37*
G36*
X302940Y887910D02*
X299606Y887471D01*
X296500Y886184D01*
X293832Y884138D01*
X291786Y881470D01*
X290499Y878364D01*
X290060Y875030D01*
X290499Y871696D01*
X291786Y868590D01*
X293832Y865922D01*
X296500Y863876D01*
X299606Y862589D01*
X302940Y862150D01*
X306274Y862589D01*
X309380Y863876D01*
X312048Y865922D01*
X314095Y868590D01*
X315381Y871696D01*
X315820Y875030D01*
X315381Y878364D01*
X314095Y881470D01*
X312048Y884138D01*
X309380Y886184D01*
X306274Y887471D01*
X302940Y887910D01*
D02*
G37*
G36*
X811170Y867770D02*
Y859040D01*
X819900D01*
X819721Y860401D01*
X818705Y862853D01*
X817089Y864959D01*
X814984Y866575D01*
X812531Y867590D01*
X811170Y867770D01*
D02*
G37*
G36*
X808630Y867770D02*
X807269Y867590D01*
X804817Y866575D01*
X802711Y864959D01*
X801095Y862853D01*
X800079Y860401D01*
X799900Y859040D01*
X808630D01*
Y867770D01*
D02*
G37*
G36*
X704920Y871185D02*
X702957Y870926D01*
X701128Y870169D01*
X699557Y868963D01*
X698351Y867392D01*
X697594Y865563D01*
X697335Y863600D01*
X697594Y861637D01*
X698351Y859808D01*
X699557Y858237D01*
X701128Y857031D01*
X702957Y856274D01*
X704920Y856015D01*
X706883Y856274D01*
X708712Y857031D01*
X710283Y858237D01*
X711489Y859808D01*
X712246Y861637D01*
X712505Y863600D01*
X712246Y865563D01*
X711489Y867392D01*
X710283Y868963D01*
X708712Y870169D01*
X706883Y870926D01*
X704920Y871185D01*
D02*
G37*
G36*
X739140Y870158D02*
X736785Y869848D01*
X734591Y868939D01*
X732707Y867493D01*
X731261Y865609D01*
X730352Y863415D01*
X730042Y861060D01*
X730352Y858705D01*
X731261Y856511D01*
X732707Y854627D01*
X734591Y853181D01*
X736785Y852272D01*
X739140Y851962D01*
X741495Y852272D01*
X743689Y853181D01*
X745573Y854627D01*
X747019Y856511D01*
X747928Y858705D01*
X748238Y861060D01*
X747928Y863415D01*
X747019Y865609D01*
X745573Y867493D01*
X743689Y868939D01*
X741495Y869848D01*
X739140Y870158D01*
D02*
G37*
G36*
X848360Y858672D02*
Y849630D01*
X857402D01*
X857213Y851072D01*
X856166Y853600D01*
X854500Y855770D01*
X852330Y857436D01*
X849802Y858483D01*
X848360Y858672D01*
D02*
G37*
G36*
X764900Y866908D02*
X762535Y866597D01*
X760331Y865684D01*
X758438Y864232D01*
X756986Y862339D01*
X756073Y860135D01*
X755762Y857770D01*
X756073Y855405D01*
X756986Y853201D01*
X758438Y851308D01*
X760331Y849856D01*
X762535Y848943D01*
X764900Y848632D01*
X767265Y848943D01*
X769469Y849856D01*
X771362Y851308D01*
X772814Y853201D01*
X773727Y855405D01*
X774038Y857770D01*
X773727Y860135D01*
X772814Y862339D01*
X771362Y864232D01*
X769469Y865684D01*
X767265Y866597D01*
X764900Y866908D01*
D02*
G37*
G36*
X819900Y856500D02*
X811170D01*
Y847770D01*
X812531Y847950D01*
X814984Y848965D01*
X817089Y850581D01*
X818705Y852686D01*
X819721Y855139D01*
X819900Y856500D01*
D02*
G37*
G36*
X808630D02*
X799900D01*
X800079Y855139D01*
X801095Y852686D01*
X802711Y850581D01*
X804817Y848965D01*
X807269Y847950D01*
X808630Y847770D01*
Y856500D01*
D02*
G37*
G36*
X857402Y847090D02*
X848360D01*
Y838047D01*
X849802Y838237D01*
X852330Y839284D01*
X854500Y840950D01*
X856166Y843120D01*
X857213Y845648D01*
X857402Y847090D01*
D02*
G37*
G36*
X740410Y845619D02*
Y836930D01*
X749099D01*
X748922Y838281D01*
X747910Y840723D01*
X746301Y842821D01*
X744203Y844430D01*
X741761Y845442D01*
X740410Y845619D01*
D02*
G37*
G36*
X737870D02*
X736519Y845442D01*
X734077Y844430D01*
X731979Y842821D01*
X730370Y840723D01*
X729358Y838281D01*
X729181Y836930D01*
X737870D01*
Y845619D01*
D02*
G37*
G36*
X749099Y834390D02*
X740410D01*
Y825701D01*
X741761Y825878D01*
X744203Y826890D01*
X746301Y828499D01*
X747910Y830597D01*
X748922Y833039D01*
X749099Y834390D01*
D02*
G37*
G36*
X737870D02*
X729181D01*
X729358Y833039D01*
X730370Y830597D01*
X731979Y828499D01*
X734077Y826890D01*
X736519Y825878D01*
X737870Y825701D01*
Y834390D01*
D02*
G37*
G36*
X358090Y839800D02*
X340550D01*
Y822260D01*
X358090D01*
Y839800D01*
D02*
G37*
G36*
X427320Y839876D02*
X425031Y839574D01*
X422897Y838690D01*
X421065Y837285D01*
X419660Y835453D01*
X418776Y833319D01*
X418474Y831030D01*
X418776Y828741D01*
X419660Y826607D01*
X421065Y824775D01*
X422897Y823370D01*
X425031Y822486D01*
X427320Y822184D01*
X429609Y822486D01*
X431743Y823370D01*
X433575Y824775D01*
X434981Y826607D01*
X435864Y828741D01*
X436166Y831030D01*
X435864Y833319D01*
X434981Y835453D01*
X433575Y837285D01*
X431743Y838690D01*
X429609Y839574D01*
X427320Y839876D01*
D02*
G37*
G36*
X739140Y819358D02*
X736785Y819048D01*
X734591Y818139D01*
X732707Y816693D01*
X731261Y814809D01*
X730352Y812615D01*
X730042Y810260D01*
X730352Y807905D01*
X731261Y805711D01*
X732707Y803827D01*
X734591Y802381D01*
X736785Y801472D01*
X739140Y801162D01*
X741495Y801472D01*
X743689Y802381D01*
X745573Y803827D01*
X747019Y805711D01*
X747928Y807905D01*
X748238Y810260D01*
X747928Y812615D01*
X747019Y814809D01*
X745573Y816693D01*
X743689Y818139D01*
X741495Y819048D01*
X739140Y819358D01*
D02*
G37*
G36*
X659130Y793443D02*
X656906Y793151D01*
X654833Y792292D01*
X653054Y790927D01*
X651688Y789147D01*
X650829Y787074D01*
X650537Y784850D01*
X650829Y782626D01*
X651688Y780553D01*
X653054Y778773D01*
X654833Y777408D01*
X656906Y776549D01*
X659130Y776257D01*
X661354Y776549D01*
X663427Y777408D01*
X665207Y778773D01*
X666572Y780553D01*
X667431Y782626D01*
X667723Y784850D01*
X667431Y787074D01*
X666572Y789147D01*
X665207Y790927D01*
X663427Y792292D01*
X661354Y793151D01*
X659130Y793443D01*
D02*
G37*
G36*
X589130D02*
X586906Y793151D01*
X584833Y792292D01*
X583054Y790927D01*
X581688Y789147D01*
X580829Y787074D01*
X580537Y784850D01*
X580829Y782626D01*
X581688Y780553D01*
X583054Y778773D01*
X584833Y777408D01*
X586906Y776549D01*
X589130Y776257D01*
X591354Y776549D01*
X593427Y777408D01*
X595206Y778773D01*
X596572Y780553D01*
X597431Y782626D01*
X597723Y784850D01*
X597431Y787074D01*
X596572Y789147D01*
X595206Y790927D01*
X593427Y792292D01*
X591354Y793151D01*
X589130Y793443D01*
D02*
G37*
G36*
X739140Y793958D02*
X736785Y793648D01*
X734591Y792739D01*
X732707Y791293D01*
X731261Y789409D01*
X730352Y787215D01*
X730042Y784860D01*
X730352Y782505D01*
X731261Y780311D01*
X732707Y778427D01*
X734591Y776981D01*
X736785Y776072D01*
X739140Y775762D01*
X741495Y776072D01*
X743689Y776981D01*
X745573Y778427D01*
X747019Y780311D01*
X747928Y782505D01*
X748238Y784860D01*
X747928Y787215D01*
X747019Y789409D01*
X745573Y791293D01*
X743689Y792739D01*
X741495Y793648D01*
X739140Y793958D01*
D02*
G37*
G36*
X777240Y780849D02*
Y772160D01*
X785929D01*
X785752Y773511D01*
X784740Y775953D01*
X783131Y778051D01*
X781033Y779660D01*
X778591Y780672D01*
X777240Y780849D01*
D02*
G37*
G36*
X774700D02*
X773349Y780672D01*
X770907Y779660D01*
X768809Y778051D01*
X767200Y775953D01*
X766188Y773511D01*
X766011Y772160D01*
X774700D01*
Y780849D01*
D02*
G37*
G36*
X330200Y774604D02*
Y767080D01*
X337724D01*
X337586Y768130D01*
X336691Y770291D01*
X335267Y772147D01*
X333411Y773571D01*
X331250Y774466D01*
X330200Y774604D01*
D02*
G37*
G36*
X327660D02*
X326610Y774466D01*
X324449Y773571D01*
X322593Y772147D01*
X321169Y770291D01*
X320274Y768130D01*
X320136Y767080D01*
X327660D01*
Y774604D01*
D02*
G37*
G36*
X785929Y769620D02*
X777240D01*
Y760931D01*
X778591Y761108D01*
X781033Y762120D01*
X783131Y763729D01*
X784740Y765827D01*
X785752Y768269D01*
X785929Y769620D01*
D02*
G37*
G36*
X774700D02*
X766011D01*
X766188Y768269D01*
X767200Y765827D01*
X768809Y763729D01*
X770907Y762120D01*
X773349Y761108D01*
X774700Y760931D01*
Y769620D01*
D02*
G37*
G36*
X303530Y773743D02*
X301477Y773473D01*
X299564Y772680D01*
X297921Y771419D01*
X296660Y769776D01*
X295868Y767863D01*
X295597Y765810D01*
X295868Y763757D01*
X296660Y761844D01*
X297921Y760201D01*
X299564Y758940D01*
X301477Y758148D01*
X303530Y757877D01*
X305583Y758148D01*
X307496Y758940D01*
X309139Y760201D01*
X310400Y761844D01*
X311192Y763757D01*
X311463Y765810D01*
X311192Y767863D01*
X310400Y769776D01*
X309139Y771419D01*
X307496Y772680D01*
X305583Y773473D01*
X303530Y773743D01*
D02*
G37*
G36*
X278130D02*
X276077Y773473D01*
X274164Y772680D01*
X272521Y771419D01*
X271260Y769776D01*
X270467Y767863D01*
X270197Y765810D01*
X270467Y763757D01*
X271260Y761844D01*
X272521Y760201D01*
X274164Y758940D01*
X276077Y758148D01*
X278130Y757877D01*
X280183Y758148D01*
X282096Y758940D01*
X283739Y760201D01*
X285000Y761844D01*
X285793Y763757D01*
X286063Y765810D01*
X285793Y767863D01*
X285000Y769776D01*
X283739Y771419D01*
X282096Y772680D01*
X280183Y773473D01*
X278130Y773743D01*
D02*
G37*
G36*
X337724Y764540D02*
X330200D01*
Y757016D01*
X331250Y757154D01*
X333411Y758049D01*
X335267Y759473D01*
X336691Y761329D01*
X337586Y763491D01*
X337724Y764540D01*
D02*
G37*
G36*
X327660D02*
X320136D01*
X320274Y763491D01*
X321169Y761329D01*
X322593Y759473D01*
X324449Y758049D01*
X326610Y757154D01*
X327660Y757016D01*
Y764540D01*
D02*
G37*
G36*
X414080Y769750D02*
X396040D01*
Y751710D01*
X414080D01*
Y769750D01*
D02*
G37*
G36*
X684530Y1062038D02*
X682476Y1061767D01*
X680561Y1060974D01*
X678917Y1059713D01*
X677656Y1058069D01*
X676863Y1056154D01*
X676592Y1054100D01*
X676863Y1052046D01*
X677656Y1050131D01*
X678917Y1048487D01*
X680561Y1047226D01*
X681685Y1046760D01*
Y814070D01*
X681902Y812981D01*
X682519Y812059D01*
X731058Y763519D01*
X730352Y761815D01*
X730042Y759460D01*
X730352Y757105D01*
X731261Y754911D01*
X732707Y753027D01*
X734591Y751581D01*
X736785Y750672D01*
X739140Y750362D01*
X741495Y750672D01*
X743689Y751581D01*
X745573Y753027D01*
X747019Y754911D01*
X747928Y757105D01*
X748238Y759460D01*
X747928Y761815D01*
X747019Y764009D01*
X745573Y765893D01*
X743689Y767339D01*
X741495Y768248D01*
X739140Y768558D01*
X736785Y768248D01*
X735081Y767542D01*
X687375Y815248D01*
Y1046760D01*
X688499Y1047226D01*
X690143Y1048487D01*
X691404Y1050131D01*
X692197Y1052046D01*
X692468Y1054100D01*
X692197Y1056154D01*
X691404Y1058069D01*
X690143Y1059713D01*
X688499Y1060974D01*
X686584Y1061767D01*
X684530Y1062038D01*
D02*
G37*
G36*
X812800Y758751D02*
X810354Y758429D01*
X808075Y757485D01*
X806117Y755983D01*
X804615Y754025D01*
X803671Y751746D01*
X803349Y749300D01*
X803671Y746854D01*
X804615Y744575D01*
X806117Y742617D01*
X808075Y741115D01*
X810354Y740171D01*
X812800Y739849D01*
X815246Y740171D01*
X817525Y741115D01*
X819483Y742617D01*
X820985Y744575D01*
X821929Y746854D01*
X822251Y749300D01*
X821929Y751746D01*
X820985Y754025D01*
X819483Y755983D01*
X817525Y757485D01*
X815246Y758429D01*
X812800Y758751D01*
D02*
G37*
G36*
X635000Y824548D02*
X632946Y824277D01*
X631031Y823484D01*
X629387Y822223D01*
X628126Y820579D01*
X627333Y818664D01*
X627062Y816610D01*
X627333Y814556D01*
X628126Y812641D01*
X629387Y810997D01*
X631031Y809736D01*
X632946Y808943D01*
X635000Y808672D01*
X637054Y808943D01*
X638969Y809736D01*
X640613Y810997D01*
X641874Y812641D01*
X642340Y813765D01*
X652872D01*
X694385Y772252D01*
Y752830D01*
X693261Y752364D01*
X691617Y751103D01*
X690356Y749459D01*
X689563Y747544D01*
X689292Y745490D01*
X689563Y743436D01*
X690356Y741521D01*
X691617Y739877D01*
X693261Y738616D01*
X695175Y737823D01*
X697230Y737552D01*
X699285Y737823D01*
X701199Y738616D01*
X702843Y739877D01*
X704104Y741521D01*
X704897Y743436D01*
X705168Y745490D01*
X704897Y747544D01*
X704104Y749459D01*
X702843Y751103D01*
X701199Y752364D01*
X700075Y752830D01*
Y773430D01*
X699858Y774519D01*
X699241Y775441D01*
X656061Y818621D01*
X655139Y819238D01*
X654050Y819455D01*
X642340D01*
X641874Y820579D01*
X640613Y822223D01*
X638969Y823484D01*
X637054Y824277D01*
X635000Y824548D01*
D02*
G37*
G36*
X848360Y754588D02*
X846005Y754278D01*
X843811Y753369D01*
X841927Y751923D01*
X840481Y750039D01*
X839572Y747845D01*
X839262Y745490D01*
X839572Y743135D01*
X840481Y740941D01*
X841927Y739057D01*
X843811Y737611D01*
X846005Y736702D01*
X848360Y736392D01*
X850715Y736702D01*
X852909Y737611D01*
X854793Y739057D01*
X856239Y740941D01*
X857148Y743135D01*
X857458Y745490D01*
X857148Y747845D01*
X856239Y750039D01*
X854793Y751923D01*
X852909Y753369D01*
X850715Y754278D01*
X848360Y754588D01*
D02*
G37*
G36*
X775970D02*
X773615Y754278D01*
X771421Y753369D01*
X769537Y751923D01*
X768091Y750039D01*
X767182Y747845D01*
X766872Y745490D01*
X767182Y743135D01*
X768091Y740941D01*
X769537Y739057D01*
X771421Y737611D01*
X773615Y736702D01*
X775970Y736392D01*
X778325Y736702D01*
X780519Y737611D01*
X782403Y739057D01*
X783849Y740941D01*
X784758Y743135D01*
X785068Y745490D01*
X784758Y747845D01*
X783849Y750039D01*
X782403Y751923D01*
X780519Y753369D01*
X778325Y754278D01*
X775970Y754588D01*
D02*
G37*
G36*
X849630Y730049D02*
Y721360D01*
X858319D01*
X858142Y722711D01*
X857130Y725153D01*
X855521Y727251D01*
X853423Y728860D01*
X850981Y729872D01*
X849630Y730049D01*
D02*
G37*
G36*
X847090D02*
X845739Y729872D01*
X843297Y728860D01*
X841199Y727251D01*
X839590Y725153D01*
X838578Y722711D01*
X838401Y721360D01*
X847090D01*
Y730049D01*
D02*
G37*
G36*
X775970Y729188D02*
X773615Y728878D01*
X771421Y727969D01*
X769537Y726523D01*
X768091Y724639D01*
X767182Y722445D01*
X766872Y720090D01*
X767182Y717735D01*
X768091Y715541D01*
X769537Y713657D01*
X771421Y712211D01*
X773615Y711302D01*
X775970Y710992D01*
X778325Y711302D01*
X780519Y712211D01*
X782403Y713657D01*
X783849Y715541D01*
X784758Y717735D01*
X785068Y720090D01*
X784758Y722445D01*
X783849Y724639D01*
X782403Y726523D01*
X780519Y727969D01*
X778325Y728878D01*
X775970Y729188D01*
D02*
G37*
G36*
X858319Y718820D02*
X849630D01*
Y710131D01*
X850981Y710308D01*
X853423Y711320D01*
X855521Y712929D01*
X857130Y715027D01*
X858142Y717469D01*
X858319Y718820D01*
D02*
G37*
G36*
X847090D02*
X838401D01*
X838578Y717469D01*
X839590Y715027D01*
X841199Y712929D01*
X843297Y711320D01*
X845739Y710308D01*
X847090Y710131D01*
Y718820D01*
D02*
G37*
G36*
X659130Y713443D02*
X656906Y713151D01*
X654833Y712292D01*
X653054Y710927D01*
X651688Y709147D01*
X650829Y707074D01*
X650537Y704850D01*
X650829Y702626D01*
X651688Y700553D01*
X653054Y698773D01*
X654833Y697408D01*
X656906Y696549D01*
X659130Y696257D01*
X661354Y696549D01*
X663427Y697408D01*
X665207Y698773D01*
X666572Y700553D01*
X667431Y702626D01*
X667723Y704850D01*
X667431Y707074D01*
X666572Y709147D01*
X665207Y710927D01*
X663427Y712292D01*
X661354Y713151D01*
X659130Y713443D01*
D02*
G37*
G36*
X589130D02*
X586906Y713151D01*
X584833Y712292D01*
X583054Y710927D01*
X581688Y709147D01*
X580829Y707074D01*
X580537Y704850D01*
X580829Y702626D01*
X581688Y700553D01*
X583054Y698773D01*
X584833Y697408D01*
X586906Y696549D01*
X589130Y696257D01*
X591354Y696549D01*
X593427Y697408D01*
X595206Y698773D01*
X596572Y700553D01*
X597431Y702626D01*
X597723Y704850D01*
X597431Y707074D01*
X596572Y709147D01*
X595206Y710927D01*
X593427Y712292D01*
X591354Y713151D01*
X589130Y713443D01*
D02*
G37*
G36*
X857380Y703710D02*
X839340D01*
Y685670D01*
X857380D01*
Y703710D01*
D02*
G37*
G36*
X784990D02*
X766950D01*
Y685670D01*
X784990D01*
Y703710D01*
D02*
G37*
G36*
X812800Y702871D02*
X810354Y702549D01*
X808075Y701605D01*
X806117Y700103D01*
X804615Y698145D01*
X803671Y695866D01*
X803349Y693420D01*
X803671Y690974D01*
X804615Y688695D01*
X806117Y686737D01*
X808075Y685235D01*
X810354Y684291D01*
X812800Y683969D01*
X815246Y684291D01*
X817525Y685235D01*
X819483Y686737D01*
X820985Y688695D01*
X821929Y690974D01*
X822251Y693420D01*
X821929Y695866D01*
X820985Y698145D01*
X819483Y700103D01*
X817525Y701605D01*
X815246Y702549D01*
X812800Y702871D01*
D02*
G37*
G36*
X519430Y690679D02*
Y681990D01*
X528119D01*
X527942Y683341D01*
X526930Y685783D01*
X525321Y687881D01*
X523223Y689490D01*
X520781Y690502D01*
X519430Y690679D01*
D02*
G37*
G36*
X293730Y692510D02*
X272690D01*
Y671470D01*
X293730D01*
Y692510D01*
D02*
G37*
G36*
X447040Y692601D02*
X444294Y692239D01*
X441735Y691179D01*
X439537Y689493D01*
X437851Y687295D01*
X436791Y684736D01*
X436429Y681990D01*
X436791Y679244D01*
X437851Y676685D01*
X439537Y674487D01*
X441735Y672801D01*
X444294Y671741D01*
X447040Y671379D01*
X449786Y671741D01*
X452345Y672801D01*
X454543Y674487D01*
X456229Y676685D01*
X457289Y679244D01*
X457651Y681990D01*
X457289Y684736D01*
X456229Y687295D01*
X454543Y689493D01*
X452345Y691179D01*
X449786Y692239D01*
X447040Y692601D01*
D02*
G37*
G36*
X334010D02*
X331264Y692239D01*
X328705Y691179D01*
X326507Y689493D01*
X324821Y687295D01*
X323761Y684736D01*
X323399Y681990D01*
X323761Y679244D01*
X324821Y676685D01*
X326507Y674487D01*
X328705Y672801D01*
X331264Y671741D01*
X334010Y671379D01*
X336756Y671741D01*
X339315Y672801D01*
X341513Y674487D01*
X343199Y676685D01*
X344259Y679244D01*
X344621Y681990D01*
X344259Y684736D01*
X343199Y687295D01*
X341513Y689493D01*
X339315Y691179D01*
X336756Y692239D01*
X334010Y692601D01*
D02*
G37*
G36*
X528119Y679450D02*
X519430D01*
Y670761D01*
X520781Y670938D01*
X523223Y671950D01*
X525321Y673559D01*
X526930Y675657D01*
X527942Y678099D01*
X528119Y679450D01*
D02*
G37*
G36*
X516890D02*
X508201D01*
X508378Y678099D01*
X509390Y675657D01*
X510999Y673559D01*
X513097Y671950D01*
X515539Y670938D01*
X516890Y670761D01*
Y679450D01*
D02*
G37*
%LPD*%
G36*
X690530Y1203020D02*
X678530D01*
Y1209020D01*
X684530Y1215020D01*
X690530D01*
Y1203020D01*
D02*
G37*
G36*
X589465Y1135482D02*
X591820Y1135172D01*
X593655Y1135414D01*
X594248Y1134211D01*
X589809Y1129771D01*
X589192Y1128849D01*
X588975Y1127760D01*
Y1127455D01*
X587271Y1126749D01*
X585387Y1125303D01*
X583941Y1123419D01*
X583032Y1121225D01*
X582722Y1118870D01*
X583032Y1116515D01*
X583941Y1114321D01*
X585387Y1112437D01*
X587271Y1110991D01*
X589465Y1110082D01*
X591820Y1109772D01*
X593655Y1110014D01*
X594248Y1108811D01*
X589809Y1104371D01*
X589192Y1103449D01*
X588975Y1102360D01*
Y1102055D01*
X587271Y1101349D01*
X585387Y1099903D01*
X583941Y1098019D01*
X583032Y1095825D01*
X582722Y1093470D01*
X583032Y1091115D01*
X583738Y1089411D01*
X575518Y1081191D01*
X574345Y1081677D01*
Y1122772D01*
X587761Y1136188D01*
X589465Y1135482D01*
D02*
G37*
G36*
X638196Y1075743D02*
Y1060049D01*
X630169Y1052022D01*
X628465Y1052728D01*
X626110Y1053038D01*
X623755Y1052728D01*
X621561Y1051819D01*
X619935Y1050571D01*
X618665Y1050966D01*
Y1062314D01*
X619935Y1062709D01*
X621561Y1061461D01*
X623755Y1060552D01*
X626110Y1060242D01*
X628465Y1060552D01*
X630659Y1061461D01*
X632543Y1062907D01*
X633989Y1064791D01*
X634898Y1066985D01*
X635208Y1069340D01*
X634898Y1071695D01*
X634192Y1073399D01*
X637022Y1076229D01*
X638196Y1075743D01*
D02*
G37*
G36*
X642255Y1054403D02*
Y1038708D01*
X630169Y1026622D01*
X628465Y1027328D01*
X626110Y1027638D01*
X623755Y1027328D01*
X621561Y1026419D01*
X619935Y1025171D01*
X618665Y1025566D01*
Y1036914D01*
X619935Y1037309D01*
X621561Y1036061D01*
X623755Y1035152D01*
X626110Y1034842D01*
X628465Y1035152D01*
X630659Y1036061D01*
X632543Y1037507D01*
X633989Y1039391D01*
X634898Y1041585D01*
X635208Y1043940D01*
X634898Y1046295D01*
X634192Y1047999D01*
X641082Y1054889D01*
X642255Y1054403D01*
D02*
G37*
G36*
X646315Y1033063D02*
Y1017368D01*
X630169Y1001222D01*
X628465Y1001928D01*
X626110Y1002238D01*
X623755Y1001928D01*
X621561Y1001019D01*
X619935Y999771D01*
X618665Y1000166D01*
Y1011514D01*
X619935Y1011909D01*
X621561Y1010661D01*
X623755Y1009752D01*
X626110Y1009442D01*
X628465Y1009752D01*
X630659Y1010661D01*
X632543Y1012107D01*
X633989Y1013991D01*
X634898Y1016185D01*
X635208Y1018540D01*
X634898Y1020895D01*
X634192Y1022599D01*
X645142Y1033549D01*
X646315Y1033063D01*
D02*
G37*
G36*
X606755Y931002D02*
Y918827D01*
X605485Y918744D01*
X605333Y919902D01*
X604190Y922661D01*
X602371Y925031D01*
X600001Y926850D01*
X597242Y927993D01*
X594280Y928383D01*
X591318Y927993D01*
X588559Y926850D01*
X586189Y925031D01*
X584370Y922661D01*
X583870Y921453D01*
X582600Y921705D01*
Y934085D01*
X582383Y935174D01*
X581766Y936096D01*
X574345Y943518D01*
Y961753D01*
X575518Y962239D01*
X606755Y931002D01*
D02*
G37*
D15*
X694440Y1239770D02*
X699770Y1234440D01*
X650490Y1239770D02*
X694440D01*
X636650Y1184020D02*
X680720Y1228090D01*
Y1230630D01*
X631030Y1184020D02*
X636650D01*
X660400Y1217930D02*
Y1229360D01*
X634990Y1192520D02*
X660400Y1217930D01*
X631030Y1192520D02*
X634990D01*
X637390Y1226670D02*
X650490Y1239770D01*
X660400Y1229360D02*
X660400Y1229360D01*
X486410Y1257300D02*
X510955Y1232755D01*
X538895D01*
X558338Y1187912D02*
X559262D01*
X378710Y1279140D02*
X569262D01*
X359410Y1283970D02*
X572770D01*
X760530Y1262520D02*
X771030D01*
X717530Y1176020D02*
X739120Y1154430D01*
X755650D01*
X762250Y1131300D02*
X771030Y1122520D01*
X762250Y1131300D02*
Y1147830D01*
X755650Y1154430D02*
X762250Y1147830D01*
X615820Y962790D02*
X669290Y909320D01*
X615820Y962790D02*
Y1120010D01*
X618330Y1122520D02*
X631030D01*
X615820Y1120010D02*
X618330Y1122520D01*
X591820Y1127760D02*
X622580Y1158520D01*
X591820Y1118870D02*
Y1127760D01*
X622580Y1158520D02*
X631030D01*
X571500Y1123950D02*
X591820Y1144270D01*
X571500Y942340D02*
Y1123950D01*
Y942340D02*
X579755Y934085D01*
X602110Y1130430D02*
X621700Y1150020D01*
X602110Y1112650D02*
Y1130430D01*
X621700Y1150020D02*
X631030D01*
X606170Y1126870D02*
X620820Y1141520D01*
X606170Y1093268D02*
Y1126870D01*
X620820Y1141520D02*
X631030D01*
X610230Y1124580D02*
X618670Y1133020D01*
X610230Y1071928D02*
Y1124580D01*
X618670Y1133020D02*
X631030D01*
X591820Y1078918D02*
X606170Y1093268D01*
X591820Y1053518D02*
X610230Y1071928D01*
X591820Y1102360D02*
X602110Y1112650D01*
X591820Y1144270D02*
X623070Y1175520D01*
X631030D01*
X591820Y1068070D02*
Y1078918D01*
Y1042670D02*
Y1053518D01*
X659130Y1135380D02*
X666750D01*
X650030Y1126280D02*
X659130Y1135380D01*
X650030Y1122520D02*
Y1126280D01*
X868930Y1089910D02*
Y1274830D01*
X861060Y1082040D02*
X868930Y1089910D01*
X852170Y1082040D02*
X861060D01*
X859790Y1283970D02*
X868930Y1274830D01*
X824360Y848490D02*
Y966470D01*
X756920Y781050D02*
X824360Y848490D01*
X823350Y967480D02*
X824360Y966470D01*
X823350Y967480D02*
Y1112130D01*
X827410Y970248D02*
X829310Y968348D01*
Y847698D02*
Y968348D01*
X825500Y843888D02*
X829310Y847698D01*
X810260Y1150620D02*
X827410Y1133470D01*
Y970248D02*
Y1133470D01*
X834390Y847037D02*
Y969010D01*
X831470Y971930D02*
X834390Y969010D01*
X831470Y971930D02*
Y1194762D01*
X831850Y844497D02*
X834390Y847037D01*
X835530Y1050420D02*
X845820Y1040130D01*
X835530Y1186050D02*
X845820Y1196340D01*
X835530Y1050420D02*
Y1186050D01*
X814522Y1211710D02*
X831470Y1194762D01*
X810260Y1125220D02*
X823350Y1112130D01*
X831850Y843227D02*
Y844497D01*
X825500Y842618D02*
Y843888D01*
X760980Y778098D02*
X825500Y842618D01*
X831850Y843227D02*
X831850D01*
Y787400D02*
Y843227D01*
Y787400D02*
X848360Y770890D01*
X788670Y1211580D02*
X788800Y1211710D01*
X814522D01*
X810260Y1283970D02*
X859790D01*
X797560Y1271270D02*
X810260Y1283970D01*
X658530Y1262520D02*
X667030D01*
X650030D02*
X658530D01*
X641530D02*
X650030D01*
X631030D02*
X641530D01*
X701030Y1192520D02*
Y1209020D01*
X684530Y1192520D02*
X701030D01*
X684530Y1209020D02*
X701030D01*
X631030Y1167020D02*
X633030D01*
X645370Y1154680D01*
Y1141520D02*
Y1154680D01*
Y1141520D02*
X646430Y1140460D01*
X576580Y1151890D02*
Y1179830D01*
X476250Y1051560D02*
X576580Y1151890D01*
X382270Y1051560D02*
X476250D01*
X606170Y1184020D02*
X631030D01*
X591820Y1169670D02*
X606170Y1184020D01*
X400050Y875030D02*
X514940D01*
X373130Y901950D02*
X400050Y875030D01*
X373130Y901950D02*
Y1064010D01*
X401320Y1092200D01*
X538895Y1232755D02*
X558800Y1212850D01*
X563750Y1273940D02*
X569090Y1268600D01*
Y1197740D02*
Y1268600D01*
X559262Y1187912D02*
X569090Y1197740D01*
X530860Y1270000D02*
X534800Y1273940D01*
X563750D01*
X500790Y1256440D02*
X502620D01*
X590550Y817880D02*
Y820420D01*
X579755Y831215D02*
X590550Y820420D01*
X654050Y816610D02*
X697230Y773430D01*
X635000Y816610D02*
X654050D01*
X579755Y831215D02*
Y934085D01*
X697230Y745490D02*
Y773430D01*
X609600Y787400D02*
X713740Y683260D01*
X576330Y965450D02*
X609600Y932180D01*
Y787400D02*
Y932180D01*
X739140Y708660D02*
X760980Y730500D01*
Y778098D02*
X760980Y778098D01*
X760980Y730500D02*
Y778098D01*
X756920Y751840D02*
Y781050D01*
X739140Y734060D02*
X756920Y751840D01*
X631180Y1226670D02*
X637390D01*
X848360Y1257300D02*
Y1271270D01*
X828170Y1237110D02*
X848360Y1257300D01*
X792120Y1237110D02*
X828170D01*
X647690Y1249680D02*
X655320D01*
X633030Y1235020D02*
X647690Y1249680D01*
X631030Y1226520D02*
X631180Y1226670D01*
X752030Y1136650D02*
X753110D01*
X751935Y1136555D02*
X752030Y1136650D01*
X684530Y814070D02*
Y1054100D01*
Y814070D02*
X739140Y759460D01*
X649160Y1016190D02*
Y1094150D01*
X626110Y993140D02*
X649160Y1016190D01*
X645100Y1037530D02*
Y1098590D01*
X626110Y1018540D02*
X645100Y1037530D01*
X680720Y1073150D02*
X688922D01*
X707260Y1070740D02*
Y1120250D01*
X576330Y1077980D02*
X591820Y1093470D01*
X576330Y965450D02*
Y1077980D01*
X713740Y683260D02*
X739140D01*
X704490Y988580D02*
Y1053580D01*
X794000Y1243580D02*
X822325Y1271905D01*
X784129Y1243580D02*
X794000D01*
X778310Y1252020D02*
X797560Y1271270D01*
X771030Y1252020D02*
X778310D01*
X773030Y1218020D02*
X792120Y1237110D01*
X452120Y994410D02*
Y1032510D01*
Y994410D02*
X462280Y984250D01*
X799970Y1135510D02*
X810260Y1125220D01*
X569262Y1279140D02*
X575060Y1273342D01*
X346710Y1247140D02*
X378710Y1279140D01*
X572770Y1283970D02*
X579120Y1277620D01*
X322580Y1247140D02*
X359410Y1283970D01*
X575060Y1211830D02*
Y1273342D01*
Y1211830D02*
X591820Y1195070D01*
X322580Y1164590D02*
Y1247140D01*
X579120Y1233170D02*
Y1277620D01*
Y1233170D02*
X591820Y1220470D01*
X447040D02*
X455930Y1229360D01*
X480060Y760730D02*
X554920Y835590D01*
Y863600D01*
X563880Y745490D02*
Y916940D01*
X499110Y680720D02*
X563880Y745490D01*
X492760Y680720D02*
X499110D01*
X419100Y681990D02*
X480060Y742950D01*
X396240Y681990D02*
X419100D01*
X480060Y742950D02*
Y760730D01*
X447040Y1137920D02*
Y1165860D01*
X401320Y1092200D02*
X447040Y1137920D01*
X486410Y1184910D02*
X535940D01*
X558800Y1162050D01*
X447040Y1165860D02*
Y1220470D01*
X707260Y1070740D02*
X707390Y1070610D01*
X688922Y1073150D02*
X702440Y1086668D01*
X701030Y1122520D02*
X702440Y1121110D01*
Y1086668D02*
Y1121110D01*
X707260Y1120250D02*
X709530Y1122520D01*
X751935Y1122615D02*
X752030Y1122520D01*
X751935Y1122615D02*
Y1136555D01*
X743530Y1122520D02*
Y1128450D01*
X734060Y1137920D02*
X743530Y1128450D01*
X718030Y1122520D02*
Y1130799D01*
X710991Y1137838D02*
X718030Y1130799D01*
X710991Y1137838D02*
Y1138129D01*
X591820Y1260422D02*
X604520Y1247722D01*
Y1236980D02*
Y1247722D01*
X631030Y1235020D02*
X633030D01*
X641530Y1120520D02*
Y1122520D01*
X633711Y1112701D02*
X641530Y1120520D01*
X633199Y1112701D02*
X633711D01*
X626110Y1105612D02*
X633199Y1112701D01*
X626110Y1094740D02*
Y1105612D01*
X650030Y1120520D02*
Y1122520D01*
X636980Y1107470D02*
X650030Y1120520D01*
X636980Y1080210D02*
Y1107470D01*
X626110Y1069340D02*
X636980Y1080210D01*
X641040Y1103030D02*
X658530Y1120520D01*
X641040Y1058870D02*
Y1103030D01*
X626110Y1043940D02*
X641040Y1058870D01*
X658530Y1120520D02*
Y1122520D01*
X667030Y1120520D02*
Y1122520D01*
X645100Y1098590D02*
X667030Y1120520D01*
X649160Y1094150D02*
X675530Y1120520D01*
Y1122520D01*
X684030Y1108210D02*
Y1122520D01*
X666750Y1090930D02*
X684030Y1108210D01*
X692340Y1122330D02*
X692530Y1122520D01*
X692340Y1091120D02*
Y1122330D01*
X692150Y1090930D02*
X692340Y1091120D01*
X726530Y1099910D02*
Y1122520D01*
X717550Y1090930D02*
X726530Y1099910D01*
X735030Y1099005D02*
Y1122520D01*
Y1099005D02*
X742950Y1091085D01*
Y1090930D02*
Y1091085D01*
X760530Y1099105D02*
Y1122520D01*
Y1099105D02*
X768350Y1091285D01*
Y1090930D02*
Y1091285D01*
X779670Y1059048D02*
X791210Y1047509D01*
Y1017270D02*
Y1047509D01*
Y1017270D02*
X810260Y998220D01*
X783730Y1060730D02*
X797560Y1046900D01*
Y1036320D02*
Y1046900D01*
Y1036320D02*
X810260Y1023620D01*
X799970Y1135510D02*
Y1163450D01*
X795910Y1114170D02*
X810260Y1099820D01*
X795910Y1114170D02*
Y1161160D01*
X791850Y1092830D02*
X810260Y1074420D01*
X791850Y1092830D02*
Y1152520D01*
X787790Y1071490D02*
X810260Y1049020D01*
X787790Y1071490D02*
Y1145150D01*
X783730Y1060730D02*
Y1137780D01*
X771030Y1133020D02*
X773030D01*
X779670Y1126380D01*
Y1059048D02*
Y1126380D01*
X779990Y1141520D02*
X783730Y1137780D01*
X771030Y1141520D02*
X779990D01*
X782920Y1150020D02*
X787790Y1145150D01*
X771030Y1150020D02*
X782920D01*
X785850Y1158520D02*
X791850Y1152520D01*
X790050Y1167020D02*
X795910Y1161160D01*
X771030Y1158520D02*
X785850D01*
X771030Y1167020D02*
X790050D01*
X787900Y1175520D02*
X799970Y1163450D01*
X771030Y1175520D02*
X787900D01*
X810260Y1150620D02*
Y1160780D01*
X787020Y1184020D02*
X810260Y1160780D01*
X771030Y1184020D02*
X787020D01*
X793760Y1192520D02*
X810260Y1176020D01*
X771030Y1192520D02*
X793760D01*
X810060Y1201220D02*
X810260Y1201420D01*
X771230Y1201220D02*
X810060D01*
X771030Y1201020D02*
X771230Y1201220D01*
X790330Y1226820D02*
X810260D01*
X773030Y1209520D02*
X790330Y1226820D01*
X771030Y1209520D02*
X773030D01*
X784069Y1243520D02*
X784129Y1243580D01*
X771030Y1243520D02*
X784069D01*
X771030Y1218020D02*
X773030D01*
X594370Y1192520D02*
X631030D01*
X591820Y1195070D02*
X594370Y1192520D01*
X602380Y1201020D02*
X631030D01*
X591820Y1211580D02*
X602380Y1201020D01*
X591820Y1211580D02*
Y1220470D01*
X604520Y1236980D02*
X623480Y1218020D01*
X631030D01*
X591820Y1260422D02*
Y1271270D01*
Y1235022D02*
X617322Y1209520D01*
X631030D01*
X591820Y1235022D02*
Y1245870D01*
Y1093470D02*
Y1102360D01*
D16*
X631030Y1262520D02*
D03*
Y1122520D02*
D03*
X771030Y1262520D02*
D03*
Y1122520D02*
D03*
D17*
X631030Y1252020D02*
D03*
Y1243520D02*
D03*
Y1235020D02*
D03*
Y1226520D02*
D03*
Y1218020D02*
D03*
Y1209520D02*
D03*
Y1201020D02*
D03*
Y1192520D02*
D03*
Y1184020D02*
D03*
Y1175520D02*
D03*
Y1167020D02*
D03*
Y1158520D02*
D03*
Y1150020D02*
D03*
Y1141520D02*
D03*
Y1133020D02*
D03*
X771030D02*
D03*
Y1141520D02*
D03*
Y1150020D02*
D03*
Y1158520D02*
D03*
Y1167020D02*
D03*
Y1175520D02*
D03*
Y1184020D02*
D03*
Y1192520D02*
D03*
Y1201020D02*
D03*
Y1209520D02*
D03*
Y1218020D02*
D03*
Y1226520D02*
D03*
Y1235020D02*
D03*
Y1243520D02*
D03*
Y1252020D02*
D03*
D18*
X641530Y1122520D02*
D03*
X650030D02*
D03*
X658530D02*
D03*
X667030D02*
D03*
X675530D02*
D03*
X684030D02*
D03*
X692530D02*
D03*
X701030D02*
D03*
X709530D02*
D03*
X718030D02*
D03*
X726530D02*
D03*
X735030D02*
D03*
X743530D02*
D03*
X752030D02*
D03*
X760530D02*
D03*
Y1262520D02*
D03*
X752030D02*
D03*
X743530D02*
D03*
X735030D02*
D03*
X726530D02*
D03*
X718030D02*
D03*
X709530D02*
D03*
X701030D02*
D03*
X692530D02*
D03*
X684030D02*
D03*
X675530D02*
D03*
X667030D02*
D03*
X658530D02*
D03*
X650030D02*
D03*
X641530D02*
D03*
D19*
X701030Y1192520D02*
D03*
Y1209020D02*
D03*
X717530D02*
D03*
Y1192520D02*
D03*
Y1176020D02*
D03*
X701030D02*
D03*
X684530D02*
D03*
Y1192520D02*
D03*
D26*
X812800Y749300D02*
D03*
Y693420D02*
D03*
X704850Y918210D02*
D03*
X847090Y848360D02*
D03*
X853440Y908050D02*
D03*
D35*
X502320Y1256030D02*
D03*
X274320D02*
D03*
X427320Y831030D02*
D03*
D36*
X349320D02*
D03*
D42*
X684530Y1209020D02*
D03*
D43*
X845820Y963930D02*
D03*
Y1120140D02*
D03*
X739140Y683260D02*
D03*
X775970Y694690D02*
D03*
X848360D02*
D03*
X560070Y1090930D02*
D03*
X669290Y909320D02*
D03*
X558800Y1162050D02*
D03*
X591820Y1271270D02*
D03*
X810260Y1226820D02*
D03*
X626110Y1094740D02*
D03*
D44*
X845820Y989330D02*
D03*
Y1014730D02*
D03*
Y1040130D02*
D03*
Y1145540D02*
D03*
Y1170940D02*
D03*
Y1196340D02*
D03*
X739140Y861060D02*
D03*
Y835660D02*
D03*
Y810260D02*
D03*
Y784860D02*
D03*
Y759460D02*
D03*
Y734060D02*
D03*
Y708660D02*
D03*
X775970Y720090D02*
D03*
Y745490D02*
D03*
Y770890D02*
D03*
X848360Y720090D02*
D03*
Y745490D02*
D03*
Y770890D02*
D03*
X788670Y953770D02*
D03*
X763270D02*
D03*
X737870D02*
D03*
X560070Y963930D02*
D03*
Y989330D02*
D03*
Y1014730D02*
D03*
Y1040130D02*
D03*
Y1065530D02*
D03*
X669290Y960120D02*
D03*
Y934720D02*
D03*
X558800Y1187450D02*
D03*
Y1212850D02*
D03*
Y1238250D02*
D03*
Y1263650D02*
D03*
X591820Y1245870D02*
D03*
Y1195070D02*
D03*
Y1169670D02*
D03*
Y1144270D02*
D03*
Y1118870D02*
D03*
Y1093470D02*
D03*
Y1068070D02*
D03*
Y1042670D02*
D03*
Y1220470D02*
D03*
X480060Y760730D02*
D03*
X822960Y1271270D02*
D03*
X848360D02*
D03*
X810260Y1176020D02*
D03*
Y998220D02*
D03*
Y1023620D02*
D03*
Y1049020D02*
D03*
Y1074420D02*
D03*
Y1099820D02*
D03*
Y1125220D02*
D03*
Y1150620D02*
D03*
Y1201420D02*
D03*
X768350Y1090930D02*
D03*
X742950D02*
D03*
X717550D02*
D03*
X692150D02*
D03*
X626110Y993140D02*
D03*
Y1018540D02*
D03*
Y1043940D02*
D03*
Y1069340D02*
D03*
X518160Y680720D02*
D03*
D45*
X814070Y953770D02*
D03*
X405060Y760730D02*
D03*
X797560Y1271270D02*
D03*
X666750Y1090930D02*
D03*
X492760Y680720D02*
D03*
D46*
X764900Y922770D02*
D03*
X730610Y1048500D02*
D03*
X659490Y1053580D02*
D03*
D47*
X764900Y857770D02*
D03*
X809900Y922770D02*
D03*
Y857770D02*
D03*
X730610Y983500D02*
D03*
X775610Y1048500D02*
D03*
Y983500D02*
D03*
X704490Y988580D02*
D03*
Y1053580D02*
D03*
X659490Y988580D02*
D03*
D48*
X563880Y916940D02*
D03*
X594280D02*
D03*
D49*
X624680D02*
D03*
D50*
X278130Y765810D02*
D03*
X303530D02*
D03*
X328930D02*
D03*
D51*
X659130Y704850D02*
D03*
X589130D02*
D03*
Y784850D02*
D03*
X659130D02*
D03*
D52*
X554920Y863600D02*
D03*
X704920D02*
D03*
D53*
X302940Y875030D02*
D03*
D54*
X514940D02*
D03*
D55*
X396240Y681990D02*
D03*
X283210D02*
D03*
D56*
X447040D02*
D03*
X334010D02*
D03*
D57*
X699770Y1234440D02*
D03*
X680720Y1230630D02*
D03*
X660400Y1229360D02*
D03*
X486410Y1257300D02*
D03*
X383540Y1236980D02*
D03*
X422910Y1173480D02*
D03*
X402590Y1127760D02*
D03*
X458470Y1153160D02*
D03*
X483870Y1146810D02*
D03*
X332740Y1073150D02*
D03*
X666750Y1135380D02*
D03*
X852170Y1082040D02*
D03*
X788670Y1211580D02*
D03*
X859790Y1207770D02*
D03*
X654510Y1155700D02*
D03*
X646430Y1140460D02*
D03*
X576580Y1179830D02*
D03*
X382270Y1051560D02*
D03*
X364490Y1234440D02*
D03*
X590550Y817880D02*
D03*
X635000Y816610D02*
D03*
X697230Y745490D02*
D03*
X655320Y1249680D02*
D03*
X753110Y1136650D02*
D03*
X684530Y1054100D02*
D03*
X680720Y1073150D02*
D03*
X585470Y970280D02*
D03*
X452120Y1032510D02*
D03*
X314960Y953770D02*
D03*
X462280Y984250D02*
D03*
X402590Y1013460D02*
D03*
X530860Y1270000D02*
D03*
X322580Y1164590D02*
D03*
X346710Y1247140D02*
D03*
X455930Y1229360D02*
D03*
X401320Y1092200D02*
D03*
X486410Y1184910D02*
D03*
X447040Y1165860D02*
D03*
X707390Y1070610D02*
D03*
X710991Y1138129D02*
D03*
X734060Y1137920D02*
D03*
M02*
