G04*
G04 #@! TF.GenerationSoftware,Altium Limited,Altium Designer,20.0.2 (26)*
G04*
G04 Layer_Color=16711935*
%FSLAX44Y44*%
%MOMM*%
G71*
G01*
G75*
%ADD11C,0.2000*%
D11*
X524141Y1160360D02*
Y1171360D01*
X502019Y1160360D02*
X524141D01*
X502019D02*
Y1171360D01*
X524141D01*
X495669Y1120560D02*
X517791D01*
X495669Y1109560D02*
Y1120560D01*
Y1109560D02*
X517791D01*
Y1120560D01*
X495669Y1095160D02*
X517791D01*
X495669Y1084160D02*
Y1095160D01*
Y1084160D02*
X517791D01*
Y1095160D01*
X627178Y974372D02*
X647902D01*
X627178Y963648D02*
Y974372D01*
Y963648D02*
X647902D01*
Y974372D01*
X581458Y1012472D02*
X602182D01*
X581458Y1001748D02*
Y1012472D01*
Y1001748D02*
X602182D01*
Y1012472D01*
X495669Y1064680D02*
X517791D01*
X495669Y1053680D02*
Y1064680D01*
Y1053680D02*
X517791D01*
Y1064680D01*
X351871Y966529D02*
Y1009591D01*
X326309D02*
X351871D01*
X326309Y966529D02*
Y1009591D01*
Y966529D02*
X351871D01*
X438432Y973888D02*
Y994612D01*
X427708D02*
X438432D01*
X427708Y973888D02*
Y994612D01*
Y973888D02*
X438432D01*
X364208Y975158D02*
Y995882D01*
Y975158D02*
X374932D01*
Y995882D01*
X364208D02*
X374932D01*
X366129Y1127340D02*
Y1138340D01*
X388251D01*
Y1127340D02*
Y1138340D01*
X366129Y1127340D02*
X388251D01*
X499479Y1188300D02*
X521601D01*
Y1199300D01*
X499479D02*
X521601D01*
X499479Y1188300D02*
Y1199300D01*
X495669Y1144690D02*
X517791D01*
X495669Y1133690D02*
Y1144690D01*
Y1133690D02*
X517791D01*
Y1144690D01*
X457234Y1104410D02*
Y1138410D01*
X416526Y1104410D02*
X457234D01*
X416526D02*
Y1138410D01*
X457234D01*
X465189Y1055790D02*
X487311D01*
X465189Y1044790D02*
Y1055790D01*
Y1044790D02*
X487311D01*
Y1055790D01*
X541009Y1146711D02*
X579131D01*
X541009Y1126589D02*
Y1146711D01*
Y1126589D02*
X579131D01*
Y1146711D01*
X730239Y1243429D02*
X768361D01*
Y1263551D01*
X730239D02*
X768361D01*
X730239Y1243429D02*
Y1263551D01*
X728969Y1219101D02*
X767091D01*
X728969Y1198979D02*
Y1219101D01*
Y1198979D02*
X767091D01*
Y1219101D01*
X350740Y1105950D02*
Y1141950D01*
X314740D02*
X350740D01*
X314740Y1105950D02*
Y1141950D01*
Y1105950D02*
X350740D01*
X249290Y1082730D02*
Y1185730D01*
Y1082730D02*
X307290D01*
Y1185730D01*
X249290D02*
X307290D01*
M02*
