G04*
G04 #@! TF.GenerationSoftware,Altium Limited,Altium Designer,20.0.2 (26)*
G04*
G04 Layer_Color=128*
%FSLAX44Y44*%
%MOMM*%
G71*
G01*
G75*
%ADD58R,1.8000X1.2300*%
G04:AMPARAMS|DCode=60|XSize=0.76mm|YSize=0.27mm|CornerRadius=0.0338mm|HoleSize=0mm|Usage=FLASHONLY|Rotation=180.000|XOffset=0mm|YOffset=0mm|HoleType=Round|Shape=RoundedRectangle|*
%AMROUNDEDRECTD60*
21,1,0.7600,0.2025,0,0,180.0*
21,1,0.6925,0.2700,0,0,180.0*
1,1,0.0675,-0.3463,0.1013*
1,1,0.0675,0.3463,0.1013*
1,1,0.0675,0.3463,-0.1013*
1,1,0.0675,-0.3463,-0.1013*
%
%ADD60ROUNDEDRECTD60*%
%ADD61R,0.4500X0.5000*%
%ADD62R,0.5500X0.6000*%
%ADD63R,0.7581X0.8121*%
%ADD64R,0.5000X0.4500*%
%ADD65R,0.7154X0.6725*%
%ADD66R,1.5562X1.4546*%
%ADD67R,0.6725X0.7154*%
%ADD68R,0.7200X0.6900*%
%ADD69R,0.6000X1.3000*%
%ADD70R,0.6000X0.8000*%
%ADD71R,2.6500X2.0500*%
%ADD72R,0.6000X0.8000*%
%ADD73R,1.2000X0.7000*%
%ADD74R,0.6000X0.5500*%
%ADD75R,1.0000X3.5000*%
%ADD76R,1.5000X3.4000*%
%ADD77R,0.4000X1.3500*%
%ADD78R,2.1000X1.6000*%
%ADD79R,1.8000X1.9000*%
%ADD80R,1.9000X1.9000*%
G04:AMPARAMS|DCode=81|XSize=1.3383mm|YSize=0.578mm|CornerRadius=0.289mm|HoleSize=0mm|Usage=FLASHONLY|Rotation=180.000|XOffset=0mm|YOffset=0mm|HoleType=Round|Shape=RoundedRectangle|*
%AMROUNDEDRECTD81*
21,1,1.3383,0.0000,0,0,180.0*
21,1,0.7603,0.5780,0,0,180.0*
1,1,0.5780,-0.3802,0.0000*
1,1,0.5780,0.3802,0.0000*
1,1,0.5780,0.3802,0.0000*
1,1,0.5780,-0.3802,0.0000*
%
%ADD81ROUNDEDRECTD81*%
%ADD82R,1.3383X0.5780*%
%ADD83R,1.1581X1.0121*%
%ADD84R,1.2500X0.6500*%
%ADD85R,2.1500X4.0000*%
%ADD86R,0.7000X0.7000*%
%ADD87R,1.2000X0.6500*%
%ADD88R,0.3500X0.5000*%
%ADD89R,2.3000X1.5000*%
%ADD90R,3.6000X0.7000*%
G36*
X658120Y1199860D02*
X652520D01*
Y1208060D01*
X658120D01*
Y1199860D01*
D02*
G37*
G36*
X410320Y950340D02*
Y926340D01*
X404320Y920340D01*
X398320D01*
X392320Y926340D01*
Y950340D01*
X398320Y956340D01*
X404320D01*
X410320Y950340D01*
D02*
G37*
D58*
X689210Y1192530D02*
D03*
X715410D02*
D03*
D60*
X645470Y1211460D02*
D03*
Y1206460D02*
D03*
Y1201460D02*
D03*
Y1196460D02*
D03*
X665170D02*
D03*
Y1201460D02*
D03*
Y1206460D02*
D03*
Y1211460D02*
D03*
D61*
X741680Y910650D02*
D03*
Y918150D02*
D03*
X318770Y1050230D02*
D03*
Y1042730D02*
D03*
D62*
X852170Y1246310D02*
D03*
Y1237810D02*
D03*
D63*
X506810Y1165860D02*
D03*
X519350D02*
D03*
X513000Y1115060D02*
D03*
X500460D02*
D03*
X513000Y1089660D02*
D03*
X500460D02*
D03*
X513000Y1059180D02*
D03*
X500460D02*
D03*
X383460Y1132840D02*
D03*
X370920D02*
D03*
X504270Y1193800D02*
D03*
X516810D02*
D03*
X513000Y1139190D02*
D03*
X500460D02*
D03*
X482520Y1050290D02*
D03*
X469980D02*
D03*
D64*
X612080Y969010D02*
D03*
X604580D02*
D03*
X388560Y1031240D02*
D03*
X381060D02*
D03*
X321370Y1177290D02*
D03*
X328870D02*
D03*
X322640Y1150620D02*
D03*
X330140D02*
D03*
D65*
X642326Y969010D02*
D03*
X632754D02*
D03*
X596606Y1007110D02*
D03*
X587034D02*
D03*
D66*
X339090Y978802D02*
D03*
Y997318D02*
D03*
D67*
X433070Y979464D02*
D03*
Y989036D02*
D03*
X369570Y990306D02*
D03*
Y980734D02*
D03*
D68*
X415290Y979650D02*
D03*
Y988850D02*
D03*
D69*
X416320Y957840D02*
D03*
X386320D02*
D03*
D70*
X401320Y960340D02*
D03*
X687440Y1172210D02*
D03*
X701940D02*
D03*
D71*
X631190Y715660D02*
D03*
Y765160D02*
D03*
D72*
X340510Y914400D02*
D03*
X327510D02*
D03*
X390260Y1209040D02*
D03*
X404760D02*
D03*
D73*
X297930Y1000360D02*
D03*
Y975360D02*
D03*
Y950360D02*
D03*
D74*
X432630Y1206500D02*
D03*
X441130D02*
D03*
X390720Y1224280D02*
D03*
X399220D02*
D03*
X405570Y1172210D02*
D03*
X397070D02*
D03*
X690050Y1136650D02*
D03*
X681550D02*
D03*
X481770Y1231900D02*
D03*
X473270D02*
D03*
X751010Y1186180D02*
D03*
X742510D02*
D03*
D75*
X344800Y1209960D02*
D03*
X324800D02*
D03*
D76*
X368300Y1267460D02*
D03*
X301300D02*
D03*
D77*
X434640Y1248410D02*
D03*
X428140D02*
D03*
X441140D02*
D03*
X421640D02*
D03*
X447640D02*
D03*
D78*
X403640Y1249660D02*
D03*
X465640D02*
D03*
D79*
X396640Y1275160D02*
D03*
X472640D02*
D03*
D80*
X422640D02*
D03*
X446640D02*
D03*
D81*
X425718Y1130910D02*
D03*
Y1111910D02*
D03*
X448042D02*
D03*
Y1121410D02*
D03*
D82*
Y1130910D02*
D03*
D83*
X568340Y1136650D02*
D03*
X551800D02*
D03*
X741030Y1253490D02*
D03*
X757570D02*
D03*
X756300Y1209040D02*
D03*
X739760D02*
D03*
D84*
X504390Y1218690D02*
D03*
Y1228090D02*
D03*
Y1237490D02*
D03*
X529390D02*
D03*
Y1218690D02*
D03*
X339290Y1050800D02*
D03*
Y1032000D02*
D03*
X364290D02*
D03*
Y1041400D02*
D03*
Y1050800D02*
D03*
D85*
X495300Y1007590D02*
D03*
Y940590D02*
D03*
D86*
X717130Y1155440D02*
D03*
X728130D02*
D03*
Y1173740D02*
D03*
X717130D02*
D03*
D87*
X422320Y1062430D02*
D03*
X401320Y1072030D02*
D03*
Y1052830D02*
D03*
D88*
X329490Y1134200D02*
D03*
X322990D02*
D03*
Y1113700D02*
D03*
X329490D02*
D03*
X335990D02*
D03*
X342490D02*
D03*
Y1134200D02*
D03*
X335990D02*
D03*
D89*
X267790Y1177230D02*
D03*
Y1091230D02*
D03*
D90*
X288290Y1156730D02*
D03*
Y1141730D02*
D03*
Y1126730D02*
D03*
Y1111730D02*
D03*
M02*
