G04*
G04 #@! TF.GenerationSoftware,Altium Limited,Altium Designer,20.0.2 (26)*
G04*
G04 Layer_Color=16711935*
%FSLAX44Y44*%
%MOMM*%
G71*
G01*
G75*
%ADD24R,1.7032X1.7032*%
%ADD25C,1.7032*%
%ADD26C,1.5700*%
%ADD27R,1.7032X1.7032*%
%ADD28R,1.7112X1.7112*%
%ADD29C,1.7112*%
%ADD30C,2.1682*%
%ADD31R,2.1682X2.1682*%
%ADD32C,1.4722*%
%ADD33C,1.6032*%
%ADD34C,1.4032*%
%ADD35C,1.4500*%
%ADD36R,1.4500X1.4500*%
%ADD37C,2.4532*%
%ADD38R,2.4532X2.4532*%
%ADD39R,2.0032X2.0032*%
%ADD40C,2.0032*%
%ADD41C,1.4732*%
%ADD63R,0.7581X0.8121*%
%ADD65R,0.7154X0.6725*%
%ADD66R,1.5562X1.4546*%
%ADD67R,0.6725X0.7154*%
G04:AMPARAMS|DCode=81|XSize=1.3383mm|YSize=0.578mm|CornerRadius=0.289mm|HoleSize=0mm|Usage=FLASHONLY|Rotation=180.000|XOffset=0mm|YOffset=0mm|HoleType=Round|Shape=RoundedRectangle|*
%AMROUNDEDRECTD81*
21,1,1.3383,0.0000,0,0,180.0*
21,1,0.7603,0.5780,0,0,180.0*
1,1,0.5780,-0.3802,0.0000*
1,1,0.5780,0.3802,0.0000*
1,1,0.5780,0.3802,0.0000*
1,1,0.5780,-0.3802,0.0000*
%
%ADD81ROUNDEDRECTD81*%
%ADD82R,1.3383X0.5780*%
%ADD83R,1.1581X1.0121*%
%ADD88R,0.3500X0.5000*%
%ADD89R,2.3000X1.5000*%
%ADD90R,3.6000X0.7000*%
%ADD91R,2.0032X1.4332*%
%ADD92R,1.1032X1.5032*%
G04:AMPARAMS|DCode=93|XSize=0.9632mm|YSize=0.4732mm|CornerRadius=0.1354mm|HoleSize=0mm|Usage=FLASHONLY|Rotation=180.000|XOffset=0mm|YOffset=0mm|HoleType=Round|Shape=RoundedRectangle|*
%AMROUNDEDRECTD93*
21,1,0.9632,0.2025,0,0,180.0*
21,1,0.6925,0.4732,0,0,180.0*
1,1,0.2707,-0.3463,0.1013*
1,1,0.2707,0.3463,0.1013*
1,1,0.2707,0.3463,-0.1013*
1,1,0.2707,-0.3463,-0.1013*
%
%ADD93ROUNDEDRECTD93*%
%ADD94R,0.6532X0.7032*%
%ADD95R,0.7532X0.8032*%
%ADD96R,0.7032X0.6532*%
%ADD97R,0.9232X0.8932*%
%ADD98R,0.8032X1.5032*%
%ADD99R,0.8032X1.0032*%
%ADD100R,2.8532X2.2532*%
%ADD101R,0.8032X1.0032*%
%ADD102R,1.4032X0.9032*%
%ADD103R,0.8032X0.7532*%
%ADD104R,1.2032X3.7032*%
%ADD105R,1.7032X3.6032*%
%ADD106R,0.6032X1.5532*%
%ADD107R,2.3032X1.8032*%
%ADD108R,2.0032X2.1032*%
%ADD109R,2.1032X2.1032*%
%ADD110R,1.4532X0.8532*%
%ADD111R,2.3532X4.2032*%
%ADD112R,0.9032X0.9032*%
%ADD113R,1.4032X0.8532*%
G36*
X404453Y957349D02*
X404584Y957324D01*
X404710Y957281D01*
X404829Y957222D01*
X404940Y957148D01*
X405040Y957060D01*
X411040Y951060D01*
X411128Y950960D01*
X411202Y950849D01*
X411261Y950730D01*
X411303Y950603D01*
X411329Y950473D01*
X411338Y950340D01*
Y926340D01*
X411329Y926207D01*
X411303Y926077D01*
X411261Y925950D01*
X411202Y925831D01*
X411128Y925720D01*
X411040Y925620D01*
X405040Y919620D01*
X404940Y919532D01*
X404829Y919458D01*
X404710Y919399D01*
X404584Y919357D01*
X404453Y919331D01*
X404320Y919322D01*
X398320D01*
X398187Y919331D01*
X398056Y919357D01*
X397930Y919399D01*
X397811Y919458D01*
X397700Y919532D01*
X397600Y919620D01*
X391600Y925620D01*
X391512Y925720D01*
X391438Y925831D01*
X391379Y925950D01*
X391337Y926077D01*
X391311Y926207D01*
X391302Y926340D01*
Y950340D01*
X391311Y950473D01*
X391337Y950603D01*
X391379Y950730D01*
X391438Y950849D01*
X391512Y950960D01*
X391600Y951060D01*
X397600Y957060D01*
X397700Y957148D01*
X397811Y957222D01*
X397930Y957281D01*
X398056Y957324D01*
X398187Y957349D01*
X398320Y957358D01*
X404320D01*
X404453Y957349D01*
D02*
G37*
D24*
X845820Y963930D02*
D03*
Y1120140D02*
D03*
X739140Y683260D02*
D03*
X775970Y694690D02*
D03*
X848360D02*
D03*
X560070Y1090930D02*
D03*
X669290Y909320D02*
D03*
X558800Y1162050D02*
D03*
X591820Y1271270D02*
D03*
X810260Y1226820D02*
D03*
X626110Y1094740D02*
D03*
D25*
X845820Y989330D02*
D03*
Y1014730D02*
D03*
Y1040130D02*
D03*
Y1145540D02*
D03*
Y1170940D02*
D03*
Y1196340D02*
D03*
X739140Y861060D02*
D03*
Y835660D02*
D03*
Y810260D02*
D03*
Y784860D02*
D03*
Y759460D02*
D03*
Y734060D02*
D03*
Y708660D02*
D03*
X775970Y720090D02*
D03*
Y745490D02*
D03*
Y770890D02*
D03*
X848360Y720090D02*
D03*
Y745490D02*
D03*
Y770890D02*
D03*
X788670Y953770D02*
D03*
X763270D02*
D03*
X737870D02*
D03*
X560070Y963930D02*
D03*
Y989330D02*
D03*
Y1014730D02*
D03*
Y1040130D02*
D03*
Y1065530D02*
D03*
X669290Y960120D02*
D03*
Y934720D02*
D03*
X558800Y1187450D02*
D03*
Y1212850D02*
D03*
Y1238250D02*
D03*
Y1263650D02*
D03*
X591820Y1245870D02*
D03*
Y1195070D02*
D03*
Y1169670D02*
D03*
Y1144270D02*
D03*
Y1118870D02*
D03*
Y1093470D02*
D03*
Y1068070D02*
D03*
Y1042670D02*
D03*
Y1220470D02*
D03*
X480060Y760730D02*
D03*
X822960Y1271270D02*
D03*
X848360D02*
D03*
X810260Y1176020D02*
D03*
Y998220D02*
D03*
Y1023620D02*
D03*
Y1049020D02*
D03*
Y1074420D02*
D03*
Y1099820D02*
D03*
Y1125220D02*
D03*
Y1150620D02*
D03*
Y1201420D02*
D03*
X768350Y1090930D02*
D03*
X742950D02*
D03*
X717550D02*
D03*
X692150D02*
D03*
X626110Y993140D02*
D03*
Y1018540D02*
D03*
Y1043940D02*
D03*
Y1069340D02*
D03*
X518160Y680720D02*
D03*
D26*
X812800Y749300D02*
D03*
Y693420D02*
D03*
X704850Y918210D02*
D03*
X847090Y848360D02*
D03*
X853440Y908050D02*
D03*
D27*
X814070Y953770D02*
D03*
X405060Y760730D02*
D03*
X797560Y1271270D02*
D03*
X666750Y1090930D02*
D03*
X492760Y680720D02*
D03*
D28*
X764900Y922770D02*
D03*
X730610Y1048500D02*
D03*
X659490Y1053580D02*
D03*
D29*
X764900Y857770D02*
D03*
X809900Y922770D02*
D03*
Y857770D02*
D03*
X730610Y983500D02*
D03*
X775610Y1048500D02*
D03*
Y983500D02*
D03*
X704490Y988580D02*
D03*
Y1053580D02*
D03*
X659490Y988580D02*
D03*
D30*
X563880Y916940D02*
D03*
X594280D02*
D03*
D31*
X624680D02*
D03*
D32*
X278130Y765810D02*
D03*
X303530D02*
D03*
X328930D02*
D03*
D33*
X659130Y704850D02*
D03*
X589130D02*
D03*
Y784850D02*
D03*
X659130D02*
D03*
D34*
X554920Y863600D02*
D03*
X704920D02*
D03*
D35*
X502320Y1256030D02*
D03*
X274320D02*
D03*
X427320Y831030D02*
D03*
D36*
X349320D02*
D03*
D37*
X302940Y875030D02*
D03*
D38*
X514940D02*
D03*
D39*
X396240Y681990D02*
D03*
X283210D02*
D03*
D40*
X447040D02*
D03*
X334010D02*
D03*
D41*
X699770Y1234440D02*
D03*
X680720Y1230630D02*
D03*
X660400Y1229360D02*
D03*
X486410Y1257300D02*
D03*
X383540Y1236980D02*
D03*
X422910Y1173480D02*
D03*
X402590Y1127760D02*
D03*
X458470Y1153160D02*
D03*
X483870Y1146810D02*
D03*
X332740Y1073150D02*
D03*
X666750Y1135380D02*
D03*
X852170Y1082040D02*
D03*
X788670Y1211580D02*
D03*
X859790Y1207770D02*
D03*
X654510Y1155700D02*
D03*
X646430Y1140460D02*
D03*
X576580Y1179830D02*
D03*
X382270Y1051560D02*
D03*
X364490Y1234440D02*
D03*
X590550Y817880D02*
D03*
X635000Y816610D02*
D03*
X697230Y745490D02*
D03*
X655320Y1249680D02*
D03*
X753110Y1136650D02*
D03*
X684530Y1054100D02*
D03*
X680720Y1073150D02*
D03*
X585470Y970280D02*
D03*
X452120Y1032510D02*
D03*
X314960Y953770D02*
D03*
X462280Y984250D02*
D03*
X402590Y1013460D02*
D03*
X530860Y1270000D02*
D03*
X322580Y1164590D02*
D03*
X346710Y1247140D02*
D03*
X455930Y1229360D02*
D03*
X401320Y1092200D02*
D03*
X486410Y1184910D02*
D03*
X447040Y1165860D02*
D03*
X707390Y1070610D02*
D03*
X710991Y1138129D02*
D03*
X734060Y1137920D02*
D03*
D63*
X506810Y1165860D02*
D03*
X519350D02*
D03*
X513000Y1115060D02*
D03*
X500460D02*
D03*
X513000Y1089660D02*
D03*
X500460D02*
D03*
X513000Y1059180D02*
D03*
X500460D02*
D03*
X383460Y1132840D02*
D03*
X370920D02*
D03*
X504270Y1193800D02*
D03*
X516810D02*
D03*
X513000Y1139190D02*
D03*
X500460D02*
D03*
X482520Y1050290D02*
D03*
X469980D02*
D03*
D65*
X642326Y969010D02*
D03*
X632754D02*
D03*
X596606Y1007110D02*
D03*
X587034D02*
D03*
D66*
X339090Y978802D02*
D03*
Y997318D02*
D03*
D67*
X433070Y979464D02*
D03*
Y989036D02*
D03*
X369570Y990306D02*
D03*
Y980734D02*
D03*
D81*
X425718Y1130910D02*
D03*
Y1111910D02*
D03*
X448042D02*
D03*
Y1121410D02*
D03*
D82*
Y1130910D02*
D03*
D83*
X568340Y1136650D02*
D03*
X551800D02*
D03*
X741030Y1253490D02*
D03*
X757570D02*
D03*
X756300Y1209040D02*
D03*
X739760D02*
D03*
D88*
X329490Y1134200D02*
D03*
X322990D02*
D03*
Y1113700D02*
D03*
X329490D02*
D03*
X335990D02*
D03*
X342490D02*
D03*
Y1134200D02*
D03*
X335990D02*
D03*
D89*
X267790Y1177230D02*
D03*
Y1091230D02*
D03*
D90*
X288290Y1156730D02*
D03*
Y1141730D02*
D03*
Y1126730D02*
D03*
Y1111730D02*
D03*
D91*
X689210Y1192530D02*
D03*
X715410D02*
D03*
D92*
X655320Y1203960D02*
D03*
D93*
X645470Y1211460D02*
D03*
Y1206460D02*
D03*
Y1201460D02*
D03*
Y1196460D02*
D03*
X665170D02*
D03*
Y1201460D02*
D03*
Y1206460D02*
D03*
Y1211460D02*
D03*
D94*
X741680Y910650D02*
D03*
Y918150D02*
D03*
X318770Y1050230D02*
D03*
Y1042730D02*
D03*
D95*
X852170Y1246310D02*
D03*
Y1237810D02*
D03*
D96*
X612080Y969010D02*
D03*
X604580D02*
D03*
X388560Y1031240D02*
D03*
X381060D02*
D03*
X321370Y1177290D02*
D03*
X328870D02*
D03*
X322640Y1150620D02*
D03*
X330140D02*
D03*
D97*
X415290Y979650D02*
D03*
Y988850D02*
D03*
D98*
X416320Y957840D02*
D03*
X386320D02*
D03*
D99*
X401320Y960340D02*
D03*
X687440Y1172210D02*
D03*
X701940D02*
D03*
D100*
X631190Y715660D02*
D03*
Y765160D02*
D03*
D101*
X340510Y914400D02*
D03*
X327510D02*
D03*
X390260Y1209040D02*
D03*
X404760D02*
D03*
D102*
X297930Y1000360D02*
D03*
Y975360D02*
D03*
Y950360D02*
D03*
D103*
X432630Y1206500D02*
D03*
X441130D02*
D03*
X390720Y1224280D02*
D03*
X399220D02*
D03*
X405570Y1172210D02*
D03*
X397070D02*
D03*
X690050Y1136650D02*
D03*
X681550D02*
D03*
X481770Y1231900D02*
D03*
X473270D02*
D03*
X751010Y1186180D02*
D03*
X742510D02*
D03*
D104*
X344800Y1209960D02*
D03*
X324800D02*
D03*
D105*
X368300Y1267460D02*
D03*
X301300D02*
D03*
D106*
X434640Y1248410D02*
D03*
X428140D02*
D03*
X441140D02*
D03*
X421640D02*
D03*
X447640D02*
D03*
D107*
X403640Y1249660D02*
D03*
X465640D02*
D03*
D108*
X396640Y1275160D02*
D03*
X472640D02*
D03*
D109*
X422640D02*
D03*
X446640D02*
D03*
D110*
X504390Y1218690D02*
D03*
Y1228090D02*
D03*
Y1237490D02*
D03*
X529390D02*
D03*
Y1218690D02*
D03*
X339290Y1050800D02*
D03*
Y1032000D02*
D03*
X364290D02*
D03*
Y1041400D02*
D03*
Y1050800D02*
D03*
D111*
X495300Y1007590D02*
D03*
Y940590D02*
D03*
D112*
X717130Y1155440D02*
D03*
X728130D02*
D03*
Y1173740D02*
D03*
X717130D02*
D03*
D113*
X422320Y1062430D02*
D03*
X401320Y1072030D02*
D03*
Y1052830D02*
D03*
M02*
