M48
;Layer_Color=9474304
;FILE_FORMAT=4:4
METRIC,TZ
;TYPE=PLATED
T1F00S00C0.7112
T2F00S00C0.7400
T3F00S00C0.8500
T4F00S00C0.9000
T5F00S00C0.9500
T6F00S00C1.0000
T7F00S00C1.0200
T8F00S00C1.3000
T9F00S00C1.3100
T10F00S00C1.5000
%
T01
X697230Y745490
X314960Y953770
X332740Y1073150
X382270Y1051560
X322580Y1164590
X422910Y1173480
X447040Y1165860
X458470Y1153160
X483870Y1146810
X486410Y1184910
X576580Y1179830
X654510Y1155700
X646430Y1140460
X666750Y1135380
X710991Y1138129
X734060Y1137920
X753110Y1136650
X707390Y1070610
X680720Y1073150
X684530Y1054100
X585470Y970280
X462280Y984250
X452120Y1032510
X402590Y1013460
X401320Y1092200
X402590Y1127760
X590550Y817880
X635000Y816610
X852170Y1082040
X859790Y1207770
X788670Y1211580
X699770Y1234440
X680720Y1230630
X660400Y1229360
X655320Y1249680
X530860Y1270000
X486410Y1257300
X455930Y1229360
X383540Y1236980
X364490Y1234440
X346710Y1247140
T02
X278130Y765810
X303530
X328930
T03
X554920Y863600
X704920
T04
X848360Y694690
Y720090
Y745490
Y770890
X775970
Y745490
Y720090
Y694690
X739140Y683260
Y708660
Y734060
Y759460
Y784860
X659130Y784850
X589130
Y704850
X659130
X518160Y680720
X492760
X560070Y963930
Y989330
Y1014730
Y1040130
Y1065530
Y1090930
X591820Y1093470
Y1118870
Y1144270
Y1169670
X558800Y1162050
Y1187450
X591820Y1068070
Y1042670
X626110Y1043940
Y1018540
Y993140
X669290Y960120
Y934720
Y909320
X737870Y953770
X763270
X788670
X739140Y861060
Y835660
Y810260
X742950Y1090930
X768350
X717550
X692150
X666750
X626110Y1094740
Y1069340
X810260Y1074420
Y1049020
Y1023620
Y998220
X845820Y989330
Y963930
X814070Y953770
X845820Y1014730
Y1040130
Y1120140
Y1145540
Y1170940
X810260Y1176020
Y1150620
Y1125220
Y1099820
Y1201420
Y1226820
X797560Y1271270
X822960
X848360
X845820Y1196340
X591820Y1195070
Y1220470
Y1245870
Y1271270
X558800Y1263650
Y1238250
Y1212850
T05
X349320Y831030
X427320
X502320Y1256030
X274320
T06
X405060Y760730
X480060
X764900Y857770
Y922770
X775610Y983500
X730610
X704490Y988580
X659490
Y1053580
X704490
X730610Y1048500
X775610
X809900Y922770
Y857770
T07
X812800Y693420
Y749300
X704850Y918210
X853440Y908050
X847090Y848360
T08
X447040Y681990
X396240
X334010
X283210
T09
X563880Y916940
X594280
X624680
T10
X302940Y875030
X514940
M30
